<?xml version="1.0" encoding="UTF-8" standalone="no"?>
<!-- Created with Inkscape (http://www.inkscape.org/) -->

<svg
   xmlns:dc="http://purl.org/dc/elements/1.1/"
   xmlns:cc="http://creativecommons.org/ns#"
   xmlns:rdf="http://www.w3.org/1999/02/22-rdf-syntax-ns#"
   xmlns:svg="http://www.w3.org/2000/svg"
   xmlns="http://www.w3.org/2000/svg"
   xmlns:sodipodi="http://sodipodi.sourceforge.net/DTD/sodipodi-0.dtd"
   xmlns:inkscape="http://www.inkscape.org/namespaces/inkscape"
   width="640"
   height="480"
   id="svg2"
   version="1.1"
   inkscape:version="0.92.1 r15371"
   sodipodi:docname="ayo_03.svg"
   viewBox="0 0 600 450"
   inkscape:export-filename="overlay-border.png"
   inkscape:export-xdpi="45"
   inkscape:export-ydpi="45">
  <defs
     id="defs4" />
  <sodipodi:namedview
     id="base"
     pagecolor="#ffffff"
     bordercolor="#666666"
     borderopacity="1.0"
     inkscape:pageopacity="0.0"
     inkscape:pageshadow="2"
     inkscape:zoom="0.84"
     inkscape:cx="770.97299"
     inkscape:cy="246.984"
     inkscape:document-units="px"
     inkscape:current-layer="layer1"
     showgrid="false"
     units="px"
     inkscape:window-width="1920"
     inkscape:window-height="1003"
     inkscape:window-x="0"
     inkscape:window-y="25"
     inkscape:window-maximized="1" />
  <metadata
     id="metadata7">
    <rdf:RDF>
      <cc:Work
         rdf:about="">
        <dc:format>image/svg+xml</dc:format>
        <dc:type
           rdf:resource="http://purl.org/dc/dcmitype/StillImage" />
        <dc:title />
      </cc:Work>
    </rdf:RDF>
  </metadata>
  <g
     inkscape:label="Layer 1"
     inkscape:groupmode="layer"
     id="layer1"
     transform="translate(0,-602.36218)">
    <g
       id="_x23_000000ff"
       transform="matrix(0.39394178,0,0,0.39394178,17.75101,492.78323)">
      <path
         id="path3510"
         d="m 470.04,343.96 c 28.29,-1.25 56.58,-2.46 84.9,-2.26 33.03,-0.37 66.05,0.64 99.06,1.5 25.69,0.29 51.36,-0.76 77.05,-0.45 26.64,1.27 53.28,2.54 79.92,3.74 13.66,1.12 27.36,1.76 41.0601,1.78 13.1899,0.57 26.61,0.32 39.45,3.87 8.8,2.52 18.37,3.72 25.78,9.59 9.43,6.83 17.49,15.49 23.83,25.25 15.7,23.96 22.87,52.64 24.3,81.01 -0.55,18.2 -3.78,36.17 -6.25,54.17 -1.98,12.9901 -3.35,26.09 -6.29,38.91 -1.88,12.62 -2.68,25.38 -4.27,38.05 -2.32,17.85 -4.95,35.87 -3.36,53.91 0.9901,9.65 0.05,19.33 -0.36,28.97 -0.19,4.11 -1.23,8.63 1.21,12.31 1.42,0.86 2.76,-0.55 3.99,-1.12 3.34,-0.16 6.65,0.42 9.99,0.5 4.12,-1 7.62,-4.3 12.03,-4.07 4.01,0.92 7.57,3.44 10.16,6.61 3.89,-1.63 6.83,-4.84 10.74,-6.43 2.58,-0.93 4.93,0.81 7.04,2.05 2.26,1.5 5.18,2.76 5.52,5.84 1.69,-2.43 4.36,-3.77 6.75,-5.41 2.3,-1.46 4.63,-4.13 7.64,-3.35 4.1301,1.64 7.71,4.54 12.16,5.46 3.13,-2.8 6.24,-7.19 10.92,-6.73 3.87,1.35 6.9,4.45 9.11,7.82 6.61,-0.92 13.21,-2.83 19.95,-2.11 4.3101,0.38 8.75,0.8 12.9701,-0.51 6.21,-1.79 12.7,-3.93 17.52,-8.43 4.22,-4.72 0.1299,-10.95 1.0499,-16.38 1.74,-13.43 6.86,-26.5 15.0601,-37.31 9.87,-13.4 24.5399,-22.98 40.49,-27.51 8.7,-2.39 17.9099,-3.86 26.88,-2.03 24.58,3.47 46.97,19.63 57.6599,42.07 3.8201,8.32 7.2101,17.34 6.42,26.65 -0.33,6.26 -0.38,12.69 -2.62,18.65 -2.09,6.15 -6.23,11.81 -6.8101,18.36 2.66,2.54 6.4701,3.59 9.0601,6.32 4.74,3.61 7.14,11.4 2.61,16.12 -3.5499,3.36 -8.04,5.53 -11.7999,8.66 -0.4701,8.27 4.4099,15.23 6.8199,22.79 1.8,6.21 3.86,12.71 2.6,19.24 -2.5499,17.8 -12.84,34.07 -27.1899,44.77 -12.9501,9.5 -28.8301,14.94 -44.8301,15.76 -19.4299,-0.6201 -38.99,-7.83 -53.2,-21.3 -10.47,-10.19 -18.13,-23.75 -19.9401,-38.35 -0.9099,-5.59 2.28,-11.81 -0.9199,-16.92 -3.98,-3.63 -8.75,-6.48 -13.8101,-8.33 -6.86,-2.52 -13.95,0.64 -20.96,0.29 -2.71,2.1 -4.72,5.27 -8.12,6.37 -2.92,0.84 -5.5701,-1.0099 -8.05,-2.23 -3.49,-2.07 -8.23,-2.06 -11.61,0.21 -1.97,1.09 -3.9399,2.48 -6.28,2.5 -4.96,0.26 -8.0499,-5.46 -13.1299,-4.51 -4.97,-0.26 -7.79,6.23 -12.97,4.86 -3.65,-1.56 -5.93,-5.04 -8.3799,-7.98 -2.16,-0.25 -4.33,-0.29 -6.48,-0.09 -0.67,3.62 -3.04,7.02 -6.48,8.45 -4.76,1.08 -8.3,-3.2 -11.72,-5.75 -0.8199,0.32 -1.6299,0.65 -2.43,0.98 -0.61,-0.16 -1.85,-0.48 -2.46,-0.64 -3.14,2.46 -6.03,5.65 -10,6.67 -4.88,0.74 -7.79,-4.13 -12.08,-5.42 -2.44,9.53 -0.99,19.72 -4.39,29.0099 -1.76,5.28 -6.7,8.9901 -12.16,9.69 -10.76,1.4 -21.66,0.05 -32.44,1.1801 -8.28,0.36 -16.58,2.14 -24.86,1.08 -4.92,-0.64 -8.91,-4.61 -9.63,-9.5 -1.41,-7.25 -2.6,-14.79 -0.88,-22.08 -4.13,-2.09 -6.28,-6.8701 -10.71,-8.39 -5.21,-1.11 -8.05,4.25 -12.17,6.15 -5.58,1.68 -8.39,-5.63 -13.69,-5.39 -5.19,-0.61 -7.12,6.14 -12.04,6.48 -5.15,0.18 -7.6,-6.67 -12.98,-5.56 -4.89,-0.23 -6.97,6.32 -11.95,5.78 -3.03,-0.41 -4.93,-3.09 -7.11,-4.92 -2.21,-2.58 -6.71,-2.42 -8.86,0.15 -2.62,2.28 -5.09,6.25 -9.12,5.3 -3.39,-1.5 -5.67,-4.6 -8.05,-7.3 -2.17,0.2 -4.75,-0.39 -6.36,1.45 -2.7599,2.08 -4.71,5.97 -8.53,6.06 -5.31,-0.16 -6.53,-7.94 -11.96,-7.4301 -3.53,0.4 -7.72,4.13 -10.74,0.58 -3.09,-4.44 -3.2,-10.21 -5.08,-15.19 -8.77,-0.89 -17.61,-0.11 -26.28,1.28 3.46,20.56 5.9,41.3 6.82,62.13 1.9,28.66 0.31,57.41 -2.16,85.97 -2.67,28.96 -7.07,57.77 -13.49,86.13 -1.03,5.55 -3.38,11.16 -2.28,16.87 2.03,5.03 7.15,7.74 11.14,11.05 41.65,31.52 90.13,51.85 134.99,78.09 26.73,15.77 52.55,34.51 70.97,59.87 10.83,14.8301 18.84,31.66 23.92,49.29 5.61,19.39 7.7,39.62 8.02,59.75 -0.4,29.6801 -2.47,59.3101 -2.71,89 -0.24,2.91 -0.35,6.39 -2.84,8.39 -2.81,2.08 -6.5,2.23 -9.85,2.63 H 190.41 c -3.6,-0.36 -7.67,-0.37 -10.57,-2.79 -2.21,-1.77 -1.65,-4.88 -1.47,-7.3199 6.83,-48.6901 12.88,-97.65 13.49,-146.88 0.37,-11.38 1.22,-22.77 3.66,-33.92 4.38,-21.73 14.07,-42.36 28.07,-59.5499 16.92,-20.9401 38.76,-37.1901 61.18,-51.78 9.01,-6 18.52,-11.26 27.14,-17.84 8.81,-6.4501 19.37,-9.61 29.29,-13.8801 6.19,-2.6 12.57,-4.72 18.96,-6.79 5.6,-1.77 10.97,-4.43 16.87,-5.13 27,-3.79 51.46,-17.1 78.24,-21.85 4.68,-1.04 9.55,-1.16 14.15,-2.53 3.25,-0.97 4.31,-4.64 4.27,-7.65 1.09,-14.23 -4.8,-27.56 -8.77,-40.89 -1.23,-4.89 -6.46,-6.11 -10.65,-7.29 -14.92,-4.41 -25.82,-16.84 -33.11,-30.05 -9.96,-18.39 -14.94,-39.1 -17.1,-59.79 -0.37,-4.68 -1.2,-9.44 -0.37,-14.11 0.91,-4.06 5.05,-6.03 8.78,-6.75 3.75,-1.02 8.67,-1.15 10.75,-5.02 1.3,-3.57 0.24,-7.49 -0.71,-11.03 -2.48,-8.06 -4.37,-16.28 -6.17,-24.5099 -0.87,3.27 -1.03,6.83 -2.65,9.85 -4.99,5.16 -9.82,12.06 -17.65,12.59 -4.26,-0.42 -8.39,-1.95 -12.07,-4.11 -4.12,-2.54 -5.69,-7.38 -7.52,-11.58 -2.67,-6.85 -6.25,-13.34 -8.06,-20.5 -4.58,-15.17 -9,-30.39 -11.78,-46 -1.56,-9.71 -4.54,-19.48 -2.8,-29.37 0.36,-6.92 2.17,-14.52 -1.48,-20.88 -5.89,-11.08 -11.57,-22.48 -14.25,-34.82 -1.09,-4.97 -2.73,-9.79 -4.03,-14.71 -7.87,-26.91 -12.07,-54.68 -17.35,-82.16 -3.44,-21.83 -5.2,-43.92 -5.1,-66.02 -0.6,-10.13 1.31,-20.12 2.83,-30.08 2.14,-13.65 7.73,-26.43 13.61,-38.83 3.56,-6.64 7.75,-12.92 12.1,-19.05 9.34,-12.84 22.47,-22.79 37.32,-28.4 9.84,-4.67 20.89,-4.71 31.45,-6.35 9.94,-1.53 20.02,-1.78 30,-2.95 10.36,-1.0101 20.73,-1.9601 31.13,-2.3201 m -26.32,141.75 c -5.98,1.97 -12.34,4.47 -16.08,9.85 -3.22,4.84 -5.76,10.13 -7.67,15.61 -1.97,6.12 -4.4,12.25 -4.51,18.77 -1.03,39.34 -1.84,78.69 -2.28,118.03 -0.18,7.67 -2.08,15.3101 -1.06,22.98 1.02,3.36 2.33,6.7 4.32,9.63 2.48,3.37 1.45,7.88 2.78,11.7 7.61,-25.61 20.93,-50.07 41.06,-67.95 28.14,-25.59 68.33,-36.54 105.69,-30.36 26.16,3.44 51.0601,15.61 69.4901,34.55 25.13,25.98 39.35,60.39 48.14,94.96 6.13,-0.33 12.17,-1.6 18.29,-2.15 4.35,-0.43 9.64,-1.75 11.36,-6.32 2.14,-5.43 5.59,-10.17 8.91,-14.92 1.55,-2.22 3.95,-4.35 6.88,-3.76 4.78,1.08 8.21,5.61 13.14,6.2 3.27,-3.29 5.97,-7.83 10.85,-9 4.59,-0.73 7.67,3.7 10.12,6.91 2.5099,-0.2 5.85,0.58 7.43,-1.96 2.47,-2.96 5.06,-7.4 9.54,-6.81 2.92,1.35 4.97,3.95 6.86,6.46 6.25,2.77 8.32,-6.56 14.01,-6.6 2.94,0.18 4.85,2.8199 6.93,4.62 1.87,2.15 4.72,2.84 7.34,3.66 1.99,-3.31 4.71,-6.43 8.16,-8.25 4.81,-1.41 7.59,3.75 10.66,6.41 3.16,1.57 5.37,-1.58 7.66,-3.21 2.37,-2.07 5.76,-3.63 8.83,-2.03 4.21,2.82 8.29,5.97 13.05,7.85 -0.17,-0.89 -0.52,-2.68 -0.69,-3.57 1.05,-2.89 1.93,-5.92 1.62,-9.02 -0.51,-6.99 -1.1,-13.98 -1.65,-20.97 -0.28,-10.68 -0.2401,-21.38 0.33,-32.05 -0.17,-9.68 0.43,-19.36 1.02,-29.02 0.15,-7.65 -0.11,-15.3 0.37,-22.94 0.56,-10 -0.53,-20.02 0.39,-30 0.85,-9.65 0.14,-19.33 -0.11,-28.98 0.35,-9.61 -0.41,-19.29 -2.31,-28.71 -2.03,-6.53 -9.7401,-7.99 -15.56,-9.32 -11.98,-1.47 -24.0601,-0.2 -36.08,-0.15 -9.3,0.79 -18.63,-0.05 -27.95,0.43 -8.31,-0.69 -16.64,-0.34 -24.96,-0.05 -11.34,-0.47 -22.7,0.02 -34.05,0.14 -16.69,-0.53 -33.38,0.48 -50.06,0.27 -4.63,-0.36 -9.26,-0.29 -13.88,-0.08 -24.36,0.01 -48.71,-0.35 -73.06,-1.19 -8.33,0.41 -16.61,-0.93 -24.94,-0.55 -11.03,-0.26 -22.04,-0.71 -33.07,-0.26 -13.96,-0.76 -27.95,0.72 -41.89,-0.31 -7.68,0.07 -15.35,0.63 -23.01,0.15 -6.7901,-0.01 -13.8101,-0.94 -20.3601,1.31 m 744.3499,152.45 c -5.24,1.63 -9.3199,6.16 -15,6.54 -6.1499,0.83 -10.4099,-4.67 -15.99,-6.03 -3.39,-0.37 -7.11,-0.71 -10.14,1.15 -4.99,2.97 -8.72,7.86 -10.71,13.28 -2.7,7.67 -4.1,15.8 -4.04,23.9301 0.05,4.65 -1.21,9.34 -0.12,13.95 0.75,4.06 2.39,8.49 6.26,10.56 4.28,2.18 9.2201,0.96 13.7101,0.15 6.6899,-1.03 11.2799,-7.01 18.02,-7.95 5.7899,-1.14 10.86,2.72 14.86,6.4 3.76,3.85 9.84,3.8 14.62,2.11 8.22,-2.98 14.3099,-10.38 16.86,-18.62 2.8199,-6.55 1.73,-13.81 1.4299,-20.7 -0.8199,-8.89 -8.21,-14.83 -13.6,-21.19 -3.9399,-4.5501 -10.6899,-4.9401 -16.16,-3.5801 m 11,103.86 c -2.6,0.71 -5.12,1.66 -7.6799,2.47 -3.75,1.24 -6.5701,4.13 -10.08,5.8 -3.4901,1.73 -7.6101,2.89 -11.41,1.5 -6.01,-1.46 -10.5701,-6.66 -16.92,-6.99 -6.12,-0.61 -11.66,3.52 -14.59,8.61 -5.1801,8.89 -6.41,19.48 -6.3201,29.6 -0.3099,7.61 2.79,15.35 8.41,20.53 3.0701,2.9 5.61,6.4901 9.35,8.61 3.7101,1.38 7.9301,1.3 11.7001,0.11 3.76,-1.79 6.62,-5.24 10.8199,-6.19 4.3301,-1.37 8.87,0.65 12.0701,3.55 2.4299,1.75 4.5199,4.41 7.5199,5.12 7.9501,-0.28 13.9901,-6.19 19.2401,-11.52 4.5499,-4.3 6.2,-10.52 8.2599,-16.21 1.66,-4.49 1.6201,-9.36 1.66,-14.07 -0.65,-5.91 -1.3199,-12.16 -4.91,-17.11 -3.24,-4.6 -6.7599,-9.25 -11.5599,-12.32 -1.72,-0.97 -3.53,-2.54 -5.5601,-1.49 z"
         inkscape:connector-curvature="0" />
    </g>
  </g>
</svg>
