<?xml version="1.0" encoding="UTF-8" standalone="no"?>
<!-- Created with Inkscape (http://www.inkscape.org/) -->

<svg
   xmlns:osb="http://www.openswatchbook.org/uri/2009/osb"
   xmlns:dc="http://purl.org/dc/elements/1.1/"
   xmlns:cc="http://creativecommons.org/ns#"
   xmlns:rdf="http://www.w3.org/1999/02/22-rdf-syntax-ns#"
   xmlns:svg="http://www.w3.org/2000/svg"
   xmlns="http://www.w3.org/2000/svg"
   xmlns:xlink="http://www.w3.org/1999/xlink"
   xmlns:sodipodi="http://sodipodi.sourceforge.net/DTD/sodipodi-0.dtd"
   xmlns:inkscape="http://www.inkscape.org/namespaces/inkscape"
   width="640"
   height="480"
   id="svg2"
   version="1.1"
   inkscape:version="0.92.1 r15371"
   sodipodi:docname="osda_04.svg"
   viewBox="0 0 600 450"
   inkscape:export-filename="overlay-border.png"
   inkscape:export-xdpi="45"
   inkscape:export-ydpi="45">
  <defs
     id="defs4">
    <linearGradient
       id="linearGradient3845">
      <stop
         id="stop3847"
         offset="0"
         style="stop-color:#a6a6a6;stop-opacity:1;" />
      <stop
         id="stop3849"
         offset="1"
         style="stop-color:#ffffff;stop-opacity:1;" />
    </linearGradient>
    <linearGradient
       id="linearGradient3797">
      <stop
         id="stop3799"
         offset="0"
         style="stop-color:#f05454;stop-opacity:1;" />
      <stop
         id="stop3801"
         offset="1"
         style="stop-color:#e5c0c0;stop-opacity:1;" />
    </linearGradient>
    <linearGradient
       id="linearGradient5555"
       inkscape:collect="always">
      <stop
         id="stop5557"
         offset="0"
         style="stop-color:#e7e2f1;stop-opacity:1" />
      <stop
         id="stop5559"
         offset="1"
         style="stop-color:#161616;stop-opacity:1" />
    </linearGradient>
    <linearGradient
       id="linearGradient5457"
       inkscape:collect="always">
      <stop
         id="stop5459"
         offset="0"
         style="stop-color:#000000;stop-opacity:1;" />
      <stop
         id="stop5461"
         offset="1"
         style="stop-color:#000000;stop-opacity:0;" />
    </linearGradient>
    <linearGradient
       id="linearGradient5231">
      <stop
         id="stop5241"
         offset="0"
         style="stop-color:#0549d8;stop-opacity:1;" />
      <stop
         id="stop5235"
         offset="1"
         style="stop-color:#c8d4fb;stop-opacity:1;" />
    </linearGradient>
    <linearGradient
       osb:paint="solid"
       id="linearGradient5221">
      <stop
         id="stop5223"
         offset="0"
         style="stop-color:#8fc3da;stop-opacity:1" />
    </linearGradient>
    <inkscape:perspective
       id="perspective2993"
       inkscape:persp3d-origin="55.612729 : 36.528159 : 1"
       inkscape:vp_z="108.89234 : 40.780423 : 1"
       inkscape:vp_y="0 : 199.32489 : 0"
       inkscape:vp_x="2.3331212 : 40.780423 : 1"
       sodipodi:type="inkscape:persp3d" />
    <linearGradient
       gradientTransform="translate(2.5,0.71428572)"
       gradientUnits="userSpaceOnUse"
       y2="1029.4626"
       x2="85.352814"
       y1="1029.4626"
       x1="34.350262"
       id="linearGradient5685"
       xlink:href="#linearGradient5679"
       inkscape:collect="always" />
    <linearGradient
       id="linearGradient5679"
       inkscape:collect="always">
      <stop
         id="stop5681"
         offset="0"
         style="stop-color:#db3851;stop-opacity:1;" />
      <stop
         id="stop5683"
         offset="1"
         style="stop-color:#dcbfc3;stop-opacity:1" />
    </linearGradient>
    <linearGradient
       inkscape:collect="always"
       xlink:href="#linearGradient5555"
       id="linearGradient5774-1"
       gradientUnits="userSpaceOnUse"
       gradientTransform="matrix(-0.99244243,0,0,1,117.89101,1.1887384)"
       x1="34.350262"
       y1="1029.4626"
       x2="85.352814"
       y2="1029.4626" />
    <linearGradient
       gradientTransform="matrix(-0.23324009,-0.17626825,-0.18578029,0.24582653,213.51205,742.14619)"
       gradientUnits="userSpaceOnUse"
       y2="1032.6786"
       x2="-42.885998"
       y1="1012.8904"
       x1="-63.890354"
       id="linearGradient3851-8"
       xlink:href="#linearGradient3845"
       inkscape:collect="always" />
    <linearGradient
       inkscape:collect="always"
       xlink:href="#linearGradient3845"
       id="linearGradient3868-7"
       gradientUnits="userSpaceOnUse"
       gradientTransform="matrix(-0.28025523,-0.08323725,-0.08772901,0.29537877,111.75642,710.73867)"
       x1="-63.890354"
       y1="1012.8904"
       x2="-42.885998"
       y2="1032.6786" />
    <linearGradient
       inkscape:collect="always"
       xlink:href="#linearGradient5679"
       id="linearGradient5200-4"
       gradientUnits="userSpaceOnUse"
       gradientTransform="matrix(-0.99244243,0,0,-1.0369203,122.82193,2093.913)"
       x1="27.988731"
       y1="1025.8502"
       x2="94.004494"
       y2="1031.3474" />
    <linearGradient
       inkscape:collect="always"
       xlink:href="#linearGradient5679-2-2"
       id="linearGradient5327-8"
       gradientUnits="userSpaceOnUse"
       gradientTransform="matrix(-0.99244243,0,0,-1.3925146,-8.0232971,2482.2487)"
       x1="27.988731"
       y1="1025.8502"
       x2="94.004494"
       y2="1031.3474" />
    <linearGradient
       id="linearGradient5679-2-2">
      <stop
         id="stop5681-1-2"
         offset="0"
         style="stop-color:#b3001c;stop-opacity:0.97321427;" />
      <stop
         id="stop5683-2-7"
         offset="1"
         style="stop-color:#b1021a;stop-opacity:1;" />
    </linearGradient>
    <linearGradient
       gradientTransform="matrix(0.64156392,-0.10254749,0,0.88537008,100.86896,919.07)"
       gradientUnits="userSpaceOnUse"
       y2="75.225533"
       x2="-58.384766"
       y1="74.908371"
       x1="-130.66469"
       id="linearGradient3991"
       xlink:href="#linearGradient5457"
       inkscape:collect="always" />
    <linearGradient
       gradientUnits="userSpaceOnUse"
       y2="986.97632"
       x2="61.995449"
       y1="986.97632"
       x1="14.559077"
       id="linearGradient4153"
       xlink:href="#linearGradient5457"
       inkscape:collect="always" />
    <linearGradient
       inkscape:collect="always"
       xlink:href="#linearGradient3845"
       id="linearGradient3919"
       gradientUnits="userSpaceOnUse"
       gradientTransform="matrix(-0.14028903,-0.19738289,-0.20595634,0.14267866,241.27311,845.24982)"
       x1="-63.890354"
       y1="1012.8904"
       x2="-42.885998"
       y2="1032.6786" />
    <linearGradient
       inkscape:collect="always"
       xlink:href="#linearGradient5679-2-2"
       id="linearGradient6211-6"
       gradientUnits="userSpaceOnUse"
       gradientTransform="matrix(-0.20456773,0.12958805,0.13151812,0.21325618,-48.985275,811.2288)"
       x1="-63.890354"
       y1="1012.8904"
       x2="-42.885998"
       y2="1032.6786" />
    <linearGradient
       inkscape:collect="always"
       xlink:href="#linearGradient5679-2-2"
       id="linearGradient6211-0"
       gradientUnits="userSpaceOnUse"
       gradientTransform="matrix(-0.20456773,0.12958805,0.13151812,0.21325618,-53.530961,810.97626)"
       x1="-63.890354"
       y1="1012.8904"
       x2="-42.885998"
       y2="1032.6786" />
    <linearGradient
       id="linearGradient7554">
      <stop
         style="stop-color:#fff1f1;stop-opacity:0.75;"
         offset="0"
         id="stop7556" />
      <stop
         style="stop-color:#000000;stop-opacity:1;"
         offset="1"
         id="stop7558" />
    </linearGradient>
    <linearGradient
       y2="755.73999"
       x2="429.82999"
       gradientTransform="matrix(0.36255,-0.36255,0.36255,0.36255,-66.756,397.74)"
       y1="755.73999"
       gradientUnits="userSpaceOnUse"
       x1="290.82999"
       id="linearGradient4530">
      <stop
         offset="0"
         stop-color="#4d4d4d"
         id="stop5697" />
      <stop
         offset="1"
         stop-opacity="0"
         stop-color="#4d4d4d"
         id="stop5699" />
    </linearGradient>
    <linearGradient
       y2="648.26001"
       x2="406.70999"
       gradientTransform="matrix(0.36255,-0.36255,0.36255,0.36255,-19.586,428.5)"
       y1="648.26001"
       gradientUnits="userSpaceOnUse"
       x1="268.70999"
       id="linearGradient4533">
      <stop
         offset="0"
         stop-color="#ccc"
         id="stop5655" />
      <stop
         offset="1"
         stop-color="#929292"
         id="stop5657" />
    </linearGradient>
    <radialGradient
       r="266.67999"
       gradientTransform="matrix(0.20092,-0.20712,0.064453,0.062536,243.82,725.94)"
       cx="524.96002"
       cy="838.21002"
       gradientUnits="userSpaceOnUse"
       fy="620.53003"
       fx="525.34003"
       id="radialGradient4544">
      <stop
         offset="0"
         stop-color="#008100"
         id="stop3848" />
      <stop
         offset=".20624"
         stop-color="#005d00"
         id="stop3854" />
      <stop
         offset=".8532"
         stop-color="#006a00"
         id="stop3858" />
      <stop
         offset="1"
         stop-color="#004300"
         id="stop3850" />
    </radialGradient>
    <radialGradient
       r="50.609001"
       gradientTransform="matrix(-0.62812,0.59341,-3.7081,-3.9249,1982.5,1755.9)"
       cx="297.34"
       cy="462.67999"
       gradientUnits="userSpaceOnUse"
       fy="460.45001"
       fx="331.03"
       id="radialGradient4553">
      <stop
         offset="0"
         stop-opacity=".41985"
         stop-color="#fff"
         id="stop3890" />
      <stop
         offset="1"
         stop-opacity="0"
         stop-color="#fff"
         id="stop3892" />
    </radialGradient>
    <radialGradient
       r="67.140999"
       gradientTransform="matrix(-0.40383,-0.36863,0.13444,-0.14727,563.98,619.3)"
       cx="409.92001"
       cy="-9.2812996"
       gradientUnits="userSpaceOnUse"
       id="radialGradient4645">
      <stop
         offset="0"
         stop-color="#006000"
         id="stop3851" />
      <stop
         offset=".53513"
         stop-color="#006000"
         id="stop3866" />
      <stop
         offset=".56255"
         stop-color="#008000"
         id="stop3864" />
      <stop
         offset=".73112"
         stop-color="#00a200"
         id="stop3857" />
      <stop
         offset="1"
         stop-color="#060"
         id="stop3853" />
    </radialGradient>
    <linearGradient
       id="imagebot_82">
      <stop
         offset="0"
         stop-color="#dfdfdf"
         id="imagebot_104" />
      <stop
         offset="1"
         stop-color="#fff"
         id="imagebot_103" />
    </linearGradient>
    <filter
       id="imagebot_50"
       style="color-interpolation-filters:sRGB">
      <feGaussianBlur
         stdDeviation="2.08236"
         id="imagebot_84" />
    </filter>
    <filter
       id="imagebot_77"
       style="color-interpolation-filters:sRGB">
      <feGaussianBlur
         stdDeviation="2.68359"
         id="imagebot_83" />
    </filter>
    <linearGradient
       x1="746.17554"
       x2="719.02795"
       y1="706.61176"
       xlink:href="#imagebot_82"
       y2="610.96387"
       id="imagebot_75"
       gradientTransform="scale(0.93314657,1.071643)"
       gradientUnits="userSpaceOnUse" />
    <linearGradient
       x1="716.39905"
       x2="732.2063"
       y1="619.24017"
       xlink:href="#imagebot_82"
       y2="692.0257"
       id="imagebot_68"
       gradientTransform="scale(0.93313895,1.0716518)"
       gradientUnits="userSpaceOnUse" />
    <linearGradient
       y2="623.91583"
       x1="726.47681"
       y1="615.75739"
       x2="737.1698"
       id="imagebot_48"
       gradientTransform="scale(0.93594535,1.0684385)"
       gradientUnits="userSpaceOnUse">
      <stop
         offset="0"
         stop-color="#9b6a06"
         id="imagebot_91" />
      <stop
         offset=".10284"
         stop-color="#b38e29"
         id="imagebot_90" />
      <stop
         offset=".25018"
         stop-color="#faf892"
         id="imagebot_89" />
      <stop
         offset=".51725"
         stop-color="#ddba32"
         id="imagebot_88" />
      <stop
         offset=".6932"
         stop-color="#cf9e08"
         id="imagebot_87" />
      <stop
         offset=".73575"
         stop-color="#976400"
         id="imagebot_86" />
      <stop
         offset="1"
         stop-color="#976400"
         id="imagebot_85" />
    </linearGradient>
    <linearGradient
       y2="708.58136"
       x1="648.24622"
       y1="707.64764"
       x2="649.90411"
       id="imagebot_46"
       gradientTransform="scale(0.95014084,1.0524755)"
       gradientUnits="userSpaceOnUse">
      <stop
         offset="0"
         stop-color="#a07100"
         id="imagebot_94" />
      <stop
         offset=".43039"
         stop-color="#f4f300"
         id="imagebot_93" />
      <stop
         offset="1"
         stop-color="#9e700b"
         id="imagebot_92" />
    </linearGradient>
    <linearGradient
       y2="748.42963"
       x1="614.02771"
       y1="745.21991"
       x2="617.53381"
       id="imagebot_44"
       gradientTransform="scale(1.0082381,0.99182919)"
       gradientUnits="userSpaceOnUse">
      <stop
         offset="0"
         stop-color="#a07100"
         id="imagebot_97" />
      <stop
         offset=".38158"
         stop-color="#f6f600"
         id="imagebot_96" />
      <stop
         offset="1"
         stop-color="#9e700b"
         id="imagebot_95" />
    </linearGradient>
    <linearGradient
       y2="671.43372"
       x1="684.67242"
       y1="679.81012"
       x2="673.25751"
       id="imagebot_42"
       gradientTransform="scale(0.92919642,1.0761987)"
       gradientUnits="userSpaceOnUse">
      <stop
         offset="0"
         stop-color="#375a93"
         id="imagebot_102" />
      <stop
         offset=".36961"
         stop-color="#5c9eda"
         id="imagebot_101" />
      <stop
         offset=".53886"
         stop-color="#97cafd"
         id="imagebot_100" />
      <stop
         offset=".77808"
         stop-color="#8bbff3"
         id="imagebot_99" />
      <stop
         offset="1"
         stop-color="#2a629a"
         id="imagebot_98" />
    </linearGradient>
  </defs>
  <sodipodi:namedview
     id="base"
     pagecolor="#ffffff"
     bordercolor="#666666"
     borderopacity="1.0"
     inkscape:pageopacity="0.0"
     inkscape:pageshadow="2"
     inkscape:zoom="0.84"
     inkscape:cx="683.33509"
     inkscape:cy="166.52121"
     inkscape:document-units="px"
     inkscape:current-layer="layer1"
     showgrid="false"
     units="px"
     inkscape:window-width="1920"
     inkscape:window-height="1003"
     inkscape:window-x="0"
     inkscape:window-y="25"
     inkscape:window-maximized="1" />
  <metadata
     id="metadata7">
    <rdf:RDF>
      <cc:Work
         rdf:about="">
        <dc:format>image/svg+xml</dc:format>
        <dc:type
           rdf:resource="http://purl.org/dc/dcmitype/StillImage" />
        <dc:title />
      </cc:Work>
    </rdf:RDF>
  </metadata>
  <g
     inkscape:label="Layer 1"
     inkscape:groupmode="layer"
     id="layer1"
     transform="translate(0,-602.36218)">
    <g
       id="g3928"
       transform="matrix(-0.08330948,-0.16800895,0.16800895,-0.08330948,258.49224,741.75386)" />
    <g
       id="g5764"
       transform="matrix(0.98249756,0,0,0.98249756,90.007379,613.31904)">
      <path
         id="path5766"
         d="m 167.89,54.158 c 5.914,8.129 10.734,17.461 15.07,26.414 5.766,-0.418 10.645,-5.188 17.188,-3.734 8.98,1.973 18.828,3.223 27.785,5.645 3.137,-1.02 7.043,-0.152 9.855,0.719 12.176,3.738 24.793,9.035 37.629,12.832 1.234,0.035 1.836,0.062 3.074,0.102 21.191,-9.965 43.113,-21.473 68.105,-22.938 22.047,-1.301 46.555,2.25 59.664,16.047 7.484,7.887 11.664,19.641 4.062,27.859 -7.992,8.637 -22.945,16.016 -34.531,21.539 -3.875,4.922 -11.348,9.438 -17.797,11.652 -5.883,7.852 -7.238,17.816 -11.266,26.047 -11.363,23.242 -16.039,49.203 -22.629,73.48 -5.203,19.184 -8.461,39.434 -9.254,58.441 -8.531,4.699 -17.094,10.172 -25.258,15.785 -0.531,1.422 -0.785,2.141 -1.32,3.566 -10.305,8.73 -21.16,18.496 -31.273,27.027 -1.188,0.316 -1.789,0.449 -2.984,0.758 -21.902,20.531 -42.395,40.992 -55.492,66.02 h -1.82 c -20.027,-10.508 -38.773,-24.766 -57.711,-38.203 -1.422,0 -2.934,1.141 -4.262,0 C 117.995,368.982 95.909,353.72 80.928,337.173 79.385,335.485 78.987,332.677 78.53,330.189 66.393,319.595 54.96,308.377 41.616,297.501 32.882,252.446 18.175,204.524 13.116,160.621 37.241,143.945 63.503,129.348 90.054,113.816 68.875,104.076 40.363,90.568 33.109,72.201 30.375,65.283 29.738,56.599 35.007,49.982 c 7.855,-9.875 25.254,-7.555 35.031,-14.023 7.25,-4.805 7.824,-14.633 17.938,-18.547 15.984,-6.227 37.098,-2.562 49.57,5.98 12.01,8.254 22.5,19.949 30.34,30.762 z"
         inkscape:connector-curvature="0" />
      <radialGradient
         r="62.004002"
         cx="82.424004"
         cy="57.313999"
         gradientUnits="userSpaceOnUse"
         id="SVGID_1_">
        <stop
           id="stop5769"
           offset=".0168"
           style="stop-color:#FFFFFF" />
        <stop
           id="stop5771"
           offset=".2416"
           style="stop-color:#7DA7D9" />
        <stop
           id="stop5773"
           offset=".5281"
           style="stop-color:#3A89C9" />
        <stop
           id="stop5775"
           offset="1"
           style="stop-color:#0072BC" />
      </radialGradient>
      <path
         id="path5777"
         d="m 175.36,76.744 c 2.898,5.09 5.441,11.586 8.219,16.859 -12.023,3.93 -24.848,6.664 -35.027,13.688 C 134.157,86.834 111.372,63.244 82.65,57.357 72.283,55.236 56.572,55.181 49.298,63.38 c -9.305,10.562 1.645,22.285 9.438,30.559 0.961,0.668 1.445,0.984 2.422,1.641 C 49.549,88.537 41.428,78.963 38.916,68.412 37.182,61.076 42.76,51.455 52.674,47.142 61.139,43.458 72.619,42.591 78.432,36.599 83.737,31.13 88.526,21.146 99.979,20.646 c 39.513,-1.726 62.813,34.095 75.383,56.099 z"
         inkscape:connector-curvature="0"
         style="fill:url(#SVGID_1_)" />
      <linearGradient
         x1="55.648998"
         y1="93.222"
         x2="145.16"
         gradientUnits="userSpaceOnUse"
         y2="93.222"
         id="SVGID_2_">
        <stop
           id="stop5780"
           offset="0"
           style="stop-color:#0072BC" />
        <stop
           id="stop5782"
           offset="1"
           style="stop-color:#000000" />
      </linearGradient>
      <path
         id="path5784"
         d="m 139.68,102.88 c 2.215,2.914 3.328,4.344 5.484,7.25 -1.566,3.238 -4.793,6.055 -4.52,9.891 -23.527,1.07 -45.688,-7.605 -64.637,-19.145 C 64.991,94.153 55.265,84.821 55.663,73.415 c 2.766,-7.316 13.797,-6.77 21.426,-7.09 25.135,3.044 49.475,19.723 62.595,36.551 z"
         inkscape:connector-curvature="0"
         style="fill:url(#SVGID_2_)" />
      <radialGradient
         r="51.999001"
         cx="361.47"
         cy="135.56"
         gradientUnits="userSpaceOnUse"
         id="SVGID_3_">
        <stop
           id="stop5787"
           offset=".0168"
           style="stop-color:#FFFFFF" />
        <stop
           id="stop5789"
           offset=".2416"
           style="stop-color:#7DA7D9" />
        <stop
           id="stop5791"
           offset=".5281"
           style="stop-color:#3A89C9" />
        <stop
           id="stop5793"
           offset="1"
           style="stop-color:#0072BC" />
      </radialGradient>
      <path
         id="path5795"
         d="m 391.45,86.677 c 9.734,5.559 16.273,14.164 13.582,23.203 -2.555,8.652 -12.949,13.957 -21.934,20.016 -1.145,0.324 -1.719,0.488 -2.859,0.785 3.758,-10.277 0.25,-20.141 -9.977,-27.203 -16.672,-11.512 -43.398,-7.152 -61,0.324 1.75,0.879 3.078,-1.098 4.777,-1.137 17.406,-3.684 41.504,-5.621 54.008,5.531 7.598,6.801 7.676,17.141 4.145,25.484 -5.023,11.781 -23.594,17 -36.375,19.324 -17.664,3.176 -37.281,4.152 -56.637,2.105 -3.031,-0.293 -4.543,-0.445 -7.582,-0.723 25.707,1.449 52.148,-1.02 72.477,-12.773 6.125,-3.551 6.336,-10.055 5.785,-15.926 -0.441,-4.652 -5.844,-7.922 -10.273,-10.52 -10.77,-2.738 -21.312,-1.828 -33.145,-0.84 -0.414,0.305 -0.633,0.445 -1.062,0.75 -6.992,1.637 -14.133,2.5 -20.414,5.25 -26.875,5.523 -51.016,16.191 -79.832,16.465 -1.59,0.348 -2.66,-0.793 -3.863,0.23 -0.418,-4.195 5.035,-6.496 8.238,-8.648 23.895,-10.57 51.367,-18.328 74.43,-29.68 17.988,-8.832 39.477,-18.492 62.285,-18.516 15.85,0.002 32.49,-0.768 45.21,6.513 z"
         inkscape:connector-curvature="0"
         style="fill:url(#SVGID_3_)" />
      <linearGradient
         x1="212.64999"
         y1="99.877998"
         x2="270.07001"
         gradientUnits="userSpaceOnUse"
         y2="99.877998"
         id="SVGID_4_">
        <stop
           id="stop5798"
           offset=".0056"
           style="stop-color:#0072BC" />
        <stop
           id="stop5800"
           offset="1"
           style="stop-color:#363895" />
      </linearGradient>
      <path
         id="path5802"
         d="m 270.07,100.78 c -8.434,3.402 -17.191,7.402 -25.426,11.73 -8.125,-8.609 -20.75,-13.273 -31.992,-17.688 8.211,-1.805 14.898,-11.438 24.539,-5.852 11.38,3.406 22.49,7.028 32.88,11.81 z"
         inkscape:connector-curvature="0"
         style="fill:url(#SVGID_4_)" />
      <radialGradient
         r="44.521999"
         cx="193.83"
         cy="139.38"
         gradientUnits="userSpaceOnUse"
         id="SVGID_5_">
        <stop
           id="stop5805"
           offset=".0168"
           style="stop-color:#FFFFFF" />
        <stop
           id="stop5807"
           offset=".2416"
           style="stop-color:#7DA7D9" />
        <stop
           id="stop5809"
           offset=".5281"
           style="stop-color:#3A89C9" />
        <stop
           id="stop5811"
           offset="1"
           style="stop-color:#0072BC" />
      </radialGradient>
      <path
         id="path5813"
         d="m 237.86,110.77 c 1.203,1.18 2.242,2.551 2.734,4.172 -12.398,3.695 -25.844,7.613 -35.477,13.902 -3.117,2.02 -7.727,5.246 -6.086,9.332 0.406,0.43 1.195,0.898 1.578,0.555 0.273,0.227 0.816,0.672 0.688,1.352 -5.273,2.07 -11.484,-1.008 -16.219,-2.609 -12.969,-4.375 -27.074,-10.535 -40.555,-16.742 0.227,-6.457 6.535,-10.016 12.332,-13.18 11.582,-6.324 26.391,-8.93 39.82,-13.273 15.34,2.461 29.01,8.453 41.19,16.503 z"
         inkscape:connector-curvature="0"
         style="fill:url(#SVGID_5_)" />
      <path
         id="path5815"
         d="m 304.75,105.32 c -3.562,1.781 -7.164,1.395 -11.082,2.836 2.719,-2.164 7.055,-2.012 10.434,-3.438 0.26,0.22 0.38,0.36 0.65,0.6 z"
         inkscape:connector-curvature="0" />
      <path
         id="path5817"
         d="m 327.11,117.97 c -1.969,1.152 -4.164,0.805 -6.023,-0.059 1.87,-0.37 4.06,0.11 6.02,0.06 z"
         inkscape:connector-curvature="0"
         style="fill:#ffffff" />
      <linearGradient
         x1="208.31"
         y1="135.35001"
         x2="339.95001"
         gradientUnits="userSpaceOnUse"
         y2="135.35001"
         id="SVGID_6_">
        <stop
           id="stop5820"
           offset="0"
           style="stop-color:#0072BC" />
        <stop
           id="stop5822"
           offset="1"
           style="stop-color:#000000" />
      </linearGradient>
      <path
         id="path5824"
         d="m 339.57,125.12 c 1.309,5.547 -0.777,12.41 -6.887,15.391 -23.316,11.328 -52.625,10.473 -78.527,10.836 -15.664,-2.27 -31.426,-5.574 -45.844,-11.262 18.402,0.016 36.914,-4.445 54.652,-8.906 24.766,2.047 47.895,-1.816 69.008,-11.82 3.44,0.52 6,3.32 7.6,5.76 z"
         inkscape:connector-curvature="0"
         style="fill:url(#SVGID_6_)" />
      <radialGradient
         r="129.52"
         cx="77.238998"
         cy="181.97"
         gradientUnits="userSpaceOnUse"
         id="SVGID_7_">
        <stop
           id="stop5827"
           offset=".0168"
           style="stop-color:#FFFFFF" />
        <stop
           id="stop5829"
           offset=".2416"
           style="stop-color:#7DA7D9" />
        <stop
           id="stop5831"
           offset=".5281"
           style="stop-color:#3A89C9" />
        <stop
           id="stop5833"
           offset="1"
           style="stop-color:#0072BC" />
      </radialGradient>
      <path
         id="path5835"
         d="m 195.24,143.84 c -28.145,15.105 -54.852,34.043 -76.52,55.309 -5.758,17.336 -4.406,38.309 -2.969,56.094 1.105,13.66 2.262,29.602 4.82,43.367 4.672,25.074 7.57,50.973 15.039,74.984 -3.602,-0.555 -7.156,-4.676 -10.488,-7.023 -12.785,-9.098 -26.668,-22.016 -39.965,-34.359 -0.746,-6.141 -3.598,-12.266 -4.992,-18.617 -7.438,-34.359 -14.93,-68.539 -18.023,-104.3 -1.203,-1.164 0.242,-1.023 0.039,-2.297 -1.457,-8.93 -0.637,-18.156 -0.227,-27.453 22.188,-22.074 49.555,-40.762 79.941,-55.469 18.34,6.46 35.74,13.74 53.35,19.77 z"
         inkscape:connector-curvature="0"
         style="fill:url(#SVGID_7_)" />
      <radialGradient
         r="104.68"
         cx="288.23001"
         cy="183.96001"
         gradientUnits="userSpaceOnUse"
         id="SVGID_8_">
        <stop
           id="stop5838"
           offset=".0168"
           style="stop-color:#FFFFFF" />
        <stop
           id="stop5840"
           offset=".2416"
           style="stop-color:#7DA7D9" />
        <stop
           id="stop5842"
           offset=".5281"
           style="stop-color:#3A89C9" />
        <stop
           id="stop5844"
           offset="1"
           style="stop-color:#0072BC" />
      </radialGradient>
      <path
         id="path5846"
         d="m 310.29,159.47 c 2.363,1.523 6.145,3.418 6.207,6.289 -17.055,8.242 -25.336,12.48 -41.465,21.055 -9.145,-13.023 -25.777,-21.168 -39.988,-28.414 -10.48,-5.336 -22.617,-9.812 -34.008,-14.773 1.266,-0.871 1.922,-1.312 3.211,-2.18 32.41,12.99 67.69,18.51 106.04,18.01 z"
         inkscape:connector-curvature="0"
         style="fill:url(#SVGID_8_)" />
      <linearGradient
         x1="186.07001"
         y1="87.862999"
         x2="220.42"
         gradientUnits="userSpaceOnUse"
         y2="87.862999"
         id="SVGID_9_">
        <stop
           id="stop5849"
           offset=".0056"
           style="stop-color:#A7A9AC" />
        <stop
           id="stop5851"
           offset="1"
           style="stop-color:#FFFFFF" />
      </linearGradient>
      <path
         id="path5853"
         d="m 220.42,86.564 c -4.527,2.168 -9.008,4.816 -13.461,6.547 -5.844,-1.73 -12.578,-2.852 -18.68,-0.711 -0.875,-2.207 -1.324,-3.316 -2.207,-5.516 4.672,-1.727 7.016,-2.574 11.738,-4.27 8.04,0.43 15.35,2.165 22.61,3.95 z"
         inkscape:connector-curvature="0"
         style="fill:url(#SVGID_9_)" />
      <linearGradient
         x1="21.856001"
         y1="147.38"
         x2="133.85001"
         gradientUnits="userSpaceOnUse"
         y2="147.38"
         id="SVGID_10_">
        <stop
           id="stop5856"
           offset=".0056"
           style="stop-color:#A7A9AC" />
        <stop
           id="stop5858"
           offset="1"
           style="stop-color:#FFFFFF" />
      </linearGradient>
      <path
         id="path5860"
         d="m 133.85,122.73 c -27.883,14.84 -54.441,32.266 -75.938,53.262 -11.785,-4.078 -23.871,-7.508 -36.055,-11.793 20.051,-17.566 47.141,-30.191 72.262,-44.617 5.098,-1.695 12.23,-0.207 18.332,-0.223 6.94,1.42 14.06,2.57 21.4,3.37 z"
         inkscape:connector-curvature="0"
         style="fill:url(#SVGID_10_)" />
      <linearGradient
         x1="274.82001"
         y1="123.25"
         x2="317.34"
         gradientUnits="userSpaceOnUse"
         y2="123.25"
         id="SVGID_11_">
        <stop
           id="stop5863"
           offset=".0056"
           style="stop-color:#A7A9AC" />
        <stop
           id="stop5865"
           offset="1"
           style="stop-color:#FFFFFF" />
      </linearGradient>
      <path
         id="path5867"
         d="m 317.34,121.34 c -14.043,4.664 -26.609,6.359 -42.523,6.062 11.809,-3.211 24.32,-6.02 36.109,-8.27 2.72,-0.5 4.29,1.44 6.41,2.21 z"
         inkscape:connector-curvature="0"
         style="fill:url(#SVGID_11_)" />
      <linearGradient
         x1="124.88"
         y1="187.86"
         x2="269.79001"
         gradientUnits="userSpaceOnUse"
         y2="187.86"
         id="SVGID_12_">
        <stop
           id="stop5870"
           offset=".0056"
           style="stop-color:#A7A9AC" />
        <stop
           id="stop5872"
           offset="1"
           style="stop-color:#FFFFFF" />
      </linearGradient>
      <path
         id="path5874"
         d="m 223.86,158.56 c 16.57,7.125 34.375,15.488 45.582,28.16 1.184,1.34 -0.973,1.34 -1.668,2.441 -22.629,12.578 -33.473,18.988 -54.539,31.879 -3.918,2.867 -8.137,4.883 -12.238,6.984 -25.672,-6.371 -49.941,-19.293 -76.113,-27.891 19.445,-21.316 46.316,-36.148 71.992,-52.426 9.61,1.66 18.19,7.07 26.99,10.86 z"
         inkscape:connector-curvature="0"
         style="fill:url(#SVGID_12_)" />
      <linearGradient
         x1="317.64999"
         y1="160.42"
         x2="333.57999"
         gradientUnits="userSpaceOnUse"
         y2="160.42"
         id="SVGID_13_">
        <stop
           id="stop5877"
           offset=".0056"
           style="stop-color:#A7A9AC" />
        <stop
           id="stop5879"
           offset="1"
           style="stop-color:#FFFFFF" />
      </linearGradient>
      <path
         id="path5881"
         d="m 321.01,163.49 c -0.617,-1.574 -1.789,-3.047 -3.367,-4.336 6.336,-0.742 9.531,-1.109 15.93,-1.809 -3.13,2.4 -8.32,4.18 -12.56,6.15 z"
         inkscape:connector-curvature="0"
         style="fill:url(#SVGID_13_)" />
      <radialGradient
         r="104.71"
         cx="288.14001"
         cy="183.95"
         gradientUnits="userSpaceOnUse"
         id="SVGID_14_">
        <stop
           id="stop5884"
           offset=".0168"
           style="stop-color:#FFFFFF" />
        <stop
           id="stop5886"
           offset=".2416"
           style="stop-color:#7DA7D9" />
        <stop
           id="stop5888"
           offset=".5281"
           style="stop-color:#3A89C9" />
        <stop
           id="stop5890"
           offset="1"
           style="stop-color:#0072BC" />
      </radialGradient>
      <path
         id="path5892"
         d="m 283.5,322.38 c -9.219,10.711 -19.156,17.109 -29.516,25.543 -0.941,-6.926 0.082,-14.457 -0.215,-21.68 -0.727,-17.629 1.371,-38.805 4.527,-58.23 4.242,-26.105 8.953,-53.906 17.559,-79.844 13.285,-5.895 26.055,-13.82 39.84,-20.023 -17.78,49.55 -32.19,101.37 -32.19,154.23 z"
         inkscape:connector-curvature="0"
         style="fill:url(#SVGID_14_)" />
      <path
         id="path5894"
         d="m 106.25,194.12 c 1.977,0.617 5.395,0.43 5.727,2.527 -13.891,-3.777 -28.691,-8.523 -42.391,-15.109 14.974,4.9 22.303,7.43 36.661,12.58 z"
         inkscape:connector-curvature="0" />
      <linearGradient
         x1="286.37"
         y1="236.67999"
         x2="347.69"
         gradientUnits="userSpaceOnUse"
         y2="236.67999"
         id="SVGID_15_">
        <stop
           id="stop5897"
           offset=".0056"
           style="stop-color:#A7A9AC" />
        <stop
           id="stop5899"
           offset="1"
           style="stop-color:#FFFFFF" />
      </linearGradient>
      <path
         id="path5901"
         d="m 347.69,154.52 c -13.492,30.102 -21.203,63.195 -30.086,93.656 -5.133,17.613 -6.477,37.582 -9.293,55.723 -7.41,5.023 -14.68,10.098 -21.945,14.938 -0.078,-39.641 11.617,-78.352 22.895,-115.66 3.711,-12.277 8.344,-24.547 12.016,-37.473 8.58,-4.12 16.63,-9.76 26.41,-11.19 z"
         inkscape:connector-curvature="0"
         style="fill:url(#SVGID_15_)" />
      <linearGradient
         x1="193.98"
         y1="299.95999"
         x2="269.14999"
         gradientUnits="userSpaceOnUse"
         y2="299.95999"
         id="SVGID_16_">
        <stop
           id="stop5904"
           offset=".0056"
           style="stop-color:#A7A9AC" />
        <stop
           id="stop5906"
           offset="1"
           style="stop-color:#FFFFFF" />
      </linearGradient>
      <path
         id="path5908"
         d="m 250.72,340.33 c -0.137,4.383 2.191,10.414 -4.027,12.781 -18.059,17.629 -38.664,34.516 -52.07,55.523 -2.32,-46.008 2.273,-90.898 4.434,-135.54 0.621,-12.895 1.293,-28.547 3.398,-41.457 16.441,-12.816 35.129,-22.051 53.363,-33.922 4.332,-1.492 9,-4.055 13.336,-6.434 -12.47,49.9 -17,100.08 -18.43,149.05 z"
         inkscape:connector-curvature="0"
         style="fill:url(#SVGID_16_)" />
      <linearGradient
         x1="201.39999"
         y1="277.26999"
         x2="128.14"
         gradientUnits="userSpaceOnUse"
         y2="262.10999"
         id="SVGID_17_">
        <stop
           id="stop5911"
           offset=".0056"
           style="stop-color:#A7A9AC" />
        <stop
           id="stop5913"
           offset="1"
           style="stop-color:#FFFFFF" />
      </linearGradient>
      <path
         id="path5915"
         d="m 56.856,177.67 c -2.945,51.523 12.223,99.961 24.5,148.41 -11.703,-10.289 -22.496,-21.68 -34.43,-32.812 -9.18,-35.176 -14.297,-69.07 -22.824,-107.15 0.418,-3.254 -0.805,-5.895 -1.441,-9.742 -0.551,-3.984 -0.781,-5.992 -1.316,-9.984 12.246,3.31 23.879,7.28 35.511,11.27 z"
         inkscape:connector-curvature="0"
         style="fill:url(#SVGID_17_)" />
      <linearGradient
         x1="193.89"
         y1="313.35999"
         x2="120.57"
         gradientUnits="userSpaceOnUse"
         y2="298.19"
         id="SVGID_18_">
        <stop
           id="stop5918"
           offset=".0056"
           style="stop-color:#A7A9AC" />
        <stop
           id="stop5920"
           offset="1"
           style="stop-color:#FFFFFF" />
      </linearGradient>
      <path
         id="path5922"
         d="m 198.14,231.97 c -0.871,24.172 -4.258,45.48 -3.902,69.414 -0.727,22.168 -1.098,33.215 -1.879,55.285 0.348,17.324 0.078,35.391 0.977,53.031 -3.805,-1.188 -7.055,-3.785 -10.629,-5.176 -0.324,-1.215 -2.18,-1.551 -2.926,-2.043 -9.688,-6.395 -18.879,-12.543 -29.082,-19.27 -0.23,-0.977 -1.68,-1.164 -2.398,-1.828 -4.629,-4.141 -13.742,-6.41 -12.66,-14.512 -9.988,-51.059 -21.527,-105.73 -15.547,-155.3 0.379,-3.18 1.184,-6.516 3.074,-9.316 26.31,8.93 50.79,20.18 74.98,29.73 z"
         inkscape:connector-curvature="0"
         style="fill:url(#SVGID_18_)" />
    </g>
  </g>
</svg>
