<?xml version="1.0" encoding="UTF-8" standalone="no"?>
<!-- Created with Inkscape (http://www.inkscape.org/) -->

<svg
   xmlns:osb="http://www.openswatchbook.org/uri/2009/osb"
   xmlns:dc="http://purl.org/dc/elements/1.1/"
   xmlns:cc="http://creativecommons.org/ns#"
   xmlns:rdf="http://www.w3.org/1999/02/22-rdf-syntax-ns#"
   xmlns:svg="http://www.w3.org/2000/svg"
   xmlns="http://www.w3.org/2000/svg"
   xmlns:xlink="http://www.w3.org/1999/xlink"
   xmlns:sodipodi="http://sodipodi.sourceforge.net/DTD/sodipodi-0.dtd"
   xmlns:inkscape="http://www.inkscape.org/namespaces/inkscape"
   width="600"
   height="450"
   id="svg2"
   version="1.1"
   inkscape:version="0.91 r13725"
   sodipodi:docname="howa_01.svg"
   viewBox="0 0 600 450"
   inkscape:export-filename="overlay-border.png"
   inkscape:export-xdpi="45"
   inkscape:export-ydpi="45">
  <defs
     id="defs4">
    <linearGradient
       id="linearGradient3845">
      <stop
         id="stop3847"
         offset="0"
         style="stop-color:#a6a6a6;stop-opacity:1;" />
      <stop
         id="stop3849"
         offset="1"
         style="stop-color:#ffffff;stop-opacity:1;" />
    </linearGradient>
    <linearGradient
       id="linearGradient3797">
      <stop
         id="stop3799"
         offset="0"
         style="stop-color:#f05454;stop-opacity:1;" />
      <stop
         id="stop3801"
         offset="1"
         style="stop-color:#e5c0c0;stop-opacity:1;" />
    </linearGradient>
    <linearGradient
       id="linearGradient5555"
       inkscape:collect="always">
      <stop
         id="stop5557"
         offset="0"
         style="stop-color:#e7e2f1;stop-opacity:1" />
      <stop
         id="stop5559"
         offset="1"
         style="stop-color:#161616;stop-opacity:1" />
    </linearGradient>
    <linearGradient
       id="linearGradient5457"
       inkscape:collect="always">
      <stop
         id="stop5459"
         offset="0"
         style="stop-color:#000000;stop-opacity:1;" />
      <stop
         id="stop5461"
         offset="1"
         style="stop-color:#000000;stop-opacity:0;" />
    </linearGradient>
    <linearGradient
       id="linearGradient5231">
      <stop
         id="stop5241"
         offset="0"
         style="stop-color:#0549d8;stop-opacity:1;" />
      <stop
         id="stop5235"
         offset="1"
         style="stop-color:#c8d4fb;stop-opacity:1;" />
    </linearGradient>
    <linearGradient
       osb:paint="solid"
       id="linearGradient5221">
      <stop
         id="stop5223"
         offset="0"
         style="stop-color:#8fc3da;stop-opacity:1" />
    </linearGradient>
    <inkscape:perspective
       id="perspective2993"
       inkscape:persp3d-origin="55.612728 : 36.528159 : 1"
       inkscape:vp_z="108.89234 : 40.780423 : 1"
       inkscape:vp_y="0 : 199.32489 : 0"
       inkscape:vp_x="2.3331212 : 40.780423 : 1"
       sodipodi:type="inkscape:persp3d" />
    <linearGradient
       gradientTransform="translate(2.5,0.71428572)"
       gradientUnits="userSpaceOnUse"
       y2="1029.4626"
       x2="85.352814"
       y1="1029.4626"
       x1="34.350262"
       id="linearGradient5685"
       xlink:href="#linearGradient5679"
       inkscape:collect="always" />
    <linearGradient
       id="linearGradient5679"
       inkscape:collect="always">
      <stop
         id="stop5681"
         offset="0"
         style="stop-color:#db3851;stop-opacity:1;" />
      <stop
         id="stop5683"
         offset="1"
         style="stop-color:#dcbfc3;stop-opacity:1" />
    </linearGradient>
    <linearGradient
       inkscape:collect="always"
       xlink:href="#linearGradient5555"
       id="linearGradient5774-1"
       gradientUnits="userSpaceOnUse"
       gradientTransform="matrix(-0.99244243,0,0,1,117.89101,1.1887384)"
       x1="34.350262"
       y1="1029.4626"
       x2="85.352814"
       y2="1029.4626" />
    <linearGradient
       gradientTransform="matrix(-0.23324009,-0.17626825,-0.18578029,0.24582653,213.51205,742.14619)"
       gradientUnits="userSpaceOnUse"
       y2="1032.6786"
       x2="-42.885998"
       y1="1012.8904"
       x1="-63.890354"
       id="linearGradient3851-8"
       xlink:href="#linearGradient3845"
       inkscape:collect="always" />
    <linearGradient
       inkscape:collect="always"
       xlink:href="#linearGradient3845"
       id="linearGradient3868-7"
       gradientUnits="userSpaceOnUse"
       gradientTransform="matrix(-0.28025523,-0.08323725,-0.08772901,0.29537877,111.75642,710.73867)"
       x1="-63.890354"
       y1="1012.8904"
       x2="-42.885998"
       y2="1032.6786" />
    <linearGradient
       inkscape:collect="always"
       xlink:href="#linearGradient5679"
       id="linearGradient5200-4"
       gradientUnits="userSpaceOnUse"
       gradientTransform="matrix(-0.99244243,0,0,-1.0369203,122.82193,2093.913)"
       x1="27.988731"
       y1="1025.8502"
       x2="94.004494"
       y2="1031.3474" />
    <linearGradient
       inkscape:collect="always"
       xlink:href="#linearGradient5679-2-2"
       id="linearGradient5327-8"
       gradientUnits="userSpaceOnUse"
       gradientTransform="matrix(-0.99244243,0,0,-1.3925146,-8.0232971,2482.2487)"
       x1="27.988731"
       y1="1025.8502"
       x2="94.004494"
       y2="1031.3474" />
    <linearGradient
       id="linearGradient5679-2-2">
      <stop
         id="stop5681-1-2"
         offset="0"
         style="stop-color:#b3001c;stop-opacity:0.97321427;" />
      <stop
         id="stop5683-2-7"
         offset="1"
         style="stop-color:#b1021a;stop-opacity:1;" />
    </linearGradient>
    <linearGradient
       gradientTransform="matrix(0.64156392,-0.10254749,0,0.88537008,100.86896,919.07)"
       gradientUnits="userSpaceOnUse"
       y2="75.225533"
       x2="-58.384766"
       y1="74.908371"
       x1="-130.66469"
       id="linearGradient3991"
       xlink:href="#linearGradient5457"
       inkscape:collect="always" />
    <linearGradient
       gradientUnits="userSpaceOnUse"
       y2="986.97632"
       x2="61.995449"
       y1="986.97632"
       x1="14.559077"
       id="linearGradient4153"
       xlink:href="#linearGradient5457"
       inkscape:collect="always" />
    <linearGradient
       inkscape:collect="always"
       xlink:href="#linearGradient3845"
       id="linearGradient3919"
       gradientUnits="userSpaceOnUse"
       gradientTransform="matrix(-0.14028903,-0.19738289,-0.20595634,0.14267866,241.27311,845.24982)"
       x1="-63.890354"
       y1="1012.8904"
       x2="-42.885998"
       y2="1032.6786" />
    <linearGradient
       inkscape:collect="always"
       xlink:href="#linearGradient5679-2-2"
       id="linearGradient6211-6"
       gradientUnits="userSpaceOnUse"
       gradientTransform="matrix(-0.20456773,0.12958805,0.13151812,0.21325618,-48.985275,811.2288)"
       x1="-63.890354"
       y1="1012.8904"
       x2="-42.885998"
       y2="1032.6786" />
    <linearGradient
       inkscape:collect="always"
       xlink:href="#linearGradient5679-2-2"
       id="linearGradient6211-0"
       gradientUnits="userSpaceOnUse"
       gradientTransform="matrix(-0.20456773,0.12958805,0.13151812,0.21325618,-53.530961,810.97626)"
       x1="-63.890354"
       y1="1012.8904"
       x2="-42.885998"
       y2="1032.6786" />
    <linearGradient
       id="linearGradient7554">
      <stop
         style="stop-color:#fff1f1;stop-opacity:0.75;"
         offset="0"
         id="stop7556" />
      <stop
         style="stop-color:#000000;stop-opacity:1;"
         offset="1"
         id="stop7558" />
    </linearGradient>
    <linearGradient
       y2="755.74"
       x2="429.83"
       gradientTransform="matrix(.36255 -.36255 .36255 .36255 -66.756 397.74)"
       y1="755.74"
       gradientUnits="userSpaceOnUse"
       x1="290.83"
       id="linearGradient4530">
      <stop
         offset="0"
         stop-color="#4d4d4d"
         id="stop5697" />
      <stop
         offset="1"
         stop-opacity="0"
         stop-color="#4d4d4d"
         id="stop5699" />
    </linearGradient>
    <linearGradient
       y2="648.26"
       x2="406.71"
       gradientTransform="matrix(0.36255,-0.36255,0.36255,0.36255,-19.586,428.5)"
       y1="648.26"
       gradientUnits="userSpaceOnUse"
       x1="268.71"
       id="linearGradient4533">
      <stop
         offset="0"
         stop-color="#ccc"
         id="stop5655" />
      <stop
         offset="1"
         stop-color="#929292"
         id="stop5657" />
    </linearGradient>
    <radialGradient
       r="266.68"
       gradientTransform="matrix(0.20092,-0.20712,0.064453,0.062536,243.82,725.94)"
       cx="524.96"
       cy="838.21"
       gradientUnits="userSpaceOnUse"
       fy="620.53"
       fx="525.34"
       id="radialGradient4544">
      <stop
         offset="0"
         stop-color="#008100"
         id="stop3848" />
      <stop
         offset=".20624"
         stop-color="#005d00"
         id="stop3854" />
      <stop
         offset=".8532"
         stop-color="#006a00"
         id="stop3858" />
      <stop
         offset="1"
         stop-color="#004300"
         id="stop3850" />
    </radialGradient>
    <radialGradient
       r="50.609"
       gradientTransform="matrix(-0.62812,0.59341,-3.7081,-3.9249,1982.5,1755.9)"
       cx="297.34"
       cy="462.68"
       gradientUnits="userSpaceOnUse"
       fy="460.45"
       fx="331.03"
       id="radialGradient4553">
      <stop
         offset="0"
         stop-opacity=".41985"
         stop-color="#fff"
         id="stop3890" />
      <stop
         offset="1"
         stop-opacity="0"
         stop-color="#fff"
         id="stop3892" />
    </radialGradient>
    <radialGradient
       r="67.141"
       gradientTransform="matrix(-0.40383,-0.36863,0.13444,-0.14727,563.98,619.3)"
       cx="409.92"
       cy="-9.2813"
       gradientUnits="userSpaceOnUse"
       id="radialGradient4645">
      <stop
         offset="0"
         stop-color="#006000"
         id="stop3851" />
      <stop
         offset=".53513"
         stop-color="#006000"
         id="stop3866" />
      <stop
         offset=".56255"
         stop-color="#008000"
         id="stop3864" />
      <stop
         offset=".73112"
         stop-color="#00a200"
         id="stop3857" />
      <stop
         offset="1"
         stop-color="#060"
         id="stop3853" />
    </radialGradient>
    <linearGradient
       id="imagebot_82">
      <stop
         offset="0"
         stop-color="#dfdfdf"
         id="imagebot_104" />
      <stop
         offset="1"
         stop-color="#fff"
         id="imagebot_103" />
    </linearGradient>
    <filter
       color-interpolation-filters="sRGB"
       id="imagebot_50">
      <feGaussianBlur
         stdDeviation="2.08236"
         id="imagebot_84" />
    </filter>
    <filter
       color-interpolation-filters="sRGB"
       id="imagebot_77">
      <feGaussianBlur
         stdDeviation="2.68359"
         id="imagebot_83" />
    </filter>
    <linearGradient
       x1="746.17556"
       x2="719.02793"
       y1="706.61178"
       xlink:href="#imagebot_82"
       y2="610.96385"
       id="imagebot_75"
       gradientTransform="scale(0.93314657,1.071643)"
       gradientUnits="userSpaceOnUse" />
    <linearGradient
       x1="716.39903"
       x2="732.20632"
       y1="619.24016"
       xlink:href="#imagebot_82"
       y2="692.02572"
       id="imagebot_68"
       gradientTransform="scale(0.93313895,1.0716518)"
       gradientUnits="userSpaceOnUse" />
    <linearGradient
       y2="623.91586"
       x1="726.47682"
       y1="615.75739"
       x2="737.16982"
       id="imagebot_48"
       gradientTransform="scale(0.93594535,1.0684385)"
       gradientUnits="userSpaceOnUse">
      <stop
         offset="0"
         stop-color="#9b6a06"
         id="imagebot_91" />
      <stop
         offset=".10284"
         stop-color="#b38e29"
         id="imagebot_90" />
      <stop
         offset=".25018"
         stop-color="#faf892"
         id="imagebot_89" />
      <stop
         offset=".51725"
         stop-color="#ddba32"
         id="imagebot_88" />
      <stop
         offset=".6932"
         stop-color="#cf9e08"
         id="imagebot_87" />
      <stop
         offset=".73575"
         stop-color="#976400"
         id="imagebot_86" />
      <stop
         offset="1"
         stop-color="#976400"
         id="imagebot_85" />
    </linearGradient>
    <linearGradient
       y2="708.58134"
       x1="648.2462"
       y1="707.64765"
       x2="649.9041"
       id="imagebot_46"
       gradientTransform="scale(0.95014084,1.0524755)"
       gradientUnits="userSpaceOnUse">
      <stop
         offset="0"
         stop-color="#a07100"
         id="imagebot_94" />
      <stop
         offset=".43039"
         stop-color="#f4f300"
         id="imagebot_93" />
      <stop
         offset="1"
         stop-color="#9e700b"
         id="imagebot_92" />
    </linearGradient>
    <linearGradient
       y2="748.42962"
       x1="614.02773"
       y1="745.21991"
       x2="617.53384"
       id="imagebot_44"
       gradientTransform="scale(1.0082381,0.99182919)"
       gradientUnits="userSpaceOnUse">
      <stop
         offset="0"
         stop-color="#a07100"
         id="imagebot_97" />
      <stop
         offset=".38158"
         stop-color="#f6f600"
         id="imagebot_96" />
      <stop
         offset="1"
         stop-color="#9e700b"
         id="imagebot_95" />
    </linearGradient>
    <linearGradient
       y2="671.43373"
       x1="684.67244"
       y1="679.81013"
       x2="673.2575"
       id="imagebot_42"
       gradientTransform="scale(0.92919642,1.0761987)"
       gradientUnits="userSpaceOnUse">
      <stop
         offset="0"
         stop-color="#375a93"
         id="imagebot_102" />
      <stop
         offset=".36961"
         stop-color="#5c9eda"
         id="imagebot_101" />
      <stop
         offset=".53886"
         stop-color="#97cafd"
         id="imagebot_100" />
      <stop
         offset=".77808"
         stop-color="#8bbff3"
         id="imagebot_99" />
      <stop
         offset="1"
         stop-color="#2a629a"
         id="imagebot_98" />
    </linearGradient>
    <inkscape:perspective
       id="perspective28"
       inkscape:persp3d-origin="150 : 100 : 1"
       inkscape:vp_z="300 : 150 : 1"
       inkscape:vp_y="0 : 1000 : 0"
       inkscape:vp_x="0 : 150 : 1"
       sodipodi:type="inkscape:persp3d" />
    <inkscape:perspective
       id="perspective3848"
       inkscape:persp3d-origin="150 : 100 : 1"
       inkscape:vp_z="300 : 150 : 1"
       inkscape:vp_y="0 : 1000 : 0"
       inkscape:vp_x="0 : 150 : 1"
       sodipodi:type="inkscape:persp3d" />
    <inkscape:path-effect
       fuse_tolerance="0"
       vertical_pattern="false"
       prop_units="false"
       tang_offset="0"
       normal_offset="0"
       spacing="0"
       scale_y_rel="false"
       prop_scale="1"
       copytype="single_stretched"
       pattern="m -23.571428,-0.71428575 c 0,-2.75999995 2.24,-4.99999995 5,-4.99999995 2.76,0 5,2.24 5,4.99999995 0,2.76000005 -2.24,5.00000005 -5,5.00000005 -2.76,0 -5,-2.24 -5,-5.00000005 z"
       is_visible="true"
       id="path-effect3309"
       effect="skeletal" />
    <inkscape:path-effect
       is_visible="true"
       id="path-effect3307"
       effect="spiro" />
    <inkscape:path-effect
       fuse_tolerance="0"
       vertical_pattern="false"
       prop_units="false"
       tang_offset="0"
       normal_offset="0"
       spacing="0"
       scale_y_rel="false"
       prop_scale="1"
       copytype="single_stretched"
       pattern="m -5.7142851,2.8571429 c 0,-2.76000005 2.24,-5 5.00000002,-5 2.75999998,0 4.99999998,2.23999995 4.99999998,5 0,2.76 -2.24,5 -4.99999998,5 -2.76000002,0 -5.00000002,-2.24 -5.00000002,-5 z"
       is_visible="true"
       id="path-effect3303"
       effect="skeletal" />
    <inkscape:path-effect
       is_visible="true"
       id="path-effect3301"
       effect="spiro" />
    <inkscape:path-effect
       fuse_tolerance="0"
       vertical_pattern="false"
       prop_units="false"
       tang_offset="0"
       normal_offset="0"
       spacing="0"
       scale_y_rel="false"
       prop_scale="1"
       copytype="single_stretched"
       pattern="m -3.5714281,-1.4285714 c 0,-2.76 2.24,-5 5.0000001,-5 2.7599999,0 4.9999999,2.24 4.9999999,5 0,2.76 -2.24,5 -4.9999999,5 -2.7600001,0 -5.0000001,-2.24 -5.0000001,-5 z"
       is_visible="true"
       id="path-effect3297"
       effect="skeletal" />
    <inkscape:path-effect
       is_visible="true"
       id="path-effect3295"
       effect="spiro" />
    <inkscape:path-effect
       fuse_tolerance="0"
       vertical_pattern="false"
       prop_units="false"
       tang_offset="0"
       normal_offset="0"
       spacing="0"
       scale_y_rel="false"
       prop_scale="1"
       copytype="single_stretched"
       pattern="m -7.1428572,26.428571 c 0,-2.76 2.24,-5 5,-5 2.76000005,0 5,2.24 5,5 0,2.76 -2.23999995,5 -5,5 -2.76,0 -5,-2.24 -5,-5 z"
       is_visible="true"
       id="path-effect3291"
       effect="skeletal" />
    <inkscape:path-effect
       is_visible="true"
       id="path-effect3289"
       effect="spiro" />
    <inkscape:path-effect
       effect="skeletal"
       id="path-effect3285"
       is_visible="true"
       pattern="m 206.21114,373.62978 c 0,-2.76 2.24,-5 5,-5 2.76,0 5,2.24 5,5 0,2.76 -2.24,5 -5,5 -2.76,0 -5,-2.24 -5,-5 z"
       copytype="single_stretched"
       prop_scale="1"
       scale_y_rel="false"
       spacing="0"
       normal_offset="0"
       tang_offset="0"
       prop_units="false"
       vertical_pattern="false"
       fuse_tolerance="0" />
    <inkscape:path-effect
       effect="spiro"
       id="path-effect3283"
       is_visible="true" />
    <inkscape:path-effect
       fuse_tolerance="0"
       vertical_pattern="false"
       prop_units="false"
       tang_offset="0"
       normal_offset="0"
       spacing="0"
       scale_y_rel="false"
       prop_scale="1"
       copytype="single_stretched"
       pattern="M 0,5 C 0,2.24 2.24,0 5,0 7.76,0 10,2.24 10,5 10,7.76 7.76,10 5,10 2.24,10 0,7.76 0,5 z"
       is_visible="true"
       id="path-effect3257"
       effect="skeletal" />
    <inkscape:path-effect
       is_visible="true"
       id="path-effect3255"
       effect="spiro" />
    <inkscape:path-effect
       fuse_tolerance="0"
       vertical_pattern="false"
       prop_units="false"
       tang_offset="0"
       normal_offset="0"
       spacing="0"
       scale_y_rel="false"
       prop_scale="1"
       copytype="single_stretched"
       pattern="M -13.571428,-3.0079046e-8 C -13.571428,-2.76 -11.331428,-5 -8.5714284,-5 -5.8114285,-5 -3.5714285,-2.76 -3.5714285,-3.0079046e-8 -3.5714285,2.76 -5.8114285,5 -8.5714284,5 -11.331428,5 -13.571428,2.76 -13.571428,-3.0079046e-8 z"
       is_visible="true"
       id="path-effect3251"
       effect="skeletal" />
    <inkscape:path-effect
       is_visible="true"
       id="path-effect3249"
       effect="spiro" />
    <inkscape:path-effect
       effect="skeletal"
       id="path-effect3245"
       is_visible="true"
       pattern="m 318.55714,462.05692 c 0,-2.76 2.24,-5 5,-5 2.76,0 5,2.24 5,5 0,2.76 -2.24,5 -5,5 -2.76,0 -5,-2.24 -5,-5 z"
       copytype="single_stretched"
       prop_scale="1"
       scale_y_rel="false"
       spacing="0"
       normal_offset="0"
       tang_offset="0"
       prop_units="false"
       vertical_pattern="false"
       fuse_tolerance="0" />
    <inkscape:path-effect
       effect="spiro"
       id="path-effect3243"
       is_visible="true" />
    <inkscape:path-effect
       fuse_tolerance="0"
       vertical_pattern="false"
       prop_units="false"
       tang_offset="0"
       normal_offset="0"
       spacing="0"
       scale_y_rel="false"
       prop_scale="1"
       copytype="single_stretched"
       pattern="M 0,5 C 0,2.24 2.24,0 5,0 7.76,0 10,2.24 10,5 10,7.76 7.76,10 5,10 2.24,10 0,7.76 0,5 z"
       is_visible="true"
       id="path-effect3217"
       effect="skeletal" />
    <inkscape:path-effect
       is_visible="true"
       id="path-effect3215"
       effect="spiro" />
    <inkscape:path-effect
       fuse_tolerance="0"
       vertical_pattern="false"
       prop_units="false"
       tang_offset="0"
       normal_offset="0"
       spacing="0"
       scale_y_rel="false"
       prop_scale="1"
       copytype="single_stretched"
       pattern="m 1,-1 c 0,-2.76 2.24,-5 5,-5 2.76,0 5,2.24 5,5 C 11,1.76 8.76,4 6,4 3.24,4 1,1.76 1,-1 z"
       is_visible="true"
       id="path-effect3109"
       effect="skeletal" />
    <inkscape:path-effect
       is_visible="true"
       id="path-effect3107"
       effect="spiro" />
    <inkscape:path-effect
       fuse_tolerance="0"
       vertical_pattern="false"
       prop_units="false"
       tang_offset="0"
       normal_offset="0"
       spacing="0"
       scale_y_rel="false"
       prop_scale="1"
       copytype="single_stretched"
       pattern="M 0,7 C 0,4.24 2.24,2 5,2 7.76,2 10,4.24 10,7 10,9.76 7.76,12 5,12 2.24,12 0,9.76 0,7 z"
       is_visible="true"
       id="path-effect3097"
       effect="skeletal" />
    <inkscape:path-effect
       is_visible="true"
       id="path-effect3095"
       effect="spiro" />
    <inkscape:path-effect
       fuse_tolerance="0"
       vertical_pattern="false"
       prop_units="false"
       tang_offset="0"
       normal_offset="0"
       spacing="0"
       scale_y_rel="false"
       prop_scale="1"
       copytype="single_stretched"
       pattern="m 4.1428571,5.4285714 c 0,-2.76 2.24,-4.99999998 5,-4.99999998 2.7599999,0 4.9999999,2.23999998 4.9999999,4.99999998 0,2.76 -2.24,4.9999996 -4.9999999,4.9999996 -2.76,0 -5,-2.2399996 -5,-4.9999996 z"
       is_visible="true"
       id="path-effect3091"
       effect="skeletal" />
    <inkscape:path-effect
       is_visible="true"
       id="path-effect3089"
       effect="spiro" />
    <inkscape:path-effect
       is_visible="true"
       id="path-effect3107-1"
       effect="spiro" />
    <inkscape:path-effect
       fuse_tolerance="0"
       vertical_pattern="false"
       prop_units="false"
       tang_offset="0"
       normal_offset="0"
       spacing="0"
       scale_y_rel="false"
       prop_scale="1"
       copytype="single_stretched"
       pattern="m -334.93865,-430.78801 c 0,-2.76 2.24,-5 5,-5 2.76,0 5,2.24 5,5 0,2.76 -2.24,5 -5,5 -2.76,0 -5,-2.24 -5,-5 z"
       is_visible="true"
       id="path-effect3109-1"
       effect="skeletal" />
    <inkscape:path-effect
       is_visible="true"
       id="path-effect3249-4"
       effect="spiro" />
    <inkscape:path-effect
       fuse_tolerance="0"
       vertical_pattern="false"
       prop_units="false"
       tang_offset="0"
       normal_offset="0"
       spacing="0"
       scale_y_rel="false"
       prop_scale="1"
       copytype="single_stretched"
       pattern="m -247.58083,-377.28323 c 0,-2.76 2.24,-5 5,-5 2.76,0 5,2.24 5,5 0,2.76 -2.24,5 -5,5 -2.76,0 -5,-2.24 -5,-5 z"
       is_visible="true"
       id="path-effect3251-1"
       effect="skeletal" />
  </defs>
  <sodipodi:namedview
     id="base"
     pagecolor="#ffffff"
     bordercolor="#666666"
     borderopacity="1.0"
     inkscape:pageopacity="0.0"
     inkscape:pageshadow="2"
     inkscape:zoom="1.1879394"
     inkscape:cx="243.69808"
     inkscape:cy="229.2776"
     inkscape:document-units="px"
     inkscape:current-layer="layer1"
     showgrid="false"
     units="px"
     inkscape:window-width="1920"
     inkscape:window-height="1003"
     inkscape:window-x="0"
     inkscape:window-y="25"
     inkscape:window-maximized="1" />
  <metadata
     id="metadata7">
    <rdf:RDF>
      <cc:Work
         rdf:about="">
        <dc:format>image/svg+xml</dc:format>
        <dc:type
           rdf:resource="http://purl.org/dc/dcmitype/StillImage" />
        <dc:title></dc:title>
      </cc:Work>
    </rdf:RDF>
  </metadata>
  <g
     inkscape:label="Layer 1"
     inkscape:groupmode="layer"
     id="layer1"
     transform="translate(0,-602.36218)">
    <g
       transform="matrix(1.8635289,0,0,1.8635289,-268.89752,84.314657)"
       id="layer1-6"
       inkscape:label="Layer 1">
      <path
         inkscape:connector-curvature="0"
         id="path3340"
         d="m 229.7358,459.28911 -7.94228,-5.40718 -2.72075,-7.27507 c -5.62673,-15.04539 -6.05473,-38.39868 -1.14701,-62.58517 1.47797,-7.2838 2.6919,-13.5673 2.6976,-13.96332 0.006,-0.39604 0.90578,0.003 2.00014,0.88783 2.87302,2.32165 10.13423,5.36378 16.05202,6.72508 2.81744,0.64812 5.30902,1.34259 5.53684,1.54327 0.22781,0.2007 -0.80364,2.4901 -2.29212,5.08758 -3.09287,5.39729 -7.35266,18.00952 -8.98265,26.5956 -2.51567,13.25129 -0.77972,37.18293 3.53043,48.67003 0.96079,2.5606 1.6261,4.76204 1.47847,4.89209 -0.14763,0.13005 -3.84244,-2.19678 -8.21069,-5.17074 l 0,0 z"
         style="fill:#008080" />
      <path
         transform="translate(205.45819,291.40861)"
         inkscape:connector-curvature="0"
         id="path3336"
         d="m 128.64411,204.92625 c -21.33386,-1.66957 -43.618711,-7.18878 -61.984918,-15.35161 -9.548471,-4.24379 -23.597172,-11.75688 -25.048001,-13.39538 -1.523404,-1.72047 -4.518753,-11.82302 -5.550694,-18.7211 -0.514936,-3.44212 -0.88713,-12.43856 -0.869544,-21.01804 0.02973,-14.50407 0.950939,-23.63724 4.35877,-43.214289 l 0.55952,-3.214286 5.696006,-0.478222 C 61.65241,88.202838 75.0908,78.502847 82.477034,63.063198 c 1.930583,-4.035552 4.046636,-9.105225 4.702338,-11.265939 1.823606,-6.009266 2.168505,-15.681566 0.827786,-23.214286 -1.525926,-8.573283 -1.461314,-12.33577 0.260324,-15.159401 3.622294,-5.9408667 12.289048,-3.22967 19.412618,6.072791 5.77637,7.543202 7.74973,14.712324 7.74973,28.154423 0,18.033608 -3.5314,30.357073 -12.3889,43.233273 -2.22182,3.229879 -4.039676,6.203093 -4.039676,6.607143 0,1.22355 2.149496,0.827179 4.468346,-0.823986 2.35268,-1.67525 9.77939,-2.789435 25.23582,-3.785957 16.15431,-1.041521 41.82781,3.505236 51.68036,9.152551 6.88627,3.94711 10.70612,8.68986 10.73997,13.33488 0.0319,4.38492 -4.96267,8.57143 -10.226,8.57143 -4.39813,0 -4.00108,2.30485 0.67291,3.90623 3.97422,1.36162 6.93667,6.30916 7.2689,12.13969 0.31524,5.5322 -1.18177,8.39488 -6.26228,11.97518 -6.00389,4.23104 -6.11742,4.5878 -3.20584,10.07436 3.99289,7.52417 3.26014,13.17756 -2.25298,17.38263 -2.19597,1.67495 -3.49098,2.03881 -8.39361,2.35835 -5.15282,0.33586 -5.82031,0.54056 -6.00655,1.84205 -0.13359,0.93362 0.68592,2.27904 2.26148,3.71277 1.35905,1.23671 2.68922,2.93612 2.95594,3.77646 1.50238,4.7336 -2.71885,10.52942 -9.10954,12.50755 -3.749,1.16044 -21.98582,1.95244 -30.18407,1.31086 l 0,0 z"
         style="fill:#ffffff" />
      <path
         sodipodi:nodetypes="csccsssssssccsccssssssssc"
         inkscape:connector-curvature="0"
         id="path3311"
         d="m 338.1023,501.76344 c -21.33387,-1.66956 -43.61871,-7.18878 -61.98492,-15.3516 -9.54847,-4.2438 -30.74003,-13.89974 -32.19086,-15.53824 -17.93893,-23.14971 -4.06304,-66.54222 -4.35909,-84.02486 l 15.696,-0.47822 c 15.89555,-0.4843 29.28556,-11.03048 36.67179,-26.47012 1.93058,-4.03556 4.04664,-9.10523 4.70234,-11.26594 1.8236,-6.00927 2.1685,-15.68157 0.82778,-23.21429 -1.52592,-8.57328 -1.46131,-12.33577 0.26033,-15.1594 3.62229,-5.94087 12.28905,-3.22967 19.41261,6.07279 5.77637,7.5432 5.60687,16.14089 5.60687,29.58299 0,18.03361 -7.81711,28.92851 -16.6746,41.80471 -17.41089,16.19501 22.90085,2.74572 32.09305,1.9972 16.15432,-1.04153 41.82782,3.50523 51.68036,9.15255 6.88628,3.9471 10.70612,8.68986 10.73998,13.33487 -15.26421,15.69937 -4.27014,8.85221 -2.28419,24.61736 0.31523,5.53219 -1.18177,8.39487 -6.26229,11.97518 -6.00388,4.23104 -6.11741,4.58779 -3.20583,10.07436 3.99288,7.52417 3.26014,13.17756 -2.25298,17.38263 -2.19597,1.67495 -3.49098,2.0388 -8.39362,2.35835 -5.15281,0.33585 -5.8203,0.54055 -6.00654,1.84205 -0.13359,0.93362 0.68591,2.27903 2.26148,3.71277 1.35905,1.23671 2.68922,2.93611 2.95593,3.77646 1.50239,4.7336 -2.71885,10.52942 -9.10954,12.50755 -3.749,1.16044 -21.98581,1.95244 -30.18406,1.31085 z"
         style="fill:#ffd5d5" />
      <path
         sodipodi:nodetypes="csssc"
         inkscape:connector-curvature="0"
         inkscape:original-d="m 308.28688,385.62378 c 28.94235,-0.61735 43.17816,-5.40947 71.21104,-0.66546 6.51962,1.10331 15.50482,12.31601 20.48912,15.97116 1.40969,1.03376 0.90746,2.71179 0.90746,3.99279 0,8.26153 -13.21175,9.83528 -17.24165,11.31289"
         inkscape:path-effect="#path-effect3089;#path-effect3091"
         id="path3087"
         d="m 308.28688,385.62378 c -0.41146,-1.14227 5.81029,-5.32339 17.5999,-8.25845 11.89264,-2.9607 28.5457,-4.25688 46.91937,0.40458 2.84281,0.72123 5.60691,1.55623 8.28486,2.49225 4.66589,1.59627 9.15243,3.6308 13.20911,6.57074 4.55786,3.26898 7.9154,7.70218 9.6073,12.62599 0.55827,1.66102 0.88343,3.41034 0.93742,5.19078 0.0691,2.96799 -0.71851,5.68572 -1.99191,7.91284 -1.47556,2.57057 -3.539,4.39705 -5.64261,5.54 -2.66391,1.4423 -5.32022,1.77151 -7.39882,1.59558 -5.04865,-0.433 -6.34359,-3.10624 -6.15865,-3.46293 0.43544,-0.83981 2.55603,0.0214 5.93832,-0.83918 1.40341,-0.35468 3.00865,-1.05245 4.36681,-2.25026 1.07024,-0.93923 2.02916,-2.22996 2.56921,-3.72211 0.4697,-1.28509 0.65222,-2.78811 0.41697,-4.22874 -0.12972,-0.87957 -0.4427,-1.80873 -0.8775,-2.7948 -1.25972,-2.94396 -3.81642,-5.59004 -7.16451,-7.85297 -3.06278,-2.04148 -6.7356,-3.46038 -10.99732,-4.89262 -2.45025,-0.80364 -4.9699,-1.53776 -7.55717,-2.19416 -16.72413,-4.24298 -31.77574,-4.14458 -43.27378,-3.1257 -11.25523,0.99736 -18.27488,2.71089 -18.787,1.28916 z"
         style="fill:#000000;fill-rule:evenodd;stroke:none" />
      <path
         sodipodi:nodetypes="ccc"
         inkscape:connector-curvature="0"
         inkscape:original-d="m 390.46227,419.25078 c -5.29837,36.93558 24.69699,-7.66032 -3.1749,28.24858 -5.69466,8.16581 2.42548,0 -3.4567,0"
         inkscape:path-effect="#path-effect3095;#path-effect3097"
         id="path3093"
         d="m 390.46227,419.25078 c 0.34949,-0.98019 5.71466,-2.86096 11.04811,3.79122 2.34829,2.94881 3.98257,7.23583 3.5094,12.14763 -0.0772,0.77019 -0.20548,1.5396 -0.38611,2.30271 -0.89091,3.76395 -2.92371,6.86916 -5.43144,9.06163 -4.12701,3.58218 -8.74012,4.15535 -11.59124,3.65987 0,0 0,0 0,0 -2.72666,-0.48096 -3.89183,-1.77917 -3.78032,-2.71448 0.12099,-1.01482 1.47117,-1.73009 3.13307,-2.71448 0,0 1e-5,0 1e-5,0 1.76926,-1.05093 4.02181,-2.52855 5.66851,-4.75675 1.00322,-1.33785 1.8408,-3.02923 2.27355,-4.84397 0.0887,-0.37192 0.15848,-0.74197 0.209,-1.10777 0.33556,-2.29474 -0.0465,-4.67152 -0.73982,-6.57889 -0.71297,-1.99812 -1.84672,-3.68188 -2.70985,-5.0153 -0.86092,-1.33001 -1.5014,-2.39415 -1.20287,-3.23142 z"
         style="fill:#000000;fill-rule:evenodd;stroke:none" />
      <path
         sodipodi:nodetypes="ccc"
         inkscape:connector-curvature="0"
         inkscape:original-d="m 382.92813,448.50504 c 69.54303,-10.88906 63.83745,69.26841 -10.85517,27.85715 -65.34116,-37.31608 2.99289,-2.14286 -3.61838,-2.14286"
         inkscape:path-effect="#path-effect3107;#path-effect3109"
         id="path3105"
         d="m 382.92813,448.50504 c 0.28353,-0.77779 1.77043,-1.30429 4.23281,-0.5918 2.37166,0.68625 5.75387,2.67347 8.10158,6.74341 2.25547,3.95973 3.2176,9.51001 1.12018,15.13482 -0.334,0.87889 -0.73593,1.73551 -1.20429,2.56157 -2.31067,4.07542 -5.8965,6.84461 -9.69456,8.21526 -6.27423,2.22251 -11.68748,0.35759 -14.45959,-1.68066 0,0 0,0 0,0 -2.6729,-1.97989 -3.13754,-3.95998 -2.56968,-4.66831 0.64863,-0.80908 2.35946,-0.49097 4.66708,-0.38259 0,0 0,0 0,0 2.40052,0.11128 5.79842,-0.0886 8.73194,-1.78775 1.77264,-0.99977 3.49369,-2.63567 4.63377,-4.63387 0.23328,-0.40887 0.43679,-0.82435 0.60823,-1.24257 1.11479,-2.62182 1.12071,-5.67744 0.50265,-8.04873 -0.62368,-2.49284 -2.01139,-4.60004 -3.0686,-6.1228 -1.06925,-1.54008 -1.9085,-2.65385 -1.60152,-3.49598 z"
         style="fill:#000000;fill-rule:evenodd;stroke:none" />
      <path
         sodipodi:nodetypes="csc"
         inkscape:connector-curvature="0"
         inkscape:original-d="m 289.1769,340.93361 c -11.84984,9.52252 -11.42586,17.85451 -21.58659,29.28572 -8.41285,9.46477 -41.39436,-12.4507 -48.25233,-1.42858"
         inkscape:path-effect="#path-effect3215;#path-effect3217"
         id="path3213"
         d="m 289.1769,340.93361 c 1.0736,0.24692 1.74584,4.64548 -0.72707,11.55887 -2.44082,6.82372 -8.08445,15.78326 -18.37617,21.9998 0,0 0,0 0,0 -2.09015,1.25765 -4.32392,2.37075 -6.6832,3.30819 -6.95212,2.76239 -13.97609,3.60618 -20.26424,3.11841 -8.31719,-0.65163 -14.76627,-3.54656 -18.73688,-6.22276 -4.01788,-2.70806 -5.56618,-5.12921 -5.05136,-5.90537 0.58074,-0.87554 3.16033,-0.0765 7.31388,0.96569 4.15295,1.04206 9.95049,2.31066 16.74246,2.10714 5.13158,-0.14891 10.73314,-1.14553 16.30531,-3.3569 1.89555,-0.75227 3.70133,-1.61169 5.40733,-2.5603 0,0 10e-6,0 10e-6,0 8.31759,-4.60025 13.91125,-11.21492 17.49662,-16.39063 3.58162,-5.17029 5.26745,-8.92248 6.57331,-8.62214 z"
         style="fill:#000000;fill-rule:evenodd;stroke:none" />
      <path
         sodipodi:nodetypes="cssc"
         inkscape:connector-curvature="0"
         inkscape:original-d="m 369.35495,475.75356 c -1.24061,6.58993 3.80809,6.35962 7.23809,10.24268 0.81785,0.92587 52.59816,45.69256 -22.31744,15.02257 -87.1373,-35.67349 -132.32608,-56.67607 -141.1427,-56.67607"
         inkscape:path-effect="#path-effect3243;#path-effect3245"
         id="path3105-9"
         d="m 369.35495,475.75356 c 0.0362,-0.10671 3.10161,-1.21451 6.75521,2.90514 1.44713,1.63755 2.79867,4.1601 2.98084,7.3721 0.13241,2.76208 -0.58362,5.84915 -2.42444,8.64757 -1.55536,2.36666 -3.73879,4.45748 -6.42634,6.03006 0,0 -1e-5,0 -1e-5,0 -4.72751,2.71111 -10.00455,3.84719 -15.63852,4.40315 0,0 -1e-5,0 -1e-5,0 -16.80591,1.9075 -36.82434,1.17162 -58.2977,-4.53185 -7.35964,-1.95477 -14.36174,-4.35557 -20.95663,-7.08743 0,0 -1e-5,-10e-6 -1e-5,-10e-6 -21.68442,-8.96983 -37.71834,-20.96869 -48.19724,-31.04873 -10.38265,-9.98746 -14.79001,-17.41254 -14.0172,-18.10082 1.00051,-0.89107 7.04891,5.00672 18.10824,13.30164 11.26244,8.44725 27.01337,18.72037 47.74632,26.78278 0,0 10e-6,0 10e-6,0 6.29551,2.4443 12.93409,4.63646 19.8851,6.48321 20.29933,5.39312 38.99345,6.72744 55.07695,6.01567 0,0 10e-6,0 10e-6,0 5.37039,-0.32037 9.48866,-0.63848 13.0044,-2.34547 0,0 10e-6,0 10e-6,0 1.97454,-0.92723 3.60718,-2.09603 4.7764,-3.48379 1.36604,-1.61979 2.17005,-3.43738 2.36474,-5.1351 0.25497,-1.96537 -0.23633,-3.83942 -0.92526,-5.22516 -1.733,-3.50766 -4.11249,-4.10431 -3.81487,-4.98296 z"
         style="fill:#000000;fill-rule:evenodd;stroke:none" />
      <path
         inkscape:connector-curvature="0"
         inkscape:original-d="m 244.79153,377.36837 c -9.03519,18.84193 -15.88475,49.41202 -8.44443,68.96975 0.8667,2.27822 0.29803,6.73375 1.80952,8.72031 3.10234,4.07742 6.77833,11.47558 8.44444,15.85513"
         inkscape:path-effect="#path-effect3249;#path-effect3251"
         id="path3247"
         d="m 244.79153,377.36837 c 1.33381,0.55088 0.20023,5.96127 -1.30411,14.43324 -1.56586,8.81842 -3.2663,19.76629 -3.52338,33.0419 -0.14637,7.55884 0.20626,14.48532 0.81212,20.83422 0,0 0,0 0,0 0.30648,3.1446 0.61281,5.75371 1.11437,8.29245 1.9562,10.04257 6.10911,15.77686 4.71053,16.94338 -0.84031,0.70088 -7.77552,-3.06456 -12.17835,-14.76688 -1.06519,-2.84886 -1.85428,-5.86353 -2.50467,-9.14817 0,0 0,0 0,0 -1.3352,-6.67932 -2.1088,-14.21657 -1.9524,-22.34794 0.27257,-14.17073 3.2889,-26.21335 6.72952,-34.80941 3.39473,-8.48142 6.89172,-12.97033 8.09637,-12.47279 z"
         style="fill:#000000;fill-rule:evenodd;stroke:none" />
      <path
         sodipodi:nodetypes="cssc"
         inkscape:connector-curvature="0"
         inkscape:original-d="m 220.31746,368.70873 c -21.6682,12.78803 -42.37696,35.73676 -8.44444,62.14286 1.6196,1.26036 0.29803,6.06721 1.80953,7.85714 3.10233,3.67382 6.77833,10.33968 8.44443,14.28572"
         inkscape:path-effect="#path-effect3283;#path-effect3285"
         id="path3247-3"
         d="m 220.31746,368.70873 c 1.3072,0.60784 0.15151,5.51197 -1.35379,13.14134 -1.56538,7.93385 -3.25497,17.80171 -3.49051,29.75338 -0.13215,6.70601 0.22178,12.86129 0.83135,18.50964 0,0 0,0 0,0 0.31069,2.81384 0.6171,5.14496 1.10615,7.39826 1.94391,9.1071 6.04058,14.23214 4.71632,15.4831 -0.78467,0.74124 -7.66128,-2.17752 -12.17254,-13.08834 -1.06231,-2.58761 -1.86003,-5.33759 -2.51291,-8.31602 0,0 0,0 0,0 -1.33491,-6.02758 -2.10992,-12.83868 -1.9668,-20.18253 0.25331,-12.99859 3.302,-23.98722 6.75943,-31.72273 3.41553,-7.64178 6.90321,-11.52483 8.0833,-10.9761 z"
         style="fill:#000000;fill-rule:evenodd;stroke:none" />
      <path
         sodipodi:nodetypes="ccsssssc"
         inkscape:connector-curvature="0"
         inkscape:original-d="m 280.8161,360.78848 c 4.5244,-12.61783 5.86785,-24.10446 8.95073,-36.07042 2.05092,-7.84472 -1.40694,-17.36157 1.27867,-25.06588 2.56675,-7.36332 20.24983,-1.62238 23.01614,3.66818 1.84333,3.52534 9.02041,18.40752 10.86874,20.17498 1.86255,1.78105 1.27867,12.08438 1.27867,14.67272 0,17.69589 -2.81658,33.26149 -14.70475,44.62948 -2.35991,2.25665 -4.70707,5.61306 -7.03271,6.725"
         inkscape:path-effect="#path-effect3289;#path-effect3291"
         id="path3287"
         d="m 280.8161,360.78848 c -0.75585,-0.58276 1.25498,-3.79009 3.25703,-9.8667 1.94064,-5.89018 3.96585,-15.19777 1.71263,-25.51895 0,0 0,0 0,0 -0.71628,-3.28437 -2.37051,-8.3323 -2.89022,-13.25562 -0.25872,-2.48051 -0.17672,-5.2121 0.5074,-8.04045 0.65732,-2.74594 2.04841,-5.49538 4.29251,-7.83562 2.20158,-2.19385 4.94654,-3.70143 7.92009,-4.3809 2.87479,-0.65515 5.81498,-0.63218 8.60091,0.006 5.36147,1.30458 9.88618,4.26198 13.38633,7.89718 0.6995,0.70438 1.37518,1.43357 2.0261,2.18622 5.23459,6.05258 8.54702,13.23839 10.06144,20.45354 1.1438,5.50244 1.32806,10.88896 1.14446,15.79569 -0.63283,23.19505 -9.58112,38.33244 -17.6408,46.02286 -4.79715,4.5371 -8.31168,5.79386 -8.72239,5.271 -0.56267,-0.71631 1.95114,-3.20379 5.34303,-8.179 5.98871,-8.69474 11.82122,-21.80851 11.7687,-43.2361 -0.0602,-4.50035 -0.35249,-9.17517 -1.41288,-13.54975 -1.36933,-5.70646 -4.05674,-11.39198 -8.09107,-16.03692 -0.50247,-0.57852 -1.02232,-1.1367 -1.55887,-1.67328 -2.74945,-2.63912 -5.5913,-4.74506 -8.51044,-5.34163 -1.48376,-0.34232 -2.96632,-0.42227 -4.2556,-0.1377 -1.30924,0.28704 -2.53592,0.86206 -3.35891,1.66506 -0.91504,0.79015 -1.59101,2.08986 -2.05012,3.48487 -0.47541,1.47243 -0.58156,3.20474 -0.53204,4.98402 0.0908,3.43577 1.39375,8.49147 1.93451,12.53118 0,0 -1e-5,10e-6 -1e-5,10e-6 1.69095,12.61349 -2.05722,22.87971 -5.48668,28.79379 -3.56186,6.14239 -6.91598,8.36935 -7.44511,7.96139 z"
         style="fill:#000000;fill-rule:evenodd;stroke:none" />
    </g>
  </g>
</svg>
