<?xml version="1.0" encoding="UTF-8" standalone="no"?>
<!-- Created with Inkscape (http://www.inkscape.org/) -->

<svg
   xmlns:osb="http://www.openswatchbook.org/uri/2009/osb"
   xmlns:dc="http://purl.org/dc/elements/1.1/"
   xmlns:cc="http://creativecommons.org/ns#"
   xmlns:rdf="http://www.w3.org/1999/02/22-rdf-syntax-ns#"
   xmlns:svg="http://www.w3.org/2000/svg"
   xmlns="http://www.w3.org/2000/svg"
   xmlns:xlink="http://www.w3.org/1999/xlink"
   xmlns:sodipodi="http://sodipodi.sourceforge.net/DTD/sodipodi-0.dtd"
   xmlns:inkscape="http://www.inkscape.org/namespaces/inkscape"
   width="600"
   height="450"
   id="svg2"
   version="1.1"
   inkscape:version="0.91 r13725"
   sodipodi:docname="vsgigi_01.svg"
   viewBox="0 0 600 450"
   inkscape:export-filename="overlay-border.png"
   inkscape:export-xdpi="45"
   inkscape:export-ydpi="45">
  <defs
     id="defs4">
    <linearGradient
       id="linearGradient3845">
      <stop
         id="stop3847"
         offset="0"
         style="stop-color:#a6a6a6;stop-opacity:1;" />
      <stop
         id="stop3849"
         offset="1"
         style="stop-color:#ffffff;stop-opacity:1;" />
    </linearGradient>
    <linearGradient
       id="linearGradient3797">
      <stop
         id="stop3799"
         offset="0"
         style="stop-color:#f05454;stop-opacity:1;" />
      <stop
         id="stop3801"
         offset="1"
         style="stop-color:#e5c0c0;stop-opacity:1;" />
    </linearGradient>
    <linearGradient
       id="linearGradient5555"
       inkscape:collect="always">
      <stop
         id="stop5557"
         offset="0"
         style="stop-color:#e7e2f1;stop-opacity:1" />
      <stop
         id="stop5559"
         offset="1"
         style="stop-color:#161616;stop-opacity:1" />
    </linearGradient>
    <linearGradient
       id="linearGradient5457"
       inkscape:collect="always">
      <stop
         id="stop5459"
         offset="0"
         style="stop-color:#000000;stop-opacity:1;" />
      <stop
         id="stop5461"
         offset="1"
         style="stop-color:#000000;stop-opacity:0;" />
    </linearGradient>
    <linearGradient
       id="linearGradient5231">
      <stop
         id="stop5241"
         offset="0"
         style="stop-color:#0549d8;stop-opacity:1;" />
      <stop
         id="stop5235"
         offset="1"
         style="stop-color:#c8d4fb;stop-opacity:1;" />
    </linearGradient>
    <linearGradient
       osb:paint="solid"
       id="linearGradient5221">
      <stop
         id="stop5223"
         offset="0"
         style="stop-color:#8fc3da;stop-opacity:1" />
    </linearGradient>
    <inkscape:perspective
       id="perspective2993"
       inkscape:persp3d-origin="55.612728 : 36.528159 : 1"
       inkscape:vp_z="108.89234 : 40.780423 : 1"
       inkscape:vp_y="0 : 199.32489 : 0"
       inkscape:vp_x="2.3331212 : 40.780423 : 1"
       sodipodi:type="inkscape:persp3d" />
    <linearGradient
       gradientTransform="translate(2.5,0.71428572)"
       gradientUnits="userSpaceOnUse"
       y2="1029.4626"
       x2="85.352814"
       y1="1029.4626"
       x1="34.350262"
       id="linearGradient5685"
       xlink:href="#linearGradient5679"
       inkscape:collect="always" />
    <linearGradient
       id="linearGradient5679"
       inkscape:collect="always">
      <stop
         id="stop5681"
         offset="0"
         style="stop-color:#db3851;stop-opacity:1;" />
      <stop
         id="stop5683"
         offset="1"
         style="stop-color:#dcbfc3;stop-opacity:1" />
    </linearGradient>
    <linearGradient
       inkscape:collect="always"
       xlink:href="#linearGradient5555"
       id="linearGradient5774-1"
       gradientUnits="userSpaceOnUse"
       gradientTransform="matrix(-0.99244243,0,0,1,117.89101,1.1887384)"
       x1="34.350262"
       y1="1029.4626"
       x2="85.352814"
       y2="1029.4626" />
    <linearGradient
       gradientTransform="matrix(-0.23324009,-0.17626825,-0.18578029,0.24582653,213.51205,742.14619)"
       gradientUnits="userSpaceOnUse"
       y2="1032.6786"
       x2="-42.885998"
       y1="1012.8904"
       x1="-63.890354"
       id="linearGradient3851-8"
       xlink:href="#linearGradient3845"
       inkscape:collect="always" />
    <linearGradient
       inkscape:collect="always"
       xlink:href="#linearGradient3845"
       id="linearGradient3868-7"
       gradientUnits="userSpaceOnUse"
       gradientTransform="matrix(-0.28025523,-0.08323725,-0.08772901,0.29537877,111.75642,710.73867)"
       x1="-63.890354"
       y1="1012.8904"
       x2="-42.885998"
       y2="1032.6786" />
    <linearGradient
       inkscape:collect="always"
       xlink:href="#linearGradient5679"
       id="linearGradient5200-4"
       gradientUnits="userSpaceOnUse"
       gradientTransform="matrix(-0.99244243,0,0,-1.0369203,122.82193,2093.913)"
       x1="27.988731"
       y1="1025.8502"
       x2="94.004494"
       y2="1031.3474" />
    <linearGradient
       inkscape:collect="always"
       xlink:href="#linearGradient5679-2-2"
       id="linearGradient5327-8"
       gradientUnits="userSpaceOnUse"
       gradientTransform="matrix(-0.99244243,0,0,-1.3925146,-8.0232971,2482.2487)"
       x1="27.988731"
       y1="1025.8502"
       x2="94.004494"
       y2="1031.3474" />
    <linearGradient
       id="linearGradient5679-2-2">
      <stop
         id="stop5681-1-2"
         offset="0"
         style="stop-color:#b3001c;stop-opacity:0.97321427;" />
      <stop
         id="stop5683-2-7"
         offset="1"
         style="stop-color:#b1021a;stop-opacity:1;" />
    </linearGradient>
    <linearGradient
       gradientTransform="matrix(0.64156392,-0.10254749,0,0.88537008,100.86896,919.07)"
       gradientUnits="userSpaceOnUse"
       y2="75.225533"
       x2="-58.384766"
       y1="74.908371"
       x1="-130.66469"
       id="linearGradient3991"
       xlink:href="#linearGradient5457"
       inkscape:collect="always" />
    <linearGradient
       gradientUnits="userSpaceOnUse"
       y2="986.97632"
       x2="61.995449"
       y1="986.97632"
       x1="14.559077"
       id="linearGradient4153"
       xlink:href="#linearGradient5457"
       inkscape:collect="always" />
    <linearGradient
       inkscape:collect="always"
       xlink:href="#linearGradient3845"
       id="linearGradient3919"
       gradientUnits="userSpaceOnUse"
       gradientTransform="matrix(-0.14028903,-0.19738289,-0.20595634,0.14267866,241.27311,845.24982)"
       x1="-63.890354"
       y1="1012.8904"
       x2="-42.885998"
       y2="1032.6786" />
    <linearGradient
       inkscape:collect="always"
       xlink:href="#linearGradient5679-2-2"
       id="linearGradient6211-6"
       gradientUnits="userSpaceOnUse"
       gradientTransform="matrix(-0.20456773,0.12958805,0.13151812,0.21325618,-48.985275,811.2288)"
       x1="-63.890354"
       y1="1012.8904"
       x2="-42.885998"
       y2="1032.6786" />
    <linearGradient
       inkscape:collect="always"
       xlink:href="#linearGradient5679-2-2"
       id="linearGradient6211-0"
       gradientUnits="userSpaceOnUse"
       gradientTransform="matrix(-0.20456773,0.12958805,0.13151812,0.21325618,-53.530961,810.97626)"
       x1="-63.890354"
       y1="1012.8904"
       x2="-42.885998"
       y2="1032.6786" />
    <linearGradient
       id="linearGradient7554">
      <stop
         style="stop-color:#fff1f1;stop-opacity:0.75;"
         offset="0"
         id="stop7556" />
      <stop
         style="stop-color:#000000;stop-opacity:1;"
         offset="1"
         id="stop7558" />
    </linearGradient>
    <linearGradient
       y2="755.74"
       x2="429.83"
       gradientTransform="matrix(.36255 -.36255 .36255 .36255 -66.756 397.74)"
       y1="755.74"
       gradientUnits="userSpaceOnUse"
       x1="290.83"
       id="linearGradient4530">
      <stop
         offset="0"
         stop-color="#4d4d4d"
         id="stop5697" />
      <stop
         offset="1"
         stop-opacity="0"
         stop-color="#4d4d4d"
         id="stop5699" />
    </linearGradient>
    <linearGradient
       y2="648.26"
       x2="406.71"
       gradientTransform="matrix(0.36255,-0.36255,0.36255,0.36255,-19.586,428.5)"
       y1="648.26"
       gradientUnits="userSpaceOnUse"
       x1="268.71"
       id="linearGradient4533">
      <stop
         offset="0"
         stop-color="#ccc"
         id="stop5655" />
      <stop
         offset="1"
         stop-color="#929292"
         id="stop5657" />
    </linearGradient>
    <radialGradient
       r="266.68"
       gradientTransform="matrix(0.20092,-0.20712,0.064453,0.062536,243.82,725.94)"
       cx="524.96"
       cy="838.21"
       gradientUnits="userSpaceOnUse"
       fy="620.53"
       fx="525.34"
       id="radialGradient4544">
      <stop
         offset="0"
         stop-color="#008100"
         id="stop3848" />
      <stop
         offset=".20624"
         stop-color="#005d00"
         id="stop3854" />
      <stop
         offset=".8532"
         stop-color="#006a00"
         id="stop3858" />
      <stop
         offset="1"
         stop-color="#004300"
         id="stop3850" />
    </radialGradient>
    <radialGradient
       r="50.609"
       gradientTransform="matrix(-0.62812,0.59341,-3.7081,-3.9249,1982.5,1755.9)"
       cx="297.34"
       cy="462.68"
       gradientUnits="userSpaceOnUse"
       fy="460.45"
       fx="331.03"
       id="radialGradient4553">
      <stop
         offset="0"
         stop-opacity=".41985"
         stop-color="#fff"
         id="stop3890" />
      <stop
         offset="1"
         stop-opacity="0"
         stop-color="#fff"
         id="stop3892" />
    </radialGradient>
    <radialGradient
       r="67.141"
       gradientTransform="matrix(-0.40383,-0.36863,0.13444,-0.14727,563.98,619.3)"
       cx="409.92"
       cy="-9.2813"
       gradientUnits="userSpaceOnUse"
       id="radialGradient4645">
      <stop
         offset="0"
         stop-color="#006000"
         id="stop3851" />
      <stop
         offset=".53513"
         stop-color="#006000"
         id="stop3866" />
      <stop
         offset=".56255"
         stop-color="#008000"
         id="stop3864" />
      <stop
         offset=".73112"
         stop-color="#00a200"
         id="stop3857" />
      <stop
         offset="1"
         stop-color="#060"
         id="stop3853" />
    </radialGradient>
    <linearGradient
       id="imagebot_82">
      <stop
         offset="0"
         stop-color="#dfdfdf"
         id="imagebot_104" />
      <stop
         offset="1"
         stop-color="#fff"
         id="imagebot_103" />
    </linearGradient>
    <filter
       color-interpolation-filters="sRGB"
       id="imagebot_50">
      <feGaussianBlur
         stdDeviation="2.08236"
         id="imagebot_84" />
    </filter>
    <filter
       color-interpolation-filters="sRGB"
       id="imagebot_77">
      <feGaussianBlur
         stdDeviation="2.68359"
         id="imagebot_83" />
    </filter>
    <linearGradient
       x1="746.17556"
       x2="719.02793"
       y1="706.61178"
       xlink:href="#imagebot_82"
       y2="610.96385"
       id="imagebot_75"
       gradientTransform="scale(0.93314657,1.071643)"
       gradientUnits="userSpaceOnUse" />
    <linearGradient
       x1="716.39903"
       x2="732.20632"
       y1="619.24016"
       xlink:href="#imagebot_82"
       y2="692.02572"
       id="imagebot_68"
       gradientTransform="scale(0.93313895,1.0716518)"
       gradientUnits="userSpaceOnUse" />
    <linearGradient
       y2="623.91586"
       x1="726.47682"
       y1="615.75739"
       x2="737.16982"
       id="imagebot_48"
       gradientTransform="scale(0.93594535,1.0684385)"
       gradientUnits="userSpaceOnUse">
      <stop
         offset="0"
         stop-color="#9b6a06"
         id="imagebot_91" />
      <stop
         offset=".10284"
         stop-color="#b38e29"
         id="imagebot_90" />
      <stop
         offset=".25018"
         stop-color="#faf892"
         id="imagebot_89" />
      <stop
         offset=".51725"
         stop-color="#ddba32"
         id="imagebot_88" />
      <stop
         offset=".6932"
         stop-color="#cf9e08"
         id="imagebot_87" />
      <stop
         offset=".73575"
         stop-color="#976400"
         id="imagebot_86" />
      <stop
         offset="1"
         stop-color="#976400"
         id="imagebot_85" />
    </linearGradient>
    <linearGradient
       y2="708.58134"
       x1="648.2462"
       y1="707.64765"
       x2="649.9041"
       id="imagebot_46"
       gradientTransform="scale(0.95014084,1.0524755)"
       gradientUnits="userSpaceOnUse">
      <stop
         offset="0"
         stop-color="#a07100"
         id="imagebot_94" />
      <stop
         offset=".43039"
         stop-color="#f4f300"
         id="imagebot_93" />
      <stop
         offset="1"
         stop-color="#9e700b"
         id="imagebot_92" />
    </linearGradient>
    <linearGradient
       y2="748.42962"
       x1="614.02773"
       y1="745.21991"
       x2="617.53384"
       id="imagebot_44"
       gradientTransform="scale(1.0082381,0.99182919)"
       gradientUnits="userSpaceOnUse">
      <stop
         offset="0"
         stop-color="#a07100"
         id="imagebot_97" />
      <stop
         offset=".38158"
         stop-color="#f6f600"
         id="imagebot_96" />
      <stop
         offset="1"
         stop-color="#9e700b"
         id="imagebot_95" />
    </linearGradient>
    <linearGradient
       y2="671.43373"
       x1="684.67244"
       y1="679.81013"
       x2="673.2575"
       id="imagebot_42"
       gradientTransform="scale(0.92919642,1.0761987)"
       gradientUnits="userSpaceOnUse">
      <stop
         offset="0"
         stop-color="#375a93"
         id="imagebot_102" />
      <stop
         offset=".36961"
         stop-color="#5c9eda"
         id="imagebot_101" />
      <stop
         offset=".53886"
         stop-color="#97cafd"
         id="imagebot_100" />
      <stop
         offset=".77808"
         stop-color="#8bbff3"
         id="imagebot_99" />
      <stop
         offset="1"
         stop-color="#2a629a"
         id="imagebot_98" />
    </linearGradient>
    <filter
       inkscape:collect="always"
       color-interpolation-filters="sRGB"
       height="1.2642"
       x="-.10993"
       y="-.13210"
       width="1.2199"
       id="filter3721">
      <feGaussianBlur
         inkscape:collect="always"
         stdDeviation="1.5830058"
         id="feGaussianBlur3723" />
    </filter>
  </defs>
  <sodipodi:namedview
     id="base"
     pagecolor="#ffffff"
     bordercolor="#666666"
     borderopacity="1.0"
     inkscape:pageopacity="0.0"
     inkscape:pageshadow="2"
     inkscape:zoom="1.1879394"
     inkscape:cx="292.46057"
     inkscape:cy="241.82154"
     inkscape:document-units="px"
     inkscape:current-layer="layer1"
     showgrid="false"
     units="px"
     inkscape:window-width="1920"
     inkscape:window-height="1003"
     inkscape:window-x="0"
     inkscape:window-y="25"
     inkscape:window-maximized="1" />
  <metadata
     id="metadata7">
    <rdf:RDF>
      <cc:Work
         rdf:about="">
        <dc:format>image/svg+xml</dc:format>
        <dc:type
           rdf:resource="http://purl.org/dc/dcmitype/StillImage" />
        <dc:title></dc:title>
      </cc:Work>
    </rdf:RDF>
  </metadata>
  <g
     inkscape:label="Layer 1"
     inkscape:groupmode="layer"
     id="layer1"
     transform="translate(0,-602.36218)">
    <g
       id="g3928"
       transform="matrix(-0.08330948,-0.16800895,0.16800895,-0.08330948,258.49224,741.75386)" />
    <g
       id="g3703"
       transform="matrix(0.86803482,0,0,0.86803482,21.497059,782.64107)">
      <path
         sodipodi:start="5.8737773"
         sodipodi:end="5.8736757"
         sodipodi:cx="307.16623"
         sodipodi:cy="535.82147"
         transform="matrix(1,0,0,0.94005,-167.1,-358)"
         sodipodi:open="true"
         d="M 431.95494,491.4041 A 136.03075,111.58283 0 0 1 361.31866,638.1816 136.03075,111.58283 0 0 1 182.38027,580.24404 136.03075,111.58283 0 0 1 253.00746,433.46361 136.03075,111.58283 0 0 1 431.94943,491.3937"
         sodipodi:type="arc"
         style="fill:#ff0000"
         sodipodi:ry="111.58283"
         sodipodi:rx="136.03075"
         id="path3005" />
      <path
         sodipodi:start="5.8737773"
         sodipodi:end="5.8736757"
         sodipodi:cx="307.16623"
         sodipodi:cy="535.82147"
         transform="matrix(0.45569,0,0,0.45569,-39.296,-170.04)"
         sodipodi:open="true"
         d="M 431.95494,491.4041 A 136.03075,111.58283 0 0 1 361.31866,638.1816 136.03075,111.58283 0 0 1 182.38027,580.24404 136.03075,111.58283 0 0 1 253.00746,433.46361 136.03075,111.58283 0 0 1 431.94943,491.3937"
         sodipodi:type="arc"
         style="fill:#ff0000"
         sodipodi:ry="111.58283"
         sodipodi:rx="136.03075"
         id="path3005-3" />
      <path
         sodipodi:start="5.8737773"
         sodipodi:end="5.8736757"
         sodipodi:cx="307.16623"
         sodipodi:cy="535.82147"
         transform="matrix(0.45569,0,0,0.45569,45.714,-164.03)"
         sodipodi:open="true"
         d="M 431.95494,491.4041 A 136.03075,111.58283 0 0 1 361.31866,638.1816 136.03075,111.58283 0 0 1 182.38027,580.24404 136.03075,111.58283 0 0 1 253.00746,433.46361 136.03075,111.58283 0 0 1 431.94943,491.3937"
         sodipodi:type="arc"
         style="fill:#ff0000"
         sodipodi:ry="111.58283"
         sodipodi:rx="136.03075"
         id="path3005-3-1" />
      <path
         sodipodi:start="5.8737773"
         sodipodi:end="5.8736757"
         sodipodi:cx="307.16623"
         sodipodi:cy="535.82147"
         transform="matrix(0.37522,0,0,0.37522,-13.508,-124.42)"
         sodipodi:open="true"
         d="M 431.95494,491.4041 A 136.03075,111.58283 0 0 1 361.31866,638.1816 136.03075,111.58283 0 0 1 182.38027,580.24404 136.03075,111.58283 0 0 1 253.00746,433.46361 136.03075,111.58283 0 0 1 431.94943,491.3937"
         sodipodi:type="arc"
         style="fill:#ffffff"
         sodipodi:ry="111.58283"
         sodipodi:rx="136.03075"
         id="path3005-3-2" />
      <path
         sodipodi:start="5.8737773"
         sodipodi:end="5.8736757"
         sodipodi:cx="307.16623"
         sodipodi:cy="535.82147"
         transform="matrix(0.37522,0,0,0.37522,71.647,-119.09)"
         sodipodi:open="true"
         d="M 431.95494,491.4041 A 136.03075,111.58283 0 0 1 361.31866,638.1816 136.03075,111.58283 0 0 1 182.38027,580.24404 136.03075,111.58283 0 0 1 253.00746,433.46361 136.03075,111.58283 0 0 1 431.94943,491.3937"
         sodipodi:type="arc"
         style="fill:#ffffff"
         sodipodi:ry="111.58283"
         sodipodi:rx="136.03075"
         id="path3005-3-2-8" />
      <path
         sodipodi:start="5.8737773"
         sodipodi:end="5.8736757"
         sodipodi:cx="307.16623"
         sodipodi:cy="535.82147"
         transform="matrix(0.12712,0,0,0.12712,88.551,21.468)"
         sodipodi:open="true"
         d="M 431.95494,491.4041 A 136.03075,111.58283 0 0 1 361.31866,638.1816 136.03075,111.58283 0 0 1 182.38027,580.24404 136.03075,111.58283 0 0 1 253.00746,433.46361 136.03075,111.58283 0 0 1 431.94943,491.3937"
         sodipodi:type="arc"
         style="fill:#000000"
         sodipodi:ry="111.58283"
         sodipodi:rx="136.03075"
         id="path3005-3-2-7" />
      <path
         sodipodi:start="5.8737773"
         sodipodi:end="5.8736757"
         sodipodi:cx="307.16623"
         sodipodi:cy="535.82147"
         transform="matrix(0.12712,0,0,0.12712,118.66,23.582)"
         sodipodi:open="true"
         d="M 431.95494,491.4041 A 136.03075,111.58283 0 0 1 361.31866,638.1816 136.03075,111.58283 0 0 1 182.38027,580.24404 136.03075,111.58283 0 0 1 253.00746,433.46361 136.03075,111.58283 0 0 1 431.94943,491.3937"
         sodipodi:type="arc"
         style="fill:#000000"
         sodipodi:ry="111.58283"
         sodipodi:rx="136.03075"
         id="path3005-3-2-7-2" />
      <path
         sodipodi:start="5.8737773"
         sodipodi:end="5.8736757"
         sodipodi:cx="307.16623"
         sodipodi:cy="535.82147"
         transform="matrix(0.031009,0,0,0.031009,123.55,68.611)"
         sodipodi:open="true"
         d="M 431.95494,491.4041 A 136.03075,111.58283 0 0 1 361.31866,638.1816 136.03075,111.58283 0 0 1 182.38027,580.24404 136.03075,111.58283 0 0 1 253.00746,433.46361 136.03075,111.58283 0 0 1 431.94943,491.3937"
         sodipodi:type="arc"
         style="fill:#ffffff"
         sodipodi:ry="111.58283"
         sodipodi:rx="136.03075"
         id="path3005-3-2-7-9" />
      <path
         sodipodi:start="5.8737773"
         sodipodi:end="5.8736757"
         sodipodi:cx="307.16623"
         sodipodi:cy="535.82147"
         transform="matrix(0.031009,0,0,0.031009,155.05,70.214)"
         sodipodi:open="true"
         d="M 431.95494,491.4041 A 136.03075,111.58283 0 0 1 361.31866,638.1816 136.03075,111.58283 0 0 1 182.38027,580.24404 136.03075,111.58283 0 0 1 253.00746,433.46361 136.03075,111.58283 0 0 1 431.94943,491.3937"
         sodipodi:type="arc"
         style="fill:#ffffff"
         sodipodi:ry="111.58283"
         sodipodi:rx="136.03075"
         id="path3005-3-2-7-9-9" />
      <path
         d="m 203.27,187.17 c 15.171,14.523 -0.87282,31.404 -35.835,37.706 -34.962,6.3018 -75.603,-0.36255 -90.773,-14.885 -15.171,-14.523 70.384,-58.158 105.9,-57.523 43.453,0.77633 5.5286,20.179 20.702,34.7"
         inkscape:connector-curvature="0"
         style="fill:#000000"
         sodipodi:nodetypes="csssc"
         id="path3905" />
      <path
         sodipodi:nodetypes="csssc"
         inkscape:connector-curvature="0"
         inkscape:transform-center-y="-9.7929997"
         inkscape:transform-center-x="12.651903"
         d="m 69.962,9.0952 c 7.9822,2.7551 4.1541,9.2134 -12.615,13.853 -14.344,3.9685 -19.98,30.126 -27.962,27.371 -7.9822,-2.7551 7.2032,-32.016 19.926,-39.737 12.722,-7.7204 12.667,-4.2416 20.65,-1.4875"
         style="fill:#000000"
         id="path3908" />
      <path
         sodipodi:nodetypes="csssc"
         inkscape:connector-curvature="0"
         inkscape:transform-center-y="-8.4053978"
         inkscape:transform-center-x="-13.286087"
         d="m 223.05,19.846 c -8.1718,2.1277 -4.8562,8.8635 11.502,14.79 13.993,5.0691 17.583,31.585 25.755,29.457 8.1718,-2.1277 -4.6983,-32.478 -16.784,-41.163 -12.085,-8.6839 -12.299,-5.2113 -20.472,-3.0846"
         style="fill:#000000"
         id="path3908-1" />
    </g>
    <g
       transform="matrix(2.5826693,0,0,2.5826693,-441.43973,-447.53268)"
       inkscape:label="Calque 1"
       id="layer1-9">
      <g
         transform="matrix(3.558,0,0,3.0831,-1005.2,-1139.5)"
         id="g3746">
        <path
           d="m 360.88,531.88 c -1.4496,3.5554 -4.0544,5.8735 -6.11,8.6826 2.9085,-2.0738 6.2093,-4.0858 9.0488,-7.3023 m -2.9459,-1.3798 c -3.4178,-2.0992 -5.6521,-5.239 -5.6521,-8.5986 0,-6.3396 7.6357,-11.479 17.055,-11.479 9.4191,0 17.055,5.1393 17.055,11.479 0,6.3396 -7.6357,11.479 -17.055,11.479 -3.0779,0 -5.9653,-0.54876 -8.4581,-1.5088"
           style="fill:#7a7a7a;filter:url(#filter3721)"
           sodipodi:nodetypes="ccccssccsc"
           id="path2892-8-3"
           inkscape:connector-curvature="0" />
        <path
           d="m 360.88,529.88 c -1.4496,3.5554 -4.0544,5.8735 -6.11,8.6826 2.9085,-2.0738 6.2093,-4.0858 9.0488,-7.3023 m -2.9459,-1.3798 c -3.4178,-2.0992 -5.6521,-5.239 -5.6521,-8.5986 0,-6.3396 7.6357,-11.479 17.055,-11.479 9.4191,0 17.055,5.1393 17.055,11.479 0,6.3396 -7.6357,11.479 -17.055,11.479 -3.0779,0 -5.9653,-0.54876 -8.4581,-1.5088"
           style="fill:#ffffff;stroke:#000000;stroke-width:0.30193001;stroke-linecap:round;stroke-linejoin:round"
           sodipodi:nodetypes="ccccssccsc"
           id="path2892-8"
           inkscape:connector-curvature="0" />
      </g>
    </g>
    <text
       xml:space="preserve"
       style="font-style:normal;font-variant:normal;font-weight:normal;font-stretch:normal;font-size:176.48799133px;line-height:100%;font-family:'Aboriginal Serif';-inkscape-font-specification:'Aboriginal Serif, Normal';text-align:start;letter-spacing:0px;word-spacing:0px;writing-mode:lr-tb;text-anchor:start;fill:#000000;fill-opacity:1;stroke:none;stroke-width:1px;stroke-linecap:butt;stroke-linejoin:miter;stroke-opacity:1"
       x="272.14337"
       y="797.99835"
       id="text3751"
       sodipodi:linespacing="100%"><tspan
         sodipodi:role="line"
         id="tspan3753"
         x="272.14337"
         y="797.99835">. . .</tspan></text>
  </g>
</svg>
