<?xml version="1.0" encoding="UTF-8" standalone="no"?>
<!-- Created with Inkscape (http://www.inkscape.org/) -->

<svg
   xmlns:osb="http://www.openswatchbook.org/uri/2009/osb"
   xmlns:dc="http://purl.org/dc/elements/1.1/"
   xmlns:cc="http://creativecommons.org/ns#"
   xmlns:rdf="http://www.w3.org/1999/02/22-rdf-syntax-ns#"
   xmlns:svg="http://www.w3.org/2000/svg"
   xmlns="http://www.w3.org/2000/svg"
   xmlns:xlink="http://www.w3.org/1999/xlink"
   xmlns:sodipodi="http://sodipodi.sourceforge.net/DTD/sodipodi-0.dtd"
   xmlns:inkscape="http://www.inkscape.org/namespaces/inkscape"
   width="600"
   height="450"
   id="svg2"
   version="1.1"
   inkscape:version="0.91 r13725"
   sodipodi:docname="vv_02.svg"
   viewBox="0 0 600 450"
   inkscape:export-filename="overlay-border.png"
   inkscape:export-xdpi="45"
   inkscape:export-ydpi="45">
  <defs
     id="defs4">
    <linearGradient
       id="linearGradient3845">
      <stop
         id="stop3847"
         offset="0"
         style="stop-color:#a6a6a6;stop-opacity:1;" />
      <stop
         id="stop3849"
         offset="1"
         style="stop-color:#ffffff;stop-opacity:1;" />
    </linearGradient>
    <linearGradient
       id="linearGradient3797">
      <stop
         id="stop3799"
         offset="0"
         style="stop-color:#f05454;stop-opacity:1;" />
      <stop
         id="stop3801"
         offset="1"
         style="stop-color:#e5c0c0;stop-opacity:1;" />
    </linearGradient>
    <linearGradient
       id="linearGradient5555"
       inkscape:collect="always">
      <stop
         id="stop5557"
         offset="0"
         style="stop-color:#e7e2f1;stop-opacity:1" />
      <stop
         id="stop5559"
         offset="1"
         style="stop-color:#161616;stop-opacity:1" />
    </linearGradient>
    <linearGradient
       id="linearGradient5457"
       inkscape:collect="always">
      <stop
         id="stop5459"
         offset="0"
         style="stop-color:#000000;stop-opacity:1;" />
      <stop
         id="stop5461"
         offset="1"
         style="stop-color:#000000;stop-opacity:0;" />
    </linearGradient>
    <linearGradient
       id="linearGradient5231">
      <stop
         id="stop5241"
         offset="0"
         style="stop-color:#0549d8;stop-opacity:1;" />
      <stop
         id="stop5235"
         offset="1"
         style="stop-color:#c8d4fb;stop-opacity:1;" />
    </linearGradient>
    <linearGradient
       osb:paint="solid"
       id="linearGradient5221">
      <stop
         id="stop5223"
         offset="0"
         style="stop-color:#8fc3da;stop-opacity:1" />
    </linearGradient>
    <inkscape:perspective
       id="perspective2993"
       inkscape:persp3d-origin="55.612728 : 36.528159 : 1"
       inkscape:vp_z="108.89234 : 40.780423 : 1"
       inkscape:vp_y="0 : 199.32489 : 0"
       inkscape:vp_x="2.3331212 : 40.780423 : 1"
       sodipodi:type="inkscape:persp3d" />
    <linearGradient
       gradientTransform="translate(2.5,0.71428572)"
       gradientUnits="userSpaceOnUse"
       y2="1029.4626"
       x2="85.352814"
       y1="1029.4626"
       x1="34.350262"
       id="linearGradient5685"
       xlink:href="#linearGradient5679"
       inkscape:collect="always" />
    <linearGradient
       id="linearGradient5679"
       inkscape:collect="always">
      <stop
         id="stop5681"
         offset="0"
         style="stop-color:#db3851;stop-opacity:1;" />
      <stop
         id="stop5683"
         offset="1"
         style="stop-color:#dcbfc3;stop-opacity:1" />
    </linearGradient>
    <linearGradient
       inkscape:collect="always"
       xlink:href="#linearGradient5555"
       id="linearGradient5774-1"
       gradientUnits="userSpaceOnUse"
       gradientTransform="matrix(-0.99244243,0,0,1,117.89101,1.1887384)"
       x1="34.350262"
       y1="1029.4626"
       x2="85.352814"
       y2="1029.4626" />
    <linearGradient
       gradientTransform="matrix(-0.23324009,-0.17626825,-0.18578029,0.24582653,213.51205,742.14619)"
       gradientUnits="userSpaceOnUse"
       y2="1032.6786"
       x2="-42.885998"
       y1="1012.8904"
       x1="-63.890354"
       id="linearGradient3851-8"
       xlink:href="#linearGradient3845"
       inkscape:collect="always" />
    <linearGradient
       inkscape:collect="always"
       xlink:href="#linearGradient3845"
       id="linearGradient3868-7"
       gradientUnits="userSpaceOnUse"
       gradientTransform="matrix(-0.28025523,-0.08323725,-0.08772901,0.29537877,111.75642,710.73867)"
       x1="-63.890354"
       y1="1012.8904"
       x2="-42.885998"
       y2="1032.6786" />
    <linearGradient
       inkscape:collect="always"
       xlink:href="#linearGradient5679"
       id="linearGradient5200-4"
       gradientUnits="userSpaceOnUse"
       gradientTransform="matrix(-0.99244243,0,0,-1.0369203,122.82193,2093.913)"
       x1="27.988731"
       y1="1025.8502"
       x2="94.004494"
       y2="1031.3474" />
    <linearGradient
       inkscape:collect="always"
       xlink:href="#linearGradient5679-2-2"
       id="linearGradient5327-8"
       gradientUnits="userSpaceOnUse"
       gradientTransform="matrix(-0.99244243,0,0,-1.3925146,-8.0232971,2482.2487)"
       x1="27.988731"
       y1="1025.8502"
       x2="94.004494"
       y2="1031.3474" />
    <linearGradient
       id="linearGradient5679-2-2">
      <stop
         id="stop5681-1-2"
         offset="0"
         style="stop-color:#b3001c;stop-opacity:0.97321427;" />
      <stop
         id="stop5683-2-7"
         offset="1"
         style="stop-color:#b1021a;stop-opacity:1;" />
    </linearGradient>
    <linearGradient
       gradientTransform="matrix(0.64156392,-0.10254749,0,0.88537008,100.86896,919.07)"
       gradientUnits="userSpaceOnUse"
       y2="75.225533"
       x2="-58.384766"
       y1="74.908371"
       x1="-130.66469"
       id="linearGradient3991"
       xlink:href="#linearGradient5457"
       inkscape:collect="always" />
    <linearGradient
       gradientUnits="userSpaceOnUse"
       y2="986.97632"
       x2="61.995449"
       y1="986.97632"
       x1="14.559077"
       id="linearGradient4153"
       xlink:href="#linearGradient5457"
       inkscape:collect="always" />
    <linearGradient
       inkscape:collect="always"
       xlink:href="#linearGradient3845"
       id="linearGradient3919"
       gradientUnits="userSpaceOnUse"
       gradientTransform="matrix(-0.14028903,-0.19738289,-0.20595634,0.14267866,241.27311,845.24982)"
       x1="-63.890354"
       y1="1012.8904"
       x2="-42.885998"
       y2="1032.6786" />
    <linearGradient
       inkscape:collect="always"
       xlink:href="#linearGradient5679-2-2"
       id="linearGradient6211-6"
       gradientUnits="userSpaceOnUse"
       gradientTransform="matrix(-0.20456773,0.12958805,0.13151812,0.21325618,-48.985275,811.2288)"
       x1="-63.890354"
       y1="1012.8904"
       x2="-42.885998"
       y2="1032.6786" />
    <linearGradient
       inkscape:collect="always"
       xlink:href="#linearGradient5679-2-2"
       id="linearGradient6211-0"
       gradientUnits="userSpaceOnUse"
       gradientTransform="matrix(-0.20456773,0.12958805,0.13151812,0.21325618,-53.530961,810.97626)"
       x1="-63.890354"
       y1="1012.8904"
       x2="-42.885998"
       y2="1032.6786" />
    <linearGradient
       id="linearGradient7554">
      <stop
         style="stop-color:#fff1f1;stop-opacity:0.75;"
         offset="0"
         id="stop7556" />
      <stop
         style="stop-color:#000000;stop-opacity:1;"
         offset="1"
         id="stop7558" />
    </linearGradient>
    <linearGradient
       y2="755.74"
       x2="429.83"
       gradientTransform="matrix(.36255 -.36255 .36255 .36255 -66.756 397.74)"
       y1="755.74"
       gradientUnits="userSpaceOnUse"
       x1="290.83"
       id="linearGradient4530">
      <stop
         offset="0"
         stop-color="#4d4d4d"
         id="stop5697" />
      <stop
         offset="1"
         stop-opacity="0"
         stop-color="#4d4d4d"
         id="stop5699" />
    </linearGradient>
    <linearGradient
       y2="648.26"
       x2="406.71"
       gradientTransform="matrix(0.36255,-0.36255,0.36255,0.36255,-19.586,428.5)"
       y1="648.26"
       gradientUnits="userSpaceOnUse"
       x1="268.71"
       id="linearGradient4533">
      <stop
         offset="0"
         stop-color="#ccc"
         id="stop5655" />
      <stop
         offset="1"
         stop-color="#929292"
         id="stop5657" />
    </linearGradient>
    <radialGradient
       r="266.68"
       gradientTransform="matrix(0.20092,-0.20712,0.064453,0.062536,243.82,725.94)"
       cx="524.96"
       cy="838.21"
       gradientUnits="userSpaceOnUse"
       fy="620.53"
       fx="525.34"
       id="radialGradient4544">
      <stop
         offset="0"
         stop-color="#008100"
         id="stop3848" />
      <stop
         offset=".20624"
         stop-color="#005d00"
         id="stop3854" />
      <stop
         offset=".8532"
         stop-color="#006a00"
         id="stop3858" />
      <stop
         offset="1"
         stop-color="#004300"
         id="stop3850" />
    </radialGradient>
    <radialGradient
       r="50.609"
       gradientTransform="matrix(-0.62812,0.59341,-3.7081,-3.9249,1982.5,1755.9)"
       cx="297.34"
       cy="462.68"
       gradientUnits="userSpaceOnUse"
       fy="460.45"
       fx="331.03"
       id="radialGradient4553">
      <stop
         offset="0"
         stop-opacity=".41985"
         stop-color="#fff"
         id="stop3890" />
      <stop
         offset="1"
         stop-opacity="0"
         stop-color="#fff"
         id="stop3892" />
    </radialGradient>
    <radialGradient
       r="67.141"
       gradientTransform="matrix(-0.40383,-0.36863,0.13444,-0.14727,563.98,619.3)"
       cx="409.92"
       cy="-9.2813"
       gradientUnits="userSpaceOnUse"
       id="radialGradient4645">
      <stop
         offset="0"
         stop-color="#006000"
         id="stop3851" />
      <stop
         offset=".53513"
         stop-color="#006000"
         id="stop3866" />
      <stop
         offset=".56255"
         stop-color="#008000"
         id="stop3864" />
      <stop
         offset=".73112"
         stop-color="#00a200"
         id="stop3857" />
      <stop
         offset="1"
         stop-color="#060"
         id="stop3853" />
    </radialGradient>
    <linearGradient
       id="imagebot_82">
      <stop
         offset="0"
         stop-color="#dfdfdf"
         id="imagebot_104" />
      <stop
         offset="1"
         stop-color="#fff"
         id="imagebot_103" />
    </linearGradient>
    <filter
       color-interpolation-filters="sRGB"
       id="imagebot_50">
      <feGaussianBlur
         stdDeviation="2.08236"
         id="imagebot_84" />
    </filter>
    <filter
       color-interpolation-filters="sRGB"
       id="imagebot_77">
      <feGaussianBlur
         stdDeviation="2.68359"
         id="imagebot_83" />
    </filter>
    <linearGradient
       x1="746.17556"
       x2="719.02793"
       y1="706.61178"
       xlink:href="#imagebot_82"
       y2="610.96385"
       id="imagebot_75"
       gradientTransform="scale(0.93314657,1.071643)"
       gradientUnits="userSpaceOnUse" />
    <linearGradient
       x1="716.39903"
       x2="732.20632"
       y1="619.24016"
       xlink:href="#imagebot_82"
       y2="692.02572"
       id="imagebot_68"
       gradientTransform="scale(0.93313895,1.0716518)"
       gradientUnits="userSpaceOnUse" />
    <linearGradient
       y2="623.91586"
       x1="726.47682"
       y1="615.75739"
       x2="737.16982"
       id="imagebot_48"
       gradientTransform="scale(0.93594535,1.0684385)"
       gradientUnits="userSpaceOnUse">
      <stop
         offset="0"
         stop-color="#9b6a06"
         id="imagebot_91" />
      <stop
         offset=".10284"
         stop-color="#b38e29"
         id="imagebot_90" />
      <stop
         offset=".25018"
         stop-color="#faf892"
         id="imagebot_89" />
      <stop
         offset=".51725"
         stop-color="#ddba32"
         id="imagebot_88" />
      <stop
         offset=".6932"
         stop-color="#cf9e08"
         id="imagebot_87" />
      <stop
         offset=".73575"
         stop-color="#976400"
         id="imagebot_86" />
      <stop
         offset="1"
         stop-color="#976400"
         id="imagebot_85" />
    </linearGradient>
    <linearGradient
       y2="708.58134"
       x1="648.2462"
       y1="707.64765"
       x2="649.9041"
       id="imagebot_46"
       gradientTransform="scale(0.95014084,1.0524755)"
       gradientUnits="userSpaceOnUse">
      <stop
         offset="0"
         stop-color="#a07100"
         id="imagebot_94" />
      <stop
         offset=".43039"
         stop-color="#f4f300"
         id="imagebot_93" />
      <stop
         offset="1"
         stop-color="#9e700b"
         id="imagebot_92" />
    </linearGradient>
    <linearGradient
       y2="748.42962"
       x1="614.02773"
       y1="745.21991"
       x2="617.53384"
       id="imagebot_44"
       gradientTransform="scale(1.0082381,0.99182919)"
       gradientUnits="userSpaceOnUse">
      <stop
         offset="0"
         stop-color="#a07100"
         id="imagebot_97" />
      <stop
         offset=".38158"
         stop-color="#f6f600"
         id="imagebot_96" />
      <stop
         offset="1"
         stop-color="#9e700b"
         id="imagebot_95" />
    </linearGradient>
    <linearGradient
       y2="671.43373"
       x1="684.67244"
       y1="679.81013"
       x2="673.2575"
       id="imagebot_42"
       gradientTransform="scale(0.92919642,1.0761987)"
       gradientUnits="userSpaceOnUse">
      <stop
         offset="0"
         stop-color="#375a93"
         id="imagebot_102" />
      <stop
         offset=".36961"
         stop-color="#5c9eda"
         id="imagebot_101" />
      <stop
         offset=".53886"
         stop-color="#97cafd"
         id="imagebot_100" />
      <stop
         offset=".77808"
         stop-color="#8bbff3"
         id="imagebot_99" />
      <stop
         offset="1"
         stop-color="#2a629a"
         id="imagebot_98" />
    </linearGradient>
    <linearGradient
       inkscape:collect="always"
       x1="114.57"
       y1="111.33"
       x2="504.37"
       gradientUnits="userSpaceOnUse"
       y2="671.45"
       id="linearGradient4146"
       gradientTransform="matrix(0.09826048,0.07052801,-0.07052801,0.09826048,227.40297,752.915)">
      <stop
         offset="0"
         style="stop-color:#ee0000"
         id="stop4142" />
      <stop
         offset="1"
         style="stop-color:#9a0000"
         id="stop4144" />
    </linearGradient>
    <linearGradient
       inkscape:collect="always"
       xlink:href="#linearGradient4146"
       id="linearGradient3608"
       gradientUnits="userSpaceOnUse"
       gradientTransform="matrix(0.12044165,-0.01109647,-0.01109647,-0.12044165,266.51593,753.31862)"
       x1="114.57"
       y1="111.33"
       x2="504.37"
       y2="671.45" />
    <linearGradient
       inkscape:collect="always"
       xlink:href="#linearGradient4146"
       id="linearGradient3610"
       gradientUnits="userSpaceOnUse"
       gradientTransform="matrix(0.09101152,0.0796632,-0.0796632,0.09101152,265.62432,654.29384)"
       x1="114.57"
       y1="111.33"
       x2="504.37"
       y2="671.45" />
  </defs>
  <sodipodi:namedview
     id="base"
     pagecolor="#ffffff"
     bordercolor="#666666"
     borderopacity="1.0"
     inkscape:pageopacity="0.0"
     inkscape:pageshadow="2"
     inkscape:zoom="1.1879394"
     inkscape:cx="245.61371"
     inkscape:cy="275.49329"
     inkscape:document-units="px"
     inkscape:current-layer="layer1"
     showgrid="false"
     units="px"
     inkscape:window-width="1920"
     inkscape:window-height="1003"
     inkscape:window-x="0"
     inkscape:window-y="25"
     inkscape:window-maximized="1" />
  <metadata
     id="metadata7">
    <rdf:RDF>
      <cc:Work
         rdf:about="">
        <dc:format>image/svg+xml</dc:format>
        <dc:type
           rdf:resource="http://purl.org/dc/dcmitype/StillImage" />
        <dc:title />
      </cc:Work>
    </rdf:RDF>
  </metadata>
  <g
     inkscape:label="Layer 1"
     inkscape:groupmode="layer"
     id="layer1"
     transform="translate(0,-602.36218)">
    <g
       id="g3928"
       transform="matrix(-0.08330948,-0.16800895,0.16800895,-0.08330948,258.49224,741.75386)" />
    <g
       id="g3612"
       transform="matrix(1.8340791,0,0,1.8340791,-316.34445,-579.1624)">
      <g
         style="clip-rule:evenodd;fill-rule:evenodd"
         transform="translate(300.48554,684.40811)"
         id="boys_hair_xA0_Image">
        <path
           inkscape:connector-curvature="0"
           d="m 66.271,18.933 c 0.347,1.039 -0.771,0.612 -1.381,0.69 0.083,-0.607 0.594,-0.786 1.381,-0.69 z"
           id="path3433" />
        <path
           inkscape:connector-curvature="0"
           d="m 106.31,20.659 c 0.424,0.15 0.709,0.442 0.689,1.036 -0.42,-0.152 -0.71,-0.443 -0.69,-1.036 z"
           id="path3435" />
        <path
           inkscape:connector-curvature="0"
           d="m 108.73,21.695 c 0.505,0.299 1.094,0.516 1.035,1.38 -0.5,-0.3 -1.09,-0.516 -1.03,-1.38 z"
           id="path3437" />
        <path
           inkscape:connector-curvature="0"
           d="m 88.36,38.607 c 2.197,0.332 0.415,2.115 0,0 z"
           id="path3439" />
        <path
           inkscape:connector-curvature="0"
           d="m 93.539,39.988 c -1.101,0.296 -1.067,-0.543 -1.726,-0.69 0.195,-1.219 1.623,-0.176 1.726,0.69 z"
           id="path3441" />
        <path
           inkscape:connector-curvature="0"
           d="m 29.338,39.643 c -0.084,0.607 -0.593,0.787 -1.381,0.69 0.084,-0.607 0.595,-0.786 1.381,-0.69 z"
           id="path3443" />
        <path
           inkscape:connector-curvature="0"
           d="m 95.265,41.714 c 1.376,-0.341 1.04,1.031 2.416,0.689 -0.439,0.748 -2.652,0.38 -2.416,-0.689 z"
           id="path3445" />
        <path
           inkscape:connector-curvature="0"
           d="m 56.951,42.404 c -0.734,1.303 -2.211,0.01 -3.797,0.69 0.679,-0.817 2.289,-0.702 3.797,-0.69 z"
           id="path3447" />
        <path
           inkscape:connector-curvature="0"
           d="m 56.951,46.546 c -0.058,-0.748 1.224,-0.156 1.726,-0.345 0.058,0.749 -1.225,0.156 -1.726,0.345 z"
           id="path3449" />
        <path
           inkscape:connector-curvature="0"
           d="m 89.397,47.237 c 0.87,-0.96 2.316,0.424 2.416,1.38 -1.26,-0.005 -1.55,-0.981 -2.416,-1.38 z"
           id="path3451" />
        <path
           inkscape:connector-curvature="0"
           d="m 87.672,49.998 c 1.97,1.94 4.52,3.303 5.867,5.868 -0.112,1.365 -1.958,-0.858 -2.072,-1.726 -0.657,-0.148 -0.867,-0.744 -1.726,-0.69 0.155,-1.995 -1.96,-1.721 -2.069,-3.452 z"
           id="path3453" />
        <path
           inkscape:connector-curvature="0"
           d="m 74.9,53.104 c 1.985,2.068 6.468,3.388 6.557,6.212 -2.619,-1.635 -4.976,-3.537 -6.557,-6.212 z"
           id="path3455" />
        <path
           inkscape:connector-curvature="0"
           d="m 43.145,57.937 c 0.646,0.389 1.663,0.408 1.381,1.725 -0.592,-0.444 -1.358,-0.713 -1.381,-1.725 z"
           id="path3457" />
        <path
           inkscape:connector-curvature="0"
           d="m 129.44,61.389 c 0.162,1.074 -0.868,1.233 -1.381,0.69 0.22,-0.464 0.73,-0.643 1.38,-0.69 z"
           id="path3459" />
        <path
           inkscape:connector-curvature="0"
           d="m 128.74,64.15 c 0.717,0.193 0.731,0.539 0.346,1.036 l -0.689,0 c -0.1,-0.558 0.33,-0.595 0.34,-1.036 z"
           id="path3461" />
        <path
           inkscape:connector-curvature="0"
           d="M 36.931,78.991 C 27.946,78.027 22.327,68.488 12.77,72.433 c -0.516,-3.134 5.637,-3.876 8.976,-2.416 2.469,1.08 5.015,2.898 7.593,4.488 2.897,1.786 6.141,2.628 7.592,4.486 z"
           id="path3463" />
        <path
           inkscape:connector-curvature="0"
           d="m 119.08,71.744 c 0.748,-0.059 0.155,1.224 0.345,1.725 -0.511,-0.18 -0.87,-0.51 -1.381,-0.69 -0.1,-0.796 1,-0.383 1.04,-1.035 z"
           id="path3465" />
        <path
           inkscape:connector-curvature="0"
           d="m 90.086,80.718 c -1.566,-3.035 -3.122,-6.082 -6.211,-7.593 -3.261,-0.034 -5.877,0.077 -7.94,1.035 -5.578,2.591 -5.936,9.71 -3.106,15.532 -3.364,-2.261 -3.159,-8.956 -1.38,-12.771 1.5,-0.661 2.24,-2.812 4.142,-3.795 2.975,-1.54 8.088,-1.665 10.701,0 1.754,1.116 3.551,4.415 3.794,7.592 z"
           id="path3467" />
        <path
           inkscape:connector-curvature="0"
           d="m 125.64,73.815 1.035,0 0,1.725 c -0.727,0.31 -1.535,0.536 -2.071,1.036 0.904,1.627 -0.991,2.116 -1.036,3.797 -0.98,-2.484 1.48,-4.497 2.07,-6.558 z"
           id="path3469" />
        <path
           inkscape:connector-curvature="0"
           d="m 112.87,78.301 c 1.068,-0.031 1.03,1.043 1.038,2.072 -1.07,0.031 -1.04,-1.043 -1.04,-2.072 z"
           id="path3471" />
        <path
           inkscape:connector-curvature="0"
           d="m 90.433,82.444 c 0.863,1.569 1.366,3.061 1.381,4.832 0.019,2.292 -1.153,5.395 -1.728,7.249 -0.663,2.146 -0.543,2.994 -1.726,4.832 -0.14,0.221 -0.866,0.407 -1.034,0.691 -0.255,0.427 -0.067,0.958 -0.347,1.38 -2.565,3.902 -7.125,8.324 -10.009,11.735 -3.598,1.809 -11.237,1.044 -8.63,-3.797 1.6,-0.979 1.521,2.275 2.762,2.762 6.885,-0.185 8.371,-3.995 12.427,-8.975 4.263,-5.222 8.489,-10.784 6.904,-20.696 z"
           id="path3473" />
        <path
           inkscape:connector-curvature="0"
           d="m 76.281,86.585 c 1.021,0.644 5.001,5.464 5.176,7.249 0.444,4.498 -4.224,5.117 -5.867,8.629 -7.704,0.176 -0.605,-7.621 -4.142,-10.355 2.844,0.463 4.611,3.16 3.452,6.558 -0.409,0.396 -1.221,0.391 -2.072,0.346 -0.199,1.119 0.236,1.604 0.346,2.415 3.421,-0.489 4.456,-3.369 6.558,-5.178 0.573,-4.936 -2.154,-6.582 -3.451,-9.657 z"
           id="path3475" />
        <path
           inkscape:connector-curvature="0"
           d="m 25.542,87.966 c -0.723,0.75 -2.082,0.882 -3.107,0.69 0.381,-0.884 1.854,-0.677 3.107,-0.69 z"
           id="path3477" />
        <path
           inkscape:connector-curvature="0"
           d="m 118.39,90.037 c 0.375,0.086 0.235,0.687 0.691,0.69 -3.992,8.35 -9.052,16.994 -12.426,26.924 -0.284,0.975 0.486,0.894 0.344,1.725 -2.058,1.854 -1.229,6.594 -3.45,8.285 1.832,-7.372 2.01,-16.4 6.902,-20.711 2.3,-5.99 5.07,-11.506 7.95,-16.913 z"
           id="path3479" />
        <path
           inkscape:connector-curvature="0"
           d="m 0,95.559 c 1.146,3.688 3.852,5.814 8.629,5.868 1.934,2.17 4.487,10.509 -0.346,11.391 1.437,-2.311 1.5,-8.056 0,-10.354 -5.355,0.28 -8.005,-2.13 -8.283,-6.911 z"
           id="path3481" />
        <path
           inkscape:connector-curvature="0"
           d="m 17.258,98.667 c 0.558,-0.098 0.594,0.326 1.034,0.346 0.062,1.785 -0.306,3.145 -2.069,3.105 0.654,-0.84 1.285,-1.71 1.035,-3.453 z"
           id="path3483" />
        <path
           inkscape:connector-curvature="0"
           d="m 112.87,98.667 c -0.146,0.656 -0.742,0.867 -0.688,1.726 -0.79,-0.27 -0.34,-2.135 0.69,-1.723 z"
           id="path3485" />
        <path
           inkscape:connector-curvature="0"
           d="m 13.116,102.12 c -1.375,-1.161 -5.845,-1.053 -5.522,-2.762 2.589,-1.32 6.147,0.862 5.522,2.762 z"
           id="path3487" />
        <path
           inkscape:connector-curvature="0"
           d="m 102.17,109.02 0.689,0 0,0.689 -0.689,0 0,-0.69 z"
           id="path3489" />
        <path
           inkscape:connector-curvature="0"
           d="m 102.51,110.06 0.69,0 c -0.063,0.293 0.135,0.325 0.346,0.345 -0.562,0.704 -1.121,1.411 -1.381,2.416 -0.278,-0.183 -0.561,-0.36 -1.035,-0.345 1.13,-0.64 1.2,-1.57 1.37,-2.42 z"
           id="path3491" />
        <path
           inkscape:connector-curvature="0"
           d="m 21.054,115.92 c 1.677,0.509 2.226,2.147 3.107,3.451 -4.328,0.506 -7.794,1.872 -11.045,3.451 -1.628,4.399 3.522,4.052 4.831,6.559 -1.402,2.748 -3.538,5.208 -3.105,8.629 0.43,3.404 3.709,4.413 5.522,6.559 5.07,1.625 11.27,1.596 17.258,1.035 2.521,-0.235 5.376,-0.444 7.593,-1.035 2.122,-0.564 3.872,-2.682 5.868,-1.725 -2.176,1.85 -4.815,3.237 -8.283,3.795 2.592,3.576 6.255,6.489 4.832,13.117 -1.287,-5.271 -2.943,-10.173 -7.248,-12.427 -4.78,-0.427 -8.611,0.888 -12.427,0.69 -6.672,-0.345 -15.084,-4.396 -14.151,-12.426 0.216,-1.862 2.153,-3.332 1.726,-5.522 -0.414,-2.12 -4.281,-3.013 -3.452,-6.558 0.351,-1.499 1.903,-1.747 3.106,-3.106 -0.636,-2.776 -2.834,-1.966 -5.177,-2.761 -1.033,-1.885 -0.547,-3.531 1.381,-4.143 2.187,1.84 4.761,3.293 8.63,3.451 1.227,0.55 0.207,-1.16 1.034,-1.03 z m -5.868,2.42 c -0.764,0.76 0.606,1.146 0.691,2.071 1.831,-0.7 4.367,-0.695 5.522,-2.071 -2.697,-0.12 -3.429,-0.06 -6.213,0 z"
           id="path3493" />
        <path
           inkscape:connector-curvature="0"
           d="m 107,127.66 c 0.59,-0.127 0.652,0.268 0.691,0.689 -1.82,3.158 -5.401,4.324 -8.975,6.213 -4.832,2.557 -9.567,5.718 -14.497,8.629 -14.007,8.273 -30.45,15.508 -43.835,24.852 0.926,5.058 2.997,8.969 4.142,13.807 -2.88,-3.447 -3.903,-8.753 -5.522,-13.461 9.455,-8.678 21.901,-13.582 33.48,-20.02 5.508,-3.062 11.317,-6.33 16.914,-10.01 2.645,-1.74 5.45,-3.69 8.283,-5.178 3.39,-1.78 7.1,-2.77 9.32,-5.52 z"
           id="path3495" />
        <path
           inkscape:connector-curvature="0"
           d="m 108.04,129.38 c 1.389,0.338 0.916,2.535 1.381,3.797 -1.39,-0.34 -1.22,-2.24 -1.38,-3.8 z"
           id="path3497" />
        <path
           inkscape:connector-curvature="0"
           d="m 114.59,153.89 c -2.317,-1.364 -1.152,-6.211 -2.762,-8.284 0.427,-2.764 -0.264,-6.679 0,-10.354 -27.134,14.284 -51.233,31.606 -69.723,54.536 -1.348,-0.66 0.512,-1.81 0.69,-2.071 7.648,-11.165 18.794,-20.432 29.684,-28.994 5.731,-4.507 11.998,-8.999 18.294,-13.116 6.845,-4.475 13.538,-8.614 20.709,-11.734 0.294,-0.064 0.326,0.135 0.346,0.345 1.603,3.923 1.144,9.193 2.072,13.806 0.4,1.94 1.74,3.91 0.69,5.84 z"
           id="path3499" />
        <path
           inkscape:connector-curvature="0"
           d="m 45.215,155.62 1.036,0 c 0.163,1.085 -0.431,1.41 -1.036,1.727 0.025,0.939 -0.135,1.643 -0.689,2.416 -0.196,0.274 -0.903,0.482 -1.035,0.69 -0.902,1.413 -0.737,3.618 -2.416,4.142 1.087,-3.29 2.914,-5.84 4.14,-8.98 z"
           id="path3501" />
        <path
           inkscape:connector-curvature="0"
           d="m 39.349,172.19 c -1.631,3.662 -3.748,6.838 -7.249,8.629 0.277,1.197 -0.515,1.327 -0.345,2.416 3.94,-1.467 4.812,-6.004 8.629,-7.594 -1.508,5.396 -5.732,8.074 -10.01,10.701 0.285,0.975 -0.487,0.894 -0.346,1.725 -1.692,-8.365 5.106,-11.229 8.283,-15.877 0.347,-0.01 0.692,-0.01 1.038,-0.01 z"
           id="path3503" />
        <path
           inkscape:connector-curvature="0"
           d="m 41.074,178.4 c 0.308,0.153 0.616,0.303 0.689,0.69 -1.171,4.005 -4.444,5.909 -6.559,8.974 -2.069,0.631 -3.621,3.437 -6.212,2.416 0.937,-2.258 3.43,-3.049 5.178,-4.486 2.679,-2.2 4.733,-4.86 6.904,-7.59 z"
           id="path3505" />
        <path
           inkscape:connector-curvature="0"
           d="m 27.268,12.375 c 0.884,-0.036 1.646,-0.195 2.07,-0.69 1.034,0.227 -0.33,0.738 0,1.38 0.643,-0.047 1.153,-0.227 1.381,-0.69 -0.986,2.197 -2.513,4.732 -4.486,6.903 0.443,1.383 0.713,-0.095 1.725,0 -0.953,0.705 -0.48,2.465 0.691,1.381 0.867,0.257 -2.405,2.401 -2.416,0.69 -1.457,0.544 0.752,1.234 -0.69,2.071 1.897,-0.057 2.136,-1.774 4.486,-1.381 0.305,0.607 1.531,0.57 0.69,1.381 0.833,0.141 0.751,-0.63 1.726,-0.346 -0.077,-0.497 -1.029,-0.12 -1.035,-0.69 0.683,-1.925 2.846,-0.353 4.833,-0.69 -0.229,1.013 -2.145,1.48 -2.762,1.036 -2.36,1.781 -5.435,2.85 -7.248,5.177 2.09,-0.095 2.682,-1.688 4.486,-2.071 0.094,1.121 -0.6,1.428 -1.381,2.417 1.084,0.575 1.411,-1.284 1.726,-0.346 -0.503,2.202 -4.618,1.645 -3.796,4.143 -1.204,-0.088 -2.361,0.801 -3.106,2.071 2.091,-1.008 1.864,-0.579 4.487,-1.38 0.762,-0.273 0.863,-1.208 1.38,-1.726 6,-2.186 11.925,0.892 17.604,1.036 5.353,0.135 9.266,-1.616 14.496,-2.416 1.271,-0.571 2.071,-1.611 4.144,-1.381 1.092,-0.288 1.754,-1.008 2.415,-1.727 11.669,-0.047 20.023,3.217 27.269,7.594 -1.717,1.689 -4.839,-2.865 -5.522,0 -1.506,0.009 -1.892,-1.101 -3.106,-1.38 -0.78,0.193 0.417,0.538 -0.347,1.035 -1.639,-0.831 -2.307,-0.797 -4.142,-1.035 0.577,3.078 5.856,2.995 4.834,6.558 -2.528,-1.298 -4.724,-4.67 -8.284,-3.797 1.455,1.209 2.343,2.311 3.45,3.106 -1.14,0.18 -2.178,-1.015 -4.487,-0.345 0.258,1.009 1.863,0.668 1.726,2.071 -0.971,-0.293 -1.415,-1.115 -2.761,-1.036 0.246,1.825 3.326,0.816 2.761,3.452 -0.874,-0.027 -1.967,-0.517 -1.035,0.345 -0.62,0.485 -2.272,-0.934 -3.106,-1.38 -0.932,0.873 -1.562,0.048 -2.069,1.035 0.27,0.764 2.136,-0.066 1.725,1.381 1.099,-0.528 1.519,-0.122 2.761,0 7.381,5.736 14.863,11.37 18.295,21.055 -4.107,-7.054 -9.01,-13.312 -15.877,-17.604 0.168,1.672 2.011,1.67 2.416,3.106 -1.784,-0.101 -2.346,-0.023 -4.488,0.345 -0.058,0.863 0.53,1.081 1.035,1.38 -0.529,1.026 -1.534,-1.275 -2.416,0 -0.7,-0.105 0.071,0.997 0.346,1.036 -0.347,0.868 -1.526,-0.274 -1.38,-1.036 -0.857,-0.449 -1.676,0.771 -1.728,0 -3.515,-2.697 -8.334,-4.09 -13.461,-5.177 0.095,-1.797 2.309,0.323 2.762,-0.691 -1.242,-0.654 -0.581,-0.876 -0.69,-2.072 -0.884,-0.561 -2.379,0.543 -3.451,-0.344 1.188,-0.828 3.865,-0.196 5.178,0 -1.225,-1.563 -6.149,-0.332 -7.249,-2.071 6.18,0.672 10.382,0.16 15.878,1.726 1.755,0.123 -0.716,-0.803 -0.691,-0.69 -0.027,-0.134 0.562,-0.848 0.691,-0.69 -1.759,-2.154 -8.649,-2.148 -11.392,-2.416 0.308,-0.877 -1.21,-0.187 -1.379,-1.381 2.198,0.55 4.504,1.511 6.557,0.345 -1.125,0.967 4.685,1.809 5.868,1.381 0.661,0.604 1.8,0.731 2.761,1.036 -1.598,-1.624 -4.698,-1.744 -7.248,-2.417 2.49,-1.051 -1.88,-1.574 -3.796,-1.38 -0.142,-0.832 0.631,-0.75 0.346,-1.726 0.546,-0.028 1.316,0.167 1.381,-0.345 -0.818,-0.793 -3.099,-0.123 -4.489,-0.345 1.541,-0.672 0.64,-0.744 -1.035,-0.69 1.208,-1.093 3.562,-1.041 5.868,-1.035 1.297,-0.197 -0.546,-1.848 1.726,-1.38 -3.424,-1.392 -7.674,0.082 -12.426,0 -1.722,1.226 -2.288,1.646 -4.832,1.725 0.122,0.454 0.608,0.543 0.691,1.036 1.503,-0.069 3.363,-0.422 5.521,-0.69 0.718,-0.386 0.731,-0.372 0.346,0.345 -1.507,0.105 -2.864,0.359 -3.798,1.036 0.271,1.295 2.138,-0.908 1.727,0.69 -1.402,-0.097 -0.779,0.125 -0.691,1.036 -2.674,0.525 -4.172,-0.146 -6.212,0.345 0.103,0.702 0.691,0.919 1.035,1.38 1.583,-0.138 2.145,-0.308 3.452,0.345 3.23,0.312 -2.054,0.767 -3.797,0.69 -2.016,-0.088 -4.034,-1.163 -4.833,-0.345 1.485,2.082 5.64,1.493 8.974,1.726 -3.303,0.957 -5.935,1.01 -9.318,1.38 0.989,2.155 4.372,0.172 5.868,1.381 -0.701,1.49 0.982,2.386 2.416,2.761 -1.175,0.724 -2.559,-0.5 -3.797,0.346 0.026,1.238 2.257,0.273 2.761,1.035 3.143,0.148 -0.835,0.525 -2.07,0.346 -0.39,0.31 0.082,0.833 -1.036,1.035 0.785,1.17 3.017,0.896 4.143,1.726 -0.782,1.04 -3.378,-0.266 -3.797,0.345 0.813,0.797 1.782,1.439 3.45,1.381 -0.089,1.063 -2.553,0.232 -3.45,0 -0.297,1.446 1.545,0.756 2.07,1.381 -0.052,0.638 -1.168,0.211 -1.38,0.69 0.192,0.497 0.539,0.842 1.036,1.035 -0.084,0.89 -0.595,-0.474 -1.381,0 0.218,1.277 1.938,1.054 3.451,1.036 -0.041,1.688 1.921,1.902 3.106,1.38 1.708,1.168 3.859,1.893 5.522,3.106 -0.116,-1.495 -1.911,-1.31 -2.762,-2.071 1.135,-0.547 2.766,1.368 4.142,1.727 1.849,0.063 2.493,-1.261 3.799,0 1.128,-1.265 -0.993,-2.216 -2.072,-2.417 -1.112,-1.419 -2.996,-2.066 -5.177,-2.416 1.384,-0.783 -0.675,-1.254 0.689,-1.381 -0.052,-0.639 -1.169,-0.211 -1.381,-0.69 0.887,-0.296 1.948,-0.033 0.346,-1.036 -0.06,-0.749 1.225,-0.157 1.727,-0.345 -0.273,-0.762 -1.209,-0.864 -1.727,-1.381 0.586,-0.894 1.605,0.669 2.761,0.345 -0.706,-1.249 -2.92,-0.992 -3.106,-2.761 1.243,-0.093 1.663,0.637 2.762,0.69 0.434,-0.085 0.348,-0.687 0,-0.69 3.581,-0.472 8.143,1.059 10.01,3.451 l 1.726,0 c 1.088,1.348 2.928,3.14 2.071,4.487 -1.588,-0.022 -2.241,-0.981 -3.452,-1.38 -0.813,0.095 0.032,1.286 0.346,1.38 -0.598,1.12 -0.904,-0.896 -2.071,-0.346 0.253,0.323 0.628,0.523 1.035,0.69 -0.507,0.938 -1.695,0.141 -2.07,1.726 -0.125,0.605 1.123,0.185 1.38,0.69 0.314,0.616 -0.686,0.704 -0.69,0.69 0.511,1.904 4.642,1.987 4.487,4.833 -1.558,-1.319 -2.96,-2.792 -4.831,-3.797 0.445,1.396 1.898,1.785 2.761,2.762 -1.073,0.484 -2.58,-1.554 -3.798,-2.072 -0.756,1.312 0.693,1.311 0.691,2.762 -0.896,-0.372 -1.283,-1.248 -2.415,-1.381 -0.899,2.25 3.127,2.332 3.104,4.833 0.74,-0.745 1.93,-0.177 2.417,0.345 0.833,-0.893 1.213,-2.239 2.762,-2.416 1.134,0.016 0.826,1.476 2.07,1.381 1.321,-1.01 -1.551,-2.556 -0.345,-3.452 1.181,0.005 -0.048,0.897 1.381,1.036 0.645,-1.047 0.407,-0.834 1.725,-1.036 -0.151,-0.999 -0.728,-1.574 -1.725,-1.726 1.771,-0.727 3.255,1.8 4.142,3.106 1.409,-0.887 2.59,0.962 3.45,1.726 0.016,-1.856 -1.639,-2.043 -2.069,-3.452 1.241,0.598 2.018,1.663 3.106,2.416 0.197,-1.357 -2.593,-2.694 -3.451,-4.143 1.16,-0.8 1.646,2.023 3.106,2.072 -0.181,-1.859 -0.29,-3.266 -1.726,-5.523 2.306,-0.004 1.917,2.684 3.795,3.107 0.663,-0.685 -1.181,-1.793 -1.725,-2.417 -0.297,-1.101 0.543,-1.067 0.69,-1.725 -0.992,-0.503 -0.885,-2.108 -2.416,-2.071 1.878,-1.791 3.195,2.41 4.831,3.106 -0.47,1.523 1.001,1.505 1.382,2.071 0.172,0.256 -0.508,2.041 1.035,1.38 1.275,-0.718 -1.05,-1.455 0,-2.071 1.318,1.558 3,2.753 3.45,5.178 l 1.381,0 c 0.423,1.772 0.882,3.677 0.691,5.522 l 1.381,0 c 1.629,-2.627 -0.455,-5.17 -1.035,-7.593 0.703,0.101 0.677,0.934 1.381,1.035 0.639,-0.55 -0.53,-2.213 -2.072,-1.726 -0.378,-2.959 -2.793,-3.879 -3.451,-6.559 1.4,0.326 1.85,1.604 3.105,2.071 -0.831,-1.699 -1.649,-3.413 -3.105,-4.487 0.403,-2.598 -0.387,-2.808 -1.381,-4.833 1.565,0.85 2.259,2.573 3.797,3.452 0.933,-0.624 -1.007,-1.266 -0.345,-2.761 2.825,3.618 5.162,7.724 7.248,12.081 1.483,-1.924 -1.378,-3.989 -1.727,-6.213 1.087,-0.395 0.839,0.542 1.381,0.69 -0.361,-1.364 -1.42,-2.03 -1.381,-3.796 -1.42,-0.846 -0.532,-1.917 -2.069,-2.416 1.001,-0.754 2.1,1.338 2.761,2.071 0.474,-1.862 -1.831,-3.916 -3.106,-5.177 0.973,-0.02 1.766,-0.859 3.106,-0.345 -0.94,1.367 0.817,2.491 1.381,3.452 0.952,-0.976 -1.416,-1.558 -1.036,-3.106 0.73,1.822 3.138,-0.103 2.762,1.726 1.721,-0.917 -0.457,-2.67 -1.037,-3.453 0.566,-0.204 2.119,1.553 2.418,2.763 0.559,0.096 0.595,-0.327 1.035,-0.346 -1.338,-2.229 -2.618,-4.516 -4.833,-5.868 -0.008,-1.044 -1.461,-1.992 0.346,-2.071 0.063,0.293 -0.135,0.326 -0.346,0.345 -0.577,0.488 1.448,1.294 2.417,1.381 0.252,-2.213 -4.642,-2.259 -4.487,-5.523 3.243,1.475 6.291,3.144 7.248,6.903 0.193,0.497 0.538,0.842 1.036,1.035 0.438,3.59 1.984,6.069 3.453,8.629 0.249,2.511 0.106,5.416 2.069,6.213 -0.067,-5.918 -3.193,-11.764 -5.178,-16.913 1.035,0.459 1.168,1.824 2.07,2.416 0.542,-0.285 -0.591,-3.051 0,-3.452 1.013,1.059 1.271,2.871 2.418,3.796 0.106,-2.411 -1.631,-5.959 -3.107,-7.938 1.298,-0.368 2.817,2.008 3.107,3.797 1.055,-0.25 1.014,0.596 2.07,0.345 -0.682,-1.16 -0.849,-2.835 -2.417,-3.106 1.714,-1.19 -1.109,-2.437 -2.071,-3.107 2.056,-0.211 -1.337,-2.312 -0.343,-3.451 -2.716,-2.924 -5.494,-5.782 -7.94,-8.974 4.461,3.249 9.702,8.707 12.771,14.496 2.492,0.894 1.117,3.842 2.761,5.178 -1.14,0.553 -0.196,1.045 -0.346,2.416 1.065,0.258 0.422,-1.19 1.726,-0.69 -0.679,-1.709 0.262,-2.059 0.691,-3.452 0.871,0.51 1.426,1.335 1.727,2.416 0.584,-1.058 -0.633,-3.27 -1.381,-4.142 -0.341,-5.216 -2.156,-6.826 -4.833,-9.664 -0.165,2.011 2.679,3.989 3.106,6.558 -1.403,-1.011 -2.224,-2.607 -4.142,-3.106 -0.692,-3.796 -4.677,-4.297 -4.833,-8.629 2.313,1.023 3.122,3.551 5.177,4.832 -0.228,-3.522 -5.82,-5.507 -6.212,-8.975 -0.669,-0.136 -0.504,1.572 0.345,1.036 -1.715,0.001 -3.006,-2.106 -3.796,-3.452 C 103.484,12.631 97.134,9.217 93.199,5.814 92.643,5.333 91.512,5.376 90.783,4.779 91.618,3.62 93.318,5.512 94.58,6.16 c 2.674,1.372 5,2.775 7.249,4.486 0.435,0.332 1.377,0.384 1.726,0.691 2.345,2.071 3.626,5.037 6.212,6.212 1.913,3.166 5.348,5.593 7.939,8.974 2.276,2.971 3.308,6.151 5.522,9.665 l 0,1.726 c 2.206,2.337 2.218,6.431 3.106,10.355 0.672,2.96 2.613,5.963 2.762,10.01 0.021,0.591 -0.189,0.648 -0.689,0.69 -0.26,1.18 1.401,0.439 1.034,1.726 -1.312,-0.133 -1.646,-0.19 -2.071,-1.726 -0.537,-1.227 1.172,-0.208 1.037,-1.035 -1.85,0.418 -0.582,-3.898 -2.072,-4.833 -0.788,1.571 -0.006,2.54 0,4.142 -0.787,-0.097 -1.298,0.083 -1.381,0.69 0.421,1.042 1.38,-0.183 1.381,-0.69 0.984,0.463 0.011,1.812 -0.689,1.726 0.088,0.717 1.515,0.095 1.725,0.69 -0.143,1.302 -1.355,4.21 0,4.833 -0.787,1.195 -1.076,2.256 -0.346,3.452 -0.405,0.514 -0.865,0.974 -1.379,1.38 2.006,-0.494 0.346,3.141 -1.383,1.726 -2.441,2.648 -2.202,6.131 -4.484,7.594 0.035,0.859 0.646,1.069 0,1.727 1.346,-0.033 1.365,-1.395 2.069,-2.072 -0.036,2.055 -2.013,4.047 -2.761,6.559 -1.022,3.431 -2.34,6.824 -4.834,8.975 1.187,2.578 -1.521,3.595 -3.104,4.487 0.439,1.705 -0.871,1.662 -1.728,2.071 0.153,0.308 0.302,0.618 0.69,0.69 -0.052,0.639 -1.169,0.211 -1.381,0.689 0.567,1.498 -2.438,2.318 -0.69,4.143 -2.026,-0.742 -0.772,1.648 -2.417,2.417 -0.965,-0.34 0.502,-0.922 -0.344,-1.382 -0.827,-0.137 0.19,1.572 -1.037,1.035 0.246,-1.137 0.556,-2.206 0.692,-3.451 -2.202,-0.016 -0.739,3.633 -2.762,3.798 -1.323,0.062 -0.125,-0.284 -0.345,-1.036 -1.315,0.181 -0.96,2.032 -1.036,3.451 -3.003,-2.58 0.684,-6.117 0,-8.975 -1.476,0.596 -1.56,2.584 -1.726,4.488 -1.154,-2.988 -1.228,-7.057 -2.762,-9.664 1.465,-0.377 0.973,-2.711 1.035,-4.488 -1.562,-0.528 0.183,2.253 -1.38,1.726 -0.701,-9.996 -3.514,-22.337 -12.426,-23.816 -6.655,-1.104 -12.161,2.352 -14.497,7.593 -0.308,0.269 -0.779,0.372 -1.38,0.346 0.512,1.068 -0.103,1.901 -0.691,2.761 -0.767,0.19 -0.492,-0.66 -1.036,-0.69 -0.279,0.065 -0.344,0.346 -0.688,0.346 -0.602,1.751 1.497,0.802 1.381,2.071 -2.295,-0.914 0.118,2.657 -2.418,3.451 -1.724,-0.65 -4.712,-1.237 -6.558,-0.69 -1.437,-0.938 0.143,-2.921 -2.071,-2.761 C 54.596,76.632 52.14,72.3 47.636,70.017 c 0.338,-0.967 0.92,0.502 1.381,-0.346 -0.942,-1.034 -1.48,-0.339 -3.106,-0.69 -1.132,-0.594 -1.512,-1.94 -2.762,-2.416 4.348,-0.893 7.082,2.812 11.391,3.106 -0.508,-1.449 -2.99,-0.921 -3.106,-2.761 -3.19,-0.769 -6.533,-0.105 -8.284,-2.761 1.18,-0.287 1.607,0.046 3.106,-0.346 -0.908,-0.458 -0.864,-1.335 0.69,-1.035 -1.06,-1.012 -3.383,-0.761 -3.797,-2.417 1.304,1.081 3.63,-0.222 5.178,1.036 -0.107,0.468 -0.864,0.286 -1.381,0.345 1.993,2.38 6.843,1.902 8.283,4.833 1.29,-0.369 0.985,0.857 2.071,0.69 -1.36,-2.55 -4.18,-3.645 -7.248,-4.487 0.645,-1.162 4.219,0.845 3.796,-0.346 2.391,-0.598 3.688,2.125 5.869,1.727 -1.227,-2.226 -4.597,-2.308 -5.869,-4.488 0.85,0.647 1.913,1.08 2.764,1.727 0.672,-1.599 -2.895,-1.621 -3.798,-2.762 0.113,1.391 -1.145,0.992 -2.416,0.345 0.057,-0.404 0.629,-0.291 1.035,-0.345 -1.382,-1.379 -4.13,-1.393 -6.214,-2.07 -0.167,2.008 3.221,0.461 3.107,2.416 -2.368,-0.738 -5.636,-0.577 -6.213,-3.106 0.787,0.096 1.297,-0.084 1.381,-0.691 -0.754,-0.973 -2.251,-1.201 -3.106,-2.071 0.272,-0.875 1.206,0.971 1.726,0 -0.818,-1.368 -2.323,-2.05 -3.451,-3.106 0.425,-1.049 1.186,0.375 2.07,0 -0.957,-2.167 -3.952,-0.174 -4.832,-2.416 0.751,0.261 2.43,1.357 2.762,0 -1.373,-1.19 -3.468,-0.754 -4.487,-1.725 0.094,0.089 0.6,-1.564 -0.69,-1.382 0.325,-0.633 1.74,0.533 2.762,0.346 -0.298,-1.067 -1.172,-1.029 0.688,-1.036 -0.605,-1.614 -2.841,0.126 -3.795,-0.69 1.123,-1.461 -1.085,-1.977 -2.072,-2.416 -0.849,-0.291 1.931,0.153 2.761,-0.345 -0.083,0.375 -0.685,0.234 -0.688,0.69 0.106,0.468 0.863,0.286 1.38,0.345 0.149,-1.62 2.146,-0.624 2.762,-1.036 -2.079,-0.914 -4.974,-1.009 -7.595,-1.381 -0.277,-1.544 0.616,-1.917 1.727,-2.071 -0.605,-1.021 -1.839,0.199 -2.761,0 1.122,-1.064 1.95,-2.422 3.106,-3.452 -0.472,-1.04 -3.451,2.343 -2.762,0.345 -2.265,1.187 -3.776,3.128 -6.559,3.797 -1.601,-0.345 -2.979,-0.776 -4.487,-0.345 1.227,-1.306 3.645,-1.418 4.487,-3.106 -0.425,0.386 -0.709,0.301 -0.689,-0.346 -1.863,0.783 -3.395,1.898 -4.834,3.107 0.443,-1.748 3.723,-3.638 5.179,-5.522 -1.337,0.274 -2.463,0.758 -3.106,1.726 -0.049,-1.747 -0.57,-0.015 -2.072,0.345 1.358,-2.668 4.079,-3.975 5.523,-6.558 -2.324,0.897 -3.878,2.565 -5.523,4.142 -0.06,-2.362 1.011,-3.547 2.417,-5.178 -0.92,-1.243 -0.731,-2.842 0.345,-3.796 -1.102,-1.029 -1.954,2.503 -1.726,2.761 -1.806,2.221 -2.671,5.384 -3.45,8.629 -1.681,2.269 -2.878,5.468 -3.798,9.319 C 8.254,46.93 7.835,52.475 7.255,57.591 6.926,60.492 6.188,63.343 6.564,66.22 7.172,70.853 10.192,74.262 8.981,80.027 8.595,81.86 7.375,84.355 6.564,85.895 5.13,88.623 2.939,91.462 0.353,93.834 1.65,90.209 5.95,86.481 7.255,81.753 8.616,76.825 6.058,72.232 5.528,67.256 5.017,62.45 5.551,57.39 6.219,52.759 c 0.59,-4.096 1.879,-8.949 3.45,-12.081 0.797,-1.586 1.074,-2.717 1.727,-4.487 0.231,-0.631 1.107,-1.346 1.38,-2.071 0.407,-1.078 0.23,-2.354 0.691,-3.451 0.954,-2.284 2.745,-3.923 3.45,-6.904 -0.003,-0.685 -0.94,-0.439 -0.688,-1.38 1.589,-3.508 2.588,-5.733 5.177,-8.283 0.479,-0.475 0.786,-1.209 1.035,-1.38 1.711,-1.18 3.653,-0.902 5.178,-2.417 -1.084,-1.282 -1.034,1.473 -2.761,0.69 0.761,-1.306 1.121,-2.927 2.069,-3.797 3.61,-3.304 10.825,-1.677 15.188,-4.142 10.924,-1.688 21.084,-3.851 33.48,-2.761 -2.543,0.68 -6.414,0.028 -7.249,2.416 -3.055,-0.179 -5.555,0.197 -8.283,0.345 -0.349,1.038 0.771,0.612 1.381,0.69 C 53.877,5.782 44.361,6.609 35.541,6.171 34.726,6.129 33.939,5.748 33.127,5.481 31.063,6.177 29.293,7.17 27.604,8.242 c 0.049,0.783 1.296,2.119 2.07,1.035 0.379,0.853 -2.212,1.689 -2.415,3.106 z m 1.034,2.761 c -0.953,0.197 -1.935,0.366 -1.726,1.726 0.999,-0.152 1.575,-0.727 1.726,-1.726 z m 48.669,26.578 0,-0.69 -0.689,0 0,0.69 0.689,0 z M 118.74,29.288 c -0.116,-0.278 -0.915,-0.416 -1.035,0 -0.23,0.801 1.35,0.746 1.04,0 z m -49.018,1.726 c 0.83,-0.829 -1.132,-0.894 -1.035,-0.345 -0.005,-0.024 1.168,0.212 1.035,0.345 z m -2.416,-0.345 c -2.211,-0.398 -0.758,1.055 0,0 z M 32.1,32.395 c 1.457,-0.315 1.968,-0.297 4.143,-0.345 -0.384,-1.455 -3.72,-0.406 -4.143,0.345 z m 54.536,0 c -1.065,-0.104 -2.366,-1.752 -3.451,-0.69 0.996,0.17 2.599,1.518 3.451,0.69 z m -40.73,1.38 c 1.1,-0.294 1.311,0.301 1.726,0.69 0.039,-0.651 1.141,-0.239 1.035,-1.035 -0.739,0.094 -3.683,-0.267 -2.761,0.345 z m -24.852,3.107 c 1.375,-0.351 2.407,-1.045 3.107,-2.071 -1.194,0.533 -2.846,0.605 -3.107,2.071 z m 15.877,0.345 c 0.16,-1.078 -0.736,-1.104 -1.726,-1.036 -0.049,0.971 0.846,0.996 1.726,1.036 z m 33.828,-0.345 c -0.443,-0.019 -0.479,-0.442 -1.037,-0.346 -0.537,0.85 1.173,1.016 1.037,0.346 z m 44.871,4.142 c 0.609,0.958 0.253,0.977 0.691,1.726 0.301,-0.505 0.518,-1.094 1.381,-1.035 -0.243,-1.598 -0.894,-2.788 -2.072,-3.452 -0.033,1.646 1.333,1.89 1.383,3.452 -0.94,0.25 -0.69,-0.687 -1.38,-0.691 z m -78.699,1.38 c -3.212,-1.387 -2.457,1.431 0,0 z m 84.569,3.453 c -0.139,0.664 -1.336,0.272 -1.034,1.38 0.606,0.544 0.717,1.584 1.727,1.725 -0.446,-1.711 0.835,-1.696 0.688,-3.105 -1.347,-0.148 -1.669,-1.322 -2.761,-1.727 -0.18,1.202 0.85,1.206 1.37,1.727 z m -2.42,0 c 0.399,0.84 1.627,-0.386 0.691,-0.692 0,0.457 -0.6,0.316 -0.69,0.692 z m -81.114,0 c -0.613,0.206 -1.433,-1.012 -1.724,0 0.209,0.198 1.637,0.807 1.724,0 z m 30.375,1.38 c 1.007,0.506 1.007,-1.543 0,-1.036 l 0,1.036 z m 51.779,3.106 c 0.06,-0.402 0.547,-0.375 1.037,-0.345 l 0,-1.036 c -0.602,0.026 -1.075,-0.078 -1.38,-0.345 0.58,0.882 -0.4,1.209 0.34,1.726 z m -14.85,2.416 c 0.718,-0.97 -0.732,-2.078 -1.726,-2.416 0.22,1.169 0.1,2.666 1.73,2.416 z m 13.12,4.142 c 0.359,-1.581 -0.087,-3.611 -1.725,-4.142 0.52,1.436 0.23,3.688 1.73,4.142 z m -21.055,-2.07 c -0.441,-0.019 -0.478,-0.443 -1.035,-0.345 -0.536,0.848 1.174,1.014 1.035,0.345 z m -34.861,1.726 1.035,0 c 0.045,-0.621 -0.342,-0.809 -1.035,-0.69 l 0,0.69 z m 55.916,2.415 0.691,0 c 0.537,-0.849 -1.174,-1.015 -1.036,-0.345 0.22,0.019 0.42,0.051 0.35,0.345 z m -13.46,2.417 c 1.819,1.466 0.03,4.622 2.415,5.522 1.214,-1.986 -1.286,-4.104 -0.346,-5.868 -1.04,0.135 -1.75,-0.907 -2.06,0.346 z m 13.81,0.69 c 0.93,-0.023 1.659,-0.79 1.037,-1.381 -0.92,-0.104 -1.14,0.478 -1.04,1.381 z m -14.16,1.381 c -0.02,0.44 -0.442,0.478 -0.347,1.035 1.161,0.354 0.539,-1.073 0.692,-1.726 l -1.036,0 c 0.05,0.421 0.12,0.818 0.7,0.691 z m 10.01,0.344 0.69,0 c -0.001,-0.346 0.279,-0.41 0.344,-0.689 -0.44,-0.02 -0.478,-0.442 -1.034,-0.345 l 0,1.034 z m -21.742,0.691 c 0.21,0.199 1.638,0.808 1.727,0 -0.704,-0.217 -0.098,-1.744 -1.381,-1.38 0.025,0.601 -0.078,1.073 -0.346,1.38 z m 28.302,0.691 c -0.639,-0.792 -2.035,1.525 -1.727,-1.036 -1.615,-0.234 -0.536,2.225 -2.071,2.071 0.475,1.162 0.643,4.788 -1.035,3.797 0.455,0.811 0.963,1.569 0.691,3.107 -0.515,-0.544 -1.543,-0.385 -1.383,0.69 2.12,-0.799 1.92,1.241 4.487,1.381 0.309,-1.937 0.849,-2.945 0.346,-4.488 -1.083,-0.17 -0.911,1.189 -1.726,0.345 0.598,-0.209 -0.026,-1.637 0.69,-1.726 0.544,0.031 0.27,0.88 1.035,0.69 1.381,-0.694 0.479,-1.879 -0.346,-1.726 1.61,0.219 0.88,-1.886 1.04,-3.105 z m -70.756,0.345 c -1.282,0.226 -2.371,-1.515 -3.452,-0.345 2.27,0.542 5.29,2.004 6.902,2.071 0.046,-2.008 -2.615,-3.126 -4.141,-2.416 0.42,0.038 0.817,0.102 0.691,0.69 z m 64.886,0.69 c 0.076,-0.269 0.29,-0.401 0.69,-0.345 l 0,-0.69 c -0.442,-0.019 -0.479,-0.442 -1.036,-0.345 0.07,0.515 -0.11,1.273 0.35,1.38 z m -53.842,-0.345 0.689,0 c 0.538,-0.85 -1.171,-1.016 -1.035,-0.345 0.211,0.019 0.409,0.052 0.346,0.345 z m 43.832,4.832 c 0.294,-0.289 0.945,-2.697 -0.345,-2.417 -1.02,0.492 -0.76,2.245 0.35,2.417 z m -1.03,-3.452 c 0.074,0.387 0.385,0.537 0.692,0.69 0.859,-0.945 0.138,-1.472 0.688,-2.416 -1.925,-0.546 -0.706,2.055 -2.761,1.38 0.12,1.256 -0.18,1.716 0,4.142 3.06,0.186 -0.67,-2.964 1.38,-3.796 z m 2.42,1.726 1.035,0 c 0.097,-0.787 -0.083,-1.297 -0.691,-1.38 -0.12,0.466 -0.5,0.659 -0.35,1.38 z m 17.94,-0.69 0.69,0 0,-0.69 -0.69,0 0,0.69 z m -76.968,0 c -1.397,-1.214 -0.815,1.11 0,0 z m 53.848,11.735 c 0.11,1.469 -1.183,3.199 0.691,3.797 1.174,-0.739 -0.378,-2.06 1.381,-2.071 0.539,0.582 -0.416,1.551 0.688,2.071 0.035,-0.543 -0.045,-1.197 0.692,-1.036 0.149,-2.042 -0.2,-5.373 0,-7.249 0.056,-0.536 1.176,-1.557 0,-1.38 -2.544,-0.197 0.205,5.741 -1.727,7.248 -0.87,-4.29 -1.126,-8.936 -1.38,-12.426 -0.654,0.077 -0.762,-0.389 -1.381,-0.345 0.08,3.631 0.79,8.026 1.04,11.391 z M 107,70.018 c 1.304,1.511 1.554,1.933 1.727,4.488 -1.178,0.141 -0.438,0.931 -1.727,0.344 l 0,3.451 c -0.901,-0.096 -1.484,0.127 -1.381,1.036 0.866,-0.043 1.082,-0.659 1.381,0.345 -0.701,0.103 -0.918,0.692 -1.381,1.036 0.576,0.576 -0.219,2.52 1.037,2.417 -0.721,-1.547 0.42,-2.04 1.38,-2.072 -0.364,-0.018 -0.271,-0.442 0.346,-0.344 0.728,-1.574 -0.089,-4.692 1.726,-5.178 -0.71,1.591 -0.484,4.117 -1.035,5.868 l 0.689,0 c 0.02,0.211 0.052,0.409 0.346,0.346 0.955,-2.965 1.373,-5.558 1.38,-10.009 -1.322,0.517 -1.35,2.331 -2.07,3.452 -0.189,-2.477 1.212,-5.35 -0.69,-5.869 0.23,1.763 -0.56,0.343 -1.74,0.689 z m 16.91,0.69 c 1.157,0.236 1.262,-0.579 1.381,-1.381 -1.08,-0.161 -0.97,0.868 -1.38,1.381 z m -25.54,3.107 c 1.118,-0.427 0.264,1.116 1.382,0.69 -0.106,-1.16 0.461,-2.993 -1.036,-2.761 0.008,0.812 -0.595,1.016 -0.346,2.071 z m 14.5,0 c -0.002,0.004 -0.693,1.817 -0.688,1.725 -0.029,0.589 0.749,1.021 0.688,1.38 -0.027,0.173 -0.995,0.246 -1.034,0.346 -0.627,1.592 0.985,4.388 2.762,4.142 0.765,-2.624 0.968,-4.018 1.726,-6.902 -1.855,-0.361 -1.326,1.665 -3.106,1.38 0.79,-0.705 0.702,-2.288 1.381,-3.106 -0.5,-0.014 -1.47,0.601 -1.73,1.035 z m -47.29,1.035 0.691,0 0,-0.69 -0.691,0 0,0.69 z m 32.79,1.035 c 0.311,-0.054 0.178,-1.908 -0.344,-0.689 -0.088,0.205 0.141,0.725 0.344,0.689 z m 18.98,2.072 c 1.256,0.22 1.356,-0.715 1.381,-1.726 -0.97,0.064 -1.47,0.6 -1.38,1.726 z m -18.98,0 c 1.555,-0.241 0.924,0.709 0.346,1.035 0.517,-0.059 1.273,0.124 1.38,-0.345 -0.511,-0.063 -0.315,-0.834 -0.344,-1.38 -0.792,-0.098 -1.302,0.082 -1.386,0.69 z m -37.967,5.522 c -0.06,-0.516 0.124,-1.274 -0.346,-1.381 -0.448,0.459 -0.454,1.285 0.346,1.381 z m 45.217,1.035 c 0.595,0.019 0.885,-0.266 1.037,-0.69 -0.55,0.033 -1.2,-0.046 -1.04,0.69 z m -3.45,0.345 0.689,0 0,-0.69 -0.689,0 0,0.69 z m 3.79,4.143 c 1.511,-0.165 2.745,-4.726 1.034,-4.833 -0.75,1.909 -0.44,2.756 -1.03,4.833 z m 5.18,0 c 0.075,-0.27 0.287,-0.402 0.688,-0.346 -0.285,-1.239 0.778,-1.67 0,-2.416 -1.26,-0.13 -1.93,2.497 -0.69,2.762 z m -2.41,9.665 c -0.046,-1.555 1.524,-3.293 1.035,-4.142 -0.251,1.273 -1.038,-0.147 -1.726,0.69 0.576,2.301 -1.216,2.236 -2.07,3.106 0.074,-1.954 1.456,-4.78 1.726,-6.903 -1.847,0.172 -1.161,-0.874 -1.035,-2.071 -1.444,0.452 -1.676,2.985 -1.381,4.143 -2.075,3.562 -2.737,8.539 -3.798,13.116 1.293,0.146 0.527,-1.231 0.691,-1.726 0.782,-2.369 1.989,-5.051 2.762,-7.248 0.03,1.593 2.49,1.102 3.8,1.035 z m -5.18,-4.488 c 0.032,-0.612 1.419,-2.529 0,-2.416 0.47,1.091 -0.86,2.083 0,2.416 z m 10.01,0 c 0.108,-0.466 0.492,-0.659 0.347,-1.38 -1.18,-0.26 -1.35,1.318 -0.35,1.38 z m -12.08,2.761 c 0.245,-0.254 0.861,-1.69 -0.344,-1.381 0.05,0.517 -0.13,1.274 0.34,1.381 z m -2.764,0.346 c 0.91,0.104 1.134,-0.479 1.036,-1.38 -0.91,-0.105 -1.134,0.477 -1.036,1.38 z m 3.104,1.035 c 1.36,0.441 0.896,-0.945 1.38,-1.381 l -1.035,0 c 0.03,0.602 -0.07,1.074 -0.34,1.381 z m -0.34,2.419 c 1.042,0.533 0.909,-1.785 0.347,-1.725 -0.3,0.397 -0.46,0.921 -0.35,1.725 z m 3.1,0 c 1,-2.003 -0.85,-0.911 0,0 z"
           id="path3507" />
        <path
           inkscape:connector-curvature="0"
           d="m 59.713,8.578 c 0.037,2.225 -3.815,0.559 -4.488,2.071 1.299,1.332 4.157,-0.363 6.559,0.346 -1.589,1.057 -4.266,1.026 -6.213,1.727 1.168,1.572 -2.618,1.211 -3.107,1.035 0.739,2.566 4.218,-0.683 5.869,0.69 -0.085,0.375 -0.687,0.234 -0.69,0.69 0.939,0.216 1.776,1.573 2.762,0.69 0.309,-1.115 -1.127,-0.484 -1.381,-1.035 6.092,-0.808 13.393,-1.709 20.365,-1.727 -1.112,-2.174 -4.411,-0.252 -6.904,-0.69 0.671,-1.159 4.381,-0.769 5.178,-0.69 C 76.309,9.931 72.447,10.688 70.069,9.958 70.59,7.603 74.989,9.126 76.283,7.542 73.118,6.683 68.544,7.394 65.238,7.542 67.173,6.949 67.032,6.81 64.547,6.852 65.542,4.856 69.727,6.05 71.795,5.126 70.745,3.742 68.778,5.4 67.999,3.746 69.168,3.425 71.357,3.863 73.176,3.4 74.055,2.784 73.543,2.467 74.556,1.675 79.537,0.847 85.843,1.58 87.674,3.746 c -0.67,0.888 -4.136,-1.683 -4.487,0 1.644,-0.235 3.928,1.018 3.451,2.417 0.618,0.043 0.729,-0.423 1.381,-0.346 0.646,2.229 2.825,2.927 4.831,3.797 -0.224,0.352 -0.794,0.357 -0.689,1.035 -1.636,-0.205 -2.72,-0.961 -4.142,-1.381 -0.221,0.754 0.978,1.099 -0.345,1.036 0.472,1.137 1.946,1.275 3.105,1.725 -2.307,-0.379 -7.125,-0.587 -10.355,0.692 7.31,1.812 13.076,2.403 17.948,6.557 0.355,0.302 0.597,1.319 1.037,1.726 2.353,2.182 5.057,5.138 7.248,7.939 -1.82,-0.041 -2.658,-1.968 -3.798,-3.107 -5.635,-5.636 -12.917,-11.08 -23.47,-12.425 -0.657,0.147 -0.868,0.744 -1.727,0.69 2.019,1.662 6.378,0.985 7.938,3.106 3.279,-0.058 3.789,2.656 6.56,3.106 -1.048,1.16 -3.538,-1.586 -5.522,-1.726 -0.112,1.146 1.695,0.375 1.036,2.071 -1.378,-0.762 -2.47,0.099 -4.143,0 -0.204,0.735 2.062,1.253 1.726,0 3.868,1.194 6.772,3.352 10.354,4.833 -3.036,0.043 -6.853,-2.118 -9.317,-3.797 -0.997,1.239 -3.1,-0.265 -4.834,-0.345 -0.573,0.921 -1.714,1.277 -3.45,1.035 0.637,0.513 1.64,0.662 2.762,0.69 -2.252,0.748 -0.3,0.453 0.688,1.381 1.368,-0.106 -0.386,-1.199 1.037,-1.035 0.646,0.657 0.036,0.867 0,1.725 -1.376,-0.234 -2.471,-0.752 -4.144,-0.69 -2.81,2.268 -5.825,-0.334 -9.318,0.69 0.004,-0.686 0.94,-0.439 0.689,-1.381 -1.179,0.222 -2.015,0.54 -1.381,1.727 -2.304,0.233 -4.305,0.927 -6.213,1.725 -1.667,0.699 -3.667,1.427 -4.832,2.762 -1.617,-0.491 -2.181,-0.039 -3.796,0.69 -3.234,-1.713 -8.764,-1.132 -12.771,-2.071 0.056,-0.405 0.631,-0.292 1.035,-0.345 -0.343,-1.154 -2.702,-0.29 -3.452,-1.036 0.149,-0.772 1.701,-0.14 2.417,-0.344 -0.774,-0.837 -2.466,-0.757 -2.763,-2.071 0.8,0.951 1.146,0.213 2.763,0.345 -0.521,-1.036 -0.611,-1.694 0,-2.416 -0.979,-0.516 -2.496,-0.495 -3.451,-1.036 0.296,-0.854 2.402,0.102 2.761,-0.69 -1.042,-0.744 -1.042,-0.292 0,-1.035 -0.043,-0.763 -1.465,-0.146 -2.072,-0.346 0.567,-0.698 2.068,-0.464 2.418,-1.38 -2.253,-0.953 -6.471,0.173 -8.975,1.035 0.383,-2.724 2.806,-3.407 5.177,-4.142 -0.055,0.402 0.077,0.614 0.345,0.69 3.637,-0.304 7.32,0.616 9.665,-0.345 -2.329,-0.777 -5.27,-0.943 -8.284,-1.035 -1.115,-0.398 0.928,-0.391 1.382,-0.345 0.23,-1.497 -1.602,-0.93 -2.763,-1.036 -0.104,-0.91 0.722,-0.891 1.381,-1.036 -0.05,-0.754 -0.869,-0.741 -1.726,-0.689 0.294,-0.513 0.869,-0.743 1.726,-0.691 C 38.419,9.742 36.977,10.378 37.281,9.268 39.079,8.19 42.635,8.87 43.838,7.198 48.365,7.887 50.759,5.945 56.611,6.853 56.674,6.56 56.475,6.527 56.264,6.508 c 0.473,0.156 2.12,0.036 2.762,0.69 0.167,0.175 -0.821,2.588 0.686,1.38 z m -5.524,0 2.418,0 c 0.08,-1.453 -2.134,-0.362 -2.418,0 z m -6.211,6.214 c 0.789,1.016 3.438,0.948 4.485,0.689 -0.521,-0.743 -0.839,-1.69 -1.724,-2.07 -0.273,1.865 -1.737,0.634 -2.761,1.381 z m 25.196,0 c 0.002,0.346 -0.279,0.411 -0.346,0.689 0.542,-0.033 1.196,0.047 1.037,-0.689 l -0.691,0 z m 1.726,1.035 c 0.818,-0.216 1.605,-0.464 1.726,-1.38 -0.344,-0.302 -2.988,-0.961 -2.761,0.346 0.322,0.366 1.273,0.106 1.035,1.034 z m 2.415,0 c 0.787,0.097 1.299,-0.083 1.381,-0.69 -0.61,0.078 -1.729,-0.348 -1.381,0.69 z m -41.073,1.035 c 1.257,-0.106 2.246,0.055 3.106,0.345 0.168,-1.749 -2.635,-0.972 -3.106,-0.345 z m 23.816,6.903 c 3.788,1.032 7.332,-0.87 10.354,-1.725 -1.124,-1.338 -0.081,-1.055 1.036,-1.726 -1.784,0.058 -2.811,-0.641 -3.796,-1.381 1.731,-0.224 4.362,0.452 5.521,-0.345 -4.15,-2.022 -7.868,0.066 -12.081,-1.036 0.501,1.577 -1.887,1 -2.416,2.417 1.429,0.484 2.666,-0.984 3.451,0 -0.596,0.554 -2.134,0.167 -2.415,1.035 0.516,0.059 1.273,-0.124 1.38,0.345 -0.44,0.481 -1.691,0.15 -1.725,1.035 1.854,0.517 3.549,-0.16 4.831,0.346 -1.626,0.1 -2.876,0.576 -4.14,1.035 z m 20.711,-2.761 c 1.393,0.473 1.222,-0.619 1.726,-1.035 0.863,0.042 1.08,0.659 1.381,-0.346 -1.335,0.185 -1.685,-0.615 -3.106,-0.345 -10e-4,0.576 -10e-4,1.151 -10e-4,1.726 z M 57.642,22.04 c 0.004,-0.686 0.941,-0.439 0.69,-1.381 -0.765,-0.255 -1.422,1.272 -0.69,1.381 z m 12.425,2.07 c 0.517,-0.058 1.273,0.124 1.381,-0.345 -0.458,-0.447 -1.284,-0.455 -1.381,0.345 z m -7.593,1.382 c 1.392,0.011 2.662,-0.099 3.106,-1.036 -1.108,0.323 -2.13,-0.012 -3.106,1.036 z"
           id="path3509" />
        <path
           inkscape:connector-curvature="0"
           d="m 85.945,23.075 c 3.494,1.108 6.52,2.685 9.663,4.142 -0.063,0.392 -0.345,0.191 -0.344,0 -2.882,-0.373 -5.083,-1.63 -7.248,-2.761 -0.786,-0.41 -1.878,-0.414 -2.071,-1.381 z"
           id="path3511" />
        <path
           inkscape:connector-curvature="0"
           d="m 99.062,29.634 c -0.865,-0.06 -0.839,0.773 -1.381,1.036 -1.682,-0.525 0.753,-3.035 -1.726,-2.762 1.517,-1.229 2.699,0.949 3.797,1.727 2.131,1.51 4.595,2.607 5.866,5.177 -2.46,-1.455 -4.07,-3.758 -6.558,-5.178 z"
           id="path3513" />
        <path
           inkscape:connector-curvature="0"
           d="m 28.648,37.572 c -0.591,0.56 -1.258,1.045 -2.416,1.035 -0.106,-1.254 1.84,-0.461 2.416,-1.035 z"
           id="path3515" />
        <path
           inkscape:connector-curvature="0"
           d="m 107.69,39.643 c 0.607,-0.916 1.222,1.052 1.726,1.381 -0.62,0.924 -0.94,-1.341 -1.73,-1.381 z"
           id="path3517" />
        <path
           inkscape:connector-curvature="0"
           d="m 16.223,74.16 c 1.206,1.554 0.688,4.833 2.416,5.868 2.88,0.572 5.56,1.342 6.903,3.452 2.167,0.478 4.544,0.747 4.832,3.106 -2.49,-0.731 -4.941,-1.503 -7.248,-2.416 -1.301,1.273 1.768,1.709 0.688,2.761 -2.235,0.05 -3.041,-1.331 -3.45,-3.106 -2.482,-0.349 -3.709,-0.4 -5.867,-0.345 -0.082,-1.575 1.896,-1.094 2.761,-1.726 0.606,-0.314 0.631,-1.21 1.034,-1.726 -1.964,-0.515 -2.822,-3.764 -2.069,-5.868 z m 2.416,6.213 c 0.076,0.652 -0.39,0.76 -0.347,1.38 2.203,-0.009 4.559,1.646 6.214,1.035 -2.341,-0.421 -3.098,-2.423 -5.867,-2.415 z"
           id="path3519" />
        <path
           inkscape:connector-curvature="0"
           d="m 79.731,76.23 c -1.162,1.186 0.358,2.617 0.345,3.797 -0.807,0.802 -2.301,0.918 -2.761,2.071 -1.012,-0.924 0.925,-1.817 0.691,-3.107 -4.425,-0.208 -1.963,9.737 -0.691,12.082 -2.424,-1.406 -3.521,-4.065 -3.45,-7.249 0.133,-5.961 3.773,-10.391 8.973,-8.628 5.993,2.029 6.148,15.207 3.453,21.4 -1.227,0.613 -1.429,2.254 -2.416,3.105 -0.464,0.069 -0.644,1.434 -0.69,0 1.563,-3.809 4.547,-7.84 3.795,-12.771 -0.189,-1.244 -1.217,-2.585 -2.069,-4.142 -1.332,-2.427 -2.158,-6.006 -5.18,-6.558 z"
           id="path3521" />
        <path
           inkscape:connector-curvature="0"
           d="m 123.57,75.196 c 0.969,0.552 -0.748,1.29 -0.691,2.07 -0.97,-0.553 0.75,-1.29 0.69,-2.07 z"
           id="path3523" />
        <path
           inkscape:connector-curvature="0"
           d="m 114.59,76.92 c -0.543,0.264 -0.517,1.096 -1.381,1.037 -0.1,-0.912 0.72,-0.891 1.38,-1.037 z"
           id="path3525" />
        <path
           inkscape:connector-curvature="0"
           d="m 109.07,105.22 c 0.016,-0.59 -0.258,-0.894 -0.69,-1.036 0.893,-0.486 1.462,-1.299 2.07,-2.07 1.441,0.785 -1.053,2.59 -1.38,3.797 -0.43,-0.08 -0.35,-0.68 0,-0.69 z"
           id="path3527" />
        <path
           inkscape:connector-curvature="0"
           d="m 40.384,184.27 c -0.752,4.948 -3.654,7.344 -8.629,7.249 3.102,-1.845 5.807,-4.089 7.594,-7.249 l 1.035,0 z"
           id="path3529" />
      </g>
      <path
         d="m 270.41456,670.13442 c -7.98308,6.37123 -27.93846,17.2737 -27.93846,17.2737 5.00554,-0.55208 8.89378,0.52508 11.26521,1.51708 -9.63331,13.29048 -21.39213,53.40318 2.12429,76.2168 -2.25734,-15.30118 9.05953,-6.59118 22.05669,5.09076 -20.80368,-20.38706 -35.26831,-53.07548 -19.87519,-78.07681 1.52603,1.87191 3.82611,5.19465 5.80822,10.16743 0,0 1.5367,-23.88971 6.55981,-32.18831 z"
         inkscape:connector-curvature="0"
         style="fill:url(#linearGradient3610)"
         sodipodi:nodetypes="cccccccc"
         id="path3933" />
      <path
         id="path3606"
         sodipodi:nodetypes="cccccccc"
         style="fill:url(#linearGradient3608)"
         inkscape:connector-curvature="0"
         d="m 279.69032,743.30333 c -2.72521,-9.84355 -12.4855,-30.38175 -12.4855,-30.38175 3.72907,3.3844 7.50954,4.79393 10.01185,5.38231 -0.001,-16.41456 14.01685,-55.79472 46.44603,-60.46717 -10.80692,11.06489 3.46774,10.65333 20.84698,8.82137 -28.80866,4.29953 -59.70327,22.27958 -61.91066,51.55657 2.33412,-0.6202 6.14639,-1.96092 10.66948,-4.82429 0,0 -12.77479,20.24559 -13.57735,29.91276 z" />
    </g>
  </g>
</svg>
