<?xml version="1.0" encoding="UTF-8" standalone="no"?>
<!-- Created with Inkscape (http://www.inkscape.org/) -->

<svg
   xmlns:dc="http://purl.org/dc/elements/1.1/"
   xmlns:cc="http://creativecommons.org/ns#"
   xmlns:rdf="http://www.w3.org/1999/02/22-rdf-syntax-ns#"
   xmlns:svg="http://www.w3.org/2000/svg"
   xmlns="http://www.w3.org/2000/svg"
   xmlns:xlink="http://www.w3.org/1999/xlink"
   xmlns:sodipodi="http://sodipodi.sourceforge.net/DTD/sodipodi-0.dtd"
   xmlns:inkscape="http://www.inkscape.org/namespaces/inkscape"
   width="785.85394"
   height="701.61273"
   id="svg2"
   version="1.1"
   inkscape:version="0.92.1 r15371"
   sodipodi:docname="cross-legged.svg"
   inkscape:export-filename="/home/katie/Desktop/alien.png"
   inkscape:export-xdpi="84.416222"
   inkscape:export-ydpi="84.416222">
  <defs
     id="defs4">
    <linearGradient
       y2="636.91669"
       x2="621.36121"
       y1="-122.33332"
       x1="334.75"
       gradientTransform="matrix(1.6587719,0,0,0.888495,19.763024,1466.6429)"
       gradientUnits="userSpaceOnUse"
       id="linearGradient3513"
       xlink:href="#linearGradient4040-0-9"
       inkscape:collect="always" />
    <linearGradient
       inkscape:collect="always"
       id="linearGradient4040-0-9">
      <stop
         style="stop-color:#aad8e9;stop-opacity:1"
         offset="0"
         id="stop4042-44-2" />
      <stop
         style="stop-color:#ffffff;stop-opacity:1"
         offset="1"
         id="stop4044-43-1" />
    </linearGradient>
  </defs>
  <sodipodi:namedview
     id="base"
     pagecolor="#ffffff"
     bordercolor="#666666"
     borderopacity="1.0"
     inkscape:pageopacity="0.0"
     inkscape:pageshadow="2"
     inkscape:zoom="0.7"
     inkscape:cx="-21.655751"
     inkscape:cy="405.98087"
     inkscape:document-units="px"
     inkscape:current-layer="layer1"
     showgrid="false"
     inkscape:window-width="1920"
     inkscape:window-height="1124"
     inkscape:window-x="0"
     inkscape:window-y="24"
     inkscape:window-maximized="1"
     fit-margin-top="0"
     fit-margin-left="0"
     fit-margin-right="0"
     fit-margin-bottom="0"
     showborder="true" />
  <metadata
     id="metadata7">
    <rdf:RDF>
      <cc:Work
         rdf:about="">
        <dc:format>image/svg+xml</dc:format>
        <dc:type
           rdf:resource="http://purl.org/dc/dcmitype/StillImage" />
        <dc:title />
      </cc:Work>
    </rdf:RDF>
  </metadata>
  <g
     inkscape:label="Layer 1"
     inkscape:groupmode="layer"
     id="layer1"
     transform="translate(150.02077,-481.74479)">
    <rect
       style="fill:#badeff;fill-opacity:1;fill-rule:evenodd;stroke:none;stroke-width:1.06666672"
       id="rect4558-7-7"
       width="785.85394"
       height="701.61273"
       x="-150.02077"
       y="-1183.3575"
       transform="scale(1,-1)"
       inkscape:export-filename="/home/katie/Desktop/foo.png"
       inkscape:export-xdpi="84.752266"
       inkscape:export-ydpi="84.752266" />
    <path
       style="fill:#56a430;fill-opacity:1;fill-rule:evenodd;stroke:none;stroke-width:1.06666672"
       d="m 193.5518,974.17023 c -38.50925,5.6307 -58.53532,2.32257 -97.359777,4.49194 -39.876907,-2.87861 -80.009412,-5.9556 -119.72714,0.6417 -57.07209,4.62484 -114.268793,19.06066 -171.563163,9.19778 -39.83835,-4.61583 -80.23181,-12.73908 -120.31034,-8.23527 v 204.81112 h 611.02009 v 0.1072 H 813.49134 V 975.77489 c -34.54589,4.42395 -54.47872,1.62281 -91.15034,3.67193 -39.87691,-2.87861 -80.0095,-6.02679 -119.72719,0.57041 -57.07209,4.62484 -114.26879,19.06076 -171.56316,9.19778 -22.39396,-2.59467 -44.96246,-6.25826 -67.54807,-8.19958 -16.7405,-2.96246 -30.0888,-4.46456 -49.22878,-4.70584 -29.79931,4.00379 -42.37865,7.87638 -68.4057,8.76997 -15.03422,0.62962 -47.37921,-10.70353 -52.3163,-10.90899 z"
       id="rect4558-3-8-8-4"
       inkscape:connector-curvature="0" />
    <g
       id="g4676-6-3"
       style="fill:#85bb60;fill-opacity:1"
       transform="translate(-367.25628,605.27409)">
      <g
         style="opacity:0.65432099;fill:#85bb60;fill-opacity:1"
         transform="translate(40.161905,-18.904766)"
         id="g4502-6-3">
        <g
           style="fill:#85bb60;fill-opacity:1"
           id="g4375-3-9"
           transform="matrix(0.75567072,0.24945812,-0.24945812,0.75567072,1065.8596,355.25008)">
          <path
             inkscape:connector-curvature="0"
             id="path101-25-4-7"
             d="m -886.14478,461.98601 c -3.62907,0.0898 -5.62465,-0.45466 -5.98946,-1.6335 -0.36209,-1.17884 1.08899,-2.72248 4.35597,-4.62822 3.17714,-1.8159 7.21458,-3.40311 12.11505,-4.76434 4.81062,-1.36124 9.07404,-2.08815 12.79567,-2.17799 3.62906,-0.0898 5.62465,0.45466 5.98946,1.63349 0.36481,1.2714 -1.04271,2.81233 -4.21985,4.62822 -3.26698,1.81589 -7.30714,3.4031 -12.11504,4.76434 -4.90047,1.36125 -9.21017,2.08815 -12.9318,2.178 z"
             style="fill:#85bb60;fill-opacity:1;fill-rule:evenodd;stroke-width:1.06666672" />
          <path
             inkscape:connector-curvature="0"
             id="path103-2-4-1"
             d="m -600.01183,333.07645 c 0.45194,1.18156 -0.86303,2.81505 -3.94759,4.90047 -2.99747,1.99557 -6.89606,3.90131 -11.70668,5.7172 -4.71807,1.72334 -8.93791,2.76877 -12.65955,3.13086 -3.62907,0.36209 -5.67093,-0.0463 -6.12558,-1.22512 -0.45466,-1.17884 0.8603,-2.76877 3.94759,-4.76434 3.08458,-2.08814 6.98589,-3.99388 11.70668,-5.71722 4.72079,-1.72332 8.93791,-2.81232 12.65954,-3.26697 3.62908,-0.36209 5.67093,0.0463 6.12559,1.22512 z"
             style="fill:#85bb60;fill-opacity:1;fill-rule:evenodd;stroke-width:1.06666672" />
          <path
             inkscape:connector-curvature="0"
             id="path105-6-45-9"
             d="m -715.03674,383.98687 c 0.45466,1.17884 -0.86031,2.81233 -3.94759,4.90047 -2.99474,1.99558 -6.89877,3.90404 -11.70668,5.71721 -4.81063,1.72333 -9.02775,2.76877 -12.65955,3.13086 -3.72163,0.36208 -5.76349,-0.0463 -6.12558,-1.22512 -0.45465,-1.18155 0.8603,-2.76876 3.9476,-4.76435 3.08457,-2.08814 6.98588,-3.99388 11.70667,-5.7172 4.72079,-1.72334 8.93791,-2.81233 12.65954,-3.26699 3.62908,-0.36209 5.67094,0.0463 6.12559,1.22512 z"
             style="fill:#85bb60;fill-opacity:1;fill-rule:evenodd;stroke-width:1.06666672" />
          <path
             inkscape:connector-curvature="0"
             id="path107-9-84-7"
             d="m -700.06308,482.13237 c 0.36209,1.18156 -0.95287,2.81233 -3.9476,4.90047 -2.99473,1.99559 -6.89877,3.90405 -11.70667,5.71994 -4.71807,1.72333 -8.93791,2.76877 -12.65956,3.12814 -3.62906,0.36481 -5.67092,-0.0463 -6.12558,-1.2224 -0.45465,-1.18156 0.8603,-2.76877 3.9476,-4.76434 3.08458,-2.08815 6.9859,-3.99389 11.70668,-5.71994 4.71807,-1.72334 8.93791,-2.81233 12.65954,-3.26699 3.62908,-0.36209 5.67093,0.0435 6.12559,1.22512 z"
             style="fill:#85bb60;fill-opacity:1;fill-rule:evenodd;stroke-width:1.06666672" />
          <path
             inkscape:connector-curvature="0"
             id="path109-0-3-9"
             d="m -516.15936,349.68358 c 0.45466,1.18156 -0.8603,2.81233 -3.94759,4.90047 -3.08458,1.99559 -6.9859,3.85776 -11.70668,5.58109 -4.62823,1.72334 -8.80179,2.81233 -12.52615,3.26699 -3.62906,0.36209 -5.67093,-0.0463 -6.12559,-1.22512 -0.45193,-1.17884 0.86303,-2.81232 3.94761,-4.90047 2.99745,-1.99559 6.89604,-3.90404 11.70667,-5.71722 4.71807,-1.72333 8.89707,-2.76875 12.52614,-3.13085 3.71891,-0.36209 5.76078,0.0463 6.12559,1.22511 z"
             style="fill:#85bb60;fill-opacity:1;fill-rule:evenodd;stroke-width:1.06666672" />
          <path
             inkscape:connector-curvature="0"
             id="path111-8-0-4"
             d="m -596.06422,444.42598 c 0.45464,1.17884 -0.86031,2.81233 -3.94489,4.90047 -3.0873,1.99559 -6.98861,3.85776 -11.7094,5.58109 -4.71534,1.72334 -8.93791,2.81505 -12.65682,3.26699 -3.62906,0.36209 -5.67093,-0.0463 -6.12559,-1.22512 -0.36481,-1.17884 0.95288,-2.81232 3.94761,-4.90047 3.08457,-1.99559 6.98589,-3.90131 11.70668,-5.71722 4.81062,-1.72333 9.02775,-2.76875 12.65682,-3.13085 3.72163,-0.36209 5.7635,0.0463 6.12559,1.22511 z"
             style="fill:#85bb60;fill-opacity:1;fill-rule:evenodd;stroke-width:1.06666672" />
          <path
             inkscape:connector-curvature="0"
             id="path113-8-50-2"
             d="m -781.19307,478.3209 c 0.45466,1.17883 -0.86303,2.81233 -3.9476,4.90047 -3.08457,1.99558 -6.98589,3.85504 -11.70667,5.58108 -4.81063,1.72606 -9.03047,2.76877 -12.65955,3.13086 -3.72163,0.36209 -5.7635,-0.0463 -6.12558,-1.22512 -0.45466,-1.18156 0.8603,-2.76876 3.9476,-4.76434 3.08457,-2.08815 6.98861,-3.99389 11.70667,-5.71994 4.81063,-1.72332 9.02776,-2.76876 12.65954,-3.12813 3.72164,-0.36481 5.7635,0.0463 6.12559,1.22512 z"
             style="fill:#85bb60;fill-opacity:1;fill-rule:evenodd;stroke-width:1.06666672" />
          <path
             inkscape:connector-curvature="0"
             id="path115-9-7-1"
             d="m -770.84764,427.27436 c 4.81064,-1.72333 9.03048,-2.76877 12.65955,-3.13086 3.72164,-0.45466 5.7635,-0.0898 6.12558,1.08899 0.45466,1.18156 -0.8603,2.81233 -3.94759,4.90047 -2.99473,1.99558 -6.89877,3.90132 -11.70668,5.71722 -4.81062,1.72333 -9.02775,2.76875 -12.65954,3.13084 -3.72163,0.36209 -5.7635,-0.0463 -6.12559,-1.22511 -0.45466,-1.17883 0.86303,-2.76876 3.94761,-4.76434 3.08456,-2.08815 6.9886,-3.99388 11.70666,-5.71721 z"
             style="fill:#85bb60;fill-opacity:1;fill-rule:evenodd;stroke-width:1.06666672" />
          <path
             inkscape:connector-curvature="0"
             id="path117-5-87-2"
             d="m -656.77559,412.84519 c 3.08729,-2.08813 6.98861,-3.99387 11.70667,-5.7172 4.71806,-1.72335 8.94063,-2.81234 12.65954,-3.267 3.62908,-0.36209 5.67094,0.0463 6.12559,1.22512 0.45466,1.2714 -0.86031,2.9049 -3.9476,4.90048 -2.99473,1.99559 -6.89604,3.85776 -11.70667,5.58109 -4.71807,1.72333 -8.93792,2.81233 -12.65955,3.26698 -3.62907,0.36209 -5.67093,-0.0463 -6.12558,-1.22511 -0.45194,-1.17884 0.86302,-2.76877 3.9476,-4.76436 z"
             style="fill:#85bb60;fill-opacity:1;fill-rule:evenodd;stroke-width:1.06666672" />
        </g>
        <g
           style="fill:#85bb60;fill-opacity:1"
           id="g4375-1-2-0"
           transform="matrix(0.75567072,-0.24945812,-0.24945812,-0.75567072,783.23287,670.17989)">
          <path
             inkscape:connector-curvature="0"
             id="path101-25-7-0-7"
             d="m -886.14478,461.98601 c -3.62907,0.0898 -5.62465,-0.45466 -5.98946,-1.6335 -0.36209,-1.17884 1.08899,-2.72248 4.35597,-4.62822 3.17714,-1.8159 7.21458,-3.40311 12.11505,-4.76434 4.81062,-1.36124 9.07404,-2.08815 12.79567,-2.17799 3.62906,-0.0898 5.62465,0.45466 5.98946,1.63349 0.36481,1.2714 -1.04271,2.81233 -4.21985,4.62822 -3.26698,1.81589 -7.30714,3.4031 -12.11504,4.76434 -4.90047,1.36125 -9.21017,2.08815 -12.9318,2.178 z"
             style="fill:#85bb60;fill-opacity:1;fill-rule:evenodd;stroke-width:1.06666672" />
          <path
             inkscape:connector-curvature="0"
             id="path103-2-1-9-8"
             d="m -600.01183,333.07645 c 0.45194,1.18156 -0.86303,2.81505 -3.94759,4.90047 -2.99747,1.99557 -6.89606,3.90131 -11.70668,5.7172 -4.71807,1.72334 -8.93791,2.76877 -12.65955,3.13086 -3.62907,0.36209 -5.67093,-0.0463 -6.12558,-1.22512 -0.45466,-1.17884 0.8603,-2.76877 3.94759,-4.76434 3.08458,-2.08814 6.98589,-3.99388 11.70668,-5.71722 4.72079,-1.72332 8.93791,-2.81232 12.65954,-3.26697 3.62908,-0.36209 5.67093,0.0463 6.12559,1.22512 z"
             style="fill:#85bb60;fill-opacity:1;fill-rule:evenodd;stroke-width:1.06666672" />
          <path
             inkscape:connector-curvature="0"
             id="path105-6-8-7-3"
             d="m -715.03674,383.98687 c 0.45466,1.17884 -0.86031,2.81233 -3.94759,4.90047 -2.99474,1.99558 -6.89877,3.90404 -11.70668,5.71721 -4.81063,1.72333 -9.02775,2.76877 -12.65955,3.13086 -3.72163,0.36208 -5.76349,-0.0463 -6.12558,-1.22512 -0.45465,-1.18155 0.8603,-2.76876 3.9476,-4.76435 3.08457,-2.08814 6.98588,-3.99388 11.70667,-5.7172 4.72079,-1.72334 8.93791,-2.81233 12.65954,-3.26699 3.62908,-0.36209 5.67094,0.0463 6.12559,1.22512 z"
             style="fill:#85bb60;fill-opacity:1;fill-rule:evenodd;stroke-width:1.06666672" />
          <path
             inkscape:connector-curvature="0"
             id="path107-9-8-2-8"
             d="m -700.06308,482.13237 c 0.36209,1.18156 -0.95287,2.81233 -3.9476,4.90047 -2.99473,1.99559 -6.89877,3.90405 -11.70667,5.71994 -4.71807,1.72333 -8.93791,2.76877 -12.65956,3.12814 -3.62906,0.36481 -5.67092,-0.0463 -6.12558,-1.2224 -0.45465,-1.18156 0.8603,-2.76877 3.9476,-4.76434 3.08458,-2.08815 6.9859,-3.99389 11.70668,-5.71994 4.71807,-1.72334 8.93791,-2.81233 12.65954,-3.26699 3.62908,-0.36209 5.67093,0.0435 6.12559,1.22512 z"
             style="fill:#85bb60;fill-opacity:1;fill-rule:evenodd;stroke-width:1.06666672" />
          <path
             inkscape:connector-curvature="0"
             id="path109-0-9-3-2"
             d="m -516.15936,349.68358 c 0.45466,1.18156 -0.8603,2.81233 -3.94759,4.90047 -3.08458,1.99559 -6.9859,3.85776 -11.70668,5.58109 -4.62823,1.72334 -8.80179,2.81233 -12.52615,3.26699 -3.62906,0.36209 -5.67093,-0.0463 -6.12559,-1.22512 -0.45193,-1.17884 0.86303,-2.81232 3.94761,-4.90047 2.99745,-1.99559 6.89604,-3.90404 11.70667,-5.71722 4.71807,-1.72333 8.89707,-2.76875 12.52614,-3.13085 3.71891,-0.36209 5.76078,0.0463 6.12559,1.22511 z"
             style="fill:#85bb60;fill-opacity:1;fill-rule:evenodd;stroke-width:1.06666672" />
          <path
             inkscape:connector-curvature="0"
             id="path111-8-2-1-6"
             d="m -596.06422,444.42598 c 0.45464,1.17884 -0.86031,2.81233 -3.94489,4.90047 -3.0873,1.99559 -6.98861,3.85776 -11.7094,5.58109 -4.71534,1.72334 -8.93791,2.81505 -12.65682,3.26699 -3.62906,0.36209 -5.67093,-0.0463 -6.12559,-1.22512 -0.36481,-1.17884 0.95288,-2.81232 3.94761,-4.90047 3.08457,-1.99559 6.98589,-3.90131 11.70668,-5.71722 4.81062,-1.72333 9.02775,-2.76875 12.65682,-3.13085 3.72163,-0.36209 5.7635,0.0463 6.12559,1.22511 z"
             style="fill:#85bb60;fill-opacity:1;fill-rule:evenodd;stroke-width:1.06666672" />
          <path
             inkscape:connector-curvature="0"
             id="path113-8-0-9-0"
             d="m -781.19307,478.3209 c 0.45466,1.17883 -0.86303,2.81233 -3.9476,4.90047 -3.08457,1.99558 -6.98589,3.85504 -11.70667,5.58108 -4.81063,1.72606 -9.03047,2.76877 -12.65955,3.13086 -3.72163,0.36209 -5.7635,-0.0463 -6.12558,-1.22512 -0.45466,-1.18156 0.8603,-2.76876 3.9476,-4.76434 3.08457,-2.08815 6.98861,-3.99389 11.70667,-5.71994 4.81063,-1.72332 9.02776,-2.76876 12.65954,-3.12813 3.72164,-0.36481 5.7635,0.0463 6.12559,1.22512 z"
             style="fill:#85bb60;fill-opacity:1;fill-rule:evenodd;stroke-width:1.06666672" />
          <path
             inkscape:connector-curvature="0"
             id="path115-9-3-5-5"
             d="m -770.84764,427.27436 c 4.81064,-1.72333 9.03048,-2.76877 12.65955,-3.13086 3.72164,-0.45466 5.7635,-0.0898 6.12558,1.08899 0.45466,1.18156 -0.8603,2.81233 -3.94759,4.90047 -2.99473,1.99558 -6.89877,3.90132 -11.70668,5.71722 -4.81062,1.72333 -9.02775,2.76875 -12.65954,3.13084 -3.72163,0.36209 -5.7635,-0.0463 -6.12559,-1.22511 -0.45466,-1.17883 0.86303,-2.76876 3.94761,-4.76434 3.08456,-2.08815 6.9886,-3.99388 11.70666,-5.71721 z"
             style="fill:#85bb60;fill-opacity:1;fill-rule:evenodd;stroke-width:1.06666672" />
          <path
             inkscape:connector-curvature="0"
             id="path117-5-3-7-1"
             d="m -656.77559,412.84519 c 3.08729,-2.08813 6.98861,-3.99387 11.70667,-5.7172 4.71806,-1.72335 8.94063,-2.81234 12.65954,-3.267 3.62908,-0.36209 5.67094,0.0463 6.12559,1.22512 0.45466,1.2714 -0.86031,2.9049 -3.9476,4.90048 -2.99473,1.99559 -6.89604,3.85776 -11.70667,5.58109 -4.71807,1.72333 -8.93792,2.81233 -12.65955,3.26698 -3.62907,0.36209 -5.67093,-0.0463 -6.12558,-1.22511 -0.45194,-1.17884 0.86302,-2.76877 3.9476,-4.76436 z"
             style="fill:#85bb60;fill-opacity:1;fill-rule:evenodd;stroke-width:1.06666672" />
        </g>
      </g>
      <g
         style="opacity:0.65432099;fill:#85bb60;fill-opacity:1"
         transform="translate(576.1819,-32.927673)"
         id="g4502-1-3-7">
        <g
           style="fill:#85bb60;fill-opacity:1"
           id="g4375-7-0-9"
           transform="matrix(0.75567072,0.24945812,-0.24945812,0.75567072,1065.8596,355.25008)">
          <path
             inkscape:connector-curvature="0"
             id="path101-25-9-2-2"
             d="m -886.14478,461.98601 c -3.62907,0.0898 -5.62465,-0.45466 -5.98946,-1.6335 -0.36209,-1.17884 1.08899,-2.72248 4.35597,-4.62822 3.17714,-1.8159 7.21458,-3.40311 12.11505,-4.76434 4.81062,-1.36124 9.07404,-2.08815 12.79567,-2.17799 3.62906,-0.0898 5.62465,0.45466 5.98946,1.63349 0.36481,1.2714 -1.04271,2.81233 -4.21985,4.62822 -3.26698,1.81589 -7.30714,3.4031 -12.11504,4.76434 -4.90047,1.36125 -9.21017,2.08815 -12.9318,2.178 z"
             style="fill:#85bb60;fill-opacity:1;fill-rule:evenodd;stroke-width:1.06666672" />
          <path
             inkscape:connector-curvature="0"
             id="path103-2-7-2-7"
             d="m -600.01183,333.07645 c 0.45194,1.18156 -0.86303,2.81505 -3.94759,4.90047 -2.99747,1.99557 -6.89606,3.90131 -11.70668,5.7172 -4.71807,1.72334 -8.93791,2.76877 -12.65955,3.13086 -3.62907,0.36209 -5.67093,-0.0463 -6.12558,-1.22512 -0.45466,-1.17884 0.8603,-2.76877 3.94759,-4.76434 3.08458,-2.08814 6.98589,-3.99388 11.70668,-5.71722 4.72079,-1.72332 8.93791,-2.81232 12.65954,-3.26697 3.62908,-0.36209 5.67093,0.0463 6.12559,1.22512 z"
             style="fill:#85bb60;fill-opacity:1;fill-rule:evenodd;stroke-width:1.06666672" />
          <path
             inkscape:connector-curvature="0"
             id="path105-6-4-0-8"
             d="m -715.03674,383.98687 c 0.45466,1.17884 -0.86031,2.81233 -3.94759,4.90047 -2.99474,1.99558 -6.89877,3.90404 -11.70668,5.71721 -4.81063,1.72333 -9.02775,2.76877 -12.65955,3.13086 -3.72163,0.36208 -5.76349,-0.0463 -6.12558,-1.22512 -0.45465,-1.18155 0.8603,-2.76876 3.9476,-4.76435 3.08457,-2.08814 6.98588,-3.99388 11.70667,-5.7172 4.72079,-1.72334 8.93791,-2.81233 12.65954,-3.26699 3.62908,-0.36209 5.67094,0.0463 6.12559,1.22512 z"
             style="fill:#85bb60;fill-opacity:1;fill-rule:evenodd;stroke-width:1.06666672" />
          <path
             inkscape:connector-curvature="0"
             id="path107-9-2-0-6"
             d="m -700.06308,482.13237 c 0.36209,1.18156 -0.95287,2.81233 -3.9476,4.90047 -2.99473,1.99559 -6.89877,3.90405 -11.70667,5.71994 -4.71807,1.72333 -8.93791,2.76877 -12.65956,3.12814 -3.62906,0.36481 -5.67092,-0.0463 -6.12558,-1.2224 -0.45465,-1.18156 0.8603,-2.76877 3.9476,-4.76434 3.08458,-2.08815 6.9859,-3.99389 11.70668,-5.71994 4.71807,-1.72334 8.93791,-2.81233 12.65954,-3.26699 3.62908,-0.36209 5.67093,0.0435 6.12559,1.22512 z"
             style="fill:#85bb60;fill-opacity:1;fill-rule:evenodd;stroke-width:1.06666672" />
          <path
             inkscape:connector-curvature="0"
             id="path109-0-2-8-0"
             d="m -516.15936,349.68358 c 0.45466,1.18156 -0.8603,2.81233 -3.94759,4.90047 -3.08458,1.99559 -6.9859,3.85776 -11.70668,5.58109 -4.62823,1.72334 -8.80179,2.81233 -12.52615,3.26699 -3.62906,0.36209 -5.67093,-0.0463 -6.12559,-1.22512 -0.45193,-1.17884 0.86303,-2.81232 3.94761,-4.90047 2.99745,-1.99559 6.89604,-3.90404 11.70667,-5.71722 4.71807,-1.72333 8.89707,-2.76875 12.52614,-3.13085 3.71891,-0.36209 5.76078,0.0463 6.12559,1.22511 z"
             style="fill:#85bb60;fill-opacity:1;fill-rule:evenodd;stroke-width:1.06666672" />
          <path
             inkscape:connector-curvature="0"
             id="path111-8-6-6-7"
             d="m -596.06422,444.42598 c 0.45464,1.17884 -0.86031,2.81233 -3.94489,4.90047 -3.0873,1.99559 -6.98861,3.85776 -11.7094,5.58109 -4.71534,1.72334 -8.93791,2.81505 -12.65682,3.26699 -3.62906,0.36209 -5.67093,-0.0463 -6.12559,-1.22512 -0.36481,-1.17884 0.95288,-2.81232 3.94761,-4.90047 3.08457,-1.99559 6.98589,-3.90131 11.70668,-5.71722 4.81062,-1.72333 9.02775,-2.76875 12.65682,-3.13085 3.72163,-0.36209 5.7635,0.0463 6.12559,1.22511 z"
             style="fill:#85bb60;fill-opacity:1;fill-rule:evenodd;stroke-width:1.06666672" />
          <path
             inkscape:connector-curvature="0"
             id="path113-8-5-7-2"
             d="m -781.19307,478.3209 c 0.45466,1.17883 -0.86303,2.81233 -3.9476,4.90047 -3.08457,1.99558 -6.98589,3.85504 -11.70667,5.58108 -4.81063,1.72606 -9.03047,2.76877 -12.65955,3.13086 -3.72163,0.36209 -5.7635,-0.0463 -6.12558,-1.22512 -0.45466,-1.18156 0.8603,-2.76876 3.9476,-4.76434 3.08457,-2.08815 6.98861,-3.99389 11.70667,-5.71994 4.81063,-1.72332 9.02776,-2.76876 12.65954,-3.12813 3.72164,-0.36481 5.7635,0.0463 6.12559,1.22512 z"
             style="fill:#85bb60;fill-opacity:1;fill-rule:evenodd;stroke-width:1.06666672" />
          <path
             inkscape:connector-curvature="0"
             id="path115-9-2-4-3"
             d="m -770.84764,427.27436 c 4.81064,-1.72333 9.03048,-2.76877 12.65955,-3.13086 3.72164,-0.45466 5.7635,-0.0898 6.12558,1.08899 0.45466,1.18156 -0.8603,2.81233 -3.94759,4.90047 -2.99473,1.99558 -6.89877,3.90132 -11.70668,5.71722 -4.81062,1.72333 -9.02775,2.76875 -12.65954,3.13084 -3.72163,0.36209 -5.7635,-0.0463 -6.12559,-1.22511 -0.45466,-1.17883 0.86303,-2.76876 3.94761,-4.76434 3.08456,-2.08815 6.9886,-3.99388 11.70666,-5.71721 z"
             style="fill:#85bb60;fill-opacity:1;fill-rule:evenodd;stroke-width:1.06666672" />
          <path
             inkscape:connector-curvature="0"
             id="path117-5-8-0-0"
             d="m -656.77559,412.84519 c 3.08729,-2.08813 6.98861,-3.99387 11.70667,-5.7172 4.71806,-1.72335 8.94063,-2.81234 12.65954,-3.267 3.62908,-0.36209 5.67094,0.0463 6.12559,1.22512 0.45466,1.2714 -0.86031,2.9049 -3.9476,4.90048 -2.99473,1.99559 -6.89604,3.85776 -11.70667,5.58109 -4.71807,1.72333 -8.93792,2.81233 -12.65955,3.26698 -3.62907,0.36209 -5.67093,-0.0463 -6.12558,-1.22511 -0.45194,-1.17884 0.86302,-2.76877 3.9476,-4.76436 z"
             style="fill:#85bb60;fill-opacity:1;fill-rule:evenodd;stroke-width:1.06666672" />
        </g>
        <g
           style="fill:#85bb60;fill-opacity:1"
           id="g4375-1-0-2-1"
           transform="matrix(0.75567072,-0.24945812,-0.24945812,-0.75567072,783.23287,670.17989)">
          <path
             inkscape:connector-curvature="0"
             id="path101-25-7-8-2-0"
             d="m -886.14478,461.98601 c -3.62907,0.0898 -5.62465,-0.45466 -5.98946,-1.6335 -0.36209,-1.17884 1.08899,-2.72248 4.35597,-4.62822 3.17714,-1.8159 7.21458,-3.40311 12.11505,-4.76434 4.81062,-1.36124 9.07404,-2.08815 12.79567,-2.17799 3.62906,-0.0898 5.62465,0.45466 5.98946,1.63349 0.36481,1.2714 -1.04271,2.81233 -4.21985,4.62822 -3.26698,1.81589 -7.30714,3.4031 -12.11504,4.76434 -4.90047,1.36125 -9.21017,2.08815 -12.9318,2.178 z"
             style="fill:#85bb60;fill-opacity:1;fill-rule:evenodd;stroke-width:1.06666672" />
          <path
             inkscape:connector-curvature="0"
             id="path103-2-1-1-5-4"
             d="m -600.01183,333.07645 c 0.45194,1.18156 -0.86303,2.81505 -3.94759,4.90047 -2.99747,1.99557 -6.89606,3.90131 -11.70668,5.7172 -4.71807,1.72334 -8.93791,2.76877 -12.65955,3.13086 -3.62907,0.36209 -5.67093,-0.0463 -6.12558,-1.22512 -0.45466,-1.17884 0.8603,-2.76877 3.94759,-4.76434 3.08458,-2.08814 6.98589,-3.99388 11.70668,-5.71722 4.72079,-1.72332 8.93791,-2.81232 12.65954,-3.26697 3.62908,-0.36209 5.67093,0.0463 6.12559,1.22512 z"
             style="fill:#85bb60;fill-opacity:1;fill-rule:evenodd;stroke-width:1.06666672" />
          <path
             inkscape:connector-curvature="0"
             id="path105-6-8-3-8-3"
             d="m -715.03674,383.98687 c 0.45466,1.17884 -0.86031,2.81233 -3.94759,4.90047 -2.99474,1.99558 -6.89877,3.90404 -11.70668,5.71721 -4.81063,1.72333 -9.02775,2.76877 -12.65955,3.13086 -3.72163,0.36208 -5.76349,-0.0463 -6.12558,-1.22512 -0.45465,-1.18155 0.8603,-2.76876 3.9476,-4.76435 3.08457,-2.08814 6.98588,-3.99388 11.70667,-5.7172 4.72079,-1.72334 8.93791,-2.81233 12.65954,-3.26699 3.62908,-0.36209 5.67094,0.0463 6.12559,1.22512 z"
             style="fill:#85bb60;fill-opacity:1;fill-rule:evenodd;stroke-width:1.06666672" />
          <path
             inkscape:connector-curvature="0"
             id="path107-9-8-3-4-0"
             d="m -700.06308,482.13237 c 0.36209,1.18156 -0.95287,2.81233 -3.9476,4.90047 -2.99473,1.99559 -6.89877,3.90405 -11.70667,5.71994 -4.71807,1.72333 -8.93791,2.76877 -12.65956,3.12814 -3.62906,0.36481 -5.67092,-0.0463 -6.12558,-1.2224 -0.45465,-1.18156 0.8603,-2.76877 3.9476,-4.76434 3.08458,-2.08815 6.9859,-3.99389 11.70668,-5.71994 4.71807,-1.72334 8.93791,-2.81233 12.65954,-3.26699 3.62908,-0.36209 5.67093,0.0435 6.12559,1.22512 z"
             style="fill:#85bb60;fill-opacity:1;fill-rule:evenodd;stroke-width:1.06666672" />
          <path
             inkscape:connector-curvature="0"
             id="path109-0-9-4-0-3"
             d="m -516.15936,349.68358 c 0.45466,1.18156 -0.8603,2.81233 -3.94759,4.90047 -3.08458,1.99559 -6.9859,3.85776 -11.70668,5.58109 -4.62823,1.72334 -8.80179,2.81233 -12.52615,3.26699 -3.62906,0.36209 -5.67093,-0.0463 -6.12559,-1.22512 -0.45193,-1.17884 0.86303,-2.81232 3.94761,-4.90047 2.99745,-1.99559 6.89604,-3.90404 11.70667,-5.71722 4.71807,-1.72333 8.89707,-2.76875 12.52614,-3.13085 3.71891,-0.36209 5.76078,0.0463 6.12559,1.22511 z"
             style="fill:#85bb60;fill-opacity:1;fill-rule:evenodd;stroke-width:1.06666672" />
          <path
             inkscape:connector-curvature="0"
             id="path111-8-2-5-8-7"
             d="m -596.06422,444.42598 c 0.45464,1.17884 -0.86031,2.81233 -3.94489,4.90047 -3.0873,1.99559 -6.98861,3.85776 -11.7094,5.58109 -4.71534,1.72334 -8.93791,2.81505 -12.65682,3.26699 -3.62906,0.36209 -5.67093,-0.0463 -6.12559,-1.22512 -0.36481,-1.17884 0.95288,-2.81232 3.94761,-4.90047 3.08457,-1.99559 6.98589,-3.90131 11.70668,-5.71722 4.81062,-1.72333 9.02775,-2.76875 12.65682,-3.13085 3.72163,-0.36209 5.7635,0.0463 6.12559,1.22511 z"
             style="fill:#85bb60;fill-opacity:1;fill-rule:evenodd;stroke-width:1.06666672" />
          <path
             inkscape:connector-curvature="0"
             id="path113-8-0-5-1-2"
             d="m -781.19307,478.3209 c 0.45466,1.17883 -0.86303,2.81233 -3.9476,4.90047 -3.08457,1.99558 -6.98589,3.85504 -11.70667,5.58108 -4.81063,1.72606 -9.03047,2.76877 -12.65955,3.13086 -3.72163,0.36209 -5.7635,-0.0463 -6.12558,-1.22512 -0.45466,-1.18156 0.8603,-2.76876 3.9476,-4.76434 3.08457,-2.08815 6.98861,-3.99389 11.70667,-5.71994 4.81063,-1.72332 9.02776,-2.76876 12.65954,-3.12813 3.72164,-0.36481 5.7635,0.0463 6.12559,1.22512 z"
             style="fill:#85bb60;fill-opacity:1;fill-rule:evenodd;stroke-width:1.06666672" />
          <path
             inkscape:connector-curvature="0"
             id="path115-9-3-3-0-4"
             d="m -770.84764,427.27436 c 4.81064,-1.72333 9.03048,-2.76877 12.65955,-3.13086 3.72164,-0.45466 5.7635,-0.0898 6.12558,1.08899 0.45466,1.18156 -0.8603,2.81233 -3.94759,4.90047 -2.99473,1.99558 -6.89877,3.90132 -11.70668,5.71722 -4.81062,1.72333 -9.02775,2.76875 -12.65954,3.13084 -3.72163,0.36209 -5.7635,-0.0463 -6.12559,-1.22511 -0.45466,-1.17883 0.86303,-2.76876 3.94761,-4.76434 3.08456,-2.08815 6.9886,-3.99388 11.70666,-5.71721 z"
             style="fill:#85bb60;fill-opacity:1;fill-rule:evenodd;stroke-width:1.06666672" />
          <path
             inkscape:connector-curvature="0"
             id="path117-5-3-1-5-1"
             d="m -656.77559,412.84519 c 3.08729,-2.08813 6.98861,-3.99387 11.70667,-5.7172 4.71806,-1.72335 8.94063,-2.81234 12.65954,-3.267 3.62908,-0.36209 5.67094,0.0463 6.12559,1.22512 0.45466,1.2714 -0.86031,2.9049 -3.9476,4.90048 -2.99473,1.99559 -6.89604,3.85776 -11.70667,5.58109 -4.71807,1.72333 -8.93792,2.81233 -12.65955,3.26698 -3.62907,0.36209 -5.67093,-0.0463 -6.12558,-1.22511 -0.45194,-1.17884 0.86302,-2.76877 3.9476,-4.76436 z"
             style="fill:#85bb60;fill-opacity:1;fill-rule:evenodd;stroke-width:1.06666672" />
        </g>
      </g>
    </g>
    <g
       id="g4976"
       transform="matrix(1.1683665,0,0,1.1683665,192.45764,-182.17198)">
      <path
         id="path4194"
         d="m 31.828393,676.36279 c -68.82669,0 -124.621737,40.76261 -124.621737,91.08637 0,1.97382 0.13376,3.94231 0.302901,5.88492 l -1.125056,0.0865 c 2.089366,84.06923 -28.988631,182.70987 -19.212521,185.1152 31.034413,7.63571 295.36078,14.96684 291.47639,0 -12.89124,-49.67213 -15.38904,-129.32063 -24.232,-174.60025 1.33453,-5.34336 2.03376,-10.86128 2.03376,-16.48642 0,-50.32377 -55.79505,-91.08637 -124.621737,-91.08637 z"
         style="fill:#4d3623;fill-opacity:1;fill-rule:nonzero;stroke:none;stroke-width:1.06666672"
         inkscape:connector-curvature="0" />
      <path
         id="path3352-0-2-4-5-6-0-0-9-0-5-3-2-7-2-2-0-4"
         d="m 120.03253,868.31534 c -0.52425,0.0263 -1.05013,0.0581 -1.57667,0.13709 -29.985961,4.48336 -19.950734,84.82144 -9.69999,129.69876 24.82592,-6.41793 48.17866,-14.94559 69.64795,-25.22683 C 168.35659,926.9781 145.60249,867.01977 120.03253,868.31533 Z"
         style="fill:#e8aebb;fill-opacity:1;stroke:#000000;stroke-width:2.49256802;stroke-linecap:butt;stroke-linejoin:miter;stroke-miterlimit:4;stroke-dasharray:none;stroke-opacity:1"
         inkscape:connector-curvature="0" />
      <g
         transform="matrix(1.0105772,0.18991273,-0.18991273,1.0105772,-31.507412,-15.734745)"
         inkscape:transform-center-y="60.925122"
         inkscape:transform-center-x="30.312741"
         id="g3915">
        <ellipse
           style="fill:#bb9a7a;fill-opacity:1;fill-rule:evenodd;stroke:#000000;stroke-width:2.44880772;stroke-linecap:round;stroke-linejoin:round;stroke-miterlimit:4;stroke-dasharray:none;stroke-dashoffset:0;stroke-opacity:1"
           id="path3954-8-5-7-3-4-8-9-1-7-1-6-4-9-4-8-7-3-1-8-9-9-8-2-5-6-4"
           transform="matrix(0.59525913,0.8035338,-0.90617325,0.42290666,0,0)"
           cx="977.71875"
           cy="508.90839"
           rx="19.920557"
           ry="20.452885" />
        <path
           style="fill:#e8aebb;fill-opacity:1;stroke:#000000;stroke-width:2.42404723;stroke-linecap:butt;stroke-linejoin:miter;stroke-miterlimit:4;stroke-dasharray:none;stroke-opacity:1"
           d="m 89.234691,982.77166 c 2.28832,-40.01771 30.683989,-140.29387 63.456449,-135.39424 32.77259,4.89995 16.36956,102.99243 5.77974,140.5712 -3.91723,13.90118 -55.09851,6.85067 -69.236189,-5.17696 z"
           id="path3352-0-2-4-5-6-0-0-9-0-7-9-0-8-7-2-8-6-1"
           inkscape:connector-curvature="0"
           sodipodi:nodetypes="cssc" />
      </g>
      <path
         inkscape:connector-curvature="0"
         id="path3932-5-3-8-0-8-51-1-3-0-2-1-8-9-8-4-7-3-4-6-1-8-5-1-8-8-9-9-0"
         d="m 39.521514,831.06388 c -0.375967,0 -0.752857,0.033 -1.128211,0.033 -0.213209,0 -0.426573,0 -0.639773,0 -0.328607,0 -0.664003,-4.5e-4 -0.993379,0 v 0.0812 c -25.170835,1.37101 -48.488684,16.40828 -64.115328,35.39168 -33.494414,40.42071 -46.268518,93.65633 -47.396265,144.74064 0.879987,13.1026 -1.691163,28.8308 3.855787,40.1922 20.155372,12.3074 55.697019,14.3674 79.9252379,17.2436 6.4298681,0.2863 16.6425391,0.3659 27.7305681,0.4273 v 0.033 c 1.163539,0 2.270459,0 3.41795,-0.033 0.112617,-3e-4 0.224014,8e-4 0.336635,0 11.088032,-0.062 21.300704,-0.1403 27.730558,-0.4273 24.228385,-2.8762 59.769886,-4.9362 79.925236,-17.2436 5.54695,-11.3614 2.97582,-27.0896 3.8558,-40.1922 -1.1276,-51.08438 -13.9017,-104.31998 -47.39627,-144.7407 C 89.003423,847.58603 65.685573,832.54897 40.514736,831.17795 v -0.11424 c -0.329374,-3.1e-4 -0.664615,0 -0.993376,0 z"
         style="fill:#e8aebb;fill-opacity:1;fill-rule:evenodd;stroke:#000000;stroke-width:2.54271817;stroke-linecap:round;stroke-linejoin:round;stroke-miterlimit:4;stroke-dasharray:none;stroke-dashoffset:0;stroke-opacity:1" />
      <path
         sodipodi:nodetypes="cscc"
         inkscape:connector-curvature="0"
         id="path4010-7-1-8-9-8-8-6-7-4-9-6-5-3-4-6-3-4-6-4-2-2-6-8-5-6-9-8"
         d="m 21.77256,1068.6338 c 0,0 38.928402,-16.3753 56.748441,17.8593 23.971759,46.0527 -10.857349,68.9116 -10.857349,68.9116 -9.31859,9.2036 -61.8326749,-80.1247 -45.891092,-86.7709 z"
         style="fill:#e6e6e6;fill-opacity:1;stroke:#000000;stroke-width:2.61888528;stroke-linecap:butt;stroke-linejoin:miter;stroke-miterlimit:4;stroke-dasharray:none;stroke-opacity:1" />
      <rect
         ry="94.334511"
         rx="108.97262"
         y="698.10333"
         x="-75.442062"
         height="195.17487"
         width="227.70401"
         id="rect4240-8-9-5-1-5-0-6-1-8-0-5-9-7-2-1-5-6-5-5-1-5-8-1"
         style="fill:#bb9a7a;fill-opacity:1;fill-rule:evenodd;stroke:#000000;stroke-width:2.49256802;stroke-linecap:round;stroke-linejoin:bevel;stroke-miterlimit:4;stroke-dasharray:none;stroke-dashoffset:0;stroke-opacity:1" />
      <path
         sodipodi:nodetypes="cssssscccccc"
         inkscape:connector-curvature="0"
         id="path4493-9-8-9-0-8-8-3-7"
         d="m -79.231113,807.01526 c -1.476569,-7.41447 -2.018835,-19.88388 -1.246851,-28.67739 2.16139,-24.6204 13.381479,-47.53138 32.075406,-65.4964 19.224009,-18.47437 42.5467948,-29.48653 70.658419,-33.36192 31.382251,-4.32628 65.303701,3.45103 90.562489,20.76343 23.91302,16.3903 40.65847,41.1626 46.11825,68.2255 2.1853,10.83173 1.53765,38.50785 -0.95743,40.91054 -14.941,-23.79422 -48.61795,-42.07143 -78.460272,-42.14875 -55.568125,-3.99671 -100.189705,12.92627 -148.454023,38.02703 l -9.637238,5.06543 z"
         style="fill:#4d3623;fill-opacity:1;fill-rule:evenodd;stroke:none;stroke-width:1.06666672" />
      <circle
         style="fill:#222222;stroke:none;stroke-width:2.68251204"
         r="8.0475359"
         cy="809.17859"
         cx="15.430982"
         id="right-eye-7-2-0-7-0-0-1-9-4-8-8-9" />
      <circle
         style="fill:#222222;stroke:none;stroke-width:2.68251204"
         r="8.0475359"
         cy="809.17859"
         cx="115.9201"
         id="left-eye-6-7-5-3-9-5-5-0-5-6-1-0" />
      <path
         inkscape:connector-curvature="0"
         id="path3831-2-0-3-8-0-8-6-5"
         d="M 54.69955,836.97673 H 79.074393"
         style="fill:none;stroke:#000000;stroke-width:2.69384313;stroke-linecap:round;stroke-linejoin:round;stroke-miterlimit:4;stroke-dasharray:none;stroke-opacity:1" />
      <path
         inkscape:transform-center-y="-1.9060613"
         inkscape:transform-center-x="-2.9955151"
         transform="matrix(-0.78397712,-0.23130211,-0.23130211,0.78397712,-324.31763,588.58753)"
         d="m -531.25,380.28552 c -2.58217,1.52583 -32.44719,-23.80756 -35.43308,-24.0909 -2.98588,-0.28335 -37.08289,18.98046 -39.33198,16.99618 -2.24908,-1.98429 12.61561,-38.21606 11.96239,-41.14336 -0.65321,-2.92731 -29.51074,-29.40264 -28.31857,-32.15483 1.19216,-2.75219 40.24407,0.18874 42.82624,-1.33709 2.58217,-1.52583 18.84425,-37.1523 21.83013,-36.86895 2.98589,0.28334 12.2566,38.3327 14.50569,40.31699 2.24909,1.98429 41.15713,6.44126 41.81034,9.36856 0.65322,2.9273 -32.66907,23.50217 -33.86124,26.25436 -1.19216,2.75219 6.59226,41.13321 4.01008,42.65904 z"
         inkscape:randomized="0"
         inkscape:rounded="0.07"
         inkscape:flatsided="false"
         sodipodi:arg2="1.6654067"
         sodipodi:arg1="1.0370881"
         sodipodi:r2="31.047947"
         sodipodi:r1="63.884663"
         sodipodi:cy="325.28552"
         sodipodi:cx="-563.75"
         sodipodi:sides="5"
         id="path4376-3-6-7-1"
         style="fill:#f9acd1;fill-opacity:1;fill-rule:evenodd;stroke:#e10f9b;stroke-width:2.21987891;stroke-miterlimit:4;stroke-dasharray:none;stroke-opacity:1"
         sodipodi:type="star" />
      <path
         id="path3097-1-6-5-8-0-9-0-3-0-7-6-0-6-6-0-8-7-9"
         d="m -98.000075,1025.5562 c -27.967615,41.7434 20.79222,74.5836 82.037296,114.3428 0.135174,0.2289 0.295868,0.4143 0.501049,0.551 0.212367,0.1438 0.478587,0.2263 0.757901,0.2634 0.311639,0.2025 0.615557,0.3916 0.927394,0.5942 l 0.507311,-0.7725 c 6.1443197,-1.8552 20.4046013,-17.114 34.478655,-37.3873 15.978644,-23.0177 25.746994,-43.8764 22.07964,-47.0006 l 0.0098,-0.018 c -0.04815,-0.028 -0.09246,-0.055 -0.133096,-0.096 -0.0126,-0.011 -0.01288,-0.011 -0.01931,-0.014 -0.01315,-0.011 -0.01315,-0.011 -0.01986,-0.013 -62.18966,-40.3518 -112.367665,-73.37866 -141.125206,-30.456 z"
         style="fill:#704946;fill-opacity:1;fill-rule:evenodd;stroke:#000000;stroke-width:2.5150373;stroke-linecap:round;stroke-linejoin:round;stroke-miterlimit:4;stroke-dasharray:none;stroke-dashoffset:0;stroke-opacity:1"
         inkscape:connector-curvature="0" />
      <path
         inkscape:connector-curvature="0"
         id="path3954-8-5-7-3-4-8-9-1-7-1-6-4-9-4-8-7-37-5-2-3-1-5-0-7-3"
         d="m 158.6611,965.07533 c -19.14471,-0.78796 -38.28103,20.25603 -29.57983,39.07417 10.80021,22.9921 48.29503,20.9347 58.71406,-1.3368 8.29564,-15.35384 -3.84544,-35.03153 -20.29114,-37.15475 -2.91853,-0.45156 -5.87525,-0.76436 -8.84309,-0.58262 z"
         style="fill:#e8aebb;fill-opacity:1;fill-rule:evenodd;stroke:#000000;stroke-width:2.49256802;stroke-linecap:round;stroke-linejoin:round;stroke-miterlimit:4;stroke-dasharray:none;stroke-dashoffset:0;stroke-opacity:1" />
      <path
         inkscape:connector-curvature="0"
         style="fill:#704946;fill-opacity:1;fill-rule:evenodd;stroke:#000000;stroke-width:2.5150373;stroke-linecap:round;stroke-linejoin:round;stroke-miterlimit:4;stroke-dasharray:none;stroke-dashoffset:0;stroke-opacity:1"
         d="m 195.55668,1034.4483 c 15.65889,47.744 -40.15658,66.2002 -109.861688,87.9478 -0.191954,0.1838 -0.396731,0.319 -0.631219,0.3953 -0.243308,0.082 -0.521878,0.088 -0.800852,0.05 -0.354767,0.1108 -0.698423,0.2108 -1.053397,0.3218 l -0.279918,-0.8807 c -5.415243,-3.4455 -15.026332,-21.9875 -23.104224,-45.3078 -9.170813,-26.4769 -12.944855,-49.1984 -8.570208,-51.2164 l -0.0045,-0.019 c 0.05407,-0.014 0.103862,-0.028 0.154214,-0.057 0.01514,-0.01 0.01547,-0.01 0.02215,-0.01 0.01569,-0.01 0.01569,-0.01 0.02238,-0.01 70.774972,-22.0641 128.006352,-40.31714 144.107472,8.7757 z"
         id="use3919" />
      <path
         sodipodi:nodetypes="cscc"
         inkscape:connector-curvature="0"
         id="path4010-1-9-1-1-1-9-9-3-8-3-5-6-6-7-2-6-5-8-8-8-5-3-7-9-9-8-0-8"
         d="m 81.765892,1108.1724 c 0,0 -22.794206,-32.412 -53.929616,-13.9806 -41.88356,24.7939 -25.5615677,60.3363 -25.5615677,60.3363 2.8354613,11.9709 88.8548087,-33.1309 79.4911837,-46.3557 z"
         style="fill:#e6e6e6;fill-opacity:1;stroke:#000000;stroke-width:2.55428052;stroke-linecap:butt;stroke-linejoin:miter;stroke-miterlimit:4;stroke-dasharray:none;stroke-opacity:1" />
      <path
         id="path3954-8-5-7-3-4-8-9-1-7-1-6-4-9-4-8-7-37-5-2-3-1-5-8-7"
         d="m 150.52294,1019.9761 c 10.52532,4.9121 24.51678,1.525 31.25083,-7.5652 6.73405,-9.0902 3.66064,-20.44126 -6.86466,-25.35336 -10.52531,-4.91211 -24.5168,-1.52512 -31.25085,7.56507 -6.73405,9.09019 -3.66062,20.44139 6.86468,25.35349 z"
         style="fill:#bb9a7a;fill-opacity:1;fill-rule:evenodd;stroke:#000000;stroke-width:2.49256802;stroke-linecap:round;stroke-linejoin:round;stroke-miterlimit:4;stroke-dashoffset:0;stroke-opacity:1"
         inkscape:connector-curvature="0" />
    </g>
  </g>
</svg>
