<?xml version="1.0" encoding="UTF-8" standalone="no"?>
<!-- Created with Inkscape (http://www.inkscape.org/) -->

<svg
   xmlns:dc="http://purl.org/dc/elements/1.1/"
   xmlns:cc="http://creativecommons.org/ns#"
   xmlns:rdf="http://www.w3.org/1999/02/22-rdf-syntax-ns#"
   xmlns:svg="http://www.w3.org/2000/svg"
   xmlns="http://www.w3.org/2000/svg"
   xmlns:sodipodi="http://sodipodi.sourceforge.net/DTD/sodipodi-0.dtd"
   xmlns:inkscape="http://www.inkscape.org/namespaces/inkscape"
   id="svg2"
   viewBox="0 0 271.32 233.84"
   sodipodi:docname="simple-characters.svg"
   version="1.1"
   inkscape:version="0.92.1 r15371"
   width="289.40802"
   height="249.42934">
  <defs
     id="defs4">
    <linearGradient
       id="linearGradient5208"
       y2="123.53"
       gradientUnits="userSpaceOnUse"
       x2="65.570999"
       y1="139.58"
       x1="57.548"
       inkscape:collect="always">
      <stop
         id="stop4347"
         style="stop-color:#624bb0"
         offset="0" />
      <stop
         id="stop4349"
         style="stop-color:#b51551"
         offset="1" />
    </linearGradient>
  </defs>
  <sodipodi:namedview
     id="base"
     fit-margin-left="0"
     inkscape:showpageshadow="false"
     inkscape:zoom="2"
     borderopacity="1.0"
     inkscape:current-layer="layer1"
     inkscape:cx="-33.938587"
     inkscape:cy="-720.51835"
     inkscape:window-maximized="0"
     showgrid="true"
     fit-margin-right="0"
     inkscape:document-units="px"
     bordercolor="#666666"
     inkscape:window-x="0"
     inkscape:window-y="0"
     fit-margin-bottom="0"
     inkscape:window-width="512"
     inkscape:pageopacity="0.0"
     inkscape:pageshadow="2"
     pagecolor="#ffffff"
     inkscape:window-height="452"
     fit-margin-top="0">
    <inkscape:grid
       id="grid2985"
       empopacity="0.25098039"
       dotted="true"
       originy="-690.51833"
       enabled="true"
       originx="-9.0378162"
       visible="false"
       snapvisiblegridlinesonly="true"
       empcolor="#000000"
       type="xygrid"
       empspacing="5"
       spacingx="0.99999993"
       spacingy="0.99999999" />
  </sodipodi:namedview>
  <g
     id="layer1"
     inkscape:label="Layer 1"
     inkscape:groupmode="layer"
     transform="translate(-9.0378,-946.52)">
    <g
       id="g5226">
      <rect
         id="rect3965"
         style="fill:#5b5cb5;fill-rule:evenodd;stroke:#000000;stroke-linecap:round;stroke-linejoin:round"
         rx="12.577"
         ry="4.6153998"
         height="36.923"
         width="54.5"
         y="1015.4"
         x="22.5" />
      <path
         id="path3941"
         d="m 50,1052.4 v -20"
         style="fill:none;stroke:#000000;stroke-linecap:round;stroke-linejoin:round"
         inkscape:connector-curvature="0" />
      <ellipse
         id="path3954-8-5-7-3-4-8-9-1-79-8-4-8-6-4-2"
         style="fill:#9f836c;fill-rule:evenodd;stroke:#000000;stroke-width:26.06399918;stroke-linecap:round;stroke-linejoin:round"
         transform="matrix(0.032966,0.01429,-0.024353,0.034097,133.53,1038.9)"
         cx="-1200"
         cy="429.36218"
         rx="136"
         ry="119" />
      <path
         id="path4495"
         d="m 17,972.36 v 45 c 0,10 68,11.18 68,0 0,-20 -5,-50 -10,-50 H 27 22"
         sodipodi:nodetypes="cssscc"
         style="fill:#4d3623;stroke:#000000;stroke-width:1px"
         inkscape:connector-curvature="0" />
      <path
         id="path4048-5-7"
         sodipodi:nodetypes="cccc"
         d="m 72.056,1000.5 c 9.8201,-1.8882 14.541,22.662 16.429,32.482 0.94416,4.91 -18.696,8.6867 -19.64,3.7766 -1.8883,-9.8201 -6.6091,-34.37 3.211,-36.259 z"
         inkscape:transform-center-x="-4.2800108"
         inkscape:transform-center-y="14.314972"
         inkscape:connector-curvature="0"
         style="fill:#d0b4c4;stroke:#000000;stroke-width:1px" />
      <ellipse
         id="path3954-8-5-7-3-4-8-9-1-79-8-4-8-6-4-2-2"
         style="fill:#9f836c;fill-rule:evenodd;stroke:#000000;stroke-width:26.06399918;stroke-linecap:round;stroke-linejoin:round"
         transform="matrix(-0.032966,0.01429,0.024353,0.034097,-30.914,1038.8)"
         cx="-1200"
         cy="429.36218"
         rx="136"
         ry="119" />
      <path
         id="path4048-5-7-7"
         sodipodi:nodetypes="cccc"
         d="m 29,1000.4 c -9.8201,-1.8882 -14.541,22.662 -16.429,32.482 -0.94416,4.91 18.696,8.6867 19.64,3.7766 1.8883,-9.8201 6.6091,-34.37 -3.211,-36.259 z"
         inkscape:transform-center-x="4.280011"
         inkscape:transform-center-y="14.314972"
         inkscape:connector-curvature="0"
         style="fill:#d0b4c4;stroke:#000000;stroke-width:1px" />
      <path
         id="path3932-5-3-8-0-8-0-1"
         d="m 50.699,988.77 c -0.09292,0 -0.18615,0.0116 -0.27891,0.0116 H 50.26191 50.0163 v 0.0196 c -6.2233,0.3314 -11.989,3.9666 -15.852,8.556 -8.2813,9.772 -11.44,22.642 -11.718,34.992 0.21757,3.1675 -0.41814,6.9699 0.95329,9.7164 4.9833,2.9755 13.771,3.4734 19.761,4.1689 1.5897,0.07 4.1147,0.089 6.8562,0.103 v 0.012 c 0.28767,0 0.56136,0 0.84506,-0.012 0.02788,0 0.05531,2e-4 0.08331,0 2.7415,-0.014 5.2665,-0.033 6.8562,-0.103 5.9903,-0.6955 14.778,-1.1934 19.761,-4.1689 1.3714,-2.7465 0.73572,-6.5489 0.9533,-9.7164 -0.27879,-12.35 -3.4371,-25.22 -11.718,-34.992 -3.8636,-4.5894 -9.6288,-8.2246 -15.852,-8.556 v -0.0278 h -0.2456 z"
         style="fill:#d0b4c4;fill-rule:evenodd;stroke:#000000;stroke-linecap:round;stroke-linejoin:round"
         inkscape:connector-curvature="0" />
      <rect
         id="rect3030"
         style="fill:#9f8368;fill-rule:evenodd;stroke:#000000;stroke-linecap:round;stroke-linejoin:round"
         rx="32.5"
         ry="25"
         height="50"
         width="65"
         y="959.35999"
         x="17" />
      <path
         id="path4010-7-1-8-9-2-5-5"
         d="m 75.718,1052.7 c -0.14006,-3.5056 -2.3307,-7.11 -5.8092,-8.1412 -3.2623,-0.9899 -6.7372,-0.4447 -9.9951,0.2708 -2.8592,0.7751 -5.6814,2.4387 -7.0514,5.1622 -0.28312,0.8584 -0.98858,1.7523 -0.60852,2.6828 0.68906,0.7143 1.8368,0.5616 2.7511,0.7047 6.4921,0.3823 13.028,0.4619 19.501,-0.2481 0.42379,-0.074 0.84821,-0.1951 1.2122,-0.4312 z"
         style="fill:#666666;stroke:#000000"
         inkscape:connector-curvature="0" />
      <path
         id="path4010-7-1-8-9-2-5-5-3"
         d="m 24.299,1052.7 c 0.13662,-3.4195 2.2736,-6.9355 5.6667,-7.9414 3.1822,-0.9656 6.5719,-0.4338 9.7499,0.2642 2.7891,0.756 5.542,2.3789 6.8784,5.0355 0.27617,0.8374 0.96432,1.7093 0.59359,2.617 -0.67215,0.6967 -1.7917,0.5478 -2.6836,0.6874 -6.3328,0.3729 -12.708,0.4506 -19.023,-0.242 -0.4134,-0.072 -0.8274,-0.1903 -1.1824,-0.4207 z"
         style="fill:#666666;stroke:#000000"
         inkscape:connector-curvature="0" />
      <path
         id="path3987"
         sodipodi:r2="7.6587243"
         style="fill:url(#linearGradient5208);stroke:#dac8be;stroke-width:1.03670001"
         sodipodi:type="star"
         d="m 75,145 c -0.774933,0.77493 -7.719484,-2.60701 -8.801912,-2.43557 -1.082427,0.17144 -6.642011,5.53384 -7.618483,5.03631 -0.976472,-0.49754 0.09396,-8.14728 -0.403578,-9.12375 -0.497538,-0.97647 -7.315489,-4.60688 -7.144049,-5.68931 0.171439,-1.08243 7.777554,-2.42828 8.552486,-3.20322 0.774933,-0.77493 2.120791,-8.38104 3.203219,-8.55248 1.082427,-0.17144 4.712833,6.64651 5.689305,7.14405 0.976472,0.49753 8.62621,-0.5729 9.123747,0.40357 0.497537,0.97648 -4.864863,6.53606 -5.036302,7.61849 -0.17144,1.08243 3.2105,8.02698 2.435567,8.80191 z"
         sodipodi:r1="14.142136"
         inkscape:transform-center-x="0.63150627"
         inkscape:transform-center-y="-0.63153146"
         transform="matrix(0.48228,0,0,0.48228,29.004,952.68)"
         sodipodi:arg2="1.4137167"
         sodipodi:arg1="0.78539816"
         inkscape:randomized="0"
         sodipodi:cy="135"
         sodipodi:cx="65"
         inkscape:rounded="0.12"
         inkscape:flatsided="false"
         sodipodi:sides="5" />
      <circle
         id="path4283"
         style="fill:#000000;fill-rule:evenodd"
         transform="matrix(0.8,0,0,0.8,-5.5,864.36)"
         cx="52.5"
         cy="152.5"
         r="2.5" />
      <circle
         id="path4283-7"
         style="fill:#000000;fill-rule:evenodd"
         transform="matrix(0.8,0,0,0.8,20.5,864.36)"
         cx="52.5"
         cy="152.5"
         r="2.5" />
      <path
         id="path4303"
         d="m 47,995.36 h 6.6667"
         sodipodi:nodetypes="cc"
         style="fill:none;stroke:#000000;stroke-width:1.5;stroke-linecap:round;stroke-linejoin:round"
         inkscape:connector-curvature="0" />
      <path
         id="path4493"
         d="m 16.386,982.25 c -0.40424,-2.0297 -0.55266,-5.4433 -0.34133,-7.8505 0.59167,-6.7399 3.6632,-13.012 8.7808,-17.93 5.2626,-5.0574 11.647,-8.072 19.343,-9.133 8.591,-1.1844 17.877,0.9447 24.792,5.6841 6.5463,4.4869 11.13,11.268 12.625,18.677 0.59823,2.9653 0.42093,10.542 -0.26208,11.199 -0.05179,0.0499 -4.4609,-2.0302 -9.7981,-4.6224 -12.894,-6.2625 -15.046,-6.93 -22.295,-6.916 -4.9695,0.01 -7.6299,0.42489 -11.422,1.7833 -2.6084,0.93429 -14.157,6.2893 -18.604,8.6267 l -2.6383,1.3867 -0.18033,-0.90544 z"
         style="fill:#4d3623;fill-rule:evenodd;stroke:#000000"
         inkscape:connector-curvature="0" />
    </g>
    <rect
       id="rect3965-1"
       style="fill:#5b5cb5;fill-rule:evenodd;stroke:#000000;stroke-linecap:round;stroke-linejoin:round"
       rx="12.577"
       ry="4.6153998"
       height="36.923"
       width="54.5"
       y="1015.4"
       x="213.5" />
    <path
       id="path3941-8"
       style="fill:none;stroke:#000000;stroke-linecap:round;stroke-linejoin:round"
       inkscape:connector-curvature="0"
       d="m 241,1052.4 v -20" />
    <ellipse
       id="path3954-8-5-7-3-4-8-9-1-79-8-4-8-6-4-2-3"
       style="fill:#ab926c;fill-rule:evenodd;stroke:#000000;stroke-width:26.06399918;stroke-linecap:round;stroke-linejoin:round"
       transform="matrix(0.032966,0.01429,-0.024353,0.034097,324.53,1038.9)"
       cx="-1200"
       cy="429.36218"
       rx="136"
       ry="119" />
    <path
       id="path4048-5-7-50"
       style="fill:#848cb7;stroke:#000000;stroke-width:1px"
       d="m 263.06,1000.5 c 9.8201,-1.8882 14.541,22.662 16.429,32.482 0.94416,4.91 -18.696,8.6867 -19.64,3.7766 -1.8883,-9.8201 -6.6091,-34.37 3.211,-36.259 z"
       inkscape:transform-center-x="-4.2800108"
       sodipodi:nodetypes="cccc"
       inkscape:transform-center-y="14.314972"
       inkscape:connector-curvature="0" />
    <ellipse
       id="path3954-8-5-7-3-4-8-9-1-79-8-4-8-6-4-2-2-8"
       style="fill:#ab926c;fill-rule:evenodd;stroke:#000000;stroke-width:26.06399918;stroke-linecap:round;stroke-linejoin:round"
       transform="matrix(-0.032966,0.01429,0.024353,0.034097,160.09,1038.8)"
       cx="-1200"
       cy="429.36218"
       rx="136"
       ry="119" />
    <path
       id="path4048-5-7-7-6"
       style="fill:#848cb7;stroke:#000000;stroke-width:1px"
       d="m 220,1000.4 c -9.8201,-1.8882 -14.541,22.662 -16.429,32.482 -0.94417,4.91 18.696,8.6867 19.64,3.7766 1.8883,-9.8201 6.6091,-34.37 -3.211,-36.259 z"
       inkscape:transform-center-x="4.280011"
       sodipodi:nodetypes="cccc"
       inkscape:transform-center-y="14.314972"
       inkscape:connector-curvature="0" />
    <path
       id="path4044"
       style="fill:#b8c6cc;fill-rule:evenodd"
       inkscape:connector-curvature="0"
       d="m 262.96,1033.4 c -0.34517,-0.081 -0.91331,-0.2936 -1.2625,-0.4717 -0.6275,-0.3202 -0.63823,-0.3423 -0.91408,-1.8867 -0.15352,-0.8595 -0.27913,-1.6448 -0.27913,-1.7452 0,-0.123 0.25781,-0.1018 0.79167,0.065 0.43541,0.1361 1.5842,0.2887 2.5528,0.3392 4.1579,0.2168 9.3576,-0.8638 12.618,-2.6222 0.68734,-0.3708 1.2765,-0.6473 1.3093,-0.6145 0.12974,0.1298 0.75097,3.4855 0.67944,3.6703 -0.13382,0.3457 -2.6527,1.5792 -4.4596,2.1838 -2.4529,0.8208 -5.375,1.2674 -8.1579,1.2467 -1.2375,-0.01 -2.5324,-0.083 -2.8776,-0.1646 z" />
    <path
       id="path4044-8"
       style="fill:#b8c6cc;fill-rule:evenodd"
       inkscape:connector-curvature="0"
       d="m 220.01,1033.4 c 0.34517,-0.081 0.91331,-0.2936 1.2625,-0.4717 0.6275,-0.3202 0.63823,-0.3423 0.91408,-1.8867 0.15352,-0.8595 0.27913,-1.6448 0.27913,-1.7452 0,-0.123 -0.25781,-0.1018 -0.79166,0.065 -0.43542,0.1361 -1.5842,0.2887 -2.5528,0.3392 -4.1579,0.2168 -9.3576,-0.8638 -12.618,-2.6222 -0.68734,-0.3708 -1.2765,-0.6473 -1.3093,-0.6145 -0.12974,0.1298 -0.75097,3.4855 -0.67944,3.6703 0.13382,0.3457 2.6527,1.5792 4.4596,2.1838 2.4529,0.8208 5.375,1.2674 8.1579,1.2467 1.2375,-0.01 2.5324,-0.083 2.8776,-0.1646 z" />
    <path
       id="path3932-5-3-8-0-8-0-1-1"
       style="fill:#b8c6cc;fill-rule:evenodd;stroke:#000000;stroke-linecap:round;stroke-linejoin:round"
       inkscape:connector-curvature="0"
       d="m 241.7,988.77 c -0.0929,0 -0.18615,0.0116 -0.27891,0.0116 h -0.15818 -0.24561 v 0.0196 c -6.2234,0.3314 -11.989,3.9666 -15.852,8.556 -8.2813,9.772 -11.44,22.642 -11.718,34.992 0.21757,3.1675 -0.41814,6.9699 0.95329,9.7164 4.9833,2.9755 13.771,3.4734 19.761,4.1689 1.5897,0.07 4.1147,0.089 6.8562,0.103 v 0.012 c 0.28767,0 0.56136,0 0.84505,-0.012 0.0279,0 0.0553,2e-4 0.0833,0 2.7415,-0.014 5.2665,-0.033 6.8562,-0.103 5.9903,-0.6955 14.778,-1.1934 19.761,-4.1689 1.3714,-2.7465 0.73572,-6.5489 0.95329,-9.7164 -0.27878,-12.35 -3.4371,-25.22 -11.718,-34.992 -3.8636,-4.5894 -9.6288,-8.2246 -15.852,-8.556 v -0.0278 h -0.2456 z" />
    <rect
       id="rect3030-1"
       style="fill:#ab926c;fill-rule:evenodd;stroke:#000000;stroke-linecap:round;stroke-linejoin:round"
       rx="32.5"
       ry="25"
       height="50"
       width="65"
       y="959.35999"
       x="208" />
    <path
       id="path4010-7-1-8-9-2-5-5-0"
       style="fill:#48565e;stroke:#000000"
       inkscape:connector-curvature="0"
       d="m 266.72,1052.7 c -0.14006,-3.5056 -2.3307,-7.11 -5.8092,-8.1412 -3.2623,-0.9899 -6.7372,-0.4447 -9.9952,0.2708 -2.8592,0.7751 -5.6814,2.4387 -7.0514,5.1622 -0.28312,0.8584 -0.98858,1.7523 -0.60852,2.6828 0.68906,0.7143 1.8368,0.5616 2.7511,0.7047 6.4921,0.3823 13.028,0.4619 19.501,-0.2481 0.4238,-0.074 0.84822,-0.1951 1.2122,-0.4312 z" />
    <path
       id="path4010-7-1-8-9-2-5-5-3-5"
       style="fill:#48565e;stroke:#000000"
       inkscape:connector-curvature="0"
       d="m 215.3,1052.7 c 0.13663,-3.4195 2.2736,-6.9355 5.6667,-7.9414 3.1822,-0.9656 6.5719,-0.4338 9.7499,0.2642 2.7891,0.756 5.542,2.3789 6.8784,5.0355 0.27617,0.8374 0.96432,1.7093 0.59358,2.617 -0.67215,0.6967 -1.7917,0.5478 -2.6836,0.6874 -6.3328,0.3729 -12.708,0.4506 -19.023,-0.242 -0.4134,-0.072 -0.8274,-0.1903 -1.1824,-0.4207 z" />
    <circle
       id="path4283-4"
       style="fill:#000000;fill-rule:evenodd"
       transform="matrix(0.8,0,0,0.8,185.5,864.36)"
       cx="52.5"
       cy="152.5"
       r="2.5" />
    <circle
       id="path4283-7-78"
       style="fill:#000000;fill-rule:evenodd"
       transform="matrix(0.8,0,0,0.8,211.5,864.36)"
       cx="52.5"
       cy="152.5"
       r="2.5" />
    <path
       id="path4303-3"
       sodipodi:nodetypes="cc"
       style="fill:none;stroke:#000000;stroke-width:1.5;stroke-linecap:round;stroke-linejoin:round"
       inkscape:connector-curvature="0"
       d="m 238,995.36 h 6.6667" />
    <path
       id="path3934"
       sodipodi:nodetypes="ccccccccccccccccccccccccccccccc"
       style="fill:#773d33;fill-rule:evenodd"
       inkscape:connector-curvature="0"
       d="m 241.69,946.99 c -0.67731,2.8889 -3.7454,1.1988 -4.9694,0.5413 -1.7714,1.7627 -4.6776,4.3268 -6.3427,0.88555 -2.4782,-0.98125 -3.5577,5.705 -5.8395,1.5884 -0.75194,3.9264 -6.4916,0.36504 -6.4206,4.8169 -1.9626,1.8587 -7.1737,1.2999 -5.5694,5.0148 -1.7944,1.6951 -5.7028,1.0901 -5.4365,4.2593 -1.989,1.5814 -1.1094,8.2688 -1.1094,8.2688 0,0 -1.5284,3.4052 0,5 2.5166,2.0788 0.73533,1.8932 0.19385,5.0347 0.9088,1.0538 2.6462,3.727 2.775,0.95511 1.1435,-2.0613 4.5704,0.12679 5.1698,-2.9641 0.70136,-2.7948 3.1264,-3.6336 5.4495,-2.655 1.891,-1.4947 3.9388,-3.0316 6.3112,-1.5177 3.1158,0.20758 1.3632,-6.6277 4.6604,-3.5934 1.3024,1.709 3.2883,1.6569 4.3341,-0.20396 2.9343,-1.0706 7.1333,4.0033 8.4607,-0.77943 2.4589,-1.37 3.998,3.7571 6.8209,1.8287 2.5657,0.70402 5.1285,4.7979 7.5812,1.4611 3.4417,-1.9509 3.0746,4.9497 6.3258,3.1144 2.8006,-1.1637 4.2971,1.0006 3.9168,3.4994 1.4878,1.226 4.7723,-0.53407 4.6667,2.6643 3.2797,1.5463 0.89866,-5.7132 3.3342,-6.8441 2.7566,-2.3835 1.8149,-3.387 0,-5 -0.42183,-1.4469 2.2831,-4.5639 -0.40535,-3.1055 -3.5617,0.29729 -1.4015,-3.5315 -1.8648,-5.1297 -3.0201,0.97114 -2.6431,-1.4259 -1.6955,-3.331 -0.87064,-3.421 -6.1168,0.56561 -6.6404,-3.7787 -2.345,-1.3064 -3.9304,-4.3139 -6.6559,-4.9936 -3.4864,1.9023 -6.2825,-4.7904 -10.351,-2.6903 -2.6874,1.9735 -4.2992,-1.9695 -6.6995,-2.3462 z" />
    <g
       id="g4603"
       transform="translate(40)">
      <rect
         id="rect3965-8"
         style="fill:#616161;fill-rule:evenodd;stroke:#000000;stroke-linecap:round;stroke-linejoin:round"
         rx="12.577"
         ry="4.6153998"
         height="36.923"
         width="54.5"
         y="1141.4"
         x="-20.5" />
      <path
         id="path3941-6"
         d="m 7,1178.4 v -20"
         style="fill:none;stroke:#000000;stroke-linecap:round;stroke-linejoin:round"
         inkscape:connector-curvature="0" />
      <ellipse
         id="path3954-8-5-7-3-4-8-9-1-79-8-4-8-6-4-2-36"
         style="fill:#ab926c;fill-rule:evenodd;stroke:#000000;stroke-width:26.06399918;stroke-linecap:round;stroke-linejoin:round"
         transform="matrix(0.032966,0.01429,-0.024353,0.034097,90.532,1164.9)"
         cx="-1200"
         cy="429.36218"
         rx="136"
         ry="119" />
      <path
         id="path4048-5-7-1"
         sodipodi:nodetypes="cccc"
         d="m 29.056,1126.5 c 9.8201,-1.8882 14.541,22.662 16.429,32.482 0.94416,4.91 -18.696,8.6867 -19.64,3.7766 -1.8883,-9.8201 -6.6091,-34.37 3.211,-36.259 z"
         inkscape:transform-center-x="-4.2800108"
         inkscape:transform-center-y="14.314972"
         inkscape:connector-curvature="0"
         style="fill:#beb5b5;stroke:#000000;stroke-width:1px" />
      <ellipse
         id="path3954-8-5-7-3-4-8-9-1-79-8-4-8-6-4-2-2-7"
         style="fill:#ab926c;fill-rule:evenodd;stroke:#000000;stroke-width:26.06399918;stroke-linecap:round;stroke-linejoin:round"
         transform="matrix(-0.032966,0.01429,0.024353,0.034097,-73.914,1164.8)"
         cx="-1200"
         cy="429.36218"
         rx="136"
         ry="119" />
      <path
         id="path4048-5-7-7-7"
         sodipodi:nodetypes="cccc"
         d="m -14,1126.4 c -9.8201,-1.8882 -14.541,22.662 -16.429,32.482 -0.94416,4.91 18.696,8.6867 19.64,3.7766 1.8883,-9.8201 6.6091,-34.37 -3.211,-36.259 z"
         inkscape:transform-center-x="4.280011"
         inkscape:transform-center-y="14.314972"
         inkscape:connector-curvature="0"
         style="fill:#beb5b5;stroke:#000000;stroke-width:1px" />
      <path
         id="path3932-5-3-8-0-8-0-1-6"
         d="m 7.6988,1114.8 c -0.09292,0 -0.18615,0.012 -0.27891,0.012 H 7.26171 7.0161 v 0.02 c -6.2233,0.3314 -11.989,3.9666 -15.852,8.556 -8.2813,9.7719 -11.44,22.642 -11.718,34.992 0.21757,3.1675 -0.41814,6.9699 0.95329,9.7164 4.9833,2.9755 13.771,3.4734 19.761,4.1689 1.5897,0.07 4.1147,0.089 6.8562,0.103 v 0.012 c 0.28767,0 0.56136,0 0.84506,-0.012 0.02788,0 0.05531,2e-4 0.08331,0 2.7415,-0.014 5.2665,-0.033 6.8562,-0.103 5.9903,-0.6955 14.778,-1.1934 19.761,-4.1689 1.3714,-2.7465 0.73572,-6.5489 0.9533,-9.7164 -0.27879,-12.35 -3.4371,-25.22 -11.718,-34.992 -3.8636,-4.5894 -9.6288,-8.2246 -15.852,-8.556 v -0.028 h -0.2456 z"
         style="fill:#beb5b5;fill-rule:evenodd;stroke:#000000;stroke-linecap:round;stroke-linejoin:round"
         inkscape:connector-curvature="0" />
      <path
         id="path17510-1-7-0"
         sodipodi:r2="24.408302"
         transform="matrix(0.56255,0,0,0.56255,117.62,1091.4)"
         style="fill:#635140;fill-rule:evenodd;stroke:#000000;stroke-width:1.64429998;stroke-linecap:round;stroke-linejoin:round"
         sodipodi:type="star"
         d="m -129.37339,10.138043 c -1.33379,4.445952 -4.63838,1.138083 -7.17071,5.028169 -2.53234,3.890086 1.82995,5.57314 -1.69577,8.592208 -3.52572,3.019069 -4.51735,-1.550281 -8.75082,0.353183 -4.23348,1.903465 -1.47361,5.677774 -6.07187,6.311426 -4.59826,0.633652 -2.96209,-3.746442 -7.55261,-4.433936 -4.59051,-0.687494 -4.30931,3.979754 -8.52019,2.02681 -4.21088,-1.952944 -0.46639,-4.753135 -3.95649,-7.813312 -3.4901,-3.060178 -5.77684,1.018191 -8.26342,-2.901304 -2.48658,-3.919494 2.17739,-4.25074 0.89578,-8.7120162 -1.2816,-4.4612767 -5.41026,-2.2666406 -5.38306,-6.9082736 0.0272,-4.6416329 4.12986,-2.39876539 5.46365,-6.8447171 1.3338,-4.4459518 -3.32597,-4.8318297 -0.79363,-8.7219161 2.53234,-3.890086 4.77113,0.2148 8.29685,-2.804268 3.52572,-3.019069 -0.1857,-5.862947 4.04778,-7.766411 4.23348,-1.903464 3.8976,2.760168 8.49586,2.126515 4.59826,-0.633652 3.01353,-5.03262 7.60405,-4.345126 4.59051,0.687494 1.78661,4.429202 5.99748,6.382146 4.21088,1.952944 5.25599,-2.604472 8.74609,0.455706 3.4901,3.060178 -0.89162,4.691996 1.59496,8.61149 2.48658,3.9194946 5.8297,0.650578 7.1113,5.1118548 1.2816,4.4612767 -3.28676,3.4651141 -3.31396,8.106747 -0.0272,4.641633 4.55253,3.6990736 3.21873,8.1450252 z"
         sodipodi:r1="28.843048"
         inkscape:flatsided="false"
         inkscape:transform-center-y="0.031874529"
         sodipodi:arg1="0.29145876"
         sodipodi:arg2="0.57705809"
         inkscape:randomized="0"
         sodipodi:cy="1.85"
         sodipodi:cx="-157"
         inkscape:rounded="0.53"
         inkscape:transform-center-x="-0.0088475601"
         sodipodi:sides="11" />
      <path
         id="path17510-1-8"
         sodipodi:r2="24.408302"
         transform="matrix(0.56255,0,0,0.56255,74.717,1090.3)"
         style="fill:#635140;fill-rule:evenodd;stroke:#000000;stroke-width:1.64429998;stroke-linecap:round;stroke-linejoin:round"
         sodipodi:type="star"
         d="m -129.37339,10.138043 c -1.33379,4.445952 -4.63838,1.138083 -7.17071,5.028169 -2.53234,3.890086 1.82995,5.57314 -1.69577,8.592208 -3.52572,3.019069 -4.51735,-1.550281 -8.75082,0.353183 -4.23348,1.903465 -1.47361,5.677774 -6.07187,6.311426 -4.59826,0.633652 -2.96209,-3.746442 -7.55261,-4.433936 -4.59051,-0.687494 -4.30931,3.979754 -8.52019,2.02681 -4.21088,-1.952944 -0.46639,-4.753135 -3.95649,-7.813312 -3.4901,-3.060178 -5.77684,1.018191 -8.26342,-2.901304 -2.48658,-3.919494 2.17739,-4.25074 0.89578,-8.7120162 -1.2816,-4.4612767 -5.41026,-2.2666406 -5.38306,-6.9082736 0.0272,-4.6416329 4.12986,-2.39876539 5.46365,-6.8447171 1.3338,-4.4459518 -3.32597,-4.8318297 -0.79363,-8.7219161 2.53234,-3.890086 4.77113,0.2148 8.29685,-2.804268 3.52572,-3.019069 -0.1857,-5.862947 4.04778,-7.766411 4.23348,-1.903464 3.8976,2.760168 8.49586,2.126515 4.59826,-0.633652 3.01353,-5.03262 7.60405,-4.345126 4.59051,0.687494 1.78661,4.429202 5.99748,6.382146 4.21088,1.952944 5.25599,-2.604472 8.74609,0.455706 3.4901,3.060178 -0.89162,4.691996 1.59496,8.61149 2.48658,3.9194946 5.8297,0.650578 7.1113,5.1118548 1.2816,4.4612767 -3.28676,3.4651141 -3.31396,8.106747 -0.0272,4.641633 4.55253,3.6990736 3.21873,8.1450252 z"
         sodipodi:r1="28.843048"
         inkscape:flatsided="false"
         inkscape:transform-center-y="0.031874529"
         sodipodi:arg1="0.29145876"
         sodipodi:arg2="0.57705809"
         inkscape:randomized="0"
         sodipodi:cy="1.85"
         sodipodi:cx="-157"
         inkscape:rounded="0.53"
         inkscape:transform-center-x="-0.0088475601"
         sodipodi:sides="11" />
      <rect
         id="rect3030-4"
         style="fill:#ab926c;fill-rule:evenodd;stroke:#000000;stroke-linecap:round;stroke-linejoin:round"
         rx="32.5"
         ry="25"
         height="50"
         width="65"
         y="1085.4"
         x="-26" />
      <path
         id="path4010-7-1-8-9-2-5-5-2"
         d="m 32.718,1178.7 c -0.14006,-3.5056 -2.3307,-7.11 -5.8092,-8.1412 -3.2623,-0.9899 -6.7372,-0.4447 -9.9951,0.2708 -2.8592,0.7751 -5.6814,2.4387 -7.0514,5.1622 -0.28312,0.8584 -0.98858,1.7523 -0.60852,2.6828 0.68906,0.7143 1.8368,0.5616 2.7511,0.7047 6.4921,0.3823 13.028,0.4619 19.501,-0.2481 0.42379,-0.074 0.84821,-0.1951 1.2122,-0.4312 z"
         style="fill:#869898;stroke:#000000"
         inkscape:connector-curvature="0" />
      <path
         id="path4010-7-1-8-9-2-5-5-3-1"
         d="m -18.701,1178.7 c 0.13662,-3.4195 2.2736,-6.9355 5.6667,-7.9414 3.1822,-0.9656 6.5719,-0.4338 9.7499,0.2642 2.7891,0.756 5.542,2.3789 6.8784,5.0355 0.27617,0.8374 0.96432,1.7093 0.59359,2.617 -0.67215,0.6967 -1.7917,0.5478 -2.6836,0.6874 -6.3328,0.3729 -12.708,0.4506 -19.023,-0.242 -0.4134,-0.072 -0.8274,-0.1903 -1.1824,-0.4207 z"
         style="fill:#869898;stroke:#000000"
         inkscape:connector-curvature="0" />
      <circle
         id="path4283-5"
         style="fill:#000000;fill-rule:evenodd"
         transform="matrix(0.8,0,0,0.8,-48.5,990.36)"
         cx="52.5"
         cy="152.5"
         r="2.5" />
      <circle
         id="path4283-7-0"
         style="fill:#000000;fill-rule:evenodd"
         transform="matrix(0.8,0,0,0.8,-22.5,990.36)"
         cx="52.5"
         cy="152.5"
         r="2.5" />
      <path
         id="path4303-8"
         d="m 4,1121.4 h 6.6667"
         sodipodi:nodetypes="cc"
         style="fill:none;stroke:#000000;stroke-width:1.5;stroke-linecap:round;stroke-linejoin:round"
         inkscape:connector-curvature="0" />
      <path
         id="path4199"
         d="m -23.417,1101.3 c 0,-0.2308 1.3928,-2.8521 2.1129,-3.9765 5.067,-7.9117 13.356,-13.236 22.804,-14.646 1.9625,-0.2929 7.7042,-0.2929 9.6667,0 9.7506,1.4554 18.163,6.9958 23.187,15.271 0.49313,0.8123 0.89661,1.5268 0.89661,1.5878 0,0.061 -0.83054,-0.2954 -1.8456,-0.792 -5.9932,-2.9316 -13.433,-4.7989 -21.404,-5.3717 -12.734,-0.9152 -26.284,2.0676 -34.875,7.6767 -0.29791,0.1945 -0.54166,0.3071 -0.54166,0.2502 z"
         style="fill:#635140;fill-rule:evenodd;stroke:#000000"
         inkscape:connector-curvature="0" />
      <path
         id="path4646"
         d="m 25.889,1163.8 c -1.1019,-0.5823 -1.3215,-0.9377 -3.6599,-5.9248 -0.39304,-0.8382 -1.2302,-1.7123 -1.7697,-1.8477 -0.98797,-0.248 -1.7321,0.6196 -3.0518,3.5581 -0.9997,2.2259 -1.8182,3.503 -2.5796,4.0247 -0.63989,0.4385 -0.85703,0.4438 -1.5232,0.038 -0.79442,-0.4844 -1.3097,-1.268 -2.4746,-3.7634 -1.2126,-2.5976 -1.6336,-3.2744 -2.2711,-3.651 -1.1629,-0.6869 -1.9699,0.063 -3.3944,3.1557 -1.1927,2.5892 -1.8902,3.6965 -2.6552,4.2152 -0.53556,0.3631 -0.59914,0.3709 -1.043,0.1283 -1.1508,-0.6289 -1.7373,-1.4696 -2.968,-4.2546 -2.1638,-4.8963 -3.4834,-4.8836 -5.6783,0.055 -1.0403,2.3405 -1.8612,3.6017 -2.6045,4.0009 -1.3561,0.7285 -2.3984,-0.317 -4.0562,-4.0684 -1.0697,-2.4205 -2.0311,-3.6643 -2.8323,-3.6643 -0.718,0 -1.756,1.2414 -2.5087,3.0003 l -0.65796,1.5375 -0.04647,-2.284 c -0.02556,-1.2562 0.02325,-2.6335 0.10846,-3.0606 0.18813,-0.9429 1.8879,-4.7333 2.4596,-5.4849 0.22663,-0.2979 0.51693,-0.5416 0.6451,-0.5416 0.39448,0 1.0507,1.0348 1.9813,3.1247 1.3385,3.0056 2.3801,4.3086 3.782,4.7312 0.50268,0.1515 0.69947,0.1268 1.25,-0.1573 1.3251,-0.6836 2.1782,-1.8732 3.4836,-4.8581 0.80718,-1.8456 1.453,-2.8405 1.8439,-2.8405 0.39162,0 1.1163,1.158 2.0457,3.269 0.47968,1.0895 1.1331,2.3368 1.4521,2.7717 0.691,0.9421 2.0062,1.9494 2.5529,1.9551 1.4866,0.016 3.0055,-1.8398 4.5175,-5.5186 0.28772,-0.7001 0.78072,-1.5626 1.0956,-1.9167 l 0.57245,-0.6439 0.49449,0.5834 c 0.27197,0.3208 0.88574,1.4745 1.3639,2.5637 1.3444,3.0622 2.2553,4.2374 3.8283,4.939 0.35688,0.1592 0.55817,0.1319 1.1789,-0.1599 1.4041,-0.66 2.5041,-2.2134 3.7997,-5.3656 0.28772,-0.7001 0.78072,-1.5626 1.0956,-1.9167 l 0.57245,-0.6439 0.49449,0.5834 c 0.27197,0.3208 0.87357,1.4467 1.3369,2.5019 1.9153,4.3624 3.557,5.6977 5.7583,4.6837 1.3243,-0.6101 2.1127,-1.6869 3.5613,-4.8646 1.0609,-2.3273 1.4799,-2.9098 1.9789,-2.7514 0.79602,0.2527 1.11,1.6719 1.4675,6.6336 l 0.10471,1.4533 -0.6616,-0.6616 c -0.7357,-0.7357 -1.0665,-0.8029 -1.7459,-0.3549 -0.71188,0.4694 -1.1964,1.2317 -2.1219,3.3388 -1.1431,2.6022 -1.8684,3.6531 -2.9164,4.2252 -0.45833,0.2502 -0.87083,0.4533 -0.91667,0.4514 -0.04583,0 -0.3555,-0.1473 -0.68816,-0.3231 z"
         style="fill:#e5dcdc;fill-rule:evenodd;stroke:#83508a;stroke-linecap:round;stroke-linejoin:round"
         inkscape:connector-curvature="0" />
    </g>
    <g
       id="g4622"
       transform="translate(40)">
      <rect
         id="rect3965-3"
         style="fill:#b2ada8;fill-rule:evenodd;stroke:#000000;stroke-linecap:round;stroke-linejoin:round"
         rx="12.577"
         ry="4.6153998"
         height="36.923"
         width="54.5"
         y="1141.4"
         x="75.5" />
      <path
         id="path3941-7"
         d="m 103,1178.4 v -20"
         style="fill:none;stroke:#000000;stroke-linecap:round;stroke-linejoin:round"
         inkscape:connector-curvature="0" />
      <ellipse
         id="path3954-8-5-7-3-4-8-9-1-79-8-4-8-6-4-2-8"
         style="fill:#ab926c;fill-rule:evenodd;stroke:#000000;stroke-width:26.06399918;stroke-linecap:round;stroke-linejoin:round"
         transform="matrix(0.032966,0.01429,-0.024353,0.034097,186.53,1164.9)"
         cx="-1200"
         cy="429.36218"
         rx="136"
         ry="119" />
      <path
         id="path4048-5-7-18"
         sodipodi:nodetypes="cccc"
         d="m 125.06,1126.5 c 9.8201,-1.8882 14.541,22.662 16.429,32.482 0.94416,4.91 -18.696,8.6867 -19.64,3.7766 -1.8883,-9.8201 -6.6091,-34.37 3.211,-36.259 z"
         inkscape:transform-center-x="-4.2800108"
         inkscape:transform-center-y="14.314972"
         inkscape:connector-curvature="0"
         style="fill:#ffffff;stroke:#000000;stroke-width:1px" />
      <ellipse
         id="path3954-8-5-7-3-4-8-9-1-79-8-4-8-6-4-2-2-4"
         style="fill:#ab926c;fill-rule:evenodd;stroke:#000000;stroke-width:26.06399918;stroke-linecap:round;stroke-linejoin:round"
         transform="matrix(-0.032966,0.01429,0.024353,0.034097,22.086,1164.8)"
         cx="-1200"
         cy="429.36218"
         rx="136"
         ry="119" />
      <path
         id="path4048-5-7-7-3"
         sodipodi:nodetypes="cccc"
         d="m 82,1126.4 c -9.8201,-1.8882 -14.541,22.662 -16.429,32.482 -0.94416,4.91 18.696,8.6867 19.64,3.7766 1.8883,-9.8201 6.6091,-34.37 -3.211,-36.259 z"
         inkscape:transform-center-x="4.280011"
         inkscape:transform-center-y="14.314972"
         inkscape:connector-curvature="0"
         style="fill:#ffffff;stroke:#000000;stroke-width:1px" />
      <path
         id="path3932-5-3-8-0-8-0-1-2"
         d="m 103.7,1114.8 c -0.0929,0 -0.18615,0.012 -0.27891,0.012 h -0.15818 -0.24561 v 0.02 c -6.2233,0.3314 -11.989,3.9666 -15.852,8.5559 -8.2813,9.772 -11.44,22.642 -11.718,34.992 0.21757,3.1675 -0.41814,6.9699 0.95329,9.7164 4.9833,2.9755 13.771,3.4734 19.761,4.1689 1.5897,0.07 4.1147,0.089 6.8562,0.103 v 0.012 c 0.28767,0 0.56136,0 0.84506,-0.012 0.0279,0 0.0553,2e-4 0.0833,0 2.7415,-0.014 5.2665,-0.033 6.8562,-0.103 5.9903,-0.6955 14.778,-1.1934 19.761,-4.1689 1.3714,-2.7465 0.73572,-6.5489 0.95329,-9.7164 -0.27878,-12.35 -3.4371,-25.22 -11.718,-34.992 -3.8636,-4.5893 -9.6288,-8.2245 -15.852,-8.5559 v -0.028 h -0.2456 z"
         style="fill:#ffffff;fill-rule:evenodd;stroke:#000000;stroke-linecap:round;stroke-linejoin:round"
         inkscape:connector-curvature="0" />
      <rect
         id="rect3030-7"
         style="fill:#ab926c;fill-rule:evenodd;stroke:#000000;stroke-linecap:round;stroke-linejoin:round"
         rx="32.5"
         ry="25"
         height="50"
         width="65"
         y="1085.4"
         x="70" />
      <path
         id="path4010-7-1-8-9-2-5-5-7"
         d="m 128.72,1178.7 c -0.14006,-3.5056 -2.3307,-7.11 -5.8092,-8.1412 -3.2623,-0.9899 -6.7372,-0.4447 -9.9952,0.2708 -2.8592,0.7751 -5.6814,2.4387 -7.0514,5.1622 -0.28312,0.8584 -0.98858,1.7523 -0.60852,2.6828 0.68906,0.7143 1.8368,0.5616 2.7511,0.7047 6.4921,0.3823 13.028,0.4619 19.501,-0.2481 0.42379,-0.074 0.84821,-0.1951 1.2122,-0.4312 z"
         style="fill:#ffffff;stroke:#000000"
         inkscape:connector-curvature="0" />
      <path
         id="path4010-7-1-8-9-2-5-5-3-3"
         d="m 77.299,1178.7 c 0.13662,-3.4195 2.2736,-6.9355 5.6667,-7.9414 3.1822,-0.9656 6.5719,-0.4338 9.7499,0.2642 2.7891,0.756 5.542,2.3789 6.8784,5.0355 0.27617,0.8374 0.96432,1.7093 0.59359,2.617 -0.67216,0.6967 -1.7917,0.5478 -2.6836,0.6874 -6.3328,0.3729 -12.708,0.4506 -19.023,-0.242 -0.41339,-0.072 -0.8274,-0.1903 -1.1824,-0.4207 z"
         style="fill:#ffffff;stroke:#000000"
         inkscape:connector-curvature="0" />
      <circle
         id="path4283-0"
         style="fill:#000000;fill-rule:evenodd"
         transform="matrix(0.8,0,0,0.8,47.5,990.36)"
         cx="52.5"
         cy="152.5"
         r="2.5" />
      <circle
         id="path4283-7-2"
         style="fill:#000000;fill-rule:evenodd"
         transform="matrix(0.8,0,0,0.8,73.5,990.36)"
         cx="52.5"
         cy="152.5"
         r="2.5" />
      <path
         id="path4303-4"
         d="m 100,1121.4 h 6.6667"
         sodipodi:nodetypes="cc"
         style="fill:none;stroke:#000000;stroke-width:1.5;stroke-linecap:round;stroke-linejoin:round"
         inkscape:connector-curvature="0" />
      <path
         id="path4315-3-73-7"
         d="m 80.116,1098.4 -2.529,-2.2648"
         sodipodi:nodetypes="cc"
         style="fill:none;stroke:#000000;stroke-width:3.91059995;stroke-linecap:round;stroke-linejoin:round"
         inkscape:connector-curvature="0" />
      <path
         id="path4317-0-8-4"
         d="m 86.495,1095.7 -3.3217,-4.7939"
         sodipodi:nodetypes="cc"
         style="fill:none;stroke:#000000;stroke-width:3.91059995;stroke-linecap:round;stroke-linejoin:round"
         inkscape:connector-curvature="0" />
      <path
         id="path4319-5-9-0"
         d="m 93.138,1094.2 -2.5668,-6.4169"
         sodipodi:nodetypes="cc"
         style="fill:none;stroke:#000000;stroke-width:3.91059995;stroke-linecap:round;stroke-linejoin:round"
         inkscape:connector-curvature="0" />
      <path
         id="path4321-1-1-5"
         d="m 98.989,1094 -0.94367,-7.7004"
         sodipodi:nodetypes="cc"
         style="fill:none;stroke:#000000;stroke-width:3.91059995;stroke-linecap:round;stroke-linejoin:round"
         inkscape:connector-curvature="0" />
      <path
         id="path4315-3-7-2-0"
         d="m 124.34,1098.2 2.529,-2.2648"
         sodipodi:nodetypes="cc"
         style="fill:none;stroke:#000000;stroke-width:3.91059995;stroke-linecap:round;stroke-linejoin:round"
         inkscape:connector-curvature="0" />
      <path
         id="path4317-0-4-0-3"
         d="m 117.96,1095.5 3.3217,-4.7938"
         sodipodi:nodetypes="cc"
         style="fill:none;stroke:#000000;stroke-width:3.91059995;stroke-linecap:round;stroke-linejoin:round"
         inkscape:connector-curvature="0" />
      <path
         id="path4319-5-6-5-3"
         d="m 111.32,1094 2.5668,-6.417"
         sodipodi:nodetypes="cc"
         style="fill:none;stroke:#000000;stroke-width:3.91059995;stroke-linecap:round;stroke-linejoin:round"
         inkscape:connector-curvature="0" />
      <path
         id="path4321-1-7-8-1"
         d="m 105.47,1093.8 0.94367,-7.7003"
         sodipodi:nodetypes="cc"
         style="fill:none;stroke:#000000;stroke-width:3.91059995;stroke-linecap:round;stroke-linejoin:round"
         inkscape:connector-curvature="0" />
      <path
         id="path3801"
         d="m 116.83,1167.4 c -0.16049,-0.099 -1.0584,-1.3321 -1.9954,-2.7399 -2.1683,-3.2577 -3.0482,-3.9396 -4.9303,-3.8209 -2.05,0.1293 -2.6258,0.6527 -5.3447,4.859 -0.56799,0.8788 -1.1869,1.6274 -1.3754,1.6637 -0.24451,0.047 -0.68494,-0.4679 -1.5375,-1.7977 -2.5161,-3.9245 -3.4328,-4.7764 -5.2778,-4.905 -1.9816,-0.1382 -3.2468,0.9514 -5.7359,4.9398 -1.0261,1.6441 -1.4871,2.0022 -1.964,1.5254 -0.17339,-0.1734 -0.95829,-1.3297 -1.7442,-2.5695 -1.148,-1.811 -1.6474,-2.4061 -2.5396,-3.0264 -2.5626,-1.7815 -4.5384,-1.0001 -6.8998,2.7287 l -1.1544,1.8229 -0.13248,-0.9898 c -0.17134,-1.2801 -0.20039,-7.7642 -0.0392,-8.7397 0.0857,-0.5184 0.2273,-0.75 0.45853,-0.75 0.71141,0 2.4433,-1.077 3.3799,-2.1018 0.53927,-0.59 1.326,-1.6635 1.7484,-2.3855 0.42234,-0.722 0.8167,-1.3095 0.87635,-1.3056 0.0596,0 0.46844,0.6038 0.90844,1.333 1.2166,2.0164 2.9608,3.7092 4.3575,4.229 1.542,0.574 2.405,0.5431 3.8425,-0.1377 1.4566,-0.6898 2.83,-2.0441 4.0376,-3.9814 0.49709,-0.7975 0.92916,-1.45 0.96016,-1.45 0.031,0 0.44918,0.6504 0.9293,1.4453 1.6891,2.7967 4.0426,4.5593 6.0758,4.5503 2.0493,-0.01 3.7988,-1.2496 5.5971,-3.9688 0.66,-0.998 1.245,-1.8165 1.3,-1.819 0.055,0 0.47552,0.6023 0.93448,1.3439 1.1841,1.9132 2.0491,2.8454 3.3851,3.6483 1.0603,0.6372 1.3002,0.6995 2.6726,0.695 2.5427,-0.01 4.0672,-1.1107 6.1428,-4.4407 l 0.91208,-1.4634 0.97732,1.5545 c 1.314,2.0902 2.4246,3.1917 3.9403,3.9082 l 1.2647,0.5979 -0.0647,5.1242 c -0.0417,3.3014 -0.14418,5.2586 -0.28811,5.5019 -0.19722,0.3334 -0.37014,0.1388 -1.4758,-1.6605 -1.4096,-2.2938 -2.0827,-3.0467 -3.2611,-3.6479 -0.96958,-0.4947 -2.4262,-0.5433 -3.2549,-0.1088 -0.89983,0.4719 -1.9237,1.6488 -3.3402,3.8396 -1.4846,2.2962 -1.9213,2.7615 -2.3454,2.4994 z"
         style="fill:#9fbc84;fill-rule:evenodd"
         inkscape:connector-curvature="0" />
    </g>
    <g
       id="g3118">
      <rect
         id="rect3965-37"
         style="fill:#615186;fill-rule:evenodd;stroke:#000000;stroke-linecap:round;stroke-linejoin:round"
         rx="12.577"
         ry="4.6153998"
         height="36.923"
         width="54.5"
         y="1141.7"
         x="205.5" />
      <path
         id="path3941-75"
         d="m 233,1178.6 v -20"
         style="fill:none;stroke:#000000;stroke-linecap:round;stroke-linejoin:round"
         inkscape:connector-curvature="0" />
      <ellipse
         id="path3954-8-5-7-3-4-8-9-1-79-8-4-8-6-4-2-6"
         style="fill:#cfc0a1;fill-rule:evenodd;stroke:#000000;stroke-width:26.06399918;stroke-linecap:round;stroke-linejoin:round"
         transform="matrix(0.032966,0.01429,-0.024353,0.034097,316.53,1165.1)"
         cx="-1200"
         cy="429.36218"
         rx="136"
         ry="119" />
      <path
         id="path3804-9-8-5"
         d="m 271.83,1142.6 c 0.19546,-16.143 -1.355,-61.392 -40.168,-61.913 -40.159,0.2174 -36.851,53.56 -37.236,61.363 4.1333,12.811 72.811,11.19 77.405,0.5503 z"
         sodipodi:nodetypes="cccc"
         style="fill:#41311c"
         inkscape:connector-curvature="0" />
      <path
         id="path4048-5-7-58"
         sodipodi:nodetypes="cccc"
         d="m 255.06,1126.7 c 9.8201,-1.8882 14.541,22.662 16.429,32.482 0.94416,4.91 -18.696,8.6867 -19.64,3.7766 -1.8883,-9.8201 -6.6091,-34.37 3.211,-36.259 z"
         inkscape:transform-center-x="-4.2800108"
         inkscape:transform-center-y="14.314972"
         inkscape:connector-curvature="0"
         style="fill:#9e3fc2;stroke:#000000;stroke-width:1px" />
      <ellipse
         id="path3954-8-5-7-3-4-8-9-1-79-8-4-8-6-4-2-2-9"
         style="fill:#cfc0a1;fill-rule:evenodd;stroke:#000000;stroke-width:26.06399918;stroke-linecap:round;stroke-linejoin:round"
         transform="matrix(-0.032966,0.01429,0.024353,0.034097,152.09,1165)"
         cx="-1200"
         cy="429.36218"
         rx="136"
         ry="119" />
      <path
         id="path4048-5-7-7-52"
         sodipodi:nodetypes="cccc"
         d="m 212,1126.6 c -9.8201,-1.8882 -14.541,22.662 -16.429,32.482 -0.94417,4.91 18.696,8.6867 19.64,3.7766 1.8883,-9.8201 6.6091,-34.37 -3.211,-36.259 z"
         inkscape:transform-center-x="4.280011"
         inkscape:transform-center-y="14.314972"
         inkscape:connector-curvature="0"
         style="fill:#9e3fc2;stroke:#000000;stroke-width:1px" />
      <path
         id="path3932-5-3-8-0-8-0-1-29"
         d="m 233.7,1115 c -0.0929,0 -0.18615,0.012 -0.27891,0.012 h -0.15818 -0.24561 v 0.02 c -6.2234,0.3314 -11.989,3.9666 -15.852,8.5559 -8.2813,9.772 -11.44,22.642 -11.718,34.992 0.21757,3.1675 -0.41814,6.9699 0.95329,9.7164 4.9833,2.9755 13.771,3.4734 19.761,4.1689 1.5897,0.07 4.1147,0.089 6.8562,0.103 v 0.012 c 0.28767,0 0.56136,0 0.84505,-0.012 0.0279,0 0.0553,2e-4 0.0833,0 2.7415,-0.014 5.2665,-0.033 6.8562,-0.103 5.9903,-0.6955 14.778,-1.1934 19.761,-4.1689 1.3714,-2.7465 0.73572,-6.5489 0.95329,-9.7164 -0.27878,-12.35 -3.4371,-25.22 -11.718,-34.992 -3.8636,-4.5893 -9.6288,-8.2245 -15.852,-8.5559 v -0.028 h -0.2456 z"
         style="fill:#9e3fc2;fill-rule:evenodd;stroke:#000000;stroke-linecap:round;stroke-linejoin:round"
         inkscape:connector-curvature="0" />
      <path
         id="path4010-7-1-8-9-2-5-5-8"
         d="m 258.72,1178.9 c -0.14006,-3.5056 -2.3307,-7.11 -5.8092,-8.1412 -3.2623,-0.9899 -6.7372,-0.4447 -9.9952,0.2708 -2.8592,0.7751 -5.6814,2.4387 -7.0514,5.1622 -0.28312,0.8584 -0.98858,1.7523 -0.60852,2.6828 0.68906,0.7143 1.8368,0.5616 2.7511,0.7047 6.4921,0.3823 13.028,0.4619 19.501,-0.2481 0.4238,-0.074 0.84822,-0.1951 1.2122,-0.4312 z"
         style="fill:#a399c7;stroke:#000000"
         inkscape:connector-curvature="0" />
      <path
         id="path4010-7-1-8-9-2-5-5-3-11"
         d="m 207.3,1178.9 c 0.13663,-3.4195 2.2736,-6.9355 5.6667,-7.9414 3.1822,-0.9656 6.5719,-0.4338 9.7499,0.2642 2.7891,0.756 5.542,2.3789 6.8784,5.0355 0.27617,0.8374 0.96432,1.7093 0.59358,2.617 -0.67215,0.6967 -1.7917,0.5478 -2.6836,0.6874 -6.3328,0.3729 -12.708,0.4506 -19.023,-0.242 -0.4134,-0.072 -0.8274,-0.1903 -1.1824,-0.4207 z"
         style="fill:#a399c7;stroke:#000000"
         inkscape:connector-curvature="0" />
      <path
         id="path4760"
         d="m 229.95,1172.9 -1.45,-0.069 v -2.3803 c 0,-5.7663 0.82214,-16.91 1.7044,-23.102 0.54294,-3.8107 1.27,-7.3624 1.8693,-9.1315 0.33965,-1.0026 0.40637,-1.0723 1.0811,-1.1298 l 0.71913,-0.061 0.59369,1.8613 c 1.9059,5.9753 3.405,18.868 3.6839,31.684 l 0.0484,2.2229 -2.0811,0.1271 c -2.0292,0.1239 -3.2013,0.1198 -6.1689,-0.021 z"
         style="fill:#be8cc4;fill-rule:evenodd;stroke:#000000;stroke-linecap:round;stroke-linejoin:round"
         inkscape:connector-curvature="0" />
      <path
         id="path4594"
         d="m 228.57,1141.7 c -4.6986,-0.6046 -9.2785,-1.8356 -13.634,-3.6646 -2.7039,-1.1355 -5.5977,-2.6705 -5.5791,-2.9594 0.0205,-0.317 0.87247,-2.0714 2.0045,-4.1276 l 1.027,-1.8655 1.9983,1.0975 c 4.9752,2.7325 10.069,4.3403 15.66,4.9426 l 2.9357,0.3164 -0.20905,3.2407 c -0.22739,3.5251 -0.22497,3.5187 -1.3867,3.3783 -0.29186,-0.035 -1.5592,-0.1968 -2.8164,-0.3584 z"
         style="fill:#9e3fc2;fill-rule:evenodd;stroke:#000000;stroke-linecap:round;stroke-linejoin:round"
         inkscape:connector-curvature="0" />
      <path
         id="path4594-2"
         d="m 237.77,1141.7 c 4.6986,-0.6046 9.2785,-1.8356 13.634,-3.6646 2.7039,-1.1355 5.5977,-2.6705 5.5791,-2.9594 -0.0204,-0.317 -0.87247,-2.0714 -2.0045,-4.1276 l -1.027,-1.8655 -1.9983,1.0975 c -4.9752,2.7325 -10.069,4.3403 -15.66,4.9426 l -2.9357,0.3164 0.20905,3.2407 c 0.22738,3.5251 0.22497,3.5187 1.3867,3.3783 0.29186,-0.035 1.5592,-0.1968 2.8164,-0.3584 z"
         style="fill:#9e3fc2;fill-rule:evenodd;stroke:#000000;stroke-linecap:round;stroke-linejoin:round"
         inkscape:connector-curvature="0" />
      <rect
         id="rect3030-16"
         style="fill:#d3c19d;fill-rule:evenodd;stroke:#000000;stroke-linecap:round;stroke-linejoin:round"
         rx="32.5"
         ry="25"
         height="50"
         width="65"
         y="1085.6"
         x="200" />
      <circle
         id="path4283-2"
         style="fill:#000000;fill-rule:evenodd"
         transform="matrix(0.8,0,0,0.8,177.5,990.57)"
         cx="52.5"
         cy="152.5"
         r="2.5" />
      <circle
         id="path4283-7-75"
         style="fill:#000000;fill-rule:evenodd"
         transform="matrix(0.8,0,0,0.8,203.5,990.57)"
         cx="52.5"
         cy="152.5"
         r="2.5" />
      <path
         id="path4303-6"
         d="m 230,1121.6 h 6.6667"
         sodipodi:nodetypes="cc"
         style="fill:none;stroke:#000000;stroke-width:1.5;stroke-linecap:round;stroke-linejoin:round"
         inkscape:connector-curvature="0" />
      <path
         id="rect4240-2-7-0-9-6"
         d="m 231.18,1079.8 c -17.555,0 -31.712,12.046 -32.177,27.142 1.5765,-0.2036 3.1925,-0.3414 4.8366,-0.3414 h 62.42 c -0.6644,-14.937 -14.754,-26.8 -32.177,-26.8 h -2.9019 z"
         style="fill:#41311c;fill-rule:evenodd"
         inkscape:connector-curvature="0" />
    </g>
    <g
       id="g5310">
      <rect
         id="rect3965-4"
         style="fill:#5b5cb5;fill-rule:evenodd;stroke:#000000;stroke-linecap:round;stroke-linejoin:round"
         rx="12.577"
         ry="4.6153998"
         height="36.923"
         width="54.5"
         y="1015.4"
         x="117.5" />
      <path
         id="path3941-1"
         d="m 145,1052.4 v -20"
         style="fill:none;stroke:#000000;stroke-linecap:round;stroke-linejoin:round"
         inkscape:connector-curvature="0" />
      <ellipse
         id="path3954-8-5-7-3-4-8-9-1-79-8-4-8-6-4-2-24"
         style="fill:#c1af94;fill-rule:evenodd;stroke:#000000;stroke-width:26.06399918;stroke-linecap:round;stroke-linejoin:round"
         transform="matrix(0.032966,0.01429,-0.024353,0.034097,228.53,1038.9)"
         cx="-1200"
         cy="429.36218"
         rx="136"
         ry="119" />
      <path
         id="path4048-5-7-5"
         sodipodi:nodetypes="cccc"
         d="m 167.06,1000.5 c 9.8201,-1.8882 14.541,22.662 16.429,32.482 0.94416,4.91 -18.696,8.6867 -19.64,3.7766 -1.8883,-9.8201 -6.6091,-34.37 3.211,-36.259 z"
         inkscape:transform-center-x="-4.2800108"
         inkscape:transform-center-y="14.314972"
         inkscape:connector-curvature="0"
         style="fill:#d7dacb;stroke:#000000;stroke-width:1px" />
      <ellipse
         id="path3954-8-5-7-3-4-8-9-1-79-8-4-8-6-4-2-2-0"
         style="fill:#c1af94;fill-rule:evenodd;stroke:#000000;stroke-width:26.06399918;stroke-linecap:round;stroke-linejoin:round"
         transform="matrix(-0.032966,0.01429,0.024353,0.034097,64.086,1038.8)"
         cx="-1200"
         cy="429.36218"
         rx="136"
         ry="119" />
      <path
         id="path4048-5-7-7-5"
         sodipodi:nodetypes="cccc"
         d="m 124,1000.4 c -9.8201,-1.8882 -14.541,22.662 -16.429,32.482 -0.94416,4.91 18.696,8.6867 19.64,3.7766 1.8883,-9.8201 6.6091,-34.37 -3.211,-36.259 z"
         inkscape:transform-center-x="4.280011"
         inkscape:transform-center-y="14.314972"
         inkscape:connector-curvature="0"
         style="fill:#d7dacb;stroke:#000000;stroke-width:1px" />
      <path
         id="path3932-5-3-8-0-8-0-1-9"
         d="m 145.7,988.77 c -0.0929,0 -0.18615,0.0116 -0.27891,0.0116 h -0.15818 -0.24561 v 0.0196 c -6.2234,0.3314 -11.989,3.9666 -15.852,8.556 -8.2813,9.772 -11.44,22.642 -11.718,34.992 0.21757,3.1675 -0.41814,6.9699 0.95329,9.7164 4.9833,2.9755 13.771,3.4734 19.761,4.1689 1.5897,0.07 4.1147,0.089 6.8562,0.103 v 0.012 c 0.28767,0 0.56136,0 0.84505,-0.012 0.0279,0 0.0553,2e-4 0.0833,0 2.7415,-0.014 5.2665,-0.033 6.8562,-0.103 5.9903,-0.6955 14.778,-1.1934 19.761,-4.1689 1.3714,-2.7465 0.73572,-6.5489 0.95329,-9.7164 -0.27878,-12.35 -3.4371,-25.22 -11.718,-34.992 -3.8636,-4.5894 -9.6288,-8.2246 -15.852,-8.556 v -0.0278 h -0.2456 z"
         style="fill:#d7dacb;fill-rule:evenodd;stroke:#000000;stroke-linecap:round;stroke-linejoin:round"
         inkscape:connector-curvature="0" />
      <circle
         id="path5308"
         style="fill:#28170b;fill-rule:evenodd"
         transform="matrix(0.4,0,0,0.4,207,986.36)"
         cx="-237.5"
         cy="-27.5"
         r="7.5" />
      <rect
         id="rect3030-8"
         style="fill:#c1af94;fill-rule:evenodd;stroke:#000000;stroke-linecap:round;stroke-linejoin:round"
         rx="32.5"
         ry="25"
         height="50"
         width="65"
         y="959.35999"
         x="112" />
      <path
         id="path4010-7-1-8-9-2-5-5-1"
         d="m 170.72,1052.7 c -0.14006,-3.5056 -2.3307,-7.11 -5.8092,-8.1412 -3.2623,-0.9899 -6.7372,-0.4447 -9.9952,0.2708 -2.8592,0.7751 -5.6814,2.4387 -7.0514,5.1622 -0.28312,0.8584 -0.98858,1.7523 -0.60852,2.6828 0.68906,0.7143 1.8368,0.5616 2.7511,0.7047 6.4921,0.3823 13.028,0.4619 19.501,-0.2481 0.4238,-0.074 0.84822,-0.1951 1.2122,-0.4312 z"
         style="fill:#8995a5;stroke:#000000"
         inkscape:connector-curvature="0" />
      <path
         id="path4010-7-1-8-9-2-5-5-3-2"
         d="m 119.3,1052.7 c 0.13663,-3.4195 2.2736,-6.9355 5.6667,-7.9414 3.1822,-0.9656 6.5719,-0.4338 9.7499,0.2642 2.7891,0.756 5.542,2.3789 6.8784,5.0355 0.27617,0.8374 0.96432,1.7093 0.59358,2.617 -0.67215,0.6967 -1.7917,0.5478 -2.6836,0.6874 -6.3328,0.3729 -12.708,0.4506 -19.023,-0.242 -0.4134,-0.072 -0.8274,-0.1903 -1.1824,-0.4207 z"
         style="fill:#8995a5;stroke:#000000"
         inkscape:connector-curvature="0" />
      <circle
         id="path4283-70"
         style="fill:#000000;fill-rule:evenodd"
         transform="matrix(0.8,0,0,0.8,89.5,864.36)"
         cx="52.5"
         cy="152.5"
         r="2.5" />
      <circle
         id="path4283-7-7"
         style="fill:#000000;fill-rule:evenodd"
         transform="matrix(0.8,0,0,0.8,115.5,864.36)"
         cx="52.5"
         cy="152.5"
         r="2.5" />
      <path
         id="path4303-9"
         d="m 142,995.36 h 6.6667"
         sodipodi:nodetypes="cc"
         style="fill:none;stroke:#000000;stroke-width:1.5;stroke-linecap:round;stroke-linejoin:round"
         inkscape:connector-curvature="0" />
      <path
         id="path4345-2-5"
         sodipodi:r2="82.332176"
         style="fill:#becfc3;fill-rule:evenodd;stroke:#958f8f;stroke-width:12.76399994"
         sodipodi:type="star"
         d="m -334,-11.32605 c -8.36927,8.2917788 -82.8541,-28.4113 -94.49877,-26.622445 -11.64467,1.788856 -71.67832,59.156678 -82.15051,53.759328 -10.4722,-5.39735 1.41742,-87.578507 -3.88228,-98.100458 -5.2997,-10.521952 -78.41116,-49.889715 -76.51407,-61.517235 1.8971,-11.62753 83.73012,-25.7152 92.0994,-34.00698 8.36927,-8.29177 23.21755,-89.99021 34.86222,-91.77907 11.64467,-1.78885 50.33063,71.68565 60.80283,77.083 10.4722,5.39735 92.7604,-5.7273 98.0601,4.79465 5.2997,10.52195 -52.62408,70.01936 -54.52117,81.64688 -1.8971,11.627526 34.11152,86.45055 25.74225,94.74233 z"
         sodipodi:r1="152.0296"
         inkscape:transform-center-x="4.7187608"
         inkscape:transform-center-y="-5.0038823"
         transform="matrix(0.078348,0,0,0.078348,179.9,1040.1)"
         sodipodi:arg2="1.4183678"
         sodipodi:arg1="0.79004929"
         inkscape:randomized="0"
         sodipodi:cy="-119.32605"
         sodipodi:cx="-441"
         inkscape:rounded="0.12"
         inkscape:flatsided="false"
         sodipodi:sides="5" />
      <path
         id="path4345-0-2-2"
         sodipodi:r2="82.332176"
         style="fill:#becfc3;fill-rule:evenodd;stroke:#958f8f;stroke-width:18.55400085"
         sodipodi:type="star"
         d="m -334,-11.32605 c -8.36927,8.2917788 -82.8541,-28.4113 -94.49877,-26.622445 -11.64467,1.788856 -71.67832,59.156678 -82.15051,53.759328 -10.4722,-5.39735 1.41742,-87.578507 -3.88228,-98.100458 -5.2997,-10.521952 -78.41116,-49.889715 -76.51407,-61.517235 1.8971,-11.62753 83.73012,-25.7152 92.0994,-34.00698 8.36927,-8.29177 23.21755,-89.99021 34.86222,-91.77907 11.64467,-1.78885 50.33063,71.68565 60.80283,77.083 10.4722,5.39735 92.7604,-5.7273 98.0601,4.79465 5.2997,10.52195 -52.62408,70.01936 -54.52117,81.64688 -1.8971,11.627526 34.11152,86.45055 25.74225,94.74233 z"
         sodipodi:r1="152.0296"
         inkscape:transform-center-x="-3.2461142"
         inkscape:transform-center-y="-3.4422516"
         transform="matrix(-0.053897,0,0,0.053897,139.37,1031.5)"
         sodipodi:arg2="1.4183678"
         sodipodi:arg1="0.79004929"
         inkscape:randomized="0"
         sodipodi:cy="-119.32605"
         sodipodi:cx="-441"
         inkscape:rounded="0.12"
         inkscape:flatsided="false"
         sodipodi:sides="5" />
      <path
         id="path4345-0-8-7-0"
         sodipodi:r2="82.332176"
         style="fill:#becfc3;fill-rule:evenodd;stroke:#958f8f;stroke-width:29.44300079"
         sodipodi:type="star"
         d="m -334,-11.32605 c -8.36927,8.2917788 -82.8541,-28.4113 -94.49877,-26.622445 -11.64467,1.788856 -71.67832,59.156678 -82.15051,53.759328 -10.4722,-5.39735 1.41742,-87.578507 -3.88228,-98.100458 -5.2997,-10.521952 -78.41116,-49.889715 -76.51407,-61.517235 1.8971,-11.62753 83.73012,-25.7152 92.0994,-34.00698 8.36927,-8.29177 23.21755,-89.99021 34.86222,-91.77907 11.64467,-1.78885 50.33063,71.68565 60.80283,77.083 10.4722,5.39735 92.7604,-5.7273 98.0601,4.79465 5.2997,10.52195 -52.62408,70.01936 -54.52117,81.64688 -1.8971,11.627526 34.11152,86.45055 25.74225,94.74233 z"
         sodipodi:r1="152.0296"
         inkscape:transform-center-x="2.0455952"
         inkscape:transform-center-y="-2.1691995"
         transform="matrix(0.033964,0,0,0.033964,176.34,1041.7)"
         sodipodi:arg2="1.4183678"
         sodipodi:arg1="0.79004929"
         inkscape:randomized="0"
         sodipodi:cy="-119.32605"
         sodipodi:cx="-441"
         inkscape:rounded="0.12"
         inkscape:flatsided="false"
         sodipodi:sides="5" />
      <path
         id="path4394-7-6-2-7-5-9-5-3-4"
         d="m 141.5,947.86 c -1.7392,0 -3.2376,1.0804 -3.875,2.625 -0.17378,0.0256 -0.36064,0.0342 -0.53125,0.0625 -0.76794,-1.0174 -1.9604,-1.6562 -3.3125,-1.6562 -2.19,0 -3.9631,1.7131 -4.1562,3.9062 -0.043,0.0179 -0.0821,0.0445 -0.125,0.0625 -0.76418,-0.81679 -1.84,-1.3125 -3.0312,-1.3125 -2.3189,0 -4.2188,1.9044 -4.2188,4.2812 0,0.22255 0.0307,0.4428 0.0625,0.65625 -0.6064,-0.34851 -1.2866,-0.5625 -2.0312,-0.5625 -2.3189,0 -4.2188,1.9356 -4.2188,4.3125 0,0.64373 0.1591,1.2329 0.40625,1.7812 -0.35364,-0.1441 -0.75251,-0.21875 -1.1562,-0.21875 -1.7097,0 -3.0938,1.4351 -3.0938,3.1875 0,0.17568 0.0357,0.33209 0.0625,0.5 -0.15547,0.44966 -0.25,0.93322 -0.25,1.4375 0,0.57012 0.0848,1.0958 0.28125,1.5938 -1.3294,0.35626 -2.3125,1.5881 -2.3125,3.0625 0,1.2125 0.64987,2.2472 1.625,2.7812 0.0593,1.0425 0.5985,1.9673 1.4062,2.5 0.002,0.01 -0.002,0.0213 0,0.0312 -1.6202,0.1017 -2.9062,1.4387 -2.9062,3.125 0,1.7524 1.3841,3.1875 3.0938,3.1875 1.6794,0 3.0459,-1.3841 3.0938,-3.0937 0.264,0.053 0.53324,0.0937 0.8125,0.0937 2.3189,0 4.1875,-1.9357 4.1875,-4.3125 0,-0.8258 -0.23162,-1.5948 -0.625,-2.25 0.19625,-0.053 0.40979,-0.1078 0.59375,-0.1875 0.74229,0.679 1.708,1.0938 2.7812,1.0938 2.3189,0 4.1875,-1.9044 4.1875,-4.2812 0,-0.44709 -0.0953,-0.87583 -0.21875,-1.2812 0.092,-0.034 0.18878,-0.0602 0.28125,-0.0937 0.76147,1.0925 2.0277,1.8125 3.4375,1.8125 2.2052,0 3.9843,-1.7538 4.1562,-3.9688 0.18736,-0.0395 0.37424,-0.0873 0.5625,-0.125 0.52291,1.7666 2.1057,3.0625 4,3.0625 2.2548,0 4.0876,-1.8078 4.1875,-4.0938 0.0413,-0.002 0.0837,0.002 0.125,0 -7e-5,0.0105 0,0.0208 0,0.0312 0,2.3769 1.8999,4.3125 4.2188,4.3125 2.2359,0 4.0283,-1.8036 4.1562,-4.0625 0.0736,0.009 0.14524,0.022 0.21875,0.0312 -0.0415,0.24295 -0.0937,0.49486 -0.0937,0.75 0,2.3769 1.8686,4.3125 4.1875,4.3125 1.9413,0 3.582,-1.3532 4.0625,-3.1875 0.37176,0.13046 0.72729,0.29478 1.0938,0.4375 -0.22304,0.52553 -0.375,1.1091 -0.375,1.7188 0,2.3769 1.8999,4.2812 4.2188,4.2812 0.99537,0 1.9054,-0.3443 2.625,-0.9375 -0.15547,0.4496 -0.28125,0.9332 -0.28125,1.4375 0,2.3768 1.8999,4.3125 4.2188,4.3125 0.0212,0 0.0414,3e-4 0.0625,0 -0.0127,0.1169 -0.0312,0.22345 -0.0312,0.34375 0,1.7525 1.3841,3.1875 3.0938,3.1875 1.7097,0 3.0938,-1.435 3.0938,-3.1875 0,-1.4859 -0.9984,-2.7174 -2.3438,-3.0625 0.13912,-0.3598 0.21024,-0.75645 0.25,-1.1562 1.1394,-0.4683 1.9375,-1.571 1.9375,-2.9062 0,-1.6862 -1.2861,-3.0545 -2.9062,-3.1562 0.002,-0.01 -0.002,-0.0214 0,-0.0312 0.85636,-0.56442 1.4375,-1.5351 1.4375,-2.6562 0,-1.7524 -1.3841,-3.1875 -3.0938,-3.1875 -0.39129,0 -0.7491,0.083 -1.0938,0.21875 0.23011,-0.53242 0.375,-1.1302 0.375,-1.75 0,-2.3768 -1.8999,-4.2812 -4.2188,-4.2812 -0.77161,0 -1.4724,0.22148 -2.0938,0.59375 -0.0112,-0.009 -0.02,-0.0219 -0.0312,-0.0312 0.0985,-0.36553 0.15625,-0.75861 0.15625,-1.1562 0,-2.3768 -1.8686,-4.3125 -4.1875,-4.3125 -1.0576,0 -2.0117,0.43222 -2.75,1.0938 -0.0652,-2.3185 -1.9098,-4.1875 -4.1875,-4.1875 -1.5377,0 -2.8623,0.86102 -3.5938,2.125 -0.1404,-0.0324 -0.26738,-0.0626 -0.40625,-0.0937 -0.52713,-1.7595 -2.0794,-3.0625 -3.9688,-3.0625 -1.3631,0 -2.5767,0.68718 -3.3438,1.7188 -0.71482,-1.3282 -2.1029,-2.2188 -3.6875,-2.2188 z m -5.4375,10.188 c 0.0102,-10e-4 0.0211,10e-4 0.0312,0 10e-4,0.0207 -0.001,0.0418 0,0.0625 -0.0112,-0.0213 -0.0196,-0.0413 -0.0312,-0.0625 z"
         style="fill:#28170b;fill-rule:evenodd"
         inkscape:connector-curvature="0" />
      <path
         id="path4394-7-6-2-7-5-9-5-3-8-0-7-7"
         d="m 141.09,950.14 c -2.2044,1.1434 1.096,3.9106 1.4688,1.2188 0.15055,-0.9254 -0.62591,-1.3308 -1.4688,-1.2188 z m 7.0312,0.5313 c -2.6535,1.6826 2.3012,3.7384 1.3438,0.4687 -0.27336,-0.4511 -0.8718,-0.5163 -1.3438,-0.4687 z m -14.781,0.5 c -2.3331,1.2907 1.6619,3.9341 1.4688,0.875 0.0508,-0.7542 -0.87094,-0.9387 -1.4688,-0.875 z m 22.969,0.5 c -0.10917,0.01 -0.23484,6e-4 -0.34375,0.031 -1.9441,1.2009 1.199,3.6785 1.5625,1.3125 0.23732,-0.87 -0.45453,-1.3864 -1.2188,-1.3437 z m -30.281,2.1562 c -2.2952,1.2892 1.4621,3.8367 1.5,1.0625 0.0692,-0.8371 -0.77688,-1.1782 -1.5,-1.0625 z m 37.219,0.9375 c -0.0905,0 -0.19482,0.01 -0.28125,0.031 -2.2708,1.2932 1.4815,3.9093 1.5312,1 0.0455,-0.692 -0.6168,-1.0625 -1.25,-1.0313 z m -14.906,0.8125 c -2.3618,1.3226 1.5396,3.8464 1.5,1.0313 0.0546,-0.8242 -0.77991,-1.1491 -1.5,-1.0313 z m -8.5312,0.2188 c -2.4114,1.4759 1.9231,3.8557 1.4688,0.75 -0.0639,-0.657 -0.89332,-0.8181 -1.4688,-0.75 z m 17.562,0.7812 c -0.14088,5e-4 -0.28886,0.01 -0.40625,0.031 -2.3006,1.8552 2.5236,3.5177 1.4688,0.4687 -0.18074,-0.3794 -0.63986,-0.5012 -1.0625,-0.5 z m -26.031,0.25 c -2.4778,1.6589 1.8905,3.7629 1.4688,0.7188 -0.16667,-0.6406 -0.88169,-0.7671 -1.4688,-0.7188 z m 16.344,1.0938 c -0.0969,0.014 -0.20452,0.02 -0.3125,0.062 -2.5368,1.0339 1.4865,3.8933 1.375,1.0625 0.0101,-0.6844 -0.3839,-1.2229 -1.0625,-1.125 z m -27.875,0.3125 c -2.2794,1.3221 1.5397,3.8254 1.5312,1 0.0422,-0.8097 -0.80438,-1.1617 -1.5312,-1 z m 21,0.1875 c -0.10288,0.01 -0.22594,0.016 -0.34375,0.062 -2.4635,0.6533 0.65389,3.9536 1.25,1.4375 0.14725,-0.6604 -0.18611,-1.5367 -0.90625,-1.5 z m 14.781,0.5 c -0.11114,-3e-4 -0.24241,0.017 -0.375,0.062 -2.2654,0.491 0.27629,3.8686 1.2188,1.6562 0.1828,-0.6966 -0.0658,-1.7167 -0.84375,-1.7187 z m -22.75,0.5 c -0.10206,0 -0.22475,0.021 -0.34375,0.062 -2.4877,0.5577 0.69311,4.0134 1.25,1.4062 0.0964,-0.6631 -0.19186,-1.4923 -0.90625,-1.4687 z m 36.375,0.25 c -2.5577,1.5986 2.0252,3.8066 1.4062,0.6875 -0.11899,-0.5983 -0.86563,-0.7471 -1.4062,-0.6875 z m -46.875,0.4375 c -2.3721,1.4025 1.5331,3.8258 1.5,0.9687 0.019,-0.7992 -0.78647,-1.0798 -1.5,-0.9687 z m 42.406,0.3437 c -2.3838,1.4171 1.5468,3.8246 1.5,0.9688 0.0342,-0.7873 -0.81197,-1.0902 -1.5,-0.9688 z m -1.875,1.125 c -0.10182,0 -0.22592,0.02 -0.34375,0.062 -2.4872,0.6599 0.76588,3.9695 1.2812,1.4063 0.081,-0.6682 -0.22474,-1.4984 -0.9375,-1.4688 z m -36.812,1 c -0.1689,-0.014 -0.34688,-0.01 -0.5,0.031 -3.1751,2.0183 2.8878,3.3449 0.9375,0.1562 -0.10879,-0.1378 -0.2686,-0.1735 -0.4375,-0.1875 z m 14.469,0.7813 c -0.10563,0 -0.21386,-0.01 -0.3125,0.031 -3.2758,2.4646 3.414,2.921 0.625,-0.031 z m 8.5938,0.1875 c -0.1109,-5e-4 -0.24277,0.019 -0.375,0.062 -2.3078,0.4946 0.33851,3.8912 1.2188,1.625 0.18134,-0.6973 -0.0675,-1.6841 -0.84375,-1.6875 z m -33.969,0.2812 c -0.79449,1.3436 1.4419,0.3034 0,0 z m 16.719,0.5 c -0.11123,-2e-4 -0.24087,0.019 -0.375,0.062 -2.3287,0.4767 0.37423,3.8818 1.2188,1.625 0.15676,-0.7009 -0.0652,-1.6858 -0.84375,-1.6875 z m 25.688,0.25 c -0.10178,0 -0.22563,0.023 -0.34375,0.062 -2.4536,0.6391 0.70965,4.0084 1.2812,1.4063 0.0739,-0.7109 -0.22505,-1.4973 -0.9375,-1.4688 z m -41.781,0.3125 c -2.0271,0.9548 0.87628,3.8422 1.4688,1.4063 0.26146,-0.99 -0.5095,-1.5588 -1.4688,-1.4063 z m 58.562,0.3438 c -0.46543,1.5173 1.2873,0.016 0,0 z m -5.125,0.75 c -0.076,0 -0.16077,0.01 -0.25,0.031 -3.0306,0.3487 0.83801,4.3254 1.0312,1.0938 -0.0358,-0.5028 -0.24957,-1.1125 -0.78125,-1.125 z m 2.4688,0.094 c -2.1092,1.0247 0.91442,3.8678 1.4688,1.3438 0.2496,-0.9456 -0.56103,-1.4842 -1.4688,-1.3438 z m -52,1.3438 c -0.0995,0.01 -0.19763,0.023 -0.3125,0.062 -2.5287,0.6825 0.91485,4.0453 1.2812,1.2812 0.0586,-0.6864 -0.27187,-1.3874 -0.96875,-1.3437 z m 47,0.4687 c -0.15641,-0.013 -0.33057,0 -0.46875,0.031 -3.1773,2.0838 3.0548,3.3653 0.875,0.125 -0.11119,-0.1044 -0.24984,-0.1436 -0.40625,-0.1563 z m -42.625,0.3438 c -0.0767,0.01 -0.16747,0 -0.25,0.031 -2.8708,1.2007 1.7639,4.0181 1.25,0.7813 -0.0899,-0.4954 -0.46306,-0.8708 -1,-0.8125 z m -11.094,2.1875 c -0.94793,1.1432 1.3684,0.4955 0,0 z m 62.844,0.6562 c -0.46884,1.5092 1.313,0.024 0,0 z m -2.0938,0.5313 c -0.47001,1.5498 1.3156,0.031 0,0 z m -0.5625,1.0312 c -0.11201,-10e-4 -0.23955,0.019 -0.375,0.062 -2.2331,0.3711 0.22738,3.8952 1.2188,1.6563 0.15876,-0.7093 -0.0597,-1.7117 -0.84375,-1.7188 z m -58.562,0.375 c -0.90019,1.3114 1.2763,0.3254 0,0 z m 2.625,0.8438 c -0.11686,-0.011 -0.23512,-0.011 -0.34375,0.031 -3.2451,2.2246 3.3555,3.1936 0.6875,0 -0.11145,0 -0.22689,-0.021 -0.34375,-0.031 z m 58.719,4.3437 c -0.44704,1.5889 1.3149,-0.089 0,0 z m -62.812,0.6563 c -0.81923,1.038 1.1311,0.4943 0,0 z"
         style="fill:#472417;fill-opacity:0.76256002;fill-rule:evenodd"
         inkscape:connector-curvature="0" />
    </g>
  </g>
  <metadata
     id="metadata124">
    <rdf:RDF>
      <cc:Work>
        <dc:format>image/svg+xml</dc:format>
        <dc:type
           rdf:resource="http://purl.org/dc/dcmitype/StillImage" />
        <cc:license
           rdf:resource="http://creativecommons.org/licenses/publicdomain/" />
        <dc:publisher>
          <cc:Agent
             rdf:about="http://openclipart.org/">
            <dc:title>Openclipart</dc:title>
          </cc:Agent>
        </dc:publisher>
      </cc:Work>
      <cc:License
         rdf:about="http://creativecommons.org/licenses/publicdomain/">
        <cc:permits
           rdf:resource="http://creativecommons.org/ns#Reproduction" />
        <cc:permits
           rdf:resource="http://creativecommons.org/ns#Distribution" />
        <cc:permits
           rdf:resource="http://creativecommons.org/ns#DerivativeWorks" />
      </cc:License>
    </rdf:RDF>
  </metadata>
</svg>
