<?xml version="1.0" encoding="UTF-8" standalone="no"?>
<!-- Created with Inkscape (http://www.inkscape.org/) -->

<svg
   xmlns:dc="http://purl.org/dc/elements/1.1/"
   xmlns:cc="http://creativecommons.org/ns#"
   xmlns:rdf="http://www.w3.org/1999/02/22-rdf-syntax-ns#"
   xmlns:svg="http://www.w3.org/2000/svg"
   xmlns="http://www.w3.org/2000/svg"
   xmlns:sodipodi="http://sodipodi.sourceforge.net/DTD/sodipodi-0.dtd"
   xmlns:inkscape="http://www.inkscape.org/namespaces/inkscape"
   id="svg3602"
   sodipodi:docname="walking2.svg"
   viewBox="0 0 367.4 645.47"
   version="1.1"
   inkscape:version="0.92.1 r15371"
   width="391.89334"
   height="688.50128">
  <defs
     id="defs30" />
  <sodipodi:namedview
     id="base"
     bordercolor="#666666"
     inkscape:pageshadow="2"
     inkscape:window-y="24"
     fit-margin-left="0"
     pagecolor="#ffffff"
     fit-margin-top="0"
     inkscape:window-maximized="1"
     inkscape:zoom="0.4"
     inkscape:window-x="0"
     inkscape:window-height="1124"
     showgrid="false"
     borderopacity="1.0"
     inkscape:current-layer="layer1"
     inkscape:cx="9.4042258"
     inkscape:cy="-153.05784"
     fit-margin-right="0"
     fit-margin-bottom="0"
     inkscape:window-width="1920"
     inkscape:pageopacity="0.0"
     inkscape:document-units="px" />
  <g
     id="layer1"
     inkscape:label="Layer 1"
     inkscape:groupmode="layer"
     transform="translate(191.74,742.67)">
    <path
       id="path5172-04"
       style="fill:#4a3f3c;fill-rule:evenodd"
       sodipodi:type="star"
       sodipodi:sides="27"
       inkscape:transform-center-x="-0.45608293"
       sodipodi:r1="187.21111"
       sodipodi:r2="179.72267"
       inkscape:transform-center-y="-0.41247627"
       sodipodi:arg1="0.86101131"
       sodipodi:arg2="0.97736659"
       transform="matrix(0.9679,0,0,0.91433,672.57,-405.85)"
       inkscape:randomized="0"
       sodipodi:cy="-182.07372"
       sodipodi:cx="-705"
       inkscape:rounded="0.5"
       inkscape:flatsided="false"
       d="m -583,-40.073719 c -8.57378,7.366201 -12.12674,0.674024 -21.49771,6.995063 -9.37096,6.321039 -4.49684,12.122048 -14.53827,17.312444 -10.04143,5.190396 -11.9553,-2.140762 -22.5314,1.848799 -10.57611,3.989561 -7.17117,10.758253 -18.13892,13.49302758 -10.96775,2.73477442 -11.13935,-4.84013948 -22.35043,-3.39713468 -11.21108,1.4430048 -9.45889,8.8144777 -20.76169,8.9461988 -11.30279,0.131721 -9.72287,-7.2785837 -20.96453,-8.4599278 -11.24167,-1.1813442 -11.23669,6.3955116 -22.26519,3.91707799 -11.02851,-2.47843349 -7.78224,-9.32463749 -18.44844,-13.06664389 -10.66621,-3.742007 -12.40871,3.6317617 -22.56837,-1.323214 -10.15967,-4.954975 -5.42206,-10.867997 -14.93779,-16.968933 -9.51573,-6.100937 -12.91177,0.672222 -21.65488,-6.492171 -8.74311,-7.164392 -2.76957,-11.825461 -10.62183,-19.956424 -7.85226,-8.130963 -12.71876,-2.323556 -19.57397,-11.311132 -6.85522,-8.987576 0.0322,-12.145412 -5.73325,-21.868059 -5.76547,-9.722652 -11.84007,-5.194071 -16.43783,-15.520312 -4.59776,-10.32623 2.83228,-11.8106 -0.53559,-22.60078 -3.36786,-10.79018 -10.32308,-7.78457 -12.41551,-18.89278 -2.09243,-11.1082 5.47964,-10.83907 4.69095,-22.11509 -0.7887,-11.27601 -8.24958,-9.9554 -7.72388,-21.24673 0.5257,-11.29134 7.8316,-9.28322 9.66459,-20.43717 1.83299,-11.15395 -5.73133,-11.58954 -2.61584,-22.45528 3.11549,-10.86574 9.76136,-7.22689 14.11722,-17.65747 4.35586,-10.43058 -2.90412,-12.59888 2.6332,-22.45325 5.53733,-9.85437 11.16488,-4.78096 17.80879,-13.92585 6.6439,-9.1449 0.0797,-12.92901 7.7403,-21.24076 7.66064,-8.31175 11.96649,-2.0773 20.54027,-9.4435 8.57377,-7.3662 3.05915,-12.56213 12.43012,-18.88317 9.37096,-6.32104 12.12299,0.73836 22.16442,-4.45204 10.04143,-5.19039 5.87372,-11.51803 16.44982,-15.50759 10.57611,-3.98956 11.62594,3.51421 22.59369,0.77944 10.96775,-2.73478 8.37163,-9.85299 19.58271,-11.29599 11.21108,-1.44301 10.50213,6.10061 21.80492,5.96889 11.3028,-0.13172 10.41824,-7.65677 21.6599,-6.47543 11.24166,1.18135 8.81214,8.35813 19.84064,10.83656 11.02851,2.47844 11.90318,-5.04777 22.56939,-1.30576 10.6662,3.74201 6.64709,10.16505 16.80675,15.12003 10.15966,4.95497 12.74642,-2.16665 22.26215,3.93429 9.51573,6.10094 4.1237,11.42397 12.86681,18.58837 8.74311,7.16439 12.90251,0.83128 20.75477,8.96225 7.85226,8.13096 1.37799,12.06703 8.2332,21.0546 6.85522,8.98758 12.36301,3.78441 18.12848,13.50705 5.76548,9.72265 -1.442,12.05955 3.15576,22.38579 4.59776,10.32623 11.15702,6.5335 14.52488,17.32368 3.36787,10.79018 -4.18425,11.40193 -2.09182,22.51014 2.09243,11.10821 9.34955,8.93037 10.13825,20.20639 0.78869,11.27601 -6.70094,10.12963 -7.22664,21.42096 -0.5257,11.29134 7.03805,10.84581 5.20506,21.99977 -1.83299,11.15395 -8.85637,8.31125 -11.97186,19.17698 -3.11549,10.86574 4.34712,12.17655 -0.009,22.60713 -4.35586,10.430579 -10.53435,6.0448 -16.07167,15.899166 -5.53732,9.854369 1.42184,12.850838 -5.22207,21.995731 -6.6439,9.144893 -11.64442,3.452474 -19.30505,11.764222 -7.66064,8.311748 -1.5801,12.832341 -10.15387,20.198542 z" />
    <rect
       id="rect3252-6-7-2-7-1-6-3-1-1-2-3-3-9-7-6-7-6"
       style="fill:#466199;fill-rule:evenodd;stroke:#000000;stroke-width:8.69019985;stroke-linecap:round;stroke-linejoin:round"
       transform="matrix(1,-7.4216e-5,0.0014835,1,0,0)"
       rx="128.5"
       ry="44.310001"
       height="161.00999"
       width="261.48999"
       y="-277.13"
       x="-131.28999" />
    <path
       id="path3928-9-81-8-0-49-3-2-5-9-4-8-1-1-2-1-5"
       style="fill:#ffffff;stroke:#000000;stroke-width:6.23180008;stroke-linecap:round;stroke-linejoin:round"
       inkscape:connector-curvature="0"
       d="m -1.3108,-122.73 -1.2574,-63.297" />
    <path
       id="path4125-7-1-4"
       style="opacity:0.89299999;fill:none;stroke:#ffffff;stroke-width:6;stroke-linecap:round;stroke-linejoin:round"
       inkscape:connector-curvature="0"
       d="m 122.49,-154.4 -1.2306,-66.727" />
    <path
       id="path4125-7-3-4-5"
       style="opacity:0.89299999;fill:none;stroke:#ffffff;stroke-width:6;stroke-linecap:round;stroke-linejoin:round"
       inkscape:connector-curvature="0"
       d="m -119.51,-156.84 -1.2306,-66.727" />
    <path
       id="path3932-5-3-8-0-8-51-1-3-0-2-1-8-9-8-4-7-3"
       style="fill:#b888a3;fill-rule:evenodd;stroke:#000000;stroke-width:9.15139961;stroke-linecap:round;stroke-linejoin:round"
       inkscape:connector-curvature="0"
       d="m -4.8096,-502.7 c -0.48255,0 -0.96641,0.0436 -1.448,0.0436 h -0.82125 c -0.42186,0 -0.85227,-4.9e-4 -1.2751,0 v 0.10882 c -32.309,1.8314 -62.24,21.918 -82.298,47.275 -42.993,53.992 -59.39,125.1 -60.837,193.34 1.1295,17.502 -2.1708,38.511 4.9491,53.687 25.871,16.44 71.492,19.191 102.59,23.033 8.2532,0.38254 21.362,0.48871 35.595,0.57088 v 0.0436 c 1.4934,0 2.9144,0 4.3872,-0.0436 0.14519,-4.4e-4 0.28746,9.3e-4 0.43204,0 14.233,-0.082 27.341,-0.18679 35.595,-0.57088 31.099,-3.8419 76.72,-6.5936 102.59,-23.033 7.12,-15.176 3.8196,-36.185 4.9491,-53.687 -1.4474,-68.236 -17.844,-139.35 -60.837,-193.34 -20.058,-25.358 -49.989,-45.443 -82.298,-47.275 v -0.15188 c -0.42282,-4.4e-4 -0.85294,0 -1.275,0 z" />
    <rect
       id="rect3449-0-4-6-4-68-0-2-9-1-7-7-2-6"
       style="fill:#c1af94;fill-rule:evenodd;stroke:#060000;stroke-width:7.2262001;stroke-linecap:round;stroke-linejoin:round"
       transform="rotate(-171.67)"
       rx="30.511"
       ry="24.889999"
       height="51.386002"
       width="69.050003"
       y="277.98001"
       x="-109.52" />
    <path
       id="path4010-7-1-8-9-8-8-6-7-4-9-6-5-3-4-6-3"
       sodipodi:nodetypes="cscc"
       style="fill:#c3d1e5;stroke:#000000;stroke-width:7.52250004"
       inkscape:connector-curvature="0"
       d="m 18.251,-109.24 c 0,0 1.0129,-39.774 46.063,-41.935 60.602,-2.9071 68.465,35.835 68.465,35.835 5.4028,11.553 -115.01,22.365 -114.53,6.1 z" />
    <rect
       id="rect4240-8-9-5-1-5-0-6-1-8-0-5-9"
       style="fill:#c1af94;fill-rule:evenodd;stroke:#000000;stroke-width:8.69019985;stroke-linecap:round;stroke-linejoin:bevel"
       rx="145.56"
       ry="126.01"
       height="260.70999"
       width="304.16"
       y="-680.29999"
       x="-160.24001" />
    <path
       id="path5172-0"
       style="fill:#4a3f3c;fill-rule:evenodd"
       inkscape:connector-curvature="0"
       d="m 9.218,-734.66 c -8.9115,-0.13366 -8.775,5.9183 -19.031,6.0312 -10.94,0.12044 -10.274,-6.7881 -21.125,-5.4688 -10.851,1.3194 -8.3218,7.812 -18.938,10.312 -10.616,2.5005 -11.638,-4.3353 -21.875,-0.6875 -10.237,3.6478 -6.2184,9.4105 -15.938,14.156 -9.7191,4.7457 -12.367,-1.6857 -21.437,4.0938 -9.0702,5.7795 -3.7327,10.515 -12.031,17.25 -8.2986,6.7351 -12.46,1.0254 -19.875,8.625 -7.4147,7.5996 -1.0694,11.076 -7.5,19.438 -6.4306,8.3614 -11.89,3.7086 -17.25,12.719 -5.3596,9.0101 1.6848,10.994 -2.5312,20.531 -4.216,9.537 -10.641,6.2214 -13.656,16.156 -3.0155,9.9348 4.3054,10.333 2.5312,20.531 -1.7742,10.198 -8.8662,8.3635 -9.375,18.688 -0.50883,10.324 6.7054,9.1275 7.4688,19.438 0.68038,9.189 -5.0197,9.993 -4.8438,17.25 2.7813,-0.79372 5.6782,-1.8766 8.7812,-4.9688 7.4082,-7.3821 0.0832,-10.415 8.625,-17.125 8.5418,-6.7095 13.346,-1.6788 22.906,-7.625 9.56,-5.9462 3.3948,-10.147 13.844,-15.25 10.449,-5.1026 13.522,0.59612 24.719,-3.5938 11.196,-4.1899 6.5511,-9.3107 18.344,-12.531 11.793,-3.2205 12.958,2.8638 25.188,0.65625 12.229,-2.2076 9.3431,-7.9602 21.844,-9.125 12.5009,-1.1648 11.71,4.9188 24.312,4.8125 12.603,-0.10633 11.621,-6.1724 24.156,-5.2188 12.535,0.95362 9.8279,6.7493 22.125,8.75 12.2971,2.0007 13.263,-4.0832 25.156,-1.0625 11.893,3.0207 7.4217,8.1877 18.75,12.188 11.328,3.9998 14.202,-1.7374 24.812,3.1875 10.61,4.9249 4.5949,9.2166 14.344,15 9.7488,5.7834 14.401,0.68641 23.156,7.25 8.7555,6.5636 1.5437,9.7449 9.1875,17 7.6438,7.2551 13.79,3.0578 20.219,10.906 1.2297,1.5013 1.9167,2.7544 2.2812,3.9062 1.9482,-1.6782 3.6657,-3.6887 4.4375,-8.125 1.7742,-10.198 -5.5401,-9.801 -5.0312,-20.125 0.50883,-10.324 7.7634,-9.2838 7,-19.594 -0.76338,-10.31 -7.7872,-8.3122 -9.8125,-18.469 -2.0253,-10.1568 5.291,-10.697 2.0312,-20.562 -3.2598,-9.8658 -9.6123,-6.4022 -14.062,-15.844 -4.4502,-9.4416 2.5179,-11.579 -3.0625,-20.469 -5.5804,-8.8897 -10.927,-4.1262 -17.562,-12.344 -6.6352,-8.2176 -0.36854,-11.816 -7.9688,-19.25 -7.6002,-7.4344 -11.6,-1.6682 -20.062,-8.2188 -8.4625,-6.5506 -3.2585,-11.422 -12.469,-17 -9.2103,-5.5782 -11.698,0.93671 -21.531,-3.5938 -9.8336,-4.5305 -5.9574,-10.391 -16.281,-13.812 -10.324,-3.4214 -11.169,3.4536 -21.844,1.1875 -10.674,-2.2661 -8.3379,-8.8261 -19.219,-9.9062 -0.68005,-0.0675 -1.3122,-0.0848 -1.9062,-0.0937 z" />
    <g
       id="g5120-0-6"
       transform="matrix(0.83801,0,0,0.83801,-130.1,-748.84)">
      <g
         id="g5106-6-2"
         style="fill:none"
         transform="matrix(0.58737,0,0,0.48289,119.23,231.37)">
        <path
           id="path5086-7-5"
           sodipodi:nodetypes="cssc"
           style="fill:none;stroke:#ffffff;stroke-width:7.62529993;stroke-linecap:round;stroke-linejoin:round"
           inkscape:connector-curvature="0"
           d="m 81.578,513.77 c 0,0 -1.7051,-52.492 28.789,-51.735 45.755,1.1359 41.772,93.236 80.722,92.667 35.013,-0.51104 53.626,-67.084 53.626,-67.084" />
        <path
           id="path5086-3-4-3"
           sodipodi:nodetypes="cssc"
           style="fill:none;stroke:#ffffff;stroke-width:7.62529993;stroke-linecap:round;stroke-linejoin:round"
           inkscape:connector-curvature="0"
           d="m 98.357,526.7 c 0,0 -11.63,-52.501 18.767,-49.961 45.61,3.8114 36.244,95.521 75.16,97.232 34.983,1.5388 54.46,-38.831 54.46,-38.831" />
      </g>
      <path
         id="path5084-0-6"
         sodipodi:r2="32.343716"
         style="fill:#c5b2bd;stroke:#ffffff;stroke-width:12"
         sodipodi:type="star"
         d="m -845,-39.073715 c -3.12199,1.349683 -30.72352,-24.808825 -34.06614,-25.437592 -3.1869,-0.599476 -36.65699,14.16331 -38.80062,11.730087 -2.24838,-2.552114 14.1005,-36.886151 13.66557,-40.259473 -0.41467,-3.216174 -24.79774,-30.486167 -23.14603,-33.276787 1.73242,-2.92698 39.43811,2.01193 42.51193,0.55587 2.93062,-1.38823 21.33114,-33.0048 24.49559,-32.29628 3.31907,0.74315 10.27359,38.1296 12.60825,40.60302 2.22589,2.3582 37.98111,10.08808 38.28513,13.3166 0.31888,3.38626 -33.08868,21.553451 -34.7196,24.538173 -1.55495,2.845679 2.14247,39.239574 -0.83408,40.526382 z"
         sodipodi:r1="63.071388"
         inkscape:transform-center-x="-0.08444036"
         inkscape:transform-center-y="0.12869811"
         transform="matrix(0.57408,0,0,0.57408,713.34,535.27)"
         sodipodi:arg2="1.7910429"
         sodipodi:arg1="1.1284221"
         inkscape:randomized="0"
         sodipodi:cy="-96.073715"
         sodipodi:cx="-872"
         inkscape:rounded="0.08"
         inkscape:flatsided="false"
         sodipodi:sides="5" />
    </g>
    <path
       id="path8467-6-9-5-7-3-3-5-0-8-0-4-5"
       style="fill:#985279;fill-rule:evenodd;stroke:#000000;stroke-width:6.3901;stroke-linecap:round;stroke-linejoin:round"
       inkscape:connector-curvature="0"
       d="m 108.18,-447.67 c -3.0067,-0.0506 -5.9522,0.48228 -8.8196,1.4548 -22.58,7.6584 -20.184,41.706 0.72739,85.105 -5.661,12.13 -10.699,26.665 -14.821,43.28 -2.6191,10.559 69.112,36.751 73.103,27.368 16.832,-39.577 17.837,-73.837 6.6374,-93.015 -13.462,-40.111 -36.314,-63.848 -56.827,-64.192 z" />
    <path
       id="path3831-2-0-3-22-6-5-8-5-13-7-3-5-3-0-6"
       style="fill:#ffffff;stroke:#000000;stroke-width:7.51079988;stroke-linecap:round;stroke-linejoin:round"
       inkscape:connector-curvature="0"
       d="m -33.542,-483.01 28.254,0.92725" />
    <path
       id="path458-3-6-8-8-1-7-5-3-2-7-8-1-3-6"
       d="m -64.094,-523.14 c 0,6.7033 -5.4297,12.135 -12.135,12.135 -6.7032,0 -12.137,-5.4318 -12.137,-12.135 0,-6.7013 5.4343,-12.138 12.137,-12.138 6.7055,0 12.135,5.4363 12.135,12.138"
       style="fill:#000000"
       inkscape:connector-curvature="0" />
    <path
       id="path458-9-9-9-1-08-3-2-4-5-3-6-3-7-4"
       d="m 57.57,-525.32 c 0,6.7033 -5.4297,12.135 -12.135,12.135 -6.7032,0 -12.138,-5.4319 -12.138,-12.135 0,-6.7013 5.4343,-12.138 12.138,-12.138 6.7055,0 12.135,5.4362 12.135,12.138"
       style="fill:#000000"
       inkscape:connector-curvature="0" />
    <rect
       id="rect3449-0-4-6-4-68-8-8-6-6-9-0-5"
       style="fill:#c1af94;fill-rule:evenodd;stroke:#060000;stroke-width:7.2262001;stroke-linecap:round;stroke-linejoin:round"
       transform="rotate(8.3269)"
       rx="30.511"
       ry="24.889999"
       height="51.386002"
       width="69.050003"
       y="-449.13"
       x="-199.44" />
    <path
       id="path4010-1-9-1-1-1-9-9-3-8-3-5-6-6-7-2-6-5"
       sodipodi:nodetypes="cscc"
       style="fill:#c3d1e5;stroke:#000000;stroke-width:7.83249998"
       inkscape:connector-curvature="0"
       d="m -20.917,-112.14 c 0,0 -1.0632,-39.529 -48.354,-41.677 -63.617,-2.8892 -71.871,35.614 -71.871,35.614 -5.6716,11.482 120.73,22.227 120.23,6.0628 z" />
    <g
       id="g8610-3-8-9-8-0-02-1-5"
       style="fill:#985279"
       transform="matrix(-5.5795,-0.94902,-0.81402,4.7858,2269.6,-2050.3)">
      <path
         id="path8467-6-9-5-7-3-3-5-0-28-6-8"
         style="fill:#985279;fill-rule:evenodd;stroke:#000000;stroke-width:1.55999994;stroke-linecap:round;stroke-linejoin:round"
         d="m 372.97,435.97 c -6.1174,1.6095 -12.782,-6.993 -15.392,-21.893 -0.46129,-2.6332 16.249,-7.6864 17.117,-5.0029 4.6365,14.341 4.4887,25.261 -1.7247,26.896 z"
         inkscape:transform-center-x="-0.17337431"
         inkscape:transform-center-y="0.37926447"
         inkscape:connector-curvature="0"
         sodipodi:nodetypes="ssss" />
    </g>
  </g>
  <metadata
     id="metadata27">
    <rdf:RDF>
      <cc:Work>
        <dc:format>image/svg+xml</dc:format>
        <dc:type
           rdf:resource="http://purl.org/dc/dcmitype/StillImage" />
        <cc:license
           rdf:resource="http://creativecommons.org/licenses/publicdomain/" />
        <dc:publisher>
          <cc:Agent
             rdf:about="http://openclipart.org/">
            <dc:title>Openclipart</dc:title>
          </cc:Agent>
        </dc:publisher>
      </cc:Work>
      <cc:License
         rdf:about="http://creativecommons.org/licenses/publicdomain/">
        <cc:permits
           rdf:resource="http://creativecommons.org/ns#Reproduction" />
        <cc:permits
           rdf:resource="http://creativecommons.org/ns#Distribution" />
        <cc:permits
           rdf:resource="http://creativecommons.org/ns#DerivativeWorks" />
      </cc:License>
    </rdf:RDF>
  </metadata>
</svg>
