<?xml version="1.0" standalone="yes"?>
<svg xmlns="http://www.w3.org/2000/svg" xmlns:xlink="http://www.w3.org/1999/xlink" xmlns:svg="http://www.w3.org/2000/svg" xmlns:dc="http://purl.org/dc/elements/1.1/" xmlns:cc="http://web.resource.org/cc/" xmlns:rdf="http://www.w3.org/1999/02/22-rdf-syntax-ns#" width="325" height="325">
<path style="fill:#ffffff; stroke:none;" d="M0 0L0 325L98 325L99 315L91 312L97.311 298L94.0394 276L99 242L82 244C89.9065 225.652 100.295 207.904 109.247 190C113.894 180.705 120.67 167.701 120.552 157C120.477 150.204 111.187 142.461 108.465 136C100.769 117.735 101.215 96.2682 111.454 79C136.844 36.1774 195.182 44.5673 210.645 91C215.948 106.923 214.548 123.962 207.029 139C203.941 145.176 194.693 152.259 194.319 159C193.931 165.982 198.257 173.02 201.247 179C207.63 191.766 214.354 204.369 221 217L210 217C212.566 230.821 211.861 245.207 214.468 259C215.781 265.951 220.423 271.764 217.361 278.999C214.39 286.02 205.346 296.894 199 301.034C195.362 303.407 187.548 304.275 185.028 307.589C182.232 311.265 184 320.551 184 325L325 325L325 0L0 0z"/>
<path style="fill:#959993; stroke:none;" d="M63 15L63 16L66 16L63 15z"/>
<path style="fill:#ee2929; stroke:none;" d="M276 15L273 35C262.947 29.901 267.996 45.4311 268 51L267 51L261 47L263 57C253.86 62.166 269.596 80.0324 275.765 79.0787C282.111 78.0976 282.563 64.4687 284 60L290 62L292 47L298 51L298.396 27.3179L289 23.8518L276 15z"/>
<path style="fill:#030201; stroke:none;" d="M63 16L70.3773 34.0008L58 58C69.3589 58.8965 72.3637 58.1516 74 46L79 44L75 45C75.9258 38.1308 77.7832 28.8035 83 24L83 20L63 16z"/>
<path style="fill:#6a675d; stroke:none;" d="M70.6667 16.3333L71.3333 16.6667L70.6667 16.3333z"/>
<path style="fill:#d2c0b0; stroke:none;" d="M72.6667 16.3333L73.3333 16.6667L72.6667 16.3333z"/>
<path style="fill:#cb9e92; stroke:none;" d="M275 16L275 20L276 20L275 16z"/>
<path style="fill:#7b7e81; stroke:none;" d="M62.3333 17.6667L62.6667 18.3333L62.3333 17.6667z"/>
<path style="fill:#959993; stroke:none;" d="M77 17L78 18L77 17z"/>
<path style="fill:#afb0ae; stroke:none;" d="M87 21L87 22L90 22L87 21z"/>
<path style="fill:#2e5b21; stroke:none;" d="M90 21L90 22L96 22L90 21z"/>
<path style="fill:#848572; stroke:none;" d="M96 21L96 22L99 22L96 21z"/>
<path style="fill:#ee2929; stroke:none;" d="M33 23C25.7742 29.1004 15.0645 27.3916 8.42901 36.0146C4.27954 41.407 1.97194 62.3102 12.1458 63.5347C16.3532 64.0411 21.958 57.5327 26 56L23 51L26 42L35 40L40 38C44.2229 35.1839 52.2895 34.3556 49.3032 42.0008C47.2449 47.2704 41.7378 49.7477 38.7816 54.2855C36.8508 57.2495 37.7408 61.6035 37 65L52 65L56 61C51.476 48.1195 76.762 42.3549 68.9722 29.2137C67.0759 26.0147 62.7288 25.2687 60 23L33 23z"/>
<path style="fill:#f6b1a6; stroke:none;" d="M54.6667 22.3333L55.3333 22.6667L54.6667 22.3333z"/>
<path style="fill:#978d78; stroke:none;" d="M61.3333 22.6667L61.6667 23.3333L61.3333 22.6667z"/>
<path style="fill:#1fc109; stroke:none;" d="M78 36C83.3034 35.2984 90.3324 31.3429 94 37C100.66 38.0073 101.406 44.2724 94 44L88 45L76 59C82.6403 60.1946 89.1524 62.9478 95 59C95.7084 50.3108 103.035 50.3418 110 52L114 51C115.906 49.0247 118.565 47.6227 120.258 45.4722C125.211 39.178 115.611 33.4009 114 28L105 23L102 24L103 22C90.3623 23.3489 78.7843 18.8354 78 36z"/>
<path style="fill:#0d5603; stroke:none;" d="M98 22L98 23L101 23L98 22z"/>
<path style="fill:#651010; stroke:none;" d="M35 23L35 24L39 24L35 23M54 23L54 24L59 24L54 23z"/>
<path style="fill:#0d5603; stroke:none;" d="M102.667 23.3333L103.333 23.6667L102.667 23.3333z"/>
<path style="fill:#651010; stroke:none;" d="M27 25L27 26L33 25L27 25z"/>
<path style="fill:#8a1c19; stroke:none;" d="M60 24L60 25L63 25L60 24z"/>
<path style="fill:#0d5603; stroke:none;" d="M105.667 24.3333L106.333 24.6667L105.667 24.3333z"/>
<path style="fill:#31312e; stroke:none;" d="M107.667 25.3333L108.333 25.6667L107.667 25.3333z"/>
<path style="fill:#6a675d; stroke:none;" d="M109 26L112 28L109 26z"/>
<path style="fill:#8a1c19; stroke:none;" d="M21.6667 27.3333L22.3333 27.6667L21.6667 27.3333z"/>
<path style="fill:#cb9e92; stroke:none;" d="M16 29L17 30L16 29z"/>
<path style="fill:#2e5b21; stroke:none;" d="M113 29L118 34L113 29z"/>
<path style="fill:#a53231; stroke:none;" d="M70 31L70 36L71 36L70 31z"/>
<path style="fill:#f6b1a6; stroke:none;" d="M268.667 32.3333L269.333 32.6667L268.667 32.3333z"/>
<path style="fill:#ada18f; stroke:none;" d="M118 33L119 34L118 33z"/>
<path style="fill:#478a37; stroke:none;" d="M77 34L75 45L78 45L80 37L77 34z"/>
<path style="fill:#31312e; stroke:none;" d="M82 34L82 35L90 35L82 34z"/>
<path style="fill:#478a37; stroke:none;" d="M90 36L94 35L90 36z"/>
<path style="fill:#f6b1a6; stroke:none;" d="M298 34L298 44L299 44L298 34z"/>
<path style="fill:#a53231; stroke:none;" d="M44 35L44 36L50 36L44 35z"/>
<path style="fill:#0d5603; stroke:none;" d="M92.6667 35.3333L93.3333 35.6667L92.6667 35.3333M119.333 35.6667L119.667 36.3333L119.333 35.6667z"/>
<path style="fill:#a53231; stroke:none;" d="M297 35L296 51L296 52C301.065 50.9148 299.029 38.5209 297 35z"/>
<path style="fill:#651010; stroke:none;" d="M40.6667 36.3333L41.3333 36.6667L40.6667 36.3333z"/>
<path style="fill:#2e5b21; stroke:none;" d="M95 36L98 38L95 36z"/>
<path style="fill:#651010; stroke:none;" d="M37.6667 37.3333L38.3333 37.6667L37.6667 37.3333z"/>
<path style="fill:#cb5953; stroke:none;" d="M50.3333 37.6667L50.6667 38.3333L50.3333 37.6667z"/>
<path style="fill:#31312e; stroke:none;" d="M120.333 37.6667L120.667 38.3333L120.333 37.6667z"/>
<path style="fill:#935253; stroke:none;" d="M35.6667 38.3333L36.3333 38.6667L35.6667 38.3333z"/>
<path style="fill:#2e5b21; stroke:none;" d="M98 38L98 43L98 44C100.994 42.0419 100.994 39.9581 98 38z"/>
<path style="fill:#651010; stroke:none;" d="M32.6667 39.3333L33.3333 39.6667L32.6667 39.3333z"/>
<path style="fill:#cb9e92; stroke:none;" d="M5 40L6 41L5 40z"/>
<path style="fill:#8a1c19; stroke:none;" d="M30.6667 40.3333L31.3333 40.6667L30.6667 40.3333z"/>
<path style="fill:#651010; stroke:none;" d="M5.33333 41.6667L5.66667 42.3333L5.33333 41.6667z"/>
<path style="fill:#a53231; stroke:none;" d="M49 41L40 53C43.8155 50.3105 49.6842 46.1368 49 41z"/>
<path style="fill:#e08675; stroke:none;" d="M267 41L267 49L268 49L267 41z"/>
<path style="fill:#651010; stroke:none;" d="M26.6667 42.3333L27.3333 42.6667L26.6667 42.3333z"/>
<path style="fill:#afb0ae; stroke:none;" d="M99 42L100 43L99 42M91 44L91 45L94 45L91 44z"/>
<path style="fill:#0d5603; stroke:none;" d="M95 44L95 45L98 45L95 44z"/>
<path style="fill:#848572; stroke:none;" d="M79 45L80 46L79 45z"/>
<path style="fill:#2e5b21; stroke:none;" d="M89 45L89 46L94 46L89 45z"/>
<path style="fill:#8a1c19; stroke:none;" d="M4 46L4 52L5 52L4 46z"/>
<path style="fill:#0d5603; stroke:none;" d="M86.6667 46.3333L87.3333 46.6667L86.6667 46.3333z"/>
<path style="fill:#030201; stroke:none;" d="M119 46L120 47L119 46z"/>
<path style="fill:#e08675; stroke:none;" d="M262.667 46.3333L263.333 46.6667L262.667 46.3333z"/>
<path style="fill:#030201; stroke:none;" d="M118 47L119 48L118 47z"/>
<path style="fill:#cb5953; stroke:none;" d="M299 47L299 52L300 52L299 47z"/>
<path style="fill:#2e5b21; stroke:none;" d="M116.667 48.3333L117.333 48.6667L116.667 48.3333z"/>
<path style="fill:#f6b1a6; stroke:none;" d="M291.333 48.6667L291.667 49.3333L291.333 48.6667z"/>
<path style="fill:#a53231; stroke:none;" d="M23 49L25 52L23 49z"/>
<path style="fill:#d2c0b0; stroke:none;" d="M73.3333 49.6667L73.6667 50.3333L73.3333 49.6667z"/>
<path style="fill:#0d5603; stroke:none;" d="M114.667 49.3333L115.333 49.6667L114.667 49.3333z"/>
<path style="fill:#959993; stroke:none;" d="M81 50L82 51L81 50z"/>
<path style="fill:#0d5603; stroke:none;" d="M110 50L110 51L113 51L110 50z"/>
<path style="fill:#848572; stroke:none;" d="M150.667 50.3333L151.333 50.6667L150.667 50.3333z"/>
<path style="fill:#544d49; stroke:none;" d="M152.667 50.3333L153.333 50.6667L152.667 50.3333z"/>
<path style="fill:#030201; stroke:none;" d="M151 170C152.273 179.447 158.225 192.844 168.826 182.786C173.197 178.639 173.688 172.599 177.51 168.39C181.035 164.509 187.523 161.761 192 159L194 166C194.901 163.044 193.502 159.891 194.903 157C201.578 143.222 212.22 134.76 212.961 118C213.518 105.384 212.731 93.5517 207.215 82C202.889 72.9399 196.345 64.9952 188 59.3596C180.85 54.5305 173.517 51.8673 165 50.8449C124.91 46.0321 99.4939 84.0976 104.289 121C107.252 143.795 126.518 168.881 151 170z"/>
<path style="fill:#31312e; stroke:none;" d="M162.667 50.3333L163.333 50.6667L162.667 50.3333z"/>
<path style="fill:#848572; stroke:none;" d="M164 50L164 51L167 51L164 50z"/>
<path style="fill:#651010; stroke:none;" d="M56.3333 51.6667L56.6667 52.3333L56.3333 51.6667z"/>
<path style="fill:#6a675d; stroke:none;" d="M57.6667 51.3333L58.3333 51.6667L57.6667 51.3333z"/>
<path style="fill:#0d5603; stroke:none;" d="M97 53L109 52C105.479 50.5223 99.6606 49.9553 97 53z"/>
<path style="fill:#7b7e81; stroke:none;" d="M170 51L171 52L170 51z"/>
<path style="fill:#a53231; stroke:none;" d="M4 52C5.07799 57.1538 6.69009 65.1031 13 65L4 52z"/>
<path style="fill:#cb9e92; stroke:none;" d="M39 52L40 53L39 52z"/>
<path style="fill:#afb0ae; stroke:none;" d="M98 52L98 53L104 53L98 52z"/>
<path style="fill:#6a675d; stroke:none;" d="M152.667 52.3333L153.333 52.6667L152.667 52.3333z"/>
<path style="fill:#ada18f; stroke:none;" d="M154 52L154 53L162 53L154 52z"/>
<path style="fill:#6a675d; stroke:none;" d="M162 52L162 53L165 53L162 52z"/>
<path style="fill:#ffe3bb; stroke:none;" d="M290 52L290 59L291 59L290 52z"/>
<path style="fill:#cb9e92; stroke:none;" d="M297.667 52.3333L298.333 52.6667L297.667 52.3333z"/>
<path style="fill:#651010; stroke:none;" d="M26.3333 53.6667L26.6667 54.3333L26.3333 53.6667z"/>
<path style="fill:#848572; stroke:none;" d="M27.3333 53.6667L27.6667 54.3333L27.3333 53.6667z"/>
<path style="fill:#afb0ae; stroke:none;" d="M72.3333 53.6667L72.6667 54.3333L72.3333 53.6667z"/>
<path style="fill:#030201; stroke:none;" d="M96 53L97 54L96 53z"/>
<path style="fill:#ada18f; stroke:none;" d="M147.667 53.3333L148.333 53.6667L147.667 53.3333z"/>
<path style="fill:#ffe3bb; stroke:none;" d="M149 53.4391C81.5317 64.0634 98.5336 178.723 168 167.56C223.35 158.666 224.75 71.3756 174 54.7492C166.411 52.2629 156.862 52.201 149 53.4391z"/>
<path style="fill:#959993; stroke:none;" d="M78 54L79 55L78 54z"/>
<path style="fill:#0c2d6a; stroke:none;" d="M95 54L94 58L95 58L95 54z"/>
<path style="fill:#959993; stroke:none;" d="M96 54L97 55L96 54M137 54L138 55L137 54z"/>
<path style="fill:#ada18f; stroke:none;" d="M179 54L180 55L179 54z"/>
<path style="fill:#651010; stroke:none;" d="M54 55L54 59L55 59L54 55z"/>
<path style="fill:#978d78; stroke:none;" d="M135 55L136 56L135 55M181 55L182 56L181 55z"/>
<path style="fill:#935253; stroke:none;" d="M23.6667 56.3333L24.3333 56.6667L23.6667 56.3333z"/>
<path style="fill:#959993; stroke:none;" d="M95 56L96 57L95 56M133 56L134 57L133 56z"/>
<path style="fill:#ada18f; stroke:none;" d="M183 56L184 57L183 56z"/>
<path style="fill:#651010; stroke:none;" d="M22 57L23 58L22 57z"/>
<path style="fill:#afb0ae; stroke:none;" d="M71.3333 57.6667L71.6667 58.3333L71.3333 57.6667z"/>
<path style="fill:#6a675d; stroke:none;" d="M136 57L137 58L136 57M180 57L181 58L180 57z"/>
<path style="fill:#574936; stroke:none;" d="M20.6667 58.3333L21.3333 58.6667L20.6667 58.3333z"/>
<path style="fill:#651010; stroke:none;" d="M37 58L37 64L38 64L37 58z"/>
<path style="fill:#31312e; stroke:none;" d="M58 58L58 59L63 59L58 58z"/>
<path style="fill:#6a675d; stroke:none;" d="M186 58L187 59L186 58z"/>
<path style="fill:#651010; stroke:none;" d="M19 59L20 60L19 59z"/>
<path style="fill:#cb9e92; stroke:none;" d="M20 59L21 60L20 59z"/>
<path style="fill:#0d5603; stroke:none;" d="M80 59L80 60L83 60L80 59z"/>
<path style="fill:#0c2d6a; stroke:none;" d="M93.3333 59.6667L93.6667 60.3333L93.3333 59.6667z"/>
<path style="fill:#651010; stroke:none;" d="M16 62L19 60L16 62z"/>
<path style="fill:#0d5603; stroke:none;" d="M83 60L83 61L87 61L83 60z"/>
<path style="fill:#6a675d; stroke:none;" d="M127 60L128 61L127 60z"/>
<path style="fill:#978d78; stroke:none;" d="M131 60L132 61L131 60M185 60L186 61L185 60z"/>
<path style="fill:#7b7e81; stroke:none;" d="M189 60L190 61L189 60z"/>
<path style="fill:#935253; stroke:none;" d="M55 61L52 63L52 64L55 61z"/>
<path style="fill:#2e5b21; stroke:none;" d="M90 62L90 63L94 62L90 62z"/>
<path style="fill:#a53231; stroke:none;" d="M259 61C258.816 64.5088 258.884 66.1932 262 68L259 61z"/>
<path style="fill:#afb0ae; stroke:none;" d="M89 62L90 63L89 62z"/>
<path style="fill:#837768; stroke:none;" d="M128 62L129 63L128 62z"/>
<path style="fill:#6a675d; stroke:none;" d="M188 62L189 63L188 62z"/>
<path style="fill:#f6b1a6; stroke:none;" d="M258 62L258 65L259 65L258 62z"/>
<path style="fill:#7b7e81; stroke:none;" d="M91.6667 63.3333L92.3333 63.6667L91.6667 63.3333z"/>
<path style="fill:#651010; stroke:none;" d="M50 64L51 65L50 64z"/>
<path style="fill:#a53231; stroke:none;" d="M38 65L39 70L43 69L43 68L38 65z"/>
<path style="fill:#ada18f; stroke:none;" d="M121 65L122 66L121 65z"/>
<path style="fill:#651010; stroke:none;" d="M45.6667 66.3333L46.3333 66.6667L45.6667 66.3333z"/>
<path style="fill:#31312e; stroke:none;" d="M54 68L57 67L54 68z"/>
<path style="fill:#030201; stroke:none;" d="M55 73C59.6021 75.4753 60.5666 80.0363 61 85C71.3837 81.2156 73.9987 81.1154 74 69C67.062 67.5688 55.3437 62.6654 55 73z"/>
<path style="fill:#31312e; stroke:none;" d="M59 66L59 67L62 67L59 66z"/>
<path style="fill:#959993; stroke:none;" d="M62.6667 66.3333L63.3333 66.6667L62.6667 66.3333z"/>
<path style="fill:#ada18f; stroke:none;" d="M120 66L121 67L120 66z"/>
<path style="fill:#651010; stroke:none;" d="M43.6667 67.3333L44.3333 67.6667L43.6667 67.3333z"/>
<path style="fill:#afb0ae; stroke:none;" d="M67.6667 67.3333L68.3333 67.6667L67.6667 67.3333z"/>
<path style="fill:#2e5b21; stroke:none;" d="M74 67L74 68L79 68L74 67z"/>
<path style="fill:#afb0ae; stroke:none;" d="M79.6667 67.3333L80.3333 67.6667L79.6667 67.3333z"/>
<path style="fill:#6a675d; stroke:none;" d="M54 68L54 72L55 72L54 68z"/>
<path style="fill:#7b7e81; stroke:none;" d="M71 68L72 69L71 68z"/>
<path style="fill:#1fc109; stroke:none;" d="M73 68L73 80L85 79L88 71L85 68L73 68z"/>
<path style="fill:#0d5603; stroke:none;" d="M81 68L81 69L84 69L81 68z"/>
<path style="fill:#d2c0b0; stroke:none;" d="M172 68L172 69L177 69L172 68z"/>
<path style="fill:#31312e; stroke:none;" d="M85 69L85 70L88 71L85 69z"/>
<path style="fill:#574936; stroke:none;" d="M167.667 69.3333L168.333 69.6667L167.667 69.3333z"/>
<path style="fill:#030201; stroke:none;" d="M126 76L126 77C140.948 84.1936 155.576 73.8385 170 71.3287C180.372 69.524 189.407 74.2578 199 77C195.669 71.239 186.184 70.093 180 69.2894C168.649 67.8143 159.665 73.256 149 75.7639C141.163 77.6068 133.874 76.6214 126 76z"/>
<path style="fill:#848572; stroke:none;" d="M181 69L181 70L184 70L181 69z"/>
<path style="fill:#6a675d; stroke:none;" d="M164 70L165 71L164 70z"/>
<path style="fill:#959993; stroke:none;" d="M186.667 70.3333L187.333 70.6667L186.667 70.3333z"/>
<path style="fill:#978d78; stroke:none;" d="M168.667 71.3333L169.333 71.6667L168.667 71.3333z"/>
<path style="fill:#ada18f; stroke:none;" d="M178 71L178 72L181 72L178 71z"/>
<path style="fill:#837768; stroke:none;" d="M190 71L191 72L190 71z"/>
<path style="fill:#ee2929; stroke:none;" d="M54 72L41 76L41 85L46 93L60 85C59.9837 79.1036 59.9802 74.5154 54 72z"/>
<path style="fill:#2e5b21; stroke:none;" d="M86.3333 72.6667L86.6667 73.3333L86.3333 72.6667z"/>
<path style="fill:#848572; stroke:none;" d="M115 72L116 73L115 72z"/>
<path style="fill:#6a675d; stroke:none;" d="M159 72L160 73L159 72z"/>
<path style="fill:#848572; stroke:none;" d="M165 72L166 73L165 72z"/>
<path style="fill:#574936; stroke:none;" d="M185.667 72.3333L186.333 72.6667L185.667 72.3333z"/>
<path style="fill:#848572; stroke:none;" d="M193 72L194 73L193 72z"/>
<path style="fill:#959993; stroke:none;" d="M198 72L199 73L198 72M201 72L202 73L201 72z"/>
<path style="fill:#651010; stroke:none;" d="M51 73L51 74L54 74L51 73z"/>
<path style="fill:#6a675d; stroke:none;" d="M117 73L118 74L117 73z"/>
<path style="fill:#848572; stroke:none;" d="M156 73L157 74L156 73z"/>
<path style="fill:#6a675d; stroke:none;" d="M189 73L190 74L189 73z"/>
<path style="fill:#31312e; stroke:none;" d="M85.3333 74.6667L85.6667 75.3333L85.3333 74.6667z"/>
<path style="fill:#837768; stroke:none;" d="M153 74L154 75L153 74z"/>
<path style="fill:#848572; stroke:none;" d="M160 74L161 75L160 74z"/>
<path style="fill:#6a675d; stroke:none;" d="M192 74L193 75L192 74z"/>
<path style="fill:#978d78; stroke:none;" d="M198 74L199 75L198 74z"/>
<path style="fill:#6a675d; stroke:none;" d="M113 75L114 76L113 75z"/>
<path style="fill:#837768; stroke:none;" d="M126.667 75.3333L127.333 75.6667L126.667 75.3333z"/>
<path style="fill:#574936; stroke:none;" d="M149.667 75.3333L150.333 75.6667L149.667 75.3333z"/>
<path style="fill:#6a675d; stroke:none;" d="M157 75L158 76L157 75z"/>
<path style="fill:#837768; stroke:none;" d="M203 75L204 76L203 75z"/>
<path style="fill:#ee2929; stroke:none;" d="M250 91L250 92L253 98L264 102L271 95L268 91C278.559 86.7728 262.528 68.3692 252.603 77.6427C249.49 80.5513 251.733 87.19 250 91z"/>
<path style="fill:#cb5953; stroke:none;" d="M40.3333 76.6667L40.6667 77.3333L40.3333 76.6667z"/>
<path style="fill:#030201; stroke:none;" d="M84.3333 76.6667L84.6667 77.3333L84.3333 76.6667z"/>
<path style="fill:#959993; stroke:none;" d="M85 76L86 77L85 76z"/>
<path style="fill:#848572; stroke:none;" d="M115 76L116 77L115 76z"/>
<path style="fill:#afb0ae; stroke:none;" d="M130.667 76.3333L131.333 76.6667L130.667 76.3333z"/>
<path style="fill:#6a675d; stroke:none;" d="M144.667 76.3333L145.333 76.6667L144.667 76.3333M154 76L155 77L154 76M201 76L202 77L201 76M126 77L127 78L126 77z"/>
<path style="fill:#f6b1a6; stroke:none;" d="M40 78L40 81L41 81L40 78z"/>
<path style="fill:#ada18f; stroke:none;" d="M111 78L112 79L111 78M146.667 78.3333L147.333 78.6667L146.667 78.3333z"/>
<path style="fill:#651010; stroke:none;" d="M41 79L41 84L42 84L41 79z"/>
<path style="fill:#31312e; stroke:none;" d="M83 79L73 80L73 81L83 79z"/>
<path style="fill:#848572; stroke:none;" d="M133 79L133 80L142 80L133 79z"/>
<path style="fill:#cb5953; stroke:none;" d="M250 79L250 84L251 84L250 79M60 80L57 85L57 86L61 86L60 80z"/>
<path style="fill:#848572; stroke:none;" d="M110 80L111 81L110 80z"/>
<path style="fill:#959993; stroke:none;" d="M206 80L207 81L206 80z"/>
<path style="fill:#a53231; stroke:none;" d="M275 80L277 83L277 80L275 80z"/>
<path style="fill:#6a675d; stroke:none;" d="M112 81L113 82L112 81M204 81L205 82L204 81z"/>
<path style="fill:#848572; stroke:none;" d="M109 82L110 83L109 82z"/>
<path style="fill:#837768; stroke:none;" d="M192 82L193 83L192 82z"/>
<path style="fill:#030201; stroke:none;" d="M193.043 82.8511C185.333 85.0866 187.943 99.5042 195.946 97.1489C203.536 94.9153 201.273 80.4652 193.043 82.8511z"/>
<path style="fill:#837768; stroke:none;" d="M196 82L197 83L196 82z"/>
<path style="fill:#959993; stroke:none;" d="M207 82L208 83L207 82z"/>
<path style="fill:#7b7e81; stroke:none;" d="M64.6667 83.3333L65.3333 83.6667L64.6667 83.3333z"/>
<path style="fill:#d2c0b0; stroke:none;" d="M66.6667 83.3333L67.3333 83.6667L66.6667 83.3333z"/>
<path style="fill:#6a675d; stroke:none;" d="M111 83L112 84L111 83M205 83L206 84L205 83z"/>
<path style="fill:#959993; stroke:none;" d="M108 84L109 85L108 84z"/>
<path style="fill:#978d78; stroke:none;" d="M122 84L122 85L126 85L122 84z"/>
<path style="fill:#651010; stroke:none;" d="M42 85L42 88L43 88L42 85z"/>
<path style="fill:#030201; stroke:none;" d="M125 120L117 110L122 119C109.67 115.339 114.237 88.8315 126 87L121 100L122 101C125.186 98.0485 128.128 93.6737 127.758 89.0586C127.351 83.9743 121.235 84.5725 118.394 87.3179C110.774 94.6797 108.658 124.481 125 120M173 85L172 86C177.674 94.0544 186.845 100.24 190.015 110C192.856 118.745 183.03 122.983 176 122L180 113L174 123C183.1 127.373 194.958 121.072 192.609 110C190.545 100.272 180.791 90.4884 173 85z"/>
<path style="fill:#651010; stroke:none;" d="M57.6667 86.3333L58.3333 86.6667L57.6667 86.3333M56 87L57 88L56 87z"/>
<path style="fill:#544d49; stroke:none;" d="M107 87L108 88L107 87z"/>
<path style="fill:#978d78; stroke:none;" d="M121 87L122 88L121 87M128 87L128 90L129 90L128 87z"/>
<path style="fill:#6a675d; stroke:none;" d="M209 87L210 88L209 87z"/>
<path style="fill:#cb9e92; stroke:none;" d="M272.333 87.6667L272.667 88.3333L272.333 87.6667z"/>
<path style="fill:#651010; stroke:none;" d="M43 88L44 92L45 92L43 88z"/>
<path style="fill:#935253; stroke:none;" d="M54.6667 88.3333L55.3333 88.6667L54.6667 88.3333z"/>
<path style="fill:#978d78; stroke:none;" d="M109 88L110 89L109 88z"/>
<path style="fill:#837768; stroke:none;" d="M148 88L148 89L151 89L148 88z"/>
<path style="fill:#848572; stroke:none;" d="M207 88L208 89L207 88z"/>
<path style="fill:#651010; stroke:none;" d="M52.6667 89.3333L53.3333 89.6667L52.6667 89.3333z"/>
<path style="fill:#030201; stroke:none;" d="M147.147 90.0324C140.725 93.7133 145.113 107.5 152.606 102.816C158.863 98.9046 154.729 85.6868 147.147 90.0324z"/>
<path style="fill:#cb9e92; stroke:none;" d="M43 90L44 91L43 90z"/>
<path style="fill:#935253; stroke:none;" d="M51.6667 90.3333L52.3333 90.6667L51.6667 90.3333z"/>
<path style="fill:#6a675d; stroke:none;" d="M145 90L146 91L145 90M210 90L211 91L210 90z"/>
<path style="fill:#651010; stroke:none;" d="M50 91L51 92L50 91z"/>
<path style="fill:#6a675d; stroke:none;" d="M125 91L126 92L125 91M154 91L155 92L154 91z"/>
<path style="fill:#978d78; stroke:none;" d="M208 91L209 92L208 91z"/>
<path style="fill:#651010; stroke:none;" d="M45 92L45 93L50 93L50 92L45 92z"/>
<path style="fill:#848572; stroke:none;" d="M127 92L128 93L127 92z"/>
<path style="fill:#837768; stroke:none;" d="M188 92L189 93L188 92z"/>
<path style="fill:#6a675d; stroke:none;" d="M200 92L201 93L200 92z"/>
<path style="fill:#cb9e92; stroke:none;" d="M45 93L46 94L45 93z"/>
<path style="fill:#d2c0b0; stroke:none;" d="M46.6667 94.3333L47.3333 94.6667L46.6667 94.3333z"/>
<path style="fill:#574936; stroke:none;" d="M143 94L143 99L144 99L143 94z"/>
<path style="fill:#ada18f; stroke:none;" d="M209.333 94.6667L209.667 95.3333L209.333 94.6667z"/>
<path style="fill:#e08675; stroke:none;" d="M252.333 95.6667L252.667 96.3333L252.333 95.6667z"/>
<path style="fill:#544d49; stroke:none;" d="M104.333 97.6667L104.667 98.3333L104.333 97.6667z"/>
<path style="fill:#6a675d; stroke:none;" d="M122 97L123 98L122 97z"/>
<path style="fill:#837768; stroke:none;" d="M182 97L183 98L182 97z"/>
<path style="fill:#978d78; stroke:none;" d="M185 97L186 98L185 97z"/>
<path style="fill:#6a675d; stroke:none;" d="M192 97L193 98L192 97M196 97L197 98L196 97M212.333 97.6667L212.667 98.3333L212.333 97.6667z"/>
<path style="fill:#e08675; stroke:none;" d="M256 97L256 98L260 98L256 97z"/>
<path style="fill:#848572; stroke:none;" d="M106.333 98.6667L106.667 99.3333L106.333 98.6667M124 98L125 99L124 98z"/>
<path style="fill:#837768; stroke:none;" d="M210.333 98.6667L210.667 99.3333L210.333 98.6667M113 99L113 102L114 102L113 99M155 99L156 100L155 99z"/>
<path style="fill:#f6b1a6; stroke:none;" d="M264.333 99.6667L264.667 100.333L264.333 99.6667z"/>
<path style="fill:#978d78; stroke:none;" d="M115 101L115 111L116 111L115 101z"/>
<path style="fill:#6a675d; stroke:none;" d="M154 101L155 102L154 101z"/>
<path style="fill:#afb0ae; stroke:none;" d="M103.333 102.667L103.667 103.333L103.333 102.667z"/>
<path style="fill:#978d78; stroke:none;" d="M145 102L146 103L145 102z"/>
<path style="fill:#afb0ae; stroke:none;" d="M213.333 102.667L213.667 103.333L213.333 102.667z"/>
<path style="fill:#837768; stroke:none;" d="M152 103L153 104L152 103z"/>
<path style="fill:#31312e; stroke:none;" d="M103 104L103 116L104 116L103 104z"/>
<path style="fill:#837768; stroke:none;" d="M105 104L105 116L106 116L105 104z"/>
<path style="fill:#978d78; stroke:none;" d="M148 104L148 105L151 105L148 104z"/>
<path style="fill:#6a675d; stroke:none;" d="M211 104L211 116L212 116L211 104z"/>
<path style="fill:#544d49; stroke:none;" d="M213 104L213 116L214 116L213 104z"/>
<path style="fill:#837768; stroke:none;" d="M118 109L119 110L118 109z"/>
<path style="fill:#afb0ae; stroke:none;" d="M113.333 112.667L113.667 113.333L113.333 112.667z"/>
<path style="fill:#ada18f; stroke:none;" d="M193 112L193 115L194 115L193 112z"/>
<path style="fill:#978d78; stroke:none;" d="M121 113L122 114L121 113z"/>
<path style="fill:#6a675d; stroke:none;" d="M177 113L178 114L177 113M119 114L120 115L119 114z"/>
<path style="fill:#848572; stroke:none;" d="M179 114L180 115L179 114z"/>
<path style="fill:#978d78; stroke:none;" d="M116 115L117 116L116 115z"/>
<path style="fill:#ada18f; stroke:none;" d="M103.333 116.667L103.667 117.333L103.333 116.667z"/>
<path style="fill:#959993; stroke:none;" d="M120 116L121 117L120 116z"/>
<path style="fill:#afb0ae; stroke:none;" d="M213.333 116.667L213.667 117.333L213.333 116.667z"/>
<path style="fill:#978d78; stroke:none;" d="M118 118L118 119L122 119L118 118z"/>
<path style="fill:#848572; stroke:none;" d="M106.333 120.667L106.667 121.333L106.333 120.667z"/>
<path style="fill:#544d49; stroke:none;" d="M117.667 120.333L118.333 120.667L117.667 120.333z"/>
<path style="fill:#837768; stroke:none;" d="M174 120L175 121L174 120M186 120L187 121L186 120M210 120L210 123L211 123L210 120z"/>
<path style="fill:#848572; stroke:none;" d="M176 121L177 122L176 121z"/>
<path style="fill:#978d78; stroke:none;" d="M104.333 122.667L104.667 123.333L104.333 122.667z"/>
<path style="fill:#848572; stroke:none;" d="M178 122L178 123L182 123L178 122z"/>
<path style="fill:#6a675d; stroke:none;" d="M187 122L188 123L187 122z"/>
<path style="fill:#959993; stroke:none;" d="M212.333 122.667L212.667 123.333L212.333 122.667z"/>
<path style="fill:#837768; stroke:none;" d="M174 123L175 124L174 123z"/>
<path style="fill:#7b7e81; stroke:none;" d="M105 127L106 128L105 127z"/>
<path style="fill:#848572; stroke:none;" d="M211 127L212 128L211 127z"/>
<path style="fill:#978d78; stroke:none;" d="M108 129L109 130L108 129z"/>
<path style="fill:#848572; stroke:none;" d="M208 129L209 130L208 129z"/>
<path style="fill:#544d49; stroke:none;" d="M162.667 130.333L163.333 130.667L162.667 130.333z"/>
<path style="fill:#030201; stroke:none;" d="M134 151C146.931 150.847 153.315 127.221 166.892 141.05C168.674 142.865 169.845 144.773 171 147L154 149L154 150L196 147C183.202 122.329 145.166 127.059 134 151z"/>
<path style="fill:#978d78; stroke:none;" d="M173.667 130.333L174.333 130.667L173.667 130.333z"/>
<path style="fill:#6a675d; stroke:none;" d="M210 130L211 131L210 130M177 131L178 132L177 131z"/>
<path style="fill:#978d78; stroke:none;" d="M109 132L110 133L109 132z"/>
<path style="fill:#837768; stroke:none;" d="M207 132L208 133L207 132z"/>
<path style="fill:#6a675d; stroke:none;" d="M107 133L108 134L107 133M209 133L210 134L209 133M150 135L151 136L150 135z"/>
<path style="fill:#978d78; stroke:none;" d="M185 135L186 136L185 135z"/>
<path style="fill:#afb0ae; stroke:none;" d="M108 136L109 137L108 136z"/>
<path style="fill:#ee2929; stroke:none;" d="M142 150L169 146C162.216 130.503 147.603 136.767 142 150z"/>
<path style="fill:#6a675d; stroke:none;" d="M111 137L112 138L111 137M147 137L148 138L147 137z"/>
<path style="fill:#978d78; stroke:none;" d="M109 138L110 139L109 138z"/>
<path style="fill:#ada18f; stroke:none;" d="M207 138L208 139L207 138z"/>
<path style="fill:#6a675d; stroke:none;" d="M112 139L113 140L112 139z"/>
<path style="fill:#cb5953; stroke:none;" d="M165 139L169 146L151 148L151 149L171 147L165 139z"/>
<path style="fill:#959993; stroke:none;" d="M110 140L111 141L110 140z"/>
<path style="fill:#6a675d; stroke:none;" d="M143 140L144 141L143 140z"/>
<path style="fill:#ada18f; stroke:none;" d="M206 140L207 141L206 140z"/>
<path style="fill:#837768; stroke:none;" d="M115 144L116 145L115 144z"/>
<path style="fill:#6a675d; stroke:none;" d="M201 144L202 145L201 144z"/>
<path style="fill:#7b7e81; stroke:none;" d="M113 145L114 146L113 145z"/>
<path style="fill:#978d78; stroke:none;" d="M203 145L204 146L203 145z"/>
<path style="fill:#544d49; stroke:none;" d="M185.667 147.333L186.333 147.667L185.667 147.333z"/>
<path style="fill:#978d78; stroke:none;" d="M187 147L187 148L190 148L187 147z"/>
<path style="fill:#959993; stroke:none;" d="M115 148L116 149L115 148z"/>
<path style="fill:#544d49; stroke:none;" d="M175 148L175 149L178 149L175 148z"/>
<path style="fill:#ada18f; stroke:none;" d="M178.667 148.333L179.333 148.667L178.667 148.333z"/>
<path style="fill:#978d78; stroke:none;" d="M198 148L199 149L198 148z"/>
<path style="fill:#afb0ae; stroke:none;" d="M201 148L202 149L201 148z"/>
<path style="fill:#574936; stroke:none;" d="M151 149L151 150L158 151L158 150L151 149z"/>
<path style="fill:#848572; stroke:none;" d="M164 149L164 150L169 150L164 149z"/>
<path style="fill:#837768; stroke:none;" d="M133 150L133 152L135 152L133 150z"/>
<path style="fill:#544d49; stroke:none;" d="M139 151L139 152L144 152L139 151z"/>
<path style="fill:#030201; stroke:none;" d="M143 150L143 151L153 151L143 150z"/>
<path style="fill:#31312e; stroke:none;" d="M135 151L135 152L139 152L135 151z"/>
<path style="fill:#cb9e92; stroke:none;" d="M144 151L144 152L147 152L144 151z"/>
<path style="fill:#6a675d; stroke:none;" d="M121 155L122 156L121 155z"/>
<path style="fill:#01032a; stroke:none;" d="M121 156C113.723 187.744 94.3963 214.225 82 244L100 244C105.102 238.79 118.779 239.913 126 239L130.275 285L135 304L136 304L132.591 281L129 239C134.261 237.15 133.625 229.834 134.075 225C135.381 210.966 139.709 197.1 140 183L138 183L131 237L85 242L124 156L121 156z"/>
<path style="fill:#0255fd; stroke:none;" d="M123 157L99.7531 212L87 241L131 237L138 183L140 183C139.424 196.426 135.601 209.64 134.166 223C133.574 228.51 134.275 235.918 129 239L132.428 281L135 306C154.376 306.002 186.291 312.373 201.786 296.787C209.689 288.839 207.049 272.224 206.999 262C206.837 228.341 198.769 192.811 192 160C187.31 161.102 180.956 164.165 177.51 167.637C171.455 173.738 161.384 199.023 153.119 178C152.108 175.428 151.558 172.695 151 170C140.137 169.052 131.913 162.55 123 157z"/>
<path style="fill:#544d49; stroke:none;" d="M193.333 157.667L193.667 158.333L193.333 157.667z"/>
<path style="fill:#848572; stroke:none;" d="M120 158L121 159L120 158z"/>
<path style="fill:#6a675d; stroke:none;" d="M128 158L129 159L128 158z"/>
<path style="fill:#0f3a99; stroke:none;" d="M190.667 159.333L191.333 159.667L190.667 159.333z"/>
<path style="fill:#848572; stroke:none;" d="M131 160L132 161L131 160z"/>
<path style="fill:#837768; stroke:none;" d="M185 160L186 161L185 160z"/>
<path style="fill:#7b7e81; stroke:none;" d="M194.333 161.667L194.667 162.333L194.333 161.667z"/>
<path style="fill:#01032a; stroke:none;" d="M193 164C196.834 194.339 202.389 224.641 206.424 255C207.95 266.479 210.296 286.802 201.786 295.895C188.847 309.721 161.098 307 144 307L144 308C160.947 308 191.053 311.598 203.785 297.895C211.03 290.097 209.016 275.777 209 266C208.961 241.817 204.441 216.72 200.321 193C198.813 184.315 198.002 171.311 193 164z"/>
<path style="fill:#978d78; stroke:none;" d="M118 165L119 166L118 165z"/>
<path style="fill:#0c2d6a; stroke:none;" d="M120.333 165.667L120.667 166.333L120.333 165.667z"/>
<path style="fill:#978d78; stroke:none;" d="M141 165L142 166L141 165M175 165L176 166L175 165M144 166L145 167L144 166z"/>
<path style="fill:#6a675d; stroke:none;" d="M195.333 166.667L195.667 167.333L195.333 166.667z"/>
<path style="fill:#959993; stroke:none;" d="M147.667 167.333L148.333 167.667L147.667 167.333z"/>
<path style="fill:#544d49; stroke:none;" d="M168.667 167.333L169.333 167.667L168.667 167.333z"/>
<path style="fill:#ada18f; stroke:none;" d="M152 168L152 169L164 169L152 168z"/>
<path style="fill:#030201; stroke:none;" d="M195 168C195.728 183.67 210.983 200.548 217 215L203 215L203 220L204 220L204 216C208.949 218.728 208.671 224.819 209.025 230C209.718 240.16 210.367 250.99 212.259 261C213.236 266.166 216.794 270.487 215.602 276C214.294 282.048 208.265 285 207 291L208 291L217.347 279L214.259 259L210 216L220 216C215.763 201.294 204.786 179.8 195 168z"/>
<path style="fill:#6a675d; stroke:none;" d="M117 169L118 170L117 169z"/>
<path style="fill:#ffe3bb; stroke:none;" d="M155 172C153.231 190.107 171.585 182.739 173 169L155 172z"/>
<path style="fill:#848572; stroke:none;" d="M196 169L197 170L196 169z"/>
<path style="fill:#978d78; stroke:none;" d="M164.667 170.333L165.333 170.667L164.667 170.333z"/>
<path style="fill:#ffffff; stroke:none;" d="M153 171L154 175L155 175L155 172L166 172L153 171z"/>
<path style="fill:#7b7e81; stroke:none;" d="M197 171L198 172L197 171z"/>
<path style="fill:#544d49; stroke:none;" d="M116.333 172.667L116.667 173.333L116.333 172.667z"/>
<path style="fill:#574936; stroke:none;" d="M153.333 172.667L153.667 173.333L153.333 172.667z"/>
<path style="fill:#6a675d; stroke:none;" d="M172 173L173 174L172 173M198 173L199 174L198 173z"/>
<path style="fill:#837768; stroke:none;" d="M171 175L172 176L171 175z"/>
<path style="fill:#6a675d; stroke:none;" d="M199 175L200 176L199 175z"/>
<path style="fill:#7b7e81; stroke:none;" d="M115 176L116 177L115 176z"/>
<path style="fill:#837768; stroke:none;" d="M154 176L155 177L154 176z"/>
<path style="fill:#31312e; stroke:none;" d="M197 176L199 179L197 176z"/>
<path style="fill:#837768; stroke:none;" d="M169 178L170 179L169 178z"/>
<path style="fill:#0255fd; stroke:none;" d="M198 179L204 214L217 214C212.477 203.137 206.373 187.285 198 179z"/>
<path style="fill:#837768; stroke:none;" d="M157 182L158 183L157 182z"/>
<path style="fill:#afb0ae; stroke:none;" d="M160 184L160 185L163 185L160 184z"/>
<path style="fill:#ada18f; stroke:none;" d="M209 194L210 195L209 194z"/>
<path style="fill:#959993; stroke:none;" d="M210 196L211 197L210 196z"/>
<path style="fill:#848572; stroke:none;" d="M211 198L212 199L211 198z"/>
<path style="fill:#7b7e81; stroke:none;" d="M212 200L213 201L212 200z"/>
<path style="fill:#6a675d; stroke:none;" d="M213 202L214 203L213 202M214 204L215 205L214 204z"/>
<path style="fill:#0c2d6a; stroke:none;" d="M203 211L203 214L204 214L203 211M204 214L204 215L217 215L204 214z"/>
<path style="fill:#6a675d; stroke:none;" d="M220 215L210 216L210 217L220 215M204 216L204 217L207 217L204 216z"/>
<path style="fill:#ffe3bb; stroke:none;" d="M204 217C209.264 238.856 210.757 263.731 209 286C220.219 277.315 213.263 268.933 211.329 258C209.012 244.905 208.001 230.287 208 217L204 217z"/>
<path style="fill:#837768; stroke:none;" d="M204.333 218.667L204.667 219.333L204.333 218.667z"/>
<path style="fill:#ada18f; stroke:none;" d="M210.333 219.667L210.667 220.333L210.333 219.667z"/>
<path style="fill:#6a675d; stroke:none;" d="M210 221L210 224L211 224L210 221z"/>
<path style="fill:#574936; stroke:none;" d="M208.333 224.667L208.667 225.333L208.333 224.667z"/>
<path style="fill:#848572; stroke:none;" d="M205 225L205 228L206 228L205 225z"/>
<path style="fill:#0f3a99; stroke:none;" d="M203 226L203 230L204 230L203 226z"/>
<path style="fill:#848572; stroke:none;" d="M208.333 226.667L208.667 227.333L208.333 226.667z"/>
<path style="fill:#ada18f; stroke:none;" d="M211 229L211 232L212 232L211 229M206.333 232.667L206.667 233.333L206.333 232.667z"/>
<path style="fill:#544d49; stroke:none;" d="M211.333 232.667L211.667 233.333L211.333 232.667z"/>
<path style="fill:#0c2d6a; stroke:none;" d="M204 234L204 239L205 239L204 234z"/>
<path style="fill:#6a675d; stroke:none;" d="M206 234L206 237L207 237L206 234z"/>
<path style="fill:#544d49; stroke:none;" d="M209 234L209 237L210 237L209 234z"/>
<path style="fill:#ada18f; stroke:none;" d="M209.333 237.667L209.667 238.333L209.333 237.667M84 238L85 239L84 238z"/>
<path style="fill:#0f3a99; stroke:none;" d="M86 238L85 242L88 242L88 241L86 238z"/>
<path style="fill:#0c2d6a; stroke:none;" d="M105 239L105 240L110 240L105 239z"/>
<path style="fill:#837768; stroke:none;" d="M122 239L122 240L126 240L122 239z"/>
<path style="fill:#ada18f; stroke:none;" d="M212.333 239.667L212.667 240.333L212.333 239.667M83 240L84 241L83 240z"/>
<path style="fill:#7b7e81; stroke:none;" d="M114 240L114 241L117 241L114 240z"/>
<path style="fill:#ffe3bb; stroke:none;" d="M104 242L113 287L102 292L95 311C99.6435 312.568 104.088 314.163 109 314.71C118.535 315.771 131.652 311.643 133.659 301C134.89 294.47 131.185 289.165 130.04 283C127.498 269.305 126.009 253.919 126 240L104 242z"/>
<path style="fill:#030201; stroke:none;" d="M99 246L102 245L110 286L96 292L92.7083 309.892L97.973 316.274L99 325L183 325C183.122 319.108 182.395 309.091 188 306L188 305L135 306L135 300L134 300C128.424 318.77 109.147 314.86 95 311L102 292L111.357 285.787L109.235 271L104 241L99 246z"/>
<path style="fill:#6a675d; stroke:none;" d="M104 241L104 242L107 242L104 241z"/>
<path style="fill:#ada18f; stroke:none;" d="M207 241L207 244L208 244L207 241z"/>
<path style="fill:#6a675d; stroke:none;" d="M212 241L212 244L213 244L212 241z"/>
<path style="fill:#ada18f; stroke:none;" d="M82 242L83 243L82 242z"/>
<path style="fill:#6a675d; stroke:none;" d="M95 242L95 243L98 243L95 242M86.6667 243.333L87.3333 243.667L86.6667 243.333z"/>
<path style="fill:#afb0ae; stroke:none;" d="M88.6667 243.333L89.3333 243.667L88.6667 243.333z"/>
<path style="fill:#574936; stroke:none;" d="M207.333 244.667L207.667 245.333L207.333 244.667M210 244L210 247L211 247L210 244z"/>
<path style="fill:#0255fd; stroke:none;" d="M101 245C96.6674 259.625 97 275.875 97 291L110 286L101 245z"/>
<path style="fill:#6a675d; stroke:none;" d="M126 245L126 248L127 248L126 245M98.3333 246.667L98.6667 247.333L98.3333 246.667z"/>
<path style="fill:#01032a; stroke:none;" d="M99 246L95 292L99 292L99 291C88.7918 278.529 104.547 259.224 99 246z"/>
<path style="fill:#6a675d; stroke:none;" d="M104.333 246.667L104.667 247.333L104.333 246.667z"/>
<path style="fill:#ada18f; stroke:none;" d="M210 247L210 250L211 250L210 247z"/>
<path style="fill:#afb0ae; stroke:none;" d="M126.333 248.667L126.667 249.333L126.333 248.667z"/>
<path style="fill:#959993; stroke:none;" d="M213.333 249.667L213.667 250.333L213.333 249.667z"/>
<path style="fill:#7b7e81; stroke:none;" d="M97 251L97 254L98 254L97 251z"/>
<path style="fill:#6a675d; stroke:none;" d="M105.333 251.667L105.667 252.333L105.333 251.667z"/>
<path style="fill:#ada18f; stroke:none;" d="M208 251L208 254L209 254L208 251z"/>
<path style="fill:#6a675d; stroke:none;" d="M213 251L213 254L214 254L213 251z"/>
<path style="fill:#0c2d6a; stroke:none;" d="M103 253L103 256L104 256L103 253z"/>
<path style="fill:#837768; stroke:none;" d="M127 254L127 259L128 259L127 254z"/>
<path style="fill:#31312e; stroke:none;" d="M208 254L208 258L209 258L208 254z"/>
<path style="fill:#574936; stroke:none;" d="M211 254L211 257L212 257L211 254z"/>
<path style="fill:#544d49; stroke:none;" d="M106.333 256.667L106.667 257.333L106.333 256.667z"/>
<path style="fill:#848572; stroke:none;" d="M96.3333 257.667L96.6667 258.333L96.3333 257.667z"/>
<path style="fill:#978d78; stroke:none;" d="M211 257L211 260L212 260L211 257z"/>
<path style="fill:#0c2d6a; stroke:none;" d="M98 258L98 261L99 261L98 258z"/>
<path style="fill:#afb0ae; stroke:none;" d="M214 259L214 262L215 262L214 259z"/>
<path style="fill:#574936; stroke:none;" d="M107.333 261.667L107.667 262.333L107.333 261.667z"/>
<path style="fill:#7b7e81; stroke:none;" d="M95.3333 264.667L95.6667 265.333L95.3333 264.667z"/>
<path style="fill:#31312e; stroke:none;" d="M128.333 264.667L128.667 265.333L128.333 264.667z"/>
<path style="fill:#6a675d; stroke:none;" d="M213 264L214 265L213 264z"/>
<path style="fill:#959993; stroke:none;" d="M209 265L209 282L210 282L209 265z"/>
<path style="fill:#574936; stroke:none;" d="M108.333 266.667L108.667 267.333L108.333 266.667z"/>
<path style="fill:#837768; stroke:none;" d="M128.333 266.667L128.667 267.333L128.333 266.667z"/>
<path style="fill:#959993; stroke:none;" d="M217 267L218 268L217 267z"/>
<path style="fill:#0c2d6a; stroke:none;" d="M106 268L106 271L107 271L106 268z"/>
<path style="fill:#afb0ae; stroke:none;" d="M128.333 268.667L128.667 269.333L128.333 268.667z"/>
<path style="fill:#959993; stroke:none;" d="M215.333 269.667L215.667 270.333L215.333 269.667z"/>
<path style="fill:#d2c0b0; stroke:none;" d="M94 271L94 274L95 274L94 271z"/>
<path style="fill:#31312e; stroke:none;" d="M109.333 271.667L109.667 272.333L109.333 271.667z"/>
<path style="fill:#978d78; stroke:none;" d="M218 271L218 276L219 276L218 271z"/>
<path style="fill:#31312e; stroke:none;" d="M94 274L94 286L95 286L94 274z"/>
<path style="fill:#0f3a99; stroke:none;" d="M96 275L96 287L97 287L96 275z"/>
<path style="fill:#544d49; stroke:none;" d="M129 275L129 278L130 278L129 275z"/>
<path style="fill:#6a675d; stroke:none;" d="M215 277L216 278L215 277z"/>
<path style="fill:#ada18f; stroke:none;" d="M129.333 278.667L129.667 279.333L129.333 278.667z"/>
<path style="fill:#959993; stroke:none;" d="M217 279L218 280L217 279z"/>
<path style="fill:#6a675d; stroke:none;" d="M111.333 280.667L111.667 281.333L111.333 280.667z"/>
<path style="fill:#837768; stroke:none;" d="M213 281L214 282L213 281z"/>
<path style="fill:#959993; stroke:none;" d="M216 281L217 282L216 281z"/>
<path style="fill:#0c2d6a; stroke:none;" d="M206 284L206 288L207 288L206 284z"/>
<path style="fill:#574936; stroke:none;" d="M112.333 285.667L112.667 286.333L112.333 285.667z"/>
<path style="fill:#959993; stroke:none;" d="M213 285L214 286L213 285z"/>
<path style="fill:#6a675d; stroke:none;" d="M94 286L94 289L95 289L94 286z"/>
<path style="fill:#959993; stroke:none;" d="M109 288L110 289L109 288z"/>
<path style="fill:#978d78; stroke:none;" d="M107 289L108 290L107 289z"/>
<path style="fill:#afb0ae; stroke:none;" d="M208 289L209 290L208 289z"/>
<path style="fill:#978d78; stroke:none;" d="M105 290L106 291L105 290z"/>
<path style="fill:#959993; stroke:none;" d="M132 290L133 291L132 290z"/>
<path style="fill:#978d78; stroke:none;" d="M103 291L104 292L103 291z"/>
<path style="fill:#6a675d; stroke:none;" d="M95 292L96 293L95 292z"/>
<path style="fill:#ada18f; stroke:none;" d="M133.333 292.667L133.667 293.333L133.333 292.667z"/>
<path style="fill:#959993; stroke:none;" d="M207 292L208 293L207 292z"/>
<path style="fill:#6a675d; stroke:none;" d="M99.3333 293.667L99.6667 294.333L99.3333 293.667z"/>
<path style="fill:#848572; stroke:none;" d="M102 294L103 295L102 294z"/>
<path style="fill:#7b7e81; stroke:none;" d="M206 294L207 295L206 294z"/>
<path style="fill:#848572; stroke:none;" d="M101 296L102 297L101 296z"/>
<path style="fill:#574936; stroke:none;" d="M134 296L134 300L135 300L134 296z"/>
<path style="fill:#848572; stroke:none;" d="M100 298L101 299L100 298M99 300L100 301L99 300z"/>
<path style="fill:#afb0ae; stroke:none;" d="M95 302L96 303L95 302z"/>
<path style="fill:#848572; stroke:none;" d="M98 302L99 303L98 302z"/>
<path style="fill:#978d78; stroke:none;" d="M133 302L134 303L133 302z"/>
<path style="fill:#848572; stroke:none;" d="M97 304L98 305L97 304z"/>
<path style="fill:#959993; stroke:none;" d="M192 304L193 305L192 304z"/>
<path style="fill:#ada18f; stroke:none;" d="M189 305L190 306L189 305z"/>
<path style="fill:#848572; stroke:none;" d="M96 306L97 307L96 306z"/>
<path style="fill:#544d49; stroke:none;" d="M131 306L132 307L131 306z"/>
<path style="fill:#0c2d6a; stroke:none;" d="M139 306L139 307L146 307L139 306z"/>
<path style="fill:#848572; stroke:none;" d="M95 308L96 309L95 308z"/>
<path style="fill:#6a675d; stroke:none;" d="M128 309L129 310L128 309M91.3333 310.667L91.6667 311.333L91.3333 310.667z"/>
<path style="fill:#848572; stroke:none;" d="M125 311L126 312L125 311z"/>
<path style="fill:#837768; stroke:none;" d="M99 312L100 313L99 312z"/>
<path style="fill:#6a675d; stroke:none;" d="M121 313L122 314L121 313z"/>
<path style="fill:#848572; stroke:none;" d="M97 314L98 315L97 314M106.667 314.333L107.333 314.667L106.667 314.333z"/>
<path style="fill:#ada18f; stroke:none;" d="M115 314L115 315L118 315L115 314z"/>
<path style="fill:#afb0ae; stroke:none;" d="M98 316L98 325L99 325L98 316z"/>
<path style="fill:#978d78; stroke:none;" d="M183 318L183 323L184 323L183 318z"/>
<path style="fill:#d2c0b0; stroke:none;" d="M183.333 323.667L183.667 324.333L183.333 323.667z"/>
</svg>
