<?xml version="1.0" encoding="UTF-8" standalone="no"?>
<!-- Created with Inkscape (http://www.inkscape.org/) -->

<svg
   xmlns:dc="http://purl.org/dc/elements/1.1/"
   xmlns:cc="http://creativecommons.org/ns#"
   xmlns:rdf="http://www.w3.org/1999/02/22-rdf-syntax-ns#"
   xmlns:svg="http://www.w3.org/2000/svg"
   xmlns="http://www.w3.org/2000/svg"
   xmlns:sodipodi="http://sodipodi.sourceforge.net/DTD/sodipodi-0.dtd"
   xmlns:inkscape="http://www.inkscape.org/namespaces/inkscape"
   width="199.64197"
   height="214.64514"
   id="svg2"
   version="1.1"
   inkscape:version="0.48.4 r9939"
   sodipodi:docname="thumbs_up.svg"
   inkscape:export-filename="/home/maurits/Desktop/thumbs_up.png"
   inkscape:export-xdpi="90"
   inkscape:export-ydpi="90">
  <defs
     id="defs4">
    <inkscape:path-effect
       effect="skeletal"
       id="path-effect3309"
       is_visible="true"
       pattern="m -23.571428,-0.71428575 c 0,-2.75999995 2.24,-4.99999995 5,-4.99999995 2.76,0 5,2.24 5,4.99999995 0,2.76000005 -2.24,5.00000005 -5,5.00000005 -2.76,0 -5,-2.24 -5,-5.00000005 z"
       copytype="single_stretched"
       prop_scale="1"
       scale_y_rel="false"
       spacing="0"
       normal_offset="0"
       tang_offset="0"
       prop_units="false"
       vertical_pattern="false"
       fuse_tolerance="0" />
    <inkscape:path-effect
       effect="spiro"
       id="path-effect3307"
       is_visible="true" />
    <inkscape:path-effect
       effect="skeletal"
       id="path-effect3303"
       is_visible="true"
       pattern="m -5.7142851,2.8571429 c 0,-2.76000005 2.24,-5 5.00000002,-5 2.75999998,0 4.99999998,2.23999995 4.99999998,5 0,2.76 -2.24,5 -4.99999998,5 -2.76000002,0 -5.00000002,-2.24 -5.00000002,-5 z"
       copytype="single_stretched"
       prop_scale="1"
       scale_y_rel="false"
       spacing="0"
       normal_offset="0"
       tang_offset="0"
       prop_units="false"
       vertical_pattern="false"
       fuse_tolerance="0" />
    <inkscape:path-effect
       effect="spiro"
       id="path-effect3301"
       is_visible="true" />
    <inkscape:path-effect
       effect="skeletal"
       id="path-effect3297"
       is_visible="true"
       pattern="m -3.5714281,-1.4285714 c 0,-2.76 2.24,-5 5.0000001,-5 2.7599999,0 4.9999999,2.24 4.9999999,5 0,2.76 -2.24,5 -4.9999999,5 -2.7600001,0 -5.0000001,-2.24 -5.0000001,-5 z"
       copytype="single_stretched"
       prop_scale="1"
       scale_y_rel="false"
       spacing="0"
       normal_offset="0"
       tang_offset="0"
       prop_units="false"
       vertical_pattern="false"
       fuse_tolerance="0" />
    <inkscape:path-effect
       effect="spiro"
       id="path-effect3295"
       is_visible="true" />
    <inkscape:path-effect
       effect="skeletal"
       id="path-effect3291"
       is_visible="true"
       pattern="m -7.1428572,26.428571 c 0,-2.76 2.24,-5 5,-5 2.76000005,0 5,2.24 5,5 0,2.76 -2.23999995,5 -5,5 -2.76,0 -5,-2.24 -5,-5 z"
       copytype="single_stretched"
       prop_scale="1"
       scale_y_rel="false"
       spacing="0"
       normal_offset="0"
       tang_offset="0"
       prop_units="false"
       vertical_pattern="false"
       fuse_tolerance="0" />
    <inkscape:path-effect
       effect="spiro"
       id="path-effect3289"
       is_visible="true" />
    <inkscape:path-effect
       fuse_tolerance="0"
       vertical_pattern="false"
       prop_units="false"
       tang_offset="0"
       normal_offset="0"
       spacing="0"
       scale_y_rel="false"
       prop_scale="1"
       copytype="single_stretched"
       pattern="m 206.21114,373.62978 c 0,-2.76 2.24,-5 5,-5 2.76,0 5,2.24 5,5 0,2.76 -2.24,5 -5,5 -2.76,0 -5,-2.24 -5,-5 z"
       is_visible="true"
       id="path-effect3285"
       effect="skeletal" />
    <inkscape:path-effect
       is_visible="true"
       id="path-effect3283"
       effect="spiro" />
    <inkscape:path-effect
       effect="skeletal"
       id="path-effect3257"
       is_visible="true"
       pattern="M 0,5 C 0,2.24 2.24,0 5,0 7.76,0 10,2.24 10,5 10,7.76 7.76,10 5,10 2.24,10 0,7.76 0,5 z"
       copytype="single_stretched"
       prop_scale="1"
       scale_y_rel="false"
       spacing="0"
       normal_offset="0"
       tang_offset="0"
       prop_units="false"
       vertical_pattern="false"
       fuse_tolerance="0" />
    <inkscape:path-effect
       effect="spiro"
       id="path-effect3255"
       is_visible="true" />
    <inkscape:path-effect
       effect="skeletal"
       id="path-effect3251"
       is_visible="true"
       pattern="M -13.571428,-3.0079046e-8 C -13.571428,-2.76 -11.331428,-5 -8.5714284,-5 -5.8114285,-5 -3.5714285,-2.76 -3.5714285,-3.0079046e-8 -3.5714285,2.76 -5.8114285,5 -8.5714284,5 -11.331428,5 -13.571428,2.76 -13.571428,-3.0079046e-8 z"
       copytype="single_stretched"
       prop_scale="1"
       scale_y_rel="false"
       spacing="0"
       normal_offset="0"
       tang_offset="0"
       prop_units="false"
       vertical_pattern="false"
       fuse_tolerance="0" />
    <inkscape:path-effect
       effect="spiro"
       id="path-effect3249"
       is_visible="true" />
    <inkscape:path-effect
       fuse_tolerance="0"
       vertical_pattern="false"
       prop_units="false"
       tang_offset="0"
       normal_offset="0"
       spacing="0"
       scale_y_rel="false"
       prop_scale="1"
       copytype="single_stretched"
       pattern="m 318.55714,462.05692 c 0,-2.76 2.24,-5 5,-5 2.76,0 5,2.24 5,5 0,2.76 -2.24,5 -5,5 -2.76,0 -5,-2.24 -5,-5 z"
       is_visible="true"
       id="path-effect3245"
       effect="skeletal" />
    <inkscape:path-effect
       is_visible="true"
       id="path-effect3243"
       effect="spiro" />
    <inkscape:path-effect
       effect="skeletal"
       id="path-effect3217"
       is_visible="true"
       pattern="M 0,5 C 0,2.24 2.24,0 5,0 7.76,0 10,2.24 10,5 10,7.76 7.76,10 5,10 2.24,10 0,7.76 0,5 z"
       copytype="single_stretched"
       prop_scale="1"
       scale_y_rel="false"
       spacing="0"
       normal_offset="0"
       tang_offset="0"
       prop_units="false"
       vertical_pattern="false"
       fuse_tolerance="0" />
    <inkscape:path-effect
       effect="spiro"
       id="path-effect3215"
       is_visible="true" />
    <inkscape:path-effect
       effect="skeletal"
       id="path-effect3109"
       is_visible="true"
       pattern="m 1,-1 c 0,-2.76 2.24,-5 5,-5 2.76,0 5,2.24 5,5 C 11,1.76 8.76,4 6,4 3.24,4 1,1.76 1,-1 z"
       copytype="single_stretched"
       prop_scale="1"
       scale_y_rel="false"
       spacing="0"
       normal_offset="0"
       tang_offset="0"
       prop_units="false"
       vertical_pattern="false"
       fuse_tolerance="0" />
    <inkscape:path-effect
       effect="spiro"
       id="path-effect3107"
       is_visible="true" />
    <inkscape:path-effect
       effect="skeletal"
       id="path-effect3097"
       is_visible="true"
       pattern="M 0,7 C 0,4.24 2.24,2 5,2 7.76,2 10,4.24 10,7 10,9.76 7.76,12 5,12 2.24,12 0,9.76 0,7 z"
       copytype="single_stretched"
       prop_scale="1"
       scale_y_rel="false"
       spacing="0"
       normal_offset="0"
       tang_offset="0"
       prop_units="false"
       vertical_pattern="false"
       fuse_tolerance="0" />
    <inkscape:path-effect
       effect="spiro"
       id="path-effect3095"
       is_visible="true" />
    <inkscape:path-effect
       effect="skeletal"
       id="path-effect3091"
       is_visible="true"
       pattern="m 4.1428571,5.4285714 c 0,-2.76 2.24,-4.99999998 5,-4.99999998 2.7599999,0 4.9999999,2.23999998 4.9999999,4.99999998 0,2.76 -2.24,4.9999996 -4.9999999,4.9999996 -2.76,0 -5,-2.2399996 -5,-4.9999996 z"
       copytype="single_stretched"
       prop_scale="1"
       scale_y_rel="false"
       spacing="0"
       normal_offset="0"
       tang_offset="0"
       prop_units="false"
       vertical_pattern="false"
       fuse_tolerance="0" />
    <inkscape:path-effect
       effect="spiro"
       id="path-effect3089"
       is_visible="true" />
    <inkscape:path-effect
       effect="spiro"
       id="path-effect3107-1"
       is_visible="true" />
    <inkscape:path-effect
       effect="skeletal"
       id="path-effect3109-1"
       is_visible="true"
       pattern="m -334.93865,-430.78801 c 0,-2.76 2.24,-5 5,-5 2.76,0 5,2.24 5,5 0,2.76 -2.24,5 -5,5 -2.76,0 -5,-2.24 -5,-5 z"
       copytype="single_stretched"
       prop_scale="1"
       scale_y_rel="false"
       spacing="0"
       normal_offset="0"
       tang_offset="0"
       prop_units="false"
       vertical_pattern="false"
       fuse_tolerance="0" />
    <inkscape:path-effect
       effect="spiro"
       id="path-effect3249-4"
       is_visible="true" />
    <inkscape:path-effect
       effect="skeletal"
       id="path-effect3251-1"
       is_visible="true"
       pattern="m -247.58083,-377.28323 c 0,-2.76 2.24,-5 5,-5 2.76,0 5,2.24 5,5 0,2.76 -2.24,5 -5,5 -2.76,0 -5,-2.24 -5,-5 z"
       copytype="single_stretched"
       prop_scale="1"
       scale_y_rel="false"
       spacing="0"
       normal_offset="0"
       tang_offset="0"
       prop_units="false"
       vertical_pattern="false"
       fuse_tolerance="0" />
  </defs>
  <sodipodi:namedview
     id="base"
     pagecolor="#ffffff"
     bordercolor="#666666"
     borderopacity="1.0"
     inkscape:pageopacity="0.0"
     inkscape:pageshadow="2"
     inkscape:zoom="1.4"
     inkscape:cx="151.8584"
     inkscape:cy="60.847882"
     inkscape:document-units="px"
     inkscape:current-layer="layer1"
     showgrid="false"
     showguides="true"
     inkscape:guide-bbox="true"
     fit-margin-top="0"
     fit-margin-left="0"
     fit-margin-right="0"
     fit-margin-bottom="0"
     inkscape:window-width="1023"
     inkscape:window-height="814"
     inkscape:window-x="1205"
     inkscape:window-y="267"
     inkscape:window-maximized="0" />
  <metadata
     id="metadata7">
    <rdf:RDF>
      <cc:Work
         rdf:about="">
        <dc:format>image/svg+xml</dc:format>
        <dc:type
           rdf:resource="http://purl.org/dc/dcmitype/StillImage" />
        <dc:title></dc:title>
      </cc:Work>
    </rdf:RDF>
  </metadata>
  <g
     inkscape:label="Layer 1"
     inkscape:groupmode="layer"
     id="layer1"
     transform="translate(-205.45819,-291.40861)">
    <path
       style="fill:#008080"
       d="m 229.7358,459.28911 -7.94228,-5.40718 -2.72075,-7.27507 c -5.62673,-15.04539 -6.05473,-38.39868 -1.14701,-62.58517 1.47797,-7.2838 2.6919,-13.5673 2.6976,-13.96332 0.006,-0.39604 0.90578,0.003 2.00014,0.88783 2.87302,2.32165 10.13423,5.36378 16.05202,6.72508 2.81744,0.64812 5.30902,1.34259 5.53684,1.54327 0.22781,0.2007 -0.80364,2.4901 -2.29212,5.08758 -3.09287,5.39729 -7.35266,18.00952 -8.98265,26.5956 -2.51567,13.25129 -0.77972,37.18293 3.53043,48.67003 0.96079,2.5606 1.6261,4.76204 1.47847,4.89209 -0.14763,0.13005 -3.84244,-2.19678 -8.21069,-5.17074 l 0,0 z"
       id="path3340"
       inkscape:connector-curvature="0" />
    <path
       style="fill:#ffffff"
       d="m 128.64411,204.92625 c -21.33386,-1.66957 -43.618711,-7.18878 -61.984918,-15.35161 -9.548471,-4.24379 -23.597172,-11.75688 -25.048001,-13.39538 -1.523404,-1.72047 -4.518753,-11.82302 -5.550694,-18.7211 -0.514936,-3.44212 -0.88713,-12.43856 -0.869544,-21.01804 0.02973,-14.50407 0.950939,-23.63724 4.35877,-43.214289 l 0.55952,-3.214286 5.696006,-0.478222 C 61.65241,88.202838 75.0908,78.502847 82.477034,63.063198 c 1.930583,-4.035552 4.046636,-9.105225 4.702338,-11.265939 1.823606,-6.009266 2.168505,-15.681566 0.827786,-23.214286 -1.525926,-8.573283 -1.461314,-12.33577 0.260324,-15.159401 3.622294,-5.9408667 12.289048,-3.22967 19.412618,6.072791 5.77637,7.543202 7.74973,14.712324 7.74973,28.154423 0,18.033608 -3.5314,30.357073 -12.3889,43.233273 -2.22182,3.229879 -4.039676,6.203093 -4.039676,6.607143 0,1.22355 2.149496,0.827179 4.468346,-0.823986 2.35268,-1.67525 9.77939,-2.789435 25.23582,-3.785957 16.15431,-1.041521 41.82781,3.505236 51.68036,9.152551 6.88627,3.94711 10.70612,8.68986 10.73997,13.33488 0.0319,4.38492 -4.96267,8.57143 -10.226,8.57143 -4.39813,0 -4.00108,2.30485 0.67291,3.90623 3.97422,1.36162 6.93667,6.30916 7.2689,12.13969 0.31524,5.5322 -1.18177,8.39488 -6.26228,11.97518 -6.00389,4.23104 -6.11742,4.5878 -3.20584,10.07436 3.99289,7.52417 3.26014,13.17756 -2.25298,17.38263 -2.19597,1.67495 -3.49098,2.03881 -8.39361,2.35835 -5.15282,0.33586 -5.82031,0.54056 -6.00655,1.84205 -0.13359,0.93362 0.68592,2.27904 2.26148,3.71277 1.35905,1.23671 2.68922,2.93612 2.95594,3.77646 1.50238,4.7336 -2.71885,10.52942 -9.10954,12.50755 -3.749,1.16044 -21.98582,1.95244 -30.18407,1.31086 l 0,0 z"
       id="path3336"
       inkscape:connector-curvature="0"
       transform="translate(205.45819,291.40861)" />
    <path
       style="fill:#ffd5d5"
       d="m 338.1023,501.76344 c -21.33387,-1.66956 -43.61871,-7.18878 -61.98492,-15.3516 -9.54847,-4.2438 -30.74003,-13.89974 -32.19086,-15.53824 -17.93893,-23.14971 -4.06304,-66.54222 -4.35909,-84.02486 l 15.696,-0.47822 c 15.89555,-0.4843 29.28556,-11.03048 36.67179,-26.47012 1.93058,-4.03556 4.04664,-9.10523 4.70234,-11.26594 1.8236,-6.00927 2.1685,-15.68157 0.82778,-23.21429 -1.52592,-8.57328 -1.46131,-12.33577 0.26033,-15.1594 3.62229,-5.94087 12.28905,-3.22967 19.41261,6.07279 5.77637,7.5432 5.60687,16.14089 5.60687,29.58299 0,18.03361 -7.81711,28.92851 -16.6746,41.80471 -17.41089,16.19501 22.90085,2.74572 32.09305,1.9972 16.15432,-1.04153 41.82782,3.50523 51.68036,9.15255 6.88628,3.9471 10.70612,8.68986 10.73998,13.33487 -15.26421,15.69937 -4.27014,8.85221 -2.28419,24.61736 0.31523,5.53219 -1.18177,8.39487 -6.26229,11.97518 -6.00388,4.23104 -6.11741,4.58779 -3.20583,10.07436 3.99288,7.52417 3.26014,13.17756 -2.25298,17.38263 -2.19597,1.67495 -3.49098,2.0388 -8.39362,2.35835 -5.15281,0.33585 -5.8203,0.54055 -6.00654,1.84205 -0.13359,0.93362 0.68591,2.27903 2.26148,3.71277 1.35905,1.23671 2.68922,2.93611 2.95593,3.77646 1.50239,4.7336 -2.71885,10.52942 -9.10954,12.50755 -3.749,1.16044 -21.98581,1.95244 -30.18406,1.31085 z"
       id="path3311"
       inkscape:connector-curvature="0"
       sodipodi:nodetypes="csccsssssssccsccssssssssc" />
    <path
       style="fill:#000000;fill-rule:evenodd;stroke:none"
       d="m 308.28688,385.62378 c -0.23384,-0.64917 1.23128,-1.91397 4.22455,-3.45693 2.99327,-1.54296 7.52903,-3.34606 13.37535,-4.80152 5.84633,-1.45545 13.01049,-2.54674 21.0293,-2.65602 8.01881,-0.10927 16.88797,0.77674 25.89007,3.0606 2.84089,0.72075 5.60871,1.55686 8.28486,2.49225 4.61031,1.57725 9.19955,3.66495 13.20911,6.57074 2.25289,1.61582 4.24975,3.55085 5.87838,5.69244 1.62864,2.14158 2.88905,4.48934 3.72892,6.93355 0.5568,1.65663 0.88355,3.41416 0.93742,5.19078 0.069,2.96277 -0.7166,5.68239 -1.99191,7.91284 -1.47284,2.56583 -3.53181,4.39314 -5.64261,5.54 -2.66106,1.44076 -5.29803,1.77339 -7.39882,1.59558 -2.39434,-0.20535 -4.0645,-1.03208 -5.04192,-1.76008 -0.97742,-0.72801 -1.29419,-1.3606 -1.11673,-1.70285 0.17746,-0.34225 0.83583,-0.39265 1.86409,-0.41181 1.02826,-0.0192 2.46032,-0.0167 4.07423,-0.42737 1.41626,-0.35793 3.01492,-1.05798 4.36681,-2.25026 1.07528,-0.94365 2.03108,-2.23526 2.56921,-3.72211 0.47129,-1.28942 0.65162,-2.79181 0.41697,-4.22874 -0.12917,-0.87584 -0.44459,-1.813 -0.8775,-2.7948 -0.62406,-1.45843 -1.57645,-2.86207 -2.79912,-4.18187 -1.22266,-1.31981 -2.7155,-2.55596 -4.36539,-3.6711 -3.01569,-2.01009 -6.79535,-3.48046 -10.99732,-4.89262 -2.44858,-0.80309 -4.97166,-1.53821 -7.55717,-2.19416 -8.19288,-2.07857 -16.23184,-3.15116 -23.59667,-3.53605 -7.36484,-0.38489 -14.05253,-0.0881 -19.67711,0.41035 -5.62458,0.49841 -10.19327,1.18718 -13.42217,1.55174 -3.2289,0.36456 -5.13099,0.38659 -5.36483,-0.26258 0,0 0,0 0,0 z"
       id="path3087"
       inkscape:path-effect="#path-effect3089;#path-effect3091"
       inkscape:original-d="m 308.28688,385.62378 c 28.94235,-0.61735 43.17816,-5.40947 71.21104,-0.66546 6.51962,1.10331 15.50482,12.31601 20.48912,15.97116 1.40969,1.03376 0.90746,2.71179 0.90746,3.99279 0,8.26153 -13.21175,9.83528 -17.24165,11.31289"
       inkscape:connector-curvature="0"
       sodipodi:nodetypes="csssc" />
    <path
       style="fill:#000000;fill-rule:evenodd;stroke:none"
       d="m 390.46227,419.25078 c 0.14813,-0.41545 0.52556,-0.7415 1.1415,-0.92764 0.61594,-0.18615 1.47157,-0.23026 2.51357,-0.0389 1.042,0.19137 2.27074,0.62116 3.55797,1.38689 1.28723,0.76573 2.63201,1.87034 3.83507,3.37086 1.16595,1.46411 2.168,3.27043 2.81275,5.33769 0.64475,2.06727 0.92929,4.395 0.69665,6.80994 -0.0771,0.76986 -0.20556,1.53994 -0.38611,2.30271 -0.88145,3.72402 -2.94095,6.88423 -5.43144,9.06163 -2.02335,1.75623 -4.24254,2.82255 -6.27408,3.35906 -2.03154,0.53651 -3.87327,0.55173 -5.31716,0.30081 0,0 0,0 0,0 -1.33877,-0.23615 -2.3301,-0.6919 -2.95447,-1.18686 -0.62437,-0.49495 -0.88555,-1.02683 -0.82585,-1.52762 0.0597,-0.50079 0.4302,-0.9402 0.98869,-1.36865 0.5585,-0.42845 1.30787,-0.85034 2.14438,-1.34583 0,0 1e-5,0 1e-5,0 0.89109,-0.52931 1.88925,-1.15396 2.88021,-1.9369 0.99097,-0.78294 1.97762,-1.7229 2.7883,-2.81985 1.00964,-1.34641 1.84054,-3.02815 2.27355,-4.84397 0.0887,-0.37193 0.15848,-0.74195 0.209,-1.10777 0.33516,-2.292 -0.0384,-4.64937 -0.73982,-6.57889 -0.70962,-1.98873 -1.84112,-3.67322 -2.70985,-5.0153 -0.86873,-1.34207 -1.49913,-2.40053 -1.20287,-3.23142 z"
       id="path3093"
       inkscape:path-effect="#path-effect3095;#path-effect3097"
       inkscape:original-d="m 390.46227,419.25078 c -5.29837,36.93558 24.69699,-7.66032 -3.1749,28.24858 -5.69466,8.16581 2.42548,0 -3.4567,0"
       inkscape:connector-curvature="0"
       sodipodi:nodetypes="ccc" />
    <path
       style="fill:#000000;fill-rule:evenodd;stroke:none"
       d="m 382.92813,448.50504 c 0.15105,-0.41438 0.58207,-0.72193 1.29934,-0.85475 0.71726,-0.13283 1.72262,-0.0874 2.93347,0.26295 1.21085,0.35037 2.62784,1.01026 4.05977,2.10282 1.43193,1.09256 2.87744,2.62205 4.04181,4.64059 1.12224,1.97022 1.93474,4.34122 2.19242,6.94301 0.25769,2.60178 -0.0434,5.43262 -1.07224,8.19181 -0.33385,0.87849 -0.73616,1.7359 -1.20429,2.56157 -1.14174,2.01373 -2.6227,3.74181 -4.28951,5.12192 -1.66681,1.38011 -3.51819,2.41241 -5.40505,3.09334 -3.0632,1.08507 -6.0486,1.19177 -8.54309,0.75745 -2.49449,-0.43432 -4.50117,-1.39746 -5.9165,-2.43811 0,0 0,0 0,0 -1.30784,-0.96876 -2.10754,-1.98459 -2.50012,-2.81099 -0.39258,-0.8264 -0.38513,-1.46369 -0.0696,-1.85732 0.31557,-0.39363 0.91442,-0.52524 1.71142,-0.53534 0.79699,-0.0101 1.79983,0.0985 2.95566,0.15275 0,0 0,0 0,0 1.2278,0.0569 2.65051,0.0387 4.1661,-0.21495 1.51558,-0.2537 3.1275,-0.73967 4.56584,-1.5728 1.78561,-1.00708 3.49596,-2.63966 4.63377,-4.63387 0.23326,-0.40883 0.43679,-0.82435 0.60823,-1.24257 0.55433,-1.3037 0.8351,-2.73282 0.90114,-4.11831 0.0661,-1.3855 -0.0845,-2.72592 -0.39849,-3.93042 -0.31086,-1.2425 -0.81736,-2.39926 -1.37172,-3.42518 -0.55437,-1.02591 -1.1583,-1.92188 -1.69688,-2.69762 -0.53858,-0.77574 -1.01332,-1.43445 -1.31685,-2.00972 -0.30352,-0.57527 -0.43572,-1.07188 -0.28467,-1.48626 z"
       id="path3105"
       inkscape:path-effect="#path-effect3107;#path-effect3109"
       inkscape:original-d="m 382.92813,448.50504 c 69.54303,-10.88906 63.83745,69.26841 -10.85517,27.85715 -65.34116,-37.31608 2.99289,-2.14286 -3.61838,-2.14286"
       inkscape:connector-curvature="0"
       sodipodi:nodetypes="ccc" />
    <path
       style="fill:#000000;fill-rule:evenodd;stroke:none"
       d="m 289.1769,340.93361 c 0.6093,0.14013 0.99162,1.27688 0.96641,3.27951 -0.0252,2.00262 -0.47585,4.87531 -1.69348,8.27936 -1.21762,3.40405 -3.21819,7.33831 -6.244,11.22759 -3.0258,3.88928 -7.08593,7.72411 -12.13217,10.77221 0,0 0,0 0,0 -2.08789,1.25629 -4.32663,2.37182 -6.6832,3.30819 -3.4431,1.3681 -6.95599,2.28008 -10.38111,2.77802 -3.42511,0.49793 -6.76155,0.58253 -9.88313,0.34039 -4.12763,-0.32339 -7.84505,-1.21221 -10.99841,-2.35217 -3.15336,-1.13995 -5.74509,-2.52704 -7.73847,-3.87059 -1.99338,-1.34355 -3.39302,-2.64039 -4.22544,-3.67715 -0.83242,-1.03676 -1.10267,-1.81098 -0.82592,-2.22822 0.27675,-0.41724 1.07873,-0.45255 2.31714,-0.23631 1.2384,0.21623 2.91806,0.68041 4.99674,1.202 2.07869,0.52158 4.56033,1.09873 7.3816,1.52066 2.82126,0.42193 5.98369,0.68768 9.36086,0.58648 5.10779,-0.14822 10.77068,-1.16042 16.30531,-3.3569 1.89404,-0.75167 3.70257,-1.61239 5.40733,-2.5603 10e-6,0 10e-6,0 10e-6,0 4.10364,-2.26962 7.62259,-5.09519 10.52289,-7.97952 2.90031,-2.88432 5.18253,-5.8254 6.97373,-8.41111 1.7912,-2.58571 3.10139,-4.81897 4.14007,-6.36255 1.03867,-1.54359 1.82394,-2.39972 2.43324,-2.25959 z"
       id="path3213"
       inkscape:path-effect="#path-effect3215;#path-effect3217"
       inkscape:original-d="m 289.1769,340.93361 c -11.84984,9.52252 -11.42586,17.85451 -21.58659,29.28572 -8.41285,9.46477 -41.39436,-12.4507 -48.25233,-1.42858"
       inkscape:connector-curvature="0"
       sodipodi:nodetypes="csc" />
    <path
       style="fill:#000000;fill-rule:evenodd;stroke:none"
       d="m 369.35495,475.75356 c 0.10178,-0.30049 0.79164,-0.44772 2.02106,-0.13231 0.61471,0.1577 1.3595,0.43977 2.17688,0.92021 0.81738,0.48044 1.70879,1.16053 2.55727,2.11724 0.73451,0.83116 1.42597,1.86148 1.96478,3.09563 0.53881,1.23416 0.92513,2.67324 1.01606,4.27647 0.13248,2.76347 -0.59652,5.86877 -2.42444,8.64757 -1.55042,2.35913 -3.75404,4.4664 -6.42634,6.03006 0,0 0,0 -1e-5,0 -2.29659,1.31704 -4.82681,2.30546 -7.47934,3.00975 -2.65253,0.7043 -5.4274,1.12382 -8.15918,1.3934 -1e-5,0 -1e-5,0 -1e-5,0 -8.27411,0.93912 -17.53505,1.25297 -27.39856,0.58819 -9.8635,-0.66479 -20.32655,-2.31189 -30.89914,-5.12004 -7.34749,-1.95155 -14.37234,-4.35996 -20.95663,-7.08743 0,0 0,0 -1e-5,0 -10.68705,-4.42074 -20.21639,-9.69164 -28.30069,-15.10805 -8.0843,-5.41641 -14.72863,-10.96948 -19.89655,-15.94069 -5.16792,-4.97121 -8.87213,-9.35265 -11.1919,-12.5376 -2.31977,-3.18495 -3.27179,-5.16557 -2.8253,-5.56322 0.44649,-0.39765 2.25203,0.81512 5.28206,3.20607 3.03004,2.39096 7.30084,5.95135 12.82618,10.09557 5.52535,4.14421 12.31702,8.86611 20.32172,13.5357 8.0047,4.66959 17.22652,9.28136 27.4246,13.24708 10e-6,0 10e-6,0 10e-6,0 6.28563,2.44046 12.94506,4.63938 19.8851,6.48321 9.98629,2.65316 19.82205,4.36958 29.11941,5.29717 9.29736,0.92759 18.05445,1.06825 25.95754,0.7185 0,0 0,0 10e-6,0 2.59407,-0.15475 5.01592,-0.30923 7.19769,-0.65275 2.18178,-0.34352 4.12398,-0.8757 5.80671,-1.69272 0,0 10e-6,0 10e-6,0 1.95737,-0.91917 3.61431,-2.10449 4.7764,-3.48379 1.34842,-1.59889 2.17062,-3.44232 2.36474,-5.1351 0.12661,-0.97593 0.0669,-1.94351 -0.10867,-2.82994 -0.1756,-0.88644 -0.46737,-1.69278 -0.81659,-2.39522 -0.80133,-1.62193 -1.89691,-2.72344 -2.66892,-3.47736 -0.77201,-0.75392 -1.24773,-1.20511 -1.14595,-1.5056 z"
       id="path3105-9"
       inkscape:path-effect="#path-effect3243;#path-effect3245"
       inkscape:original-d="m 369.35495,475.75356 c -1.24061,6.58993 3.80809,6.35962 7.23809,10.24268 0.81785,0.92587 52.59816,45.69256 -22.31744,15.02257 -87.1373,-35.67349 -132.32608,-56.67607 -141.1427,-56.67607"
       inkscape:connector-curvature="0"
       sodipodi:nodetypes="cssc" />
    <path
       style="fill:#000000;fill-rule:evenodd;stroke:none"
       d="m 244.79153,377.36837 c 0.63775,0.2634 0.71148,1.7655 0.41225,4.24621 -0.29923,2.48072 -0.96316,5.94521 -1.71636,10.18703 -0.75321,4.24183 -1.59042,9.26418 -2.25248,14.8495 -0.66206,5.58533 -1.14582,11.73359 -1.2709,18.1924 -0.1449,7.48308 0.21327,14.55869 0.81212,20.83422 0,0 0,0 0,0 0.29866,3.06431 0.62815,5.83136 1.11437,8.29245 0.96406,4.9492 2.52098,8.94213 3.6133,11.80021 1.09233,2.85809 1.7002,4.64024 1.09723,5.14317 -0.30149,0.25146 -0.88277,0.16048 -1.69974,-0.28615 -0.81696,-0.44662 -1.86907,-1.25084 -3.05349,-2.44609 -1.18441,-1.19526 -2.50045,-2.78367 -3.79552,-4.78777 -1.29507,-2.0041 -2.56814,-4.42561 -3.6296,-7.24687 -1.04791,-2.80266 -1.86396,-5.9124 -2.50467,-9.14817 0,0 0,0 0,0 -1.32562,-6.6314 -2.10774,-14.27186 -1.9524,-22.34794 0.13408,-6.97065 0.94867,-13.59052 2.17674,-19.49521 1.22808,-5.90468 2.86349,-11.09366 4.55278,-15.3142 1.6893,-4.22054 3.42514,-7.47608 4.86947,-9.6035 1.44432,-2.12742 2.58915,-3.13269 3.2269,-2.86929 z"
       id="path3247"
       inkscape:path-effect="#path-effect3249;#path-effect3251"
       inkscape:original-d="m 244.79153,377.36837 c -9.03519,18.84193 -15.88475,49.41202 -8.44443,68.96975 0.8667,2.27822 0.29803,6.73375 1.80952,8.72031 3.10234,4.07742 6.77833,11.47558 8.44444,15.85513"
       inkscape:connector-curvature="0" />
    <path
       style="fill:#000000;fill-rule:evenodd;stroke:none"
       d="m 220.31746,368.70873 c 0.62567,0.29093 0.68622,1.6818 0.37779,3.93759 -0.30843,2.2558 -0.9776,5.38233 -1.73158,9.20375 -0.75399,3.82142 -1.58776,8.34127 -2.24395,13.37001 -0.65618,5.02874 -1.13191,10.56626 -1.24656,16.38337 -0.13087,6.64094 0.22852,12.92373 0.83135,18.50964 0,0 0,0 0,0 0.30302,2.74438 0.63159,5.21172 1.10615,7.39826 0.95584,4.47806 2.49571,8.08808 3.58372,10.6876 1.08802,2.59952 1.70889,4.25111 1.1326,4.7955 -0.28814,0.2722 -0.85441,0.24328 -1.65922,-0.10744 -0.80482,-0.35071 -1.84781,-1.02529 -3.02958,-2.06721 -1.18176,-1.04192 -2.50174,-2.45347 -3.80733,-4.26755 -1.30559,-1.81407 -2.59578,-4.03256 -3.67641,-6.64614 -1.04616,-2.54828 -1.86923,-5.37961 -2.51291,-8.31602 0,0 0,0 0,0 -1.32532,-5.98425 -2.10892,-12.88979 -1.9668,-20.18253 0.12448,-6.38806 0.94222,-12.45081 2.17817,-17.83502 1.23595,-5.3842 2.88354,-10.0893 4.58126,-13.88771 1.69771,-3.7984 3.43799,-6.69402 4.87994,-8.55949 1.44196,-1.86548 2.57769,-2.70754 3.20336,-2.41661 z"
       id="path3247-3"
       inkscape:path-effect="#path-effect3283;#path-effect3285"
       inkscape:original-d="m 220.31746,368.70873 c -21.6682,12.78803 -42.37696,35.73676 -8.44444,62.14286 1.6196,1.26036 0.29803,6.06721 1.80953,7.85714 3.10233,3.67382 6.77833,10.33968 8.44443,14.28572"
       inkscape:connector-curvature="0"
       sodipodi:nodetypes="cssc" />
    <path
       style="fill:#000000;fill-rule:evenodd;stroke:none"
       d="m 280.8161,360.78848 c -0.32843,-0.25321 -0.0544,-1.22923 0.5943,-2.87316 0.6487,-1.64393 1.66625,-3.96904 2.66273,-6.99354 0.99648,-3.02449 1.96897,-6.7616 2.42901,-11.09785 0.46004,-4.33625 0.406,-9.27989 -0.71638,-14.4211 0,0 0,0 0,0 -0.40212,-1.84385 -0.96716,-3.82677 -1.51883,-6.01321 -0.55167,-2.18643 -1.08998,-4.57655 -1.37139,-7.24241 -0.25937,-2.48675 -0.17784,-5.20747 0.5074,-8.04045 0.65823,-2.74971 2.0478,-5.49474 4.29251,-7.83562 2.20061,-2.19289 4.95029,-3.70229 7.92009,-4.3809 2.87289,-0.65472 5.81814,-0.63145 8.60091,0.006 5.34193,1.29982 9.90362,4.28009 13.38633,7.89718 0.69946,0.70434 1.37522,1.43362 2.0261,2.18622 5.22185,6.03784 8.54772,13.24173 10.06144,20.45354 1.14947,5.52971 1.32924,10.85741 1.14446,15.79569 -0.14888,5.45676 -0.7919,10.72291 -1.83899,15.58256 -1.04709,4.85965 -2.49698,9.31277 -4.19634,13.24311 -1.69936,3.93033 -3.64637,7.33899 -5.64771,10.20122 -2.00134,2.86223 -4.05477,5.18016 -5.95776,6.99597 -2.37912,2.25015 -4.48246,3.70116 -6.00611,4.53298 -1.52365,0.83183 -2.46893,1.05291 -2.71628,0.73802 -0.24735,-0.31489 0.21313,-1.14804 1.18856,-2.49241 0.97543,-1.34437 2.46563,-3.20941 4.15447,-5.68659 1.36539,-1.98234 2.84197,-4.35271 4.25432,-7.15246 1.41236,-2.79976 2.75877,-6.03128 3.89549,-9.69077 1.13673,-3.65949 2.06278,-7.74848 2.68642,-12.18831 0.62365,-4.43983 0.94466,-9.23102 0.93247,-14.20456 -0.0606,-4.53579 -0.34435,-9.1416 -1.41288,-13.54975 -1.37117,-5.71413 -4.06011,-11.39586 -8.09107,-16.03692 -0.50245,-0.57849 -1.02234,-1.13673 -1.55887,-1.67328 -2.73347,-2.62378 -5.60451,-4.74776 -8.51044,-5.34163 -1.48149,-0.34179 -2.96713,-0.42209 -4.2556,-0.1377 -1.30661,0.28646 -2.53594,0.86208 -3.35891,1.66506 -0.917,0.79185 -1.58946,2.08515 -2.05012,3.48487 -0.47722,1.47802 -0.58175,3.1979 -0.53204,4.98402 0.051,1.92964 0.4022,3.94557 0.79854,6.03911 0.39634,2.09355 0.83779,4.26453 1.13597,6.49207 0,10e-6 0,10e-6 0,10e-6 0.84101,6.27347 0.31984,12.04069 -0.8232,16.90917 -1.14303,4.86848 -2.90235,8.84754 -4.66349,11.88462 -1.76115,3.03708 -3.52012,5.14598 -4.85983,6.43708 -1.33971,1.29109 -2.25685,1.77752 -2.58528,1.52431 z"
       id="path3287"
       inkscape:path-effect="#path-effect3289;#path-effect3291"
       inkscape:original-d="m 280.8161,360.78848 c 4.5244,-12.61783 5.86785,-24.10446 8.95073,-36.07042 2.05092,-7.84472 -1.40694,-17.36157 1.27867,-25.06588 2.56675,-7.36332 20.24983,-1.62238 23.01614,3.66818 1.84333,3.52534 9.02041,18.40752 10.86874,20.17498 1.86255,1.78105 1.27867,12.08438 1.27867,14.67272 0,17.69589 -2.81658,33.26149 -14.70475,44.62948 -2.35991,2.25665 -4.70707,5.61306 -7.03271,6.725"
       inkscape:connector-curvature="0"
       sodipodi:nodetypes="ccsssssc" />
  </g>
</svg>
