<?xml version="1.0" encoding="UTF-8" standalone="no"?>
<!-- Created with Inkscape (http://www.inkscape.org/) -->

<svg
   xmlns:dc="http://purl.org/dc/elements/1.1/"
   xmlns:cc="http://creativecommons.org/ns#"
   xmlns:rdf="http://www.w3.org/1999/02/22-rdf-syntax-ns#"
   xmlns:svg="http://www.w3.org/2000/svg"
   xmlns="http://www.w3.org/2000/svg"
   xmlns:sodipodi="http://sodipodi.sourceforge.net/DTD/sodipodi-0.dtd"
   xmlns:inkscape="http://www.inkscape.org/namespaces/inkscape"
   width="46.075783mm"
   height="10.208072mm"
   viewBox="0 0 163.26065 36.170333"
   id="svg2"
   version="1.1"
   inkscape:version="0.91 r13725"
   sodipodi:docname="african hand.svg">
  <defs
     id="defs4">
    <clipPath
       id="clipEmfPath1"
       clipPathUnits="userSpaceOnUse">
      <path
         inkscape:connector-curvature="0"
         id="path3341"
         d="m 13.7531,2.50057 585.1339,0 0,135.03043 -585.1339,0 z" />
    </clipPath>
    <pattern
       y="0"
       x="0"
       height="6"
       width="6"
       patternUnits="userSpaceOnUse"
       id="EMFhbasepattern" />
    <clipPath
       id="clipEmfPath1-4"
       clipPathUnits="userSpaceOnUse">
      <path
         inkscape:connector-curvature="0"
         id="path3459"
         d="m 13.7531,1.25029 585.1339,0 0,135.03071 -585.1339,0 z" />
    </clipPath>
    <pattern
       y="0"
       x="0"
       height="6"
       width="6"
       patternUnits="userSpaceOnUse"
       id="EMFhbasepattern-5" />
  </defs>
  <sodipodi:namedview
     id="base"
     pagecolor="#ffffff"
     bordercolor="#666666"
     borderopacity="1.0"
     inkscape:pageopacity="0.0"
     inkscape:pageshadow="2"
     inkscape:zoom="1.979899"
     inkscape:cx="149.42667"
     inkscape:cy="25.375496"
     inkscape:document-units="px"
     inkscape:current-layer="layer1"
     showgrid="false"
     fit-margin-top="0"
     fit-margin-left="0"
     fit-margin-right="0"
     fit-margin-bottom="0"
     inkscape:window-width="1366"
     inkscape:window-height="706"
     inkscape:window-x="-8"
     inkscape:window-y="-8"
     inkscape:window-maximized="1" />
  <metadata
     id="metadata7">
    <rdf:RDF>
      <cc:Work
         rdf:about="">
        <dc:format>image/svg+xml</dc:format>
        <dc:type
           rdf:resource="http://purl.org/dc/dcmitype/StillImage" />
        <dc:title></dc:title>
      </cc:Work>
    </rdf:RDF>
  </metadata>
  <g
     inkscape:label="Layer 1"
     inkscape:groupmode="layer"
     id="layer1"
     transform="translate(-225.57333,-407.28166)">
    <path
       inkscape:connector-curvature="0"
       id="path3462"
       d="m 331.8694,415.52091 c -8.68934,0.0662 -38.8366,0.99244 -52.13492,0.44109 -13.07789,-1.30119 -23.57543,-6.85871 -27.65523,-3.7712 -4.08003,3.06547 16.3195,7.65263 24.47939,9.50514 8.15989,1.83046 20.39959,1.27911 24.47967,1.54375 z"
       style="fill:#da874e;fill-opacity:1;fill-rule:evenodd;stroke:none" />
    <path
       inkscape:connector-curvature="0"
       id="path3464"
       d="m 331.8694,415.52091 c -8.68934,0.0662 -38.8366,0.99244 -52.13492,0.44109 -13.07789,-1.30119 -23.57543,-6.85871 -27.65523,-3.7712 -4.08003,3.06547 16.3195,7.65263 24.47939,9.50514 8.15989,1.83046 20.39959,1.27911 24.47967,1.54375"
       style="fill:none;stroke:#000000;stroke-width:0.94830716px;stroke-linecap:butt;stroke-linejoin:round;stroke-miterlimit:4;stroke-dasharray:none;stroke-opacity:1" />
    <path
       inkscape:connector-curvature="0"
       id="path3466"
       d="m 340.09533,418.27763 c -11.37977,0.11027 -50.89991,1.58787 -68.32233,0.68366 -17.13569,-2.07304 -30.91917,-11.04888 -36.25616,-6.0868 -5.35903,4.98413 21.39208,12.37208 32.08802,15.34933 10.69594,2.95521 26.75099,2.07304 32.0881,2.47001 z"
       style="fill:#da874e;fill-opacity:1;fill-rule:evenodd;stroke:none" />
    <path
       inkscape:connector-curvature="0"
       id="path3468"
       d="m 340.09533,418.27763 c -11.37977,0.11027 -50.89991,1.58787 -68.32233,0.68366 -17.13569,-2.07304 -30.91917,-11.04888 -36.25616,-6.0868 -5.35903,4.98413 21.39208,12.37208 32.08802,15.34933 10.69594,2.95521 26.75099,2.07304 32.0881,2.47001"
       style="fill:none;stroke:#000000;stroke-width:0.94830716px;stroke-linecap:butt;stroke-linejoin:round;stroke-miterlimit:4;stroke-dasharray:none;stroke-opacity:1" />
    <path
       transform="matrix(0.28222222,0,0,0.28222222,220.65267,405.68499)"
       inkscape:connector-curvature="0"
       id="path3470"
       d="M 392.199,52.3557 C 350.471,53.3716 203.406,62.6706 141.595,58.3727 80.8779,48.3704 40.5562,2.50057 21.5674,26.4904 2.65686,50.4022 97.366,85.879 135.343,100.179 c 37.9,14.3 94.71,10.002 113.698,11.956 z"
       clip-path="url(#clipEmfPath1-4)"
       style="fill:#da874e;fill-opacity:1;fill-rule:evenodd;stroke:none" />
    <path
       transform="matrix(0.28222222,0,0,0.28222222,220.65267,405.68499)"
       inkscape:connector-curvature="0"
       id="path3472"
       d="M 392.199,52.3557 C 350.471,53.3716 203.406,62.6706 141.595,58.3727 80.8779,48.3704 40.5562,2.50057 21.5674,26.4904 2.65686,50.4022 97.366,85.879 135.343,100.179 c 37.9,14.3 94.71,10.002 113.698,11.956"
       clip-path="url(#clipEmfPath1-4)"
       style="fill:none;stroke:#000000;stroke-width:3.36014342px;stroke-linecap:butt;stroke-linejoin:round;stroke-miterlimit:4;stroke-dasharray:none;stroke-opacity:1" />
    <path
       transform="matrix(0.28222222,0,0,0.28222222,220.65267,405.68499)"
       inkscape:connector-curvature="0"
       id="path3474"
       d="M 581.227,12.4247 C 564.348,15.1597 512.07,19.692 478,28.5221 443.93,37.2742 415.564,56.7317 376.961,65.1712 338.359,73.6887 288.113,78.2992 246.384,79.4713 204.578,80.6434 162.459,77.3614 126.357,72.0477 65.64,60.6389 48.4486,20.3953 29.4599,47.9016 c -18.9106,27.5063 60.717,50.871 94.7871,65.2494 35.086,14.066 69.469,17.816 115.808,18.989 47.042,0 122.84,-7.658 162.146,-11.878 39.306,-4.298 41.416,-11.487 73.689,-13.753 32.273,-2.345 95.022,0 120.028,0 z"
       clip-path="url(#clipEmfPath1-4)"
       style="fill:#da874e;fill-opacity:1;fill-rule:evenodd;stroke:none" />
    <path
       transform="matrix(0.28222222,0,0,0.28222222,220.65267,405.68499)"
       inkscape:connector-curvature="0"
       id="path3476"
       d="M 581.227,12.4247 C 564.348,15.1597 512.07,19.692 478,28.5221 443.93,37.2742 415.564,56.7317 376.961,65.1712 338.359,73.6887 288.113,78.2992 246.384,79.4713 204.578,80.6434 162.459,77.3614 126.357,72.0477 65.64,60.6389 48.4486,20.3953 29.4599,47.9016 c -18.9106,27.5063 60.717,50.871 94.7871,65.2494 35.086,14.066 69.469,17.816 115.808,18.989 47.042,0 122.84,-7.658 162.146,-11.878 39.306,-4.298 41.416,-11.487 73.689,-13.753 32.273,-2.345 95.022,0 120.028,0"
       clip-path="url(#clipEmfPath1-4)"
       style="fill:none;stroke:#000000;stroke-width:3.36014342px;stroke-linecap:butt;stroke-linejoin:round;stroke-miterlimit:4;stroke-dasharray:none;stroke-opacity:1" />
    <path
       inkscape:connector-curvature="0"
       id="path3478"
       d="m 282.46894,423.34996 c -1.38938,2.64645 -1.69814,8.60094 4.74161,9.9021 6.43975,1.27915 26.64093,0.46313 33.87457,-2.16126 7.23364,-2.64645 13.76144,-11.40175 9.50496,-13.67327 -4.25619,-2.27152 -27.23614,-1.19089 -35.06526,0 -7.80712,1.19089 -11.68852,3.30804 -13.05588,5.93243 z"
       style="fill:#da874e;fill-opacity:1;fill-rule:evenodd;stroke:none" />
    <path
       inkscape:connector-curvature="0"
       id="path3480"
       d="m 360.91401,412.54367 c -7.43204,-1.49965 -14.86436,-2.97725 -21.98765,-3.72706 -7.1453,-0.74983 -13.87178,-1.49965 -20.81868,-0.74983 -6.92489,0.74983 -13.0556,4.60922 -20.7964,5.22672 -7.71877,0.61751 -20.59827,-2.49208 -25.53828,-1.49964 -4.96204,0.99241 -6.43975,5.33699 -4.16814,7.45414 2.2716,2.11714 10.49753,4.14607 17.81951,5.27081 7.3437,1.12474 17.70888,0.48519 26.15551,1.4776 8.44662,1.01448 20.4216,3.74912 24.5237,4.49893 z"
       style="fill:#da874e;fill-opacity:1;fill-rule:evenodd;stroke:none" />
    <path
       inkscape:connector-curvature="0"
       id="path3482"
       d="m 360.91401,412.54367 c -7.43204,-1.49965 -14.86436,-2.97725 -21.98765,-3.72706 -7.1453,-0.74983 -13.87178,-1.49965 -20.81868,-0.74983 -6.92489,0.74983 -13.0556,4.60922 -20.7964,5.22672 -7.71877,0.61751 -20.59827,-2.49208 -25.53828,-1.49964 -4.96204,0.99241 -6.43975,5.33699 -4.16814,7.45414 2.2716,2.11714 10.49753,4.14607 17.81951,5.27081 7.3437,1.12474 17.70888,0.48519 26.15551,1.4776 8.44662,1.01448 20.4216,3.74912 24.5237,4.49893"
       style="fill:none;stroke:#000000;stroke-width:0.94830716px;stroke-linecap:butt;stroke-linejoin:round;stroke-miterlimit:4;stroke-dasharray:none;stroke-opacity:1" />
    <path
       inkscape:connector-curvature="0"
       id="path3484"
       d="m 316.85066,428.48846 c -0.79389,1.56583 -0.97028,5.16057 2.71272,5.9324 3.683,0.77187 15.23915,0.28673 19.36298,-1.30113 4.12412,-1.58787 7.87316,-6.83664 5.42516,-8.22602 -2.4257,-1.36731 -15.54762,-0.7057 -20.02451,0 -4.47689,0.7278 -6.68246,2.00688 -7.47635,3.59475 z"
       style="fill:#da874e;fill-opacity:1;fill-rule:evenodd;stroke:none" />
  </g>
</svg>
