<?xml version="1.0" encoding="UTF-8" standalone="no"?>
<!-- Created with Inkscape (http://www.inkscape.org/) -->

<svg
   xmlns:dc="http://purl.org/dc/elements/1.1/"
   xmlns:cc="http://creativecommons.org/ns#"
   xmlns:rdf="http://www.w3.org/1999/02/22-rdf-syntax-ns#"
   xmlns:svg="http://www.w3.org/2000/svg"
   xmlns="http://www.w3.org/2000/svg"
   xmlns:sodipodi="http://sodipodi.sourceforge.net/DTD/sodipodi-0.dtd"
   xmlns:inkscape="http://www.inkscape.org/namespaces/inkscape"
   id="svg2"
   sodipodi:docname="arrows-mystica-Arrow-set-Smooth.svg"
   inkscape:export-filename="C:\Documents and Settings\Dan\Skrivbord\Clipart egna (InkScape)\Original\Kanske Upload\Arrows.png"
   viewBox="0 0 472.78 454.53"
   sodipodi:version="0.32"
   inkscape:export-xdpi="310"
   version="1.0"
   inkscape:output_extension="org.inkscape.output.svg.inkscape"
   inkscape:export-ydpi="310"
   inkscape:version="0.92.1 r15371"
   width="504.29868"
   height="484.832">
  <defs
     id="defs4">
    <filter
       id="filter4666"
       inkscape:collect="always">
      <feGaussianBlur
         id="feGaussianBlur4668"
         stdDeviation="4.0231769"
         inkscape:collect="always" />
    </filter>
  </defs>
  <sodipodi:namedview
     id="base"
     bordercolor="#666666"
     inkscape:pageshadow="2"
     guidetolerance="10"
     pagecolor="#ffffff"
     gridtolerance="10000"
     inkscape:window-height="838"
     inkscape:zoom="1.0958389"
     objecttolerance="10"
     showgrid="false"
     borderopacity="1.0"
     inkscape:current-layer="layer1"
     inkscape:cx="328.12589"
     inkscape:cy="239.44648"
     inkscape:window-y="0"
     inkscape:window-x="0"
     inkscape:window-width="1152"
     inkscape:pageopacity="0.0"
     inkscape:document-units="px" />
  <g
     id="layer1"
     inkscape:label="Layer 1"
     inkscape:groupmode="layer"
     transform="translate(-92.579,-104.64)">
    <g
       id="g4670"
       transform="matrix(0,0.39051,-0.39051,0,496.12,304.7)">
      <path
         id="rect2388"
         sodipodi:nodetypes="ccccccccccccc"
         style="fill:#0000ff;fill-rule:evenodd;stroke:#0c0e7c;stroke-width:14.80000019"
         d="m 429.31,288.69 c -14.97,-15.72 3.86,29.99 17.18,65.7 -3.3,-0.03 -44.69,14.11 -78.87,14.11 h -102.9 c -36.41,0 -65.72,-51.52 -65.72,0.03 v 132.25 c 2.02,53.57 29.31,0.03 65.72,0.03 h 102.9 c 34.18,0 75.57,13.13 78.87,13.1 -14.92,33.93 -45.02,86.61 -17.18,67.71 L 577.35,444.76 c 13.23,-13.63 3.9,-17.59 -0.7,-23.58 z"
         inkscape:connector-curvature="0" />
      <path
         id="path3165"
         sodipodi:nodetypes="ccccccscccc"
         style="fill:#2b2bff;fill-rule:evenodd;filter:url(#filter4666)"
         d="m 212.03,356.75 c -4.84,0.16 -7.58,5.24 -7.58,20.06 v 115.83 c 1.77,46.91 25.67,0.02 57.56,0.02 h 90.13 c 6.53,0 13.34,0.57 20.06,1.43 5.37,-21.61 35.27,-23.34 35.39,-58.05 0.11,-31.5 -29.05,-42.98 -35.39,-60.79 -6.72,0.92 -13.53,1.53 -20.06,1.53 h -90.13 c -21.43,0 -40.07,-20.36 -49.98,-20.03 z"
         inkscape:connector-curvature="0" />
    </g>
    <g
       id="g4674"
       transform="matrix(0,-0.39051,-0.39051,0,496.52,361.13)">
      <path
         id="path4676"
         sodipodi:nodetypes="ccccccccccccc"
         style="fill:#0000ff;fill-rule:evenodd;stroke:#0c0e7c;stroke-width:14.80000019"
         d="m 429.31,288.69 c -14.97,-15.72 3.86,29.99 17.18,65.7 -3.3,-0.03 -44.69,14.11 -78.87,14.11 h -102.9 c -36.41,0 -65.72,-51.52 -65.72,0.03 v 132.25 c 2.02,53.57 29.31,0.03 65.72,0.03 h 102.9 c 34.18,0 75.57,13.13 78.87,13.1 -14.92,33.93 -45.02,86.61 -17.18,67.71 L 577.35,444.76 c 13.23,-13.63 3.9,-17.59 -0.7,-23.58 z"
         inkscape:connector-curvature="0" />
      <path
         id="path4678"
         sodipodi:nodetypes="ccccccscccc"
         style="fill:#2b2bff;fill-rule:evenodd;filter:url(#filter4666)"
         d="m 212.03,356.75 c -4.84,0.16 -7.58,5.24 -7.58,20.06 v 115.83 c 1.77,46.91 25.67,0.02 57.56,0.02 h 90.13 c 6.53,0 13.34,0.57 20.06,1.43 5.37,-21.61 35.27,-23.34 35.39,-58.05 0.11,-31.5 -29.05,-42.98 -35.39,-60.79 -6.72,0.92 -13.53,1.53 -20.06,1.53 h -90.13 c -21.43,0 -40.07,-20.36 -49.98,-20.03 z"
         inkscape:connector-curvature="0" />
    </g>
    <g
       id="g4680"
       transform="matrix(-0.39051,0,0,-0.39051,351.57,502.31)">
      <path
         id="path4682"
         sodipodi:nodetypes="ccccccccccccc"
         style="fill:#0000ff;fill-rule:evenodd;stroke:#0c0e7c;stroke-width:14.80000019"
         d="m 429.31,288.69 c -14.97,-15.72 3.86,29.99 17.18,65.7 -3.3,-0.03 -44.69,14.11 -78.87,14.11 h -102.9 c -36.41,0 -65.72,-51.52 -65.72,0.03 v 132.25 c 2.02,53.57 29.31,0.03 65.72,0.03 h 102.9 c 34.18,0 75.57,13.13 78.87,13.1 -14.92,33.93 -45.02,86.61 -17.18,67.71 L 577.35,444.76 c 13.23,-13.63 3.9,-17.59 -0.7,-23.58 z"
         inkscape:connector-curvature="0" />
      <path
         id="path4684"
         sodipodi:nodetypes="ccccccscccc"
         style="fill:#2b2bff;fill-rule:evenodd;filter:url(#filter4666)"
         d="m 212.03,356.75 c -4.84,0.16 -7.58,5.24 -7.58,20.06 v 115.83 c 1.77,46.91 25.67,0.02 57.56,0.02 h 90.13 c 6.53,0 13.34,0.57 20.06,1.43 5.37,-21.61 35.27,-23.34 35.39,-58.05 0.11,-31.5 -29.05,-42.98 -35.39,-60.79 -6.72,0.92 -13.53,1.53 -20.06,1.53 h -90.13 c -21.43,0 -40.07,-20.36 -49.98,-20.03 z"
         inkscape:connector-curvature="0" />
    </g>
    <g
       id="g4686"
       transform="matrix(0.39051,0,0,-0.39051,301.29,502.71)">
      <path
         id="path4688"
         sodipodi:nodetypes="ccccccccccccc"
         style="fill:#0000ff;fill-rule:evenodd;stroke:#0c0e7c;stroke-width:14.80000019"
         d="m 429.31,288.69 c -14.97,-15.72 3.86,29.99 17.18,65.7 -3.3,-0.03 -44.69,14.11 -78.87,14.11 h -102.9 c -36.41,0 -65.72,-51.52 -65.72,0.03 v 132.25 c 2.02,53.57 29.31,0.03 65.72,0.03 h 102.9 c 34.18,0 75.57,13.13 78.87,13.1 -14.92,33.93 -45.02,86.61 -17.18,67.71 L 577.35,444.76 c 13.23,-13.63 3.9,-17.59 -0.7,-23.58 z"
         inkscape:connector-curvature="0" />
      <path
         id="path4690"
         sodipodi:nodetypes="ccccccscccc"
         style="fill:#2b2bff;fill-rule:evenodd;filter:url(#filter4666)"
         d="m 212.03,356.75 c -4.84,0.16 -7.58,5.24 -7.58,20.06 v 115.83 c 1.77,46.91 25.67,0.02 57.56,0.02 h 90.13 c 6.53,0 13.34,0.57 20.06,1.43 5.37,-21.61 35.27,-23.34 35.39,-58.05 0.11,-31.5 -29.05,-42.98 -35.39,-60.79 -6.72,0.92 -13.53,1.53 -20.06,1.53 h -90.13 c -21.43,0 -40.07,-20.36 -49.98,-20.03 z"
         inkscape:connector-curvature="0" />
    </g>
    <rect
       id="rect4752"
       style="fill:#0000ff;fill-rule:evenodd;stroke:#091d93;stroke-width:6.0395999"
       rx="65.727997"
       ry="0.053213"
       height="68.441002"
       width="73.490997"
       y="299.20001"
       x="289.17999" />
    <rect
       id="rect4756"
       style="fill:#0000c7;fill-rule:evenodd"
       rx="65.727997"
       ry="0.053213"
       height="48.446999"
       width="52.021999"
       y="309.45999"
       x="298.88" />
    <rect
       id="rect4758"
       style="fill:#00009a;fill-rule:evenodd"
       rx="65.727997"
       ry="0.053213"
       height="35.314999"
       width="37.921001"
       y="316.19"
       x="305.64001" />
    <rect
       id="rect4760"
       style="fill:#00007c;fill-rule:evenodd"
       rx="65.727997"
       ry="0.053213"
       height="25.968"
       width="27.884001"
       y="320.79999"
       x="310.20999" />
    <rect
       id="rect4762"
       style="fill:#000066;fill-rule:evenodd"
       rx="65.727997"
       ry="0.053213"
       height="16.381001"
       width="17.59"
       y="325.48001"
       x="315.23001" />
    <rect
       id="rect4764"
       style="fill:#00004a;fill-rule:evenodd"
       rx="65.727997"
       ry="0.053213"
       height="8.9511995"
       width="9.6118002"
       y="329.07001"
       x="319.64999" />
    <text
       id="text4902"
       style="line-height:0%;font-family:Fingerpop;fill:#000000"
       xml:space="preserve"
       y="597.91583"
       x="78.478683"><tspan
         id="tspan4904"
         sodipodi:role="line"
         x="78.478683"
         y="597.91583"
         style="font-size:32px;line-height:1.25"> </tspan></text>
  </g>
  <metadata
     id="metadata27">
    <rdf:RDF>
      <cc:Work>
        <dc:format>image/svg+xml</dc:format>
        <dc:type
           rdf:resource="http://purl.org/dc/dcmitype/StillImage" />
        <cc:license
           rdf:resource="http://creativecommons.org/licenses/publicdomain/" />
        <dc:publisher>
          <cc:Agent
             rdf:about="http://openclipart.org/">
            <dc:title>Openclipart</dc:title>
          </cc:Agent>
        </dc:publisher>
        <dc:title>Arrow set (Smooth)</dc:title>
        <dc:date>2008-02-21T11:47:51</dc:date>
        <dc:description>A simple arrow set... ;-)</dc:description>
        <dc:source>https://openclipart.org/detail/14665/arrow-set-(smooth)-by-mystica-14665</dc:source>
        <dc:creator>
          <cc:Agent>
            <dc:title>mystica</dc:title>
          </cc:Agent>
        </dc:creator>
        <dc:subject>
          <rdf:Bag>
            <rdf:li>arrow</rdf:li>
            <rdf:li>icon</rdf:li>
            <rdf:li>sign</rdf:li>
          </rdf:Bag>
        </dc:subject>
      </cc:Work>
      <cc:License
         rdf:about="http://creativecommons.org/licenses/publicdomain/">
        <cc:permits
           rdf:resource="http://creativecommons.org/ns#Reproduction" />
        <cc:permits
           rdf:resource="http://creativecommons.org/ns#Distribution" />
        <cc:permits
           rdf:resource="http://creativecommons.org/ns#DerivativeWorks" />
      </cc:License>
    </rdf:RDF>
  </metadata>
</svg>
