<?xml version="1.0" encoding="UTF-8" standalone="no"?>
<!-- Created with Inkscape (http://www.inkscape.org/) -->

<svg
   xmlns:dc="http://purl.org/dc/elements/1.1/"
   xmlns:cc="http://creativecommons.org/ns#"
   xmlns:rdf="http://www.w3.org/1999/02/22-rdf-syntax-ns#"
   xmlns:svg="http://www.w3.org/2000/svg"
   xmlns="http://www.w3.org/2000/svg"
   xmlns:sodipodi="http://sodipodi.sourceforge.net/DTD/sodipodi-0.dtd"
   xmlns:inkscape="http://www.inkscape.org/namespaces/inkscape"
   id="svg2"
   version="1.1"
   inkscape:version="0.48.2 r9819"
   width="600"
   height="200"
   sodipodi:docname="fourleaves-clover-sidetable.svg">
  <metadata
     id="metadata8">
    <rdf:RDF>
      <cc:Work
         rdf:about="">
        <dc:format>image/svg+xml</dc:format>
        <dc:type
           rdf:resource="http://purl.org/dc/dcmitype/StillImage" />
        <dc:title></dc:title>
      </cc:Work>
    </rdf:RDF>
  </metadata>
  <defs
     id="defs6" />
  <sodipodi:namedview
     pagecolor="#ffffff"
     bordercolor="#666666"
     borderopacity="1"
     objecttolerance="10"
     gridtolerance="10"
     guidetolerance="10"
     inkscape:pageopacity="0"
     inkscape:pageshadow="2"
     inkscape:window-width="1132"
     inkscape:window-height="992"
     id="namedview4"
     showgrid="false"
     inkscape:zoom="0.52840124"
     inkscape:cx="356.73317"
     inkscape:cy="120.32376"
     inkscape:window-x="426"
     inkscape:window-y="-20"
     inkscape:window-maximized="0"
     inkscape:current-layer="g3786"
     borderlayer="true" />
  <g
     id="g2987"
     transform="matrix(5.9330113,0,0,6.9663839,-2338.2395,-1478.772)">
    <g
       id="g3755"
       transform="matrix(1.6588171,0,0,1.613115,-385.86135,-254.76007)">
      <g
         id="g3766"
         transform="matrix(1.8639958,0,0,1.9230922,-447.27623,-258.81823)">
        <g
           id="g3761">
          <g
             id="g3778"
             transform="translate(-6.5388399,-31.638897)">
            <g
               id="g3786"
               transform="matrix(1.3660866,0,0,0.83799172,-268.36461,-82.776166)">
              <rect
                 style="fill:#ffd8d8;fill-opacity:1;fill-rule:nonzero;stroke:#ab1b1b;stroke-width:0;stroke-linecap:round;stroke-linejoin:round;stroke-miterlimit:4;stroke-opacity:1;stroke-dasharray:none;stroke-dashoffset:0"
                 id="rect3886"
                 width="24.995813"
                 height="12.43571"
                 x="561.00995"
                 y="476.23856" />
              <g
                 id="g3858"
                 transform="matrix(0.01391467,0,0,0.01436009,571.85385,492.72191)">
                <g
                   transform="translate(155.62085,160.13469)"
                   id="g3832">
                  <g
                     id="g3805"
                     transform="matrix(0.27719082,0,0,0.38007589,-328.90822,-808.58045)"
                     style="fill:#010c00;fill-opacity:1">
                    <g
                       transform="matrix(6.2543607,0,0,9.0335725,-3752.8741,-2614.148)"
                       id="g3790"
                       style="fill:#010c00;fill-opacity:1">
                      <path
                         style="fill:#010c00;fill-opacity:1;stroke:#000000;stroke-width:0;stroke-miterlimit:4;stroke-opacity:1;stroke-dasharray:none"
                         d="m 592.10639,346.04862 c -45.81344,18.04843 12.15126,-21.27142 13.59211,-5.68509 0.58263,6.30258 -4.23585,-73.80603 -5.68762,-76.5055 -252.05336,-23.0741 268.44439,-35.44537 12.29695,-0.28024 2.45498,28.48072 1.45758,73.79264 2.73696,73.93043 32.72101,-4.6148 53.2705,27.9699 7.92526,4.20655 61.51057,18.39422 -5.86079,60.60437 -13.40933,4.83534 -5.57193,50.82829 -67.26633,21.71621 -17.45433,-0.50162 z"
                         id="path3772"
                         inkscape:connector-curvature="0"
                         sodipodi:nodetypes="csccccccc" />
                      <path
                         style="fill:#15ff00;fill-opacity:1;stroke:#000000;stroke-width:0;stroke-linecap:butt;stroke-linejoin:miter;stroke-miterlimit:4;stroke-opacity:1;stroke-dasharray:none"
                         d="m 661.86623,245.49067 c 30.81373,12.90392 -133.88193,14.91252 -110.7051,4.28111 9.18154,-4.21165 25.4403,-3.45451 56.06901,-4.92051 43.62369,-0.78828 54.63609,0.6394 54.63609,0.6394 z"
                         id="path3759"
                         inkscape:connector-curvature="0"
                         sodipodi:nodetypes="sscs" />
                    </g>
                  </g>
                </g>
                <g
                   transform="matrix(0.94101488,0,0,0.91818167,153.59318,116.92983)"
                   id="g3822">
                  <g
                     id="g3800"
                     transform="matrix(1.7692489,0.00314088,0.05761506,3.5445681,-527.9342,-1687.7059)"
                     style="fill:#000000;fill-opacity:1">
                    <g
                       style="fill:#000000;fill-opacity:1"
                       id="g3794"
                       transform="translate(46.381693,-48.138448)">
                      <path
                         sodipodi:nodetypes="csccccccc"
                         inkscape:connector-curvature="0"
                         id="path3796"
                         d="m 592.10639,346.04862 c -45.81344,18.04843 12.15126,-21.27142 13.59211,-5.68509 0.58263,6.30258 -2.05618,-77.0273 -2.4274,-76.68286 -252.05336,-23.0741 264.37577,-35.49551 8.22833,-0.33038 0.11754,28.92289 2.36255,74.1565 3.54536,74.15793 32.72101,-4.6148 53.2705,27.9699 7.92526,4.20655 61.51057,18.39422 -5.86079,60.60437 -13.40933,4.83534 -5.57193,50.82829 -67.26633,21.71621 -17.45433,-0.50162 z"
                         style="fill:#000000;fill-opacity:1;stroke:#000000;stroke-width:0;stroke-miterlimit:4;stroke-opacity:1;stroke-dasharray:none" />
                      <path
                         sodipodi:nodetypes="sscs"
                         inkscape:connector-curvature="0"
                         id="path3798"
                         d="m 664.53692,245.20636 c 28.3687,14.89658 -136.29614,15.16512 -113.37579,4.56542 9.16752,-4.2396 25.4403,-3.45451 56.06901,-4.92051 43.62369,-0.78828 57.30678,0.35509 57.30678,0.35509 z"
                         style="fill:#35ff00;fill-opacity:1;stroke:#000000;stroke-width:0;stroke-linecap:butt;stroke-linejoin:miter;stroke-miterlimit:4;stroke-opacity:1;stroke-dasharray:none" />
                    </g>
                  </g>
                </g>
                <g
                   id="g3838"
                   transform="matrix(0.94101488,0,0,0.91818167,-137.69713,122.45175)">
                  <g
                     style="fill:#000000;fill-opacity:1"
                     transform="matrix(1.7692489,0.00314088,0.05761506,3.5445681,-527.9342,-1687.7059)"
                     id="g3840">
                    <g
                       transform="translate(46.381693,-48.138448)"
                       id="g3842"
                       style="fill:#000000;fill-opacity:1">
                      <path
                         style="fill:#000000;fill-opacity:1;stroke:#000000;stroke-width:0;stroke-miterlimit:4;stroke-opacity:1;stroke-dasharray:none"
                         d="m 592.10639,346.04862 c -45.81344,18.04843 12.15126,-21.27142 13.59211,-5.68509 0.58263,6.30258 -2.05618,-77.0273 -2.4274,-76.68286 -252.05336,-23.0741 264.37577,-35.49551 8.22833,-0.33038 0.11754,28.92289 2.36255,74.1565 3.54536,74.15793 32.72101,-4.6148 53.2705,27.9699 7.92526,4.20655 61.51057,18.39422 -5.86079,60.60437 -13.40933,4.83534 -5.57193,50.82829 -67.26633,21.71621 -17.45433,-0.50162 z"
                         id="path3844"
                         inkscape:connector-curvature="0"
                         sodipodi:nodetypes="csccccccc" />
                      <path
                         style="fill:#35ff00;fill-opacity:1;stroke:#000000;stroke-width:0;stroke-linecap:butt;stroke-linejoin:miter;stroke-miterlimit:4;stroke-opacity:1;stroke-dasharray:none"
                         d="m 664.53692,245.20636 c 28.3687,14.89658 -136.29614,15.16512 -113.37579,4.56542 9.16752,-4.2396 25.4403,-3.45451 56.06901,-4.92051 43.62369,-0.78828 57.30678,0.35509 57.30678,0.35509 z"
                         id="path3846"
                         inkscape:connector-curvature="0"
                         sodipodi:nodetypes="sscs" />
                    </g>
                  </g>
                </g>
                <g
                   style="fill:#000000;fill-opacity:1"
                   id="g3810"
                   transform="matrix(5.9418723,0.0148715,-0.00482442,9.5644726,-3604.244,-3079.7287)">
                  <g
                     style="fill:#000000;fill-opacity:1"
                     id="g3812"
                     transform="translate(46.381693,-48.138448)">
                    <g
                       style="fill:#000000;fill-opacity:1"
                       transform="matrix(0.80155298,-4.2095743e-4,-2.1981921e-4,0.53081802,98.8624,131.43789)"
                       id="g3818">
                      <g
                         id="g3828">
                        <path
                           sodipodi:nodetypes="csccccccc"
                           inkscape:connector-curvature="0"
                           id="path3814"
                           d="m 592.10639,346.04862 c -45.81344,18.04843 12.15126,-21.27142 13.59211,-5.68509 0.58263,6.30258 -2.05618,-77.0273 -2.4274,-76.68286 -252.05336,-23.0741 264.37577,-35.49551 8.22833,-0.33038 0.11754,28.92289 2.36255,74.1565 3.54536,74.15793 32.72101,-4.6148 53.2705,27.9699 7.92526,4.20655 61.51057,18.39422 -5.86079,60.60437 -13.40933,4.83534 -5.57193,50.82829 -67.26633,21.71621 -17.45433,-0.50162 z"
                           style="fill:#000000;fill-opacity:1;stroke:#000000;stroke-width:0;stroke-miterlimit:4;stroke-opacity:1;stroke-dasharray:none" />
                        <path
                           sodipodi:nodetypes="sscs"
                           inkscape:connector-curvature="0"
                           id="path3816"
                           d="m 664.53692,245.20636 c 28.3687,14.89658 -136.29614,15.16512 -113.37579,4.56542 9.16752,-4.2396 25.4403,-3.45451 56.06901,-4.92051 43.62369,-0.78828 57.30678,0.35509 57.30678,0.35509 z"
                           style="fill:#41ff00;fill-opacity:1;stroke:#000000;stroke-width:0;stroke-linecap:butt;stroke-linejoin:miter;stroke-miterlimit:4;stroke-opacity:1;stroke-dasharray:none" />
                      </g>
                    </g>
                  </g>
                </g>
                <g
                   id="g3848"
                   transform="matrix(0.94101488,0,0,0.91818167,-1083.393,122.45172)">
                  <g
                     style="fill:#000000;fill-opacity:1"
                     transform="matrix(1.7692489,0.00314088,0.05761506,3.5445681,-527.9342,-1687.7059)"
                     id="g3850">
                    <g
                       transform="translate(46.381693,-48.138448)"
                       id="g3852"
                       style="fill:#000000;fill-opacity:1">
                      <path
                         style="fill:#000000;fill-opacity:1;stroke:#000000;stroke-width:0;stroke-miterlimit:4;stroke-opacity:1;stroke-dasharray:none"
                         d="m 592.10639,346.04862 c -45.81344,18.04843 12.15126,-21.27142 13.59211,-5.68509 0.58263,6.30258 -2.05618,-77.0273 -2.4274,-76.68286 -252.05336,-23.0741 264.37577,-35.49551 8.22833,-0.33038 0.11754,28.92289 2.36255,74.1565 3.54536,74.15793 32.72101,-4.6148 53.2705,27.9699 7.92526,4.20655 61.51057,18.39422 -5.86079,60.60437 -13.40933,4.83534 -5.57193,50.82829 -67.26633,21.71621 -17.45433,-0.50162 z"
                         id="path3854"
                         inkscape:connector-curvature="0"
                         sodipodi:nodetypes="csccccccc" />
                      <path
                         style="fill:#35ff00;fill-opacity:1;stroke:#000000;stroke-width:0;stroke-linecap:butt;stroke-linejoin:miter;stroke-miterlimit:4;stroke-opacity:1;stroke-dasharray:none"
                         d="m 664.53692,245.20636 c 28.3687,14.89658 -136.29614,15.16512 -113.37579,4.56542 9.16752,-4.2396 25.4403,-3.45451 56.06901,-4.92051 43.62369,-0.78828 57.30678,0.35509 57.30678,0.35509 z"
                         id="path3856"
                         inkscape:connector-curvature="0"
                         sodipodi:nodetypes="sscs" />
                    </g>
                  </g>
                </g>
              </g>
            </g>
          </g>
        </g>
      </g>
    </g>
  </g>
</svg>
