<?xml version="1.0" encoding="UTF-8" standalone="no"?>
<!-- Created with Inkscape (http://www.inkscape.org/) -->

<svg
   xmlns:dc="http://purl.org/dc/elements/1.1/"
   xmlns:cc="http://creativecommons.org/ns#"
   xmlns:rdf="http://www.w3.org/1999/02/22-rdf-syntax-ns#"
   xmlns:svg="http://www.w3.org/2000/svg"
   xmlns="http://www.w3.org/2000/svg"
   xmlns:sodipodi="http://sodipodi.sourceforge.net/DTD/sodipodi-0.dtd"
   xmlns:inkscape="http://www.inkscape.org/namespaces/inkscape"
   id="svg2"
   version="1.1"
   inkscape:version="0.92.1 r15371"
   width="640"
   height="213.33333"
   sodipodi:docname="digasgilo-table-set.svg">
  <metadata
     id="metadata8">
    <rdf:RDF>
      <cc:Work
         rdf:about="">
        <dc:format>image/svg+xml</dc:format>
        <dc:type
           rdf:resource="http://purl.org/dc/dcmitype/StillImage" />
        <dc:title />
      </cc:Work>
    </rdf:RDF>
  </metadata>
  <defs
     id="defs6" />
  <sodipodi:namedview
     pagecolor="#ffffff"
     bordercolor="#666666"
     borderopacity="1"
     objecttolerance="10"
     gridtolerance="10"
     guidetolerance="10"
     inkscape:pageopacity="0"
     inkscape:pageshadow="2"
     inkscape:window-width="1132"
     inkscape:window-height="992"
     id="namedview4"
     showgrid="false"
     inkscape:zoom="0.52840124"
     inkscape:cx="356.73317"
     inkscape:cy="120.32376"
     inkscape:window-x="426"
     inkscape:window-y="-20"
     inkscape:window-maximized="0"
     inkscape:current-layer="g3786"
     borderlayer="true" />
  <g
     id="g2987"
     transform="matrix(5.9330113,0,0,6.9663839,-2494.1221,-1577.3568)">
    <g
       id="g3755"
       transform="matrix(1.6588171,0,0,1.613115,-411.58544,-271.74407)">
      <g
         id="g3766"
         transform="matrix(1.8639958,0,0,1.9230922,-477.09465,-276.07278)">
        <g
           id="g3761">
          <g
             id="g3778"
             transform="translate(-6.9747626,-33.748157)">
            <g
               id="g3786"
               transform="matrix(1.3660866,0,0,0.83799172,-286.25558,-88.294577)">
              <rect
                 style="fill:#ffd8d8;fill-opacity:1;fill-rule:nonzero;stroke:#ab1b1b;stroke-width:0;stroke-linecap:round;stroke-linejoin:round;stroke-miterlimit:4;stroke-dasharray:none;stroke-dashoffset:0;stroke-opacity:1"
                 id="rect3886"
                 width="26.662201"
                 height="13.264757"
                 x="598.41058"
                 y="507.98779" />
              <g
                 id="g3858"
                 transform="matrix(0.01391467,0,0,0.01436009,609.97744,525.57004)">
                <g
                   transform="translate(165.99557,170.81034)"
                   id="g3832">
                  <g
                     id="g3805"
                     transform="matrix(0.27719082,0,0,0.38007589,-350.83543,-862.48581)"
                     style="fill:#010c00;fill-opacity:1">
                    <g
                       transform="matrix(6.2543607,0,0,9.0335725,-4003.0657,-2788.4245)"
                       id="g3790"
                       style="fill:#010c00;fill-opacity:1">
                      <path
                         style="fill:#010c00;fill-opacity:1;stroke:#000000;stroke-width:0;stroke-miterlimit:4;stroke-dasharray:none;stroke-opacity:1"
                         d="m 631.58015,369.11853 c -48.86767,19.25166 12.96134,-22.68952 14.49825,-6.0641 0.62147,6.72275 -4.51824,-78.72643 -6.06679,-81.60586 -268.85692,-24.61238 286.34068,-37.8084 13.11674,-0.29893 2.61865,30.37944 1.55475,78.71215 2.91943,78.85913 34.90241,-4.92246 56.82186,29.83456 8.45361,4.48698 65.61127,19.62051 -6.25151,64.64467 -14.30329,5.1577 -5.94339,54.21684 -71.75075,23.16396 -18.61795,-0.53506 z"
                         id="path3772"
                         inkscape:connector-curvature="0"
                         sodipodi:nodetypes="csccccccc" />
                      <path
                         style="fill:#15ff00;fill-opacity:1;stroke:#000000;stroke-width:0;stroke-linecap:butt;stroke-linejoin:miter;stroke-miterlimit:4;stroke-dasharray:none;stroke-opacity:1"
                         d="m 705.99065,261.85671 c 32.86797,13.76419 -142.8074,15.90669 -118.08544,4.56652 9.79364,-4.49242 27.13632,-3.68481 59.80694,-5.24854 46.53194,-0.84083 58.2785,0.68202 58.2785,0.68202 z"
                         id="path3759"
                         inkscape:connector-curvature="0"
                         sodipodi:nodetypes="sscs" />
                    </g>
                  </g>
                </g>
                <g
                   transform="matrix(0.94101488,0,0,0.91818167,163.83273,124.72515)"
                   id="g3822">
                  <g
                     id="g3800"
                     transform="matrix(1.7692489,0.00314088,0.05761506,3.5445681,-563.12981,-1800.2196)"
                     style="fill:#000000;fill-opacity:1">
                    <g
                       style="fill:#000000;fill-opacity:1"
                       id="g3794"
                       transform="translate(49.473806,-51.347678)">
                      <path
                         sodipodi:nodetypes="csccccccc"
                         inkscape:connector-curvature="0"
                         id="path3796"
                         d="m 631.58015,369.11853 c -48.86767,19.25166 12.96134,-22.68952 14.49825,-6.0641 0.62147,6.72275 -2.19326,-82.16245 -2.58923,-81.79505 -268.85691,-24.61237 282.00082,-37.86188 8.77689,-0.3524 0.12537,30.85108 2.52005,79.10026 3.78172,79.10179 34.90241,-4.92246 56.82186,29.83456 8.45361,4.48698 65.61127,19.62051 -6.25151,64.64467 -14.30329,5.1577 -5.94339,54.21684 -71.75075,23.16396 -18.61795,-0.53506 z"
                         style="fill:#000000;fill-opacity:1;stroke:#000000;stroke-width:0;stroke-miterlimit:4;stroke-dasharray:none;stroke-opacity:1" />
                      <path
                         sodipodi:nodetypes="sscs"
                         inkscape:connector-curvature="0"
                         id="path3798"
                         d="m 708.83938,261.55345 c 30.25995,15.88969 -145.38255,16.17613 -120.93417,4.86978 9.77868,-4.52224 27.13632,-3.68481 59.80694,-5.24854 46.53194,-0.84083 61.12723,0.37876 61.12723,0.37876 z"
                         style="fill:#35ff00;fill-opacity:1;stroke:#000000;stroke-width:0;stroke-linecap:butt;stroke-linejoin:miter;stroke-miterlimit:4;stroke-dasharray:none;stroke-opacity:1" />
                    </g>
                  </g>
                </g>
                <g
                   id="g3838"
                   transform="matrix(0.94101488,0,0,0.91818167,-146.87694,130.6152)">
                  <g
                     style="fill:#000000;fill-opacity:1"
                     transform="matrix(1.7692489,0.00314088,0.05761506,3.5445681,-563.12981,-1800.2196)"
                     id="g3840">
                    <g
                       transform="translate(49.473806,-51.347678)"
                       id="g3842"
                       style="fill:#000000;fill-opacity:1">
                      <path
                         style="fill:#000000;fill-opacity:1;stroke:#000000;stroke-width:0;stroke-miterlimit:4;stroke-dasharray:none;stroke-opacity:1"
                         d="m 631.58015,369.11853 c -48.86767,19.25166 12.96134,-22.68952 14.49825,-6.0641 0.62147,6.72275 -2.19326,-82.16245 -2.58923,-81.79505 -268.85691,-24.61237 282.00082,-37.86188 8.77689,-0.3524 0.12537,30.85108 2.52005,79.10026 3.78172,79.10179 34.90241,-4.92246 56.82186,29.83456 8.45361,4.48698 65.61127,19.62051 -6.25151,64.64467 -14.30329,5.1577 -5.94339,54.21684 -71.75075,23.16396 -18.61795,-0.53506 z"
                         id="path3844"
                         inkscape:connector-curvature="0"
                         sodipodi:nodetypes="csccccccc" />
                      <path
                         style="fill:#35ff00;fill-opacity:1;stroke:#000000;stroke-width:0;stroke-linecap:butt;stroke-linejoin:miter;stroke-miterlimit:4;stroke-dasharray:none;stroke-opacity:1"
                         d="m 708.83938,261.55345 c 30.25995,15.88969 -145.38255,16.17613 -120.93417,4.86978 9.77868,-4.52224 27.13632,-3.68481 59.80694,-5.24854 46.53194,-0.84083 61.12723,0.37876 61.12723,0.37876 z"
                         id="path3846"
                         inkscape:connector-curvature="0"
                         sodipodi:nodetypes="sscs" />
                    </g>
                  </g>
                </g>
                <g
                   style="fill:#000000;fill-opacity:1"
                   id="g3810"
                   transform="matrix(5.9418723,0.0148715,-0.00482442,9.5644726,-3844.5269,-3285.0439)">
                  <g
                     style="fill:#000000;fill-opacity:1"
                     id="g3812"
                     transform="translate(49.473806,-51.347678)">
                    <g
                       style="fill:#000000;fill-opacity:1"
                       transform="matrix(0.80155298,-4.2095743e-4,-2.1981921e-4,0.53081802,105.45323,140.20042)"
                       id="g3818">
                      <g
                         id="g3828">
                        <path
                           sodipodi:nodetypes="csccccccc"
                           inkscape:connector-curvature="0"
                           id="path3814"
                           d="m 631.58015,369.11853 c -48.86767,19.25166 12.96134,-22.68952 14.49825,-6.0641 0.62147,6.72275 -2.19326,-82.16245 -2.58923,-81.79505 -268.85691,-24.61237 282.00082,-37.86188 8.77689,-0.3524 0.12537,30.85108 2.52005,79.10026 3.78172,79.10179 34.90241,-4.92246 56.82186,29.83456 8.45361,4.48698 65.61127,19.62051 -6.25151,64.64467 -14.30329,5.1577 -5.94339,54.21684 -71.75075,23.16396 -18.61795,-0.53506 z"
                           style="fill:#000000;fill-opacity:1;stroke:#000000;stroke-width:0;stroke-miterlimit:4;stroke-dasharray:none;stroke-opacity:1" />
                        <path
                           sodipodi:nodetypes="sscs"
                           inkscape:connector-curvature="0"
                           id="path3816"
                           d="m 708.83938,261.55345 c 30.25995,15.88969 -145.38255,16.17613 -120.93417,4.86978 9.77868,-4.52224 27.13632,-3.68481 59.80694,-5.24854 46.53194,-0.84083 61.12723,0.37876 61.12723,0.37876 z"
                           style="fill:#41ff00;fill-opacity:1;stroke:#000000;stroke-width:0;stroke-linecap:butt;stroke-linejoin:miter;stroke-miterlimit:4;stroke-dasharray:none;stroke-opacity:1" />
                      </g>
                    </g>
                  </g>
                </g>
                <g
                   id="g3848"
                   transform="matrix(0.94101488,0,0,0.91818167,-1155.6192,130.61517)">
                  <g
                     style="fill:#000000;fill-opacity:1"
                     transform="matrix(1.7692489,0.00314088,0.05761506,3.5445681,-563.12981,-1800.2196)"
                     id="g3850">
                    <g
                       transform="translate(49.473806,-51.347678)"
                       id="g3852"
                       style="fill:#000000;fill-opacity:1">
                      <path
                         style="fill:#000000;fill-opacity:1;stroke:#000000;stroke-width:0;stroke-miterlimit:4;stroke-dasharray:none;stroke-opacity:1"
                         d="m 631.58015,369.11853 c -48.86767,19.25166 12.96134,-22.68952 14.49825,-6.0641 0.62147,6.72275 -2.19326,-82.16245 -2.58923,-81.79505 -268.85691,-24.61237 282.00082,-37.86188 8.77689,-0.3524 0.12537,30.85108 2.52005,79.10026 3.78172,79.10179 34.90241,-4.92246 56.82186,29.83456 8.45361,4.48698 65.61127,19.62051 -6.25151,64.64467 -14.30329,5.1577 -5.94339,54.21684 -71.75075,23.16396 -18.61795,-0.53506 z"
                         id="path3854"
                         inkscape:connector-curvature="0"
                         sodipodi:nodetypes="csccccccc" />
                      <path
                         style="fill:#35ff00;fill-opacity:1;stroke:#000000;stroke-width:0;stroke-linecap:butt;stroke-linejoin:miter;stroke-miterlimit:4;stroke-dasharray:none;stroke-opacity:1"
                         d="m 708.83938,261.55345 c 30.25995,15.88969 -145.38255,16.17613 -120.93417,4.86978 9.77868,-4.52224 27.13632,-3.68481 59.80694,-5.24854 46.53194,-0.84083 61.12723,0.37876 61.12723,0.37876 z"
                         id="path3856"
                         inkscape:connector-curvature="0"
                         sodipodi:nodetypes="sscs" />
                    </g>
                  </g>
                </g>
              </g>
            </g>
          </g>
        </g>
      </g>
    </g>
  </g>
</svg>
