<?xml version="1.0" encoding="UTF-8" standalone="no"?>
<!-- Created with Inkscape (http://www.inkscape.org/) -->

<svg
   xmlns:dc="http://purl.org/dc/elements/1.1/"
   xmlns:cc="http://creativecommons.org/ns#"
   xmlns:rdf="http://www.w3.org/1999/02/22-rdf-syntax-ns#"
   xmlns:svg="http://www.w3.org/2000/svg"
   xmlns="http://www.w3.org/2000/svg"
   xmlns:sodipodi="http://sodipodi.sourceforge.net/DTD/sodipodi-0.dtd"
   xmlns:inkscape="http://www.inkscape.org/namespaces/inkscape"
   id="svg3650"
   sodipodi:docname="digohweli-Book-by-Merlin2525.svg"
   viewBox="0 0 154.35 88.553"
   version="1.1"
   inkscape:version="0.92.1 r15371"
   width="164.64"
   height="94.456535">
  <defs
     id="defs3652">
    <linearGradient
       id="linearGradient3622"
       y2="436.56"
       gradientUnits="userSpaceOnUse"
       x2="316.14999"
       y1="447.67001"
       x1="273.73001"
       inkscape:collect="always">
      <stop
         id="stop3980"
         style="stop-color:#800000"
         offset="0" />
      <stop
         id="stop3986"
         style="stop-color:#d40000"
         offset=".28947" />
      <stop
         id="stop3982"
         style="stop-color:#550000"
         offset="1" />
    </linearGradient>
    <linearGradient
       id="linearGradient3624"
       y2="434.54001"
       gradientUnits="userSpaceOnUse"
       x2="373.72"
       y1="445.64999"
       x1="344.76999"
       inkscape:collect="always">
      <stop
         id="stop3972"
         style="stop-color:#550000"
         offset="0" />
      <stop
         id="stop3974"
         style="stop-color:#800000;stop-opacity:0"
         offset="1" />
    </linearGradient>
  </defs>
  <sodipodi:namedview
     id="base"
     fit-margin-left="0"
     inkscape:showpageshadow="false"
     inkscape:zoom="2.8842973"
     borderopacity="1.0"
     inkscape:current-layer="layer1"
     inkscape:cx="72.964014"
     inkscape:cy="42.420139"
     inkscape:window-maximized="1"
     showgrid="false"
     fit-margin-right="0"
     inkscape:document-units="px"
     bordercolor="#666666"
     inkscape:window-x="0"
     inkscape:window-y="24"
     fit-margin-bottom="0"
     inkscape:window-width="1680"
     inkscape:pageopacity="0.0"
     inkscape:pageshadow="2"
     pagecolor="#ffffff"
     inkscape:window-height="972"
     showborder="false"
     fit-margin-top="0" />
  <g
     id="layer1"
     inkscape:label="Layer 1"
     inkscape:groupmode="layer"
     transform="translate(-310.93,-440.14)">
    <g
       id="g3613"
       transform="translate(43.44,51.715)">
      <path
         id="path3388"
         d="m 267.73,413.22 4.4238,-4.4238 c 16.285,-1.0374 32.569,-1.7348 48.854,5.7701 3.7576,1.9178 4.6476,-0.46565 6.5395,-1.3464 18.351,-17.716 43.074,-18.331 65.175,-24.796 l 29.071,74.419 -1.3464,1.5387 -28.792,-69.626 c -22.214,2.3055 -44.17,5.2568 -62.953,21.734 1.5074,2.05 -4.2372,3.2489 -8.4629,1.9234 -17.237,-6.2553 -34.256,-10.1 -52.508,-5.1931 z"
         sodipodi:nodetypes="ccccccccccc"
         style="fill:#cccccc"
         inkscape:connector-curvature="0" />
      <path
         id="path3380"
         d="m 329.11,416.72 25.387,54.345 c 20.808,-6.9813 42.019,-11.945 65.184,-7.1434 l -28.096,-69.557 c -22.882,1.1517 -44.058,7.6584 -62.475,22.355 z"
         sodipodi:nodetypes="ccccc"
         style="fill:#aa0000;stroke:#000000;stroke-width:1px"
         inkscape:connector-curvature="0" />
      <path
         id="path3382"
         sodipodi:nodetypes="ccccc"
         style="fill:url(#linearGradient3622);stroke:#000000;stroke-width:1px"
         inkscape:connector-curvature="0"
         d="m 346.23,474.8 -25.543,-56.455 c 0,0 -34.303,-12.505 -52.695,-4.5204 l 10.118,62.65 c 18.729,-13.425 50.556,-7.4651 68.12,-1.675 z" />
      <path
         id="path3384"
         d="m 321.48,418.87 c 4.3581,1.3252 7.8311,-0.59143 9.2232,-2.2322 l 23.759,54.928 c -0.22435,4.2502 -6.7626,5.0826 -7.9613,3.0329 z"
         sodipodi:nodetypes="ccccc"
         style="fill:#800000;stroke:#000000;stroke-width:1px"
         inkscape:connector-curvature="0" />
      <path
         id="path3176"
         d="m 330.96,415.94 23.568,54.623 c 8.7384,-2.8938 17.701,-5.7315 29.965,-7.7438 l -24.933,-62.03 c -9.6871,2.9565 -20.38,8.5896 -28.6,15.151 z"
         sodipodi:nodetypes="ccccc"
         style="fill:url(#linearGradient3624)"
         inkscape:connector-curvature="0" />
      <path
         id="path3988"
         d="m 270.58,410.86 c 32.026,-3.0651 41.008,2.9294 50.614,6.0444 -0.15889,2.2297 8.934,1.3395 6.3484,-0.29002 13.401,-10.425 30.744,-20.951 64.597,-24.32 l 29.42,71.602"
         sodipodi:nodetypes="ccccc"
         style="fill:none;stroke:#666666;stroke-width:0.2"
         inkscape:connector-curvature="0" />
      <path
         id="path3990"
         sodipodi:nodetypes="ccccc"
         style="fill:none;stroke:#808080;stroke-width:0.2"
         inkscape:connector-curvature="0"
         d="m 270.76,409.8 c 32.026,-3.0651 41.509,2.7701 51.115,5.8852 -0.42045,3.2414 6.4563,2.2264 4.5497,0.37225 12.446,-11.7 33.077,-20.499 65.894,-26.018 l 29.42,72.796" />
    </g>
  </g>
  <metadata
     id="metadata20">
    <rdf:RDF>
      <cc:Work>
        <dc:format>image/svg+xml</dc:format>
        <dc:type
           rdf:resource="http://purl.org/dc/dcmitype/StillImage" />
        <cc:license
           rdf:resource="http://creativecommons.org/licenses/publicdomain/" />
        <dc:publisher>
          <cc:Agent
             rdf:about="http://openclipart.org/">
            <dc:title>Openclipart</dc:title>
          </cc:Agent>
        </dc:publisher>
        <dc:title>Book</dc:title>
        <dc:date>2011-02-01T11:15:07</dc:date>
        <dc:description>An Open Book drawn with Inkscape.</dc:description>
        <dc:source>https://openclipart.org/detail/116761/book-by-merlin2525</dc:source>
        <dc:creator>
          <cc:Agent>
            <dc:title>Merlin2525</dc:title>
          </cc:Agent>
        </dc:creator>
        <dc:subject>
          <rdf:Bag>
            <rdf:li>3d</rdf:li>
            <rdf:li>Book</rdf:li>
            <rdf:li>Open</rdf:li>
          </rdf:Bag>
        </dc:subject>
      </cc:Work>
      <cc:License
         rdf:about="http://creativecommons.org/licenses/publicdomain/">
        <cc:permits
           rdf:resource="http://creativecommons.org/ns#Reproduction" />
        <cc:permits
           rdf:resource="http://creativecommons.org/ns#Distribution" />
        <cc:permits
           rdf:resource="http://creativecommons.org/ns#DerivativeWorks" />
      </cc:License>
    </rdf:RDF>
  </metadata>
</svg>
