<?xml version="1.0" encoding="UTF-8" standalone="no"?>
<!-- Created with Inkscape (http://www.inkscape.org/) -->

<svg
   xmlns:dc="http://purl.org/dc/elements/1.1/"
   xmlns:cc="http://creativecommons.org/ns#"
   xmlns:rdf="http://www.w3.org/1999/02/22-rdf-syntax-ns#"
   xmlns:svg="http://www.w3.org/2000/svg"
   xmlns="http://www.w3.org/2000/svg"
   xmlns:sodipodi="http://sodipodi.sourceforge.net/DTD/sodipodi-0.dtd"
   xmlns:inkscape="http://www.inkscape.org/namespaces/inkscape"
   id="svg3750"
   sodipodi:docname="doing-jcartier-Washing-machine.svg"
   viewBox="0 0 21 31"
   sodipodi:version="0.32"
   version="1.0"
   inkscape:output_extension="org.inkscape.output.svg.inkscape"
   inkscape:version="0.92.1 r15371"
   width="22.4"
   height="33.066666">
  <defs
     id="defs17" />
  <sodipodi:namedview
     id="base"
     bordercolor="#666666"
     inkscape:pageshadow="2"
     inkscape:window-y="24"
     pagecolor="#ffffff"
     inkscape:window-height="629"
     inkscape:zoom="0.35"
     inkscape:window-x="0"
     borderopacity="1.0"
     inkscape:current-layer="layer1"
     inkscape:cx="375"
     inkscape:cy="520"
     inkscape:window-width="910"
     inkscape:pageopacity="0.0"
     inkscape:document-units="px"
     showgrid="false" />
  <g
     id="layer1"
     inkscape:label="Calque 1"
     inkscape:groupmode="layer"
     transform="translate(-72.357,-248.29)">
    <g
       id="g27569"
       transform="translate(-186.14,-204.57)">
      <path
         id="path24592"
         d="m 259,458.36 v 20 c 0,1 10,6 10,5 v -20 c 0,-1 -10,-6 -10,-5 z"
         style="fill:#edd400;fill-rule:evenodd"
         sodipodi:nodetypes="czzzz"
         inkscape:connector-curvature="0" />
      <path
         id="path24594"
         d="m 269,463.36 c 0,-1 10,-6 10,-5 v 20 c 0,1 -10,6 -10,5 z"
         style="fill:#fce94f;fill-rule:evenodd"
         sodipodi:nodetypes="czzzz"
         inkscape:connector-curvature="0" />
      <path
         id="path24596"
         d="m 259,458.36 c 0,-1 9,-5 10,-5 1,0 10,4 10,5 0,1 -9,5 -10,5 -1,0 -10,-4 -10,-5 z"
         style="fill:#c4a000;fill-rule:evenodd"
         sodipodi:nodetypes="czzzz"
         inkscape:connector-curvature="0" />
      <circle
         id="path24598"
         style="fill:#c4a000;stroke:#000000;stroke-width:1.13849998"
         transform="matrix(0.76217,0,-0.10311,1.0122,232.97,200.75)"
         cx="90"
         cy="267.36218"
         r="5" />
      <circle
         id="path24600"
         style="fill:#c4a000;stroke:#000000;stroke-width:1.13849998"
         transform="matrix(0.62258,0,-0.084228,0.9024,240.02,229.78)"
         cx="90"
         cy="267.36218"
         r="5" />
      <circle
         id="path24602"
         style="fill:#d3d7cf;stroke:#000000;stroke-width:0.53543001"
         transform="matrix(0.8532,0,0,1.0221,206.73,194.68)"
         cx="76.5"
         cy="263.86218"
         r="1.5" />
      <circle
         id="path24604"
         style="fill:#d3d7cf;stroke:#000000;stroke-width:0.88562"
         transform="matrix(0.51584,0,0,0.61793,235.15,300.34)"
         cx="76.5"
         cy="263.86218"
         r="1.5" />
      <circle
         id="path24606"
         style="fill:#d3d7cf;stroke:#000000;stroke-width:0.88562"
         transform="matrix(0.51584,0,0,0.61793,237.26,299.03)"
         cx="76.5"
         cy="263.86218"
         r="1.5" />
      <path
         id="path26580"
         style="color:#000000;fill:none;stroke:#000000;stroke-width:1px"
         d="m 259,458.36 v 20 c 0,1 9,5 10,5 1,0 10,-4 10,-5 v -20 c 0,-1 -9,-5 -10,-5 -1,0 -10,4 -10,5 z"
         sodipodi:nodetypes="czzzzzz"
         inkscape:connector-curvature="0" />
    </g>
  </g>
  <metadata
     id="metadata14">
    <rdf:RDF>
      <cc:Work>
        <dc:format>image/svg+xml</dc:format>
        <dc:type
           rdf:resource="http://purl.org/dc/dcmitype/StillImage" />
        <cc:license
           rdf:resource="http://creativecommons.org/licenses/publicdomain/" />
        <dc:publisher>
          <cc:Agent
             rdf:about="http://openclipart.org/">
            <dc:title>Openclipart</dc:title>
          </cc:Agent>
        </dc:publisher>
        <dc:title>Washing machine</dc:title>
        <dc:date>2008-05-12T20:49:20</dc:date>
        <dc:description />
        <dc:source>https://openclipart.org/detail/16719/washing-machine-by-jcartier</dc:source>
        <dc:creator>
          <cc:Agent>
            <dc:title>jcartier</dc:title>
          </cc:Agent>
        </dc:creator>
        <dc:subject>
          <rdf:Bag>
            <rdf:li>appliance</rdf:li>
            <rdf:li>lave linge</rdf:li>
            <rdf:li>washing machine</rdf:li>
          </rdf:Bag>
        </dc:subject>
      </cc:Work>
      <cc:License
         rdf:about="http://creativecommons.org/licenses/publicdomain/">
        <cc:permits
           rdf:resource="http://creativecommons.org/ns#Reproduction" />
        <cc:permits
           rdf:resource="http://creativecommons.org/ns#Distribution" />
        <cc:permits
           rdf:resource="http://creativecommons.org/ns#DerivativeWorks" />
      </cc:License>
    </rdf:RDF>
  </metadata>
</svg>
