<?xml version="1.0" encoding="UTF-8" standalone="no"?>
<!-- Created with Inkscape (http://www.inkscape.org/) -->

<svg
   xmlns:dc="http://purl.org/dc/elements/1.1/"
   xmlns:cc="http://creativecommons.org/ns#"
   xmlns:rdf="http://www.w3.org/1999/02/22-rdf-syntax-ns#"
   xmlns:svg="http://www.w3.org/2000/svg"
   xmlns="http://www.w3.org/2000/svg"
   xmlns:sodipodi="http://sodipodi.sourceforge.net/DTD/sodipodi-0.dtd"
   xmlns:inkscape="http://www.inkscape.org/namespaces/inkscape"
   width="210mm"
   height="297mm"
   viewBox="0 0 744.09448819 1052.3622047"
   id="svg4156"
   version="1.1"
   inkscape:version="0.91 r13725"
   sodipodi:docname="Saját_evőeszközök.svg">
  <defs
     id="defs4158" />
  <sodipodi:namedview
     id="base"
     pagecolor="#ffffff"
     bordercolor="#666666"
     borderopacity="1.0"
     inkscape:pageopacity="0.0"
     inkscape:pageshadow="2"
     inkscape:zoom="0.47037037"
     inkscape:cx="358.71961"
     inkscape:cy="790.34551"
     inkscape:document-units="px"
     inkscape:current-layer="layer1"
     showgrid="false"
     showguides="true"
     inkscape:guide-bbox="true"
     inkscape:window-width="1360"
     inkscape:window-height="706"
     inkscape:window-x="-8"
     inkscape:window-y="-8"
     inkscape:window-maximized="1" />
  <metadata
     id="metadata4161">
    <rdf:RDF>
      <cc:Work
         rdf:about="">
        <dc:format>image/svg+xml</dc:format>
        <dc:type
           rdf:resource="http://purl.org/dc/dcmitype/StillImage" />
        <dc:title></dc:title>
      </cc:Work>
    </rdf:RDF>
  </metadata>
  <g
     inkscape:label="1. réteg"
     inkscape:groupmode="layer"
     id="layer1">
    <path
       style="fill:#000000;stroke:none;stroke-width:5;stroke-linecap:round;stroke-linejoin:round;stroke-miterlimit:4;stroke-dasharray:none;stroke-opacity:1"
       d="M 596.58984 238.00781 A 29.735664 38.186854 0 0 0 566.85547 276.19531 A 29.735664 38.186854 0 0 0 594.45898 314.24414 L 594.45898 403.20117 C 594.45898 404.47966 594.55044 405.68339 594.71094 406.75781 C 591.23584 407.68539 588.69141 410.84374 588.69141 414.61914 L 588.69141 569.86914 C 588.69141 574.37769 592.31963 578.00781 596.82812 578.00781 C 601.33673 578.00781 604.9668 574.37769 604.9668 569.86914 L 604.9668 414.61914 C 604.9668 410.93769 602.54572 407.8419 599.20312 406.83008 C 599.37032 405.73757 599.4668 404.50858 599.4668 403.20117 L 599.4668 314.16602 A 29.735664 38.186854 0 0 0 626.32617 276.19531 A 29.735664 38.186854 0 0 0 596.58984 238.00781 z M 546.49609 238.0625 C 546.08649 238.0625 545.70048 238.38593 545.35938 238.94531 C 544.03998 238.77713 542.40641 239.38957 540.63281 240.87109 L 536.38281 244.42188 C 531.98031 248.09918 528.4375 255.67783 528.4375 261.41406 L 528.4375 394.72461 C 528.4375 400.46084 531.98031 402.11871 536.38281 398.44141 L 540.63281 394.89062 C 541.82921 393.89128 542.96086 392.60286 543.97656 391.14258 L 543.97656 402.35938 C 543.97656 403.69808 544.07795 404.95694 544.25195 406.07031 C 541.10495 407.20889 538.86719 410.21621 538.86719 413.76562 L 538.86719 569.87891 C 538.86719 574.41251 542.51718 578.0625 547.05078 578.0625 C 551.58438 578.0625 555.23438 574.41251 555.23438 569.87891 L 555.23438 413.76562 C 555.23438 409.82765 552.47996 406.55716 548.78516 405.76562 C 548.93096 404.7285 549.01367 403.5779 549.01367 402.35938 L 549.01367 246.24609 C 549.01367 241.71251 547.89099 238.0625 546.49609 238.0625 z M 148.88477 239.12695 C 147.48723 239.12695 146.36133 240.62193 146.36133 242.47852 L 146.36133 306.4082 C 146.36133 307.54977 146.78888 308.55363 147.44141 309.1582 L 147.44141 309.37695 C 147.44141 310.15605 148.06856 310.7832 148.84766 310.7832 L 160.59961 310.7832 L 160.59961 403.72852 C 160.59961 404.76328 160.66084 405.74811 160.76758 406.6582 C 157.36187 407.6539 154.88672 410.78745 154.88672 414.52344 L 154.88672 570.92773 C 154.88672 575.46973 158.54394 579.12695 163.08594 579.12695 C 167.62795 579.12695 171.2832 575.46973 171.2832 570.92773 L 171.2832 414.52344 C 171.2832 410.81366 168.84532 407.6962 165.47656 406.67773 C 165.58477 405.76211 165.64648 404.77091 165.64648 403.72852 L 165.64648 310.7832 L 175.67578 310.7832 C 176.07667 310.7832 176.43374 310.615 176.68945 310.34766 C 176.71555 310.34866 176.74118 310.35352 176.76758 310.35352 C 178.16513 310.35352 179.29102 308.85854 179.29102 307.00195 L 179.29102 243.07031 C 179.29102 241.21373 178.16513 239.71875 176.76758 239.71875 C 175.37004 239.71875 174.24609 241.21373 174.24609 243.07031 L 174.24609 303.21484 L 165.64648 303.21484 L 165.64648 247.32422 C 165.64648 242.78222 164.52059 239.12695 163.12305 239.12695 C 161.72551 239.12695 160.59961 242.78222 160.59961 247.32422 L 160.59961 303.21484 L 151.40625 303.21484 L 151.40625 242.47656 C 151.40625 240.61997 150.28231 239.12695 148.88477 239.12695 z M 354.48047 266.75586 A 158.38603 158.38603 0 0 0 196.09375 425.14062 A 158.38603 158.38603 0 0 0 354.48047 583.52734 A 158.38603 158.38603 0 0 0 512.86719 425.14062 A 158.38603 158.38603 0 0 0 354.48047 266.75586 z M 353.22852 315.58594 A 108.30349 108.30349 0 0 1 461.53125 423.89062 A 108.30349 108.30349 0 0 1 353.22852 532.19336 A 108.30349 108.30349 0 0 1 244.92578 423.89062 A 108.30349 108.30349 0 0 1 353.22852 315.58594 z M 352.60156 320.59375 A 102.66921 102.66921 0 0 0 249.93359 423.26367 A 102.66921 102.66921 0 0 0 352.60156 525.93359 A 102.66921 102.66921 0 0 0 455.27148 423.26367 A 102.66921 102.66921 0 0 0 352.60156 320.59375 z "
       id="path4717" />
  </g>
</svg>
