<?xml version="1.0" encoding="UTF-8" standalone="no"?>
<!-- Created with Inkscape (http://www.inkscape.org/) -->

<svg
   xmlns:dc="http://purl.org/dc/elements/1.1/"
   xmlns:cc="http://creativecommons.org/ns#"
   xmlns:rdf="http://www.w3.org/1999/02/22-rdf-syntax-ns#"
   xmlns:svg="http://www.w3.org/2000/svg"
   xmlns="http://www.w3.org/2000/svg"
   xmlns:sodipodi="http://sodipodi.sourceforge.net/DTD/sodipodi-0.dtd"
   xmlns:inkscape="http://www.inkscape.org/namespaces/inkscape"
   id="svg2985"
   sodipodi:docname="gasgilo-light-brown-chair.svg"
   viewBox="0 0 640.46 951.56"
   version="1.1"
   inkscape:version="0.92.1 r15371"
   width="683.15735"
   height="1014.9973">
  <defs
     id="defs3">
    <radialGradient
       id="radialGradient4456"
       gradientUnits="userSpaceOnUse"
       cy="824.07001"
       cx="359.60999"
       gradientTransform="matrix(1,0,0,0.6087,0,322.46)"
       r="278.79999"
       inkscape:collect="always">
      <stop
         id="stop4452"
         style="stop-color:#28170b"
         offset="0" />
      <stop
         id="stop4454"
         style="stop-color:#28170b;stop-opacity:0"
         offset="1" />
    </radialGradient>
    <linearGradient
       id="linearGradient4554"
       y2="563.08002"
       gradientUnits="userSpaceOnUse"
       x2="247.14"
       y1="578.08002"
       x1="240.71001"
       inkscape:collect="always">
      <stop
         id="stop4415"
         style="stop-color:#ffffff"
         offset="0" />
      <stop
         id="stop4417"
         style="stop-color:#ffffff;stop-opacity:0"
         offset="1" />
    </linearGradient>
    <linearGradient
       id="linearGradient4557"
       y2="349.51001"
       gradientUnits="userSpaceOnUse"
       x2="1362.9"
       gradientTransform="matrix(1.0038,0,0,1.0061,-1001.7,149.63)"
       y1="322.35999"
       x1="1598.6"
       inkscape:collect="always">
      <stop
         id="stop4329"
         style="stop-color:#ffffff"
         offset="0" />
      <stop
         id="stop4331"
         style="stop-color:#ffffff;stop-opacity:0"
         offset="1" />
    </linearGradient>
    <linearGradient
       id="linearGradient4560"
       y2="775.58002"
       gradientUnits="userSpaceOnUse"
       x2="-1436.4"
       gradientTransform="translate(1696.7,-308.31)"
       y1="860.42999"
       x1="-1491"
       inkscape:collect="always">
      <stop
         id="stop3038"
         style="stop-color:#808080"
         offset="0" />
      <stop
         id="stop3040"
         style="stop-color:#808080;stop-opacity:0"
         offset="1" />
    </linearGradient>
    <linearGradient
       id="linearGradient4564"
       y2="558.08002"
       gradientUnits="userSpaceOnUse"
       x2="432.85999"
       y1="583.08002"
       x1="436.42999"
       inkscape:collect="always">
      <stop
         id="stop4375"
         style="stop-color:#ffffff"
         offset="0" />
      <stop
         id="stop4377"
         style="stop-color:#ffffff;stop-opacity:0"
         offset="1" />
    </linearGradient>
    <linearGradient
       id="linearGradient4569"
       y2="318.98999"
       gradientUnits="userSpaceOnUse"
       x2="279.81"
       gradientTransform="matrix(0.97458,0,0,1,4.9454,0)"
       y1="279.60001"
       x1="274.76001"
       inkscape:collect="always">
      <stop
         id="stop4185"
         style="stop-color:#ffffff"
         offset="0" />
      <stop
         id="stop4187"
         style="stop-color:#ffffff;stop-opacity:0"
         offset="1" />
    </linearGradient>
    <linearGradient
       id="linearGradient4572"
       y2="238.17999"
       gradientUnits="userSpaceOnUse"
       x2="270.72"
       gradientTransform="matrix(0.97135,0,0,1,6.9936,0)"
       y1="76.555"
       x1="255.57001"
       inkscape:collect="always">
      <stop
         id="stop4177"
         style="stop-color:#ffffff"
         offset="0" />
      <stop
         id="stop4179"
         style="stop-color:#ffffff;stop-opacity:0"
         offset="1" />
    </linearGradient>
    <linearGradient
       id="linearGradient4575"
       y2="690.72998"
       gradientUnits="userSpaceOnUse"
       x2="538.40997"
       y1="687.70001"
       x1="574.78003"
       inkscape:collect="always">
      <stop
         id="stop4169"
         style="stop-color:#ffffff"
         offset="0" />
      <stop
         id="stop4171"
         style="stop-color:#ffffff;stop-opacity:0"
         offset="1" />
    </linearGradient>
    <linearGradient
       id="linearGradient4578"
       y2="742.25"
       gradientUnits="userSpaceOnUse"
       x2="306.07999"
       y1="742.25"
       x1="269.70999"
       inkscape:collect="always">
      <stop
         id="stop4161"
         style="stop-color:#ffffff"
         offset="0" />
      <stop
         id="stop4163"
         style="stop-color:#ffffff;stop-opacity:0"
         offset="1" />
    </linearGradient>
    <linearGradient
       id="linearGradient4581"
       y2="449.29999"
       gradientUnits="userSpaceOnUse"
       x2="391.94"
       y1="445.26001"
       x1="446.48999"
       inkscape:collect="always">
      <stop
         id="stop4153"
         style="stop-color:#ffffff"
         offset="0" />
      <stop
         id="stop4155"
         style="stop-color:#ffffff;stop-opacity:0"
         offset="1" />
    </linearGradient>
    <linearGradient
       id="linearGradient4584"
       y2="473.54001"
       gradientUnits="userSpaceOnUse"
       x2="182.84"
       y1="102.71"
       x1="100.61"
       inkscape:collect="always">
      <stop
         id="stop4145"
         style="stop-color:#ffffff"
         offset="0" />
      <stop
         id="stop4147"
         style="stop-color:#ffffff;stop-opacity:0"
         offset="1" />
    </linearGradient>
  </defs>
  <sodipodi:namedview
     id="base"
     bordercolor="#666666"
     inkscape:pageshadow="2"
     inkscape:window-y="0"
     pagecolor="#ffffff"
     inkscape:window-maximized="0"
     inkscape:zoom="0.49497475"
     inkscape:window-x="0"
     inkscape:window-height="645"
     showgrid="false"
     borderopacity="1.0"
     inkscape:current-layer="layer1"
     inkscape:cx="-136.80322"
     inkscape:cy="529.19569"
     inkscape:window-width="674"
     inkscape:pageopacity="0.0"
     inkscape:document-units="mm" />
  <g
     id="layer1"
     inkscape:label="Layer 1"
     inkscape:groupmode="layer"
     transform="translate(-38.39,-80.595)">
    <g
       id="g4598">
      <ellipse
         id="path4448"
         style="fill:url(#radialGradient4456)"
         transform="matrix(1.1486,0,0,1.3869,-54.431,-346.11)"
         cx="359.61432"
         cy="824.06769"
         rx="278.80209"
         ry="169.70563" />
      <path
         id="path3012-3"
         d="m 156.83,274.78 c 78.541,-0.658 156.65,-5.6123 233.85,-19.698 l 3.0305,-145.97 c -90.744,-0.17533 -180.95,-3.8756 -274.26,12.627 z"
         sodipodi:nodetypes="ccccc"
         style="fill:#28170b"
         inkscape:connector-curvature="0" />
      <path
         id="path3010-7"
         d="m 178.54,349.55 c 70.398,-11.051 142.07,-18.916 215.16,-23.234 l 1.5152,-33.84 c -74.92,10.324 -149.84,18.119 -224.76,21.718 z"
         sodipodi:nodetypes="ccccc"
         style="fill:#28170b"
         inkscape:connector-curvature="0" />
      <path
         id="path3002-2"
         d="m 109.85,106.86 c 59.079,228.29 108.93,456.59 64.65,684.88 l 20.203,2.0203 c 47.56,-233.34 -3.53,-464.29 -64.65,-694.98 z"
         sodipodi:nodetypes="ccccc"
         style="fill:#28170b"
         inkscape:connector-curvature="0" />
      <path
         id="path3004-5"
         d="m 380.1,83.626 c -7.285,221.56 -8.5761,443.12 16.162,664.68 h 28.284 c -25.83,-217.71 -26.42,-439.62 -20.19,-662.66 z"
         sodipodi:nodetypes="ccccc"
         style="fill:#28170b"
         inkscape:connector-curvature="0" />
      <path
         id="path3006-8"
         d="m 288.4,550.32 c 7.5407,118.52 14.362,237.05 6.0609,355.57 l 31.315,4.0406 -3.0305,-363.65 z"
         sodipodi:nodetypes="ccccc"
         style="fill:#28170b"
         inkscape:connector-curvature="0" />
      <path
         id="path3008-7"
         d="m 513.76,523.04 c -1.6002,109.64 7.2351,220.7 20.203,325.27 h 31.315 C 534.638,705.33 542.088,614.3 539.008,508.9 Z"
         sodipodi:nodetypes="ccccc"
         style="fill:#28170b"
         inkscape:connector-curvature="0" />
      <path
         id="path3002"
         d="m 96.975,104.84 c 59.075,228.29 108.92,456.59 64.645,684.88 l 20.203,2.0203 c 47.57,-233.34 -3.52,-464.29 -64.64,-694.98 z"
         sodipodi:nodetypes="ccccc"
         style="fill:#552200"
         inkscape:connector-curvature="0" />
      <path
         id="path3004"
         d="m 389.92,80.595 c -7.29,221.56 -8.58,443.12 16.16,664.68 h 28.284 c -25.84,-217.71 -26.43,-439.62 -20.2,-662.66 z"
         sodipodi:nodetypes="ccccc"
         style="fill:#552200"
         inkscape:connector-curvature="0" />
      <path
         id="path3006"
         d="m 278.8,549.31 c 7.5407,118.52 14.362,237.05 6.0609,355.57 l 31.315,4.0406 -3.0305,-363.65 z"
         sodipodi:nodetypes="ccccc"
         style="fill:#552200"
         inkscape:connector-curvature="0" />
      <path
         id="path3008"
         d="m 524.27,521.02 c -1.6003,109.64 7.235,220.7 20.203,325.27 h 31.315 c -30.63,-142.98 -23.18,-234.01 -26.26,-339.41 z"
         sodipodi:nodetypes="ccccc"
         style="fill:#552200"
         inkscape:connector-curvature="0" />
      <path
         id="path3010"
         d="m 172.23,339.19 c 70.398,-11.051 142.07,-18.916 215.16,-23.234 l 1.5152,-33.84 c -74.92,10.324 -149.84,18.119 -224.76,21.718 z"
         sodipodi:nodetypes="ccccc"
         style="fill:#552200"
         inkscape:connector-curvature="0" />
      <path
         id="path3012"
         d="m 156.07,262.42 c 78.541,-0.65796 156.65,-5.6123 233.85,-19.698 l 3.03,-145.96 C 302.21,96.587 212,92.886 118.69,109.382 Z"
         sodipodi:nodetypes="ccccc"
         style="fill:#552200"
         inkscape:connector-curvature="0" />
      <path
         id="path3002-3"
         d="m 97.726,104.84 c 59.084,228.29 108.92,456.59 64.654,684.88 l 20.203,2.0203 c 47.56,-233.34 -3.53,-464.29 -64.65,-694.98 z"
         sodipodi:nodetypes="ccccc"
         style="fill:url(#linearGradient4584)"
         inkscape:connector-curvature="0" />
      <path
         id="path3004-3"
         d="m 390.2,81.606 c -7.285,221.56 -8.5761,443.12 16.162,664.68 h 28.284 c -25.83,-217.71 -26.42,-439.62 -20.19,-662.66 z"
         sodipodi:nodetypes="ccccc"
         style="fill:url(#linearGradient4581)"
         inkscape:connector-curvature="0" />
      <path
         id="path3006-9"
         d="m 278.3,551.33 c 7.5407,118.52 14.362,237.05 6.0609,355.57 l 31.315,4.0406 -3.0305,-363.65 z"
         sodipodi:nodetypes="ccccc"
         style="fill:url(#linearGradient4578)"
         inkscape:connector-curvature="0" />
      <path
         id="path3008-0"
         d="m 523.86,523.04 c -1.6003,109.64 7.235,220.7 20.203,325.27 h 31.315 C 544.738,705.33 552.188,614.3 549.108,508.9 Z"
         sodipodi:nodetypes="ccccc"
         style="fill:url(#linearGradient4575)"
         inkscape:connector-curvature="0" />
      <path
         id="path3012-36"
         d="m 159.33,260.64 c 76.291,-0.65796 152.16,-5.6123 227.15,-19.698 l 2.94,-145.97 c -88.14,-0.171 -175.76,-3.871 -266.4,12.63 z"
         sodipodi:nodetypes="ccccc"
         style="fill:url(#linearGradient4572)"
         inkscape:connector-curvature="0" />
      <path
         id="path3010-9"
         d="m 175.01,339.45 c 68.608,-11.051 138.46,-18.916 209.69,-23.234 l 1.4767,-33.84 c -73.015,10.324 -146.03,18.119 -219.04,21.718 z"
         sodipodi:nodetypes="ccccc"
         style="fill:url(#linearGradient4569)"
         inkscape:connector-curvature="0" />
      <path
         id="path4274"
         d="m 288.57,565.22 1.43,31.43 -90.92,-48.74 -2.1,-28.66 z"
         sodipodi:nodetypes="ccccc"
         style="fill:#28170b"
         inkscape:connector-curvature="0" />
      <path
         id="path4272"
         d="m 288.57,563.79 v 34.286 l 275.71,-45.714 v -30 z"
         style="fill:#784421"
         inkscape:connector-curvature="0" />
      <path
         id="path4272-1"
         d="m 289.29,563.79 v 34.286 L 565,552.356 v -30 z"
         style="fill:url(#linearGradient4564)"
         inkscape:connector-curvature="0" />
      <path
         id="path3016"
         d="m 294.58,566.77 c 89.6,-4.516 178.07,-13.915 263.65,-35.86 15.762,-10.36 19.05,-23.319 2.5254,-40.406 -48.714,-21.094 -99.142,-37.733 -154.55,-41.416 -29.826,1.6297 -64.356,0.74428 -97.968,7.794 -0.8225,0.17252 -1.6742,0.13236 -2.5089,0.19961 -55.944,4.5073 -104.58,12.302 -110.14,39.484 -4.5191,37.686 22.048,49.07 52.505,57.161 0.9836,0.26128 2.0749,0.26448 2.9618,0.7743 14.114,8.1123 29.732,10.825 43.528,12.271 z"
         sodipodi:nodetypes="ccccsscssc"
         style="fill:#502d16"
         inkscape:connector-curvature="0" />
      <path
         id="path3016-4"
         d="m 294.66,568.54 c 89.6,-4.516 178.07,-13.915 263.65,-35.86 15.762,-10.36 19.05,-23.319 2.5254,-40.406 -48.714,-21.094 -99.142,-37.733 -154.55,-41.416 -29.826,1.6297 -64.356,0.74428 -97.968,7.794 -0.8225,0.17252 -1.6742,0.13236 -2.5089,0.19961 -55.944,4.5073 -104.58,12.302 -110.14,39.484 -4.5191,37.686 22.048,49.07 52.505,57.161 0.9836,0.26128 2.0749,0.26448 2.9618,0.7743 14.114,8.1123 29.732,10.825 43.528,12.271 z"
         sodipodi:nodetypes="ccccsscssc"
         style="fill:url(#linearGradient4560)"
         inkscape:connector-curvature="0" />
      <path
         id="path3016-4-6"
         d="m 294.43,566.2 c 89.939,-4.5434 178.75,-13.999 264.65,-36.078 15.822,-10.423 19.122,-23.461 2.535,-40.651 -48.899,-21.222 -99.519,-37.962 -155.14,-41.668 -29.939,1.6396 -64.6,0.7488 -98.339,7.8413 -0.82562,0.17356 -1.6806,0.13316 -2.5184,0.20082 -56.156,4.5346 -104.98,12.376 -110.56,39.723 -4.5362,37.915 22.131,49.367 52.704,57.507 0.98733,0.26286 2.0828,0.26608 2.973,0.779 14.167,8.1616 29.845,10.891 43.693,12.345 z"
         sodipodi:nodetypes="ccccsscssc"
         style="fill:url(#linearGradient4557)"
         inkscape:connector-curvature="0" />
      <path
         id="path4274-3"
         d="m 287.86,565.22 1.4286,31.429 -90.158,-49.242 -4.1273,-27.9 z"
         sodipodi:nodetypes="ccccc"
         style="fill:url(#linearGradient4554)"
         inkscape:connector-curvature="0" />
    </g>
  </g>
  <metadata
     id="metadata66">
    <rdf:RDF>
      <cc:Work>
        <dc:format>image/svg+xml</dc:format>
        <dc:type
           rdf:resource="http://purl.org/dc/dcmitype/StillImage" />
        <cc:license
           rdf:resource="http://creativecommons.org/licenses/publicdomain/" />
        <dc:publisher>
          <cc:Agent
             rdf:about="http://openclipart.org/">
            <dc:title>Openclipart</dc:title>
          </cc:Agent>
        </dc:publisher>
      </cc:Work>
      <cc:License
         rdf:about="http://creativecommons.org/licenses/publicdomain/">
        <cc:permits
           rdf:resource="http://creativecommons.org/ns#Reproduction" />
        <cc:permits
           rdf:resource="http://creativecommons.org/ns#Distribution" />
        <cc:permits
           rdf:resource="http://creativecommons.org/ns#DerivativeWorks" />
      </cc:License>
    </rdf:RDF>
  </metadata>
</svg>
