<?xml version="1.0" encoding="UTF-8" standalone="no"?>
<!-- Created with Inkscape (http://www.inkscape.org/) -->

<svg
   xmlns:dc="http://purl.org/dc/elements/1.1/"
   xmlns:cc="http://creativecommons.org/ns#"
   xmlns:rdf="http://www.w3.org/1999/02/22-rdf-syntax-ns#"
   xmlns:svg="http://www.w3.org/2000/svg"
   xmlns="http://www.w3.org/2000/svg"
   xmlns:sodipodi="http://sodipodi.sourceforge.net/DTD/sodipodi-0.dtd"
   xmlns:inkscape="http://www.inkscape.org/namespaces/inkscape"
   width="210mm"
   height="297mm"
   viewBox="0 0 744.09448819 1052.3622047"
   id="svg6074"
   version="1.1"
   inkscape:version="0.91 r13725"
   sodipodi:docname="psy.svg"
   inkscape:export-filename="C:\Users\admin\Desktop\dawgs\psy.png"
   inkscape:export-xdpi="90"
   inkscape:export-ydpi="90">
  <defs
     id="defs6076">
    <pattern
       id="EMFhbasepattern"
       patternUnits="userSpaceOnUse"
       width="6"
       height="6"
       x="0"
       y="0" />
    <pattern
       id="EMFhbasepattern-1"
       patternUnits="userSpaceOnUse"
       width="6"
       height="6"
       x="0"
       y="0" />
    <pattern
       id="EMFhbasepattern-2"
       patternUnits="userSpaceOnUse"
       width="6"
       height="6"
       x="0"
       y="0" />
    <pattern
       id="EMFhbasepattern-29"
       patternUnits="userSpaceOnUse"
       width="6"
       height="6"
       x="0"
       y="0" />
    <pattern
       id="EMFhbasepattern-5"
       patternUnits="userSpaceOnUse"
       width="6"
       height="6"
       x="0"
       y="0" />
  </defs>
  <sodipodi:namedview
     id="base"
     pagecolor="#ffffff"
     bordercolor="#666666"
     borderopacity="1.0"
     inkscape:pageopacity="0.0"
     inkscape:pageshadow="2"
     inkscape:zoom="0.72065218"
     inkscape:cx="136.13774"
     inkscape:cy="606.4365"
     inkscape:document-units="px"
     inkscape:current-layer="layer1"
     showgrid="false"
     inkscape:window-width="1600"
     inkscape:window-height="838"
     inkscape:window-x="-8"
     inkscape:window-y="-8"
     inkscape:window-maximized="1" />
  <metadata
     id="metadata6079">
    <rdf:RDF>
      <cc:Work
         rdf:about="">
        <dc:format>image/svg+xml</dc:format>
        <dc:type
           rdf:resource="http://purl.org/dc/dcmitype/StillImage" />
        <dc:title></dc:title>
      </cc:Work>
    </rdf:RDF>
  </metadata>
  <g
     inkscape:label="Layer 1"
     inkscape:groupmode="layer"
     id="layer1">
    <g
       id="layer1-8"
       inkscape:label="Layer 1"
       transform="matrix(0.44100031,0,0,0.44100031,219.64216,151.37837)"
       style="fill:#000000">
      <path
         sodipodi:nodetypes="ccccccccccccccc"
         inkscape:connector-curvature="0"
         id="path3347"
         d="m 505.07627,399.29858 c 5.58392,-0.58521 9.95895,1.09589 15.04781,3.02388 3.68934,2.44751 9.64258,3.05499 12.22928,7.02958 4.57117,4.78201 8.22202,10.17724 11.46199,15.55074 7.3762,7.02994 9.71515,18.89594 10.84034,24.69409 1.27778,3.1307 -2.13076,5.88639 -5.7083,5.58806 -12.19201,1.5605 -11.58517,3.40123 -26.52063,-15.86792 -2.3144,-3.04713 -9.11652,13.56412 -13.45681,13.69158 -2.27188,0.39388 -8.20065,5.29137 -7.71849,6.30523 -5.80969,14.02608 -8.71281,13.73037 -14.4986,-1.66036 -1.17732,-6.23516 -0.24621,-12.94846 3.31626,-18.29244 0.71726,-3.65713 -0.23298,-7.93006 2.38749,-11.17302 2.71039,-3.07669 4.00328,-6.60185 4.05448,-10.52928 1.40896,-4.59081 3.90806,-8.74518 5.14334,-13.38977 0.8256,-1.8346 2.2697,-3.33055 3.42184,-4.97037 z"
         style="fill:#000000;fill-rule:evenodd;stroke:none;stroke-width:1px;stroke-linecap:butt;stroke-linejoin:miter;stroke-opacity:1" />
      <path
         sodipodi:nodetypes="ccccccccccccccccccc"
         inkscape:connector-curvature="0"
         id="path3352"
         d="m 511.13719,375.56 c 0,0 -3.53083,11.41573 -4.6741,5.15754 -1.74843,-4.29745 0,0 -4.16473,-7.17784 -2.95133,5.88033 -8.5336,16.40184 -11.17061,22.33053 -4.41159,6.73153 -11.66523,13.26516 -17.87128,18.58065 -9.90741,10.91232 -21.18409,14.35974 -29.95081,26.05958 -4.12231,6.43606 -12.60244,4.06827 -17.97667,9.19511 -5.51614,2.07962 -15.96943,3.97389 -16.24021,11.31022 -1.80242,8.2175 7.27675,11.89172 10.59302,18.44158 4.4499,6.69573 9.89453,12.54251 14.75364,18.95085 3.17517,5.49123 11.65671,3.11444 10.31466,11.21639 0.56,7.0627 4.85815,13.02378 10.65089,16.93169 3.78881,5.29085 13.42875,6.013 16.52698,-0.29628 0,0 6.20724,-4.37766 8.98665,-9.77888 3.01136,-5.89726 8.04086,-16.4063 7.49473,-23.29016 -0.34671,-4.18873 2.37499,-9.11798 2.52479,-13.33273 5.09928,-3.85261 7.20768,-13.7112 9.0497,-19.21206 2.04256,-6.73461 -6.35093,-10.60932 -2.98236,-17.02562 12.25148,-32.28377 18.33745,-37.85777 14.13571,-68.06057 z"
         style="fill:#000000;fill-rule:evenodd;stroke:none;stroke-width:1px;stroke-linecap:butt;stroke-linejoin:miter;stroke-opacity:1" />
      <path
         sodipodi:nodetypes="ccccccccccccccccccccccccccccc"
         inkscape:connector-curvature="0"
         id="path3357"
         d="m 413.15239,457.38236 c -25.31396,4.87362 -43.38032,1.73596 -60.73597,0.50515 -18.77988,-1.69425 -34.82182,-2.98788 -49.36738,12.8324 -3.94778,8.60033 -9.61038,16.31566 -14.94768,24.03492 -2.75366,6.59466 -1.55289,13.91057 -1.56863,20.84134 3.5527,10.02487 5.45962,21.07544 3.84778,31.6652 -1.09402,11.06628 -18.96757,13.8651 -16.11565,25.17016 1.12046,7.54256 0.99396,14.70627 2.36593,22.28878 0.39019,6.78456 2.57975,17.29937 11.73256,14.69 4.06644,-0.10018 8.12613,0.0207 12.12251,0.48961 5.12792,-5.46428 -9.92997,-8.51014 -8.55177,-14.60602 l 0,-19.7237 c 6.06397,-5.36805 11.21214,-11.87081 18.60929,-15.50357 5.56664,-4.82898 13.08307,-6.95316 15.72756,-14.44182 2.22211,-5.883 8.4584,-15.31667 14.38781,-6.92923 6.96535,3.77025 12.71379,9.18382 14.29953,-0.99503 27.06423,-0.5144 50.49517,9.3686 81.9327,6.5549 3.55956,6.96585 -1.04146,14.92513 0.47134,22.36626 -1.15402,8.0252 -6.74222,19.28005 3.00568,23.56024 1.11405,7.06804 2.90884,16.16108 9.71404,19.22928 5.75139,1.12415 18.97178,-0.53745 10.22018,-7.9851 -7.30856,-4.2101 -1.56825,-14.46725 -3.13725,-21.51052 1.35336,-15.00857 7.60982,-28.94301 10.03058,-43.74138 3.91032,-7.1205 5.97994,-20.51339 -0.68927,-26.05249 -6.81454,-6.75719 -12.2136,-14.988 -18.67296,-22.16446 -5.48389,-5.9937 -10.09713,-13.2377 -17.80847,-16.52165 -5.20213,-4.52135 -9.25457,-9.1284 -14.85215,-12.53807 -0.64365,-0.54623 -1.31811,-1.0469 -2.02031,-1.51522 z"
         style="fill:#000000;fill-rule:evenodd;stroke:none;stroke-width:1px;stroke-linecap:butt;stroke-linejoin:miter;stroke-opacity:1" />
      <path
         sodipodi:nodetypes="cccccccc"
         inkscape:connector-curvature="0"
         id="path3360"
         d="m 315.67267,461.42297 c -4.06547,-0.23524 -8.04534,1.02103 -12.05182,1.48644 -27.57682,6.50405 -57.69497,4.7416 -83.00468,0.65902 -1.75835,-0.99469 -6.78314,0.21734 -4.20393,2.30275 25.23028,14.67369 55.48946,8.86355 81.14153,11.23627 3.92603,-0.78898 7.8345,3.29377 11.52691,0.52244 2.63898,-2.84847 7.00638,-4.65806 7.47961,-8.99418 2.60956,-3.06301 -2.44639,-7.33852 0.62761,-9.23305"
         style="fill:#000000;fill-rule:evenodd;stroke:none;stroke-width:1px;stroke-linecap:butt;stroke-linejoin:miter;stroke-opacity:1" />
      <path
         inkscape:connector-curvature="0"
         id="path4166"
         d="m 506.33897,454.09936 c 2.63287,-0.31847 5.15642,0.16234 7.38492,1.50517 2.50458,0.59971 5.0715,0.90174 7.61741,0.49298 2.23051,-0.17552 4.07232,1.26712 6.26214,1.35421 2.10512,0.064 3.81372,1.45037 5.79842,1.77366 2.73061,0.27829 5.49566,0.20671 8.22866,0.11193 2.5817,-0.53907 4.43938,-2.79532 7.09132,-3.13048 3.8391,-1.33556 4.9557,-7.12806 1.89056,-9.80521 -2.02447,-2.12201 -4.17384,-4.15229 -5.86787,-6.55329 -1.7835,-2.02671 -2.80616,-4.90876 -5.50289,-5.96402 -2.78942,-1.4115 -5.82358,-2.25543 -8.92776,-2.58478 -4.36348,-0.74256 -8.83697,-1.40139 -13.24933,-0.65478 -1.75267,1.84765 -4.35979,2.71952 -5.77547,4.91847 -1.67599,1.69653 -3.01439,3.66398 -3.99093,5.83739 -1.12651,2.6328 -2.69928,5.13125 -3.02428,8.03339 -1.02014,1.93997 0.9538,3.11214 1.94914,4.44463 l 0.11596,0.22068 0,5e-5 z"
         style="fill:#000000;fill-rule:evenodd;stroke:none;stroke-width:1px;stroke-linecap:butt;stroke-linejoin:miter;stroke-opacity:1" />
    </g>
    <g
       id="layer1-5"
       inkscape:label="Layer 1"
       transform="matrix(-0.24841497,0,0,0.24841497,278.47254,252.47983)"
       style="fill:#000000">
      <path
         sodipodi:nodetypes="cccccccccccccccccccccccccccccccccccccccccccccccccccc"
         inkscape:connector-curvature="0"
         id="path4839"
         d="m 198.54492,405.83398 c -3.53859,-0.0141 -7.1224,0.12187 -10.59961,0.0312 -9.47846,0.75242 -19.32171,2.3328 -26.125,9.73438 -5.79731,12.13448 -18.10266,7.71489 -33.17187,11.69727 -8.00262,3.91435 -17.6792,2.57468 -22.67188,9.41406 -1.62862,2.85008 6.91797,8.60156 6.91797,8.60156 2.76336,11.35507 18.63135,16.67493 24.59961,15.95703 6.629,0.70868 9.76081,4.41821 16.07813,2.07813 2.00901,0.40231 3.88089,0.91439 5.5332,1.63867 5.77201,1.67987 12.51367,4.00692 17.71289,7.62695 0.29812,5.19542 0.75517,10.31602 0.50195,15.62891 -0.56102,5.4748 -0.75921,13.41805 7.06836,11.10156 3.80465,0.16039 6.69939,-1.865 9.21094,-4.47266 1.65635,4.08072 3.18623,8.3051 5.2793,12.36133 3.84431,8.57498 1.50714,18.77216 2.14062,28.13477 2.5e-4,9.36056 6.3e-4,18.72147 0,28.08203 0.004,10e-4 0.008,0.002 0.0117,0.004 0.27494,10.5943 9.2201,18.92881 15.19922,27.11915 9.41104,8.60606 19.04949,16.9487 29.40234,24.44531 1.30484,0.64895 2.59677,1.3305 3.88281,2.02344 1.15521,3.80483 2.84509,7.45085 3.02344,11.38281 0.13097,4.8332 -0.41131,9.7779 0.58985,14.4375 -0.20962,4.33027 -0.0213,8.67735 -0.0859,13.01562 -3.55007,1.33355 -8.03168,-0.66189 -11.08008,2.3086 -1.53352,3.03248 -4.99898,4.1985 -5.82227,8.16211 -4.28738,4.64461 2.7082,7.5997 6.44532,8.21875 3.82488,-0.19637 6.2809,1.74638 10.67773,1.00781 4.54722,0.5508 8.42748,-0.68574 12.69531,-1.93945 1.74044,-3.95746 7.28015,-6.03525 7.47266,-11 1.57931,-3.89331 5.36612,-6.68729 4.35938,-12.08204 0.72109,-4.20813 -0.64495,-6.41427 -2.54102,-9.59375 -0.63217,-4.26946 -0.25481,-8.46155 -0.0215,-12.75781 0.0695,0.012 0.13734,0.0294 0.20703,0.041 10.4148,5.4816 24.20922,1.72349 30.51757,0.34375 21.44676,-6.80045 37.17078,-9.16725 51.60938,-17.81055 25.72322,-8.14141 58.9152,-6.62246 80.84961,-22.51172 54.01554,-29.6941 93.84276,-10.87593 94.37109,-52.59375 7.07196,4.42882 13.20987,11.10682 17.56836,22.75781 4.85735,19.37006 31.68423,68.69453 61.93946,66.93555 -2.49996,-7.46819 -11.07403,-9.76076 -15.84961,-15.41406 -7.5732,-5.6318 -13.52556,-13.20225 -18.13868,-21.41016 -12.53488,-25.50679 -14.58954,-48.07988 -39.01562,-66.10156 -18.91627,-8.51409 -32.64591,-15.61642 -49.85547,-14.00391 -35.90839,-2.55077 -50.0074,-5.85622 -74.94922,-3.68945 -23.22052,1.71152 -47.57122,2.51362 -67.81836,4.72461 -10.34248,2.45206 -19.73358,-4.07945 -27.81445,-4.7168 -20.15019,-4.42177 -52.28542,-9.39765 -57.51172,-28.74414 -8.89319,-16.81668 -15.28994,-34.16021 -28.15625,-47.34765 1.54324,-4.60372 -1.33141,-10.06025 -3.78906,-14.27539 -3.4504,-2.80423 -14.25391,-5.50196 -14.25391,-5.50196 -4.94153,-2.58608 -10.70536,-3.02529 -16.59375,-3.04883 z"
         style="fill:#000000;fill-rule:evenodd;stroke:none;stroke-width:1px;stroke-linecap:butt;stroke-linejoin:miter;stroke-opacity:1" />
      <path
         sodipodi:nodetypes="cccccccccccccccccccccc"
         inkscape:connector-curvature="0"
         id="path5441"
         d="m 425.71429,580.93363 c 6.85713,1.18474 14.70886,0.19949 20.84001,2.63641 7.72944,-1.48563 16.42017,10.65381 16.42017,10.65381 8.99252,16.39728 23.17481,17.54798 38.5149,26.07348 6.38927,2.78594 4.31779,9.81986 2.9971,15.09734 -1.76459,5.43645 -2.55293,10.62076 -4.81117,15.78975 -12.65987,4.44904 -13.10245,5.36403 -16.89988,17.94068 3.8523,3.93877 11.88635,0.53271 17.27236,2.45473 5.05903,2.00552 10.58327,-1.27837 14.72926,-3.93936 4.70471,-11.18583 3.21782,-21.59224 12.11594,-30.86129 4.64395,-4.29635 6.5283,-10.47083 7.39376,-16.48562 -3.69604,-12.05335 -9.92267,-19.50566 -5.7101,-33.49986 6.76083,-14.22554 7.29054,-23.00593 8.59763,-37.17723 0.79048,-5.92035 -1.53298,-11.39702 -4.95576,-16.10591 -4.63399,-6.24198 -13.57376,-2.09199 -20.21568,-3.29139 -7.40538,0.27236 -15.02935,-0.55449 -22.29689,0.4172 -10.59627,3.61807 -21.11474,7.64784 -30.54024,13.80854 -9.36164,4.18422 -15.57416,13.00786 -19.37286,22.24003 -1.96292,6.64273 -7.58151,9.7537 -13.12379,12.69924 l -0.49463,0.70834 -0.4602,0.84111 z"
         style="fill:#000000;fill-rule:evenodd;stroke:none;stroke-width:1px;stroke-linecap:butt;stroke-linejoin:miter;stroke-opacity:1" />
    </g>
    <g
       id="layer1-59"
       inkscape:label="Layer 1"
       transform="matrix(0.24259331,0,0,0.24259331,96.881681,561.8677)"
       style="fill:#000000">
      <path
         sodipodi:nodetypes="cccccccccccccccccccccccc"
         inkscape:connector-curvature="0"
         id="path4191"
         d="m 649.52809,389.70213 c -10.40662,16.71502 -31.24857,27.56793 -32.42619,49.13873 -7.04356,19.54047 -17.95707,36.41409 -20.10175,56.59207 -0.92574,23.95599 -13.52609,44.93715 -24.16011,65.69118 -14.51383,18.6353 -28.48484,38.17022 -35.62143,60.88468 -7.31877,20.33429 -6.24784,42.18981 -12.94944,62.65789 -0.10007,18.66439 0.50503,37.43023 -1.01315,55.92413 -9.66504,28.22177 26.34547,19.98454 24.35719,47.46569 -17.31464,4.78199 -48.37993,12.30898 -61.52492,-11.25559 -5.15927,-17.21245 3.27,-34.16548 2.42791,-53.2276 -4.02456,-23.59912 -8.98591,-36.43321 -9.35578,-60.42731 0.0875,-22.28642 -4.82566,-44.28931 -5.4288,-66.47732 -8.18174,-8.39836 -36.09807,-2.59759 -48.84518,-14.651 -22.02505,-3.13875 -38.79792,-9.00751 -57.89511,-20.95782 -20.12743,-12.31268 -71.58993,-6.45212 -66.69544,-36.63899 -5.96061,-21.46486 21.01756,-56.37766 21.05434,-78.11256 3.43893,-20.52261 12.74163,-43.81845 37.71064,-36.37608 21.16448,1.29643 41.48221,-5.70153 62.61422,-5.08498 23.66157,-6.24693 50.04083,-9.52073 71.64947,-21.13898 18.0908,-7.31563 31.1761,-23.34219 42.40917,-39.59955 9.25483,-19.73223 19.83548,-38.0993 36.35744,-52.82424 12.40806,-33.17678 42.48226,0.3891 54.76029,16.16377 21.15808,16.52784 17.77206,45.59155 17.78349,69.4514 0.62081,4.56134 2.19401,9.04579 4.89314,12.80248 z"
         style="fill:#000000;fill-rule:evenodd;stroke:none;stroke-width:1px;stroke-linecap:butt;stroke-linejoin:miter;stroke-opacity:1" />
      <path
         inkscape:connector-curvature="0"
         id="path4195"
         d="m 581.84787,281.61581 c -2.98574,-7.17411 7.80058,-8.07813 12.00615,-11.83202 12.70779,-0.69267 25.58233,-0.0847 38.35581,-0.28999 8.67158,-1.28947 15.19792,1.32668 22.84006,4.64146 1.33226,3.14567 10.35674,4.94804 12.42153,9.99535 4.05263,4.60941 13.28253,5.52089 11.64863,13.39778 4.02165,5.92418 -1.36964,15.30829 6.01188,19.34318 5.66972,4.34418 11.93855,6.954 17.66772,10.87047 7.651,3.68922 13.40934,11.49536 21.95077,13.06329 3.26001,2.80284 9.88141,6.24249 11.77175,10.29252 1.5022,5.52341 -3.55381,8.72071 -7.0673,12.32906 -1.06094,7.53051 -4.87144,14.16866 -8.35787,20.66462 -2.6076,6.45702 -8.93828,9.2453 -14.67842,11.95439 -7.19429,2.92445 -15.21317,4.28983 -23.3731,3.75344 -8.10389,-0.56679 -10.69694,0.86029 -18.08117,0.99446 -6.05157,-0.46175 -13.47365,1.31956 -14.13872,-1.83499 -3.79623,-6.10989 -7.66009,-13.05512 -13.5002,-18.11263 -9.24865,-7.61861 -15.38958,-18.19863 -22.17109,-27.89487 -3.82623,-9.21582 -10.93698,-16.51647 -14.72387,-25.7796 -3.33729,-5.43802 -2.98471,-11.82011 -6.53946,-16.44636 -2.2402,-3.46325 -5.0305,-10.14552 -6.20923,-16.35378 -1.79407,-4.36069 -5.4297,-7.43403 -5.83387,-12.75578 z"
         style="fill:#000000;fill-rule:evenodd;stroke:none;stroke-width:1px;stroke-linecap:butt;stroke-linejoin:miter;stroke-opacity:1" />
      <path
         inkscape:connector-curvature="0"
         id="path4199"
         d="m 622.25397,377.5803 c -0.28886,4.76191 3.86028,-1.19047 5.05076,0 1.34687,1.34687 -1.68359,1.01016 1.01015,1.01016 0.24499,0 2.99797,-0.0325 3.03046,0 0.2381,0.23809 -0.23809,0.77205 0,1.01015 0.2381,0.23809 0.77206,-0.2381 1.01015,0 0.47619,0.47619 -0.47619,1.54411 0,2.0203 0.2381,0.2381 0.77206,-0.23809 1.01016,0 0.23809,0.2381 -0.2381,0.77206 0,1.01016 0.23809,0.23809 0.70898,-0.15059 1.01015,0 0.2682,0.1341 2.89635,2.76225 3.03046,3.03045 0.15058,0.30117 -0.15059,0.70899 0,1.01016 2.102,4.20401 -0.0697,-1.07989 2.0203,1.01015 0.2381,0.2381 -0.15058,0.70898 0,1.01015 0.21296,0.42592 0.67344,0.67344 1.01015,1.01015 0.33672,0.33672 0.58424,0.7972 1.01016,1.01016 0.30117,0.15058 0.77205,-0.2381 1.01015,0 0.23809,0.23809 -0.15059,0.70898 0,1.01015 2.10201,4.20401 -0.0697,-1.07989 2.0203,1.01015 0.2381,0.2381 -0.23809,0.77206 0,1.01016 0.2381,0.23809 0.77206,-0.2381 1.01016,0 0.47619,0.47619 -0.30117,1.41796 0,2.0203 0.21296,0.42592 0.79719,0.58424 1.01015,1.01015 0.15058,0.30117 -0.2381,0.77206 0,1.01016 0.23809,0.23809 0.77206,-0.2381 1.01015,0 0.2381,0.23809 -0.23809,0.77205 0,1.01015 0.2381,0.23809 0.77206,-0.2381 1.01015,0 0.2381,0.23809 -0.23809,0.77206 0,1.01015 0.2381,0.2381 0.67344,0 1.01016,0 0.33671,0 0.67343,0 1.01015,0 4.04061,0 8.08122,0 12.12183,0 0.24499,0 2.99797,0.0325 3.03046,0 0.23809,-0.23809 -0.10648,-0.69071 0,-1.01015 0.23809,-0.71429 0.77205,-1.30602 1.01015,-2.02031 0.10648,-0.31944 0,-0.67343 0,-1.01015 0,-0.67343 0,-1.34687 0,-2.0203 0,-1.68359 0,-3.36718 0,-5.05077 0,-2.0203 0,-4.04061 0,-6.06091 0,-0.33672 0.2381,-0.77206 0,-1.01016 -0.2381,-0.23809 -0.69071,0.10648 -1.01015,0 -0.71429,-0.23809 -1.41797,-0.55839 -2.02031,-1.01015 -0.7619,-0.57143 -1.2584,-1.44887 -2.0203,-2.0203 -1.20468,-0.90351 -2.97582,-0.95551 -4.04061,-2.02031 -0.2381,-0.23809 0.23809,-0.77206 0,-1.01015 -0.2381,-0.2381 -0.67344,0 -1.01016,0 -0.91051,0 -4.41497,0.21193 -5.05076,0 -0.71428,-0.2381 -1.30602,-0.77206 -2.0203,-1.01015 -0.31944,-0.10648 -0.67344,0 -1.01016,0 -0.64561,0 -5.76952,0.14569 -6.06091,0 -0.30117,-0.15059 0.23809,-0.77206 0,-1.01016 -0.47619,-0.47619 -1.41797,0.30117 -2.02031,0 -0.42591,-0.21295 -0.58423,-0.79719 -1.01015,-1.01015 -0.63727,-0.31864 -4.41349,0.31864 -5.05076,0 -0.42592,-0.21296 -0.58424,-0.79719 -1.01015,-1.01015 -0.30117,-0.15059 -0.67344,0 -1.01016,0 -2.0203,0 -4.04061,0 -6.06091,0 -0.33672,0 -0.77206,-0.2381 -1.01015,0 -0.2381,0.23809 0.23809,0.77206 0,1.01015 -0.2381,0.2381 -0.77206,-0.23809 -1.01016,0 -0.23809,0.2381 0.2381,0.77206 0,1.01015 -0.23809,0.2381 -0.67343,0 -1.01015,0 -0.33672,1.34687 -0.67343,2.69374 -1.01015,4.04061 z"
         style="fill:#000000;fill-rule:evenodd;stroke:none;stroke-width:1px;stroke-linecap:butt;stroke-linejoin:miter;stroke-opacity:1" />
      <path
         sodipodi:nodetypes="cccccccccccccc"
         inkscape:connector-curvature="0"
         id="path4201"
         d="m 301.91363,408.36386 c -13.41331,-1.31629 -27.80846,-3.57106 -40.71558,0.79853 -58.36372,5.52158 -97.72726,49.98485 -135.1035,84.51587 -18.31473,18.03104 -35.505572,31.84061 -60.546421,30.37416 l -39.284163,0 c -8.398108,11.25303 27.11097,18.28284 39.996547,18.18172 12.690354,0.27638 25.710157,0.68658 37.396997,-5.25084 26.42656,-9.08237 45.06357,-38.7533 65.20517,-50.07914 10.79136,-6.66721 22.84401,-10.49968 32.23334,-19.4497 10.05075,-7.81652 23.47901,-8.31351 34.24867,-14.92227 17.28428,-6.12979 34.00583,-13.91093 51.91999,-18.1187 10.89005,-4.46385 22.121,-7.96896 33.94664,-8.40525 11.68978,-3.31985 29.15415,0.73867 35.4338,-10.73853 4.60998,-12.7029 -45.67828,-6.3418 -54.73149,-6.90585 z"
         style="fill:#000000;fill-rule:evenodd;stroke:none;stroke-width:1px;stroke-linecap:butt;stroke-linejoin:miter;stroke-opacity:1" />
      <path
         sodipodi:nodetypes="ccccccccccccccccccc"
         inkscape:connector-curvature="0"
         id="path4205"
         d="m 371.42451,555.11006 c 6.98353,51.89679 -40.75395,4.85733 -48.56991,18.04761 0,0 -12.15725,23.40917 -29.18311,43.81466 -9.26232,8.30315 -18.06393,17.48389 -25.95206,26.70394 -13.29826,8.92863 -35.0285,21.72131 -42.16469,35.1031 -7.92167,33.06701 -14.46783,47.29328 -14.12704,80.06318 5.02831,9.55466 24.532,10.3597 20.75664,27.20224 6.70057,20.88824 -26.93851,4.34208 -37.60074,10.79056 -30.96323,-14.14095 -10.95062,-53.10255 -14.30328,-84.521 -8.05746,-26.25632 -1.5747,-58.42436 -1.5747,-58.42436 30.94288,-36.44251 32.16607,-48.37487 26.68296,-92.12903 0.14348,-13.00452 -10.79388,-22.58741 -12.90736,-35.2958 -8.15626,-13.38838 -6.86608,-29.88675 -8.53991,-45.26956 -0.0927,-11.72571 12.91672,-20.7441 24.13934,-21.71292 16.91828,0.41689 33.55197,-1.73149 50.50022,-1.11703 14.39571,-2.54848 25.35869,6.9073 36.47696,14.13757 15.34841,4.54954 30.19757,11.90101 44.06743,20.60667 15.64319,3.13541 22.97584,18.56315 27.2494,31.97702 2.60815,9.15814 8.61283,21.19122 5.04985,30.02315 z"
         style="fill:#000000;fill-rule:evenodd;stroke:none;stroke-width:1px;stroke-linecap:butt;stroke-linejoin:miter;stroke-opacity:1" />
      <path
         inkscape:connector-curvature="0"
         id="path4209"
         d="m 399.16578,536.73866 c -10.9145,3.44004 -23.7179,6.07544 -33.93249,-0.79465 -8.16715,-5.81576 -17.53899,-9.68799 -27.67761,-9.13887 -10.01196,-0.36954 -20.44326,-1.12516 -30.17899,1.1855 -9.58881,2.04393 -19.62525,-0.002 -29.35864,1.00893 -12.07406,-1.64798 -21.5338,-10.19326 -32.05773,-15.61009 -13.23056,-7.32988 -27.00081,-17.24233 -30.51744,-32.9096 -1.2633,-8.38015 -9.8975,-12.48115 -11.70996,-20.56262 -2.58792,-8.25018 0.74061,-17.14656 6.88983,-22.90078 5.52562,-8.38903 13.92057,-14.65609 24.06641,-15.30265 10.74956,-2.28599 22.07556,-1.09308 32.49988,-5.06098 13.00919,-2.89765 26.82404,-5.43076 39.99905,-2.57303 8.91073,2.90741 18.29348,4.09554 27.10882,7.39638 10.80981,3.38259 22.11155,1.52553 33.17386,1.49553 7.98765,1.7997 4.1493,13.22335 10.25375,18.17735 11.79917,16.22517 23.29075,33.59653 26.49486,53.82758 1.61245,10.97756 3.90509,23.062 -2.02242,33.2012 -1.23402,2.76475 -2.44048,5.57617 -3.03118,8.5608 z"
         style="fill:#000000;fill-rule:evenodd;stroke:none;stroke-width:1.12603164px;stroke-linecap:butt;stroke-linejoin:miter;stroke-opacity:1" />
    </g>
    <g
       id="layer1-3"
       inkscape:label="Layer 1"
       transform="matrix(0.24152054,0,0,0.24152054,108.2282,73.054838)"
       style="fill:#000000">
      <g
         id="g4384"
         style="fill:#000000">
        <path
           style="fill:#000000;fill-rule:evenodd;stroke:none;stroke-width:1px;stroke-linecap:butt;stroke-linejoin:miter;stroke-opacity:1"
           d="m 506.08642,446.27067 c -3.35097,-1.97001 -1.57977,-7.67257 -4.77455,-9.70179 1.48571,-11.38675 14.25569,-16.13227 20.14465,-25.09448 10.06286,-9.34106 17.18628,-21.07327 24.37324,-32.60707 20.61595,-14.33555 33.51722,-28.52979 50.20252,-46.85816 4.36804,-10.77696 10.8534,-20.72899 15.58739,-31.09868 5.58275,0.29014 4.89422,13.40914 6.62431,18.74661 1.12151,14.84412 2.01634,26.52987 6.59974,40.99489 2.35642,12.14829 -8.97775,25.55156 -9.34022,38.06085 1.55277,10.73433 29.4825,20.86781 28.06578,32.04698 3.18228,11.07644 -15.49693,22.69641 -14.34872,34.4131 2.63291,11.25674 -0.25656,23.02717 -3.86814,33.69775 -3.39562,10.19396 -13.45948,16.10808 -16.77329,25.68236 -8.66861,5.29648 -22.8541,1.32892 -28.67926,-7.0233 -8.27144,-12.09351 -20.2182,-20.70203 -30.84448,-30.51635 -7.52161,-9.55211 -16.35022,-18.32677 -26.94948,-24.36572 -5.21594,-5.63875 -9.62297,-12.21862 -16.01949,-16.37699 z"
           id="path3349"
           inkscape:connector-curvature="0"
           sodipodi:nodetypes="ccccccccccccccccc" />
        <path
           style="fill:#000000;fill-rule:evenodd;stroke:none;stroke-width:1px;stroke-linecap:butt;stroke-linejoin:miter;stroke-opacity:1"
           d="m 600.37724,341.19994 c 18.08817,2.52568 31.2419,7.84979 41.71991,19.90585 5.82567,6.03837 15.0983,9.33001 17.71865,17.94457 2.5826,6.97917 7.82463,14.01864 15.92907,14.28289 9.5545,1.75585 18.62237,5.39315 26.76823,10.671 6.2709,1.97814 16.11161,7.48555 11.9364,15.40762 -5.25097,5.2509 -8.15635,13.62026 -15.92902,15.74712 -6.95068,5.38045 -16.35345,2.33904 -24.41432,2.83046 -11.70155,-1.84547 -22.20951,-7.80599 -33.87677,-9.84862 -7.95902,-2.50149 -16.36808,0.23888 -24.54142,-0.55798 -6.43148,-5.44766 -7.35227,-14.48607 -11.81236,-21.29652 -5.57022,-10.73287 -8.39995,-22.70139 -8.4601,-34.77806 0.11658,-6.91106 -0.15594,-14.01719 1.5021,-20.73825 2.92612,-6.13495 1.82484,-2.81289 3.45963,-9.57008 z"
           id="path3353"
           inkscape:connector-curvature="0"
           sodipodi:nodetypes="cccccccccccccc" />
        <path
           style="fill:#000000;fill-rule:evenodd;stroke:none;stroke-width:1px;stroke-linecap:butt;stroke-linejoin:miter;stroke-opacity:1"
           d="m 619.72859,508.90013 c -8.00835,12.49116 -10.22201,27.53689 -16.83657,40.67982 -2.91923,12.16495 -2.74002,26.0858 -12.11932,35.61247 -8.71605,8.73506 -18.29024,16.5727 -26.38839,25.94263 -10.12605,10.7653 -21.45761,20.45568 -32.1677,30.49209 -6.55051,10.47032 -19.19855,-0.83968 -15.47558,-10.16613 -5.06001,-19.30553 -16.08938,-36.55353 -19.83588,-56.28372 -5.75661,-20.73902 -13.28941,-41.37297 -13.94007,-63.11126 -3.22723,-13.21116 -10.62207,-25.06919 -13.01469,-38.52387 -7.33728,-10.22165 5.34645,-18.67761 14.45869,-19.82311 10.56479,-3.87503 13.40985,-21.97356 25.88719,-20.05498 10.80761,2.74096 19.25633,10.93345 30.12215,13.60581 13.45059,5.09739 27.23813,10.46484 37.92172,20.435 11.74417,9.21889 26.03462,15.0604 36.99865,25.1783 2.94112,4.87641 1.30026,11.18993 4.3898,16.01695 z"
           id="path4168"
           inkscape:connector-curvature="0" />
        <path
           style="fill:#000000;fill-rule:evenodd;stroke:none;stroke-width:1px;stroke-linecap:butt;stroke-linejoin:miter;stroke-opacity:1"
           d="m 469.72093,460.41281 c -16.02284,7.36389 -34.61747,4.4598 -50.8401,10.56598 -21.33219,13.71148 -47.86819,10.58205 -71.37849,17.57425 -21.16798,5.52864 -40.40216,16.5742 -61.55096,22.27622 -8.7178,3.08898 -27.96288,2.56889 -14.70332,14.41118 9.50257,8.97766 21.53315,14.71406 32.73784,21.20163 13.78403,5.59343 31.725,3.27815 41.70465,16.31301 11.51975,8.59378 23.31435,16.8085 35.08705,25.0495 18.79488,0.1619 32.69889,15.83644 50.98443,18.30106 16.17324,4.30634 32.35848,10.14517 49.22529,10.34881 14.32594,-1.83619 26.60341,-10.28235 39.87617,-15.35574 9.39148,-4.46058 22.77786,-8.14793 24.77633,-20.00976 -1.65429,-12.96118 -3.69738,-26.07917 -5.26352,-39.15262 -1.7982,-14.80597 -7.50618,-28.87469 -16.50218,-40.7284 -6.8192,-10.76586 -16.95377,-19.54657 -28.89937,-24.1276 -7.51706,-6.82057 -16.63598,-11.44195 -25.25382,-16.66752 z"
           id="path4173"
           inkscape:connector-curvature="0" />
        <path
           style="fill:#000000;fill-rule:evenodd;stroke:none;stroke-width:1px;stroke-linecap:butt;stroke-linejoin:miter;stroke-opacity:1"
           d="m 330.82496,494.25292 c -13.88339,3.49474 -28.04625,7.12983 -41.41626,13.13198 -12.47616,5.1615 -25.73075,7.78194 -38.93666,10.56396 -11.99222,5.05028 -23.01384,11.6432 -34.80447,16.71016 -11.68865,5.49341 -20.60538,14.8454 -28.8269,24.50829 -36.53364,31.77496 -4.69497,23.67619 26.40158,83.76654 16.17019,5.92336 32.51728,29.68915 48.04517,37.14185 14.58627,5.45342 5.17462,20.20898 12.00835,35.91334 17.6775,-10.99654 57.49569,-53.49295 67.7916,-75.31706 14.72283,-3.985 28.37624,4.19745 42.70849,6.1546 13.58224,3.32332 27.3613,4.28626 41.41662,5.20346 12.80096,1.23274 25.37359,1.22571 38.21054,0.69718 16.96432,-0.27051 33.42965,2.81579 46.70401,-9.47668 19.16915,-11.36179 21.6274,-34.48346 17.51387,-54.42522 -4.42428,-26.73699 -26.15052,-48.08332 -51.2895,-56.54086 -14.11353,-6.37267 -29.94919,-5.43021 -44.02133,-12.116 -22.46308,-7.13116 -46.21023,-9.01473 -69.43775,-11.87508 -10.73779,-4.08998 -23.8776,-6.77597 -31.69205,-14.34131 z"
           id="path4176"
           inkscape:connector-curvature="0"
           sodipodi:nodetypes="ccccccccccccccccccc" />
        <path
           style="fill:#000000;fill-rule:evenodd;stroke:none;stroke-width:1px;stroke-linecap:butt;stroke-linejoin:miter;stroke-opacity:1"
           d="m 537.40115,636.17935 c -3.97769,7.74998 -7.22923,15.8229 -9.14137,24.3389 -2.64921,9.27454 -5.33576,18.54548 -7.55004,27.93652 -0.51245,21.93776 -17.54905,58.1676 -1.49133,76.01395 -0.46195,6.97679 4.09897,13.16433 11.17108,14.055 6.31958,3.37057 13.18269,5.93996 19.24734,8.93443 4.77551,4.17491 5.92947,11.17889 -2.00794,11.53761 -8.69041,10.49825 -38.08014,8.39545 -48.13704,2.241 -7.50586,1.15778 -10.18819,-7.42285 -11.42532,-13.24349 -0.81605,-8.86127 -14.83768,-22.59759 -14.40437,-26.99213 -4.32488,-6.7876 -1.49179,-16.49332 -2.47297,-24.42763 -2.78064,-6.05483 -3.54964,-12.56074 -2.9797,-19.3509 0.10149,-7.34166 -2.56211,-14.10335 -1.51972,-21.6755 0.25205,-6.51979 -0.0886,-12.90726 -1.02313,-19.30657 0.23755,-7.04135 -1.00156,-14.01127 -0.44245,-21.06947 -1.2024,-7.1638 0.82346,-15.57715 8.52549,-18.06096 8.31553,-2.78729 18.2093,1.62961 25.804,-3.98329 7.29126,-4.19218 16.08798,-2.70163 24.15529,-3.00838 l 8.64142,0 c 1.40667,2.26202 3.76436,3.69167 5.05076,6.06091 z"
           id="path4180"
           inkscape:connector-curvature="0"
           sodipodi:nodetypes="cccccccccccccccccccc" />
        <path
           style="fill:#000000;fill-rule:evenodd;stroke:none;stroke-width:1px;stroke-linecap:butt;stroke-linejoin:miter;stroke-opacity:1"
           d="m 214.76253,561.74959 c -12.50208,8.51623 -26.65928,4.02189 -40.23343,13.00127 -14.17589,14.23663 -34.56803,23.08597 -51.42686,34.96993 -37.348203,24.7477 -79.262341,36.49848 -118.2718483,49.90841 -16.8521717,5.32054 -39.6330787,10.99282 -49.0688097,22.27 16.29579,3.465 47.9668557,16.09028 64.55642,15.39281 60.213024,6.95602 110.632698,-18.18282 156.935698,-55.5689 22.60672,-31.45315 71.2734,-52.133 37.50883,-79.97352 z"
           id="path4197"
           inkscape:connector-curvature="0"
           sodipodi:nodetypes="cccccccc" />
        <path
           style="fill:#000000;fill-rule:evenodd;stroke:none;stroke-width:1px;stroke-linecap:butt;stroke-linejoin:miter;stroke-opacity:1"
           d="m 338.63332,629.84734 c 2.88903,13.34383 -5.57868,25.15506 -10.99175,36.41025 -9.96964,16.21057 -22.66707,30.47832 -37.43768,41.93581 -5.74654,5.30499 -12.26802,9.66452 -18.81468,13.63735 -7.83176,8.62765 -23.90833,1.11471 -29.40049,12.03782 -1.24703,12.68323 12.56573,18.95841 14.39311,30.71547 5.43855,7.46387 14.58925,10.90982 21.51925,16.63034 8.43603,3.71548 18.02645,1.80253 26.47661,5.41407 4.19558,9.08843 3.99023,26.86437 -9.15444,26.09459 -10.46651,0.75145 -21.14301,5.35699 -31.55572,2.11749 -8.22909,-6.26968 -13.05824,-17.29829 -24.32193,-18.26394 -9.65509,-7.23823 -13.23625,-20.22726 -22.37649,-28.16687 -6.09989,-10.41783 -10.04678,-22.24294 -17.88163,-31.52646 -5.23653,-6.99412 -11.66159,-16.7625 -6.58599,-25.61434 5.00982,-12.11619 17.71913,-19.99773 18.93709,-33.85323 1.7925,-12.55673 -20.22182,-62.03962 -19.14576,-74.52377 1.00416,-10.94876 17.539,-22.98479 17.539,-22.98479 19.22233,-15.60215 61.58932,16.9147 85.34569,18.73364 11.22726,0.37996 22.5788,-0.31588 33.72717,0.17077 9.72179,3.87809 9.16601,16.39312 9.6068,25.43794 -0.0179,1.87971 0.44223,3.72748 0.12184,5.59786 z"
           id="path4250"
           inkscape:connector-curvature="0"
           sodipodi:nodetypes="ccccccccccccccccccccc" />
        <path
           style="fill:#000000;fill-rule:evenodd;stroke:none;stroke-width:1px;stroke-linecap:butt;stroke-linejoin:miter;stroke-opacity:1"
           d="m 608.57143,423.79078 c 3.69922,-0.85818 7.92724,1.8149 8.22994,5.60536 1.66922,2.60678 3.76537,3.97998 4.35894,7.03129 0.81988,2.98448 2.13754,6.46394 5.93639,5.29969 3.10652,1.56116 6.40962,1.91207 9.50821,3.33262 3.67023,1.64859 7.69245,0.75523 11.55623,0.86629 3.77406,-1.56884 7.6073,-1.62987 11.76737,-1.41541 3.78003,0.18413 7.26605,-1.46855 11.1277,-0.6281 4.1691,-0.19456 7.43634,-0.54081 11.55937,-1.23665 2.96637,-1.52617 6.52914,-2.23961 9.08722,-4.32828 0.40574,-2.79124 3.50158,-4.84422 3.94391,-6.95656 -2.46207,-3.20538 -6.86934,-3.88474 -9.55592,-6.73609 -3.56675,-0.27403 -5.81603,-2.93295 -8.99625,-4.13535 -3.68383,-1.45011 -7.33367,-3.47394 -11.44168,-3.13325 -3.9969,-0.19624 -7.98496,-1.29163 -12.03288,-1.34449 -5.56357,-0.24105 -10.84926,-3.16786 -16.49861,-2.11606 -4.00514,0.11073 -8.38766,-1.12796 -12.00031,1.20414 -3.14961,0.98383 -6.70571,1.54656 -8.91308,4.25231 -2.41841,1.6624 -4.5983,4.12453 -7.63655,4.43854 z"
           id="path4379"
           inkscape:connector-curvature="0" />
      </g>
    </g>
    <g
       id="layer1-55"
       inkscape:label="Layer 1"
       transform="matrix(-0.19912643,0,0,0.19912643,261.30872,464.85412)"
       style="fill:#000000">
      <g
         transform="translate(94.954339,-2.0203051)"
         style="fill:#000000"
         id="g4181">
        <path
           style="fill:#000000;fill-rule:evenodd;stroke:none;stroke-width:1px;stroke-linecap:butt;stroke-linejoin:miter;stroke-opacity:1"
           d="m 49.285714,177.3622 c -6.701679,0.39687 -11.834789,5.96103 -17.137531,7.21082 -5.504557,4.79685 -12.193954,7.32371 -18.238775,11.30756 -4.9979374,3.88352 0,0 -15.180977,8.84877 -16.52692,4.37752 -26.003107,13.08634 -37.110655,21.24809 l -10.15331,13.3543 c -3.8558,2.72078 3.253924,13.64464 6.313982,16.10391 -0.419871,8.57823 4.851557,23.37218 9.829445,24.81799 0.731073,3.12325 -0.634352,13.72204 2.073382,5.74115 0.749275,-5.11304 9.746082,-5.15289 7.393559,1.52445 -1.617955,4.77075 -3.217265,13.27352 -1.614659,16.41068 5.38609,-4.5702 7.684554,-8.3096 14.517056,-8.70794 7.7821486,-0.90901 9.30319892,-7.79977 13.8552691,-11.61588 1.7715225,-5.63708 5.8096306,-9.51045 11.9756459,-8.93365 5.76637,-3.01278 13.818725,-0.76454 19.930258,-4.48267 7.468155,-0.28922 14.392442,-3.96493 22.15972,-3.6093 6.282696,-1.06139 14.728001,1.14163 17.748288,-6.30858 5.908386,-4.0848 8.772421,-10.77283 7.059515,-17.83381 -1.557739,-6.65469 -2.187106,-13.37725 -3.338465,-20.09342 -2.438699,-6.60699 0.753941,-14.03542 -4.674596,-19.68787 -4.038632,-4.24069 -4.121333,-12.66428 -10.41937,-14.21424 -6.406549,-1.13323 -9.142236,-7.6026 -14.747691,-9.94027 z"
           id="path3347-9"
           inkscape:connector-curvature="0"
           sodipodi:nodetypes="ccccccccccccccccccccccc" />
        <path
           style="fill:#000000;fill-rule:evenodd;stroke:none;stroke-width:1px;stroke-linecap:butt;stroke-linejoin:miter;stroke-opacity:1"
           d="m 46.428571,178.07649 c 4.63886,-1.81197 7.442812,-3.11304 8.639096,-8.3368 5.456119,-6.27495 11.75464,1.3843 15.437731,3.95361 3.663626,-3.40597 -0.807849,-5.10338 5.655035,-5.45434 6.446484,4.05058 14.796249,5.88881 21.714342,9.41495 6.301845,4.4043 3.577005,14.71361 11.406235,18.39869 0.30425,4.77294 -2.33887,9.47882 3.14899,10.92685 5.54877,8.21145 17.20287,10.66148 21.14143,20.38275 5.12032,6.22673 10.03982,12.35908 14.0299,19.45274 6.76422,6.07271 9.93857,14.67141 17.39867,19.83298 4.19305,6.74919 11.42576,13.38179 10.64323,21.86228 0.19553,9.44233 -4.32188,18.0176 -10.4639,24.89529 -7.455,7.92119 -15.26495,15.52979 -23.09651,23.07231 -5.84376,4.47442 -12.44052,7.79853 -17.06554,13.74698 -5.35221,8.79633 -11.96334,-0.81966 -14.24425,-6.57099 -4.79864,-7.48704 -8.63187,-15.68313 -13.011112,-23.62445 -3.303786,-8.25483 -6.736978,-16.43961 -10.134537,-24.64829 -5.077495,-6.9922 -6.915466,-15.08863 -13.65717,-20.17568 -5.329182,-6.92166 -12.980976,-12.2195 -16.868318,-20.12923 -3.208792,-10.71513 -7.761928,-20.93255 -11.986894,-31.26428 -3.066682,-8.75199 -0.917836,-18.15438 -1.54759,-27.21583 -1.978803,-6.93059 3.89214,-12.12301 2.861162,-18.51954 z"
           id="path3351"
           inkscape:connector-curvature="0" />
        <path
           style="fill:#000000;fill-rule:evenodd;stroke:none;stroke-width:1px;stroke-linecap:butt;stroke-linejoin:miter;stroke-opacity:1"
           d="m 116.42857,350.93363 c 2.10492,14.95207 -0.86848,29.96991 0,45 7.74923,11.97392 12.63017,27.17593 12.28379,41.84805 -0.50452,7.56236 -4.67754,17.54456 5.85054,10.78648 6.89257,8.66183 3.29915,27.01078 4.00853,39.27911 0.27955,14.4678 -1.19757,29.07421 2.51958,43.24455 1.05758,15.29464 6.71358,31.35221 1.05185,46.27038 -2.13478,7.83233 -20.86994,20.50548 -3.28113,22.44607 13.28849,-3.16815 22.58636,9.93405 35.82582,5.30496 20.93495,-0.40693 22.99933,-22.03342 20.35864,-37.99934 -1.97954,-15.8835 2.33448,-30.93481 6.33069,-45.92867 -0.47114,-14.41321 2.00933,-28.54667 2.44786,-42.92921 -2.69944,-18.61567 18.34433,-17.02564 30.88817,-20.60481 15.17167,-5.91757 31.01326,-8.83387 44.52868,-18.91538 11.69232,-8.65166 27.44255,-3.25515 38.70118,-13.32628 10.38706,-4.22082 27.0733,-1.66498 28.95245,-16.35827 4.76572,-12.77096 10.00306,-27.67413 -0.27523,-39.48831 -10.1104,-13.95529 -18.506,-29.90093 -33.40473,-39.49738 -4.88005,-13.30539 -18.14895,-15.26131 -30.08902,-16.91031 -13.76954,-1.11172 -27.15453,-5.42273 -40.36402,-9.28186 -12.53604,-8.11567 -27.92338,-3.55498 -40.78277,-10.57243 -12.98924,-0.82703 -24.01453,-15.84369 -35.55088,-12.36735 -9.04752,8.63653 -18.07895,18.2277 -20.18001,31.05796 -7.04927,11.64281 -16.71385,20.87798 -23.17708,32.501 -6.82942,6.43912 -2.97033,4.18786 -6.64291,6.44104 z"
           id="path3355"
           inkscape:connector-curvature="0" />
        <path
           style="fill:#000000;fill-rule:evenodd;stroke:none;stroke-width:1px;stroke-linecap:butt;stroke-linejoin:miter;stroke-opacity:1"
           d="m 292.85714,315.21935 c 18.40618,0.56152 37.17854,-1.39414 55.18878,1.52695 13.85953,-3.43365 35.76522,5.69876 44.09694,-7.95552 8.55097,-12.38088 7.14114,-29.52887 1.11282,-42.50113 -3.92118,-16.08577 -19.40926,-26.06439 -22.20855,-42.21366 5.37428,-11.31267 19.99352,8.23386 23.95287,16.14336 9.75094,11.92995 17.16831,25.4203 23.51511,39.30592 6.86743,17.00627 0.76768,33.54432 -0.56128,50.67255 -4.47345,12.74861 5.89039,23.04018 11.00111,33.63601 10.06798,10.06297 11.31285,25.9865 13.71119,39.61265 1.22598,16.79485 1.12441,33.96781 5.19101,50.3443 4.25773,14.89837 7.36926,29.84336 15.54911,43.36949 5.45805,13.36284 19.21465,20.98463 25.62747,33.4827 7.19151,12.53808 6.74158,27.41384 7.33361,41.60084 -2.32634,10.73362 7.4714,35.44227 -9.85659,30.66061 -10.54508,0.96841 -29.29307,10.86509 -29.12791,-7.38337 -0.37502,-14.17201 -6.85833,-26.54373 -14.52569,-38.15885 -9.44845,-8.95468 -24.26701,-12.02794 -30.72295,-23.3095 -11.03894,-9.81041 -19.12485,-22.28536 -30.30851,-31.72071 -10.60977,-8.58241 -21.03707,-17.99422 -27.10881,-30.43261 -5.89056,-11.90769 -16.75202,-22.22973 -15.10006,-36.71831 3.81269,-18.5236 -15.78132,-27.78793 -22.832,-41.94731 -3.43887,-16.95268 -12.37884,-32.90828 -16.01743,-48.97039 -0.23914,-10.2908 -7.92281,-19.08449 -7.91024,-29.04402 z"
           id="path3360-2"
           inkscape:connector-curvature="0" />
        <path
           style="fill:#000000;fill-rule:evenodd;stroke:none;stroke-width:1px;stroke-linecap:butt;stroke-linejoin:miter;stroke-opacity:1"
           d="m 146.47212,585.67173 c -0.55806,2.56449 -0.30821,5.35334 -2.68541,7.02224 -1.79456,2.07672 -2.84197,6.09694 -6.23802,5.08908 -2.05699,0.17849 -4.61169,-0.88136 -4.70523,2.00088 -0.67908,1.39445 -0.78749,-1.65139 -1.4897,0.32772 -0.99217,1.62795 -2.46993,3.01235 -3.81035,4.74511 -0.0728,2.62159 -1.78959,4.46432 -3.2513,5.23522 0.19914,1.2126 -0.73619,2.60088 -0.792,3.18008 1.47331,1.22833 4.30488,4.3366 4.30667,4.74345 -0.61523,0.20326 5.19987,3.09636 2.4462,0.61781 2.01262,-0.35778 3.01306,1.79886 4.9853,1.50082 1.32031,1.42955 3.15558,0.77727 4.82557,0.89293 10.73972,-0.0171 21.48102,0.0342 32.21977,-0.0257 2.70533,-1.04917 3.23244,-4.78485 6.04769,-5.69255 1.61475,-2.14254 4.49082,-2.63567 6.03826,-4.8161 1.77894,-1.74763 3.58858,-3.33486 3.90113,-5.67699 1.49069,-1.53575 0.19776,-5.51969 0.62783,-8.03232 -1.95262,-1.95697 -0.50587,-5.34119 -2.0802,-7.42637 -0.88715,-1.8916 -2.23213,-4.25088 -2.44156,-5.84987 -2.99151,-1.13946 -6.18859,-0.75584 -9.27691,-0.89729 -2.61697,-0.63623 -4.93061,-1.79805 -7.51732,-2.1644 -5.11103,0.41299 -10.25457,0.0654 -15.38414,0.17029 -2.67309,-0.46347 -7.10977,0.44898 -5.7724,4.03749 l 0.0326,0.50875 0.0136,0.50972 z"
           id="path4167"
           inkscape:connector-curvature="0" />
        <path
           style="fill:#000000;fill-rule:evenodd;stroke:none;stroke-width:1px;stroke-linecap:butt;stroke-linejoin:miter;stroke-opacity:1"
           d="m 467.70063,579.61081 c 0.15402,2.94514 0.39198,6.94396 -2.56269,8.45196 -0.30125,2.55687 -0.93179,4.99317 -2.86432,6.85209 -1.35083,2.77126 -2.53266,5.73221 -5.92465,6.57035 -3.67187,1.84063 -7.95828,3.5717 -9.87273,7.49129 -0.19727,1.91557 -3.25555,4.19209 0.10471,5.19454 2.59827,1.19674 4.08603,3.60764 4.99306,6.20443 0.35081,3.18565 3.4519,3.32282 5.7554,2.18108 2.63032,-0.88926 5.34358,-1.94544 8.17124,-1.55776 3.42857,-0.15602 7.07076,0.70376 10.30249,-0.83396 2.96874,0.58558 5.35324,-1.81149 8.04303,-2.05427 2.27672,-0.45636 2.50443,-3.3826 4.9268,-3.41589 1.63618,-0.91909 0.95822,-2.7521 2.75932,-3.4863 1.05978,-3.12155 2.77326,-6.02189 4.82218,-8.72752 1.06329,-1.78065 0.67435,-4.14527 0.72487,-6.19642 -0.0817,-3.03298 -2.78448,-5.33296 -2.19676,-8.50395 0.5042,-3.49808 0.10687,-7.13524 -2.31426,-9.8849 -0.89823,-2.79984 -3.14844,-5.51416 -6.35498,-5.50173 -3.86525,0.36567 -7.75692,0.002 -11.63244,0.16068 -1.43754,2.27048 -4.31391,3.04657 -6.02577,4.51984 -0.29991,0.83944 -0.29569,1.80105 -0.8545,2.53644 z"
           id="path4171"
           inkscape:connector-curvature="0" />
      </g>
    </g>
    <g
       id="layer1-57"
       inkscape:label="Layer 1"
       transform="matrix(-0.44848405,0,0,0.44848405,569.9997,239.91586)"
       style="fill:#000000">
      <path
         id="path5500"
         d="m 226.71484,421.94531 c -0.34481,11.9098 4.11044,17.85652 -2.19531,29.60742 -5.40694,7.00444 -14.07168,13.20775 -18.44922,20.85352 2.82894,18.17354 -31.0156,32.21561 -26.04687,42.86523 5.41711,5.72751 10.49919,12.7339 16.38672,18.12696 9.89815,4.72694 22.24656,1.14352 32.79296,0.63672 12.99111,-1.97743 5.181,-19.72404 15.08594,-24.7793 19.26188,25.48693 4.82681,69.47575 9.96485,94.23828 2.6972,10.7888 6.29462,18.63475 11.23242,22.72266 8.94958,16.08791 16.53583,36.27576 15.9414,52.67773 -0.0995,6.57684 4.09627,11.27004 4.28711,18.4668 0.94411,13.67138 9.2523,45.4121 5.04493,56.46289 -1.01326,5.23166 -5.77301,6.98799 -10.75977,9.25195 -7.40565,-0.50687 -10.01761,5.92492 -6.95703,12.04492 6.46628,2.59172 27.0961,5.05487 28.38476,-5.61523 5.06519,-2.04626 3.09262,-9.94099 8.57227,-10 -0.90005,-9.99385 7.05967,-1.35584 5.71484,-11.42969 0.32476,-8.21525 -3.88875,-15.566 -3.57226,-23.62305 0.26371,-9.58583 -1.15827,-18.90189 -0.71485,-28.51953 -1.06485,-7.4226 -1.56151,-14.77968 -1.42773,-22.40039 0.19285,-6.14995 -0.54061,-13.2271 0.71484,-18.31445 1.32554,-4.29897 8.34307,-1.20298 12.34766,-2.14258 38.37677,10.93452 59.69686,3.39604 90.50977,-7.14258 5.63025,-2.08818 12.25791,-1.74642 18.5957,-2.14257 4.85948,-2.83964 3.27556,5.80053 3.54687,7.88281 8.95979,7.16639 39.99236,-14.44621 42.14258,-7.16797 1.74167,36.66276 44.59867,33.79699 67.14258,60 7.94673,10.87226 4.98469,41.56757 4.28516,52.14258 -17.06922,9.03901 -13.60631,14.23116 -13.57032,14.28515 0,0 8.13669,5.23668 13.59571,5 5.0215,0.0589 11.61446,-0.99365 13.54687,-5 3.27806,-0.56099 1.80843,-9.32292 2.14258,-13.67382 -1.349,-21.02789 6.05288,-50.34306 1.42773,-62.75391 -5.21667,0.46021 -7.65633,-7.14656 -11.07031,-11.42969 -6.31162,-13.14766 -16.83091,-33.02318 -16.78515,-44.28515 -2.1301,-12.67117 1.04388,-26.1993 -2.14454,-38.57227 -1.45647,-6.29297 -10.47678,-8.10856 -12.14257,-15.71289 -0.34335,-0.86888 -0.74156,-1.69725 -1.19336,-2.48047 8.51244,2.52516 17.18716,4.64331 25.34961,7.95508 31.37806,16.66267 44.18553,29.28406 100.38086,10.95898 16.68323,-12.85955 -40.01357,12.17294 -69.50391,-6.43164 -27.81059,-19.74229 -57.97456,-31.64367 -86.91602,-31.49023 -5.82509,-2.21492 -11.97834,-3.82362 -17.73242,-5.8086 -12.2845,-5.32747 -26.32836,-1.67041 -39.42578,-2.69726 -23.62684,2.33579 -48.09204,1.65169 -70.51172,-6.97852 -14.81053,-8.33591 -31.95001,-10.84311 -47.27539,-17.96679 -22.89929,-10.58308 -25.44426,-60.16572 -59.33008,-73.82618 -2.55873,-4.37068 -14.68571,-17.10993 -15.67383,-17.67187 -2.45597,-0.9179 -3.95668,-3.30249 -6.37304,-4.26758 -1.36235,-1.88272 -3.39093,-3.18479 -4.43946,-5.3164 -2.50649,-1.53792 -2.63235,-5.45091 -4.92578,-6.53907 z"
         style="fill:#000000;fill-rule:evenodd;stroke:none;stroke-width:1px;stroke-linecap:butt;stroke-linejoin:miter;stroke-opacity:1"
         inkscape:connector-curvature="0" />
    </g>
    <g
       id="layer1-7"
       inkscape:label="Layer 1"
       transform="matrix(-0.73885537,0,0,0.73885537,679.80525,-163.18968)"
       style="fill:#000000">
      <path
         style="fill:#000000;fill-opacity:1;fill-rule:evenodd;stroke:none"
         d="m 301.49363,506.74317 c 4.9392,-4.23367 10.93679,-3.88086 16.2288,-5.99767 0.70561,-0.35278 1.41119,-2.46959 2.11681,-3.88078 1.05838,-1.05842 2.46958,-1.4112 4.23358,-2.11681 4.58642,-3.1752 10.5839,-0.35281 16.93446,0.35281 1.05834,0.3528 2.11667,1.764 3.52806,3.88078 2.46945,3.17519 5.99751,6.70334 7.05584,8.46723 3.17528,4.93917 5.99779,9.17278 7.05612,11.64251 0.35278,0.35278 1.76389,0.70556 4.23362,2.46945 0.70555,0.35277 0.70555,-1.05834 2.11666,-0.35278 3.52806,1.05833 1.76418,2.8225 3.17529,3.88084 0,0 1.41111,-1.05834 2.46944,-0.70556 0.70584,0.35278 0.70584,1.41111 1.41139,1.41111 0.70556,0.35278 1.76389,-0.35278 2.46945,0 0.70555,0.35278 1.41139,1.76389 1.76417,1.76389 0.70556,0.35278 1.76389,-0.35278 1.76389,-0.35278 1.05833,0 1.05833,0.70556 2.11695,0.70556 11.99501,0 14.11196,-2.11667 25.04863,-3.175 5.64472,-0.70556 13.75918,-1.76417 19.4039,-1.76417 1.4114,0 5.64501,0 7.05612,0.35277 5.29195,-5.29194 10.5839,-10.93667 10.5839,-19.75665 0,-5.29201 -2.11666,-20.81522 1.4114,-25.04881 1.76388,-2.1168 3.175,8.81999 3.88083,10.58399 1.41111,7.056 1.41111,17.99285 -1.05861,25.40175 -1.76389,4.93917 -3.88084,10.23112 -7.40862,14.46473 2.82222,3.175 5.99751,7.40862 6.70306,9.87835 0.70556,4.58639 -6.35028,15.52306 -3.88084,17.99279 -13.4064,-4.23361 -16.22862,4.23362 -16.22862,1.41111 -5.64501,0 -25.04891,17.28724 -25.04891,7.4089 -7.76168,0 -19.40391,5.64473 -28.92947,6.35028 -2.82251,0.35278 -7.05612,0.35278 -10.58418,0.35278 0,0.70584 -2.11667,3.52806 -3.175,3.88084 0,1.76417 -0.35278,5.99779 -1.4114,7.4089 -1.41111,1.05833 -6.70306,1.76389 -6.70306,2.8225 -1.05833,0 -1.41139,-1.05861 -1.41139,-1.76417 l -7.05584,0 c 0,-0.70555 0,-2.46944 0.70556,-2.46944 0,-0.70584 0.35278,-0.35278 0.35278,-1.05862 1.05833,-0.70555 3.88083,-2.46944 4.58639,-3.88055 2.46973,-2.82251 1.76417,-8.11446 1.41111,-10.58419 -4.23333,-2.82222 -11.64223,-5.64472 -13.05334,-10.58389 l -0.35306,0 c -0.35278,-1.4114 -1.05834,-1.76418 -1.76389,-3.17529 -1.41111,-0.35277 -2.82251,-4.93917 -2.11667,-6.70306 0,-0.35277 0,-2.8225 -0.35278,-2.8225 l 0,-0.35278 c -2.11692,-0.70555 -3.88092,-2.46973 -3.88092,-3.88084 0,-0.70555 0.35278,-3.52806 0,-3.88083 -1.05842,-0.70556 -1.764,-2.11667 -2.46961,-3.17529 -0.35281,0 -0.70559,-0.35277 -0.70559,-0.70555 l 0,0 0,0 c -0.3528,-0.35278 -0.70561,-0.70556 -0.70561,-1.05834 -1.41119,-2.46972 -0.70561,-5.9975 -2.11681,-8.11445 -0.70558,-1.05833 -3.17519,0.35278 -3.88078,-0.35278 -1.05841,-1.41111 -2.1168,-1.76389 -3.88081,-1.76389 -5.99759,0 -8.82001,-4.58639 -9.8784,-9.17278 -1.0584,-2.11695 -1.764,-2.82251 -1.764,-4.23362 z"
         id="path7868"
         inkscape:connector-curvature="0" />
      <path
         style="fill:#000000;fill-opacity:1;fill-rule:evenodd;stroke:none"
         d="m 416.50652,556.84072 c 4.23362,0 3.175,2.82251 7.40862,5.64473 1.41139,1.05833 3.88084,2.46972 4.58639,4.58639 1.05862,2.11695 0,9.52557 -2.11666,9.52557 -3.17529,0 -3.52806,5.29223 -4.23362,8.11445 4.93917,0 11.28945,2.11695 13.75918,-2.11667 1.76389,-3.17528 1.05833,-4.23361 1.76389,-7.76167 0.35278,-1.76389 2.11695,-2.82251 3.17528,-4.5864 3.52806,-5.64472 -2.11667,-9.17278 0,-11.28973 3.52806,-3.52778 6.35057,-18.69835 4.93917,-20.10946 -7.40861,-5.99751 -18.69835,4.58639 -23.9903,8.46723 -2.11695,1.41111 -4.58639,7.05583 -5.29195,9.52556 z"
         id="path7870"
         inkscape:connector-curvature="0" />
    </g>
    <g
       id="layer1-9"
       inkscape:label="Layer 1"
       transform="matrix(0.84119768,0,0,0.84119768,248.66852,87.42559)"
       style="fill:#000000">
      <path
         sodipodi:nodetypes="ccccccccccccccccccccccccccccccccccccccccccccccccccccccccsccccccccccccscccccccccccccccc"
         inkscape:connector-curvature="0"
         id="path7546"
         d="m 439.8404,500.06055 -2.58347,0.51783 c -4.65123,4.13432 -4.65096,3.10138 -8.26826,8.78609 l -1.03567,1.03282 -0.51498,1.03282 c -2.7273,3.67902 -3.43696,8.09516 -6.72045,11.36954 l -3.61629,2.06849 -3.10131,1.55066 -2.06562,0.51498 -1.03567,0 -24.80475,0.51784 -2.06564,0.51783 -2.58632,0.51498 -5.16694,0 0,0.51784 -7.23544,2.06564 -3.61628,1.55065 -5.16979,4.13412 c -6.51399,4.56728 -8.17961,10.4649 -9.81891,17.05432 l -1.55065,2.58347 c -2.02187,6.63212 -8.12791,7.42823 -13.95302,10.33675 -4.69152,2.88591 -10.68172,10.25163 -7.23544,15.50367 5.04182,-0.25867 4.28864,0.44761 10.10874,0.5948 l 4.87997,-1.10977 0,1.03282 c 4.13725,0.36673 8.05432,-0.15176 10.85171,-1.55066 l 3.10131,-3.10132 0.48392,5.79879 c -2.06714,3.6173 2.54565,4.78715 3.57924,7.37135 l 2.46946,2.21954 1.03282,0 4.13413,0 4.32195,-2.46946 c -1.03352,-2.06702 -1.55103,-3.61738 -4.65197,-4.13413 l -0.51784,-3.10131 c -0.1474,-1.03772 0.0719,-1.69402 0.51784,-2.58346 l 0,-1.03282 2.06563,-3.61914 c 3.0586,-2.62813 7.03356,-2.74147 10.85458,-4.65196 l 0.51498,0 1.55065,-2.06564 5.1698,-5.16693 0.51497,0 1.55067,0 8.78607,2.58346 0,1.55067 c 7.8398,2.30548 11.53095,6.16714 20.67062,5.16693 l 1.55066,8.26824 1.03281,0 0.51784,2.0685 c 1.03667,4.62659 6.20261,3.25441 6.20261,7.75041 2.06703,1.03351 2.58312,4.1359 6.7176,3.61914 l 7.23544,-0.51784 0,-2.06849 0,-1.5478 2.06562,0 0,-1.03567 c 0,-2.58379 -0.51465,-3.09954 -3.09844,-3.61629 -2.06744,-0.51676 -1.55282,-2.06708 -2.58634,-4.13411 l 0,-3.10131 0.51785,-5.16695 1.55064,-1.55065 0,-1.03567 2.06564,-1.5478 c 1.03351,-1.55026 1.03389,-1.03564 1.55065,-2.58633 l 1.55065,0 c 0,0 2.2788,-3.63586 3.61915,-5.16694 l 6.7176,-10.85171 0.51497,0.51498 c 0,-6.2015 3.10132,-6.71723 3.10132,-14.98585 0,-3.61751 -1.55103,-8.78455 -3.10132,-10.85171 l -1.54779,-3.61915 -0.51784,-2.06562 0,-1.55067 6.26801,-0.58855 c 0,0 2.31242,0.18622 3.61628,-1.55065 l 0.51783,-0.51784 2.00025,-1.99492 0.51783,-1.0328 c 0.51083,-0.60203 0.53535,-1.12301 0,-1.55066 l -1.03567,-0.51783 -1.16892,-0.44427 -2.44737,-1.1064 -6.20261,-1.54779 c -1.75468,-1.54898 -3.19504,-3.35122 -4.6491,-5.1698 -4.86426,-3.6487 -6.3597,-2.41477 -12.9202,-3.1013 z"
         style="fill:#000000;fill-opacity:1;fill-rule:evenodd;stroke:none" />
    </g>
    <g
       id="layer1-35"
       inkscape:label="Layer 1"
       transform="matrix(0.9236409,0,0,0.9236409,204.18308,-325.21698)"
       style="fill:#000000">
      <path
         sodipodi:nodetypes="ccccccccscscccccccccssccccccccccccccccccccccccsccccsccccsccc"
         inkscape:connector-curvature="0"
         id="path7356"
         d="m 478.66596,493.02539 c -2.2115,5.15789 -4.448,11.38492 -5.88841,16.78946 -4.17194,0.46355 -6.25567,7.30997 -12.93377,13.88487 l -4.18357,4.87825 -6.97005,5.57679 c -3.486,4.87995 -27.18983,10.45646 -36.94967,11.15361 -8.36559,1.39427 -37.64271,3.48644 -42.5226,6.27535 -8.36564,0 -6.27365,-0.69763 -11.1536,-4.18357 -2.78853,0 -4.18355,5.5e-4 -4.18355,2.09177 0,1.39472 2.78924,2.79087 4.18355,4.88213 0,2.09128 0.69468,2.08989 0.69468,4.87825 0,0.69765 -2.08938,2.78792 -2.78645,3.48501 -1.39431,3.48545 -2.09178,2.7884 -2.09178,7.66858 -0.74803,12.18422 3.22026,10.23823 -0.15285,23.95543 -0.86761,4.03175 -5.10542,7.47547 -7.66858,9.06568 -2.09138,2.09126 -4.87863,4.17963 -6.97003,6.27147 -4.4508,2.74752 -1.15739,10.7462 -0.69855,15.33716 l 0.50508,15.21517 c 1.57908,4.7403 6.3953,4.30556 10.64851,4.30556 2.09144,0 2.0918,-1.39375 2.0918,-3.48501 2.02706,-1.99847 0,0 -4.39905,-6.05348 -2.70085,-3.71662 -0.75266,-10.2917 -0.26655,-14.1062 0.92337,-7.24561 13.12175,-12.11005 19.45703,-17.73967 8.25843,-3.44534 11.48333,-8.86159 16.73041,-16.73041 1.54632,-0.92243 3.18704,-1.52884 4.8821,-2.09177 5.5512,1.64468 5.54054,3.91712 7.66858,-1.39709 l 8.36329,0 c 10.70783,0.22488 15.68328,9.08303 29.22202,11.27558 6.33441,-0.11813 4.04837,-0.11813 6.33441,-0.11813 l 1.39322,0.69468 1.39324,8.36714 c 1.07574,7.51834 -2.51898,27.1388 1.70871,30.67433 l 0,2.78645 c 3.11971,8.84003 5.52951,7.10445 11.4271,7.10445 l 0.69854,-0.69855 2.09177,-0.69469 -2.79031,-5.5768 0,-0.69854 -4.18357,-2.79033 -0.6947,-1.39324 c -2.30356,-10.8698 2.47488,-21.59186 5.50534,-32.1981 l 0.69468,-1.39709 4.36462,-11.8483 c 4.76722,-4.49415 6.29203,-7.81853 6.9739,-13.94392 5.04179,-11.83031 1.76362,-21.48851 7.66858,-30.67433 l 3.48501,-4.87825 c 2.78836,-2.09142 4.18164,-4.18355 9.06182,-4.18355 3.48545,0 4.18314,2.78991 7.66859,0.69854 l 3.48501,0 c 4.60235,-0.8342 7.74445,-1.26117 10.45891,-4.88211 l 0,-0.69856 c 0.69765,-0.69709 1.39324,-1.39217 1.39324,-2.78645 0,-1.39425 -1.3947,-1.39324 -2.09179,-1.39324 l -11.86789,-5.255 -3.48501,-5.57679 c -0.83373,-1.79665 -2.46412,-2.79033 -4.39747,-2.79033 -2.09126,-0.69709 -4.16594,-1.71505 -6.9543,-1.71505 l -1.17931,0 c -0.41251,-1.37507 -0.71014,-2.52736 -0.99573,-3.65097 -0.26168,-4.16294 0.54057,-8.18019 -1.7946,-11.68619 z"
         style="fill:#000000;fill-opacity:1;fill-rule:evenodd;stroke:none" />
    </g>
    <g
       id="layer1-50"
       inkscape:label="Layer 1"
       transform="matrix(0.43771905,0,0,0.43771905,425.75262,178.36256)"
       style="fill:#000000">
      <path
         style="fill:#000000;fill-opacity:1;fill-rule:evenodd;stroke:none"
         d="m 470.92625,341.97708 c 0,0 1.89937,0 1.89937,0 l 0,-1.89953 z m -32.2915,205.14925 1.89942,0 0,-1.89942 c 0,0 0,0 0,0 l 3.79884,-5.69821 c 0,-1.89942 0,-1.89942 0,-3.80035 0,0 0,-1.89937 0,-3.79879 0,0 -1.89942,0 -1.89942,-1.89942 -1.89942,-3.79884 0,-3.79884 -7.59763,-3.79884 0,0 0,-1.89937 0,-1.89937 0,0 0,0 -1.89942,0 1.89942,-1.89942 1.89942,-1.89942 1.89942,-1.89942 -1.89942,0 -1.89942,0 -1.89942,0 -3.80035,-9.49856 -1.89942,-22.79445 -1.89942,-36.0918 0,-7.59752 1.89942,-13.29616 3.79884,-20.89427 0,-1.89958 1.89937,-1.89958 1.89937,-3.79895 1.89942,0 3.79884,-1.89958 3.79884,-3.79917 3.79884,-1.89953 11.39647,-18.99528 7.59763,-24.69381 -1.89942,-3.79912 -1.89942,-5.6987 -3.79879,-7.59806 3.79879,-15.19634 1.89937,-30.39257 7.59763,-45.58874 1.90093,-3.79912 3.8003,-1.89953 5.69972,-1.89953 -1.89942,1.89953 -1.89942,1.89953 -1.89942,3.79895 0,1.89958 1.89942,5.69869 1.89942,7.59822 0,1.89942 0,3.799 1.89942,5.69853 0,0 0,0 0,1.89958 0,0 0,1.89959 0,1.89959 1.89942,0 1.89942,0 3.79884,0 0,1.89936 0,1.89936 0,1.89936 0,1.89958 0,3.79917 0,5.6987 1.89937,0 1.89937,-1.89953 3.79879,-1.89953 1.89942,3.79895 0,1.89953 5.69821,3.79895 0,1.89958 0,0 3.79884,0 3.80035,0 3.80035,1.89958 5.69977,1.89958 1.89937,-1.89958 1.89937,-1.89958 1.89937,-3.799 0,0 0,-1.89953 0,-1.89953 0,-3.79917 1.89942,-5.69853 1.89942,-7.59812 0,0 0,-1.89958 1.89942,-1.89958 3.79879,1.89958 5.69821,1.89958 9.49705,1.89958 1.89942,-5.69869 3.79879,-3.79911 3.79879,-13.29675 -1.89937,-1.89958 -1.89937,-5.69853 -3.79879,-7.59812 3.79879,-1.89958 3.79879,-3.79894 0,-5.69853 0,-1.89958 -1.89942,-1.89958 -3.79884,-3.79911 l 0,-1.89958 c 0,0 0,0 0,-1.89937 l 3.79884,0 c 0,0 -1.89942,-1.89958 -1.89942,-1.89958 -1.89942,-1.89958 -1.89942,-3.79911 -3.79884,-5.69869 0,-1.89942 0,-1.89942 0,-3.79895 -1.89937,-3.79911 -9.497,-5.69864 -13.29584,-11.39723 -1.90093,0 -3.80035,0 -5.69977,0 -5.69821,-1.89953 -11.39642,-3.79906 -17.09468,-5.69858 -1.89937,0 -3.8003,-1.89953 -5.69972,-1.89953 -7.59763,0 -13.29589,5.69858 -17.09468,7.59811 -7.59914,9.49764 -11.39798,7.59812 -17.09619,20.89487 -5.69826,7.59806 -9.49705,17.09576 -15.19682,22.79429 -1.8991,1.89953 -3.79868,1.89953 -3.79868,1.89953 -1.89937,0 -1.89937,1.89958 -3.79895,1.89958 -3.79911,1.89953 -7.59806,3.79895 -11.39722,5.69853 -3.79895,0 -5.69854,1.89953 -7.59806,1.89953 -20.89487,3.79917 -41.78958,7.59811 -62.68445,9.4977 -3.79916,1.89953 -3.79916,0 -7.59811,0 -5.69869,-5.69853 -9.49764,-9.4977 -13.29676,-13.29681 -1.89942,-3.79895 -3.799,-5.69853 -3.799,-11.39706 0,-11.39723 3.799,-22.7944 13.29665,-28.49293 5.69869,-1.89959 9.49764,-3.79911 9.49764,-9.4977 -11.39722,1.89953 -28.49293,7.59811 -32.29193,22.79429 -3.79911,15.19634 -1.89953,26.5934 3.799,37.99062 0,3.79912 1.89953,7.59812 3.79911,11.39723 0,1.89953 0,3.79895 0,3.79895 -9.49764,7.59828 -9.49764,17.09592 -9.49764,34.19162 1.89953,9.4977 5.69853,28.49282 1.89953,36.09029 -1.89953,1.90093 -3.79911,3.80035 -5.69869,7.59919 -3.79895,3.79879 -5.69854,1.89942 -9.49754,5.69821 -1.89953,-1.89942 -3.79906,-1.89942 -5.69859,-1.89942 -3.79905,7.59763 -5.69858,15.19682 -7.59811,24.69387 0,1.89937 0,3.79879 0,5.69821 0,0 1.89953,1.89942 1.89953,1.89942 0,0 -1.89953,1.89942 -1.89953,1.89942 1.89953,1.89937 1.89953,3.8003 1.89953,5.69972 1.89953,3.79884 1.89953,7.59763 1.89953,9.49705 1.89953,1.89942 1.89953,1.89942 1.89953,3.79884 7.59811,0 13.2967,-1.89942 20.89481,-1.89942 1.89953,0 1.89953,0 3.79911,0 0,-1.89942 0,-1.89942 0,-3.79884 0,-1.89942 0,-1.89942 0,-3.79879 -1.89958,-3.79884 -5.69869,-5.69826 -5.69869,-7.59919 0,-7.59763 1.89958,-11.39642 3.79911,-15.19526 1.89958,-1.89942 1.89958,-1.89942 3.799,-3.79879 0,0 0,0 0,0 5.69864,-1.89942 9.49764,-3.80035 13.29676,-5.69977 13.29659,-11.39647 15.19617,-9.49705 28.49292,-20.89352 5.69854,-9.4984 13.29665,-13.29735 17.09576,-26.59415 l 0,0 c 9.49764,3.79916 17.09576,7.59811 26.5934,11.39722 0,0 1.89958,0 3.799,0 5.69864,0 9.49765,1.89958 15.19634,1.89958 1.89937,1.89953 1.89937,1.89953 3.79895,1.89953 1.89953,0 1.89953,1.89942 3.79911,1.89942 0,0 1.89958,0 1.89958,1.89958 0,0 -1.89958,0 -1.89958,0 1.89958,1.8991 3.79895,3.79852 3.79895,5.69789 0,1.90093 0,1.90093 0,3.80035 0,5.69826 0,5.69826 0,9.49705 0,1.89942 0,1.89942 0,1.89942 0,1.89942 0,3.79879 0,5.69821 -1.89937,3.79884 0,1.89942 0,3.79884 1.89958,5.69972 1.89958,9.49856 1.89958,15.19677 3.79852,1.89942 5.69794,5.69826 7.59887,7.59763 1.89942,1.90093 5.69821,3.80035 7.59763,5.69977 1.89942,7.59763 18.99561,7.59763 24.69382,5.69821 z m -167.15878,-30.39203 0,0 0,0 z m 58.88549,-41.79022 0,0 c 0,0 0,0 0,0 z m 70.28207,9.49721 0,5.69972 m 0,0 c 0,0 0,0 0,0"
         id="path7924"
         inkscape:connector-curvature="0" />
    </g>
    <g
       id="layer1-33"
       inkscape:label="Layer 1"
       transform="matrix(0.30662465,0,0,0.30662465,235.0614,549.03188)"
       style="fill:#000000">
      <path
         sodipodi:nodetypes="cccccccccccccccccccccccccccccccccccccccccccccccccccccccccccccccccccccccccccccccccccc"
         inkscape:connector-curvature="0"
         id="path7998"
         d="m 564.30859,437.36523 c -4.14865,1.13342 -6.42872,2.5495 -9.21774,4.85642 -3.31233,2.41138 -7.28667,2.84404 -8.85711,7.0904 -4.8212,1.15278 -4.79774,6.78856 -5.68618,10.36239 -0.4391,4.24702 -2.80968,5.92749 -4.49359,9.47934 -2.43532,3.03608 -2.6411,6.68244 -3.73952,10.32889 -5.07569,0.77141 -1.42579,6.22563 -3.84385,9.20112 -1.52315,4.56381 0.47367,10.19432 -1.01256,14.61989 -3.75806,2.07798 -9.11505,1.21902 -13.50499,2.19471 -4.15097,0.73103 -7.20952,4.48441 -11.86651,4.04712 -12.86213,1.23501 -25.91265,0.19226 -38.84845,0.53652 -8.90108,0.3046 -17.99892,-0.60267 -26.77998,0.44125 -3.83083,1.17422 -7.25512,1.72072 -9.86907,4.93455 -3.22441,1.1123 -6.53106,4.12868 -10.62224,3.35076 -3.63938,-1.90994 -6.958,-5.37105 -7.27149,-9.36365 2.02103,-1.47065 3.38458,-6.37837 5.81641,-8.78491 -0.63002,-4.48018 5.8451,-2.56438 8.25774,-4.65215 0.49958,-3.13157 7.82442,-4.56549 9.71282,-1.40451 3.37284,3.09961 8.68879,-0.43803 8.20717,-4.82237 0.0526,-4.97401 -2.16139,-10.13763 -7.27148,-11.69311 -0.86987,-5.19577 -6.66296,-3.29182 -9.40122,-5.98734 -6.73232,-0.94655 -11.483,-7.23715 -18.80839,-5.64743 -4.60612,-0.32983 -8.9475,0.0629 -13.15604,1.74392 -9.618,0.41198 -18.70466,8.27802 -19.71638,17.79943 1.85676,4.79642 -3.32573,6.67847 -2.90821,10.87903 4.5893,1.16345 1.92306,6.4827 5.02435,9.3751 1.16606,3.85266 5.39406,6.75932 7.30781,9.64979 4.23084,2.16102 6.63135,3.73124 12.21155,2.9082 2.67352,-1.43395 8.81229,-3.18593 9.39864,0.49313 3.10107,2.87311 5.68523,5.959 5.32523,10.26531 0.81066,4.75009 -6.39598,4.43783 -5.81836,9.60289 -2.28748,3.96342 -5.66124,7.60675 -7.49319,11.55673 0.0437,4.56845 -1.75291,8.13544 -4.16808,10.66283 -0.143,11.08155 7.97973,20.28969 7.85875,31.40592 0.23749,4.99298 -2.05193,9.81534 -1.72154,15.38706 -0.73382,3.92377 0.19284,8.96063 -1.51005,12.23479 -3.68847,1.51322 -3.5366,5.91038 -5.06228,9.4761 -2.97168,4.41653 -7.51472,8.26095 -10.15696,12.64612 2.71318,4.49289 -5.87748,8.09262 0,9.48425 -0.0951,4.94489 4.32527,6.05424 4.36328,10.06104 3.34605,2.10257 6.43076,3.46821 9.59222,6.02977 3.09632,3.62629 7.49763,2.83789 11.8663,2.81544 4.43418,0.089 11.48812,1.0208 11.9907,-5.06067 3.04682,-8.71679 -1.11619,-19.12888 -6.34515,-27.01801 -3.48881,-8.40526 5.67942,-16.10656 12.66238,-19.46977 3.06172,-2.13368 8.21092,-3.03979 9.2884,-6.3516 5.14492,-0.99561 2.47761,-7.07473 7.27165,-8.72624 2.85487,-1.88922 3.59924,-5.95057 5.50598,-9.03699 0.15271,-4.55537 3.8977,-5.54395 4.05173,-9.43906 -0.65159,-5.07147 2.42064,-9.5389 1.45313,-14.66161 0.97676,-4.97732 4.09087,-4.78306 9.12636,-4.36329 3.83969,0.4095 7.12069,2.05488 10.40365,3.22009 4.80745,-0.13615 4.47672,6.55401 9.43924,5.50452 2.79114,2.31532 5.58983,4.61696 8.84325,5.81836 2.83277,2.05546 7.16976,2.73063 10.18164,4.36328 2.60896,3.25233 6.40885,3.62952 10.06104,4.36329 4.47706,-0.21735 3.50407,0.19813 8.08985,-0.68974 4.98692,-1.49255 2.67398,5.01842 2.80648,7.9351 0.0261,4.57101 5.20688,5.75735 5.40277,9.96491 12.43783,8.0079 4.58684,25.75736 4.58684,25.75736 -3.00128,2.9887 -10.84411,14.21708 -11.55661,18.15382 0.0751,9.80543 4.14421,14.4563 19.74166,21.16482 4.73776,-0.36113 10.06496,0.70211 14.45769,-0.4928 4.46971,-2.78092 5.36935,-10.294 5.53381,-14.51329 -1.66382,-11.72836 -6.50833,-14.82754 -5.06812,-25.81513 0.33703,-13.03835 3.66552,-22.92181 13.15495,-31.91779 2.75502,-7.25487 3.10509,-14.99825 4.05331,-22.45816 0.0571,-4.18066 6.13036,-5.8695 7.27149,-9.60095 0.0774,-4.16635 4.08372,-6.37118 4.36328,-10.12134 -0.0117,-4.01569 -0.46074,-8.13467 1.45508,-11.69506 l 0,-21.11707 c -5.0955,-4.3007 2.70422,-5.25066 2.9082,-8.66626 2.91676,-2.50098 4.37082,-6.24633 4.36328,-10.12134 -1.66728,-4.7152 6.0699,-3.51895 8.25708,-2.04189 3.92585,1.67814 7.55002,-0.41215 11.06563,-1.92206 3.93509,-0.35954 4.20652,-6.10166 8.80128,-5.37439 3.37151,-4.1708 -0.70277,-7.1986 -4.38693,-7.76527 -2.92067,-2.44195 -6.23068,-3.94283 -9.19409,-6.28457 -4.39324,-1.33291 -7.15351,-3.67489 -5.81836,-8.54761 4.8537,-0.3754 5.43374,-4.19065 7.27344,-7.45044 4.47858,-5.29986 -0.25386,-9.93517 -1.45508,-15.24231 -1.49377,-3.35846 -5.28089,-5.95561 -8.2584,-7.55969 -6.05922,-2.95732 -12.70541,-5.15476 -19.31607,-6.28589 z"
         style="fill:#000000;fill-opacity:1;fill-rule:evenodd;stroke:none" />
    </g>
    <flowRoot
       xml:space="preserve"
       id="flowRoot9663"
       style="fill:#000000;stroke:none;stroke-opacity:1;stroke-width:1px;stroke-linejoin:miter;stroke-linecap:butt;fill-opacity:1;font-family:Pristina;font-style:normal;font-weight:normal;font-size:40px;line-height:125%;letter-spacing:0px;word-spacing:0px;-inkscape-font-specification:Pristina;font-stretch:normal;font-variant:normal;"><flowRegion
         id="flowRegion9665"><rect
           id="rect9667"
           width="257.14285"
           height="85.714287"
           x="-225.71428"
           y="265.21936"
           style="-inkscape-font-specification:Pristina;font-family:Pristina;font-weight:normal;font-style:normal;font-stretch:normal;font-variant:normal;fill:#000000;" /></flowRegion><flowPara
         id="flowPara9669" /></flowRoot>    <text
       xml:space="preserve"
       style="font-style:normal;font-weight:normal;font-size:40px;line-height:125%;font-family:sans-serif;letter-spacing:0px;word-spacing:0px;fill:#000000;fill-opacity:1;stroke:none;stroke-width:1px;stroke-linecap:butt;stroke-linejoin:miter;stroke-opacity:1;"
       x="-59.598999"
       y="287.67673"
       id="text9683"
       sodipodi:linespacing="125%"><tspan
         sodipodi:role="line"
         id="tspan9685"
         x="-59.598999"
         y="287.67673" /></text>
    <g
       id="layer1-38"
       inkscape:label="Layer 1"
       transform="matrix(0.27105649,0,0,0.27105649,503.83113,546.83704)">
      <g
         transform="translate(-287.78119,485.939)"
         id="g10366">
        <path
           sodipodi:nodetypes="cccccsccccccccccccccccccccccccccccccscscccccc"
           inkscape:connector-curvature="0"
           id="path9906"
           d="m 472.06361,77.032762 3.44753,14.624855 c -16.3217,15.048763 -19.42598,27.755553 -19.41475,42.598243 -1.67956,9.10591 2.45904,18.53954 2.44348,26.3465 -1.04085,28.33791 0.035,36.76383 -22.54159,51.9429 -4.54889,8.66535 -0.1256,15.08766 0,22.58439 0.10973,6.54951 -4.67055,22.73423 -6.76189,27.10253 2.61957,11.47397 -4.95902,4.17792 2.61957,11.47397 0.71353,11.62694 13.83999,8.85443 24.42793,8.85443 l 0,-4.51811 2.25598,-4.5181 c -11.65483,-24.5764 10.88812,-52.78367 29.86596,-64.92863 13.01696,-7.68866 16.99118,-26.9988 26.85793,-34.06612 l 1.87694,-2.63506 6.76188,0 c 15.67081,3.07089 18.65505,13.54821 33.81545,13.54821 11.63552,0 0,-11.21376 22.53549,-9.03011 24.53976,7.5887 46.82758,6.62609 72.13069,9.79224 l 0,69.25319 c 12.12166,4.39646 2.90602,10.67715 9.01787,20.3284 l 9.01787,6.77409 11.26774,0 c 1.20501,-6.08437 5.35382,-8.44186 -4.66434,-21.86025 1.14779,-13.84858 -1.49672,-24.98237 2.46845,-40.1724 4.64986,-22.89212 2.55059,-22.66949 9.99298,-38.34304 13.25616,-12.95078 22.02302,-41.40549 21.50639,-55.45911 l 4.51197,-15.81033 c 6.13364,-16.750544 4.37268,-18.09116 11.26775,-33.882688 2.8955,-1.629931 2.34276,-1.923269 6.78022,-1.968658 9.33368,-0.660042 15.91928,-4.805463 22.52326,-4.805463 l 4.0229,-0.482969 c 5.18526,-3.488211 8.37892,-7.993756 11.75685,-13.06521 1.35208,-9.410562 0.002,-11.616225 0,-17.415031 l 0.51713,-2.396243 c 0.41688,-1.460323 -2.41895,-2.610137 -5.02913,-2.773147 l -22.5416,-4.518073 c -3.53503,-0.775006 -7.37797,-0.673476 -7.41561,-3.120201 0,0 -3.1693,-3.551083 -3.85214,-5.916009 -9.74654,-6.176396 -30.50321,-9.471508 -36.94719,-8.999698 -15.0644,1.102973 -21.76022,14.009598 -26.16563,24.809998 -5.99409,28.95809 -42.69959,35.905236 -58.60696,45.168777 l -4.50587,2.26212 c -49.539,5.754111 -103.32213,-6.370545 -117.71593,-1.572614 -29.88106,-59.921935 1.19335,-113.512001 7.26389,-124.909811 -35.97357,5.090626 -37.39621,93.233229 -24.79147,119.702232 z"
           style="fill:#000000;fill-rule:evenodd" />
      </g>
    </g>
  </g>
</svg>
