<?xml version="1.0" encoding="UTF-8" standalone="no"?>
<svg
   xmlns:dc="http://purl.org/dc/elements/1.1/"
   xmlns:cc="http://creativecommons.org/ns#"
   xmlns:rdf="http://www.w3.org/1999/02/22-rdf-syntax-ns#"
   xmlns:svg="http://www.w3.org/2000/svg"
   xmlns="http://www.w3.org/2000/svg"
   xmlns:sodipodi="http://sodipodi.sourceforge.net/DTD/sodipodi-0.dtd"
   xmlns:inkscape="http://www.inkscape.org/namespaces/inkscape"
   id="svg6908"
   viewBox="0 0 778.59 963"
   version="1.1"
   sodipodi:docname="gohweli-Lined-Paper.svg"
   inkscape:version="0.92.1 r15371">
  <sodipodi:namedview
     pagecolor="#ffffff"
     bordercolor="#666666"
     borderopacity="1"
     objecttolerance="10"
     gridtolerance="10"
     guidetolerance="10"
     inkscape:pageopacity="0"
     inkscape:pageshadow="2"
     inkscape:window-width="640"
     inkscape:window-height="480"
     id="namedview56"
     showgrid="false"
     inkscape:zoom="0.79231568"
     inkscape:cx="389.04827"
     inkscape:cy="481.40606"
     inkscape:current-layer="svg6908" />
  <defs
     id="defs6910">
    <clipPath
       id="clipPath3296"
       clipPathUnits="userSpaceOnUse">
      <rect
         id="rect3298"
         opacity=".5"
         style="color:#000000"
         ry="0"
         height="962"
         width="777.6"
         stroke="#000"
         y="-4.9493"
         x="-4.4"
         fill="#fdfdfd" />
    </clipPath>
  </defs>
  <g
     id="layer2"
     transform="translate(4.9062 5.4375)"
     style="">
    <path
       id="rect6916"
       d="m -0.84375,-0.15625 v 951.16 h 768.25 v -951.16 z m 53.156,100.41 c 7.9927,0 14.478,6.4761 14.5,14.469 v 0.0312 c 0,8.0081 -6.4919,14.5 -14.5,14.5 -8.0081,0 -14.5,-6.4919 -14.5,-14.5 0,-8.0081 6.4919,-14.5 14.5,-14.5 z m 0,360.66 c 7.9927,0 14.478,6.4761 14.5,14.469 v 0.0312 c 0,8.0081 -6.4919,14.5 -14.5,14.5 -8.0081,0 -14.5,-6.4919 -14.5,-14.5 0,-8.0081 6.4919,-14.5 14.5,-14.5 z m 0,371.34 c 7.9927,0 14.478,6.4761 14.5,14.469 v 0.0312 c 0,8.0081 -6.4919,14.5 -14.5,14.5 -8.0081,0 -14.5,-6.4919 -14.5,-14.5 0,-8.0081 6.4919,-14.5 14.5,-14.5 z"
       clip-path="url(#clipPath3296)"
       filter=""
       style="fill:#ffffff;stroke:#666666"
       inkscape:connector-curvature="0" />
  </g>
  <g
     id="layer4"
     transform="translate(4.9062 5.4375)">
    <path
       id="path3131"
       opacity=".25"
       d="m650.78 0.10525v952.35"
       stroke="#f00"
       stroke-width="1px"
       fill="none" />
  </g>
  <g
     id="layer1"
     stroke="#01f"
     stroke-width=".75"
     transform="translate(6.1875 -334.48)"
     fill="none">
    <path
       id="path3000"
       d="m-1.2887 838.78h767.58" />
    <path
       id="path3002"
       d="m-1.2887 813.8h37.763m29.082 0h700.73" />
    <path
       id="path3004"
       d="m-1.2887 788.82h767.58" />
    <path
       id="path3006"
       d="m-1.2887 763.84h767.58" />
    <path
       id="path3008"
       d="m-1.2887 738.85h767.58" />
    <path
       id="path3010"
       d="m-1.2887 713.87h767.58" />
    <path
       id="path3012"
       d="m-1.2887 688.89h767.58" />
    <path
       id="path3014"
       d="m-1.2887 663.91h767.58" />
    <path
       id="path3016"
       d="m-1.2887 638.93h767.58" />
    <path
       id="path7513"
       d="m-1.2887 439.09h767.58" />
    <path
       id="path7515"
       d="m-1.2887 464.07h40.824m22.449 0h704.3" />
    <path
       id="path7517"
       d="m-1.2887 489.05h767.58" />
    <path
       id="path7519"
       d="m-1.2887 514.03h767.58" />
    <path
       id="path7521"
       d="m-1.2887 539.01h767.58" />
    <path
       id="path7523"
       d="m-1.2887 563.99h767.58" />
    <path
       id="path7525"
       d="m-1.2887 588.97h767.58" />
    <path
       id="path7527"
       d="m-1.2887 613.95h767.58" />
    <path
       id="path3029"
       d="m-1.2887 863.76h767.58" />
    <path
       id="path3044"
       d="m-1.2887 888.74h767.58" />
    <path
       id="path3046"
       d="m-1.2887 913.72h767.58" />
    <path
       id="path3078"
       d="m-1.2887 1013.6h767.58" />
    <path
       id="path3080"
       d="m-1.2887 1038.6h767.58" />
    <path
       id="path3082"
       d="m-1.2887 1063.6h767.58" />
    <path
       id="path3084"
       d="m-1.2887 1088.6h767.58" />
    <path
       id="path3086"
       d="m-1.2887 1113.6h767.58" />
    <path
       id="path3088"
       d="m-1.2887 1138.5h767.58" />
    <path
       id="path3090"
       d="m-1.2887 1163.5h767.58" />
    <path
       id="path3092"
       d="m-1.2887 1188.5h37.908m28.79 0h700.88" />
    <path
       id="path3094"
       d="m-1.2887 1213.5h767.58" />
    <path
       id="path3096"
       d="m-1.2887 1238.5h767.58" />
    <path
       id="path3098"
       d="m-1.2887 988.66h767.58" />
    <path
       id="path3100"
       d="m-1.2887 963.68h767.58" />
    <path
       id="path3102"
       d="m-1.2887 938.7h767.58" />
    <path
       id="path3106"
       d="m-1.2887 1263.4h767.58" />
  </g>
  <g
     id="layer3"
     transform="translate(4.9062 5.4375)">
    <path
       id="path3135"
       d="m110.95 0.10525v952.35"
       stroke="#f00"
       stroke-width="1px"
       fill="#00f" />
  </g>
  <metadata
     id="metadata53">
    <rdf:RDF>
      <cc:Work>
        <dc:format>image/svg+xml</dc:format>
        <dc:type
           rdf:resource="http://purl.org/dc/dcmitype/StillImage" />
        <cc:license
           rdf:resource="http://creativecommons.org/licenses/publicdomain/" />
        <dc:publisher>
          <cc:Agent
             rdf:about="http://openclipart.org/">
            <dc:title>Openclipart</dc:title>
          </cc:Agent>
        </dc:publisher>
        <dc:title>Lined Paper</dc:title>
        <dc:date>2013-06-14T04:56:27</dc:date>
        <dc:description>Multi-Layered Lined Loose Leaf Notebook Paper with 3 holes punched in it.</dc:description>
        <dc:source>https://openclipart.org/detail/179319/lined-paper-by-mrsmiles-179319</dc:source>
        <dc:creator>
          <cc:Agent>
            <dc:title>MrSmiles</dc:title>
          </cc:Agent>
        </dc:creator>
        <dc:subject>
          <rdf:Bag>
            <rdf:li>lined paper</rdf:li>
            <rdf:li>loose leaf paper</rdf:li>
            <rdf:li>paper</rdf:li>
            <rdf:li>template</rdf:li>
            <rdf:li>templates</rdf:li>
          </rdf:Bag>
        </dc:subject>
      </cc:Work>
      <cc:License
         rdf:about="http://creativecommons.org/licenses/publicdomain/">
        <cc:permits
           rdf:resource="http://creativecommons.org/ns#Reproduction" />
        <cc:permits
           rdf:resource="http://creativecommons.org/ns#Distribution" />
        <cc:permits
           rdf:resource="http://creativecommons.org/ns#DerivativeWorks" />
      </cc:License>
    </rdf:RDF>
  </metadata>
</svg>
