<?xml version="1.0" encoding="UTF-8" standalone="no"?>
<!-- Created with Inkscape (http://www.inkscape.org/) -->

<svg
   xmlns:a="http://ns.adobe.com/AdobeSVGViewerExtensions/3.0/"
   xmlns:dc="http://purl.org/dc/elements/1.1/"
   xmlns:cc="http://creativecommons.org/ns#"
   xmlns:rdf="http://www.w3.org/1999/02/22-rdf-syntax-ns#"
   xmlns:svg="http://www.w3.org/2000/svg"
   xmlns="http://www.w3.org/2000/svg"
   xmlns:sodipodi="http://sodipodi.sourceforge.net/DTD/sodipodi-0.dtd"
   xmlns:inkscape="http://www.inkscape.org/namespaces/inkscape"
   id="Layer_6"
   xml:space="preserve"
   version="1.0"
   viewBox="0 0 258.281 322.06"
   inkscape:version="0.92.1 r15371"
   sodipodi:docname="gulezeimusu-Acorn.svg"
   width="275.49973"
   height="343.53067"><defs
     id="defs40" /><sodipodi:namedview
     pagecolor="#ffffff"
     bordercolor="#666666"
     borderopacity="1"
     objecttolerance="10"
     gridtolerance="10"
     guidetolerance="10"
     inkscape:pageopacity="0"
     inkscape:pageshadow="2"
     inkscape:window-width="640"
     inkscape:window-height="480"
     id="namedview38"
     showgrid="false"
     inkscape:zoom="2.2210535"
     inkscape:cx="137.74986"
     inkscape:cy="171.76534"
     inkscape:current-layer="Layer_6" /><g
     id="g9"><g
       id="g11"><polygon
         id="polygon13"
         style="fill:#df7000"
         points="175.21,77.021 237.09,18.056 211.81,0 163.53,65.715 " /><path
         id="path17"
         style="fill:none;stroke:#9f4400;stroke-width:16.25200081;stroke-linecap:round;stroke-linejoin:round"
         d="m 182.51,77.258 c 0.11,-0.164 -17.8,-12.519 -17.61,-12.789 0.56,-0.77 23.74,-15.145 24.27,-15.864 0.2,-0.276 -5.05,-2.966 -4.71,-3.424 0.29,-0.402 27.37,-14.33 27.86,-15.013 0.4,-0.549 -7.9,-4.691 -7.4,-5.377"
         inkscape:connector-curvature="0" /></g><g
       id="g19"><g
         id="g21"><path
           id="path23"
           style="fill:#df7000"
           d="m 244.31,153.49 c 1.81,32.5 -45.73,72.23 -111.06,72.23 C 67.93,225.72 24,180.69 24,131.82 24.002,82.951 77.877,49.169 143.18,50.56 c 84.88,1.807 98.43,54.38 101.13,102.93 z"
           inkscape:connector-curvature="0" /><path
           id="path27"
           style="fill:none;stroke:#df7000;stroke-width:37.92200089;stroke-linecap:round;stroke-linejoin:round"
           d="M 32.078,113.51 C 48.539,127.32 45.547,64.031 62.008,77.843 74.205,88.078 20.502,115.17 32.7,125.41 54.756,143.91 60.719,47.222 82.775,65.729 100.55,80.644 19.15,118.09 36.924,133 63.21,155.06 71.353,38.592 97.639,60.648 120.14,79.528 15.326,125.7 37.826,144.58 67.532,169.5 74.15,40.96 103.86,65.885 127.6,85.81 16.619,134.27 40.365,154.2 72.903,181.5 86.676,32.93 119.21,60.23 147.93,84.323 12.36,141.92 41.068,166.01 76,195.32 93.322,32.8 128.25,62.11 157.57,86.707 19,145.4 48.318,170 85.259,201 105.07,27.35 142.01,58.35 174.58,85.68 19.9,150.36 52.474,177.69 91.091,210.1 107.03,34.25 145.64,66.65 178.94,94.591 20.69,160.59 53.983,188.52 93.97,222.07 123.64,24.3 163.633,57.85 c 36.99,31.042 -139.57,103.83 -102.57,134.88 41.03,34.43 67.61,-163.91 108.64,-129.48 34.75,29.163 -130.72,97.84 -95.965,127.01 41.765,35.04 55.985,-151.55 97.755,-116.5 35.88,30.1 -135.18,100.86 -99.293,130.97 42.203,35.41 72.013,-171.54 114.22,-136.12 34.83,29.229 -131.05,98.07 -96.212,127.3 42.312,35.51 61.382,-159.08 103.69,-123.58 38.24,32.09 -144.47,107.16 -106.24,139.24 42.09,35.31 69.45,-168.22 111.53,-132.91 36.29,30.44 -136.78,101.94 -100.49,132.39 41.52,34.83 71.77,-169.85 113.29,-135.01 38.09,31.96 -143.9,106.77 -105.81,138.73 40.61,34.07 68.3,-163.87 108.91,-129.79 33.99,28.52 -127.71,95.81 -93.72,124.33 39.32,33 51.55,-141.29 90.88,-108.3 29.85,25.05 -111.35,84.72 -81.5,109.77 37.65,31.59 51.2,-137.47 88.84,-105.88 29.92,25.1 -111.61,84.91 -81.7,110.01 35.57,29.85 56,-138.98 91.57,-109.13 29.15,24.45 -108.56,82.84 -79.42,107.29 33.08,27.76 51.74,-128.85 84.82,-101.09 27.81,23.34 -103.28,79.27 -75.47,102.6 30.14,25.3 39.35,-108.11 69.49,-82.82 20.6,17.29 -74.82,59.96 -54.22,77.24 26.7,22.41 30.96,-91.12 57.66,-68.71 18.65,15.65 -67.1,54.71 -48.44,70.36 22.67,19.03 30.71,-82.65 53.39,-63.63 14,11.75 -48.67,42.21 -34.67,53.96 17.84,14.97 11.96,-50.49 29.8,-35.52"
           inkscape:connector-curvature="0" /><path
           id="path31"
           style="fill:none;stroke:#9f4400;stroke-width:16.25200081;stroke-linecap:round;stroke-linejoin:round"
           d="M 41.865,91.719 C 42.718,92.7 72.905,62.283 74.12,63.68 c 1.472,1.694 -40.069,66.66 -39.415,67.41 0.921,1.06 86.465,-78.242 87.985,-76.487 1.44,1.654 -86.392,110.2 -84.917,111.89 2.64,3.04 129.62,-119.24 132.87,-115.5 1.11,1.27 -117.05,127.33 -113.72,131.16 3.891,4.48 137.54,-127.76 141.6,-123.08 1.94,2.229 -125.92,137.74 -121.93,142.33 4.104,4.73 138.77,-128.19 142.52,-123.89 3.88,4.466 -118.84,136.27 -117.27,138.07 1.71,1.97 118.88,-111.29 122.81,-106.76 2.14,2.46 -89.05,104.88 -85.92,108.48 3.14,3.61 96.45,-84.88 96.97,-84.29 1.48,1.71 -64.06,89.37 -63.07,90.5 1.19,1.37 68.63,-61.3 69.44,-60.36"
           inkscape:connector-curvature="0" /><path
           id="path35"
           style="fill:none;stroke:#9f4400;stroke-width:16.25200081;stroke-linecap:round;stroke-linejoin:round"
           d="m 79.894,211.43 c 0.279,-0.39 -39.131,-27.18 -38.533,-28 2.003,-2.75 103.41,44.78 104.9,42.73 0.44,-0.6 -112.76,-76.17 -110.03,-79.93 2.929,-4.03 143.33,70.27 144.34,68.88 0.98,-1.36 -152.95,-107.3 -151.13,-109.8 3.764,-5.18 180.5,102.39 181.79,100.62 3.61,-4.97 -166.52,-112.49 -162.48,-118.05 2.575,-3.541 165.97,96 169.04,91.78 3.5,-4.82 -158.74,-112.72 -157.5,-114.43 2.077,-2.853 181.07,102.14 183.41,98.92 1.65,-2.27 -151.62,-107.05 -150.14,-109.08 1.38,-1.903 138.85,72.37 140.75,69.74 1.09,-1.5 -98.2,-70.388 -97.75,-71.016 0.35,-0.472 85.11,32.895 86.71,30.692 0.77,-1.06 -41.58,-28.94 -40.97,-29.769"
           inkscape:connector-curvature="0" /></g><g
         id="g37"
         style="opacity:0.75"><path
           id="path39"
           style="fill:#60410f"
           d="m 244.31,153.49 c 1.81,32.5 -45.73,72.23 -111.06,72.23 C 67.93,225.72 24,180.69 24,131.82 24.002,82.951 77.877,49.169 143.18,50.56 c 84.88,1.807 98.43,54.38 101.13,102.93 z"
           inkscape:connector-curvature="0" /><path
           id="path43"
           style="fill:none;stroke:#60410f;stroke-width:37.92200089;stroke-linecap:round;stroke-linejoin:round"
           d="M 32.078,113.51 C 48.539,127.32 45.547,64.031 62.008,77.843 74.205,88.078 20.502,115.17 32.7,125.41 54.756,143.91 60.719,47.222 82.775,65.729 100.55,80.644 19.15,118.09 36.924,133 63.21,155.06 71.353,38.592 97.639,60.648 120.14,79.528 15.326,125.7 37.826,144.58 67.532,169.5 74.15,40.96 103.86,65.885 127.6,85.81 16.619,134.27 40.365,154.2 72.903,181.5 86.676,32.93 119.21,60.23 147.93,84.323 12.36,141.92 41.068,166.01 76,195.32 93.322,32.8 128.25,62.11 157.57,86.707 19,145.4 48.318,170 85.259,201 105.07,27.35 142.01,58.35 174.58,85.68 19.9,150.36 52.474,177.69 91.091,210.1 107.03,34.25 145.64,66.65 178.94,94.591 20.69,160.59 53.983,188.52 93.97,222.07 123.64,24.3 163.633,57.85 c 36.99,31.042 -139.57,103.83 -102.57,134.88 41.03,34.43 67.61,-163.91 108.64,-129.48 34.75,29.163 -130.72,97.84 -95.965,127.01 41.765,35.04 55.985,-151.55 97.755,-116.5 35.88,30.1 -135.18,100.86 -99.293,130.97 42.203,35.41 72.013,-171.54 114.22,-136.12 34.83,29.229 -131.05,98.07 -96.212,127.3 42.312,35.51 61.382,-159.08 103.69,-123.58 38.24,32.09 -144.47,107.16 -106.24,139.24 42.09,35.31 69.45,-168.22 111.53,-132.91 36.29,30.44 -136.78,101.94 -100.49,132.39 41.52,34.83 71.77,-169.85 113.29,-135.01 38.09,31.96 -143.9,106.77 -105.81,138.73 40.61,34.07 68.3,-163.87 108.91,-129.79 33.99,28.52 -127.71,95.81 -93.72,124.33 39.32,33 51.55,-141.29 90.88,-108.3 29.85,25.05 -111.35,84.72 -81.5,109.77 37.65,31.59 51.2,-137.47 88.84,-105.88 29.92,25.1 -111.61,84.91 -81.7,110.01 35.57,29.85 56,-138.98 91.57,-109.13 29.15,24.45 -108.56,82.84 -79.42,107.29 33.08,27.76 51.74,-128.85 84.82,-101.09 27.81,23.34 -103.28,79.27 -75.47,102.6 30.14,25.3 39.35,-108.11 69.49,-82.82 20.6,17.29 -74.82,59.96 -54.22,77.24 26.7,22.41 30.96,-91.12 57.66,-68.71 18.65,15.65 -67.1,54.71 -48.44,70.36 22.67,19.03 30.71,-82.65 53.39,-63.63 14,11.75 -48.67,42.21 -34.67,53.96 17.84,14.97 11.96,-50.49 29.8,-35.52"
           inkscape:connector-curvature="0" /><path
           id="path47"
           style="fill:none;stroke:#60410f;stroke-width:16.25200081;stroke-linecap:round;stroke-linejoin:round"
           d="M 41.865,91.719 C 42.718,92.7 72.905,62.283 74.12,63.68 c 1.472,1.694 -40.069,66.66 -39.415,67.41 0.921,1.06 86.465,-78.242 87.985,-76.487 1.44,1.654 -86.392,110.2 -84.917,111.89 2.64,3.04 129.62,-119.24 132.87,-115.5 1.11,1.27 -117.05,127.33 -113.72,131.16 3.891,4.48 137.54,-127.76 141.6,-123.08 1.94,2.229 -125.92,137.74 -121.93,142.33 4.104,4.73 138.77,-128.19 142.52,-123.89 3.88,4.466 -118.84,136.27 -117.27,138.07 1.71,1.97 118.88,-111.29 122.81,-106.76 2.14,2.46 -89.05,104.88 -85.92,108.48 3.14,3.61 96.45,-84.88 96.97,-84.29 1.48,1.71 -64.06,89.37 -63.07,90.5 1.19,1.37 68.63,-61.3 69.44,-60.36"
           inkscape:connector-curvature="0" /><path
           id="path51"
           style="fill:none;stroke:#60410f;stroke-width:16.25200081;stroke-linecap:round;stroke-linejoin:round"
           d="m 79.894,211.43 c 0.279,-0.39 -39.131,-27.18 -38.533,-28 2.003,-2.75 103.41,44.78 104.9,42.73 0.44,-0.6 -112.76,-76.17 -110.03,-79.93 2.929,-4.03 143.33,70.27 144.34,68.88 0.98,-1.36 -152.95,-107.3 -151.13,-109.8 3.764,-5.18 180.5,102.39 181.79,100.62 3.61,-4.97 -166.52,-112.49 -162.48,-118.05 2.575,-3.541 165.97,96 169.04,91.78 3.5,-4.82 -158.74,-112.72 -157.5,-114.43 2.077,-2.853 181.07,102.14 183.41,98.92 1.65,-2.27 -151.62,-107.05 -150.14,-109.08 1.38,-1.903 138.85,72.37 140.75,69.74 1.09,-1.5 -98.2,-70.388 -97.75,-71.016 0.35,-0.472 85.11,32.895 86.71,30.692 0.77,-1.06 -41.58,-28.94 -40.97,-29.769"
           inkscape:connector-curvature="0" /></g></g><g
       id="g53"><g
         id="g55"><radialGradient
           id="XMLID_1_"
           gradientUnits="userSpaceOnUse"
           cy="180.58"
           cx="70.953003"
           r="142.28"><stop
             id="stop58"
             style="stop-color:#ffff8f"
             offset="0" /><stop
             id="stop60"
             style="stop-color:#df8800"
             offset="1" /><a:midPointStop
             style="stop-color:#FFFF8F"
             offset="0" /><a:midPointStop
             style="stop-color:#FFFF8F"
             offset="0.5" /><a:midPointStop
             style="stop-color:#DF8800"
             offset="1" /></radialGradient><path
           id="path62"
           style="fill:url(#XMLID_1_)"
           d="M 189.92,245.3 C 151.09,307.47 82.93,334.97 37.67,306.71 -7.587,278.45 -12.8,205.14 26.024,142.96 64.85,80.784 123.21,76.48 168.474,104.74 c 45.25,28.26 60.27,78.38 21.45,140.56 z"
           inkscape:connector-curvature="0" /></g><mask
         id="XMLID_2_" /><g
         id="g74"
         style="opacity:0.75"
         mask="url(#XMLID_2_)"><path
           id="path76"
           style="fill:#c6881a"
           d="M 189.92,245.3 C 151.09,307.47 82.93,334.97 37.67,306.71 -7.587,278.45 -12.8,205.14 26.024,142.96 64.85,80.784 123.21,76.48 168.474,104.74 c 45.25,28.26 60.27,78.38 21.45,140.56 z"
           inkscape:connector-curvature="0" /></g></g><g
       id="g78"><g
         id="g80"><radialGradient
           id="XMLID_3_"
           gradientUnits="userSpaceOnUse"
           cy="291.54999"
           cx="-204.91"
           gradientTransform="matrix(0.8479,0.5302,-0.5302,0.8479,368.28,168.14)"
           r="15.996"><stop
             id="stop83"
             style="stop-color:#ffff8f"
             offset="0" /><stop
             id="stop85"
             style="stop-color:#df8800"
             offset="1" /><a:midPointStop
             style="stop-color:#FFFF8F"
             offset="0" /><a:midPointStop
             style="stop-color:#FFFF8F"
             offset="0.5" /><a:midPointStop
             style="stop-color:#DF8800"
             offset="1" /></radialGradient><path
           id="path87"
           style="fill:url(#XMLID_3_)"
           d="m 55.607,312.4 c -6.534,5.4 -15.046,11.51 -18.85,9.13 -3.804,-2.38 -3.386,-10.83 -2.819,-19.29 0.672,-10.08 11.094,-2.37 14.897,0 3.804,2.38 14.657,3.64 6.772,10.16 z"
           inkscape:connector-curvature="0" /></g><mask
         id="XMLID_4_" /><g
         id="g99"
         style="opacity:0.75"
         mask="url(#XMLID_4_)"><path
           id="path101"
           style="fill:#c6881a"
           d="m 55.607,312.4 c -6.534,5.4 -15.046,11.51 -18.85,9.13 -3.804,-2.38 -3.386,-10.83 -2.819,-19.29 0.672,-10.08 11.094,-2.37 14.897,0 3.804,2.38 14.657,3.64 6.772,10.16 z"
           inkscape:connector-curvature="0" /></g></g></g><metadata
     id="metadata35"><rdf:RDF><cc:Work><dc:format>image/svg+xml</dc:format><dc:type
           rdf:resource="http://purl.org/dc/dcmitype/StillImage" /><cc:license
           rdf:resource="http://creativecommons.org/licenses/publicdomain/" /><dc:publisher><cc:Agent
             rdf:about="http://openclipart.org/"><dc:title>Openclipart</dc:title></cc:Agent></dc:publisher><dc:title>Acorn</dc:title><dc:date>2007-02-24T08:20:24</dc:date><dc:description>Bitmaps removed. 128Kb -&gt; 12</dc:description><dc:source>https://openclipart.org/detail/3303/acorn-by-zeimusu</dc:source><dc:creator><cc:Agent><dc:title>zeimusu</dc:title></cc:Agent></dc:creator><dc:subject><rdf:Bag><rdf:li>acorn</rdf:li><rdf:li>forest</rdf:li><rdf:li>nature</rdf:li><rdf:li>no contour</rdf:li><rdf:li>nut</rdf:li><rdf:li>oak</rdf:li><rdf:li>plant</rdf:li><rdf:li>remix</rdf:li><rdf:li>seed</rdf:li></rdf:Bag></dc:subject></cc:Work><cc:License
         rdf:about="http://creativecommons.org/licenses/publicdomain/"><cc:permits
           rdf:resource="http://creativecommons.org/ns#Reproduction" /><cc:permits
           rdf:resource="http://creativecommons.org/ns#Distribution" /><cc:permits
           rdf:resource="http://creativecommons.org/ns#DerivativeWorks" /></cc:License></rdf:RDF></metadata></svg>