<?xml version="1.0" encoding="UTF-8" standalone="no"?>
<!-- Created with Inkscape (http://www.inkscape.org/) -->

<svg
   xmlns:dc="http://purl.org/dc/elements/1.1/"
   xmlns:cc="http://creativecommons.org/ns#"
   xmlns:rdf="http://www.w3.org/1999/02/22-rdf-syntax-ns#"
   xmlns:svg="http://www.w3.org/2000/svg"
   xmlns="http://www.w3.org/2000/svg"
   xmlns:xlink="http://www.w3.org/1999/xlink"
   xmlns:sodipodi="http://sodipodi.sourceforge.net/DTD/sodipodi-0.dtd"
   xmlns:inkscape="http://www.inkscape.org/namespaces/inkscape"
   id="svg2"
   viewBox="0 0 542.51 547.22"
   version="1.0"
   inkscape:version="0.92.1 r15371"
   sodipodi:docname="hammer-david-benjamin-Hammer.svg"
   width="578.67737"
   height="583.70129">
  <sodipodi:namedview
     pagecolor="#ffffff"
     bordercolor="#666666"
     borderopacity="1"
     objecttolerance="10"
     gridtolerance="10"
     guidetolerance="10"
     inkscape:pageopacity="0"
     inkscape:pageshadow="2"
     inkscape:window-width="640"
     inkscape:window-height="480"
     id="namedview65"
     showgrid="false"
     inkscape:zoom="1.3071754"
     inkscape:cx="289.33868"
     inkscape:cy="291.85065"
     inkscape:current-layer="svg2" />
  <defs
     id="defs4">
    <linearGradient
       id="linearGradient6941">
      <stop
         id="stop6943"
         style="stop-color:#000000"
         offset="0" />
      <stop
         id="stop6945"
         style="stop-color:#5d5d5d"
         offset=".24795" />
      <stop
         id="stop6947"
         style="stop-color:#9e9e9e"
         offset=".33869" />
      <stop
         id="stop6949"
         style="stop-color:#424242"
         offset=".54403" />
      <stop
         id="stop6951"
         style="stop-color:#232323"
         offset="1" />
    </linearGradient>
    <linearGradient
       id="linearGradient6906">
      <stop
         id="stop6908"
         style="stop-color:#000000"
         offset="0" />
      <stop
         id="stop6914"
         style="stop-color:#000000"
         offset=".40540" />
      <stop
         id="stop6916"
         style="stop-color:#000000;stop-opacity:0"
         offset=".55242" />
      <stop
         id="stop6910"
         style="stop-color:#000000;stop-opacity:.23280"
         offset="1" />
    </linearGradient>
    <linearGradient
       id="linearGradient6023">
      <stop
         id="stop6025"
         style="stop-color:#8a8a8a"
         offset="0" />
      <stop
         id="stop6027"
         style="stop-color:#3a3a3a"
         offset="1" />
    </linearGradient>
    <linearGradient
       id="linearGradient4333"
       y2="294.89001"
       xlink:href="#linearGradient6023"
       gradientUnits="userSpaceOnUse"
       x2="442.92999"
       y1="316.39001"
       x1="524.72998" />
    <linearGradient
       id="linearGradient4341"
       y2="241.83"
       gradientUnits="userSpaceOnUse"
       x2="557.15002"
       y1="426.95999"
       x1="555.84998">
      <stop
         id="stop6011"
         style="stop-color:#000000"
         offset="0" />
      <stop
         id="stop6017"
         style="stop-color:#5d5d5d"
         offset="0.439" />
      <stop
         id="stop6019"
         style="stop-color:#9e9e9e"
         offset=".50403" />
      <stop
         id="stop6021"
         style="stop-color:#424242"
         offset=".54403" />
      <stop
         id="stop6013"
         style="stop-color:#525252"
         offset="1" />
    </linearGradient>
    <linearGradient
       id="linearGradient4343"
       y2="-104.72"
       xlink:href="#linearGradient6023"
       gradientUnits="userSpaceOnUse"
       x2="608.13"
       y1="-192.11"
       x1="609.40997" />
    <linearGradient
       id="linearGradient4345"
       y2="-229.69"
       xlink:href="#linearGradient6906"
       gradientUnits="userSpaceOnUse"
       x2="632.81"
       y1="-104.88"
       x1="543.96997" />
    <linearGradient
       id="linearGradient4347"
       y2="433.51001"
       xlink:href="#linearGradient6941"
       gradientUnits="userSpaceOnUse"
       x2="589.13"
       gradientTransform="translate(-17,-13)"
       y1="361.39001"
       x1="674.58002" />
    <linearGradient
       id="linearGradient4349"
       y2="346.73999"
       xlink:href="#linearGradient6906"
       gradientUnits="userSpaceOnUse"
       x2="570.39001"
       y1="385.81"
       x1="606.39001" />
    <linearGradient
       id="linearGradient4351"
       y2="433.51001"
       xlink:href="#linearGradient6941"
       gradientUnits="userSpaceOnUse"
       x2="589.13"
       y1="361.39001"
       x1="674.58002" />
    <linearGradient
       id="linearGradient4353"
       y2="449.26999"
       xlink:href="#linearGradient6023"
       gradientUnits="userSpaceOnUse"
       x2="652.84003"
       y1="423.10001"
       x1="698.54999" />
    <linearGradient
       id="linearGradient4355"
       y2="417.72"
       xlink:href="#linearGradient6906"
       gradientUnits="userSpaceOnUse"
       x2="651.84998"
       y1="450.54999"
       x1="673.84998" />
    <radialGradient
       id="radialGradient2779"
       gradientUnits="userSpaceOnUse"
       cy="648.26001"
       cx="52.91"
       gradientTransform="matrix(1.9284,-0.49403,0.18074,0.70552,-103.91,113.24)"
       r="250.98">
      <stop
         id="stop2775"
         style="stop-color:#000000"
         offset="0" />
      <stop
         id="stop2777"
         style="stop-color:#000000;stop-opacity:0"
         offset="1" />
    </radialGradient>
    <linearGradient
       id="linearGradient1527"
       y2="423.13"
       gradientUnits="userSpaceOnUse"
       x2="458.66"
       y1="363.13"
       x1="520.15997">
      <stop
         id="stop10792"
         style="stop-color:#000000"
         offset="0" />
      <stop
         id="stop10794"
         style="stop-color:#000000;stop-opacity:0"
         offset="1" />
    </linearGradient>
    <radialGradient
       id="radialGradient1530"
       fx="403.10999"
       fy="569.22998"
       gradientUnits="userSpaceOnUse"
       cy="468.10999"
       cx="396.75"
       gradientTransform="matrix(0.28537,0.23019,-1,1.2397,772,-188.86)"
       r="126.43">
      <stop
         id="stop4927"
         style="stop-color:#8a6e27"
         offset="0" />
      <stop
         id="stop4929"
         style="stop-color:#1b1507"
         offset="1" />
    </radialGradient>
    <radialGradient
       id="radialGradient1533"
       fx="434.42999"
       fy="322.17001"
       gradientUnits="userSpaceOnUse"
       cy="322.48001"
       cx="431.79001"
       gradientTransform="matrix(1.7723,0.18587,-0.088745,0.84621,-312.37,-30.359)"
       r="54.353001">
      <stop
         id="stop7950"
         style="stop-color:#1d1d1d"
         offset="0" />
      <stop
         id="stop7952"
         style="stop-color:#686868"
         offset="0.439" />
      <stop
         id="stop7954"
         style="stop-color:#9e9e9e"
         offset=".50403" />
      <stop
         id="stop7956"
         style="stop-color:#424242"
         offset=".54403" />
      <stop
         id="stop7958"
         style="stop-color:#616161"
         offset="1" />
    </radialGradient>
  </defs>
  <g
     id="layer1"
     transform="translate(-40.885,-47.174)">
    <path
       id="path7934"
       style="opacity:0.75862002;fill:url(#radialGradient2779);fill-rule:evenodd"
       d="m 301.07,472.25 c -30.98,0.82 -66.55,0.78 -90.09,5.98 28.63,-0.85 64.07,2.03 81.1,7.99 1.31,2.19 -13.03,6.78 6.05,8.81 14.61,2.77 30.1,5.54 8.07,8.53 -83.16,20.5 -168.26,40.71 -242.93,62.76 -26.182,4.69 -20.271,15.31 15.502,16.79 30.948,2.21 57.968,-2.93 71.858,-8.5 71.94,-21.56 142.39,-43.37 212.04,-65.29 15.17,5.87 48.19,-1.38 63.62,2.49 25.33,3.27 6.47,10.2 33.07,13.22 27.01,5.98 62.77,-0.85 79,-6.04 22.59,-6.01 -5.37,-13.11 -33.96,-14.31 -20.77,1.48 -42.29,-3.29 -23.18,-7 -4.18,-5.8 -34.14,-8.58 -49.12,-13.11 -18.51,-5.63 -45.33,-7.93 -74.05,-10.09 -17.95,-1.6 -37.69,-2.19 -56.98,-2.23 z"
       inkscape:connector-curvature="0" />
    <g
       id="g1512"
       transform="matrix(1.4152,0,0,1.4152,-331.51,-341.21)">
      <path
         id="path1514"
         style="fill:url(#linearGradient4333);fill-rule:evenodd;stroke:#000000;stroke-width:3.70000005"
         d="m 407.58,307.4 c 44.9,-42.08 111.5,-2.86 111.5,-2.86 l -45.96,40.3 C 458.77,321.9 442.64,300.57 407.58,307.4 Z"
         inkscape:connector-curvature="0" />
      <g
         id="g1516">
        <path
           id="path1520"
           style="fill:url(#radialGradient1533);fill-rule:evenodd;stroke:#000000;stroke-width:3.70000005"
           d="m 392.08,308.4 c 44.9,-42.08 108.5,4.64 108.5,4.64 l -40.96,32.8 C 445.27,322.9 427.14,301.57 392.08,308.4 Z"
           inkscape:connector-curvature="0" />
        <path
           id="path1522"
           style="fill:url(#radialGradient1530);fill-rule:evenodd;stroke:#000000;stroke-width:6.78030014"
           d="m 489.49,356.21 c -81.17,104.71 -190.22,217.15 -206.33,244.24 -22.59,37.95 32.36,64.68 57.15,32.28 50.54,-66.05 178.9,-254.25 178.9,-254.25 2.74,-12.04 1.39,-23.35 -29.72,-22.27 z"
           inkscape:connector-curvature="0" />
        <path
           id="path1524"
           style="fill:url(#linearGradient1527);fill-rule:evenodd"
           d="m 489.49,356.21 c -23.05,26.86 -42.64,50.32 -60.33,69.97 -9.25,10.26 27.18,42.47 33.34,34.77 30.99,-38.72 56.71,-82.47 56.71,-82.47 2.74,-12.04 1.39,-23.35 -29.72,-22.27 z"
           inkscape:connector-curvature="0" />
        <g
           id="g1526"
           transform="matrix(0.71224,0,0,0.71224,126.02,130.44)">
          <g
             id="g1528">
            <path
               id="path1530"
               style="color:#000000;fill:url(#linearGradient4341);stroke:#000000;stroke-width:5.65100002"
               d="m 540.34,244.16 c -4.15,0.08 -35.05,-9.75 -41.84,1 l -41.03,47.53 c -6.04,6.99 -5.65,17.93 0.84,24.5 l 76.57,77.43 c 9.49,12.07 34.08,0.22 68.12,-6.78 l 37.03,-42.53 c 6.04,-6.99 5.65,-17.93 -0.84,-24.5 l -74.07,-73.93 c -3.19,-3.24 -20.75,-2.81 -24.78,-2.72 z"
               inkscape:connector-curvature="0" />
            <path
               id="path1532"
               style="color:#000000;fill:url(#linearGradient4343);stroke:url(#linearGradient4345);stroke-width:5.65980005;stroke-miterlimit:7.80000019"
               d="m 555.06,-197.23 h 108.9 c 9.24,0 16.68,7.44 16.68,16.68 v 62.8 c 0,9.24 -7.44,16.68 -16.68,16.68 h -108.9 c -9.24,0 -16.68,-7.44 -16.68,-16.68 v -62.8 c 0,-9.24 7.44,-16.68 16.68,-16.68 z"
               transform="matrix(0.70311,0.71108,-0.65336,0.75705,0,0)"
               inkscape:connector-curvature="0" />
          </g>
          <path
             id="path1534"
             style="color:#000000;fill:url(#linearGradient4347);stroke:url(#linearGradient4349);stroke-width:4.44869995;stroke-miterlimit:7.80000019"
             d="m 619.24,348.98 c -4.98,0.14 -10.75,1.62 -17.09,4.5 -7.79,3.53 -19.63,16.81 -21.79,25.03 -2.05,7.85 0.4,14.09 4.34,17.85 3.91,3.73 17.64,16.85 20.75,20.65 5.59,6.84 17.24,7.77 31.73,1.16 22.53,-10.29 18.47,-4.91 21.75,-25 1.17,-7.17 2.41,-13.86 -0.69,-17.66 -3.79,-4.66 -21.18,-16.58 -23.99,-20.37 -3.11,-4.19 -8.33,-6.35 -15.01,-6.16 z"
             inkscape:connector-curvature="0" />
          <g
             id="g1536"
             transform="translate(23,15.5)">
            <path
               id="path1538"
               style="color:#000000;fill:url(#linearGradient4351);stroke:#000000;stroke-width:4.44869995;stroke-miterlimit:7.80000019"
               d="m 644.24,351.98 c -4.98,0.14 -10.76,1.61 -17.09,4.5 -22.54,10.28 -43.51,34.94 -46.79,55.03 -1.3,8.01 0.4,14.09 4.34,17.85 3.91,3.73 17.64,16.85 20.75,20.65 5.59,6.84 17.24,7.77 31.73,1.16 22.53,-10.29 43.47,-34.91 46.75,-55 1.17,-7.17 2.41,-13.86 -0.69,-17.66 -3.79,-4.66 -21.18,-16.58 -23.99,-20.37 -3.11,-4.19 -8.33,-6.35 -15.01,-6.16 z"
               inkscape:connector-curvature="0" />
            <path
               id="path1540"
               style="color:#000000;fill:url(#linearGradient4353);stroke:url(#linearGradient4355);stroke-width:4.44869995;stroke-miterlimit:7.80000019"
               d="m 712.76,436 a 38.537,20.153 0 1 1 -77.07,0 38.537,20.153 0 1 1 77.07,0 z"
               transform="matrix(1.0594,-0.48337,-0.29475,1.806,59.444,-46.713)"
               inkscape:connector-curvature="0" />
          </g>
        </g>
      </g>
    </g>
  </g>
  <metadata
     id="metadata62">
    <rdf:RDF>
      <cc:Work>
        <dc:format>image/svg+xml</dc:format>
        <dc:type
           rdf:resource="http://purl.org/dc/dcmitype/StillImage" />
        <cc:license
           rdf:resource="http://creativecommons.org/licenses/publicdomain/" />
        <dc:publisher>
          <cc:Agent
             rdf:about="http://openclipart.org/">
            <dc:title>Openclipart</dc:title>
          </cc:Agent>
        </dc:publisher>
        <dc:title>Hammer</dc:title>
        <dc:date>2007-08-13T20:36:04</dc:date>
        <dc:description>A hammer, created in Inkscape</dc:description>
        <dc:source>https://openclipart.org/detail/4793/hammer-by-david_benjamin</dc:source>
        <dc:creator>
          <cc:Agent>
            <dc:title>david_benjamin</dc:title>
          </cc:Agent>
        </dc:creator>
        <dc:subject>
          <rdf:Bag>
            <rdf:li>hammer</rdf:li>
            <rdf:li>tool</rdf:li>
          </rdf:Bag>
        </dc:subject>
      </cc:Work>
      <cc:License
         rdf:about="http://creativecommons.org/licenses/publicdomain/">
        <cc:permits
           rdf:resource="http://creativecommons.org/ns#Reproduction" />
        <cc:permits
           rdf:resource="http://creativecommons.org/ns#Distribution" />
        <cc:permits
           rdf:resource="http://creativecommons.org/ns#DerivativeWorks" />
      </cc:License>
    </rdf:RDF>
  </metadata>
</svg>
