<?xml version="1.0" encoding="UTF-8" standalone="no"?>
<!-- Created with Inkscape (http://www.inkscape.org/) -->

<svg
   xmlns:dc="http://purl.org/dc/elements/1.1/"
   xmlns:cc="http://creativecommons.org/ns#"
   xmlns:rdf="http://www.w3.org/1999/02/22-rdf-syntax-ns#"
   xmlns:svg="http://www.w3.org/2000/svg"
   xmlns="http://www.w3.org/2000/svg"
   xmlns:sodipodi="http://sodipodi.sourceforge.net/DTD/sodipodi-0.dtd"
   xmlns:inkscape="http://www.inkscape.org/namespaces/inkscape"
   id="svg2"
   sodipodi:docname="jisdu_.svg"
   viewBox="0 0 770.03 1097.5"
   sodipodi:version="0.32"
   version="1.0"
   inkscape:output_extension="org.inkscape.output.svg.inkscape"
   inkscape:version="0.92.1 r15371"
   width="821.36536"
   height="1170.6666">
  <defs
     id="defs22" />
  <sodipodi:namedview
     id="base"
     bordercolor="#666666"
     inkscape:pageshadow="2"
     guidetolerance="10"
     pagecolor="#ffffff"
     gridtolerance="10000"
     inkscape:window-height="746"
     inkscape:zoom="0.35"
     objecttolerance="10"
     showgrid="false"
     borderopacity="1.0"
     inkscape:current-layer="layer1"
     inkscape:cx="454.09392"
     inkscape:cy="514.5016"
     inkscape:window-y="32"
     inkscape:window-x="0"
     inkscape:window-width="1280"
     inkscape:pageopacity="0.0"
     inkscape:document-units="px" />
  <g
     id="layer1"
     inkscape:label="Layer 1"
     inkscape:groupmode="layer"
     transform="translate(29.712,61.499)">
    <path
       id="path2470"
       style="fill:#f4f1d7;fill-rule:evenodd;stroke:#3b3310;stroke-width:7"
       d="m 374.77,942.26 c 7.35,25.59 1.75,52.93 -2.02,78.74 11.04,9.9 30.09,4.2 44.27,3.6 18.15,-5.6 40.08,-7.7 54.16,-21 17.46,-22.69 28.23,-48.67 35.79,-76.13 4.61,-8.09 11.29,-51.9 7.19,-28.21 -7.43,34 -17.62,68.48 -37.41,97.24 -5.65,14.1 26.95,7.9 38.28,8.4 35.09,-11.21 62.84,-37.08 97.55,-49.59 14.4,-4.55 34.8,-13.28 21.5,-30.4 -11.45,-13.1 -20.56,-28.13 -26.98,-44.27 12.15,-12.29 37.13,-7.17 43.44,-27.28 4.47,-17.98 15.83,-32.02 29.68,-43.53 18.64,-24.53 47.39,-45.68 45.98,-79.76 2.47,-16.13 -7.78,-32.76 3.45,-47.73 20.16,-33.52 -7.52,-68.46 -17.69,-100.3 C 690.93,518.69 687,451.09 672.72,386.22 658.78,346.13 634.94,311.16 614.17,274.54 599.61,232.95 597.56,187.27 574.78,148.49 563.56,134.78 560.63,125.87 565.22,111.8 549.46,80.395 550.98,40.026 522.9,15.041 506.72,-2.543 487.5,-16.664 465.68,-26.481 c -10.49,-16.545 -34.21,-23.082 -53.16,-21.815 -17.37,2.7 -35.62,6.806 -50.71,-4.677 -15.53,-12.927 -32.99,3.834 -50.34,-1.792 -18.19,-2.432 -25.43,18.332 -42.63,20.148 -36.66,12.792 -68.36,41.046 -85.81,75.758 -15.7,18.055 -35.81,32.997 -46.81,54.164 C 102.87,118.85 66.271,142.18 50.217,181.68 36.149,208.65 23.14,237.13 20.608,267.54 9.763,304.17 -10.799,337.2 -16.18,375.49 c -4.782,27.14 -14.094,55.5 -8.064,82.9 14.23,22.83 49.027,15.86 66.165,0.82 C 52.144,440.95 70.395,427.15 75.638,407 96.11,386.69 104.9,357.77 126.99,338.63 c 3.82,1.46 0.73,28.41 1.89,39.58 -4.65,34.45 -9.31,68.84 -12.71,103.42 6.23,30.76 -23.574,49.36 -35.754,74 -9.741,14.24 -12.944,32.52 -16.335,48.85 -1.091,23.46 13.011,44.2 12.621,67.98 3.527,15.53 -10.994,39.01 11.309,45.1 17.379,13.84 12.699,40.11 6.943,59.03 -11.114,17.51 11.176,24.15 4.041,42.43 4.925,11.61 9.155,15.2 12.055,20.23 17.93,-8.62 16.45,21.14 27.69,21.26 -10.12,9.22 -30.42,9.65 -35.51,23.81 -1.14,15.16 12.61,30.23 -5.207,38.21 -11.505,24.62 -9.886,58.55 10.067,78.27 34.18,8.5 64.45,-14.34 88.89,-35.31 15.52,6.82 34.62,6.62 46.47,21.21 25.74,31.7 69.01,39.4 106.63,45.8 16.34,-3.2 27.57,-18.5 26.53,-35.07 8.75,-37.71 -7.11,-76.32 -25.52,-108.33 -1.98,-53.24 15.77,-104.77 15.6,-157.97 1.55,31.05 3.79,62.96 20.82,89.94 5.05,27.77 -12.14,54.13 -14.76,81.79 -7.57,14.11 -4.98,25.71 2.02,39.4 z"
       inkscape:connector-curvature="0" />
    <path
       id="path2472"
       style="fill:none;stroke:#3b3310;stroke-width:7"
       d="m 125.26,400.81 c 1.21,53.14 1.07,106.49 3.24,159.48 6.02,46.71 19.14,92.3 40.2,134.48 14.69,46.55 39.56,89.27 49.38,137.42 11.86,47.05 19.08,95.63 20.89,144.03 l -0.45,2.64 -0.12,0.77"
       inkscape:connector-curvature="0" />
    <path
       id="path2474"
       style="fill:#3b3310;fill-rule:evenodd;stroke:#3b3310;stroke-width:7"
       d="m 367.7,735.17 c -0.97,52.65 -19.71,104.55 -15.9,156.92 6.76,8.65 18.26,45.3 19.31,17.77 3.18,-29.69 20.67,-57.29 16.95,-87.33 C 376.34,794.3 366.12,766.4 367.7,735.17 Z"
       inkscape:connector-curvature="0" />
    <path
       id="path2476"
       style="fill:#d3b05f;fill-rule:evenodd"
       d="m 428.3,3.8238 c 16.97,19.424 33.14,42.489 28.29,69.7 -0.28,25.478 -2.93,51.826 -0.22,76.776 16.94,48.82 40.16,96.01 46.23,147.9 2.8,29.5 8.27,58.34 20.66,85.44 0.93,37.78 23.01,71.01 39.77,103.71 8.63,18.35 23.57,30.63 41.31,39.77 12.02,5.91 33.04,-7.93 33.14,-22.15 6.89,-46.65 -26.15,-88.27 -24.41,-134.94 0.04,-34.55 1.79,-69.64 -3.91,-104.01 -10.44,-46.87 -17.45,-96.31 -46.69,-136.1 4.57,-11.03 1.8,-24.2 -5.88,-36.193 -8.06,-38.46 -22.3,-78.982 -57.25,-100.91 -15.08,-13.974 -38.52,-14.789 -48.81,-34.45 -22.5,-5.995 -49.8,-9.691 -70.02,2.329 -5.54,16.436 12.15,23.336 -13.52,25.017 -15.83,-0.67 -38.83,18.002 -10.14,15.718 15.09,3.1969 36.09,-1.536 47.06,8.94 17.14,12.114 -5.78,28.92 9.51,38.658 7.84,14.033 30.35,12.709 32.06,30.556 19.06,-12.029 -6.25,-24.969 -8.89,-38.851 -8.43,-14.355 4.44,-25.141 -8.29,-36.91 z"
       inkscape:connector-curvature="0" />
    <path
       id="path2478"
       style="fill:none;stroke:#3b3310;stroke-width:7"
       d="m 455.58,87.667 c 1.99,28.023 -6.22,57.433 8.1,83.213 22.56,50.71 37.71,104.45 42.72,159.81 1.35,26.74 22.92,48.7 17.87,76.18 15.67,35.98 30.05,73.9 54.79,104.49 14.41,6.37 29.37,27.8 45.21,13.7 21.27,-11.34 13.21,-38.84 12.13,-58.59 -10.05,-33.61 -25.2,-66.48 -22.48,-102.33 -0.72,-31.06 2.67,-61.66 -2.78,-92.63"
       inkscape:connector-curvature="0" />
    <path
       id="path2484"
       style="fill:#e9daaf;fill-rule:evenodd"
       d="m 353.55,187.67 c 13.56,-6.59 35.46,0.05 43.95,-14.65 2.36,-11.96 3.58,-32.8 7.18,-40.43 15.73,3.25 15.31,-20.69 27.26,-27.15 10.07,-6.571 22.85,-26.909 7.6,-31.221 -20.37,8.422 -42.85,14.36 -55.81,34.041 -17.22,13 -28.46,31.09 -33.3,52.02 -12.96,8.92 -17.7,24.04 3.12,27.39 z"
       inkscape:connector-curvature="0" />
    <path
       id="path2480"
       style="fill:#000000;fill-rule:evenodd;stroke:#000000;stroke-width:7"
       d="m 352.04,184.14 c 7.94,-20.33 1.56,-49.44 24.75,-61.62 19.09,-5.83 26.38,12.95 21.67,28.49 -0.02,17.17 -11.87,31.12 -29.84,24.58 -7.74,0.17 -14.51,-0.81 -16.58,8.55 z"
       inkscape:connector-curvature="0" />
    <path
       id="path2482"
       style="fill:#28170b;fill-rule:evenodd;stroke:#000000;stroke-width:7"
       d="m 378.3,122.01 c 7.71,-14.42 35.13,3.79 32.17,6.06 -12.73,3.09 -20,-10.48 -32.17,-6.06 z"
       inkscape:connector-curvature="0" />
    <path
       id="path2486"
       style="fill:#503e16;fill-rule:evenodd"
       d="m 415.68,131.61 c 7.9,23.66 -0.44,54.41 23.77,70.41 15.72,10.28 11.11,32.68 19.5,48.06 2.32,14.2 4.21,28.79 11,39.93 -5.87,17.37 17.51,34.48 19.65,10.01 4.3,-19.13 -5.17,-38.07 0.32,-57.3 -7.43,-36.36 -27.93,-68.97 -35.35,-104.86 5.01,-16.52 -13.02,-23.12 -17.68,-37.06 -8.88,7.84 -20.25,18.75 -21.21,30.81 z"
       inkscape:connector-curvature="0" />
    <path
       id="path2488"
       style="fill:none;stroke:#3b3310;stroke-width:7"
       d="m 190.92,33.118 c -11.56,23.733 -18.02,49.21 -15.15,75.692 -1.9,32.65 -34.72,51.51 -46.66,80.44 -10.3,24.5 -20.61,51.83 -18.83,78.79 7.33,28.93 19.83,59.29 45.13,77.37 13.04,8.46 18.93,28.34 37.45,21.4 32.4,-2.2 60.44,16.36 86.47,32.83 28.18,10.48 58.37,19.76 88.21,10.65 38.85,-2.87 66.43,-34.67 95.05,-57.77 14.35,-11.46 25.9,-28.77 25.31,-47.67"
       inkscape:connector-curvature="0" />
    <path
       id="path2490"
       style="fill:#28170b;fill-rule:evenodd;stroke:#3b3310;stroke-width:7"
       d="m 164.66,252.31 c 15.74,19.9 39.32,37.61 35.99,65.93 9.11,19.69 -19.3,29.19 6.25,30.26 25.19,8.86 16.48,4.53 3.67,-10.84 -4.93,-12.22 -11.5,-35.66 1.55,-42.91 15.94,-2.78 31.76,-11.2 37.38,-27.28 -20.35,6.32 -44.45,23.78 -63.08,4.49 -9.16,-4.44 -14.88,-12.5 -21.76,-19.65 z"
       inkscape:connector-curvature="0" />
    <path
       id="path2494"
       style="fill:none;stroke:#3b3310;stroke-width:7"
       d="m 516.19,886.7 c 8.42,-33.96 4.99,-69.8 16.87,-103.19 11.78,-54.25 29.8,-107.02 46.59,-159.7 1.4,-9.01 2.81,-18.02 4.22,-27.03"
       inkscape:connector-curvature="0" />
    <path
       id="path2496"
       style="fill:#deb787;fill-rule:evenodd"
       d="m 115.16,223.03 c -18.051,26.19 -31.936,55.24 -50.342,80.95 -14.047,20.28 -38.109,31.55 -45.766,56.29 -14.027,31.36 -23.034,65.19 -28.143,99.13 9.902,19.37 33.079,8.09 47.551,1.36 22.635,-19.09 32.627,-48.75 50.94,-71.15 9.827,-16.86 19.67,-33.72 33.84,-47.39 5.12,-20.86 1.75,-41.61 -8.08,-60.6 -6.58,-15.86 -5.84,-31.54 -1.18,-47.4 0.39,-3.73 0.78,-7.46 1.18,-11.19 z"
       inkscape:connector-curvature="0" />
    <path
       id="path2498"
       style="fill:#d3b55f;fill-rule:evenodd"
       d="m 186.88,40.189 c 21.97,-8.106 38.81,-24.68 54.93,-40.595 8.64,-8.7662 38.46,-5.5686 25.88,10.291 -1.48,17.399 -12.99,34.992 -32.32,33.335 -3.77,17.305 -12.04,33.052 -28.29,41.416 -14.23,19.154 -34.07,33.454 -43.9,55.954 -18.49,30.13 -39.88,58.43 -52.77,91.58 -19.976,35.06 -33.801,75.25 -66.508,100.95 -14.242,11.75 -27.146,24.52 -30.35,43.52 -6.3476,26.64 -20.878,52.72 -19.775,80.26 5.1161,16.74 25.573,16.27 37.802,7.65 -1.897,-2.27 -29.496,14.48 -40.75,5.6 -20.458,-10.97 -16.47,-39.38 -11.67,-58.86 3.276,-42.36 15.649,-83.3 34.87,-121.09 6.313,-15.37 11.382,-30.99 11.187,-47.45 17.058,-41.29 29.176,-89.91 69.644,-114.81 14.56,-14.46 32.09,-26.5 47.62,-38.699 7.36,-18.856 24.29,-32.751 38.72,-46.211 1.89,-0.947 3.78,-1.894 5.68,-2.841 z"
       inkscape:connector-curvature="0" />
    <path
       id="path2500"
       style="fill:#d3ad5f;fill-rule:evenodd"
       d="m 357.59,205.85 c 13.7,-4 26.28,-26.58 40.29,-17.15 17.19,10.62 29.61,29.09 36.15,47.09 -3.38,13.31 -17.61,27.1 -32.65,24.61 -13.44,-4.64 -17.65,-25.42 -30.5,-34.02 -5.43,-6.18 -11.34,-12.27 -13.29,-20.53 z"
       inkscape:connector-curvature="0" />
  </g>
  <metadata
     id="metadata19">
    <rdf:RDF>
      <cc:Work>
        <dc:format>image/svg+xml</dc:format>
        <dc:type
           rdf:resource="http://purl.org/dc/dcmitype/StillImage" />
        <cc:license
           rdf:resource="http://creativecommons.org/licenses/publicdomain/" />
        <dc:publisher>
          <cc:Agent
             rdf:about="http://openclipart.org/">
            <dc:title>Openclipart</dc:title>
          </cc:Agent>
        </dc:publisher>
        <dc:title>Lop eared rabbit</dc:title>
        <dc:date>2009-11-11T13:16:25</dc:date>
        <dc:description>Miniature rabbit.</dc:description>
        <dc:source>https://openclipart.org/detail/28155/lop-eared-rabbit-by-gingercoons-28155</dc:source>
        <dc:creator>
          <cc:Agent>
            <dc:title>gingercoons</dc:title>
          </cc:Agent>
        </dc:creator>
        <dc:subject>
          <rdf:Bag>
            <rdf:li>animal</rdf:li>
            <rdf:li>brown</rdf:li>
            <rdf:li>cartoon</rdf:li>
            <rdf:li>colour</rdf:li>
            <rdf:li>lop</rdf:li>
            <rdf:li>mammal</rdf:li>
            <rdf:li>pet</rdf:li>
            <rdf:li>rabbit</rdf:li>
          </rdf:Bag>
        </dc:subject>
      </cc:Work>
      <cc:License
         rdf:about="http://creativecommons.org/licenses/publicdomain/">
        <cc:permits
           rdf:resource="http://creativecommons.org/ns#Reproduction" />
        <cc:permits
           rdf:resource="http://creativecommons.org/ns#Distribution" />
        <cc:permits
           rdf:resource="http://creativecommons.org/ns#DerivativeWorks" />
      </cc:License>
    </rdf:RDF>
  </metadata>
</svg>
