<?xml version="1.0" encoding="UTF-8" standalone="no"?>
<!-- Created with Inkscape (http://www.inkscape.org/) -->

<svg
   xmlns:dc="http://purl.org/dc/elements/1.1/"
   xmlns:cc="http://creativecommons.org/ns#"
   xmlns:rdf="http://www.w3.org/1999/02/22-rdf-syntax-ns#"
   xmlns:svg="http://www.w3.org/2000/svg"
   xmlns="http://www.w3.org/2000/svg"
   xmlns:xlink="http://www.w3.org/1999/xlink"
   xmlns:sodipodi="http://sodipodi.sourceforge.net/DTD/sodipodi-0.dtd"
   xmlns:inkscape="http://www.inkscape.org/namespaces/inkscape"
   width="775.2771"
   height="1008.5236"
   id="svg2"
   version="1.1"
   inkscape:version="0.92.1 r15371"
   sodipodi:docname="Monkey.svg">
  <defs
     id="defs4">
    <linearGradient
       id="linearGradient4985">
      <stop
         style="stop-color:#bdf3f5;stop-opacity:1;"
         offset="0"
         id="stop4987" />
      <stop
         style="stop-color:#ffffff;stop-opacity:1;"
         offset="1"
         id="stop4989" />
    </linearGradient>
    <linearGradient
       inkscape:collect="always"
       id="linearGradient4540">
      <stop
         style="stop-color:#de8a2c;stop-opacity:1;"
         offset="0"
         id="stop4542" />
      <stop
         style="stop-color:#de8a2c;stop-opacity:0;"
         offset="1"
         id="stop4544" />
    </linearGradient>
    <linearGradient
       id="linearGradient4512">
      <stop
         style="stop-color:#942917;stop-opacity:1;"
         offset="0"
         id="stop4514" />
      <stop
         style="stop-color:#671d10;stop-opacity:1;"
         offset="1"
         id="stop4516" />
    </linearGradient>
    <linearGradient
       inkscape:collect="always"
       id="linearGradient4504">
      <stop
         style="stop-color:#f5e2bb;stop-opacity:1;"
         offset="0"
         id="stop4506" />
      <stop
         style="stop-color:#f5e2bb;stop-opacity:0;"
         offset="1"
         id="stop4508" />
    </linearGradient>
    <linearGradient
       id="linearGradient4484">
      <stop
         style="stop-color:#800000;stop-opacity:1;"
         offset="0"
         id="stop4486" />
      <stop
         style="stop-color:#410000;stop-opacity:1;"
         offset="1"
         id="stop4488" />
    </linearGradient>
    <linearGradient
       id="linearGradient4476">
      <stop
         style="stop-color:#000000;stop-opacity:1;"
         offset="0"
         id="stop4478" />
      <stop
         style="stop-color:#000000;stop-opacity:0;"
         offset="1"
         id="stop4480" />
    </linearGradient>
    <linearGradient
       id="linearGradient4458">
      <stop
         style="stop-color:#fefbf6;stop-opacity:1;"
         offset="0"
         id="stop4460" />
      <stop
         style="stop-color:#f5e2bb;stop-opacity:0;"
         offset="1"
         id="stop4462" />
    </linearGradient>
    <linearGradient
       id="linearGradient4416">
      <stop
         style="stop-color:#13dc00;stop-opacity:1;"
         offset="0"
         id="stop4418" />
      <stop
         style="stop-color:#b8ff3c;stop-opacity:1;"
         offset="1"
         id="stop4420" />
    </linearGradient>
    <linearGradient
       id="linearGradient4408">
      <stop
         style="stop-color:#13dc00;stop-opacity:1;"
         offset="0"
         id="stop4410" />
      <stop
         style="stop-color:#08b100;stop-opacity:1;"
         offset="1"
         id="stop4412" />
    </linearGradient>
    <linearGradient
       id="linearGradient4398">
      <stop
         style="stop-color:#0000ff;stop-opacity:1;"
         offset="0"
         id="stop4400" />
      <stop
         style="stop-color:#000000;stop-opacity:1;"
         offset="1"
         id="stop4402" />
    </linearGradient>
    <inkscape:path-effect
       effect="skeletal"
       id="path-effect4213"
       is_visible="true"
       pattern="M 0,0 V 10 L 10,5 Z"
       copytype="single_stretched"
       prop_scale="1"
       scale_y_rel="false"
       spacing="0"
       normal_offset="0"
       tang_offset="0"
       prop_units="false"
       vertical_pattern="false"
       fuse_tolerance="0" />
    <inkscape:path-effect
       effect="spiro"
       id="path-effect4211"
       is_visible="true" />
    <inkscape:path-effect
       effect="skeletal"
       id="path-effect4207"
       is_visible="true"
       pattern="M 0,0 V 10 L 10,5 Z"
       copytype="single_stretched"
       prop_scale="1"
       scale_y_rel="false"
       spacing="0"
       normal_offset="0"
       tang_offset="0"
       prop_units="false"
       vertical_pattern="false"
       fuse_tolerance="0" />
    <inkscape:path-effect
       effect="spiro"
       id="path-effect4205"
       is_visible="true" />
    <inkscape:path-effect
       effect="skeletal"
       id="path-effect4201"
       is_visible="true"
       pattern="M 0,0 V 10 L 10,5 Z"
       copytype="single_stretched"
       prop_scale="1"
       scale_y_rel="false"
       spacing="0"
       normal_offset="0"
       tang_offset="0"
       prop_units="false"
       vertical_pattern="false"
       fuse_tolerance="0" />
    <inkscape:path-effect
       effect="spiro"
       id="path-effect4199"
       is_visible="true" />
    <inkscape:path-effect
       effect="skeletal"
       id="path-effect4195"
       is_visible="true"
       pattern="M 0,0 V 10 L 10,5 Z"
       copytype="single_stretched"
       prop_scale="1"
       scale_y_rel="false"
       spacing="0"
       normal_offset="0"
       tang_offset="0"
       prop_units="false"
       vertical_pattern="false"
       fuse_tolerance="0" />
    <inkscape:path-effect
       effect="spiro"
       id="path-effect4193"
       is_visible="true" />
    <inkscape:path-effect
       effect="skeletal"
       id="path-effect4189"
       is_visible="true"
       pattern="M 0,0 V 10 L 10,5 Z"
       copytype="single_stretched"
       prop_scale="1"
       scale_y_rel="false"
       spacing="0"
       normal_offset="0"
       tang_offset="0"
       prop_units="false"
       vertical_pattern="false"
       fuse_tolerance="0" />
    <inkscape:path-effect
       effect="spiro"
       id="path-effect4187"
       is_visible="true" />
    <inkscape:path-effect
       effect="skeletal"
       id="path-effect4183"
       is_visible="true"
       pattern="M 0,0 V 10 L 10,5 Z"
       copytype="single_stretched"
       prop_scale="1"
       scale_y_rel="false"
       spacing="0"
       normal_offset="0"
       tang_offset="0"
       prop_units="false"
       vertical_pattern="false"
       fuse_tolerance="0" />
    <inkscape:path-effect
       effect="skeletal"
       id="path-effect4179"
       is_visible="true"
       pattern="M 0,0 V 10 L 10,5 Z"
       copytype="single_stretched"
       prop_scale="1"
       scale_y_rel="false"
       spacing="0"
       normal_offset="0"
       tang_offset="0"
       prop_units="false"
       vertical_pattern="false"
       fuse_tolerance="0" />
    <inkscape:path-effect
       effect="skeletal"
       id="path-effect4175"
       is_visible="true"
       pattern="M 0,5 C 0,2.24 2.24,0 5,0 7.76,0 10,2.24 10,5 10,7.76 7.76,10 5,10 2.24,10 0,7.76 0,5 Z"
       copytype="single_stretched"
       prop_scale="1"
       scale_y_rel="false"
       spacing="0"
       normal_offset="0"
       tang_offset="0"
       prop_units="false"
       vertical_pattern="false"
       fuse_tolerance="0" />
    <inkscape:path-effect
       effect="skeletal"
       id="path-effect4171"
       is_visible="true"
       pattern="M 0,5 C 0,2.24 2.24,0 5,0 7.76,0 10,2.24 10,5 10,7.76 7.76,10 5,10 2.24,10 0,7.76 0,5 Z"
       copytype="single_stretched"
       prop_scale="1"
       scale_y_rel="false"
       spacing="0"
       normal_offset="0"
       tang_offset="0"
       prop_units="false"
       vertical_pattern="false"
       fuse_tolerance="0" />
    <inkscape:path-effect
       effect="skeletal"
       id="path-effect4167"
       is_visible="true"
       pattern="M 0,5 C 0,2.24 2.24,0 5,0 7.76,0 10,2.24 10,5 10,7.76 7.76,10 5,10 2.24,10 0,7.76 0,5 Z"
       copytype="single_stretched"
       prop_scale="1"
       scale_y_rel="false"
       spacing="0"
       normal_offset="0"
       tang_offset="0"
       prop_units="false"
       vertical_pattern="false"
       fuse_tolerance="0" />
    <inkscape:path-effect
       effect="skeletal"
       id="path-effect4163"
       is_visible="true"
       pattern="M 0,5 C 0,2.24 2.24,0 5,0 7.76,0 10,2.24 10,5 10,7.76 7.76,10 5,10 2.24,10 0,7.76 0,5 Z"
       copytype="single_stretched"
       prop_scale="1"
       scale_y_rel="false"
       spacing="0"
       normal_offset="0"
       tang_offset="0"
       prop_units="false"
       vertical_pattern="false"
       fuse_tolerance="0" />
    <inkscape:path-effect
       effect="skeletal"
       id="path-effect4159"
       is_visible="true"
       pattern="M 0,5 C 0,2.24 2.24,0 5,0 7.76,0 10,2.24 10,5 10,7.76 7.76,10 5,10 2.24,10 0,7.76 0,5 Z"
       copytype="single_stretched"
       prop_scale="1"
       scale_y_rel="false"
       spacing="0"
       normal_offset="0"
       tang_offset="0"
       prop_units="false"
       vertical_pattern="false"
       fuse_tolerance="0" />
    <inkscape:path-effect
       effect="skeletal"
       id="path-effect4155"
       is_visible="true"
       pattern="M 0,5 C 0,2.24 2.24,0 5,0 7.76,0 10,2.24 10,5 10,7.76 7.76,10 5,10 2.24,10 0,7.76 0,5 Z"
       copytype="single_stretched"
       prop_scale="1"
       scale_y_rel="false"
       spacing="0"
       normal_offset="0"
       tang_offset="0"
       prop_units="false"
       vertical_pattern="false"
       fuse_tolerance="0" />
    <inkscape:path-effect
       effect="skeletal"
       id="path-effect4151"
       is_visible="true"
       pattern="m 0,5 10,5 V 0 Z"
       copytype="single_stretched"
       prop_scale="1"
       scale_y_rel="false"
       spacing="0"
       normal_offset="0"
       tang_offset="0"
       prop_units="false"
       vertical_pattern="false"
       fuse_tolerance="0" />
    <inkscape:path-effect
       effect="skeletal"
       id="path-effect4147"
       is_visible="true"
       pattern="M 0,0 V 10 L 10,5 Z"
       copytype="single_stretched"
       prop_scale="1"
       scale_y_rel="false"
       spacing="0"
       normal_offset="0"
       tang_offset="0"
       prop_units="false"
       vertical_pattern="false"
       fuse_tolerance="0" />
    <inkscape:path-effect
       effect="skeletal"
       id="path-effect4143"
       is_visible="true"
       pattern="M 0,0 V 10 L 10,5 Z"
       copytype="single_stretched"
       prop_scale="1"
       scale_y_rel="false"
       spacing="0"
       normal_offset="0"
       tang_offset="0"
       prop_units="false"
       vertical_pattern="false"
       fuse_tolerance="0" />
    <inkscape:path-effect
       effect="skeletal"
       id="path-effect4137"
       is_visible="true"
       pattern="M 0,0 V 10 L 10,5 Z"
       copytype="single_stretched"
       prop_scale="1"
       scale_y_rel="false"
       spacing="0"
       normal_offset="0"
       tang_offset="0"
       prop_units="false"
       vertical_pattern="false"
       fuse_tolerance="0" />
    <inkscape:path-effect
       effect="skeletal"
       id="path-effect3365"
       is_visible="true"
       pattern="M 0,0 V 10 L 10,5 Z"
       copytype="single_stretched"
       prop_scale="1"
       scale_y_rel="false"
       spacing="0"
       normal_offset="0"
       tang_offset="0"
       prop_units="false"
       vertical_pattern="false"
       fuse_tolerance="0" />
    <linearGradient
       inkscape:collect="always"
       xlink:href="#linearGradient4398"
       id="linearGradient4404"
       x1="284.20099"
       y1="205.99033"
       x2="294.90195"
       y2="220.59271"
       gradientUnits="userSpaceOnUse"
       gradientTransform="matrix(0.95091567,0,0,1.0422664,29.622255,-12.181739)" />
    <linearGradient
       inkscape:collect="always"
       xlink:href="#linearGradient4398"
       id="linearGradient4406"
       x1="283.98755"
       y1="205.22745"
       x2="295.60266"
       y2="219.80577"
       gradientUnits="userSpaceOnUse"
       gradientTransform="matrix(1.2589309,0,0,1.4081294,12.409708,-91.360647)" />
    <linearGradient
       inkscape:collect="always"
       xlink:href="#linearGradient4408"
       id="linearGradient4414"
       x1="248.66219"
       y1="60.162823"
       x2="295.75446"
       y2="102.30569"
       gradientUnits="userSpaceOnUse" />
    <linearGradient
       inkscape:collect="always"
       xlink:href="#linearGradient4416"
       id="linearGradient4422"
       x1="415.42151"
       y1="148.69557"
       x2="363.57141"
       y2="90.481285"
       gradientUnits="userSpaceOnUse" />
    <linearGradient
       inkscape:collect="always"
       xlink:href="#linearGradient4416"
       id="linearGradient4430"
       x1="438.26813"
       y1="146.94855"
       x2="423.47925"
       y2="93.019974"
       gradientUnits="userSpaceOnUse" />
    <linearGradient
       inkscape:collect="always"
       xlink:href="#linearGradient4416"
       id="linearGradient4438"
       x1="426.52884"
       y1="84.468307"
       x2="413.32202"
       y2="78.754021"
       gradientUnits="userSpaceOnUse" />
    <linearGradient
       inkscape:collect="always"
       xlink:href="#linearGradient4458"
       id="linearGradient4464"
       x1="291.23419"
       y1="228.14479"
       x2="292.22791"
       y2="249.03764"
       gradientUnits="userSpaceOnUse" />
    <linearGradient
       inkscape:collect="always"
       xlink:href="#linearGradient4458"
       id="linearGradient4474"
       x1="408.73196"
       y1="208.52324"
       x2="408.79285"
       y2="254.23265"
       gradientUnits="userSpaceOnUse" />
    <linearGradient
       inkscape:collect="always"
       xlink:href="#linearGradient4484"
       id="linearGradient4490"
       x1="323.03571"
       y1="304.35126"
       x2="380.91617"
       y2="278.99414"
       gradientUnits="userSpaceOnUse" />
    <linearGradient
       inkscape:collect="always"
       xlink:href="#linearGradient4504"
       id="linearGradient4510"
       x1="371.5625"
       y1="296.10004"
       x2="381.78571"
       y2="320.38574"
       gradientUnits="userSpaceOnUse" />
    <linearGradient
       inkscape:collect="always"
       xlink:href="#linearGradient4512"
       id="linearGradient4518"
       x1="222.62714"
       y1="205.55353"
       x2="247.14287"
       y2="213.76781"
       gradientUnits="userSpaceOnUse" />
    <linearGradient
       inkscape:collect="always"
       xlink:href="#linearGradient4512"
       id="linearGradient4528"
       x1="483.86813"
       y1="199.43777"
       x2="472.79773"
       y2="173.17381"
       gradientUnits="userSpaceOnUse" />
    <linearGradient
       inkscape:collect="always"
       xlink:href="#linearGradient4540"
       id="linearGradient4546"
       x1="500.03061"
       y1="128.18349"
       x2="503.82736"
       y2="169.85228"
       gradientUnits="userSpaceOnUse" />
    <linearGradient
       inkscape:collect="always"
       xlink:href="#linearGradient4540"
       id="linearGradient4564"
       x1="219.89258"
       y1="164.22624"
       x2="237.78653"
       y2="182.91405"
       gradientUnits="userSpaceOnUse" />
    <linearGradient
       inkscape:collect="always"
       xlink:href="#linearGradient4540"
       id="linearGradient4576"
       x1="345.41776"
       y1="120.73209"
       x2="348.9129"
       y2="146.08923"
       gradientUnits="userSpaceOnUse" />
    <linearGradient
       inkscape:collect="always"
       xlink:href="#linearGradient4540"
       id="linearGradient4584"
       x1="270.08615"
       y1="135.73047"
       x2="280.09821"
       y2="161.08762"
       gradientUnits="userSpaceOnUse" />
    <linearGradient
       inkscape:collect="always"
       xlink:href="#linearGradient4540"
       id="linearGradient4594"
       x1="318.25"
       y1="80.206459"
       x2="325.79102"
       y2="106.27789"
       gradientUnits="userSpaceOnUse" />
    <linearGradient
       inkscape:collect="always"
       xlink:href="#linearGradient4540"
       id="linearGradient4612"
       x1="293.51242"
       y1="108.49234"
       x2="314.50116"
       y2="112.02788"
       gradientUnits="userSpaceOnUse" />
    <linearGradient
       inkscape:collect="always"
       xlink:href="#linearGradient4512"
       id="linearGradient4691"
       x1="456.96158"
       y1="370.53256"
       x2="439.0267"
       y2="374.06808"
       gradientUnits="userSpaceOnUse"
       gradientTransform="scale(1.0666667)" />
    <linearGradient
       inkscape:collect="always"
       xlink:href="#linearGradient4540"
       id="linearGradient4703"
       x1="614.69824"
       y1="233.31891"
       x2="639.57654"
       y2="262.10828"
       gradientUnits="userSpaceOnUse"
       gradientTransform="scale(1.0666667)" />
    <linearGradient
       inkscape:collect="always"
       xlink:href="#linearGradient4540"
       id="linearGradient4719"
       x1="591.81177"
       y1="146.52344"
       x2="627.15973"
       y2="184.90923"
       gradientUnits="userSpaceOnUse"
       gradientTransform="scale(1.0666667)" />
    <linearGradient
       inkscape:collect="always"
       xlink:href="#linearGradient4512"
       id="linearGradient4727"
       x1="664.93994"
       y1="282.49362"
       x2="658.21289"
       y2="269.36163"
       gradientUnits="userSpaceOnUse"
       gradientTransform="scale(1.0666667)" />
    <linearGradient
       inkscape:collect="always"
       xlink:href="#linearGradient4512"
       id="linearGradient4735"
       x1="663.94885"
       y1="313.39615"
       x2="657.99042"
       y2="301.52689"
       gradientUnits="userSpaceOnUse"
       gradientTransform="scale(1.0666667)" />
    <linearGradient
       inkscape:collect="always"
       xlink:href="#linearGradient4512"
       id="linearGradient4744"
       gradientUnits="userSpaceOnUse"
       x1="607.4743"
       y1="291.2356"
       x2="628.93536"
       y2="299.82187"
       gradientTransform="scale(1.0666667)" />
    <radialGradient
       inkscape:collect="always"
       xlink:href="#linearGradient4540"
       id="radialGradient4788"
       cx="386.53543"
       cy="549.8338"
       fx="386.53543"
       fy="549.8338"
       r="48.57143"
       gradientTransform="matrix(0.72488404,0.29279538,-0.39877935,1.0048715,329.0533,-115.46878)"
       gradientUnits="userSpaceOnUse" />
    <linearGradient
       inkscape:collect="always"
       xlink:href="#linearGradient4512"
       id="linearGradient4822"
       x1="192.95061"
       y1="576.50549"
       x2="245.74445"
       y2="591.50549"
       gradientUnits="userSpaceOnUse"
       gradientTransform="scale(1.0666667)" />
    <linearGradient
       inkscape:collect="always"
       xlink:href="#linearGradient4540"
       id="linearGradient4895"
       x1="87.756996"
       y1="487.08173"
       x2="136.08069"
       y2="541.62994"
       gradientUnits="userSpaceOnUse"
       gradientTransform="scale(1.0666667)" />
    <linearGradient
       inkscape:collect="always"
       xlink:href="#linearGradient4512"
       id="linearGradient4901"
       gradientUnits="userSpaceOnUse"
       x1="396.46591"
       y1="370.57062"
       x2="388.05423"
       y2="343.29648" />
    <linearGradient
       inkscape:collect="always"
       xlink:href="#linearGradient4512"
       id="linearGradient4904"
       gradientUnits="userSpaceOnUse"
       x1="396.46591"
       y1="370.57062"
       x2="388.05423"
       y2="343.29648" />
    <linearGradient
       inkscape:collect="always"
       xlink:href="#linearGradient4985"
       id="linearGradient4991"
       x1="257.07077"
       y1="185.08389"
       x2="282.39142"
       y2="199.35229"
       gradientUnits="userSpaceOnUse" />
    <linearGradient
       inkscape:collect="always"
       xlink:href="#linearGradient4985"
       id="linearGradient5001"
       x1="310.47223"
       y1="169.50259"
       x2="339.11099"
       y2="200.21687"
       gradientUnits="userSpaceOnUse" />
    <linearGradient
       inkscape:collect="always"
       xlink:href="#linearGradient4985"
       id="linearGradient5009"
       x1="369.40881"
       y1="83.579834"
       x2="396.06125"
       y2="92.5084"
       gradientUnits="userSpaceOnUse" />
    <linearGradient
       inkscape:collect="always"
       xlink:href="#linearGradient4540"
       id="linearGradient5012"
       gradientUnits="userSpaceOnUse"
       x1="113.74416"
       y1="859.97717"
       x2="174.78571"
       y2="886.76294"
       gradientTransform="scale(1.0666667)" />
    <linearGradient
       inkscape:collect="always"
       xlink:href="#linearGradient4540"
       id="linearGradient5015"
       gradientUnits="userSpaceOnUse"
       x1="150.99884"
       y1="780.69257"
       x2="184.45157"
       y2="823.84808"
       gradientTransform="scale(1.0666667)" />
    <linearGradient
       inkscape:collect="always"
       xlink:href="#linearGradient4540"
       id="linearGradient5018"
       gradientUnits="userSpaceOnUse"
       x1="244.17668"
       y1="508.48767"
       x2="251.52292"
       y2="534.49908"
       gradientTransform="scale(1.0666667)" />
    <linearGradient
       inkscape:collect="always"
       xlink:href="#linearGradient4540"
       id="linearGradient5021"
       gradientUnits="userSpaceOnUse"
       x1="270.68613"
       y1="525.41461"
       x2="263.39221"
       y2="558.62335"
       gradientTransform="scale(1.0666667)" />
    <linearGradient
       inkscape:collect="always"
       xlink:href="#linearGradient4540"
       id="linearGradient5024"
       gradientUnits="userSpaceOnUse"
       x1="290.79767"
       y1="516.79193"
       x2="304.93982"
       y2="549.36932"
       gradientTransform="scale(1.0666667)" />
    <linearGradient
       inkscape:collect="always"
       xlink:href="#linearGradient4512"
       id="linearGradient5027"
       gradientUnits="userSpaceOnUse"
       x1="283.63928"
       y1="519.96057"
       x2="279.55521"
       y2="533.72394"
       gradientTransform="scale(1.0666667)" />
    <linearGradient
       inkscape:collect="always"
       xlink:href="#linearGradient4540"
       id="linearGradient5030"
       gradientUnits="userSpaceOnUse"
       x1="264.22021"
       y1="411.64789"
       x2="308.4462"
       y2="444.14789"
       gradientTransform="scale(1.0666667)" />
    <linearGradient
       inkscape:collect="always"
       xlink:href="#linearGradient4512"
       id="linearGradient5033"
       gradientUnits="userSpaceOnUse"
       x1="369.08447"
       y1="459.56973"
       x2="347.84259"
       y2="442.64969"
       gradientTransform="scale(1.0666667)" />
    <linearGradient
       inkscape:collect="always"
       xlink:href="#linearGradient4540"
       id="linearGradient5037"
       gradientUnits="userSpaceOnUse"
       x1="466.90576"
       y1="475.24088"
       x2="408.56793"
       y2="468.81229"
       gradientTransform="scale(1.0666667)" />
    <linearGradient
       inkscape:collect="always"
       xlink:href="#linearGradient4512"
       id="linearGradient5043"
       gradientUnits="userSpaceOnUse"
       x1="396.46591"
       y1="370.57062"
       x2="388.05423"
       y2="343.29648"
       gradientTransform="scale(1.0666667)" />
    <linearGradient
       inkscape:collect="always"
       xlink:href="#linearGradient4512"
       id="linearGradient5067"
       gradientUnits="userSpaceOnUse"
       x1="396.71692"
       y1="667.26074"
       x2="391.79312"
       y2="614.73279"
       gradientTransform="scale(1.0666667)" />
    <linearGradient
       inkscape:collect="always"
       xlink:href="#linearGradient4540"
       id="linearGradient5069"
       gradientUnits="userSpaceOnUse"
       x1="531.95428"
       y1="840.99225"
       x2="474.87125"
       y2="881.34943"
       gradientTransform="matrix(1.0666667,0,0,1.0666667,7.7421997,8.6196699)" />
    <linearGradient
       inkscape:collect="always"
       xlink:href="#linearGradient4540"
       id="linearGradient3149"
       gradientUnits="userSpaceOnUse"
       x1="293.51242"
       y1="108.49234"
       x2="314.50116"
       y2="112.02788"
       gradientTransform="matrix(1.1244305,0,0,1.1244305,-21.281152,-28.042025)" />
    <linearGradient
       inkscape:collect="always"
       xlink:href="#linearGradient4540"
       id="linearGradient3152"
       gradientUnits="userSpaceOnUse"
       x1="318.25"
       y1="80.206459"
       x2="325.79102"
       y2="106.27789"
       gradientTransform="matrix(1.1244305,0,0,1.1244305,-21.281152,-28.042025)" />
    <linearGradient
       inkscape:collect="always"
       xlink:href="#linearGradient4540"
       id="linearGradient3155"
       gradientUnits="userSpaceOnUse"
       x1="345.41776"
       y1="120.73209"
       x2="348.9129"
       y2="146.08923"
       gradientTransform="matrix(1.1244305,0,0,1.1244305,-21.281152,-28.042025)" />
    <linearGradient
       inkscape:collect="always"
       xlink:href="#linearGradient4540"
       id="linearGradient3158"
       gradientUnits="userSpaceOnUse"
       x1="270.08615"
       y1="135.73047"
       x2="280.09821"
       y2="161.08762"
       gradientTransform="matrix(1.1244305,0,0,1.1244305,-21.281152,-28.042025)" />
    <linearGradient
       inkscape:collect="always"
       xlink:href="#linearGradient4540"
       id="linearGradient3161"
       gradientUnits="userSpaceOnUse"
       x1="219.89258"
       y1="164.22624"
       x2="237.78653"
       y2="182.91405"
       gradientTransform="matrix(1.1244305,0,0,1.1244305,-21.281152,-28.042025)" />
    <linearGradient
       inkscape:collect="always"
       xlink:href="#linearGradient4504"
       id="linearGradient3164"
       gradientUnits="userSpaceOnUse"
       x1="371.5625"
       y1="296.10004"
       x2="381.78571"
       y2="320.38574"
       gradientTransform="matrix(1.1244305,0,0,1.1244305,-21.281152,-28.042025)" />
    <linearGradient
       inkscape:collect="always"
       xlink:href="#linearGradient4416"
       id="linearGradient3167"
       gradientUnits="userSpaceOnUse"
       x1="426.52884"
       y1="84.468307"
       x2="413.32202"
       y2="78.754021"
       gradientTransform="matrix(1.1244305,0,0,1.1244305,-21.281152,-28.042025)" />
    <linearGradient
       inkscape:collect="always"
       xlink:href="#linearGradient4416"
       id="linearGradient3170"
       gradientUnits="userSpaceOnUse"
       x1="438.26813"
       y1="146.94855"
       x2="423.47925"
       y2="93.019974"
       gradientTransform="matrix(1.1244305,0,0,1.1244305,-21.281152,-28.042025)" />
    <linearGradient
       inkscape:collect="always"
       xlink:href="#linearGradient4985"
       id="linearGradient3173"
       gradientUnits="userSpaceOnUse"
       x1="369.40881"
       y1="83.579834"
       x2="396.06125"
       y2="92.5084"
       gradientTransform="matrix(1.1244305,0,0,1.1244305,-21.281152,-28.042025)" />
    <linearGradient
       inkscape:collect="always"
       xlink:href="#linearGradient4408"
       id="linearGradient3176"
       gradientUnits="userSpaceOnUse"
       x1="248.66219"
       y1="60.162823"
       x2="295.75446"
       y2="102.30569"
       gradientTransform="matrix(1.1244305,0,0,1.1244305,-21.281152,-28.042025)" />
    <linearGradient
       inkscape:collect="always"
       xlink:href="#linearGradient4985"
       id="linearGradient3184"
       gradientUnits="userSpaceOnUse"
       x1="310.47223"
       y1="169.50259"
       x2="339.11099"
       y2="200.21687"
       gradientTransform="matrix(1.1244305,0,0,1.1244305,-21.281152,-28.042025)" />
    <linearGradient
       inkscape:collect="always"
       xlink:href="#linearGradient4985"
       id="linearGradient3188"
       gradientUnits="userSpaceOnUse"
       x1="257.07077"
       y1="185.08389"
       x2="282.39142"
       y2="199.35229"
       gradientTransform="matrix(1.1244305,0,0,1.1244305,-21.281152,-28.042025)" />
    <linearGradient
       inkscape:collect="always"
       xlink:href="#linearGradient4484"
       id="linearGradient3193"
       gradientUnits="userSpaceOnUse"
       x1="323.03571"
       y1="304.35126"
       x2="380.91617"
       y2="278.99414"
       gradientTransform="matrix(1.1244305,0,0,1.1244305,-21.281152,-28.042025)" />
    <linearGradient
       inkscape:collect="always"
       xlink:href="#linearGradient4458"
       id="linearGradient3197"
       gradientUnits="userSpaceOnUse"
       x1="408.73196"
       y1="208.52324"
       x2="408.79285"
       y2="254.23265"
       gradientTransform="matrix(1.1244305,0,0,1.1244305,-21.281152,-28.042025)" />
    <linearGradient
       inkscape:collect="always"
       xlink:href="#linearGradient4458"
       id="linearGradient3202"
       gradientUnits="userSpaceOnUse"
       x1="291.23419"
       y1="228.14479"
       x2="292.22791"
       y2="249.03764"
       gradientTransform="matrix(1.1244305,0,0,1.1244305,-21.281152,-28.042025)" />
    <linearGradient
       inkscape:collect="always"
       xlink:href="#linearGradient4512"
       id="linearGradient3207"
       gradientUnits="userSpaceOnUse"
       x1="483.86813"
       y1="199.43777"
       x2="472.79773"
       y2="173.17381"
       gradientTransform="matrix(1.1244305,0,0,1.1244305,-21.281152,-28.042025)" />
    <linearGradient
       inkscape:collect="always"
       xlink:href="#linearGradient4512"
       id="linearGradient3210"
       gradientUnits="userSpaceOnUse"
       x1="222.62714"
       y1="205.55353"
       x2="247.14287"
       y2="213.76781"
       gradientTransform="matrix(1.1244305,0,0,1.1244305,-21.281152,-28.042025)" />
    <linearGradient
       inkscape:collect="always"
       xlink:href="#linearGradient4416"
       id="linearGradient3214"
       gradientUnits="userSpaceOnUse"
       x1="415.42151"
       y1="148.69557"
       x2="363.57141"
       y2="90.481285"
       gradientTransform="matrix(1.1244305,0,0,1.1244305,-21.281152,-28.042025)" />
    <linearGradient
       inkscape:collect="always"
       xlink:href="#linearGradient4540"
       id="linearGradient3217"
       gradientUnits="userSpaceOnUse"
       x1="500.03061"
       y1="128.18349"
       x2="503.82736"
       y2="169.85228"
       gradientTransform="matrix(1.1244305,0,0,1.1244305,-21.281152,-28.042025)" />
  </defs>
  <sodipodi:namedview
     id="base"
     pagecolor="#ffffff"
     bordercolor="#666666"
     borderopacity="1.0"
     inkscape:pageopacity="0.0"
     inkscape:pageshadow="2"
     inkscape:zoom="0.7"
     inkscape:cx="35.843272"
     inkscape:cy="498.77526"
     inkscape:document-units="px"
     inkscape:current-layer="layer1"
     showgrid="false"
     inkscape:window-width="1871"
     inkscape:window-height="1056"
     inkscape:window-x="49"
     inkscape:window-y="24"
     inkscape:window-maximized="1"
     fit-margin-top="0"
     fit-margin-left="0"
     fit-margin-right="0"
     fit-margin-bottom="0" />
  <metadata
     id="metadata7">
    <rdf:RDF>
      <cc:Work
         rdf:about="">
        <dc:format>image/svg+xml</dc:format>
        <dc:type
           rdf:resource="http://purl.org/dc/dcmitype/StillImage" />
        <dc:title />
      </cc:Work>
    </rdf:RDF>
  </metadata>
  <g
     inkscape:label="Calque 1"
     inkscape:groupmode="layer"
     id="layer1"
     transform="translate(-5.3389719,-13.561901)">
    <g
       id="g4938"
       transform="matrix(1.0541536,0,0,1.0541536,-21.281152,-28.042025)">
      <path
         inkscape:connector-curvature="0"
         id="path4382"
         d="m 659.93333,155.13333 c -14.8406,0.50269 -32.37977,7.30011 -37.03333,22.66667 -1.96447,12.2417 10.26245,20.6103 10.8,32.4 3.4217,16.76637 -2.6391,34.26676 -14.5,46.43333 -6.72249,8.59068 -12.7893,18.77118 -12.43333,30.06667 -54.31282,33.95219 -107.28135,72.12148 -168.16667,93.23333 -4.54695,1.53036 -9.08159,2.98382 -13.73333,4.23334 8.98255,19.22666 17.92479,38.47226 26.83333,57.73333 60.56128,-31.66915 120.91677,-64.10127 181.53333,-95.43333 12.92059,4.65607 28.74582,6.65672 41.23334,0.0667 7.15275,10.40512 22.35113,8.22456 32.16666,3.06667 17.77642,-7.32735 39.17036,-13.24746 48.86667,-31.43333 4.23616,-8.29664 2.8667,-18.77132 -1.9,-26.13334 3.96213,-8.73681 1.9949,-19.6558 -3.13333,-26.86666 7.60955,-11.17281 5.69776,-29.09919 -7.1,-35.7 -15.46782,-9.91216 -35.44347,-10.66312 -52.53316,-4.5014 -5.75572,2.63496 -5.29128,-0.29701 -3.06744,-4.80048 5.87684,-16.83613 9.41359,-37.65362 -1.16607,-53.39812 -6.22566,-8.09642 -16.66593,-11.9306 -26.66667,-11.63334 z"
         style="fill:#000000;stroke:#000000;stroke-width:5.33333349;stroke-linecap:butt;stroke-linejoin:round;stroke-miterlimit:4;stroke-dasharray:none;stroke-opacity:1" />
      <path
         sodipodi:nodetypes="csccsssssscscssccscscsccscccc"
         inkscape:connector-curvature="0"
         id="path4361"
         d="m 430.85714,386.90061 c 0,0 41.52381,-11.04762 100.57144,-47.61904 59.04761,-36.57144 77.33333,-48.76191 77.33333,-48.76191 0,0 0.57142,5.04761 4.7619,7.04761 -2.47619,-6.85714 -5.23809,-15.71428 3.14286,-29.80952 8.38095,-14.09523 21.90476,-22.38095 22.09524,-46.7619 0.19047,-24.38095 -11.04763,-30.38095 -11.90477,-39.2381 -0.85714,-8.85714 10.38096,-18.28571 24.47619,-21.33333 14.09525,-3.04762 26.09525,0.85715 32.38095,9.61905 6.28572,8.76191 6.09525,24.28571 4.09525,34.38095 -2,10.09524 -8.95239,27.14285 -8.95239,27.14285 0,0 7.04763,4.28572 9.33333,9.7143 2.28572,5.42856 1.33334,11.61904 1.33334,11.61904 0,0 -29.04762,8.47619 -34.19048,14.38096 -5.14286,5.90476 -9.61905,19.14285 -5.71428,27.42856 3.90476,8.28572 11.61905,9.71429 11.61905,9.71429 -3.23809,5.71428 -2.28572,10.57143 -2.28572,10.57143 0,0 -9.33333,4.85714 -20,4.66667 -10.66666,-0.19048 -13.90475,-0.0953 -20,-5.52381 0.4762,2.47619 3.23809,10 19.14286,8.95237 15.90476,-1.04761 21.80952,-4.66666 21.80952,-4.66666 0,0 3.52382,8.19048 8.47619,10.28571 4.95238,2.09525 8.19048,1.42858 8.19048,1.42858 -3.00491,3.4704 -3.80121,8.60882 -2.66666,11.80952 0,0 -5.90477,4.95238 -18.38096,4.38095 -12.47619,-0.57143 -22.19048,-2.47619 -29.04762,-9.33333 0.47619,4.38095 2.76191,6.47619 2.76191,6.47619 l -175.52382,92.57143 z"
         style="fill:url(#linearGradient4691);fill-opacity:1;stroke:none;stroke-width:1.06666672" />
      <path
         sodipodi:nodetypes="csccssssssc"
         inkscape:connector-curvature="0"
         id="path4363"
         d="m 683.14286,230.99585 c 1.52381,1.42858 4,2.85714 5.33333,9.90476 1.33334,7.04762 0.28572,12.19047 0.28572,12.19047 l 30.57142,-11.04761 c -20,12.47619 -54.85714,19.80952 -60.95238,26.09524 -4.71147,4.8587 -9.90476,15.90476 -7.04762,24.28571 2.85714,8.38096 9.52381,10 13.33334,9.90476 3.80952,-0.0953 70.76191,-22.09524 80.95238,-37.61905 10.19048,-15.5238 4.28572,-28.38095 -8.76191,-34.09523 -13.04761,-5.71429 -25.90476,-6.76191 -35.80952,-3.90477 -9.90476,2.85714 -17.90476,4.28572 -17.90476,4.28572 z"
         style="fill:#942917;fill-opacity:1;stroke:none;stroke-width:1.06666672" />
      <path
         sodipodi:nodetypes="csscssssc"
         inkscape:connector-curvature="0"
         id="path4365"
         d="m 746.47619,267.85299 c 0,0 -3.61905,5.61905 -14.95238,11.14286 -11.33334,5.52381 -14.7619,6.85714 -31.42857,13.61905 -16.66666,6.7619 -35.80952,11.80952 -35.80952,11.80952 0,0 -4.09525,5.52381 -2.19048,11.33333 1.90476,5.80952 5.52381,11.52382 11.04762,12 5.52381,0.47619 29.04761,-3.42857 46.47619,-12.95237 17.42857,-9.52381 30.74655,-16.46414 31.71428,-31.80953 0.66667,-10.57142 -4.85714,-15.14286 -4.85714,-15.14286 z"
         style="fill:url(#linearGradient4727);fill-opacity:1;stroke:none;stroke-width:1.06666672" />
      <path
         sodipodi:nodetypes="cssscssc"
         inkscape:connector-curvature="0"
         id="path4367"
         d="m 750.09524,295.66252 c 0,0 5.23809,4.7619 3.33334,15.33333 C 751.52381,321.56727 738,333.28157 722,338.80538 c -16,5.5238 -30.18604,15.52436 -40.57142,8.57143 -11.23811,-7.52382 -1.90477,-17.2381 -1.90477,-17.2381 0,0 11.61905,-1.2381 25.90477,-6.66667 14.2857,-5.42857 29.87558,-14.52414 38.47618,-21.14286 4.47255,-3.44193 6.19048,-6.66666 6.19048,-6.66666 z"
         style="fill:url(#linearGradient4735);fill-opacity:1;stroke:none;stroke-width:1.06666672" />
      <path
         inkscape:connector-curvature="0"
         id="path4693"
         d="m 675.72471,228.87137 c 0,0 12.92996,-26.9374 9.69747,-44.17733 -3.23249,-17.23994 -21.28055,-23.83961 -29.76584,-22.22336 -8.48528,1.61624 -25.99459,9.96683 -25.45584,18.31744 0.53875,8.35059 9.4281,14.00744 11.4484,27.34146 2.02031,13.33401 -1.48156,25.72521 -1.48156,25.72521 z"
         style="fill:url(#linearGradient4719);fill-opacity:1;stroke:none;stroke-width:1.06666672" />
      <path
         sodipodi:nodetypes="sssssssss"
         inkscape:connector-curvature="0"
         id="path4695"
         d="m 731.61982,272.77934 c -20.71719,11.47691 -56.83792,26.66803 -66.13132,26.9374 -9.29341,0.26937 -14.41151,-7.13841 -12.92995,-14.95025 1.48156,-7.81186 5.79154,-14.68089 9.83215,-16.83589 4.04061,-2.15498 41.34891,-14.41151 46.19764,-17.10525 4.84874,-2.69373 12.3912,-5.92622 14.41151,-8.48528 2.02031,-2.55905 11.04433,-4.30998 15.08494,-1.07749 4.04062,3.23249 5.38749,9.42809 3.50187,14.68089 -1.88563,5.25279 -3.4057,13.20112 -9.96684,16.83587 z"
         style="fill:url(#linearGradient4703);fill-opacity:1;stroke:none;stroke-width:1.06666672" />
      <path
         sodipodi:nodetypes="cccscsccscscsccscc"
         inkscape:connector-curvature="0"
         id="path4737"
         d="m 611.16667,288.16667 c 0.35171,3.58446 1.37739,6.66047 2.36666,9.4 -1.82741,-0.87217 -2.96299,-2.3067 -3.66666,-3.66667 -0.34882,2.2096 -0.53334,4.47273 -0.53334,6.76667 0,19.19154 12.62072,35.77827 30.96667,43.73333 4.50331,1.13828 9.59174,1.67493 15.23333,1.93333 12.4762,0.57143 18.36667,-4.4 18.36667,-4.4 -1.13455,-3.2007 -0.33825,-8.3296 2.66667,-11.8 0,0 -3.24762,0.66191 -8.2,-1.43333 -4.95238,-2.09523 -8.46667,-10.26667 -8.46667,-10.26667 0,0 -5.89524,3.61905 -21.8,4.66667 -15.90477,1.04763 -18.65714,-6.49047 -19.13333,-8.96667 6.09524,5.42856 9.33333,5.34286 20,5.53334 10.66666,0.19047 20,-4.66667 20,-4.66667 0,0 -0.97143,-4.85238 2.26666,-10.56667 0,0 -7.69524,-1.44761 -11.6,-9.73333 -3.90476,-8.28572 0.55714,-21.52858 5.7,-27.43333 -14.26897,1.87089 -25.23879,8.95058 -44.16666,20.9 z"
         style="fill:url(#linearGradient4744);fill-opacity:1;stroke:none;stroke-width:1.06666672" />
    </g>
    <g
       id="g4953"
       transform="matrix(1.0541536,0,0,1.0541536,-21.281152,-28.042025)">
      <path
         inkscape:connector-curvature="0"
         id="path4376"
         d="m 173.96667,484.66667 c -24.74928,1.8252 -48.00128,12.43073 -69.45213,24.07519 -28.099486,16.64652 -48.279343,43.97353 -59.459037,74.49791 -12.982914,31.65092 -22.25452,67.26249 -14.02217,101.36023 7.699834,26.85918 32.395176,46.00316 59.366667,50.96667 28.89217,6.33962 59.22575,-2.04545 83.78119,-17.43274 29.35692,-16.66611 52.21645,-42.21582 79.35214,-61.96726 14.38155,-10.30288 31.16655,-16.44309 48.66384,-18.40891 11.33445,-2.24116 22.6583,-4.53538 33.9695,-6.89109 -8.66757,-13.41396 -17.51246,-26.65688 -26.23334,-40.03334 -24.89177,0.18731 -52.61327,1.31933 -71.83333,19.23334 C 206.20156,634.84353 178.04894,664.97347 142.66667,684.7 121.19812,694.74682 90.427311,685.52581 82.2,662.1 75.76934,635.48987 84.486849,607.71925 96.733333,584.06667 109.49732,561.99457 129.17211,543.14082 153.2,533.93333 c 6.88539,-2.67036 16.22047,0.80423 16.43333,9.03334 0.8319,12.98915 -9.98615,21.55762 -15.9,31.83333 -4.95927,8.63878 2.27865,18.1247 10.36667,21.26667 15.39089,6.63109 33.14121,-1.36666 42.97532,-13.83057 10.93437,-13.193 19.26313,-29.33291 21.29135,-46.4361 2.40542,-24.1418 -16.88151,-46.30237 -40.26667,-50.13333 -4.65195,-0.90018 -9.39041,-1.22551 -14.13333,-1 z"
         style="fill:#000000;stroke:#000000;stroke-width:5.33333349;stroke-linecap:butt;stroke-linejoin:round;stroke-miterlimit:4;stroke-dasharray:none;stroke-opacity:1" />
      <path
         inkscape:connector-curvature="0"
         id="path4357"
         d="m 307.62512,595.08534 c 0,0 -36.90423,-0.80811 -55.49104,9.96684 -18.58682,10.77497 -83.23658,74.61661 -110.9821,84.85282 -27.74552,10.23621 -57.107288,-6.46498 -63.033516,-26.12928 -5.926228,-19.66431 -1.077497,-53.06669 15.354318,-82.69782 16.431818,-29.63115 57.107288,-59.53166 72.461608,-50.64232 15.35432,8.88935 5.11811,27.74553 -0.26938,35.28799 -5.38747,7.54248 -15.35431,14.81558 -4.30998,23.70492 11.04434,8.88934 28.55365,4.57936 39.32861,-6.46498 10.77496,-11.04433 30.16989,-41.4836 21.28054,-64.38038 -8.88933,-22.89679 -33.67174,-37.17362 -70.03724,-25.59053 -36.36549,11.58308 -72.192233,28.82302 -94.280902,72.73097 -22.088668,43.90797 -34.749247,97.78278 -17.509311,129.83829 17.239938,32.05549 55.760422,40.94484 84.852823,36.90423 29.09238,-4.04061 62.49476,-24.51303 97.24401,-56.29917 34.74925,-31.78613 53.06669,-37.71236 66.266,-40.13672 13.19933,-2.42438 40.67548,-8.08123 40.67548,-8.08123 z"
         style="fill:url(#linearGradient4822);fill-opacity:1;stroke:none;stroke-width:1.06666672" />
      <path
         inkscape:connector-curvature="0"
         id="path4885"
         d="m 174.2,491.06667 c -20.20946,1.2372 -39.33456,9.7302 -57.37937,18.29272 -28.009287,13.6391 -49.739148,38.00301 -61.705894,66.57347 -13.753854,31.12693 -24.803699,65.81598 -19.346633,100.21462 3.802423,25.47765 25.725883,45.72975 50.231897,51.68585 26.18819,7.62276 54.50857,2.02991 77.8739,-11.26976 27.35891,-14.3126 49.72505,-36.01842 72.99432,-55.82745 16.9762,-14.01385 36.61373,-25.78657 58.85785,-28.25031 9.97614,-1.97249 19.94818,-3.9606 29.90726,-6.01914 -6.63312,-9.61206 -12.656,-20.35318 -19.66666,-29.26667 -21.90459,0.64974 -46.21166,1.66256 -63.17959,17.18201 -31.12774,24.6876 -59.31123,53.60952 -93.45375,74.05132 C 124.7862,702.98528 88.083989,692.99225 76.733333,666.36667 69.298105,642.06175 75.909705,615.6384 85.266667,592.9 96.482852,566.31335 117.76283,543.99949 143.5,530.9 c 8.86176,-4.51717 21.82267,-7.11375 28.76667,2.03333 8.1116,10.05646 1.95631,24.0318 -4.33334,33.33334 -2.91881,5.28319 -11.77923,10.69345 -8.66666,17.66666 7.32491,11.12761 23.85062,9.56544 33.63333,2.66667 13.15006,-9.66098 21.5567,-24.91526 26.66667,-39.93333 5.1247,-13.9524 2.3577,-30.31643 -8,-41.13334 C 202.24559,494.99421 187.9497,490.41155 174.2,491.06667 Z"
         style="fill:url(#linearGradient4895);fill-opacity:1;stroke:none;stroke-width:1.06666672" />
    </g>
    <g
       id="g4948"
       transform="matrix(1.0510439,-0.08091019,0.08091019,1.0510439,-63.643938,15.228201)">
      <path
         sodipodi:nodetypes="ccscscssscscscssssc"
         inkscape:connector-curvature="0"
         id="path4374"
         d="m 386.56863,831.40272 -5.04482,-187.7402 c 0,0 11.61905,-23.80953 23.80952,-28.57143 12.19048,-4.76191 43.42858,3.23809 43.42858,3.23809 0,0 -6.85714,73.71429 -6.28572,98.66667 0.57143,24.95238 8,94.66667 8,94.66667 0,0 48.19048,24.38095 59.04762,29.90475 10.85714,5.52382 47.41425,26.85308 60.95238,37.14286 21.37164,16.24372 25.2048,33.22401 24.44289,37.60496 -0.7619,4.38095 -6.47619,5.71429 -6.47619,5.71429 0,0 0.43167,8.515 -2.80081,12.01687 -3.23249,3.50186 -9.29341,7.00372 -9.29341,7.00372 0,0 -3.50186,6.46497 -7.67716,10.10153 -4.1753,3.63654 -8.48528,6.73435 -8.48528,6.73435 0,0 -2.0203,17.91337 -20.20305,23.16616 -18.18274,5.2528 -32.45956,7.13841 -65.05383,-16.02775 -32.59425,-23.16617 -79.97093,-48.24726 -98.07511,-72.6847 -12.93082,-17.45431 -11.04433,-30.43925 -6.46497,-40.4061 4.57936,-9.96684 16.17936,-20.53074 16.17936,-20.53074 z"
         style="fill:#000000;stroke:#000000;stroke-width:5.33333349;stroke-linecap:butt;stroke-linejoin:round;stroke-miterlimit:4;stroke-dasharray:none;stroke-opacity:1" />
      <path
         sodipodi:nodetypes="cccssssscsscsscscsscscssccscsc"
         inkscape:connector-curvature="0"
         id="path4359"
         d="m 386.01296,646.80515 4.57936,200.41427 c 0,0 -3.36718,-5.52216 -3.50187,-10.50559 0,0 -19.12555,16.97056 -15.08494,36.90424 4.04061,19.93368 40.53814,47.68541 73.1324,67.61908 32.59425,19.93369 48.75669,37.443 78.6572,38.52049 29.90052,1.0775 33.40238,-23.16616 33.67176,-32.05551 0.26938,-8.88934 -4.84874,-20.20305 -21.01118,-26.93739 -16.16243,-6.73436 -30.64363,-17.54493 -30.64363,-17.54493 0,0 15.99486,7.25098 25.79491,11.48401 13.48387,5.82421 24.91708,13.33401 27.47614,20.74179 2.55906,7.40779 1.21219,17.37462 1.21219,17.37462 0,0 12.3912,-6.86903 13.19932,-15.62369 0.80812,-8.75465 -5.65685,-20.06836 -16.43181,-28.68833 -10.77496,-8.61996 -15.01994,-9.19432 -15.01994,-9.19432 0,0 22.75684,5.40394 30.0164,21.24121 7.12058,15.53405 3.59034,16.77613 3.59034,16.77613 0,0 10.3709,-2.28967 9.96684,-13.60338 -0.40406,-11.31372 -8.08122,-19.26024 -13.33401,-23.30085 -5.2528,-4.04062 -10.57527,-9.46371 -10.57527,-9.46371 0,0 9.2284,4.07622 15.01994,9.5984 5.79154,5.52216 8.64844,10.07256 10.50558,17.64398 3.04762,-0.95238 5.38749,-1.07749 2.28969,-11.44839 -3.0978,-10.3709 -20.87649,-26.39865 -35.15331,-34.2105 -14.27682,-7.81185 -102.89822,-55.09319 -102.89822,-55.09319 v 18.99087 c -3.36718,-7.40779 -10.77497,-76.09816 -12.25652,-110.30866 -1.48156,-34.2105 5.65685,-104.11306 5.65685,-104.11306 0,0 -28.82302,-7.13841 -37.98173,-2.42436 -9.15872,4.71405 -20.87649,27.20677 -20.87649,27.20677 z"
         style="fill:url(#linearGradient5067);fill-opacity:1;stroke:none;stroke-width:1.06666672" />
      <path
         inkscape:connector-curvature="0"
         id="path4920"
         d="m 469.64697,888.85361 c 0,0 27.04761,13.71429 43.80951,24.76191 16.76191,11.04762 35.42858,13.52381 38.28572,28.38095 2.85714,14.85715 -4.19048,31.04763 -19.04762,33.90477 -14.85714,2.85714 -41.52381,-2.66667 -69.14286,-24.19048 -27.61905,-21.52381 -42.09524,-35.2381 -37.71428,-48.38096 4.38095,-13.14286 43.80953,-14.47619 43.80953,-14.47619 z"
         style="fill:url(#linearGradient5069);fill-opacity:1;stroke:none;stroke-width:1.06666672" />
    </g>
    <g
       id="g5050"
       transform="matrix(1.0541536,0,0,1.0541536,-21.281152,-28.042025)">
      <path
         sodipodi:nodetypes="ccssscccsssscscscssssscsccsssscsssscccccc"
         inkscape:connector-curvature="0"
         id="path4369"
         d="m 443.1,311.56667 c -14.58598,2.06986 -39.12083,13.20087 -58.33333,22.36666 0,0 7.99524,33.14763 4.56666,46.1 -3.42857,12.95239 -20.57142,30.10953 -58.66666,47.63334 -38.09525,17.5238 -50.66191,27.81905 -49.9,49.53333 0.7619,21.71428 10.13198,68.1626 10.13198,68.1626 -8.48528,6.46498 -9.51032,11.2824 -11.66532,13.4374 -1.61624,-4.57936 -7.43333,-6.1 -7.43333,-6.1 0,0 -4.47142,-13.02858 -15.23333,-12.26667 -10.7619,0.7619 -20.66191,7.21429 -22.56667,16.16667 -1.90476,8.95237 2.19523,16.12381 4.1,19.93333 1.90476,3.80953 6.7619,29.04285 8,33.9 1.23809,4.85714 15.13333,7.7 15.13333,7.7 0,0 1.5381,7.70953 6.96667,11.23334 5.42858,3.5238 11.8,2.2 11.8,2.2 0,0 7.52381,6.39524 19.33333,6.96666 C 311.14286,639.10477 311.9,638.6 311.9,638.6 c 0,0 -29.05838,89.30303 -39.83333,122.16667 -10.77497,32.86362 -19.13232,56.82419 -25.86667,64.36666 -6.73436,7.54248 -40.6653,20.20795 -67.33333,29.36667 -26.66802,9.15871 -67.33773,26.1242 -73.53334,33.66667 C 99.137731,895.70914 91.503553,910.40254 94.466667,920.1 97.429781,929.79747 101,930.46667 101,930.46667 c 0,0 0.95262,7.40219 5.66667,10.5 4.71404,3.0978 13.86666,6.73333 13.86666,6.73333 2.28968,7.54247 18.2,12.66667 18.2,12.66667 0,0 4.98242,21.3072 25.73334,30.43333 19.83815,8.7247 64.86687,-4.39718 81.9,-27.73333 32.45534,-44.4653 59.36196,-45.6859 73.83333,-78.93334 8.21301,-18.8691 1.72861,-42.48832 5.96667,-60.33333 12.85776,-54.13958 29.41132,-89.66462 51.5,-156.2 31.74561,-0.4719 67.99127,-25.3706 82.46666,-45.23333 9.30389,-12.76654 15.57294,-22.07388 14.33334,-45 -1.11055,-20.53924 -4.67709,-40.37418 -5.36667,-61.4 -0.94547,-28.82833 3.41333,-61.94418 2.16667,-91.03334 -0.88562,-20.66497 -15.25119,-35.97889 -19.33334,-53.06666 -4.29441,-19.79646 -8.83333,-60.3 -8.83333,-60.3 z M 369.7,470.9 l -17.33333,54.86667 -12,-42.5 C 353.89047,476.98095 369.7,470.9 369.7,470.9 Z"
         style="fill:#000000;stroke:#000000;stroke-width:5.33333349;stroke-linejoin:round;stroke-miterlimit:4;stroke-dasharray:none;stroke-opacity:1" />
      <path
         sodipodi:nodetypes="cssssscsssssscscsscscsscscssssscsscccccsscc"
         inkscape:connector-curvature="0"
         id="path4349"
         d="m 439.23809,316.80538 c 0,0 4.57144,42.66666 9.52382,59.80952 4.95237,17.14286 12.95237,19.04762 17.14285,41.52381 4.19048,22.47619 -0.7619,61.33333 -0.38095,97.52381 0.38095,36.19047 9.52381,64.76191 0.38095,89.14286 -9.14285,24.38095 -52.57143,51.42856 -68.95238,55.61905 -16.38096,4.19047 -22.85714,3.04761 -22.85714,3.04761 0,0 -47.2381,134.09523 -51.42857,152.76191 -4.19048,18.66667 -3.42858,34.66667 -3.42858,47.23809 0,12.57143 -3.42856,28.95239 -32.7619,51.42858 -29.33333,22.47618 -49.90477,55.61904 -68.19047,63.61904 -18.28572,8 -47.61905,19.80952 -66.66667,-3.04762 -19.04763,-22.85714 -3.04763,-45.71428 4.95237,-50.28571 8,-4.57143 20.95239,-10.66667 20.95239,-10.66667 0,0 -23.90476,2 -32.28572,17.52381 -8.38095,15.52382 -6.95237,25.04762 -6.95237,25.04762 0,0 -12.76191,-3.90476 -14.66667,-12.09524 -1.90477,-8.19047 0.85714,-16.09524 5.42857,-21.33333 4.57143,-5.23809 9.90476,-12.57143 9.90476,-12.57143 0,0 -13.33333,8.38095 -16.66666,17.90476 -3.33334,9.52381 -2.66667,15.33333 -2.66667,15.33333 0,0 -13.42857,-2 -14,-14.09524 -0.57143,-12.09523 6.38095,-21.42856 10.95237,-25.23809 4.57144,-3.80952 10.4762,-6.76191 10.4762,-6.76191 0,0 -15.29349,4.73079 -21.52381,17.04763 -3.21102,6.34793 -3.5007,8.50292 -3.90476,12.47619 -2.424368,-3.43452 -7.523812,-7.71429 -4.000003,-18.19049 3.523813,-10.47618 5.904763,-18.38094 16.476193,-23.61904 10.57143,-5.2381 48.19048,-22.19047 68.47618,-29.33333 20.28572,-7.14286 58.38096,-18.28572 67.33334,-29.33333 8.95238,-11.04763 33.14286,-93.33334 44.19048,-122.66667 11.04762,-29.33333 20.7619,-66.47619 20.7619,-66.47619 0,0 24.67938,0.42875 41.14286,-23.61905 16.95238,-24.76191 15.93444,-42.45412 10.28572,-55.23809 -3.61905,-8.19048 -8.95239,-15.2381 -12.19048,-27.42858 l 20,-62.09523 33.33334,-10.85715 -19.80953,0.38096 -21.33333,-45.7143 c 0,0 16,-9.5238 21.71428,-19.23809 5.71428,-9.71428 7.80953,-16.76191 7.42858,-21.33333 -0.38096,-4.57142 -5.14286,-35.04762 -5.14286,-35.04762 13.15185,-9.21762 23.69599,-11.69109 48.95237,-21.14285 z"
         style="fill:url(#linearGradient5043);fill-opacity:1;stroke:none;stroke-width:1.06666672" />
      <path
         sodipodi:nodetypes="csssssscsscscsssccscccscscc"
         inkscape:connector-curvature="0"
         id="path4351"
         d="m 307.42858,602.23395 c 0,0 -7.42667,-29.52818 -23.42858,-29.2381 -16.13469,0.29249 -22.92534,11.99391 -21.33333,15.80953 6.1311,14.69453 13.33333,36.76189 20,41.71428 6.66666,4.95238 21.71428,6.66667 34.85714,5.14286 13.14286,-1.52381 36,-14.85714 44.57143,-39.42858 8.57143,-24.57142 0,-37.33333 -6.47619,-51.42856 -6.47619,-14.09525 -19.2381,-63.42858 -19.2381,-63.42858 0,0 20.0899,-9.73164 30.57143,-12.95238 11.45955,-3.52126 21.33334,-8 32.38096,-8.7619 11.04762,-0.76191 18.7619,-3.23809 18.7619,-3.23809 0,0 1.52381,-24.95239 -7.04762,-35.80953 -8.57143,-10.85714 -28,-15.04763 -28,-15.04763 0,0 -8,3.23811 -27.04762,13.7143 -19.04762,10.47619 -46.66667,21.90476 -55.42858,28.38095 -8.76189,6.47619 -18.47618,20.76191 -15.04761,39.80952 3.42857,19.04762 10.85714,55.80953 10.85714,55.80953 0,0 12.09524,-1.42858 17.90477,3.42856 -5.71429,-0.95238 -18.85714,-3.42856 -25.33334,4.57144 -6.47619,8 -7.80952,11.23809 -7.80952,11.23809 l 3.61905,8 c 0,0 10.45985,-1.51424 16.65032,11.43814 0,0 0.0163,-17.43814 16.87349,-21.91433 17.90662,-4.75487 27.42856,7.2381 27.42856,7.2381 0,0 -20.1147,-11.92654 -33.90475,0 -7.04763,6.09524 -7.80953,12.90336 -8.28572,17.7605 5.42857,9.52381 3.90477,17.19188 3.90477,17.19188 z"
         style="fill:#942917;fill-opacity:1;stroke:none;stroke-width:1.06666672" />
      <path
         sodipodi:nodetypes="csscssssc"
         inkscape:connector-curvature="0"
         id="path4353"
         d="m 278.19049,628.99585 c -9.23811,-15.04762 -17.21683,-33.22448 -18.09525,-39.80952 -0.76955,-5.76891 3.42857,-11.52381 9.61904,-14.57143 6.19048,-3.04763 12.38096,-3.71429 12.38096,-3.71429 0,0 -4.38096,-13.42857 -10.38096,-15.23809 -6,-1.80953 -20.95237,-0.76191 -21.90475,11.90475 -0.95239,12.66667 4.66666,22.38096 7.80952,31.61906 3.14286,9.2381 5.94957,20.55522 10.28571,25.61905 4.79549,5.60026 6.07258,4.69542 10.28573,4.19047 z"
         style="fill:#942917;fill-opacity:1;stroke:none;stroke-width:1.06666672" />
      <path
         sodipodi:nodetypes="cssscssssc"
         inkscape:connector-curvature="0"
         id="path4355"
         d="m 260.47619,615.3768 c 0,0 -5.14286,-18.09523 -9.2381,-27.33333 -4.09523,-9.23809 -5.42856,-19.04762 -3.61904,-24.28571 1.80953,-5.2381 7.71428,-10.28572 11.61904,-11.04763 3.90477,-0.7619 10.09524,0.28572 10.09524,0.28572 0,0 -3.71428,-9.71428 -11.80952,-10.19047 -8.09523,-0.4762 -20.85714,8.19047 -21.52381,16.47619 -0.66667,8.2857 5.61905,15.33333 7.23809,22.19047 1.61905,6.85714 5.2381,27.61905 8.00001,30.85714 2.7619,3.23811 9.23809,3.04762 9.23809,3.04762 z"
         style="fill:#942917;fill-opacity:1;stroke:none;stroke-width:1.06666672" />
      <path
         sodipodi:nodetypes="csssssssssc"
         inkscape:connector-curvature="0"
         id="path4790"
         d="m 439.07964,339.44941 c 0,0 1.0775,31.51676 6.46498,41.48359 5.38748,9.96684 15.08494,26.12928 16.43181,37.71237 1.34687,11.58308 -1.0775,78.38784 -0.26937,100.47651 0.80812,22.08866 6.71044,57.51727 3.77123,71.65348 -5.65686,27.20677 -28.82302,43.90797 -44.44671,53.33605 -15.62369,9.4281 -39.86736,16.43182 -47.94857,14.81558 -8.08122,-1.61625 -18.58681,-11.31371 -17.50931,-20.47243 1.07749,-9.15872 49.29544,-111.52084 53.8748,-136.30325 4.57936,-24.7824 1.61625,-131.45452 2.42436,-142.22948 0.80813,-10.77496 27.20678,-20.47242 27.20678,-20.47242 z"
         style="fill:url(#linearGradient5037);fill-opacity:1;stroke:none;stroke-width:1.06666672" />
      <ellipse
         transform="rotate(11.377102)"
         id="path4396"
         style="fill:#000000;fill-opacity:1;stroke:none;stroke-width:1.06666672"
         cx="545.25177"
         cy="512.07007"
         rx="3.6190476"
         ry="6.2857141" />
      <path
         inkscape:connector-curvature="0"
         id="path4746"
         d="m 374.02581,469.82643 -20.20305,62.36009 c 0,0 26.39866,2.42436 41.34892,-18.31744 14.95025,-20.74179 11.98714,-54.9523 11.98714,-54.9523 z"
         style="fill:url(#linearGradient5033);fill-opacity:1;stroke:none;stroke-width:1.06666672" />
      <path
         sodipodi:nodetypes="csscccsc"
         inkscape:connector-curvature="0"
         id="path4824"
         d="m 385.14286,405.3768 c -15.23809,11.2381 -73.52382,37.14286 -85.90476,48.57143 -11.18651,10.32601 -11.42857,29.14286 -8.76191,40.95238 2.66667,11.80952 8,41.90477 8,41.90477 l 45.71428,-2.28572 -11.04761,-53.71428 c 0,0 41.33333,-20.57144 54.47619,-22.28572 13.14286,-1.71428 -3.89534,-46.16901 -2.47619,-53.14286 z"
         style="fill:url(#linearGradient5030);fill-opacity:1;stroke:none;stroke-width:1.06666672" />
      <path
         id="path4842"
         d="m 303.7,545.6 c -5.35296,0.006 -11.09047,1.16667 -14.73333,5.66667 -6.4762,8 -7.83334,11.26666 -7.83334,11.26666 l 3.63334,8 c 0,0 10.44286,-1.51905 16.63333,11.43334 0,0 0.0429,-17.45714 16.9,-21.93334 5.39529,-1.43265 9.99152,-1.32202 13.83333,-0.5 l -18.26666,-12.9 C 311.3594,546.21217 307.65471,545.59536 303.7,545.6 Z"
         style="fill:url(#linearGradient5027);fill-opacity:1;stroke:none;stroke-width:1.06666672"
         inkscape:connector-curvature="0" />
      <path
         inkscape:connector-curvature="0"
         id="path4855"
         d="m 353.68807,579.19228 c 0,0 -9.42808,-15.35432 -27.34146,-15.35432 -17.91336,0 -21.01116,20.87648 -21.01116,20.87648 0,0 2.28967,1.75094 3.36716,9.15872 1.07751,7.40779 2.155,18.31743 2.155,18.31743 z"
         style="fill:url(#linearGradient5024);fill-opacity:1;stroke:none;stroke-width:1.06666672" />
      <path
         sodipodi:nodetypes="csssc"
         inkscape:connector-curvature="0"
         id="path4857"
         d="m 307.49044,606.66843 c 0,0 -6.1956,-23.43554 -17.644,-29.90053 -11.44839,-6.46497 -26.39865,6.19562 -25.45585,10.90967 0.94282,4.71404 7.13841,15.89305 9.69746,24.64771 1.77447,6.07053 33.40239,-5.65685 33.40239,-5.65685 z"
         style="fill:url(#linearGradient5021);fill-opacity:1;stroke:none;stroke-width:1.06666672" />
      <path
         sodipodi:nodetypes="csscsc"
         inkscape:connector-curvature="0"
         id="path4875"
         d="m 279.74492,570.30293 c 0,0 -2.82844,-16.97056 -17.23995,-13.46869 -14.41151,3.50186 -11.44839,14.68087 -10.77495,19.52961 0.67343,4.84874 4.71404,16.16244 4.71404,16.16244 0,0 1.21871,-10.49006 7.67716,-15.75838 4.36975,-3.56452 9.02404,-6.33029 15.6237,-6.46498 z"
         style="fill:url(#linearGradient5018);fill-opacity:1;stroke:none;stroke-width:1.06666672" />
      <path
         sodipodi:nodetypes="cccccccccccccccccccccc"
         inkscape:connector-curvature="0"
         id="path4897"
         d="m 255.26667,822.13333 c -5.32646,13.28514 -20.63433,17.29544 -32.52464,22.66047 -26.79852,9.85982 -54.22785,18.17695 -80.13207,30.44104 -11.30893,5.73243 -24.31122,9.1672 -34.17663,17.26516 -5.83877,6.75693 -9.078981,15.81214 -9.83333,24.46667 -0.04735,1.82969 1.75531,7.79263 2.4,3.26666 3.80857,-11.90627 14.49678,-21.12367 26.39998,-24.00662 8.10536,-1.80107 0.50398,4.41905 -2.76665,5.77329 -11.49097,5.84068 -20.13781,20.17493 -15.63333,33 1.47174,2.96859 6.01648,6.6311 8.5,6 0.43162,-11.43774 6.38567,-21.95783 15.76667,-28.43333 3.12507,-2.70644 6.7971,-4.46596 10.6,-6.1 -4.67968,12.2058 -19.53644,19.76626 -18.7,33.96666 -0.5466,6.60457 5.34009,11.37015 10.96666,13.53334 1.35569,-14.43735 8.00551,-30.24368 22.1,-36.23334 7.98047,-3.56852 16.73846,-6.15508 25.6,-4.96666 -10.95047,8.84294 -27.9634,10.42166 -34.76666,23.96666 -8.4581,13.70194 -3.46889,32.12746 8.63333,41.86667 14.16,12.44219 34.77654,8.2648 50.53333,1.8 21.44142,-6.40867 34.10969,-26.28289 49.26667,-41.46667 11.72181,-13.39127 26.1026,-24.09201 39.43333,-35.66666 -21.67431,-54.00505 -26.05863,-70.4407 -41.66666,-81.13334 z"
         style="fill:url(#linearGradient5015);fill-opacity:1;stroke:none;stroke-width:1.06666672" />
      <path
         inkscape:connector-curvature="0"
         id="path4910"
         d="m 250.28572,933.94823 c 0,0 -14.47619,37.33334 -46.47619,44.95239 -32,7.61904 -45.71429,8 -56.38095,-19.80953 -10.66667,-27.80952 36.19047,-42.28571 46.85714,-47.2381 10.66666,-4.95237 40.38095,-4.95237 46.47619,2.66667 6.09523,7.61905 9.52381,19.42857 9.52381,19.42857 z"
         style="fill:url(#linearGradient5012);fill-opacity:1;stroke:none;stroke-width:1.06666672" />
    </g>
    <path
       style="fill:#000000;stroke:#000000;stroke-width:5.62215281;stroke-linecap:butt;stroke-linejoin:round;stroke-miterlimit:4;stroke-dasharray:none;stroke-opacity:1"
       d="m 264.52618,165.66 c 0,0 -5.39527,-12.7073 -16.82472,-12.99124 -11.42945,-0.28397 -27.11833,4.54338 -31.44875,21.15513 -4.33042,16.61176 4.82106,41.7396 10.8448,52.7831 6.02374,11.04352 16.26409,25.50049 16.26409,25.50049 0,0 -13.65379,9.83876 -10.84272,30.52024 2.81108,20.6815 18.47279,37.34716 52.60729,55.01678 34.13448,17.66962 64.65475,28.71314 95.37579,28.51235 30.72106,-0.20079 45.7804,-15.26012 50.59937,-19.47674 4.81899,-4.21661 16.2641,-15.66171 16.2641,-15.66171 0,0 21.88623,-13.25222 33.33132,-30.31947 11.4451,-17.06725 14.05538,-28.11076 14.05538,-28.11076 0,0 41.1622,-20.88228 57.0247,-36.544 15.8625,-15.66171 30.92184,-48.99304 33.33133,-67.26503 2.40949,-18.272 -4.6182,-45.98119 -24.09494,-49.59542 -19.47674,-3.61425 -34.33529,-3.21266 -45.98118,1.80712 -11.64589,5.01978 -20.07912,10.44115 -20.07912,10.44115 0,0 -3.21265,-21.28387 -13.65378,-35.540049 -10.44116,-14.256168 -13.8546,-18.071201 -13.8546,-18.071201 0,0 6.22452,-13.051425 -8.03165,-19.275951 -14.25618,-6.224527 -23.09098,1.003956 -23.09098,1.003956 0,0 -13.05144,-4.216615 -27.30761,-4.417406 -14.25617,-0.200791 -28.11076,5.421362 -28.11076,5.421362 0,0 -22.08703,-29.315511 -49.39462,-36.543992 -27.3076,-7.228482 -46.98512,-12.850634 -74.49352,0.200791 -27.50839,13.051426 -45.98118,38.752694 -43.17011,62.245265 2.81108,23.492555 14.85856,34.536075 30.11869,49.996985 15.26013,15.46092 21.88623,18.67359 21.88623,18.67359 -1.98774,2.83962 -1.32403,10.53466 -1.32403,10.53466 z"
       id="path4347"
       inkscape:connector-curvature="0"
       sodipodi:nodetypes="cssscsssscscsssscscscscsssscc" />
    <path
       style="fill:#942917;fill-opacity:1;stroke:none;stroke-width:1.06666672"
       d="m 269.46445,172.99574 c 0,0 -8.31561,-15.47517 6.34215,-27.32185 14.65775,-11.84669 27.18998,-11.43083 32.20975,-10.02529 5.01979,1.40553 12.24827,8.8348 12.24827,8.8348 0,0 -4.81899,-12.85062 -16.0633,-13.45301 -11.2443,-0.60237 -16.46487,3.61425 -16.46487,3.61425 0,0 5.42136,-15.05934 16.86645,-24.09493 11.4451,-9.03562 13.25221,-9.03562 13.25221,-9.03562 0,0 8.68447,0.81917 13.65381,5.22058 -3.26556,-11.074508 -24.14539,-9.520365 -30.25056,-7.816594 3.12357,-4.117439 6.72363,-7.662128 14.99043,-8.849077 8.80036,-1.263556 14.32262,-1.383623 23.69335,6.425322 l -5.82293,-8.031649 c -0.56794,-10.506579 -14.85856,-20.68149 -14.85856,-20.68149 0,0 20.68149,-11.043514 34.13451,3.614241 13.453,14.657751 11.4451,20.079115 11.4451,20.079115 0,0 2.05663,-3.516804 1.06276,-6.356417 5.82121,-3.123581 23.03217,-1.474437 23.03217,-1.474437 0,0 17.46883,23.894146 31.52421,39.555856 14.05538,15.66172 36.0937,38.52755 36.0937,38.52755 -1.98773,1.41981 -3.56554,6.0481 -3.56554,6.0481 0,0 51.40255,-47.38672 83.12755,-46.58356 31.72501,0.80316 39.35508,9.63797 44.57564,27.70918 5.22057,18.07121 -14.45696,69.07216 -31.32342,84.33229 -16.86646,15.26013 -54.2136,35.33924 -54.2136,35.33924 0,0 11.64588,-50.19778 -21.68546,-59.43417 -33.33133,-9.23641 -63.45001,2.81107 -63.45001,2.81107 0,0 13.6538,-57.42627 -20.88228,-69.87533 -34.53609,-12.44906 -63.1476,20.44727 -67.26504,39.75666 0,0 -3.28155,-23.34642 -21.62663,-25.35851 -16.9702,-1.8613 -30.77986,16.52368 -30.77986,16.52368 z"
       id="path3361"
       inkscape:connector-curvature="0"
       sodipodi:nodetypes="csscscscccscccscccsccssscscscsc" />
    <path
       style="fill:url(#linearGradient3217);fill-opacity:1;stroke:none;stroke-width:1.06666672"
       d="m 450.09508,175.31469 c 0,0 23.28485,-23.0009 41.74235,-34.07538 18.4575,-11.07451 27.82823,-15.6179 38.90274,-16.18583 11.0745,-0.56791 29.48481,0.52076 37.19897,8.23489 5.39527,5.39527 10.91341,12.78539 10.50658,24.4207 -1.41981,40.6065 -49.40931,26.12447 -67.58286,28.11219 -35.94303,1.77915 -46.71358,-6.65447 -60.76778,-10.50657 z"
       id="path4530"
       inkscape:connector-curvature="0"
       sodipodi:nodetypes="csssscc" />
    <path
       style="fill:url(#linearGradient3214);fill-opacity:1;stroke:none;stroke-width:1.06666672"
       d="m 381.1767,63.149728 c 15.70156,36.482946 77.43303,95.790632 77.43303,95.790632 l 10.84272,-9.63797 C 440.60497,131.30895 381.1767,63.149728 381.1767,63.149728 Z"
       id="path4139"
       inkscape:connector-curvature="0"
       sodipodi:nodetypes="cccc" />
    <path
       style="fill:#ffffff;stroke:none;stroke-width:1.06666672"
       d="m 270.3474,237.50228 c -6.38914,-2.83961 -13.50871,-43.39021 -1.70377,-59.63193 12.31763,-16.9471 29.24804,-20.16128 37.19896,-16.75374 11.99615,5.14121 13.77214,21.58109 15.04996,30.38389 9.08678,-30.95181 28.82211,-45.43385 46.14376,-48.27346 18.17122,-2.9789 31.21464,3.41626 37.19896,17.88956 6.06487,14.66808 6.81509,26.97636 2.41368,52.24894 -17.0377,7.52498 -29.07874,16.47517 -39.56219,24.40346 -14.19807,1.70378 -20.06974,0.3012 -20.06974,0.3012 0,0 -18.17354,-22.14901 -43.44612,-17.0377 -21.06657,4.26066 -33.2235,16.46978 -33.2235,16.46978 z"
       id="path4307"
       inkscape:connector-curvature="0"
       sodipodi:nodetypes="csscsscccsc" />
    <path
       style="fill:url(#linearGradient3210);fill-opacity:1;stroke:none;stroke-width:1.06666672"
       d="m 259.1237,204.72076 c -1.00396,-19.57714 7.52968,-28.11077 7.52968,-28.11077 0,0 -6.42533,-19.87832 -19.07517,-20.68149 -12.64985,-0.80316 -33.33132,7.63007 -28.71313,35.33924 4.61819,27.70919 20.98267,52.80809 27.1068,59.0326 9.63798,-7.73045 20.48071,-6.62609 20.48071,-6.62609 l 3.01186,-3.81504 c -7.07788,-4.5178 -9.0858,-24.24554 -10.24034,-29.06451 0,0 -3.61425,-14.60756 -13.8546,-20.8321 -10.24036,-6.22451 -14.65776,0.90357 -14.65776,0.90357 0,0 4.61821,-8.83481 13.45302,-5.22058 8.8348,3.61425 12.14786,12.85063 14.95893,19.07517 z"
       id="path4309"
       inkscape:connector-curvature="0"
       sodipodi:nodetypes="ccssccccscsc" />
    <path
       style="fill:url(#linearGradient3207);fill-opacity:1;stroke:none;stroke-width:1.06666672"
       d="m 506.88739,167.78971 c 0,0 11.50045,8.66083 9.93866,14.766 -1.56178,6.10518 -1.84575,14.62402 -6.95706,21.4391 -5.1113,6.81508 -10.08064,13.06224 -10.08064,13.06224 0,0 38.05086,-1.84576 45.14989,-10.79055 7.09905,-8.94478 14.34006,-31.23578 14.76602,-36.48906 0.42593,-5.2533 -1.41981,-13.91412 -8.23489,-14.62402 -6.81508,-0.70991 -24.70467,0 -34.21737,5.11131 -9.51271,5.1113 -10.36461,7.52498 -10.36461,7.52498 z"
       id="path4520"
       inkscape:connector-curvature="0" />
    <path
       style="fill:#000000;stroke:none;stroke-width:1.06666672"
       d="m 470.05483,191.26774 c 0,0 11.04352,-20.68148 46.78434,-33.13053 35.74082,-12.44905 41.94398,-3.5309 43.97327,4.01581 2.69166,10.01 -5.62217,22.8902 -5.62217,22.8902 0,0 4.61821,-16.86645 1.20475,-22.89019 -3.41344,-6.02374 -20.68148,-7.83085 -45.3788,3.21266 0,0 8.37344,6.78078 8.03165,16.46488 -0.60238,17.06723 -14.65776,29.3155 -14.65776,29.3155 0,0 10.24034,-15.8625 9.03561,-25.70127 -1.20475,-9.83876 -11.2443,-15.8625 -11.2443,-15.8625 -12.24827,5.22058 -32.12659,21.68544 -32.12659,21.68544 z"
       id="path4311"
       inkscape:connector-curvature="0"
       sodipodi:nodetypes="csscscscscc" />
    <path
       style="fill:#eab16c;fill-opacity:1;stroke:none;stroke-width:1.06666672"
       d="m 267.25574,251.5051 c 0,0 1.60633,-7.22848 6.42533,-12.64985 4.81898,-5.42136 21.87216,-15.21299 36.14241,-15.26012 15.76329,-0.0521 24.49652,5.42135 30.92184,13.45301 6.4253,8.03165 8.33282,13.85459 8.33282,13.85459 0,0 -0.2008,-5.92335 -1.50594,-9.2364 5.42137,1.50594 18.27201,-0.40158 18.27201,-0.40158 l -1.60633,6.62611 c 8.73442,-12.54944 29.31551,-26.70523 45.57959,-31.52421 16.26409,-4.81899 35.74082,-10.84274 56.62311,-5.42137 20.88228,5.42137 24.69732,18.27199 25.29969,30.31947 0.60238,12.04746 3.01186,28.91392 -9.63798,50.39858 -12.64984,21.48465 -38.75269,37.94953 -38.75269,37.94953 0,0 -26.30365,29.5163 -47.7883,32.32737 -21.48466,2.81109 -62.44606,-4.2166 -94.37185,-20.07912 -31.92579,-15.8625 -54.21361,-30.11867 -62.04447,-49.39462 -7.83085,-19.27594 -0.20079,-32.12659 6.22453,-37.74874 6.42532,-5.62216 11.14391,-7.32888 20.27991,-8.43323 z"
       id="path4313"
       inkscape:connector-curvature="0"
       sodipodi:nodetypes="csssccccsssscsssscc" />
    <path
       style="fill:url(#linearGradient3202);fill-opacity:1;stroke:none;stroke-width:1.06666672"
       d="m 268.66128,256.1233 c 1.18022,-14.99409 20.4807,-28.71315 35.94162,-29.91789 23.26363,-1.81275 33.93371,11.4451 37.74875,19.07517 3.81502,7.63005 2.61028,23.29176 -9.03562,28.31155 -11.64588,5.01976 -44.97721,8.03165 -56.02073,1.00396 -11.0435,-7.0277 -9.17016,-11.66138 -8.63402,-18.47279 z"
       id="path4440"
       inkscape:connector-curvature="0"
       sodipodi:nodetypes="ssssss" />
    <path
       style="fill:#000000;stroke:none;stroke-width:1.06666672"
       d="m 275.58859,253.21182 c 0,0 0.50197,-5.62215 4.2166,-5.62215 3.71464,0 3.31306,14.95894 3.31306,14.95894 0,0 -2.61028,-10.84272 -4.41741,-11.14392 -1.80712,-0.30117 -3.11225,1.80713 -3.11225,1.80713 z"
       id="path4315"
       inkscape:connector-curvature="0" />
    <path
       style="fill:#000000;stroke:none;stroke-width:1.06666672"
       d="m 320.96738,245.28058 c 7.02769,0.80315 4.01583,9.53757 4.01583,9.53757 0,0 -0.60238,-5.01978 -4.6182,-5.12018 -4.01582,-0.10037 -10.94311,5.22058 -17.46882,12.34866 2.82743,-8.02773 9.28226,-17.3482 18.07119,-16.76605 z"
       id="path4317"
       inkscape:connector-curvature="0"
       sodipodi:nodetypes="ccscc" />
    <path
       style="fill:url(#linearGradient3197);fill-opacity:1;stroke:none;stroke-width:1.06666672"
       d="m 355.81984,278.96066 c 1.07295,-12.46592 9.08677,-33.50747 32.93954,-48.84139 23.85277,-15.33393 50.40917,-18.43988 63.89135,-17.88957 13.91412,0.56792 27.54428,5.9632 32.08766,14.76599 4.53031,8.77745 5.39526,32.37163 1.13585,47.42159 -4.25942,15.04996 -23.28485,34.92727 -34.07538,42.59424 -10.79055,7.66695 -59.63194,7.66695 -74.96587,-5.39527 -15.33393,-13.06223 -22.29192,-17.7984 -21.01315,-32.65559 z"
       id="path4466"
       inkscape:connector-curvature="0"
       sodipodi:nodetypes="ssssssss" />
    <path
       style="fill:#000000;stroke:none;stroke-width:1.06666672"
       d="m 257.31659,285.13761 c 12.21034,8.09291 22.28782,10.44114 22.28782,10.44114 0,0 21.97876,36.19878 54.63434,48.97704 32.65559,12.77828 56.79231,9.93866 68.43474,4.54339 11.64242,-5.39527 32.93954,-16.46977 40.60651,-45.71783 7.66697,-29.24804 7.383,-62.18758 7.383,-62.18758 4.71859,0.60237 8.66084,3.62051 11.99738,8.09292 -0.49693,-3.90448 -3.86178,-13.64897 -21.36811,-15.47592 -19.16097,-1.99961 -26.97636,3.33655 -28.75111,9.5837 5.04031,-3.54952 12.68919,-5.6112 19.9483,-5.0403 0,0 -20.72919,40.32253 -74.96587,49.40931 -54.23665,9.08677 -78.58636,9.65469 -98.81862,-5.39528 0,0 2.05872,-4.47238 9.08676,-7.38299 -2.76863,-0.35495 -6.31813,-1.06486 -12.56529,6.03417 -5.94,6.75 -3.26554,12.42333 -1.56179,15.47592 0.63892,-7.95094 2.4451,-9.01501 3.65194,-11.35769 z"
       id="path4319"
       inkscape:connector-curvature="0"
       sodipodi:nodetypes="ccsssccsccsccscc" />
    <path
       style="fill:url(#linearGradient3193);fill-opacity:1;stroke:none;stroke-width:1.06666672"
       d="m 284.1222,296.88389 c 0,0 12.64984,20.88229 32.72897,34.13451 20.07911,13.25221 36.1424,16.26407 36.1424,16.26407 0,0 0.40159,-15.6617 15.86252,-30.72104 15.46091,-15.05933 25.15943,-14.98035 31.12262,-12.85064 0,0 9.16736,-9.88314 20.48069,-9.23638 14.65184,0.83761 18.59041,12.19954 18.59041,12.19954 3.69151,-15.75987 8.54076,-32.11262 8.11482,-66.61395 0,0 -5.0215,-1.91466 -10.48777,-1.48871 0,0 -20.07911,44.97722 -81.11963,53.81203 -53.73544,7.77749 -71.43503,4.50057 -71.43503,4.50057 z"
       id="path4321"
       inkscape:connector-curvature="0"
       sodipodi:nodetypes="cscscscccsc" />
    <path
       style="fill:#ff0000;stroke:none;stroke-width:1.06666672"
       d="m 355.81984,347.96333 c 0,0 22.8589,6.67311 40.74848,0.56793 17.88958,-6.10518 33.64945,-20.30326 41.4584,-37.05699 0,0 -2.54542,-13.89072 -17.60563,-13.77214 -18.03155,0.14199 -32.79756,26.69239 -32.79756,26.69239 0,0 4.68537,-12.63629 10.08064,-18.59948 -5.2533,-0.14198 -14.57027,-1.55349 -30.38389,16.89571 -10.22262,11.92638 -11.50044,25.27258 -11.50044,25.27258 z"
       id="path4323"
       inkscape:connector-curvature="0"
       sodipodi:nodetypes="cscsccsc" />
    <path
       style="fill:#000000;stroke:none;stroke-width:1.06666672"
       d="m 336.93638,136.69591 c 3.54953,-9.93865 18.31733,-23.03735 38.05086,-23.42683 21.58108,-0.42594 28.11221,6.10517 31.94568,16.04383 -7.24102,-5.25329 -14.43303,-13.88822 -33.2235,-11.0745 -20.56975,3.08015 -24.07585,7.97118 -36.77304,18.4575 z"
       id="path4325"
       inkscape:connector-curvature="0"
       sodipodi:nodetypes="cscsc" />
    <path
       inkscape:connector-curvature="0"
       id="path4983"
       d="m 270.06343,235.23058 c 0,0 -11.50044,-28.53813 -3.69149,-47.70555 7.80893,-19.1674 26.83436,-26.5504 33.9334,-25.27257 7.09904,1.27782 14.766,7.24101 16.32779,17.03769 1.56179,9.79668 3.97547,17.03769 -1.41981,24.98861 -5.39526,7.95094 -20.58721,18.31553 -26.40841,20.87119 -5.82123,2.55565 -18.74148,10.08063 -18.74148,10.08063 z"
       style="fill:url(#linearGradient3188);fill-opacity:1;stroke:none;stroke-width:1.06666672" />
    <ellipse
       style="fill:#000000;fill-opacity:1;stroke:none;stroke-width:1.17720199"
       id="path4327"
       cx="302.36407"
       cy="204.28163"
       rx="15.972838"
       ry="18.596628" />
    <path
       inkscape:connector-curvature="0"
       id="path4993"
       d="m 325.48518,221.18563 c 0,-1.20474 -7.02769,-18.27199 0,-36.54399 7.02769,-18.27199 25.29969,-39.95745 49.79621,-39.55587 24.49653,0.4016 28.91394,22.08704 30.92184,33.73292 2.00792,11.6459 -3.41345,34.1345 -3.41345,34.1345 0,0 -28.91393,17.66963 -43.97327,17.66963 -15.05933,0 -33.33133,-9.43719 -33.33133,-9.43719 z"
       style="fill:url(#linearGradient3184);fill-opacity:1;stroke:none;stroke-width:1.06666672" />
    <ellipse
       id="path4329"
       style="fill:#000000;fill-opacity:1;stroke:none;stroke-width:1.57724535"
       cx="373.49646"
       cy="201.08707"
       rx="21.452049"
       ry="24.856735" />
    <ellipse
       id="path4331"
       style="fill:url(#linearGradient4404);fill-opacity:1;stroke:none;stroke-width:0.99554378"
       cx="302.36407"
       cy="204.28163"
       rx="13.508014"
       ry="15.726918" />
    <ellipse
       style="fill:url(#linearGradient4406);fill-opacity:1;stroke:none;stroke-width:1.33144188"
       id="path4333"
       cx="373.49649"
       cy="201.08707"
       rx="17.883453"
       ry="21.24748" />
    <ellipse
       id="path4335"
       style="fill:#ffffff;stroke:none;stroke-width:0.75110161"
       cx="368.8111"
       cy="193.56209"
       rx="9.938736"
       ry="12.166919" />
    <ellipse
       style="fill:#ffffff;stroke:none;stroke-width:0.5716747"
       id="path4337"
       cx="297.82068"
       cy="198.88637"
       rx="7.7567549"
       ry="9.0309238" />
    <path
       style="fill:url(#linearGradient3176);fill-opacity:1;stroke:none;stroke-width:1.06666672"
       d="m 266.79788,152.02985 c 3.69151,-9.51272 14.76599,-14.1981 14.76599,-14.1981 4.54339,-21.2971 27.4023,-36.77302 27.4023,-36.77302 0,0 -8.80281,-0.14198 -16.61175,1.70377 18.17354,-24.846634 38.61877,-14.624024 38.61877,-14.624024 -2.55564,-9.228751 -17.03769,-20.58721 -17.03769,-20.58721 5.11132,-4.827346 23.26689,-12.828095 37.62491,-3.407539 9.74046,6.390903 13.91412,18.457503 13.91412,18.457503 9.79667,-4.969327 21.29712,-1.277827 21.29712,-1.277827 0,0 -17.60562,-44.014046 -62.75552,-56.224394 -45.14989,-12.210348 -76.38566,-0.425942 -97.11486,30.241909 -20.72918,30.667852 -0.42594,57.218252 4.68536,62.613532 5.11132,5.39527 27.11834,29.67399 35.21125,34.0754 z"
       id="path4339"
       inkscape:connector-curvature="0"
       sodipodi:nodetypes="ccccccsccsssc" />
    <path
       style="fill:url(#linearGradient3173);fill-opacity:1;stroke:none;stroke-width:1.06666672"
       d="m 386.06175,63.433823 63.32342,66.588997 c 0,0 13.51306,-39.659524 -4.82735,-62.045611 -9.65468,-11.784407 -53.52675,-10.79054 -58.49607,-4.543386 z"
       id="path4341"
       inkscape:connector-curvature="0"
       sodipodi:nodetypes="ccsc" />
    <path
       style="fill:url(#linearGradient3170);fill-opacity:1;stroke:none;stroke-width:1.06666672"
       d="m 451.65687,131.86857 c 8.2349,8.66083 20.87117,15.90184 20.87117,15.90184 9.79669,-8.23489 19.30939,-13.91412 19.30939,-13.91412 0,0 -4.68537,-43.588098 -41.60037,-63.465408 15.90185,28.112201 1.41981,61.477688 1.41981,61.477688 z"
       id="path4343"
       inkscape:connector-curvature="0"
       sodipodi:nodetypes="ccccc" />
    <path
       style="fill:url(#linearGradient3167);fill-opacity:1;stroke:none;stroke-width:1.06666672"
       d="m 439.44653,61.162131 c 0,0 15.90183,6.957058 24.27871,15.191944 0,0 4.11744,-8.376866 -4.11745,-14.056098 -8.23488,-5.679231 -14.766,-4.543386 -20.16126,-1.135846 z"
       id="path4345"
       inkscape:connector-curvature="0"
       sodipodi:nodetypes="ccsc" />
    <path
       style="fill:url(#linearGradient3164);fill-opacity:1;stroke:none;stroke-width:1.06666672"
       d="m 419.77671,299.97543 c -14.57963,1.65519 -23.3425,15.36675 -31.05795,26.2944 -4.85105,6.9957 -3.84058,-2.62893 -1.92165,-5.86081 1.74383,-4.26495 4.10305,-8.65827 6.27438,-12.38688 -13.08622,1.92867 -22.56786,13.20502 -29.34061,23.71846 -2.3759,4.49318 -4.80833,9.80563 -5.16535,14.6176 17.68171,4.47341 37.61447,3.51812 52.74282,-7.66018 10.25223,-6.96136 19.61005,-16.51169 24.21039,-27.93508 -1.89441,-6.75041 -8.658,-11.51698 -15.74203,-10.78751 z"
       id="path4492"
       inkscape:connector-curvature="0" />
    <path
       style="fill:url(#linearGradient3161);fill-opacity:1;stroke:none;stroke-width:1.06666672"
       d="m 260.55072,174.03686 c 0,0 0.99387,-9.93865 -9.6547,-14.48203 -10.64855,-4.5434 -22.71693,3.69148 -26.12446,8.8028 -3.40754,5.1113 -5.67923,12.21035 -4.40141,20.0193 1.27784,7.80894 3.12358,17.03769 5.9632,21.86503 2.83962,4.82735 4.11744,4.54338 6.24715,4.25943 2.12972,-0.28396 -3.12358,-21.15515 -1.70376,-23.99477 1.4198,-2.8396 4.54339,-6.67308 9.79667,-6.81507 5.25329,-0.14197 9.22876,3.54952 13.63015,1.27784 4.40141,-2.2717 6.24716,-10.93253 6.24716,-10.93253 z"
       id="path4548"
       inkscape:connector-curvature="0" />
    <path
       style="fill:url(#linearGradient3158);fill-opacity:1;stroke:none;stroke-width:1.06666672"
       d="m 269.63749,169.49347 c 0,0 -3.54952,-7.383 1.98774,-16.89571 5.53724,-9.51271 23.85276,-15.61789 30.24191,-15.90185 6.38913,-0.28395 14.76599,5.67924 17.17968,8.80281 2.41366,3.12358 0.14197,11.07451 -4.96934,11.78441 -5.11131,0.7099 -11.50045,-3.6915 -18.59949,-2.12971 -7.09904,1.56178 -14.19808,2.83961 -18.03156,7.24102 -1.57121,2.41564 -5.09314,4.86947 -7.80894,7.09903 z"
       id="path4566"
       inkscape:connector-curvature="0"
       sodipodi:nodetypes="cssssscc" />
    <path
       style="fill:url(#linearGradient3155);fill-opacity:1;stroke:none;stroke-width:1.06666672"
       d="m 334.94865,143.51099 c 0,0 9.6547,-14.34006 22.14901,-19.45136 12.49432,-5.11132 21.86504,-5.2533 28.68012,-3.97547 6.81507,1.27783 15.61789,5.82122 20.44523,11.0745 4.82735,5.2533 12.49431,17.46364 11.0745,23.7108 -1.4198,6.24715 -7.24101,7.80894 -7.24101,7.80894 0,0 -5.53725,-21.29712 -24.70466,-23.56881 -19.1674,-2.27169 -32.37163,0.14197 -42.73622,9.37073 -10.3646,9.22875 -13.48817,7.09904 -13.48817,7.09904 z"
       id="path4568"
       inkscape:connector-curvature="0" />
    <path
       style="fill:url(#linearGradient3152);fill-opacity:1;stroke:none;stroke-width:1.06666672"
       d="m 322.8749,67.781182 c 5.22058,-1.405538 15.66171,-3.212657 20.68149,-0.200791 8.63635,5.181806 14.33417,10.433269 18.07122,19.677532 3.81501,9.437187 1.80711,16.464877 1.80711,16.464877 l -19.27596,-1.40554 c 0,0 -2.81107,-7.429266 -5.01978,-10.039553 -2.2087,-2.610287 -2.40949,-4.417416 -2.40949,-4.417416 0,0 -4.61819,-14.657747 -13.85459,-20.079109 z"
       id="path4586"
       inkscape:connector-curvature="0"
       sodipodi:nodetypes="cssccscc" />
    <path
       style="fill:url(#linearGradient3149);fill-opacity:1;stroke:none;stroke-width:1.06666672"
       d="m 303.78387,97.50921 c 0,0 4.96934,-5.32428 14.26907,-6.389139 9.29974,-1.064846 15.5469,1.703772 20.09029,5.395277 4.54338,3.691502 5.75021,9.086772 3.40753,11.571432 -2.34269,2.48467 -8.23488,0.42595 -9.01577,-1.77475 -0.7809,-2.20072 -0.92205,-6.327994 -10.3646,-8.80282 -5.84741,-1.532554 -12.53816,-1.608375 -18.38652,0 z"
       id="path4596"
       inkscape:connector-curvature="0"
       sodipodi:nodetypes="csssssc" />
  </g>
</svg>
