<?xml version="1.0" encoding="UTF-8" standalone="no"?>
<!-- Created with Inkscape (http://www.inkscape.org/) -->

<svg
   xmlns:dc="http://purl.org/dc/elements/1.1/"
   xmlns:cc="http://creativecommons.org/ns#"
   xmlns:rdf="http://www.w3.org/1999/02/22-rdf-syntax-ns#"
   xmlns:svg="http://www.w3.org/2000/svg"
   xmlns="http://www.w3.org/2000/svg"
   xmlns:sodipodi="http://sodipodi.sourceforge.net/DTD/sodipodi-0.dtd"
   xmlns:inkscape="http://www.inkscape.org/namespaces/inkscape"
   id="svg2"
   sodipodi:docname="mystica-Arrow-set-with-deep.svg"
   inkscape:export-filename="C:\Documents and Settings\Dan\Skrivbord\Clipart egna (InkScape)\Original\Kanske Upload\Arrow set (blue to black gradient).png"
   viewBox="0 0 715.71 202.86"
   sodipodi:version="0.32"
   inkscape:export-xdpi="310"
   version="1.0"
   inkscape:output_extension="org.inkscape.output.svg.inkscape"
   inkscape:export-ydpi="310"
   inkscape:version="0.92.1 r15371"
   width="763.42401"
   height="216.384">
  <defs
     id="defs4">
    <filter
       id="filter3349"
       inkscape:collect="always">
      <feGaussianBlur
         id="feGaussianBlur3351"
         stdDeviation="5.2307893"
         inkscape:collect="always" />
    </filter>
    <filter
       id="filter3393"
       inkscape:collect="always">
      <feGaussianBlur
         id="feGaussianBlur3395"
         stdDeviation="4.755263"
         inkscape:collect="always" />
    </filter>
    <filter
       id="filter3437"
       inkscape:collect="always">
      <feGaussianBlur
         id="feGaussianBlur3439"
         stdDeviation="5.7063156"
         inkscape:collect="always" />
    </filter>
    <filter
       id="filter3485"
       inkscape:collect="always">
      <feGaussianBlur
         id="feGaussianBlur3487"
         stdDeviation="4.755263"
         inkscape:collect="always" />
    </filter>
  </defs>
  <sodipodi:namedview
     id="base"
     bordercolor="#666666"
     inkscape:pageshadow="2"
     guidetolerance="10"
     pagecolor="#ffffff"
     gridtolerance="10000"
     inkscape:window-height="838"
     inkscape:zoom="0.7"
     objecttolerance="10"
     showgrid="false"
     borderopacity="1.0"
     inkscape:current-layer="layer1"
     inkscape:cx="337.92526"
     inkscape:cy="167.96152"
     inkscape:window-y="0"
     inkscape:window-x="0"
     inkscape:window-width="1152"
     inkscape:pageopacity="0.0"
     inkscape:document-units="px" />
  <g
     id="layer1"
     inkscape:label="Layer 1"
     inkscape:groupmode="layer"
     transform="translate(-2.8571,-522.36)">
    <g
       id="g3232"
       style="fill:#000000;stroke:#00000e;filter:url(#filter3349)"
       transform="matrix(0.61811,0,0,0.61811,497.57,204.1)">
      <path
         id="path3214"
         sodipodi:nodetypes="cccccccc"
         style="fill:#000000;fill-rule:evenodd;stroke:#00000e;stroke-width:7.19999981"
         d="m 77.034,649.59 h 171.73 v -61.61 l 94.45,94.44 -92.87,92.88 V 716.26 H 77.014 l 0.024,-66.67 z"
         inkscape:connector-curvature="0" />
      <path
         id="path3220"
         sodipodi:nodetypes="cccccccc"
         style="fill:#000000;fill-rule:evenodd;stroke:#00000e;stroke-width:7.19999981"
         d="m 84.044,656.6 h 171.73 v -51.61 l 77.44,77.43 -75.86,75.87 V 709.27 H 84.024 l 0.024,-52.67 z"
         inkscape:connector-curvature="0" />
      <path
         id="path3222"
         sodipodi:nodetypes="cccccccc"
         style="fill:#000000;fill-rule:evenodd;stroke:#00000e;stroke-width:7.19999981"
         d="m 90.59,663.68 h 172.23 v -41.52 l 60.27,60.26 -58.69,58.69 V 702.2 H 90.57 Z"
         inkscape:connector-curvature="0" />
      <path
         id="path3224"
         sodipodi:nodetypes="cccccccc"
         style="fill:#000000;fill-rule:evenodd;stroke:#00000e;stroke-width:7.19999981"
         d="m 97.409,670.75 h 172.38 v -32.02 l 43.95,44.2 -42.3,41.19 V 695.13 H 97.389 l 0.019,-24.38 z"
         inkscape:connector-curvature="0" />
      <path
         id="path3226"
         sodipodi:nodetypes="cccccccc"
         style="fill:#000000;fill-rule:evenodd;stroke:#00000e;stroke-width:7.19999981"
         d="m 103.99,677.4 h 172.73 v -22.37 l 28.24,27.05 -26.59,25.83 v -19.7 h -174.4 z"
         inkscape:connector-curvature="0" />
      <path
         id="path3228"
         sodipodi:nodetypes="ccccccc"
         style="fill:#000000;fill-rule:evenodd;stroke:#00000e;stroke-width:5"
         d="m 106.93,682.72 175.93,-0.89 V 667.9 l 14.28,14.11 -13.78,14.64 v -13.22 z"
         inkscape:connector-curvature="0" />
      <path
         id="path3230"
         sodipodi:nodetypes="cccc"
         style="fill:#000000;fill-rule:evenodd;stroke:#00000e;stroke-width:3.79999995"
         d="m 286.79,688.79 -0.36,-11.93 6.43,5.5 z"
         inkscape:connector-curvature="0" />
    </g>
    <g
       id="g3241"
       style="stroke:#000004;filter:url(#filter3393)"
       transform="matrix(0,0.61811,-0.61811,0,871.86,500.23)">
      <path
         id="path3243"
         sodipodi:nodetypes="cccccccc"
         style="fill:none;stroke:#000004;stroke-width:7.19999981"
         d="m 77.034,649.59 h 171.73 v -61.61 l 94.45,94.44 -92.87,92.88 V 716.26 H 77.014 l 0.024,-66.67 z"
         inkscape:connector-curvature="0" />
      <path
         id="path3245"
         sodipodi:nodetypes="cccccccc"
         style="fill:none;stroke:#000004;stroke-width:7.19999981"
         d="m 84.044,656.6 h 171.73 v -51.61 l 77.44,77.43 -75.86,75.87 V 709.27 H 84.024 l 0.024,-52.67 z"
         inkscape:connector-curvature="0" />
      <path
         id="path3247"
         sodipodi:nodetypes="cccccccc"
         style="fill:none;stroke:#000004;stroke-width:7.19999981"
         d="m 90.59,663.68 h 172.23 v -41.52 l 60.27,60.26 -58.69,58.69 V 702.2 H 90.57 Z"
         inkscape:connector-curvature="0" />
      <path
         id="path3249"
         sodipodi:nodetypes="cccccccc"
         style="fill:none;stroke:#000004;stroke-width:7.19999981"
         d="m 97.409,670.75 h 172.38 v -32.02 l 43.95,44.2 -42.3,41.19 V 695.13 H 97.389 l 0.019,-24.38 z"
         inkscape:connector-curvature="0" />
      <path
         id="path3251"
         sodipodi:nodetypes="cccccccc"
         style="fill:none;stroke:#000004;stroke-width:7.19999981"
         d="m 103.99,677.4 h 172.73 v -22.37 l 28.24,27.05 -26.59,25.83 v -19.7 h -174.4 z"
         inkscape:connector-curvature="0" />
      <path
         id="path3253"
         sodipodi:nodetypes="ccccccc"
         style="fill:none;stroke:#000004;stroke-width:5"
         d="m 106.93,682.72 175.93,-0.89 V 667.9 l 14.28,14.11 -13.78,14.64 v -13.22 z"
         inkscape:connector-curvature="0" />
      <path
         id="path3255"
         sodipodi:nodetypes="cccc"
         style="fill:#00010c;fill-rule:evenodd;stroke:#000004;stroke-width:3.79999995"
         d="m 286.79,688.79 -0.36,-11.93 6.43,5.5 z"
         inkscape:connector-curvature="0" />
    </g>
    <g
       id="g3257"
       style="stroke:#000004;filter:url(#filter3437)"
       transform="matrix(0,-0.61811,0.61811,0,-138.48,757.97)">
      <path
         id="path3259"
         sodipodi:nodetypes="cccccccc"
         style="fill:none;stroke:#000004;stroke-width:7.19999981"
         d="m 77.034,649.59 h 171.73 v -61.61 l 94.45,94.44 -92.87,92.88 V 716.26 H 77.014 l 0.024,-66.67 z"
         inkscape:connector-curvature="0" />
      <path
         id="path3261"
         sodipodi:nodetypes="cccccccc"
         style="fill:none;stroke:#000004;stroke-width:7.19999981"
         d="m 84.044,656.6 h 171.73 v -51.61 l 77.44,77.43 -75.86,75.87 V 709.27 H 84.024 l 0.024,-52.67 z"
         inkscape:connector-curvature="0" />
      <path
         id="path3263"
         sodipodi:nodetypes="cccccccc"
         style="fill:none;stroke:#000004;stroke-width:7.19999981"
         d="m 90.59,663.68 h 172.23 v -41.52 l 60.27,60.26 -58.69,58.69 V 702.2 H 90.57 Z"
         inkscape:connector-curvature="0" />
      <path
         id="path3265"
         sodipodi:nodetypes="cccccccc"
         style="fill:none;stroke:#000004;stroke-width:7.19999981"
         d="m 97.409,670.75 h 172.38 v -32.02 l 43.95,44.2 -42.3,41.19 V 695.13 H 97.389 l 0.019,-24.38 z"
         inkscape:connector-curvature="0" />
      <path
         id="path3267"
         sodipodi:nodetypes="cccccccc"
         style="fill:none;stroke:#000004;stroke-width:7.19999981"
         d="m 103.99,677.4 h 172.73 v -22.37 l 28.24,27.05 -26.59,25.83 v -19.7 h -174.4 z"
         inkscape:connector-curvature="0" />
      <path
         id="path3269"
         sodipodi:nodetypes="ccccccc"
         style="fill:none;stroke:#000004;stroke-width:5"
         d="m 106.93,682.72 175.93,-0.89 V 667.9 l 14.28,14.11 -13.78,14.64 v -13.22 z"
         inkscape:connector-curvature="0" />
      <path
         id="path3271"
         sodipodi:nodetypes="cccc"
         style="fill:#00010c;fill-rule:evenodd;stroke:#000004;stroke-width:3.79999995"
         d="m 286.79,688.79 -0.36,-11.93 6.43,5.5 z"
         inkscape:connector-curvature="0" />
    </g>
    <g
       id="g3273"
       style="stroke:#000004;filter:url(#filter3485)"
       transform="matrix(-0.61811,0,0,0.61811,226.85,204.75)">
      <path
         id="path3275"
         sodipodi:nodetypes="cccccccc"
         style="fill:none;stroke:#000004;stroke-width:7.19999981"
         d="m 77.034,649.59 h 171.73 v -61.61 l 94.45,94.44 -92.87,92.88 V 716.26 H 77.014 l 0.024,-66.67 z"
         inkscape:connector-curvature="0" />
      <path
         id="path3277"
         sodipodi:nodetypes="cccccccc"
         style="fill:none;stroke:#000004;stroke-width:7.19999981"
         d="m 84.044,656.6 h 171.73 v -51.61 l 77.44,77.43 -75.86,75.87 V 709.27 H 84.024 l 0.024,-52.67 z"
         inkscape:connector-curvature="0" />
      <path
         id="path3279"
         sodipodi:nodetypes="cccccccc"
         style="fill:none;stroke:#000004;stroke-width:7.19999981"
         d="m 90.59,663.68 h 172.23 v -41.52 l 60.27,60.26 -58.69,58.69 V 702.2 H 90.57 Z"
         inkscape:connector-curvature="0" />
      <path
         id="path3281"
         sodipodi:nodetypes="cccccccc"
         style="fill:none;stroke:#000004;stroke-width:7.19999981"
         d="m 97.409,670.75 h 172.38 v -32.02 l 43.95,44.2 -42.3,41.19 V 695.13 H 97.389 l 0.019,-24.38 z"
         inkscape:connector-curvature="0" />
      <path
         id="path3283"
         sodipodi:nodetypes="cccccccc"
         style="fill:none;stroke:#000004;stroke-width:7.19999981"
         d="m 103.99,677.4 h 172.73 v -22.37 l 28.24,27.05 -26.59,25.83 v -19.7 h -174.4 z"
         inkscape:connector-curvature="0" />
      <path
         id="path3285"
         sodipodi:nodetypes="ccccccc"
         style="fill:none;stroke:#000004;stroke-width:5"
         d="m 106.93,682.72 175.93,-0.89 V 667.9 l 14.28,14.11 -13.78,14.64 v -13.22 z"
         inkscape:connector-curvature="0" />
      <path
         id="path3287"
         sodipodi:nodetypes="cccc"
         style="fill:#00010c;fill-rule:evenodd;stroke:#000004;stroke-width:3.79999995"
         d="m 286.79,688.79 -0.36,-11.93 6.43,5.5 z"
         inkscape:connector-curvature="0" />
    </g>
    <g
       id="g3289"
       transform="matrix(0.61811,0,0,0.61811,491.37,194.65)">
      <path
         id="path3291"
         sodipodi:nodetypes="cccccccc"
         style="fill:none;stroke:#5d60ff;stroke-width:7.19999981"
         d="m 77.034,649.59 h 171.73 v -61.61 l 94.45,94.44 -92.87,92.88 V 716.26 H 77.014 l 0.024,-66.67 z"
         inkscape:connector-curvature="0" />
      <path
         id="path3293"
         sodipodi:nodetypes="cccccccc"
         style="fill:none;stroke:#3539ff;stroke-width:7.19999981"
         d="m 84.044,656.6 h 171.73 v -51.61 l 77.44,77.43 -75.86,75.87 V 709.27 H 84.024 l 0.024,-52.67 z"
         inkscape:connector-curvature="0" />
      <path
         id="path3295"
         sodipodi:nodetypes="cccccccc"
         style="fill:none;stroke:#1217ff;stroke-width:7.19999981"
         d="m 90.59,663.68 h 172.23 v -41.52 l 60.27,60.26 -58.69,58.69 V 702.2 H 90.57 Z"
         inkscape:connector-curvature="0" />
      <path
         id="path3297"
         sodipodi:nodetypes="cccccccc"
         style="fill:none;stroke:#0003d9;stroke-width:7.19999981"
         d="m 97.409,670.75 h 172.38 v -32.02 l 43.95,44.2 -42.3,41.19 V 695.13 H 97.389 l 0.019,-24.38 z"
         inkscape:connector-curvature="0" />
      <path
         id="path3299"
         sodipodi:nodetypes="cccccccc"
         style="fill:none;stroke:#0002ae;stroke-width:7.19999981"
         d="m 103.99,677.4 h 172.73 v -22.37 l 28.24,27.05 -26.59,25.83 v -19.7 h -174.4 z"
         inkscape:connector-curvature="0" />
      <path
         id="path3301"
         sodipodi:nodetypes="ccccccc"
         style="fill:none;stroke:#00025e;stroke-width:5"
         d="m 106.93,682.72 175.93,-0.89 V 667.9 l 14.28,14.11 -13.78,14.64 v -13.22 z"
         inkscape:connector-curvature="0" />
      <path
         id="path3303"
         sodipodi:nodetypes="cccc"
         style="fill:#00010c;fill-rule:evenodd;stroke:#000000;stroke-width:3.79999995"
         d="m 286.79,688.79 -0.36,-11.93 6.43,5.5 z"
         inkscape:connector-curvature="0" />
    </g>
    <g
       id="g3353"
       transform="matrix(0,0.61811,-0.61811,0,863.77,490.12)">
      <path
         id="path3355"
         sodipodi:nodetypes="cccccccc"
         style="fill:none;stroke:#5d60ff;stroke-width:7.19999981"
         d="m 77.034,649.59 h 171.73 v -61.61 l 94.45,94.44 -92.87,92.88 V 716.26 H 77.014 l 0.024,-66.67 z"
         inkscape:connector-curvature="0" />
      <path
         id="path3357"
         sodipodi:nodetypes="cccccccc"
         style="fill:none;stroke:#3539ff;stroke-width:7.19999981"
         d="m 84.044,656.6 h 171.73 v -51.61 l 77.44,77.43 -75.86,75.87 V 709.27 H 84.024 l 0.024,-52.67 z"
         inkscape:connector-curvature="0" />
      <path
         id="path3359"
         sodipodi:nodetypes="cccccccc"
         style="fill:none;stroke:#1217ff;stroke-width:7.19999981"
         d="m 90.59,663.68 h 172.23 v -41.52 l 60.27,60.26 -58.69,58.69 V 702.2 H 90.57 Z"
         inkscape:connector-curvature="0" />
      <path
         id="path3361"
         sodipodi:nodetypes="cccccccc"
         style="fill:none;stroke:#0003d9;stroke-width:7.19999981"
         d="m 97.409,670.75 h 172.38 v -32.02 l 43.95,44.2 -42.3,41.19 V 695.13 H 97.389 l 0.019,-24.38 z"
         inkscape:connector-curvature="0" />
      <path
         id="path3363"
         sodipodi:nodetypes="cccccccc"
         style="fill:none;stroke:#0002ae;stroke-width:7.19999981"
         d="m 103.99,677.4 h 172.73 v -22.37 l 28.24,27.05 -26.59,25.83 v -19.7 h -174.4 z"
         inkscape:connector-curvature="0" />
      <path
         id="path3365"
         sodipodi:nodetypes="ccccccc"
         style="fill:none;stroke:#00025e;stroke-width:5"
         d="m 106.93,682.72 175.93,-0.89 V 667.9 l 14.28,14.11 -13.78,14.64 v -13.22 z"
         inkscape:connector-curvature="0" />
      <path
         id="path3367"
         sodipodi:nodetypes="cccc"
         style="fill:#00010c;fill-rule:evenodd;stroke:#000000;stroke-width:3.79999995"
         d="m 286.79,688.79 -0.36,-11.93 6.43,5.5 z"
         inkscape:connector-curvature="0" />
    </g>
    <g
       id="g3397"
       transform="matrix(0,-0.61811,0.61811,0,-147.58,750.9)">
      <path
         id="path3399"
         sodipodi:nodetypes="cccccccc"
         style="fill:none;stroke:#5d60ff;stroke-width:7.19999981"
         d="m 77.034,649.59 h 171.73 v -61.61 l 94.45,94.44 -92.87,92.88 V 716.26 H 77.014 l 0.024,-66.67 z"
         inkscape:connector-curvature="0" />
      <path
         id="path3401"
         sodipodi:nodetypes="cccccccc"
         style="fill:none;stroke:#3539ff;stroke-width:7.19999981"
         d="m 84.044,656.6 h 171.73 v -51.61 l 77.44,77.43 -75.86,75.87 V 709.27 H 84.024 l 0.024,-52.67 z"
         inkscape:connector-curvature="0" />
      <path
         id="path3403"
         sodipodi:nodetypes="cccccccc"
         style="fill:none;stroke:#1217ff;stroke-width:7.19999981"
         d="m 90.59,663.68 h 172.23 v -41.52 l 60.27,60.26 -58.69,58.69 V 702.2 H 90.57 Z"
         inkscape:connector-curvature="0" />
      <path
         id="path3405"
         sodipodi:nodetypes="cccccccc"
         style="fill:none;stroke:#0003d9;stroke-width:7.19999981"
         d="m 97.409,670.75 h 172.38 v -32.02 l 43.95,44.2 -42.3,41.19 V 695.13 H 97.389 l 0.019,-24.38 z"
         inkscape:connector-curvature="0" />
      <path
         id="path3407"
         sodipodi:nodetypes="cccccccc"
         style="fill:none;stroke:#0002ae;stroke-width:7.19999981"
         d="m 103.99,677.4 h 172.73 v -22.37 l 28.24,27.05 -26.59,25.83 v -19.7 h -174.4 z"
         inkscape:connector-curvature="0" />
      <path
         id="path3409"
         sodipodi:nodetypes="ccccccc"
         style="fill:none;stroke:#00025e;stroke-width:5"
         d="m 106.93,682.72 175.93,-0.89 V 667.9 l 14.28,14.11 -13.78,14.64 v -13.22 z"
         inkscape:connector-curvature="0" />
      <path
         id="path3411"
         sodipodi:nodetypes="cccc"
         style="fill:#00010c;fill-rule:evenodd;stroke:#000000;stroke-width:3.79999995"
         d="m 286.79,688.79 -0.36,-11.93 6.43,5.5 z"
         inkscape:connector-curvature="0" />
    </g>
    <g
       id="g3441"
       transform="matrix(-0.61811,0,0,0.61811,219.78,195.66)">
      <path
         id="path3443"
         sodipodi:nodetypes="cccccccc"
         style="fill:none;stroke:#5d60ff;stroke-width:7.19999981"
         d="m 77.034,649.59 h 171.73 v -61.61 l 94.45,94.44 -92.87,92.88 V 716.26 H 77.014 l 0.024,-66.67 z"
         inkscape:connector-curvature="0" />
      <path
         id="path3445"
         sodipodi:nodetypes="cccccccc"
         style="fill:none;stroke:#3539ff;stroke-width:7.19999981"
         d="m 84.044,656.6 h 171.73 v -51.61 l 77.44,77.43 -75.86,75.87 V 709.27 H 84.024 l 0.024,-52.67 z"
         inkscape:connector-curvature="0" />
      <path
         id="path3447"
         sodipodi:nodetypes="cccccccc"
         style="fill:none;stroke:#1217ff;stroke-width:7.19999981"
         d="m 90.59,663.68 h 172.23 v -41.52 l 60.27,60.26 -58.69,58.69 V 702.2 H 90.57 Z"
         inkscape:connector-curvature="0" />
      <path
         id="path3449"
         sodipodi:nodetypes="cccccccc"
         style="fill:none;stroke:#0003d9;stroke-width:7.19999981"
         d="m 97.409,670.75 h 172.38 v -32.02 l 43.95,44.2 -42.3,41.19 V 695.13 H 97.389 l 0.019,-24.38 z"
         inkscape:connector-curvature="0" />
      <path
         id="path3451"
         sodipodi:nodetypes="cccccccc"
         style="fill:none;stroke:#0002ae;stroke-width:7.19999981"
         d="m 103.99,677.4 h 172.73 v -22.37 l 28.24,27.05 -26.59,25.83 v -19.7 h -174.4 z"
         inkscape:connector-curvature="0" />
      <path
         id="path3453"
         sodipodi:nodetypes="ccccccc"
         style="fill:none;stroke:#00025e;stroke-width:5"
         d="m 106.93,682.72 175.93,-0.89 V 667.9 l 14.28,14.11 -13.78,14.64 v -13.22 z"
         inkscape:connector-curvature="0" />
      <path
         id="path3455"
         sodipodi:nodetypes="cccc"
         style="fill:#00010c;fill-rule:evenodd;stroke:#000000;stroke-width:3.79999995"
         d="m 286.79,688.79 -0.36,-11.93 6.43,5.5 z"
         inkscape:connector-curvature="0" />
    </g>
  </g>
  <metadata
     id="metadata77">
    <rdf:RDF>
      <cc:Work>
        <dc:format>image/svg+xml</dc:format>
        <dc:type
           rdf:resource="http://purl.org/dc/dcmitype/StillImage" />
        <cc:license
           rdf:resource="http://creativecommons.org/licenses/publicdomain/" />
        <dc:publisher>
          <cc:Agent
             rdf:about="http://openclipart.org/">
            <dc:title>Openclipart</dc:title>
          </cc:Agent>
        </dc:publisher>
        <dc:title>Arrow set (with deep)</dc:title>
        <dc:date>2008-02-23T22:56:00</dc:date>
        <dc:description>One more arrow set :-)  Handmaide gradient... enjoy!  :-)</dc:description>
        <dc:source>https://openclipart.org/detail/14772/arrow-set-(with-deep)-by-mystica</dc:source>
        <dc:creator>
          <cc:Agent>
            <dc:title>mystica</dc:title>
          </cc:Agent>
        </dc:creator>
        <dc:subject>
          <rdf:Bag>
            <rdf:li>arrow</rdf:li>
            <rdf:li>sign</rdf:li>
          </rdf:Bag>
        </dc:subject>
      </cc:Work>
      <cc:License
         rdf:about="http://creativecommons.org/licenses/publicdomain/">
        <cc:permits
           rdf:resource="http://creativecommons.org/ns#Reproduction" />
        <cc:permits
           rdf:resource="http://creativecommons.org/ns#Distribution" />
        <cc:permits
           rdf:resource="http://creativecommons.org/ns#DerivativeWorks" />
      </cc:License>
    </rdf:RDF>
  </metadata>
</svg>
