<?xml version="1.0" encoding="utf-8"?>
<!DOCTYPE svg PUBLIC "-//W3C//DTD SVG 1.1//EN" "http://www.w3.org/Graphics/SVG/1.1/DTD/svg11.dtd">
<svg version="1.1" id="Layer_2" xmlns="http://www.w3.org/2000/svg" xmlns:xlink="http://www.w3.org/1999/xlink" x="0px" y="0px"
	 viewBox="0 0 2474 1454.6182" enable-background="new 0 0 2474 1454.6182" xml:space="preserve">
<g>
</g>
<g>
	<linearGradient id="SVGID_1_" gradientUnits="userSpaceOnUse" x1="1235.1796" y1="1333.8495" x2="1235.1796" y2="89.9288">
		<stop  offset="0" style="stop-color:#C7C7C7"/>
		<stop  offset="0.0385" style="stop-color:#CCCCCC"/>
		<stop  offset="0.231" style="stop-color:#E3E3E3"/>
		<stop  offset="0.4405" style="stop-color:#F3F3F3"/>
		<stop  offset="0.6773" style="stop-color:#FCFCFC"/>
		<stop  offset="1" style="stop-color:#FFFFFF"/>
	</linearGradient>
	<path fill="url(#SVGID_1_)" d="M2311.9329,1273.6694c8.3901,32.92-8.0999,60.1801-36.75,60.1801l-2075.8599-0.0601
		c-29.19,0-48.03-27.5299-41.94-60.76l210.59-1148.3899c3.54-19.29,24.3-34.83,46.18-34.71l1559.15,8.63
		c21.5699,0.12,43.1799,15.78,48.0699,34.97L2311.9329,1273.6694z M2155.0029,1126.3995c0-12.92-10.5801-23.5-23.5-23.5h-898
		c-6.47,0-12.34,2.6399-16.6,6.8999s-6.9,10.14-6.9,16.6001c0,12.9299,10.5699,23.5,23.5,23.5h898c6.46,0,12.3301-2.64,16.5901-6.9
		S2155.0029,1132.8595,2155.0029,1126.3995z M2119.0029,1026.6195c0-12.9301-10.5801-23.5-23.5-23.5h-862
		c-6.47,0-12.34,2.64-16.6,6.9s-6.9,10.14-6.9,16.6c0,12.9199,10.5699,23.5,23.5,23.5h862c6.46,0,12.3301-2.64,16.5901-6.9
		S2119.0029,1033.0795,2119.0029,1026.6195z M2107.0029,1223.9595c0-12.92-10.5801-23.5-23.5-23.5h-850c-6.47,0-12.34,2.64-16.6,6.9
		s-6.9,10.14-6.9,16.6c0,12.9301,10.5699,23.5,23.5,23.5h850c6.46,0,12.3301-2.64,16.5901-6.9
		S2107.0029,1230.4194,2107.0029,1223.9595z M2087.0029,927.2895c0-12.93-10.5801-23.5-23.5-23.5h-830c-6.47,0-12.34,2.64-16.6,6.9
		c-4.26,4.26-6.9,10.13-6.9,16.6c0,12.92,10.5699,23.5,23.5,23.5h830c6.46,0,12.3301-2.65,16.5901-6.91
		C2084.353,939.6195,2087.0029,933.7495,2087.0029,927.2895z M2059.0029,823.7295c0-12.92-10.5801-23.5-23.5-23.5h-803
		c-6.47,0-12.34,2.65-16.6,6.91s-6.9,10.13-6.9,16.59c0,12.93,10.5699,23.5,23.5,23.5h803c6.46,0,12.33-2.64,16.5901-6.9
		C2056.353,836.0695,2059.0029,830.1995,2059.0029,823.7295z M2032.0029,725.1695c0-12.92-10.58-23.5-23.5-23.5h-775
		c-6.47,0-12.34,2.65-16.6,6.91s-6.9,10.13-6.9,16.59c0,12.93,10.5699,23.5,23.5,23.5h775c6.46,0,12.33-2.64,16.59-6.9
		S2032.0029,731.6395,2032.0029,725.1695z M2002.0029,627.6195c0-12.9301-10.58-23.5-23.5-23.5h-745c-6.47,0-12.34,2.64-16.6,6.9
		s-6.9,10.14-6.9,16.6c0,12.92,10.5699,23.5,23.5,23.5h745c6.46,0,12.33-2.64,16.59-6.9S2002.0029,634.0795,2002.0029,627.6195z
		 M1930.063,473.7195l-43.5-227.99h-413.9801l39,227.99H1930.063z M1122.0029,1254.1195v-651h-667l-136,651H1122.0029z"/>
	<path fill="#828282" d="M2383.4629,1340.3895c8.99,33.8099-7.3101,61.83-36.3398,61.84l-2216.02,0.61
		c-29.62,0.01-48.34-28.29-41.7-62.45l244.07-1254.6101c3.68-18.9,24.38-34.13,46.04-34l1625.17,9.26
		c21.35,0.13,42.86,15.47,47.86,34.28L2383.4629,1340.3895z M2275.1829,1333.8495c28.6501,0,45.1401-27.26,36.75-60.1801
		L2021.3729,133.5295c-4.89-19.19-26.5-34.85-48.0699-34.97l-1559.15-8.63c-21.88-0.12-42.64,15.42-46.18,34.71l-210.59,1148.3899
		c-6.09,33.2301,12.75,60.76,41.94,60.76L2275.1829,1333.8495z"/>
	<path fill="#CCCCCC" d="M2131.5029,1102.8995c12.9199,0,23.5,10.58,23.5,23.5c0,6.46-2.6499,12.34-6.9099,16.6
		s-10.1301,6.9-16.5901,6.9h-898c-12.9301,0-23.5-10.5701-23.5-23.5c0-6.4601,2.64-12.3401,6.9-16.6001s10.13-6.8999,16.6-6.8999
		H2131.5029z"/>
	<path fill="#CCCCCC" d="M2095.5029,1003.1195c12.9199,0,23.5,10.5699,23.5,23.5c0,6.46-2.6499,12.34-6.9099,16.6
		s-10.1301,6.9-16.5901,6.9h-862c-12.9301,0-23.5-10.5801-23.5-23.5c0-6.46,2.64-12.34,6.9-16.6s10.13-6.9,16.6-6.9H2095.5029z"/>
	<path fill="#CCCCCC" d="M2083.5029,1200.4595c12.9199,0,23.5,10.58,23.5,23.5c0,6.46-2.6499,12.34-6.9099,16.6
		s-10.1301,6.9-16.5901,6.9h-850c-12.9301,0-23.5-10.5699-23.5-23.5c0-6.46,2.64-12.34,6.9-16.6s10.13-6.9,16.6-6.9H2083.5029z"/>
	<path fill="#CCCCCC" d="M2063.5029,903.7895c12.9199,0,23.5,10.57,23.5,23.5c0,6.46-2.6499,12.33-6.9099,16.59
		c-4.26,4.26-10.1301,6.91-16.5901,6.91h-830c-12.9301,0-23.5-10.58-23.5-23.5c0-6.47,2.64-12.34,6.9-16.6
		c4.26-4.2599,10.13-6.9,16.6-6.9H2063.5029z"/>
	<path fill="#CCCCCC" d="M2035.5029,800.2295c12.9199,0,23.5,10.58,23.5,23.5c0,6.47-2.6499,12.34-6.9099,16.6
		c-4.2601,4.26-10.1301,6.9-16.5901,6.9h-803c-12.9301,0-23.5-10.57-23.5-23.5c0-6.46,2.64-12.33,6.9-16.59s10.13-6.91,16.6-6.91
		H2035.5029z"/>
	<path fill="#CCCCCC" d="M2008.5029,701.6695c12.92,0,23.5,10.58,23.5,23.5c0,6.47-2.65,12.34-6.91,16.6s-10.13,6.9-16.59,6.9h-775
		c-12.9301,0-23.5-10.57-23.5-23.5c0-6.46,2.64-12.33,6.9-16.59s10.13-6.91,16.6-6.91H2008.5029z"/>
	<path fill="#CCCCCC" d="M1978.5029,604.1195c12.92,0,23.5,10.5699,23.5,23.5c0,6.46-2.65,12.34-6.91,16.6s-10.13,6.9-16.59,6.9
		h-745c-12.9301,0-23.5-10.58-23.5-23.5c0-6.46,2.64-12.34,6.9-16.6s10.13-6.9,16.6-6.9H1978.5029z"/>
	<polygon fill="#CCCCCC" points="1886.563,245.7295 1930.063,473.7195 1511.5829,473.7195 1472.5829,245.7295 	"/>
	<path fill="#CCCCCC" d="M1122.0029,603.1195v651h-803l136-651H1122.0029z M1107.0029,1149.8995c0-21.4901-12.1899-40.27-30-49.76
		v-449.02h-582l-81.42,442.84c-12.81,1.55-24.32,7.4401-33.03,16.14c-10.21,10.22-16.55,24.3-16.55,39.8
		c0,21.5399,12.25,40.37,30.13,49.84l-0.13,0.72h1.54c7.5,3.71,15.93,5.8,24.82,5.8h630.28c8.89,0,17.3199-2.0901,24.8199-5.8h1.54
		v-0.79c4.97-2.6499,9.5-6.0199,13.45-9.97C1100.663,1179.4895,1107.0029,1165.3995,1107.0029,1149.8995z"/>
	<path fill="#F2F2F2" d="M1077.0029,1100.1395c17.8101,9.49,30,28.2699,30,49.76c0,15.5-6.34,29.59-16.55,39.7999
		c-3.95,3.9501-8.48,7.3201-13.45,9.97V1100.1395z"/>
	<path fill="#E6E6E6" d="M1077.0029,1199.6694v0.79h-1.54C1075.9829,1200.2095,1076.4929,1199.9395,1077.0029,1199.6694z"/>
	<path fill="#F2F2F2" d="M1077.0029,1100.1395v99.5299c-0.51,0.27-1.02,0.54-1.54,0.79H395.5429c-0.48-0.23-0.95-0.47-1.41-0.72
		l19.45-105.78c2.22-0.27,4.49-0.41,6.78-0.41h630.28C1060.153,1093.5494,1069.1229,1095.9395,1077.0029,1100.1395z
		 M1060.1129,1150.3295c0-14.55-11.91-26.46-26.47-26.46h-598.03c-7.28,0-13.9,2.98-18.7,7.77
		c-4.79,4.7999-7.77,11.4199-7.77,18.6899c0,14.5601,11.91,26.47,26.47,26.47h598.03c7.28,0,13.9-2.98,18.6899-7.7799
		C1057.1329,1164.2295,1060.1129,1157.6095,1060.1129,1150.3295z"/>
	<path fill="#E6E6E6" d="M1077.0029,651.1195v449.02c-7.88-4.2001-16.85-6.5901-26.36-6.5901h-630.28c-2.29,0-4.56,0.14-6.78,0.41
		l81.42-442.84H1077.0029z"/>
	<path fill="#F2F2F2" d="M395.5429,1200.4595h679.9199c-7.5,3.71-15.9299,5.8-24.8199,5.8h-630.28
		C411.4729,1206.2595,403.0429,1204.1694,395.5429,1200.4595z"/>
	<path fill="#FFFFFF" d="M1033.6429,1123.8695c14.5599,0,26.47,11.9099,26.47,26.46c0,7.28-2.98,13.9-7.78,18.6901
		c-4.7899,4.7999-11.4099,7.7799-18.6899,7.7799h-598.03c-14.56,0-26.47-11.9099-26.47-26.47c0-7.27,2.98-13.89,7.77-18.6899
		c4.8-4.79,11.42-7.77,18.7-7.77H1033.6429z"/>
	<path fill="#F2F2F2" d="M413.5829,1093.9595l-19.45,105.78c-17.88-9.47-30.13-28.3-30.13-49.84c0-15.5,6.34-29.5801,16.55-39.8
		C389.2629,1101.3995,400.7729,1095.5095,413.5829,1093.9595z"/>
	<path fill="#E6E6E6" d="M395.5429,1200.4595h-1.54l0.13-0.72C394.5929,1199.9895,395.0629,1200.2295,395.5429,1200.4595z"/>
	<path fill="#666666" d="M836.7197,285.5776c-0.381,3.1259-1.2255,6.2815-1.0282,9.3705c0.259,4.0549-2.072,3.6535-4.6614,3.6513
		c-3.483-0.003-2.0981-2.4076-2.3446-4.1936c-0.9538-6.9112-0.9413-14.0406-4.9357-20.2584
		c-4.1018-6.3849-9.8347-9.9709-17.3492-10.6063c-22.1169-1.8702-44.2806-0.4872-66.4201-0.8568
		c-8.7093-0.1454-8.5419-0.005-9.491,8.569c-2.7103,24.4841-5.482,48.9625-8.4719,73.4135c-0.4348,3.5561,0.5366,4.243,3.7565,4.212
		c16.6548-0.1606,33.3179,0.1226,49.9651-0.2853c18.5665-0.455,28.001-9.0083,30.7447-27.552
		c0.4752-3.2118,1.6251-3.5759,4.3046-3.5206c3.601,0.0744,1.8757,2.4288,1.7238,3.8001
		c-1.8762,16.9324-4.1016,33.8309-5.6503,50.7916c-0.4074,4.462-1.8199,8.8848-0.5853,13.6756
		c1.1281,4.3777-3.289,7.7729-7.7614,6.7906c-1.3604-1.5649-2.1143-3.2086-1.0837-5.3097c0.975-1.9877,0.8141-4.0811,0.219-6.1584
		c-0.4206-13.6501-9.5969-18.6812-20.5622-19.6132c-10.0841-0.958-20.1926-0.3562-30.2864-0.3596
		c-8.7501-0.0029-17.5227-0.6624-26.2573,0.4397c-1.6437,8.8228-3.057,17.6725-3.1073,26.6808
		c-0.9223,2.7032,2.5008,5.9049-0.9542,8.3176c-0.2155,0.1684-0.2382,0.3596-0.0681,0.5738
		c-1.0596,2.3864,2.1524,5.2683-0.8617,7.428c-1.8627,3.071-0.7301,6.4821-1.1038,9.7222
		c-0.9241,2.6889,2.4776,5.8759-0.9528,8.2763c-0.2137,0.1873-0.2385,0.397-0.0744,0.629
		c2.0897,7.1732,0.5333,14.3411,0.0608,21.5275c-0.3283,4.9932,2.4276,8.1629,7.3766,9.0928
		c0.6552,0.1231-0.1638,0.0637,0.4944,0.0593c21.6275-0.1435,43.2905,1.546,64.8698-1.0265
		c7.5276-0.8974,13.9055-4.5508,19.4585-9.5381c6.3253-5.6809,12.0328-11.9916,17.5526-18.444
		c1.2254-1.4324,2.6744-2.297,4.1179-3.3056c4.1068-7.2722,4.1068-7.2722,10.9213-6.7083c-0.622,1.8669-1.2245,3.6753-1.827,5.4838
		c-6.8891,14.7553-13.902,29.4551-20.5715,44.3091c-1.4773,3.2903-3.2717,4.2552-6.7241,4.2487
		c-52.815-0.1003-105.6304-0.0527-158.4454-0.1498c-1.6412-0.003-4.6552,1.6755-4.7012-2.3005
		c-0.0441-3.8053,2.4658-3.6084,5.0795-3.5741c2.3283,0.0306,4.6709-0.0181,6.987-0.2414
		c12.7684-1.2306,19.6716-7.1255,21.3682-19.7438c3.3049-24.5802,6.1249-49.2271,8.9959-73.8638
		c3.2761-28.1129,6.4342-56.2399,9.526-84.3737c0.4894-4.4532,0.6276-8.9846,0.4563-13.4618
		c-0.2933-7.6692-3.5032-11.9139-11.0355-13.2957c-11.3618-2.0844-22.9211-2.2624-34.2553,0.0853
		c-7.8618,1.6284-13.1677,6.7618-15.5764,14.6529c-4.1006,13.4337-5.6047,27.3705-7.9568,41.1328
		c-8.8314,51.6716-17.4814,103.3741-26.2441,155.0575c-0.2523,1.4882-0.0419,3.4919-2.4925,3.6832
		c-2.4872,0.1942-4.2494-0.3199-5.776-2.7293c-8.3762-13.2196-16.9823-26.2934-25.5034-39.4212
		c-27.7393-42.7358-55.4747-85.4742-83.2196-128.2064c-0.889-1.3694-1.8655-2.6822-3.4739-4.984
		c-1.8732,10.8542-3.603,20.7049-5.2698,30.5661c-5.8521,34.6224-11.6909,69.247-17.5122,103.8745
		c-0.8557,5.0896-1.6164,10.1902-1.5981,15.3817c0.0339,9.6358,4.149,14.4246,13.7636,15.5339
		c3.2977,0.3804,6.6541,0.2298,9.9796,0.4016c1.3524,0.0699,3.4094-0.5042,3.0167,2.0034c-0.2595,1.6574-0.0398,3.9274-2.814,3.8806
		c-0.8326-0.0141-1.6659,0.0209-2.4988,0.0209c-22.1591,0.0013-44.3183,0.0403-66.4766-0.0882
		c-1.4589-0.0085-4.3626,1.657-4.332-2.0756c0.0242-2.9516,1.3716-4.0668,4.3627-3.8244c2.6406,0.2141,5.331,0.0271,7.985-0.174
		c10.9669-0.8311,18.0012-6.2189,21.0776-16.736c4.5458-15.5403,5.98-31.6982,8.9562-47.5523
		c0.796-4.2401,1.289-8.537,1.9212-12.8078c2.3622-13.6649,4.7972-27.3178,7.0635-40.9987
		c1.8289-11.0407,3.3843-22.1266,5.1922-33.1709c1.4304-8.7379,3.0649-17.4422,4.5984-26.1633
		c0.6125-3.4836,0.2401-6.4761-1.877-9.7526c-6.0922-9.429-14.4126-15.2008-25.2303-17.7762
		c-2.0528-0.4887-3.9686,0.0676-5.924-0.1619c-1.961-0.2301-4.6196,1.2769-4.6118-3.047c0.0069-3.8404,1.6923-3.802,4.4287-3.7917
		c16.8313,0.0635,33.6649,0.168,50.4931-0.0714c3.8588-0.0549,5.9444,1.2515,7.9776,4.4115
		c32.9805,51.2578,66.084,102.4365,99.1678,153.6279c0.9728,1.5053,2.0352,2.9527,3.6545,5.2918
		c2.132-12.3379,4.1339-23.7144,6.059-35.1039c5.2151-30.8554,10.4373-61.7098,15.5499-92.5822
		c0.7595-4.586,1.2742-9.2645,1.3185-13.9058c0.084-8.8103-3.71-13.1165-12.2753-14.9062
		c-3.7928-0.7924-7.6108-0.7501-11.4422-0.8109c-1.3398-0.0213-3.3055,0.5638-3.0209-1.9999
		c0.199-1.7925,0.0612-3.8657,2.7678-3.8908c1.1664-0.0108,2.3328-0.0273,3.4991-0.0273
		c77.3251-0.0013,154.6503,0.0526,231.975-0.1246c5.0528-0.0116,6.1967,1.4916,5.7751,6.1707
		C837.7222,266.3647,837.3146,275.9796,836.7197,285.5776z"/>
	<path fill="#666666" d="M939.7083,411.2466c0.0712-0.275-0.0074-0.4971-0.2357-0.6663c-3.1346-3.0502-5.6531-6.3535-4.5756-11.1346
		c-1.6956-1.1844-0.8267-3.5796-2.299-4.8694c-3.2423-2.6204-4.2721-6.112-3.9857-10.1219
		c-7.2395-17.5057-14.4556-35.0211-21.7256-52.5141c-6.4279-15.4669-12.9159-30.9088-19.3774-46.3617
		c-2.6669-6.4504-4.9112-13.0764-9.0027-18.8784c-4.5015-6.3833-10.8498-8.9569-18.2843-9.1276
		c-2.7188-0.0624-4.3063-0.179-4.4789-3.5211c-0.1757-3.4009,1.6592-3.3268,4.0042-3.324
		c24.3307,0.0285,48.6614,0.0272,72.9921,0.0017c2.1666-0.0023,3.7937,0.0379,3.917,3.0293c0.1331,3.23-1.7537,2.8735-3.7947,2.9732
		c-1.9859,0.097-3.9925,0.308-5.9315,0.7344c-8.2914,1.8235-12.2112,7.657-10.1517,15.8649
		c1.3713,5.4651,3.2849,10.8339,5.3998,16.0662c16.8971,41.8022,33.8997,83.5618,50.8757,125.3321
		c0.2469,0.6075,0.5689,1.1844,0.8933,1.8529c2.1603-0.6526,1.7458-2.7031,2.1447-4.0596
		c9.2433-31.4434,18.3492-62.9271,27.6041-94.367c0.8043-2.7321,0.8459-5.0827-0.3114-7.6732
		c-5.0881-11.3884-8.9758-23.2861-14.6547-34.4291c-5.6382-11.063-13.4965-19.0094-26.822-19.3009
		c-2.5848-0.0565-2.2992-1.6964-2.4359-3.3661c-0.2003-2.4456,1.2584-2.6608,3.1305-2.6518
		c7.1657,0.0346,14.3317,0.0094,21.4976,0.0092c18.6647-0.0005,37.3293-0.0116,55.994,0.0194
		c1.8677,0.0031,4.1946-0.664,4.3691,2.5453c0.1136,2.0872,0.0181,3.5746-2.7365,3.4194c-2.9877-0.1682-5.9779-0.0281-8.9453,0.6329
		c-7.329,1.6326-10.7838,5.9548-10.5033,13.4924c0.2136,5.7409,1.9486,11.1627,4.0631,16.4077
		c14.4938,35.9529,29.0812,71.8683,43.6521,107.7901c2.9329,7.2307,5.9242,14.4377,8.8868,21.6515
		c1.8788-0.6483,1.613-2.2288,1.9558-3.4132c12.026-41.5494,24.038-83.1029,35.9991-124.6711
		c1.519-5.2788,2.7809-10.637,2.861-16.1838c0.0996-6.9004-3.3857-11.7449-9.9811-13.8062
		c-3.8405-1.2003-7.8242-1.7578-11.8151-1.8152c-2.7786-0.0399-3.2979-1.3401-3.3187-3.7067
		c-0.0233-2.6541,1.7244-2.3678,3.3722-2.3683c19.4979-0.0066,38.9958,0.0266,58.4935-0.0416
		c2.4009-0.0084,3.3514,0.8225,3.1187,3.1947c-0.1688,1.7182,0.5747,3.8447-2.49,3.6969
		c-12.2915-0.593-18.1219,7.2758-21.7157,17.337c-7.3778,20.6542-12.4097,42.0265-18.7615,62.999
		c-4.3467,14.3519-8.3545,28.8066-12.4844,43.2238c-0.3135,1.094-0.3911,2.2555-0.5784,3.3857
		c-5.6584,19.1195-11.335,38.2337-16.9678,57.3608c-2.7251,9.2531-5.3506,18.5354-8.0621,27.7925
		c-0.5779,1.9733-0.6437,4.1819-3.8329,4.2412c-3.04,0.0565-4.3079-1.1374-5.4089-3.819
		c-17.7507-43.2348-35.6053-86.427-53.4576-129.6201c-0.6122-1.4814-0.8215-3.2132-2.6914-4.6146
		c-0.5585,1.6494-1.1045,3.1061-1.5477,4.5934c-12.7283,42.7138-25.4265,85.4366-38.2264,128.1289
		c-0.6283,2.0958-0.2394,5.0559-4.0547,5.3333c-3.8447,0.2796-4.2551-2.3863-5.2559-4.7536
		c-6.1451-14.5346-12.2731-29.0764-18.4066-43.6158c-0.342-0.6614-0.684-1.3227-1.026-1.984
		C941.04,420.231,939.6725,416.0171,939.7083,411.2466z"/>
	<path fill="#666666" d="M1305.672,289.5768c0.0426,8.2957,1.6647,16.438,2.402,24.6663c0.0591,0.6596,0.4045,1.3417,0.2987,1.9588
		c-0.2927,1.7055,1.5845,4.2129-1.6263,4.8965c-2.8531,0.6075-4.1176-0.751-4.7876-3.5091
		c-1.9688-8.1033-4.6075-16.0294-8.624-23.3469c-13.0359-23.749-33.3372-35.6723-60.3142-35.5215
		c-16.0911,0.0899-29.077,10.7809-31.8555,25.205c-1.9529,10.1385,1.5858,18.6893,8.4016,26.0368
		c5.1398,5.5408,11.4082,9.6842,17.7264,13.7304c14.6023,9.3513,30.2583,16.7721,45.5289,24.9044
		c12.9016,6.8708,26.053,13.3697,37.2699,23.0022c16.0321,13.7675,24.5353,30.8811,23.4692,52.308
		c-0.0743,1.4949-0.0598,2.9942-0.0867,4.4913c-6.0148,24.0093-21.2218,38.698-45.3468,43.6881
		c-14.7162,3.044-29.4707,2.1572-43.9657-2.0487c-9.0991-2.6402-18.1776-5.3602-27.327-7.8146
		c-9.0865-2.4375-13.203,0.7128-13.3508,8.6666c-0.0408,2.1964-1.1207,2.6857-3.1276,2.8199
		c-2.7959,0.1871-3.3418-1.3359-3.5774-3.5699c-1.379-13.0741-2.8016-26.1436-4.2194-39.2135
		c-0.9872-9.0991-2.0673-18.1893-2.9146-27.3012c-0.1508-1.6212-1.6147-4.1469,1.787-4.7038
		c3.062-0.5013,4.0098,1.2254,4.7424,3.7431c2.4669,8.4774,5.5115,16.7499,9.7041,24.543
		c13.6289,25.3322,48.7958,40.0541,76.4193,32.0394c21.2172-6.1559,30.2434-27.4815,19.5443-46.7723
		c-8.0696-14.5496-21.5951-22.4956-36.2909-28.8438c-19.3806-11.0877-39.6942-20.5492-58.1759-33.2003
		c-14.6178-10.0062-25.5499-22.6789-30.0492-40.3921c-4.7739-18.7948,0.3848-34.8885,13.1493-48.5001
		c10.6755-11.3841,24.9941-15.1741,40.1873-15.8465c14.0775-0.6231,27.3441,2.9503,40.28,8.1209
		c3.3903,1.3551,6.7848,2.7891,10.3007,3.7222c7.2922,1.9353,10.9103-0.3999,12.8112-7.7392
		c0.4846-1.8712-0.056-4.2556,3.4467-4.2966c3.5693-0.0418,3.0818,2.3149,3.3113,4.2137
		c1.3103,10.8396,2.6106,21.6831,3.6527,32.5503C1304.7045,284.7568,1305.0836,287.1692,1305.672,289.5768z"/>
</g>
</svg>
