<?xml version="1.0" encoding="UTF-8" standalone="no"?>
<!-- Created with Inkscape (http://www.inkscape.org/) -->

<svg
   xmlns:dc="http://purl.org/dc/elements/1.1/"
   xmlns:cc="http://creativecommons.org/ns#"
   xmlns:rdf="http://www.w3.org/1999/02/22-rdf-syntax-ns#"
   xmlns:svg="http://www.w3.org/2000/svg"
   xmlns="http://www.w3.org/2000/svg"
   xmlns:sodipodi="http://sodipodi.sourceforge.net/DTD/sodipodi-0.dtd"
   xmlns:inkscape="http://www.inkscape.org/namespaces/inkscape"
   id="svg2"
   version="1.1"
   inkscape:version="0.92.1 r15371"
   width="640"
   height="640"
   sodipodi:docname="nopassingwater-b.svg">
  <metadata
     id="metadata8">
    <rdf:RDF>
      <cc:Work
         rdf:about="">
        <dc:format>image/svg+xml</dc:format>
        <dc:type
           rdf:resource="http://purl.org/dc/dcmitype/StillImage" />
        <dc:title />
      </cc:Work>
    </rdf:RDF>
  </metadata>
  <defs
     id="defs6">
    <inkscape:perspective
       sodipodi:type="inkscape:persp3d"
       inkscape:vp_x="0 : 160 : 1"
       inkscape:vp_y="0 : 1066.6667 : 0"
       inkscape:vp_z="320 : 160 : 1"
       inkscape:persp3d-origin="160 : 106.66667 : 1"
       id="perspective3848" />
  </defs>
  <sodipodi:namedview
     pagecolor="#ffffff"
     bordercolor="#666666"
     borderopacity="1"
     objecttolerance="10"
     gridtolerance="10"
     guidetolerance="10"
     inkscape:pageopacity="0"
     inkscape:pageshadow="2"
     inkscape:window-width="1413"
     inkscape:window-height="833"
     id="namedview4"
     showgrid="false"
     inkscape:zoom="0.92395286"
     inkscape:cx="148.15692"
     inkscape:cy="368.15504"
     inkscape:window-x="163"
     inkscape:window-y="-18"
     inkscape:window-maximized="0"
     inkscape:current-layer="g4050"
     fit-margin-top="0"
     fit-margin-left="0"
     fit-margin-right="0"
     fit-margin-bottom="0" />
  <g
     id="g3895"
     transform="matrix(0.92847402,0,0,0.92847402,10.074446,41.926674)">
    <g
       id="g4060"
       transform="matrix(1.063514,0,0,1.0413861,-12.192089,-5.9916544)">
      <g
         id="g4050"
         transform="translate(-10.333997,-25.064752)">
        <path
           sodipodi:open="true"
           sodipodi:end="6.2602245"
           sodipodi:start="0"
           d="M 639.46872,316.4697 A 298.33984,286.15848 0 0 1 342.8414,602.62346 298.33984,286.15848 0 0 1 42.808692,319.75484 298.33984,286.15848 0 0 1 335.99154,30.353647 298.33984,286.15848 0 0 1 639.39008,309.89984"
           sodipodi:ry="286.15848"
           sodipodi:rx="298.33984"
           sodipodi:cy="316.4697"
           sodipodi:cx="341.12888"
           id="path3909"
           style="fill:#db000e;fill-opacity:1;stroke:#310000;stroke-width:0;stroke-linecap:square;stroke-linejoin:bevel;stroke-miterlimit:4;stroke-dasharray:none;stroke-dashoffset:0;stroke-opacity:1"
           sodipodi:type="arc" />
        <path
           sodipodi:open="true"
           sodipodi:end="6.2602245"
           sodipodi:start="0"
           d="M 581.9957,313.43777 A 243.14694,228.65634 0 0 1 340.24446,542.09035 243.14694,228.65634 0 0 1 95.717836,316.06278 243.14694,228.65634 0 0 1 334.66182,84.815336 243.14694,228.65634 0 0 1 581.93161,308.1881"
           sodipodi:ry="228.65634"
           sodipodi:rx="243.14694"
           sodipodi:cy="313.43777"
           sodipodi:cx="338.84875"
           id="path3911"
           style="fill:#f5f5f5;fill-opacity:1;stroke:#310000;stroke-width:0;stroke-linecap:square;stroke-linejoin:bevel;stroke-miterlimit:4;stroke-dasharray:none;stroke-dashoffset:0;stroke-opacity:1"
           sodipodi:type="arc" />
        <g
           id="g4045"
           transform="matrix(1.0984298,0,0,1.0984298,-10.090494,-47.897766)">
          <g
             style="fill:#070000;fill-opacity:1"
             id="g3890"
             transform="matrix(1.2881399,0,0,1.0547078,-21.629411,71.322471)">
            <path
               sodipodi:open="true"
               sodipodi:end="6.2602245"
               sodipodi:start="0"
               d="m 217.06327,325.35516 a 33.153774,13.479735 0 0 1 -32.96346,13.47952 33.153774,13.479735 0 0 1 -33.3419,-13.32477 33.153774,13.479735 0 0 1 32.58069,-13.63248 33.153774,13.479735 0 0 1 33.71594,13.16826"
               sodipodi:ry="13.479735"
               sodipodi:rx="33.153774"
               sodipodi:cy="325.35516"
               sodipodi:cx="183.9095"
               id="path3843"
               style="fill:#070000;fill-opacity:1;stroke:#100000;stroke-width:0;stroke-linecap:square;stroke-linejoin:bevel;stroke-miterlimit:4;stroke-dasharray:none;stroke-dashoffset:0;stroke-opacity:1"
               sodipodi:type="arc" />
          </g>
          <path
             sodipodi:nodetypes="cccccccccccccccccccccccccccccccccccccccccscccccccccccccsccc"
             inkscape:connector-curvature="0"
             id="path4043"
             d="m 381.1518,216.69583 21.84567,3.2824 13.83561,10.39426 c 7.75271,17.90481 7.73302,12.98543 0.72818,30.08863 l -4.36914,6.56479 -2.18457,4.92358 -2.91274,2.18827 -5.09734,1.64121 2.91277,6.01772 15.29196,4.37653 c 13.89748,11.90536 11.27287,7.85863 8.01008,25.71209 l -5.09731,13.12959 -5.82552,7.65892 -8.73827,4.9236 -1.45637,18.05317 -2.91277,16.95905 -8.01008,13.12958 1.45638,10.39425 2.18457,15.86493 -1.45638,18.05316 -0.72819,13.67666 -7.7451,-0.78968 -12.68205,-2.18829 -11.68888,0.15794 -13.91129,1.25207 -13.68419,2.115 5.09732,-8.75305 -8.73826,-8.75306 -17.47654,-33.37103 -2.18458,-13.12958 6.55371,-25.16503 0.72818,-3.82946 -20.38929,0.54706 c -26.73711,5.50526 -42.29156,10.79632 -58.98332,30.08863 l -15.29196,20.78851 c 20.16976,-46.14212 58.34504,-50.2558 97.57734,-54.15953 l -0.72819,-4.92359 -6.96163,-0.13545 -6.97058,-1.50575 -5.00071,-2.73533 -8.73827,-12.03545 c 0,0 15.29198,-16.41198 18.20472,-19.14732 2.91276,-2.73533 16.02017,-14.77077 16.02017,-14.77077 l 6.5537,-3.82948 6.55371,-2.18825 12.37921,-4.9236 2.18457,-4.92359 -3.64095,-2.73533 -4.36913,-7.11186 v -5.47066 l -2.18457,-2.73534 -6.5537,-4.92358 -1.45638,-2.73534 2.18457,-4.92358 5.82551,-8.75306 c 0,0 -0.72819,-1.64119 0,-4.37653 0.7282,-2.73533 12.37921,-9.30012 12.37921,-9.30012 l 8.73828,-4.92359 z"
             style="fill:#070000;fill-opacity:1;stroke:#000000;stroke-width:0.99382329px;stroke-linecap:butt;stroke-linejoin:miter;stroke-opacity:1" />
        </g>
        <path
           inkscape:connector-curvature="0"
           id="path15"
           style="fill:#db000e;fill-opacity:1;stroke-width:1.06666672"
           d="M 574.04863,498.5161 163.70036,106.73829 124.92982,143.76076 535.25349,535.53855 Z" />
      </g>
    </g>
  </g>
</svg>
