<?xml version="1.0" encoding="UTF-8" standalone="no"?>
<!-- Created with Inkscape (http://www.inkscape.org/) -->

<svg
   xmlns:dc="http://purl.org/dc/elements/1.1/"
   xmlns:cc="http://creativecommons.org/ns#"
   xmlns:rdf="http://www.w3.org/1999/02/22-rdf-syntax-ns#"
   xmlns:svg="http://www.w3.org/2000/svg"
   xmlns="http://www.w3.org/2000/svg"
   xmlns:sodipodi="http://sodipodi.sourceforge.net/DTD/sodipodi-0.dtd"
   xmlns:inkscape="http://www.inkscape.org/namespaces/inkscape"
   id="svg2"
   xml:space="preserve"
   viewBox="0 0 217.55 101.33"
   version="1.1"
   inkscape:version="0.92.1 r15371"
   sodipodi:docname="rocks-harvestable-resources-rock-beryl-3.svg"
   width="232.05333"
   height="108.08533"><sodipodi:namedview
     pagecolor="#ffffff"
     bordercolor="#666666"
     borderopacity="1"
     objecttolerance="10"
     gridtolerance="10"
     guidetolerance="10"
     inkscape:pageopacity="0"
     inkscape:pageshadow="2"
     inkscape:window-width="640"
     inkscape:window-height="480"
     id="namedview106"
     showgrid="false"
     inkscape:zoom="7.0592375"
     inkscape:cx="116.02666"
     inkscape:cy="54.042664"
     inkscape:current-layer="svg2" /><defs
     id="defs6"><clipPath
       id="clipPath18"><path
         id="path20"
         d="m 0,-0.93359 h 175 v 42 H 0 Z"
         inkscape:connector-curvature="0" /></clipPath><mask
       id="mask22"><g
         id="g24"><g
           id="g26"
           clip-path="url(#clipPath18)"><path
             id="path28"
             style="fill:#000000;fill-opacity:0.62889997"
             d="m 0,-0.93359 h 175 v 42 H 0 Z"
             inkscape:connector-curvature="0" /></g></g></mask><clipPath
       id="clipPath34"><path
         id="path36"
         d="m 0,-0.93359 h 175 v 42 H 0 Z"
         inkscape:connector-curvature="0" /></clipPath><clipPath
       id="clipPath38"><path
         id="path40"
         d="M 0,0 H 175 V 42 H 0 Z"
         inkscape:connector-curvature="0" /></clipPath><clipPath
       id="clipPath42"><path
         id="path44"
         d="m 174.04,21.375 c 0,-5.656 -8.492,-10.48 -25.48,-14.48 C 131.57,2.922 111.06,0.934 87,0.934 62.973,0.934 42.465,2.922 25.48,6.895 8.492,10.895 0,15.719 0,21.375 c 0,5.652 8.492,10.465 25.48,14.437 16.985,4 37.493,6 61.52,6 24.027,0 44.547,-2 61.559,-6 16.988,-3.972 25.48,-8.785 25.48,-14.437 z"
         inkscape:connector-curvature="0" /></clipPath><clipPath
       id="clipPath46"><path
         id="path48"
         d="M 0,-139.9 H 218.75 V 89.66 H 0 Z"
         inkscape:connector-curvature="0" /></clipPath><radialGradient
       id="radialGradient50"
       gradientUnits="userSpaceOnUse"
       cy="-25.85"
       cx="108.4"
       r="93.737999"><stop
         id="stop52"
         style="stop-color:#ffffff;stop-opacity:.61961"
         offset="0" /><stop
         id="stop54"
         style="stop-color:#ffffff;stop-opacity:0"
         offset="1" /></radialGradient><mask
       id="mask56"><g
         id="g58"><g
           id="g60"
           clip-path="url(#clipPath46)"><path
             id="path62"
             style="fill:url(#radialGradient50)"
             d="M 0,-139.9 H 218.75 V 89.66 H 0 Z"
             inkscape:connector-curvature="0" /></g></g></mask><radialGradient
       id="radialGradient64"
       gradientUnits="userSpaceOnUse"
       cy="-25.85"
       cx="108.4"
       r="93.737999"><stop
         id="stop66"
         style="stop-color:#000000"
         offset="0" /><stop
         id="stop68"
         style="stop-color:#000000"
         offset="1" /></radialGradient><clipPath
       id="clipPath100"><path
         id="path102"
         d="m 14,9.0664 h 138 v 23 H 14 Z"
         inkscape:connector-curvature="0" /></clipPath><mask
       id="mask104"><g
         id="g106"><g
           id="g108"
           clip-path="url(#clipPath100)"><path
             id="path110"
             style="fill:#000000;fill-opacity:0.14059999"
             d="m 14,9.0664 h 138 v 23 H 14 Z"
             inkscape:connector-curvature="0" /></g></g></mask><clipPath
       id="clipPath116"><path
         id="path118"
         d="m 14,9.0664 h 138 v 23 H 14 Z"
         inkscape:connector-curvature="0" /></clipPath><clipPath
       id="clipPath120"><path
         id="path122"
         d="M 14,10 H 152 V 33 H 14 Z"
         inkscape:connector-curvature="0" /></clipPath><radialGradient
       id="radialGradient150"
       gradientUnits="userSpaceOnUse"
       cy="-226.49001"
       cx="16199"
       gradientTransform="matrix(-0.0064,0.8,0.8,0.0064,365.98,-12945)"
       r="83.328003"><stop
         id="stop152"
         style="stop-color:#74debe"
         offset="0" /><stop
         id="stop154"
         style="stop-color:#78e0c0"
         offset=".2353" /><stop
         id="stop158"
         style="stop-color:#84e5c8"
         offset="0.451" /><stop
         id="stop160"
         style="stop-color:#99edd3"
         offset=".6627" /><stop
         id="stop162"
         style="stop-color:#b5f9e4"
         offset=".87840" /><stop
         id="stop164"
         style="stop-color:#c4ffed"
         offset=".97650" /><stop
         id="stop166"
         style="stop-color:#c4ffed"
         offset="1" /></radialGradient><clipPath
       id="clipPath188"><path
         id="path190"
         d="m 93,12.066 h 52 v 52 H 93 Z"
         inkscape:connector-curvature="0" /></clipPath><mask
       id="mask192"><g
         id="g194"><g
           id="g196"
           clip-path="url(#clipPath188)"><path
             id="path198"
             style="fill:#000000;fill-opacity:0.42970001"
             d="m 93,12.066 h 52 v 52 H 93 Z"
             inkscape:connector-curvature="0" /></g></g></mask><clipPath
       id="clipPath204"><path
         id="path206"
         d="m 93,12.066 h 52 v 52 H 93 Z"
         inkscape:connector-curvature="0" /></clipPath><clipPath
       id="clipPath208"><path
         id="path210"
         d="m 93,13 h 52 V 65 H 93 Z"
         inkscape:connector-curvature="0" /></clipPath></defs><g
     id="g10"
     transform="matrix(1.25,0,0,-1.25,0,101.33)"><g
       id="g12"><g
         id="g14"><g
           id="g30"
           mask="url(#mask22)"><g
             id="g70"><g
               id="g72"
               clip-path="url(#clipPath34)"><g
                 id="g74"
                 transform="translate(0,-0.93359)"><g
                   id="g78"><g
                     id="g80"
                     clip-path="url(#clipPath38)"><g
                       id="g82"><g
                         id="g84"><g
                           id="g86"
                           clip-path="url(#clipPath42)"><g
                             id="g88"
                             transform="matrix(0.8,0,0,-0.18296,0,16.404)"><g
                               id="g92"
                               mask="url(#mask56)"><path
                                 id="path94"
                                 style="fill:url(#radialGradient64);fill-rule:evenodd"
                                 d="m 174.04,21.375 c 0,-5.656 -8.492,-10.48 -25.48,-14.48 C 131.57,2.922 111.06,0.934 87,0.934 62.973,0.934 42.465,2.922 25.48,6.895 8.492,10.895 0,15.719 0,21.375 c 0,5.652 8.492,10.465 25.48,14.437 16.985,4 37.493,6 61.52,6 24.027,0 44.547,-2 61.559,-6 16.988,-3.972 25.48,-8.785 25.48,-14.437 z"
                                 inkscape:connector-curvature="0" /></g></g></g></g></g></g></g></g></g></g></g></g><g
         id="g96"><g
           id="g112"
           mask="url(#mask104)"><g
             id="g124"><g
               id="g126"
               clip-path="url(#clipPath116)"><g
                 id="g128"
                 transform="translate(0,-0.93359)"><g
                   id="g132"><g
                     id="g134"
                     clip-path="url(#clipPath120)"><g
                       id="g136"><path
                         id="path138"
                         style="fill:#000000;fill-rule:evenodd"
                         d="m 146.16,27.812 c 0.188,-0.078 0.481,-0.304 0.879,-0.679 0.508,-0.344 0.762,-0.852 0.762,-1.52 0,-0.32 -0.055,-0.613 -0.16,-0.879 l 3.597,-1 -0.797,-1.402 c -1.468,-0.398 -2.402,-0.73 -2.8,-1 -0.161,-0.105 -0.309,-0.344 -0.442,-0.719 -0.133,-0.375 -0.387,-0.668 -0.758,-0.879 -0.402,-0.242 -1.054,-0.347 -1.961,-0.32 -0.96,0.078 -1.574,0.121 -1.839,0.121 -0.403,0 -0.922,-0.121 -1.563,-0.363 -0.664,-0.238 -2.078,-0.852 -4.238,-1.84 -1.735,-0.797 -2.973,-1.25 -3.719,-1.359 -1.496,-0.211 -2.387,-0.36 -2.68,-0.438 l -5.402,-1.402 c -0.586,-0.133 -1.277,-0.371 -2.078,-0.719 -0.883,-0.348 -1.52,-0.574 -1.922,-0.68 -0.504,-0.132 -1.437,-0.242 -2.801,-0.32 -1.918,-0.082 -3.453,-0.176 -4.597,-0.281 -1.254,-0.133 -2.176,-0.188 -2.762,-0.16 -1.758,0.105 -4.438,0.16 -8.039,0.16 -4.293,0 -6.281,0.027 -5.961,0.082 0.055,0.023 0.266,0.051 0.641,0.078 0.214,0.027 0.054,0.039 -0.481,0.039 -0.984,0 -1.851,-0.184 -2.598,-0.559 -0.961,-0.48 -1.629,-0.761 -2,-0.839 -0.613,-0.133 -1.629,-0.161 -3.043,-0.079 -1.757,0.106 -3.21,0.133 -4.359,0.079 -1.437,-0.079 -2.773,-0.106 -4,-0.079 -2.105,0.051 -3.238,0.079 -3.398,0.079 -1.016,0 -2.403,-0.133 -4.161,-0.399 -1.785,-0.269 -2.933,-0.402 -3.441,-0.402 -0.851,0 -1.867,0.215 -3.039,0.64 -1.012,0.348 -2.535,1 -4.559,1.961 -1.386,0.641 -2.375,0.852 -2.961,0.641 -1.039,-0.402 -2.187,-0.547 -3.441,-0.441 -1.707,0.16 -2.785,0.214 -3.238,0.16 -0.801,-0.106 -1.387,-0.16 -1.762,-0.16 -0.961,0 -1.746,0.187 -2.359,0.558 -0.907,0.535 -1.387,0.817 -1.442,0.84 -0.453,0.16 -0.906,0.254 -1.359,0.281 -0.613,0.028 -1.024,0.067 -1.238,0.121 -0.426,0.078 -0.813,0.305 -1.161,0.68 l -0.441,0.52 c -1.598,1.066 -3,1.867 -4.199,2.398 -0.719,0.32 -1.332,0.508 -1.84,0.563 -1.094,0.078 -2.414,0.226 -3.961,0.437 -1.68,0.215 -3.105,0.309 -4.277,0.281 -0.828,-0.027 -1.403,0.016 -1.723,0.121 -0.371,0.133 -0.801,0.348 -1.277,0.641 -0.59,0.344 -1.227,0.664 -1.922,0.957 -0.695,0.27 -1.375,0.43 -2.039,0.48 -0.961,0.083 -1.949,0.254 -2.961,0.52 -1.332,0.348 -2.227,0.59 -2.68,0.723 -1.015,0.32 -1.519,0.613 -1.519,0.879 0,0.265 0.414,0.48 1.238,0.64 0.668,0.106 1.387,0.16 2.16,0.16 0.801,0 0.266,0.133 -1.598,0.399 0.399,0.535 1,0.933 1.797,1.199 0.242,0.082 0.696,0.547 1.364,1.402 0.664,0.879 1.613,1.547 2.839,2 1.172,0.426 3.758,0.828 7.758,1.2 5.016,0.453 8.496,0.855 10.442,1.199 3.414,0.613 18.011,0.773 43.8,0.48 25.813,-0.293 41.012,-0.785 45.598,-1.48 3.574,-0.531 6.508,-1.106 8.801,-1.719 2.453,-0.613 3.988,-0.973 4.601,-1.082 1.598,-0.266 2.504,-0.437 2.719,-0.52 z"
                         inkscape:connector-curvature="0" /></g></g></g></g></g></g></g></g><g
         id="g140"><g
           id="g142"><g
             id="g148"><path
               id="path168"
               style="fill:url(#radialGradient150);fill-rule:evenodd"
               d="m 144.16,23.719 c -7.812,-2.852 -13.148,-4.985 -16,-6.399 -2.027,-1.015 -4.519,-1.812 -7.48,-2.398 -2.668,-0.535 -5.149,-0.801 -7.442,-0.801 -2.746,0.078 -4.972,0.094 -6.679,0.039 -2.957,-0.082 -6.254,-0.453 -9.879,-1.121 -4.106,-0.773 -7.078,-1.238 -8.918,-1.398 -1.524,-0.133 -4.231,-0.2 -8.121,-0.2 -3.121,0 -6.375,0.438 -9.762,1.321 l -4.117,1.359 c -3.922,0.348 -7.828,0.52 -11.723,0.52 -2.344,0 -4.238,0.386 -5.68,1.16 L 45.48,17.32 c -1.066,0.692 -2,1.293 -2.8,1.801 -1.52,0.934 -3.785,1.399 -6.801,1.399 -3.094,0 -6.332,0.441 -9.719,1.32 l -4.121,1.359 c -0.078,2.028 0,4.227 0.242,6.602 0.531,4.691 1.692,7.824 3.481,9.398 1.812,1.574 3.011,3.508 3.597,5.801 0.453,2.879 0.852,5.215 1.2,7 0.453,2.215 1.121,4.121 2,5.719 0.453,0.801 0.855,1.375 1.203,1.722 l 1.679,1.079 c 1.493,0.718 3.239,1.082 5.239,1.082 1.625,0 3.121,-0.321 4.48,-0.961 0.961,-0.43 1.785,-0.469 2.481,-0.121 0.613,0.293 1.586,0.921 2.918,1.878 2.054,1.415 4.629,3.094 7.722,5.043 3.172,1.973 6.024,3.973 8.559,6 2.906,2.321 5.215,4.051 6.922,5.2 2.664,1.785 6.664,2.586 12,2.398 2.664,-0.078 5.066,-0.348 7.199,-0.801 l 4.199,-1.797 c 3.465,-1.679 6.867,-3.75 10.199,-6.203 2.852,-2.078 7.188,-4.746 13,-8 4.879,-2.718 7.481,-4.316 7.801,-4.797 0.293,-0.429 1.547,-3.828 3.762,-10.203 2.344,-6.824 4.117,-11.425 5.316,-13.797 2.137,-4.269 4.442,-8.175 6.922,-11.722 z"
               inkscape:connector-curvature="0" /></g></g></g><path
         id="path170"
         style="fill:#52c9a2;fill-rule:evenodd"
         d="m 52.801,41.762 c 0.746,0.984 1.504,1.812 2.277,2.476 0.641,0.535 1.215,1.094 1.723,1.684 0.453,0.398 1.211,0.824 2.277,1.277 1.121,0.426 1.988,1.442 2.602,3.039 l 0.601,2.282 0.957,-1.442 c 0.617,-1.117 0.922,-2.066 0.922,-2.84 0,-0.691 -0.426,-1.371 -1.281,-2.039 -0.957,-0.801 -1.504,-1.359 -1.641,-1.679 -0.183,-0.454 -0.371,-1.332 -0.558,-2.641 -0.16,-1.277 -0.332,-2.094 -0.52,-2.438 -0.215,-0.453 -0.801,-0.656 -1.762,-0.601 -1.757,0.133 -3.476,0.254 -5.16,0.359 -2.105,0.106 -3.586,0.227 -4.437,0.36 l -0.641,0.16 3.719,0.801 z"
         inkscape:connector-curvature="0" /><path
         id="path172"
         style="fill:#5ed1ac;fill-rule:evenodd"
         d="m 90.559,49.602 0.121,-1.403 c 0,-1.121 -0.215,-2.172 -0.641,-3.16 -0.48,-1.066 -0.734,-1.84 -0.758,-2.32 -0.027,-0.106 0.039,-0.664 0.199,-1.68 0.106,-0.641 0.387,-1.426 0.84,-2.359 0.668,-1.36 1.012,-2.078 1.039,-2.16 0.266,-0.692 -0.054,-1.172 -0.961,-1.442 -0.957,-0.265 -2.144,-0.144 -3.558,0.363 -1.199,0.426 -2.238,0.239 -3.121,-0.562 -0.934,-1.145 -1.758,-1.934 -2.481,-2.359 -0.906,-0.559 -2.371,-0.852 -4.398,-0.879 l -2.801,0.078 5.039,3.203 c 1.309,0.797 2.375,1.746 3.203,2.84 1.492,1.89 2.824,3.437 4,4.636 1.891,1.895 3.172,3.657 3.84,5.282 z"
         inkscape:connector-curvature="0" /><path
         id="path174"
         style="fill:#d3f5eb;fill-rule:evenodd"
         d="m 46.281,47.199 1.117,1.641 c 0.989,1.172 2.043,2.039 3.161,2.601 0.746,0.372 1.734,0.704 2.961,1 0.96,0.266 1.933,0.731 2.921,1.399 1.094,0.773 2.094,1.105 3,1 0.454,-0.078 0.786,-0.227 1,-0.442 l 1.84,-1.878 c -1.601,-0.879 -2.75,-1.68 -3.441,-2.399 -0.426,-0.426 -1.293,-0.613 -2.602,-0.562 -1.812,0.187 -3.343,0.281 -4.597,0.281 -1.575,0 -2.934,-0.442 -4.082,-1.32 z"
         inkscape:connector-curvature="0" /><path
         id="path176"
         style="fill:#74debe;fill-rule:evenodd"
         d="m 137.24,35.441 c 2.137,-4.269 4.442,-8.175 6.922,-11.722 -7.812,-2.852 -13.148,-4.985 -16,-6.399 -2.027,-1.015 -4.519,-1.812 -7.48,-2.398 -2.668,-0.535 -5.149,-0.801 -7.442,-0.801 -2.746,0.078 -4.972,0.094 -6.679,0.039 -2.957,-0.082 -6.254,-0.453 -9.879,-1.121 -4.106,-0.773 -7.078,-1.238 -8.918,-1.398 -1.524,-0.133 -4.231,-0.2 -8.121,-0.2 -3.121,0 -6.375,0.438 -9.762,1.321 l -4.117,1.359 c -3.922,0.348 -7.828,0.52 -11.723,0.52 -2.344,0 -4.238,0.386 -5.68,1.16 L 45.48,17.32 c -1.066,0.692 -2,1.293 -2.8,1.801 -1.52,0.934 -3.785,1.399 -6.801,1.399 -3.094,0 -6.332,0.441 -9.719,1.32 l -4.121,1.359 c -0.051,0.961 -0.051,2.133 0,3.52 1.574,0.695 2.734,1.586 3.481,2.679 0.613,1.149 1.054,1.922 1.32,2.321 0.348,0.535 0.387,0.801 0.121,0.801 -0.082,0 0.227,0.265 0.918,0.8 1.359,1.012 2.187,1.68 2.48,2 0.614,0.668 1.039,1.602 1.282,2.801 0.425,2.133 0.664,3.32 0.718,3.559 0.348,1.226 0.989,2.535 1.922,3.922 1.438,2.132 3.399,4.265 5.879,6.398 l -1.601,-10.16 3.203,-1.32 c 2.133,-1.067 3.199,-2.04 3.199,-2.918 0,-0.907 0.371,-1.602 1.117,-2.082 0.508,-0.321 1.563,-0.879 3.16,-1.68 1.094,-0.668 2.496,-1.133 4.203,-1.399 0.852,-0.136 1.586,-0.203 2.2,-0.203 V 31.32 c 0.347,-0.718 1.414,-1.293 3.199,-1.718 1.762,-0.454 3.707,-0.508 5.84,-0.161 1.066,0.184 1.961,0.414 2.679,0.68 l 1.602,-1.601 2.32,-1.2 c 1.864,-0.718 3.586,-0.851 5.16,-0.398 1.254,0.344 2.211,0.773 2.879,1.277 0.508,0.16 1.852,-0.094 4.039,-0.758 2.215,-0.668 4.387,-1.136 6.52,-1.402 1.094,-0.133 1.949,-0.199 2.562,-0.199 l 1.598,2.68 c -0.184,0.347 -0.293,0.761 -0.32,1.242 -0.106,0.984 0.176,1.812 0.84,2.476 0.535,0.535 1.093,1.336 1.679,2.403 0.508,0.746 1.188,1.011 2.043,0.8 0.399,-0.109 1.426,-0.867 3.078,-2.281 1.094,-0.933 1.852,-0.879 2.282,0.16 0.718,1.84 1.199,3.282 1.437,4.321 0.453,1.867 0.684,3.984 0.684,6.359 v 5.32 l 1.679,-0.679 c 1.145,-0.696 1.825,-1.707 2.039,-3.039 0.239,-1.336 1.106,-3.336 2.598,-6 0.777,-1.336 1.508,-2.536 2.203,-3.602 l 1.598,-2.68 0.402,1.078 c 0.531,0.883 1.465,1.762 2.797,2.641 1.067,0.723 1.602,1.348 1.602,1.883 0,0.183 0.535,0.277 1.601,0.277 1.332,0 2.891,-0.453 4.68,-1.359 0.906,-0.426 1.664,-0.867 2.277,-1.32 l 3.203,2.679 2.52,1.563 c 0.906,-2.348 1.664,-4.121 2.277,-5.321 z"
         inkscape:connector-curvature="0" /><path
         id="path178"
         style="fill:#52c9a2;fill-rule:evenodd"
         d="m 133.48,30.641 c 0.239,0.906 0.934,1.972 2.079,3.199 0.586,0.613 1.148,1.148 1.679,1.601 2.137,-4.269 4.442,-8.175 6.922,-11.722 -7.812,-2.852 -13.148,-4.985 -16,-6.399 -2.027,-1.015 -4.519,-1.812 -7.48,-2.398 -2.668,-0.535 -5.149,-0.801 -7.442,-0.801 -2.746,0.078 -4.972,0.094 -6.679,0.039 -2.957,-0.082 -6.254,-0.453 -9.879,-1.121 -4.106,-0.773 -7.078,-1.238 -8.918,-1.398 -1.524,-0.133 -4.231,-0.2 -8.121,-0.2 -3.121,0 -6.375,0.438 -9.762,1.321 l -4.117,1.359 c -3.922,0.348 -7.828,0.52 -11.723,0.52 -2.344,0 -4.238,0.386 -5.68,1.16 L 45.48,17.32 c -1.066,0.692 -2,1.293 -2.8,1.801 -1.52,0.934 -3.785,1.399 -6.801,1.399 -3.094,0 -6.332,0.441 -9.719,1.32 L 22.039,23.199 22,23.48 c 1.867,0.454 3.387,1.067 4.559,1.84 1.043,0.774 1.839,1.305 2.402,1.602 1.199,0.613 2.465,1.547 3.801,2.797 1.492,1.414 2.359,2.613 2.597,3.601 l 0.52,2.121 L 42.84,28 43.922,27.801 c 0.879,-0.266 1.758,-0.735 2.637,-1.403 1.093,-0.824 1.961,-1.386 2.601,-1.679 0.695,-0.321 1.426,-0.481 2.199,-0.481 0.188,0 0.746,0.203 1.68,0.602 0.535,0.238 1.215,0.039 2.039,-0.602 0.91,-0.664 2.067,-1.133 3.481,-1.398 0.722,-0.133 1.347,-0.199 1.882,-0.199 l 3.719,-1.039 11.199,-2.161 1.121,0.2 c 0.985,0.105 2.04,0.039 3.161,-0.2 1.093,-0.214 2.304,-0.187 3.64,0.079 0.664,0.132 1.227,0.293 1.68,0.48 l 7.48,-0.559 0.918,0.2 c 0.719,0.265 1.293,0.734 1.719,1.398 0.723,1.066 1.789,2.496 3.203,4.281 l 2.199,-1.601 c 1.708,-1.067 3.106,-1.598 4.2,-1.598 2.132,0 3.718,0.094 4.761,0.277 1.813,0.297 2.719,0.907 2.719,1.84 v 5.883 l 4.281,-3.199 4.239,-1.602 1,2.121 c 0.8,1.438 1.535,2.161 2.199,2.161 0.32,0 1.215,0.304 2.68,0.918 1.175,0.507 2.066,0.546 2.679,0.121 2.43,-1.575 3.84,-1.575 4.242,0 z"
         inkscape:connector-curvature="0" /><path
         id="path180"
         style="fill:#3eb08b;fill-rule:evenodd"
         d="m 142.4,26.398 c 0.696,-1.117 1.282,-2.011 1.762,-2.679 -7.812,-2.852 -13.148,-4.985 -16,-6.399 -2.027,-1.015 -4.519,-1.812 -7.48,-2.398 -2.668,-0.535 -5.149,-0.801 -7.442,-0.801 -2.746,0.078 -4.972,0.094 -6.679,0.039 -2.957,-0.082 -6.254,-0.453 -9.879,-1.121 -4.106,-0.773 -7.078,-1.238 -8.918,-1.398 -1.524,-0.133 -4.231,-0.2 -8.121,-0.2 -3.121,0 -6.375,0.438 -9.762,1.321 l -4.117,1.359 c -3.922,0.348 -7.828,0.52 -11.723,0.52 -2.344,0 -4.238,0.386 -5.68,1.16 L 45.48,17.32 c -1.066,0.692 -2,1.293 -2.8,1.801 -1.52,0.934 -3.785,1.399 -6.801,1.399 -3.574,0 -7.293,0.574 -11.16,1.718 1.761,0.403 3.426,0.817 5,1.242 0.933,0.215 1.922,0.375 2.961,0.481 1.785,0.184 3.215,0.719 4.281,1.598 v 1.882 l 0.277,1.879 0.524,1.84 0.957,-2.082 c 0.75,-1.57 1.402,-2.746 1.961,-3.519 0.265,-0.348 0.773,-1.133 1.519,-2.36 0.508,-0.824 1.067,-1.547 1.68,-2.16 0.641,-0.641 1.242,-1.066 1.801,-1.277 1.308,-0.481 2.039,-0.762 2.199,-0.84 1.441,-0.723 3.226,-1.348 5.359,-1.883 l 1.684,-0.078 c 1.223,0 2.172,0.117 2.84,0.359 0.636,0.215 1.586,0.188 2.84,-0.082 0.636,-0.133 1.386,-0.293 2.238,-0.476 h 2.398 c 0.375,0 1.535,0.172 3.481,0.519 1.761,0.293 3,0.387 3.722,0.278 1.227,-0.161 2.731,-0.504 4.52,-1.039 l 1.559,-0.918 c 1.121,-0.563 1.839,-0.789 2.16,-0.68 2.933,0.879 4.535,1.316 4.8,1.316 0.532,0 2.321,-0.093 5.36,-0.277 0.453,0 1.586,-0.066 3.398,-0.199 1.735,-0.082 2.817,-0.016 3.242,0.199 0.719,0.371 1.442,1.531 2.161,3.48 l 0.121,0.321 c 0.16,0.183 0.465,0.172 0.918,-0.043 2.105,-1.094 3.625,-1.719 4.558,-1.879 1.067,-0.188 3.282,-0.281 6.641,-0.281 1.066,0 2.668,0.187 4.801,0.562 l 2.16,3.199 2.922,-0.558 c 3.543,2.851 5.504,4.636 5.879,5.359 0.293,0.586 0.757,1.172 1.398,1.758 0.695,0.613 1.106,0.734 1.242,0.359 0.106,-0.316 0.531,-0.613 1.278,-0.879 0.961,-0.371 1.519,-0.613 1.679,-0.718 0.535,-0.348 1.867,-0.348 4,0 l 1.563,0.16 c 1.254,0.054 2.453,-0.082 3.597,-0.403 z"
         inkscape:connector-curvature="0" /><path
         id="path182"
         style="fill:#21916d;fill-rule:evenodd"
         d="m 133.76,21.84 c 1.117,0 2.613,0.215 4.476,0.64 2.883,0.641 4.856,1.055 5.922,1.239 -7.812,-2.852 -13.148,-4.985 -16,-6.399 -2.027,-1.015 -4.519,-1.812 -7.48,-2.398 -2.668,-0.535 -5.149,-0.801 -7.442,-0.801 -2.746,0.078 -4.972,0.094 -6.679,0.039 -2.957,-0.082 -6.254,-0.453 -9.879,-1.121 -4.106,-0.773 -7.078,-1.238 -8.918,-1.398 -1.524,-0.133 -4.231,-0.2 -8.121,-0.2 -3.121,0 -6.375,0.438 -9.762,1.321 l -4.117,1.359 c -3.922,0.348 -7.828,0.52 -11.723,0.52 -2.344,0 -4.238,0.386 -5.68,1.16 L 45.48,17.32 c -1.039,0.668 -1.933,1.239 -2.679,1.719 -1.442,0.906 -3.52,1.387 -6.242,1.441 1.679,0.559 2.789,1.106 3.32,1.641 l 1.402,-1.519 c 1.653,-1.204 4.305,-2.297 7.957,-3.282 3.977,-1.093 6.735,-1.761 8.282,-2 0.668,-0.105 2.175,-0.242 4.519,-0.398 2.481,-0.188 4.613,-0.109 6.402,0.238 l 1,-0.68 c 0.852,-0.507 1.664,-0.812 2.438,-0.921 0.266,-0.024 0.535,0 0.801,0.082 0.265,0.105 1.601,0 4,-0.321 2.586,-0.347 4.894,-0.48 6.922,-0.398 1.304,0.023 3.796,0.156 7.476,0.398 3.043,0.106 5.375,0.293 7,0.559 0.668,0.109 1.723,0.359 3.16,0.762 0.883,0.238 2.309,0.519 4.282,0.839 1.921,0.321 3.16,0.481 3.718,0.481 0.348,0 1.774,-0.227 4.282,-0.68 2.64,-0.293 4.679,-0.066 6.121,0.68 1.066,0.586 2.132,1.133 3.199,1.641 0.668,0.32 1.281,0.664 1.84,1.039 1.066,0.718 2.668,1.961 4.8,3.718 l 1.04,-0.281 c 0.933,-0.156 2.015,-0.238 3.242,-0.238 z"
         inkscape:connector-curvature="0" /><g
         id="g184"><g
           id="g200"
           mask="url(#mask192)"><g
             id="g212"><g
               id="g214"
               clip-path="url(#clipPath204)"><g
                 id="g216"
                 transform="translate(0,-0.93359)"><g
                   id="g220"><g
                     id="g222"
                     clip-path="url(#clipPath208)"><g
                       id="g224"><path
                         id="path226"
                         style="fill:#147352;fill-rule:evenodd"
                         d="m 127.76,60.773 0.398,-0.398 c 0.293,-0.43 1.547,-3.828 3.762,-10.203 2.344,-6.824 4.117,-11.426 5.316,-13.797 2.137,-4.27 4.442,-8.176 6.922,-11.723 -7.812,-2.851 -13.148,-4.984 -16,-6.398 -2.027,-1.016 -4.519,-1.813 -7.48,-2.399 -2.668,-0.535 -5.145,-0.8 -7.442,-0.8 -2.746,0.078 -4.972,0.093 -6.679,0.039 -2.957,-0.082 -6.254,-0.453 -9.879,-1.121 l -3,-0.559 c 2.398,1.359 4.121,2.371 5.16,3.039 1.84,1.149 2.812,2.016 2.922,2.602 0.183,0.933 0.16,1.84 -0.082,2.718 -0.399,1.332 -0.641,2.641 -0.719,3.922 -0.055,0.879 -0.199,1.453 -0.441,1.719 -0.293,0.16 -0.493,0.32 -0.598,0.481 -0.453,0.558 -0.469,3.027 -0.043,7.398 0.723,7.469 0.988,12.359 0.801,14.68 -0.481,-0.211 -0.813,-0.305 -1,-0.278 -0.348,0.028 0.254,0.653 1.8,1.879 1.598,1.227 2.598,2.305 3,3.238 0.239,1.122 0.493,2.083 0.758,2.883 0.535,1.598 1.414,3.918 2.641,6.957 0.535,-0.183 2.855,-0.64 6.961,-1.359 1.601,-0.266 3.945,-0.746 7.039,-1.438 2.508,-0.562 4.469,-0.921 5.883,-1.082 z"
                         inkscape:connector-curvature="0" /></g></g></g></g></g></g></g></g><path
         id="path228"
         style="fill:#cef2e7;fill-rule:evenodd"
         d="m 127.76,59.84 c -3.282,0.613 -6.348,1.105 -9.203,1.48 -1.786,0.215 -4.106,0.68 -6.957,1.399 l -3.723,1 c -4.078,1.601 -7.184,3.015 -9.32,4.242 -1.332,0.773 -2.571,1.211 -3.719,1.32 -1.785,0 -3.574,0.094 -5.36,0.278 -2.105,0.214 -3.441,0.519 -4,0.921 -2.105,1.415 -3.253,2.172 -3.441,2.282 -1.867,0.984 -3.012,1.465 -3.437,1.437 -0.563,-0.238 -1.375,-0.359 -2.442,-0.359 -1.629,0 -2.894,-0.133 -3.801,-0.399 -0.961,-0.296 -2.359,-0.961 -4.199,-2 -2.961,-1.601 -5.414,-2.933 -7.359,-4 -3.602,-1.976 -6.656,-3.839 -9.16,-5.601 -2.563,-1.762 -4.403,-2.774 -5.52,-3.039 l -0.884,0.121 -2.398,-1.082 c -0.985,-0.426 -1.906,-0.735 -2.762,-0.918 l -1,-0.16 -2.117,0.797 -1.883,0.281 c -0.933,0.215 -1.664,0.348 -2.199,0.398 0.32,0.563 0.613,0.961 0.883,1.203 l 1.679,1.079 c 1.493,0.718 3.239,1.082 5.239,1.082 1.625,0 3.121,-0.321 4.48,-0.961 0.961,-0.43 1.785,-0.469 2.481,-0.121 0.613,0.293 1.586,0.921 2.918,1.878 2.054,1.415 4.629,3.094 7.722,5.043 3.172,1.973 6.024,3.973 8.559,6 2.906,2.321 5.215,4.051 6.922,5.2 2.664,1.785 6.664,2.586 12,2.398 2.664,-0.078 5.066,-0.348 7.199,-0.801 l 4.199,-1.797 c 3.465,-1.679 6.867,-3.75 10.199,-6.203 2.774,-2.027 6.813,-4.531 12.121,-7.519 4.934,-2.746 7.692,-4.371 8.282,-4.879 z"
         inkscape:connector-curvature="0" /><path
         id="path230"
         style="fill:#e3fff6;fill-rule:evenodd"
         d="m 113.76,63.441 c 0.797,-0.16 2.519,-0.496 5.16,-1 2.773,-0.562 5.476,-1.242 8.117,-2.043 l 0.723,-0.558 c -3.282,0.613 -6.348,1.105 -9.203,1.48 -1.786,0.215 -4.106,0.68 -6.957,1.399 l -3.723,1 c -4.078,1.601 -7.184,3.015 -9.32,4.242 -1.332,0.773 -2.571,1.211 -3.719,1.32 -1.785,0 -3.574,0.094 -5.36,0.278 -2.105,0.214 -3.441,0.519 -4,0.921 -2.105,1.415 -3.253,2.172 -3.441,2.282 -1.867,0.984 -3.012,1.465 -3.437,1.437 -0.563,-0.238 -1.375,-0.359 -2.442,-0.359 -1.629,0 -2.894,-0.133 -3.801,-0.399 -0.961,-0.296 -2.359,-0.961 -4.199,-2 -2.961,-1.601 -5.414,-2.933 -7.359,-4 -3.602,-1.976 -6.656,-3.839 -9.16,-5.601 -2.563,-1.762 -4.403,-2.774 -5.52,-3.039 l -0.884,0.121 -2.398,-1.082 c -0.985,-0.426 -1.906,-0.735 -2.762,-0.918 l -1,-0.16 -2.117,0.797 -1.883,0.281 c -0.933,0.215 -1.664,0.348 -2.199,0.398 0.32,0.563 0.613,0.961 0.883,1.203 l 1.679,1.079 c 1.493,0.718 3.239,1.082 5.239,1.082 1.254,0 2.48,-0.204 3.679,-0.602 -9.148,-0.934 -12.054,-1.625 -8.718,-2.078 1.679,-0.242 3.054,-0.817 4.121,-1.723 0.957,-0.265 3.066,0.762 6.316,3.082 0.453,-0.136 0.977,-0.054 1.563,0.239 0.613,0.293 1.586,0.921 2.918,1.878 2.054,1.415 4.629,3.094 7.722,5.043 3.36,2.106 6.211,4.118 8.559,6.039 1.254,0.481 2.492,0.868 3.719,1.161 2.507,0.586 3.855,0.906 4.043,0.961 0.586,0.078 1.812,0.117 3.679,0.117 h 3.641 c 0.586,0.054 1.598,0.32 3.039,0.801 l 3.199,1.039 5.879,0.281 c -1.867,-0.586 -3.613,-1.215 -5.238,-1.879 -3.254,-1.336 -4.266,-2.215 -3.039,-2.641 3.383,-1.254 6.05,-2.054 8,-2.398 0.984,-0.188 1.906,-0.453 2.758,-0.801 0.828,-0.375 1.679,-0.641 2.558,-0.801 1.789,-0.375 3.481,-0.558 5.082,-0.558 h 1.078 l -0.519,-0.723 c -0.184,-0.613 0.16,-1.254 1.043,-1.918 0.933,-0.695 2.199,-1.266 3.797,-1.723 0.613,-0.183 2.015,-0.503 4.203,-0.957 z"
         inkscape:connector-curvature="0" /><path
         id="path232"
         style="fill:#beebdb;fill-rule:evenodd"
         d="m 99.359,73.84 c -4.105,-0.293 -6.773,-0.652 -8,-1.078 -0.32,-0.11 -1.347,-0.043 -3.078,0.199 l -2.519,0.359 -1.321,1.039 6.399,2.403 c 1.629,0.636 2.801,0.945 3.519,0.918 0.481,-0.028 1.52,-0.332 3.121,-0.918 1.973,-0.696 3.84,-1.574 5.598,-2.641 0.188,0 -1.051,-0.094 -3.719,-0.281 z"
         inkscape:connector-curvature="0" /><path
         id="path234"
         style="fill:#beebdb;fill-rule:evenodd"
         d="m 104.16,68.762 c 1.199,0.265 2.332,0.398 3.399,0.398 1.066,0 1.8,-0.133 2.203,-0.398 0.531,-0.348 2.133,-1.149 4.797,-2.403 -2.481,-0.347 -4.254,-0.519 -5.321,-0.519 -0.664,0 -1.703,0.215 -3.117,0.64 l -1.961,0.68 z"
         inkscape:connector-curvature="0" /></g></g><metadata
     id="metadata103"><rdf:RDF><cc:Work><dc:format>image/svg+xml</dc:format><dc:type
           rdf:resource="http://purl.org/dc/dcmitype/StillImage" /><cc:license
           rdf:resource="http://creativecommons.org/licenses/publicdomain/" /><dc:publisher><cc:Agent
             rdf:about="http://openclipart.org/"><dc:title>Openclipart</dc:title></cc:Agent></dc:publisher></cc:Work><cc:License
         rdf:about="http://creativecommons.org/licenses/publicdomain/"><cc:permits
           rdf:resource="http://creativecommons.org/ns#Reproduction" /><cc:permits
           rdf:resource="http://creativecommons.org/ns#Distribution" /><cc:permits
           rdf:resource="http://creativecommons.org/ns#DerivativeWorks" /></cc:License></rdf:RDF></metadata></svg>