<?xml version="1.0" encoding="UTF-8" standalone="no"?>
<!-- Created with Inkscape (http://www.inkscape.org/) -->

<svg
   xmlns:dc="http://purl.org/dc/elements/1.1/"
   xmlns:cc="http://creativecommons.org/ns#"
   xmlns:rdf="http://www.w3.org/1999/02/22-rdf-syntax-ns#"
   xmlns:svg="http://www.w3.org/2000/svg"
   xmlns="http://www.w3.org/2000/svg"
   xmlns:sodipodi="http://sodipodi.sourceforge.net/DTD/sodipodi-0.dtd"
   xmlns:inkscape="http://www.inkscape.org/namespaces/inkscape"
   id="svg2"
   sodipodi:docname="sadvdi-ivak-Bear-Trap.svg"
   viewBox="0 0 492.52 318.23"
   sodipodi:version="0.32"
   version="1.0"
   inkscape:output_extension="org.inkscape.output.svg.inkscape"
   inkscape:version="0.92.1 r15371"
   width="525.35468"
   height="339.44534">
  <sodipodi:namedview
     id="base"
     bordercolor="#666666"
     inkscape:pageshadow="2"
     guidetolerance="10"
     pagecolor="#ffffff"
     gridtolerance="10000"
     inkscape:window-height="808"
     inkscape:zoom="0.55884362"
     objecttolerance="10"
     borderopacity="1.0"
     inkscape:current-layer="layer2"
     inkscape:cx="460.57868"
     inkscape:cy="207.5584"
     inkscape:window-y="22"
     inkscape:window-x="0"
     inkscape:window-width="1152"
     inkscape:pageopacity="0.0"
     inkscape:document-units="px"
     showgrid="false" />
  <defs
     id="defs4">
    <filter
       id="filter4177"
       inkscape:collect="always">
      <feGaussianBlur
         id="feGaussianBlur4179"
         stdDeviation="7.0025741"
         inkscape:collect="always" />
    </filter>
    <linearGradient
       id="linearGradient4201"
       y2="564.70001"
       gradientUnits="userSpaceOnUse"
       x2="486.67999"
       y1="247.92999"
       x1="266.79999"
       inkscape:collect="always">
      <stop
         id="stop4077"
         style="stop-color:#000000;stop-opacity:.46392"
         offset="0" />
      <stop
         id="stop4175"
         style="stop-color:#000000;stop-opacity:.46275"
         offset=".092498" />
      <stop
         id="stop4083"
         style="stop-color:#000000"
         offset=".32374" />
      <stop
         id="stop4079"
         style="stop-color:#000000;stop-opacity:.95876"
         offset="1" />
    </linearGradient>
    <linearGradient
       id="linearGradient4359"
       y2="667.19"
       gradientUnits="userSpaceOnUse"
       x2="465"
       gradientTransform="matrix(1,0,0,1.0992,-1.3421,-31.504)"
       y1="537.81"
       x1="380.64999"
       inkscape:collect="always">
      <stop
         id="stop3429"
         style="stop-color:#2b1b00"
         offset="0" />
      <stop
         id="stop3435"
         style="stop-color:#9e7a3e"
         offset=".089286" />
      <stop
         id="stop3437"
         style="stop-color:#654d25"
         offset=".19906" />
      <stop
         id="stop3439"
         style="stop-color:#9e7d47"
         offset=".34208" />
      <stop
         id="stop3431"
         style="stop-color:#2b1b00"
         offset="1" />
    </linearGradient>
    <linearGradient
       id="linearGradient4361"
       y2="579.22998"
       gradientUnits="userSpaceOnUse"
       x2="515.59003"
       y1="572.07001"
       x1="361.97"
       inkscape:collect="always">
      <stop
         id="stop3450"
         style="stop-color:#000000"
         offset="0" />
      <stop
         id="stop3458"
         style="stop-color:#6b4a0f"
         offset=".16030" />
      <stop
         id="stop3460"
         style="stop-color:#56411f"
         offset=".32559" />
      <stop
         id="stop3456"
         style="stop-color:#7d540f"
         offset=".57849" />
      <stop
         id="stop3452"
         style="stop-color:#1e1200"
         offset="1" />
    </linearGradient>
    <linearGradient
       id="linearGradient4363"
       y2="559.13"
       gradientUnits="userSpaceOnUse"
       x2="665.81"
       gradientTransform="translate(-59.051,-214.73)"
       y1="530.5"
       x1="445.56"
       inkscape:collect="always">
      <stop
         id="stop3276"
         style="stop-color:#422900"
         offset="0" />
      <stop
         id="stop3282"
         style="stop-color:#7d581b"
         offset=".061384" />
      <stop
         id="stop3286"
         style="stop-color:#422900"
         offset=".12841" />
      <stop
         id="stop3288"
         style="stop-color:#ad8544"
         offset=".25491" />
      <stop
         id="stop3290"
         style="stop-color:#422900"
         offset=".33082" />
      <stop
         id="stop3292"
         style="stop-color:#ad8544"
         offset=".43974" />
      <stop
         id="stop3294"
         style="stop-color:#422900"
         offset=".48490" />
      <stop
         id="stop3296"
         style="stop-color:#ad8544"
         offset=".60102" />
      <stop
         id="stop3298"
         style="stop-color:#422900"
         offset=".67616" />
      <stop
         id="stop3300"
         style="stop-color:#ad8544"
         offset=".77101" />
      <stop
         id="stop3302"
         style="stop-color:#422900"
         offset=".84215" />
      <stop
         id="stop3284"
         style="stop-color:#ad8544"
         offset=".93799" />
      <stop
         id="stop3278"
         style="stop-color:#422900"
         offset="1" />
    </linearGradient>
    <linearGradient
       id="linearGradient4365"
       y2="522.75"
       gradientUnits="userSpaceOnUse"
       x2="647.95001"
       gradientTransform="matrix(1.0422,0,0,1.0992,-84.115,-246.19)"
       y1="522.75"
       x1="446.87"
       inkscape:collect="always">
      <stop
         id="stop3388"
         style="stop-color:#3b2706"
         offset="0" />
      <stop
         id="stop3394"
         style="stop-color:#c4964c"
         offset=".64286" />
      <stop
         id="stop3390"
         style="stop-color:#301d00"
         offset="1" />
    </linearGradient>
    <linearGradient
       id="linearGradient4367"
       y2="509.10999"
       gradientUnits="userSpaceOnUse"
       x2="413.06"
       gradientTransform="matrix(0.92048,0,0,1.0118,-9.0375,-190.36)"
       y1="355.22"
       x1="222.27"
       inkscape:collect="always">
      <stop
         id="stop3398"
         style="stop-color:#301d00"
         offset="0" />
      <stop
         id="stop3404"
         style="stop-color:#c29f66"
         offset=".66071" />
      <stop
         id="stop3400"
         style="stop-color:#4f350d"
         offset="1" />
    </linearGradient>
    <linearGradient
       id="linearGradient4369"
       y2="343.79999"
       gradientUnits="userSpaceOnUse"
       x2="314.42001"
       gradientTransform="matrix(0.92048,0,0,0.92048,-9.0375,-158.69)"
       y1="437.75"
       x1="179.78"
       inkscape:collect="always">
      <stop
         id="stop3250"
         style="stop-color:#422900"
         offset="0" />
      <stop
         id="stop3256"
         style="stop-color:#f4c87f"
         offset=".15671" />
      <stop
         id="stop3258"
         style="stop-color:#422900"
         offset=".27423" />
      <stop
         id="stop3260"
         style="stop-color:#d9b16e"
         offset=".38616" />
      <stop
         id="stop3262"
         style="stop-color:#422900"
         offset=".50638" />
      <stop
         id="stop3266"
         style="stop-color:#d9b16e"
         offset=".67950" />
      <stop
         id="stop3268"
         style="stop-color:#422900"
         offset=".76570" />
      <stop
         id="stop3270"
         style="stop-color:#d9b16e"
         offset=".88937" />
      <stop
         id="stop3272"
         style="stop-color:#422900"
         offset="1" />
    </linearGradient>
    <linearGradient
       id="linearGradient4371"
       y2="515.70001"
       gradientUnits="userSpaceOnUse"
       x2="462.81"
       gradientTransform="matrix(0.92048,0,0,0.92048,-9.0375,-158.69)"
       y1="386.01999"
       x1="325.73001"
       inkscape:collect="always">
      <stop
         id="stop3550"
         style="stop-color:#2f1e04"
         offset="0" />
      <stop
         id="stop3556"
         style="stop-color:#cda563"
         offset=".046659" />
      <stop
         id="stop3558"
         style="stop-color:#251908"
         offset=".21774" />
      <stop
         id="stop3560"
         style="stop-color:#eac079"
         offset=".29570" />
      <stop
         id="stop3562"
         style="stop-color:#100b05"
         offset=".37943" />
      <stop
         id="stop3564"
         style="stop-color:#ebbd71"
         offset=".47057" />
      <stop
         id="stop3566"
         style="stop-color:#2f1e04"
         offset=".56677" />
      <stop
         id="stop3568"
         style="stop-color:#d9b16e"
         offset=".67657" />
      <stop
         id="stop3570"
         style="stop-color:#3d2d13"
         offset=".79598" />
      <stop
         id="stop3244"
         style="stop-color:#d9b16e"
         offset=".90714" />
      <stop
         id="stop3246"
         style="stop-color:#3d2d13"
         offset="1" />
    </linearGradient>
    <linearGradient
       id="linearGradient4373"
       y2="531.44"
       gradientUnits="userSpaceOnUse"
       x2="384.10001"
       gradientTransform="matrix(0.92048,0,0,1.0118,-9.0375,-190.36)"
       y1="516.87"
       x1="378.56"
       inkscape:collect="always">
      <stop
         id="stop3419"
         style="stop-color:#2b1b00"
         offset="0" />
      <stop
         id="stop3425"
         style="stop-color:#dcb576"
         offset=".5" />
      <stop
         id="stop3421"
         style="stop-color:#2b1b00"
         offset="1" />
    </linearGradient>
    <linearGradient
       id="linearGradient4375"
       y2="557.08002"
       gradientUnits="userSpaceOnUse"
       x2="319.07999"
       gradientTransform="matrix(0.92048,0,0,1.0118,-9.0375,-190.36)"
       y1="454.51001"
       x1="181.16"
       inkscape:collect="always">
      <stop
         id="stop3370"
         style="stop-color:#301d00"
         offset="0" />
      <stop
         id="stop3376"
         style="stop-color:#ac884d"
         offset=".33929" />
      <stop
         id="stop3372"
         style="stop-color:#2b1c04"
         offset="1" />
    </linearGradient>
    <linearGradient
       id="linearGradient4377"
       y2="593.52002"
       gradientUnits="userSpaceOnUse"
       x2="299.39001"
       gradientTransform="matrix(0.92048,0,0,0.92048,-9.0375,-158.69)"
       y1="428.35001"
       x1="176.62"
       inkscape:collect="always">
      <stop
         id="stop3464"
         style="stop-color:#573b0e"
         offset="0" />
      <stop
         id="stop3470"
         style="stop-color:#ecc27e"
         offset=".026466" />
      <stop
         id="stop3472"
         style="stop-color:#6b470c"
         offset=".18527" />
      <stop
         id="stop3474"
         style="stop-color:#d9b16e"
         offset=".25758" />
      <stop
         id="stop3476"
         style="stop-color:#6b470c"
         offset=".38624" />
      <stop
         id="stop3478"
         style="stop-color:#d9b16e"
         offset=".45302" />
      <stop
         id="stop3480"
         style="stop-color:#6b470c"
         offset=".60620" />
      <stop
         id="stop3482"
         style="stop-color:#d9b16e"
         offset=".66707" />
      <stop
         id="stop3484"
         style="stop-color:#6b470c"
         offset=".84970" />
      <stop
         id="stop3486"
         style="stop-color:#ecbe74"
         offset=".96205" />
      <stop
         id="stop3466"
         style="stop-color:#563b0b"
         offset="1" />
    </linearGradient>
    <linearGradient
       id="linearGradient4379"
       y2="588.06"
       gradientUnits="userSpaceOnUse"
       x2="665.63"
       gradientTransform="translate(-59.051,-214.73)"
       y1="588.06"
       x1="305.47"
       inkscape:collect="always">
      <stop
         id="stop3490"
         style="stop-color:#44300f"
         offset="0" />
      <stop
         id="stop3496"
         style="stop-color:#d9b16e"
         offset=".062160" />
      <stop
         id="stop3498"
         style="stop-color:#543605"
         offset=".084901" />
      <stop
         id="stop3500"
         style="stop-color:#d9b16e"
         offset=".15855" />
      <stop
         id="stop3502"
         style="stop-color:#311e00"
         offset=".20621" />
      <stop
         id="stop3504"
         style="stop-color:#e9ba6c"
         offset=".27344" />
      <stop
         id="stop3506"
         style="stop-color:#311e00"
         offset=".31836" />
      <stop
         id="stop3508"
         style="stop-color:#d9b16e"
         offset=".39476" />
      <stop
         id="stop3510"
         style="stop-color:#311e00"
         offset=".44796" />
      <stop
         id="stop3512"
         style="stop-color:#e3bd7c"
         offset=".53663" />
      <stop
         id="stop3514"
         style="stop-color:#311e00"
         offset=".57210" />
      <stop
         id="stop3516"
         style="stop-color:#f4d39d"
         offset=".62652" />
      <stop
         id="stop3518"
         style="stop-color:#311e00"
         offset=".69970" />
      <stop
         id="stop3520"
         style="stop-color:#f0cc8e"
         offset=".75872" />
      <stop
         id="stop3522"
         style="stop-color:#311e00"
         offset=".83730" />
      <stop
         id="stop3524"
         style="stop-color:#d9b16e"
         offset=".88445" />
      <stop
         id="stop3526"
         style="stop-color:#311e00"
         offset=".95041" />
      <stop
         id="stop3528"
         style="stop-color:#d9b16e"
         offset=".98140" />
      <stop
         id="stop3530"
         style="stop-color:#311e00"
         offset="1" />
    </linearGradient>
    <linearGradient
       id="linearGradient4381"
       y2="584.92999"
       gradientUnits="userSpaceOnUse"
       x2="653.25"
       gradientTransform="matrix(1,0,0,1.0992,-59.051,-249.14)"
       y1="594.92999"
       x1="322.12"
       inkscape:collect="always">
      <stop
         id="stop3360"
         style="stop-color:#53380d"
         offset="0" />
      <stop
         id="stop3366"
         style="stop-color:#d9a44f"
         offset=".53571" />
      <stop
         id="stop3362"
         style="stop-color:#301d00"
         offset="1" />
    </linearGradient>
    <radialGradient
       id="radialGradient4383"
       fx="311.48999"
       fy="550.66998"
       gradientUnits="userSpaceOnUse"
       cy="550.5"
       cx="313.60999"
       gradientTransform="matrix(1.0614,0,0,1.4824,-53.999,-449.06)"
       r="6.9001999"
       inkscape:collect="always">
      <stop
         id="stop3408"
         style="stop-color:#ffdda6"
         offset="0" />
      <stop
         id="stop3410"
         style="stop-color:#543404"
         offset="1" />
    </radialGradient>
  </defs>
  <g
     id="layer2"
     inkscape:label="back"
     inkscape:groupmode="layer"
     transform="translate(-135.72,-148)">
    <g
       id="g4385">
      <path
         id="path3918"
         d="m 127.14,308.6 c -78.48,52.04 37.21,106.7 100.33,119.58 59.14,28.24 103.24,38.89 208.04,36.39 72.34,-1.71 181.47,-23.46 179.7,-72.88 -3.45,-96.46 -225.04,-74.88 -247,-70.04 C 238.19,266.02 199.46,260.63 127.14,308.6 Z m 31.42,6.44 c 69.33,-37.31 96.35,-2.01 178.33,20.42 -20.2,17.23 -77.35,54.63 -105.69,65.85 -40.42,-15.39 -141.81,-49.04 -72.64,-86.27 z m 421.93,72.37 C 586,406.59 550.4,412.73 514.88,421.24 466.54,432.82 239.3,436.3 282.45,398.96 l 29.77,-16.69 c 12.5,9.95 17.38,13.75 36.3,14.66 48.61,2.39 40.7,0.99 77.55,5.44 14.07,1.7 24.8,0.8 25.21,-14.39 0.37,-13.87 -18.04,-14.58 -28.81,-15.37 -33.18,-2.43 -22.96,-0.51 -49.79,-1.94 -16.45,-0.88 -28.56,6.47 -37.94,-5.35 l 22.11,-13.11 c 38.78,-1.33 207.42,-21.32 223.64,35.2 z"
         sodipodi:nodetypes="ccsscscccscsccsssssccs"
         style="fill:url(#linearGradient4201);filter:url(#filter4177)"
         transform="matrix(0.88381,0.028024,-0.028652,0.89517,76.155,25.268)"
         inkscape:connector-curvature="0" />
      <g
         id="g4315"
         transform="translate(1.7894,-0.8947)">
        <g
           id="g3536"
           transform="matrix(0.91982,-0.034837,0.034837,0.91982,-35.501,-144.87)">
          <path
             id="path3234"
             sodipodi:nodetypes="ccscccsc"
             style="fill:url(#linearGradient4359)"
             d="m 388.62,547.45 -23.35,8.75 c 4.82,9.69 29.34,22.76 44.42,22.1 35.01,-1.52 47.31,1.92 82.61,5.11 12.33,0.81 28.41,0.61 25.94,-13.13 -2.58,-11.06 -16.28,-12.07 -26.15,-12.45 -32.83,-0.93 -43.78,-1.81 -71.62,2.72 -13.03,2.12 -31.88,-4.74 -31.85,-13.1 z"
             inkscape:connector-curvature="0" />
          <path
             id="path3324"
             d="m 364.88,560.4 0.39,-4.2 c 4.82,9.69 29.34,22.76 44.42,22.1 35.01,-1.52 47.31,1.92 82.61,5.11 12.33,0.81 27.47,0.17 26.05,-12.08 l 0.15,3.74 c -1.33,14.01 -14.28,13.33 -26.61,12.51 -35.3,-3.19 -47.6,-6.63 -82.61,-5.1 -15.07,0.65 -39.58,-12.4 -44.4,-22.08 z"
             sodipodi:nodetypes="ccsccccsc"
             style="fill:url(#linearGradient4361)"
             inkscape:connector-curvature="0" />
        </g>
        <g
           id="g3458"
           transform="matrix(0.92048,0,0,0.92048,45.317,38.964)">
          <path
             id="path3322"
             d="m 597.12,349.51 c -1.43,-7.83 -1.66,-28.16 -3.56,-36.17 -1.65,-2.65 -1.83,-4.66 -5.96,-0.86 -2.87,2.64 -7.46,7.28 -14.19,13.66 -3.08,1.22 -3.97,2.2 -7.14,-5.37 -3.13,-8.36 -5.99,-15.47 -7.97,-24 -0.79,-3.39 -4.96,-4.36 -6.33,-2.17 -6.63,9.24 -8.86,15.71 -15.31,24.05 -0.95,1.23 -3.79,2.3 -5.87,-1.06 -4.98,-9.13 -6.56,-16.68 -10.44,-26.56 -1.73,-4.42 -5.37,-8.54 -8.91,-5.72 -4.23,10.59 -11.06,21.75 -16.36,28.96 -1.65,2.24 -3.04,3.32 -4.91,0.39 L 478.58,285.8 c -1.01,-2.13 -4.26,-2.35 -6.39,-0.14 l -15.16,29.33 c -1.6,1.36 -3.33,1.32 -5.23,-0.58 -6.16,-9.13 -10.4,-17.09 -16.02,-24.77 -1.18,-2.63 -4.74,-4.02 -6.26,-1.39 -3.26,8.88 -12.53,23.63 -15.76,27.51 -2.44,2.93 -5.04,3.31 -6.17,0.19 l -11.19,-22.6 c -1.48,-2.97 -4.43,-4.27 -9.89,-3.53 l 3.82,-2.08 c 5.46,-0.74 8.45,0.54 9.89,3.54 l 10.77,22.51 c 0.72,1.28 1.5,2.39 2.35,2.55 6.45,-8.19 12.63,-20.19 16.99,-29.52 1.94,-1.91 6.44,-2.58 9.27,0.74 5.62,7.68 9.86,15.64 16.02,24.78 0.75,0.74 1.39,1.12 2.09,1.32 l 14.76,-28.52 c 1.65,-3.35 8.37,-4.27 9.93,-1.41 l 11.59,28.85 c 1.87,2.93 3.26,1.86 4.91,-0.38 5.3,-7.22 8.58,-17.04 12.8,-27.63 3.42,-3.44 10.76,-1.83 11.91,2.6 3.88,9.87 6.02,19.21 11,28.34 2.08,3.37 4.92,2.29 5.87,1.06 6.45,-8.34 6.16,-14.74 12.79,-23.98 1.28,-2.2 7.59,-2.52 9.19,2.96 1.99,8.53 4.49,14.78 7.63,23.14 3.17,7.57 4.06,6.6 7.14,5.38 6.73,-6.38 10.64,-11.49 13.63,-13.97 3.01,-2.42 5.42,-1.36 6.52,1.16 1.9,8.01 2.13,28.34 3.56,36.18"
             sodipodi:nodetypes="ccsccscscscscccccccccsccscccccccccscccsccccccc"
             style="fill:url(#linearGradient4363)"
             inkscape:connector-curvature="0" />
          <path
             id="path3299"
             d="m 380.07,300.86 c -2.09,9.28 -2.81,16.32 -2.23,27.83 0.19,3.33 4.42,6.92 8.23,6.73 62.02,-4.07 186.06,-10.72 208.41,37.31 l 2.64,-23.22 c -1.43,-7.83 -1.66,-28.16 -3.56,-36.17 -1.65,-2.65 -1.83,-4.66 -5.96,-0.86 -2.87,2.64 -7.46,7.28 -14.19,13.66 -3.08,1.22 -3.97,2.2 -7.14,-5.37 -3.13,-8.36 -5.99,-15.47 -7.97,-24 -0.79,-3.39 -4.96,-4.36 -6.33,-2.17 -6.63,9.24 -8.86,15.71 -15.31,24.05 -0.95,1.23 -3.79,2.3 -5.87,-1.06 -4.98,-9.13 -6.56,-16.68 -10.44,-26.56 -1.73,-4.42 -5.37,-8.54 -8.91,-5.72 -4.23,10.59 -11.06,21.75 -16.36,28.96 -1.65,2.24 -3.04,3.32 -4.91,0.39 L 478.58,285.8 c -1.01,-2.13 -4.26,-2.35 -6.39,-0.14 l -15.16,29.33 c -1.6,1.36 -3.33,1.32 -5.23,-0.58 -6.16,-9.13 -10.4,-17.09 -16.02,-24.77 -1.18,-2.63 -4.74,-4.02 -6.26,-1.39 -3.26,8.88 -12.53,23.63 -15.76,27.51 -2.44,2.93 -5.04,3.31 -6.17,0.19 l -11.19,-22.6 c -1.48,-2.97 -4.43,-4.27 -9.89,-3.53 -4.6,0.62 -6.07,7.44 -6.44,11.04 z"
             sodipodi:nodetypes="ccccccsccscscscscccccccscssc"
             style="fill:url(#linearGradient4365)"
             inkscape:connector-curvature="0" />
        </g>
        <path
           id="path3328"
           sodipodi:nodetypes="cscssccssscccccccccccccccccccccccccccccc"
           style="fill:url(#linearGradient4367)"
           d="m 171.59,267.33 c 9.16,-31.07 53.45,-56.44 105.19,-43.28 25.25,6.41 50.99,43.95 66.81,65.66 8,13.29 21.09,33.52 30.28,43.41 3.35,3.61 8.35,3.24 12.88,2.7 5.91,-0.71 12.25,-5.24 19.08,-7.55 9.34,-1.45 7.95,-20.55 0.3,-22.47 -1.82,0.05 -16.28,0.9 -19.21,-0.44 -1.99,-0.91 -2.5,-1.67 -1.72,-3.44 2.23,-5.07 7.2,-13.57 11.1,-22.48 1.46,-3.35 0.32,-4.53 -4.55,-4.63 l -27.39,0.8 c -3.15,-0.39 -2.64,-3.04 -1.72,-5.07 l 9.21,-25.34 c 0.51,-1.81 0.08,-3.36 -1.62,-2.76 l -27,7.17 c -2.6,0.08 -4.45,-2.92 -3.54,-5.18 l 13,-27.58 c 1.4,-2.69 -0.17,-4.24 -2.95,-3.09 l -25.02,10.07 c -2.57,1.21 -4.67,-1.34 -4.55,-3.64 l 2.02,-34.93 c 0.13,-3.06 -3.39,-3.42 -5.08,-2.15 l -23.64,19.01 c -1.75,1.57 -3.95,0.04 -4.25,-2.09 l -4.75,-31.73 c -0.13,-5.5 -3.53,-4.7 -4.35,-2.32 l -18.13,30.9 c -0.8,1.83 -2.81,3.36 -4.22,0.72 l -12.54,-31.29 c -1.75,-3.5 -4.02,-4.8 -5.87,-0.77 l -15.23,34.29 c -1.79,2.41 -3.13,1.94 -4.38,0.86 l -20.84,-26 c -1.43,-1.34 -3.45,-4.27 -4.45,1.65 l -6.44,37.37 c -0.33,2.89 -2.64,4.56 -4.28,2.4 L 170.7,198.82 c -2.48,-3.19 -5.53,-1.12 -6.37,3.63 l -2.73,57.25"
           inkscape:connector-curvature="0" />
        <path
           id="path3546"
           d="m 284.17,166.23 c -0.96,-2.54 -3.39,-2.16 -4.05,-0.25 l -18.13,30.9 c -0.8,1.83 -2.81,3.36 -4.22,0.72 l -12.54,-31.29 c -1.75,-3.5 -4.02,-4.8 -5.87,-0.77 l -15.23,34.29 c -1.79,2.41 -3.13,1.94 -4.38,0.86 l -20.84,-26 c -1.43,-1.34 -3.45,-4.27 -4.45,1.65 l -6.44,37.37 c -0.33,2.89 -2.64,4.56 -4.28,2.4 L 170.7,198.82 c -2.48,-3.19 -5.53,-1.12 -6.37,3.63 l -2.06,47.7 -5.25,1.63 3.01,-48.41 c 0.86,-4.79 5.71,-9.23 9.57,-5.86 l 12.32,16.14 c 1.69,2.17 2.03,0.49 2.38,-2.42 l 6.65,-35.8 c 1.35,-4.23 4.13,-4.13 6.12,-2.95 l 20.73,25.72 c 1.29,1.09 1.95,1.48 3.79,-0.95 l 15.09,-33.73 c 1.91,-4.06 5.71,-3.56 7.51,-0.02 l 12.23,30.5 c 1.45,2.66 2.95,0.96 3.78,-0.89 l 18.07,-30.95 c 1.28,-2.15 5.44,-1.23 5.9,4.07 z"
           sodipodi:nodetypes="cccccccccccccccccccccccccccccc"
           style="fill:url(#linearGradient4369)"
           inkscape:connector-curvature="0" />
        <path
           id="path3236"
           d="m 289.22,200.03 -0.69,-4.23 c 0.3,2.15 2.57,3.69 4.38,2.11 l 23.12,-17.9 c 1.75,-1.28 5.9,0.29 6.28,2.73 l -2.02,34.93 c -0.12,2.32 1.97,3.61 4.63,2.39 L 349.66,210 c 2.01,-1.16 5.86,1.94 3.8,5.27 l -12.65,27.01 c -0.94,2.28 0.25,5.1 3.3,4.38 l 27.16,-7.13 c 2.27,-0.61 4.03,1.99 3.2,4.29 l -9.5,25.52 c -0.96,2.05 -1.56,3.51 1.7,3.91 l 28.29,-0.81 c 4.15,-0.46 5.56,2.25 4.04,5.62 -4.02,8.97 -8.72,16.9 -11.02,22 -0.81,1.79 -0.01,2.76 2.2,2.9 3.62,0.24 15.71,0.03 19.13,0.37 7.89,1.93 11.27,19.51 2.34,22.73 l -5.82,2.21 c 7.49,-1.86 7.95,-20.55 0.3,-22.47 -1.82,0.05 -16.28,0.9 -19.21,-0.44 -1.99,-0.91 -2.5,-1.67 -1.72,-3.44 2.23,-5.07 7.2,-13.57 11.1,-22.48 1.46,-3.35 0.32,-4.53 -4.55,-4.63 l -27.39,0.8 c -3.15,-0.39 -2.64,-3.04 -1.72,-5.07 l 9.21,-25.34 c 0.51,-1.81 0.08,-3.36 -1.62,-2.76 l -27,7.17 c -2.6,0.08 -4.45,-2.92 -3.54,-5.18 l 13.15,-28.03 c 1.4,-2.7 -1.04,-3.58 -3.3,-2.54 l -24.82,9.97 c -2.57,1.21 -4.67,-1.34 -4.55,-3.64 l 2.02,-34.93 c 0.13,-3.06 -3.39,-3.42 -5.08,-2.15 l -23.64,19.01 c -1.75,1.57 -3.95,0.04 -4.25,-2.09 z"
           sodipodi:nodetypes="ccccccccccccccccsssccccsssccccccccccccccc"
           style="fill:url(#linearGradient4371)"
           inkscape:connector-curvature="0" />
        <path
           id="path3263"
           sodipodi:nodetypes="cccscc"
           style="fill:url(#linearGradient4373)"
           d="m 284.37,373.63 -5.62,-17.95 113.82,-45.33 c 5.37,-1.73 10.33,1.47 11.35,4.66 0.88,2.75 0.06,6.99 -2.63,8.32 z"
           inkscape:connector-curvature="0" />
        <path
           id="path3318"
           d="m 156.4,252.49 c 0.54,13.17 1.74,36.85 2.78,39.37 13.14,28.26 47.95,68.33 82.83,97.89 7.48,5.12 11.24,16.99 24.28,3.72 l 20.68,-12.49 c 14.47,-11.19 8.93,-19.48 7.56,-26.17 -1.1,-5.36 -8.76,-7.8 -13.61,-7.09 -8.49,0.37 -16.18,8.71 -25.46,12.78 -1.83,0.81 -6.44,-1.91 -5.92,-6.08 l -4.15,-37.52 c -0.43,-3.12 -1.95,-5.16 -5.1,-2.92 l -14.95,11.75 c -3.31,1.26 -3.9,-1.73 -4.22,-4.51 l -3.77,-33.97 c -0.1,-2.49 -1.45,-5.13 -3.98,-3.25 l -19.13,14.77 c -2.97,1.23 -4.89,-1.87 -4.55,-5.24 l -1.5,-29.46 c 0.5,-4.61 -2.25,-5.04 -4.11,-4.01 l -11.69,9.58 c -2.12,2.18 -4.58,-0.11 -4.47,-2.84 l -4.69,-33.28 c 0.2,-3.04 -4.27,-10.32 -5.63,-1.6 -1.08,6.88 0.27,15.15 -1.2,20.57 z"
           sodipodi:nodetypes="cccccscsccccccccccccccsc"
           style="fill:url(#linearGradient4375)"
           inkscape:connector-curvature="0" />
        <path
           id="path3326"
           sodipodi:nodetypes="cccscsccccccccccccccccccccccccccccccscsccc"
           style="fill:url(#linearGradient4377)"
           d="m 255.22,399.48 c 2.89,0.24 5.36,-1.44 11.29,-6.09 l 20.46,-16.26 c 14.47,-11.18 8.93,-15.63 7.56,-22.32 -1.1,-5.36 -8.76,-7.8 -13.61,-7.09 -8.49,0.37 -16.18,8.71 -25.46,12.78 -1.83,0.81 -6.44,-1.91 -5.92,-6.08 l -4.2,-37.36 c -0.43,-3.13 -2.26,-5.03 -5.41,-2.8 l -14.59,11.47 c -3.31,1.26 -3.9,-1.09 -4.22,-4.51 l -3.82,-33.97 c -0.17,-2.81 -1.68,-4.76 -4,-3.11 l -19.06,14.63 c -2.97,1.23 -4.89,-1.87 -4.55,-5.24 l -1.71,-29.05 c 0.51,-4.6 -2.24,-5.04 -4.11,-4.01 l -11.48,9.17 c -2.12,2.18 -4.58,-0.11 -4.47,-2.84 l -4.69,-33.28 c -0.33,-2.83 -1.7,-5.48 -3.31,-5.63 l 4.82,-0.54 c 1.48,0.09 2.63,3.47 2.9,5.41 l 4.5,32.15 c -0.1,2.73 1.26,3.62 3.89,1.77 l 9.22,-7.71 c 2.01,-1.66 8.26,0.14 7.76,4.74 l 1.7,29.05 c -0.34,3.37 0.81,3.97 3.78,2.74 l 16.59,-12.72 c 2.53,-1.88 7.15,0.36 7.4,3.81 l 3.66,33.86 c 0.25,1.66 -0.03,3.54 2.11,2.91 l 14.07,-11.08 c 3.56,-2.75 7.61,0.89 8.04,4.01 l 4.21,37.37 c -0.53,4.17 2.62,5.37 4.46,4.56 9.28,-4.07 16.97,-12.42 25.46,-12.78 4.85,-0.72 11.86,1.97 13.82,7.02 2.61,6.69 6.92,12.5 -6.32,23.91 l -20.68,16.33 c -8.68,7.81 -10.2,6.63 -16.09,6.78 z"
           inkscape:connector-curvature="0" />
        <g
           id="g3462"
           transform="matrix(0.92048,0,0,0.92048,45.317,38.964)">
          <path
             id="path3303"
             d="m 606.57,333.71 c 0.15,-2.29 -3.42,-2.13 -3.97,1.5 l -10.12,39.15 c -1.43,4.22 -3.11,3.6 -4.84,2.06 l -17.79,-18.73 c -1.42,-1.43 -4.18,-2.5 -5.79,2.36 l -9.7,39.45 c -0.79,2.63 -2.03,3.76 -4.35,1.25 l -18.99,-26.78 c -2.86,-2.94 -5.72,-5.78 -8.29,0 l -15.88,33.74 c -1.69,3.34 -3.53,3.91 -5.52,1.41 l -19.68,-28.07 c -2.25,-2.43 -3.84,-3.52 -6.33,1.29 l -20.14,28.71 c -1.54,2.89 -4.08,3.88 -5.3,0.65 l -16.69,-28.2 c -1.38,-2.38 -4.24,-3.73 -7.02,-0.52 l -17.49,31.04 c -3.49,5.38 -5.37,4.8 -9.32,-0.52 l -16.58,-29.49 c -2.14,-3.24 -4.64,-0.91 -6.67,1.68 l -16.66,25.84 c -2.01,2.35 -4.01,2.99 -6.01,-0.48 L 341.7,384.53 c -1.81,-4.4 -5.33,-4.46 -6.56,-1.68 l -18.18,21.65 c -1.43,0.98 -2.79,1.35 -3.92,-0.4 l -12.66,-30.52 c -0.49,-2 -2.25,-2.44 -3.11,-1.41 l -13.8,20.67 c -1.58,1.75 -6.25,-0.85 -6.69,-3.45 -5.39,-18.58 -7.54,-34.82 -12.08,-44.01 -2.84,-6.82 -10.21,-8.49 -14.73,-6.69 -1.11,0.38 -2.44,1.19 -3.55,2.15 4.04,-3.25 5.57,-3.93 8.16,-4.93 4.44,-1.72 10.12,-1.54 12.91,4.98 4.46,8.77 6.58,24.27 11.88,42.02 1.1,6.05 5.14,8.08 6.69,6.41 l 13.47,-21.07 c 0.84,-0.98 3.36,-0.33 3.84,1.58 l 11.67,27.12 c 1.11,1.66 2.45,1.31 3.86,0.38 l 17.88,-20.67 c 1.21,-2.65 4.68,-2.6 6.46,1.6 l 11.55,25.33 c 1.97,3.3 3.94,2.7 5.91,0.45 l 16.39,-24.67 c 2,-2.47 4.46,-4.7 6.57,-1.6 l 16.31,28.15 c 3.88,5.08 5.73,5.64 9.17,0.49 l 17.21,-29.62 c 2.73,-3.08 5.54,-1.79 6.9,0.49 l 16.42,26.92 c 1.21,3.09 3.7,2.14 5.21,-0.61 l 19.82,-27.42 c 1.9,-2.99 4.02,-2.81 6.22,-1.23 l 19.37,26.8 c 1.96,2.38 3.77,1.84 5.43,-1.35 L 520.4,369.6 c 2.99,-5.51 7.39,-5.11 10.68,-0.47 l 17.1,24.62 c 2.29,2.39 3.5,1.31 4.28,-1.19 l 9.15,-35.65 c 1.04,-4.19 4.65,-5.49 8.1,-2.7 l 15.5,16.31 c 1.7,1.47 3.35,2.07 4.75,-1.97 l 9.97,-37.37 c 0.78,-3.04 2.99,-2.56 4.21,-1.42 1.76,1.55 2.38,2.65 2.43,3.95 z"
             sodipodi:nodetypes="cccccccccccccccccccccccccccccccccccscccccccccccccccccccccccccccccccccc"
             style="fill:url(#linearGradient4379)"
             inkscape:connector-curvature="0" />
          <path
             id="path3320"
             d="m 606.72,334.04 -1.26,46.21 c -0.15,6.07 -4.16,13.32 -10.61,21.99 -19.16,18.72 -29.74,23.02 -60.31,29.43 -36.59,7.67 -76.34,9.88 -114.99,9.09 -48.27,-0.97 -91.79,-1.19 -172.22,-37.28 -2.81,-1.31 -4.54,-10.59 -4.81,-15.26 l -0.03,-37.17 c -0.12,-6.6 3.5,-10.77 7.48,-12.36 4.52,-1.8 11.89,-0.13 14.73,6.69 4.54,9.19 6.69,25.43 12.08,44.01 0.44,2.6 5.11,5.2 6.69,3.45 l 13.8,-20.67 c 0.86,-1.03 2.62,-0.59 3.11,1.41 l 12.66,30.52 c 1.13,1.75 2.49,1.38 3.92,0.4 l 18.18,-21.65 c 1.23,-2.78 4.75,-2.72 6.56,1.68 l 11.74,26.52 c 2,3.47 4,2.83 6.01,0.48 l 16.66,-25.84 c 2.03,-2.59 4.53,-4.92 6.67,-1.68 l 16.58,29.49 c 3.95,5.32 5.83,5.9 9.32,0.52 l 17.49,-31.04 c 2.78,-3.21 5.64,-1.86 7.02,0.52 l 16.69,28.2 c 1.22,3.23 3.76,2.24 5.3,-0.65 l 20.14,-28.71 c 2.83,-5.15 4.08,-3.95 6.33,-1.29 l 19.65,27.93 c 2,2.5 3.83,1.93 5.52,-1.41 l 15.91,-33.6 c 2.57,-5.78 4.2,-5.51 8.29,0 l 18.96,26.64 c 2.32,2.51 3.56,1.38 4.35,-1.25 l 9.49,-38.37 c 1.53,-6.04 4.29,-5.2 5.71,-3.77 l 18.11,19.2 c 1.73,1.54 3.41,2.16 4.84,-2.06 l 10.12,-39.15 c 0.55,-3.63 4.26,-3.46 4.12,-1.17 z"
             sodipodi:nodetypes="cccsccccsccccccccccccccccccccccccccccccccc"
             style="fill:url(#linearGradient4381)"
             inkscape:connector-curvature="0" />
        </g>
        <path
           id="path3242"
           d="m 272.74,364.07 c 0.39,-5.03 3.73,-8.33 6.42,-8.48 7.26,-0.39 11.88,17.42 4.38,20.06 -6.13,2.16 -11.12,-5.01 -10.8,-11.58 z"
           sodipodi:nodetypes="cssc"
           style="fill:url(#radialGradient4383)"
           inkscape:connector-curvature="0" />
      </g>
    </g>
  </g>
  <metadata
     id="metadata134">
    <rdf:RDF>
      <cc:Work>
        <dc:format>image/svg+xml</dc:format>
        <dc:type
           rdf:resource="http://purl.org/dc/dcmitype/StillImage" />
        <cc:license
           rdf:resource="http://creativecommons.org/licenses/publicdomain/" />
        <dc:publisher>
          <cc:Agent
             rdf:about="http://openclipart.org/">
            <dc:title>Openclipart</dc:title>
          </cc:Agent>
        </dc:publisher>
        <dc:title>Bear Trap</dc:title>
        <dc:date>2007-07-23T22:08:06</dc:date>
        <dc:description>This is a large Bear Trap. Watch your step please.</dc:description>
        <dc:source>https://openclipart.org/detail/4550/bear-trap-by-ivak</dc:source>
        <dc:creator>
          <cc:Agent>
            <dc:title>ivak</dc:title>
          </cc:Agent>
        </dc:creator>
        <dc:subject>
          <rdf:Bag>
            <rdf:li>snare</rdf:li>
            <rdf:li>trap</rdf:li>
          </rdf:Bag>
        </dc:subject>
      </cc:Work>
      <cc:License
         rdf:about="http://creativecommons.org/licenses/publicdomain/">
        <cc:permits
           rdf:resource="http://creativecommons.org/ns#Reproduction" />
        <cc:permits
           rdf:resource="http://creativecommons.org/ns#Distribution" />
        <cc:permits
           rdf:resource="http://creativecommons.org/ns#DerivativeWorks" />
      </cc:License>
    </rdf:RDF>
  </metadata>
</svg>
