<?xml version="1.0" encoding="utf-8"?>

<!DOCTYPE svg PUBLIC "-//W3C//DTD SVG 1.1//EN" "http://www.w3.org/Graphics/SVG/1.1/DTD/svg11.dtd">
<svg version="1.1" id="Layer_1" xmlns="http://www.w3.org/2000/svg" xmlns:xlink="http://www.w3.org/1999/xlink" x="0px" y="0px"
	 viewBox="0 0 2060.4961 1684.1115" enable-background="new 0 0 2060.4961 1684.1115" xml:space="preserve">
<g>
	<path fill="#AF2D01" d="M716.7463,1482.9347c151.9344,0,247.8301,30.4163,310.541-9.6091
		c23.6506-15.0956,76.3676-82.2432,76.3676-82.2432l-344.351,2.9424C759.3038,1394.0248,690.0664,1482.9347,716.7463,1482.9347z"/>
	<path fill="#FFECDF" d="M682.3126,1474.8248c31.9668,29.296,163.6616,17.5505,174.3109,12.5232
		c20.6757-9.7545,40.7325-50.1123,33.1427-71.678c-9.9421-28.2559-73.7678-59.9886-103.7244-59.9886
		c-66.2385,0-98.4303,45.0897-109.2575,76.6493C673.3099,1442.4598,674.4158,1467.5862,682.3126,1474.8248z"/>
	<path fill="#AF2D01" d="M820.6064,1434.4435c-16.9508-1.4805-54.7366,40.4375-54.7366,40.4375s55.8799-14.4628,68.7922-25.6465
		C838.5178,1445.8939,825.6852,1434.8887,820.6064,1434.4435z"/>
	<path fill="#AF2C01" d="M791.973,1415.3467c-23.229-0.4683-66.5105,64.9081-66.5105,64.9081s54.0857-40.4423,79.8775-50.7681
		C809.8566,1427.678,796.8363,1415.4451,791.973,1415.3467z"/>
	<path fill="#AF2C01" d="M1526.9583,1314.7191c-17.6211-443.5124-196.7905-423.078-282.3176-549.2513
		c-270.7736-399.4581,31.2308-656.9092,208.5403-707.8607c255.5327-73.43,503.0116,129.0173,537.5039,276.0937
		c82.2385,350.6737-131.1283,458.2002-258.475,458.2002c-30.7205,0,32.6836-308.3177-46.9919-317.2148
		c-187.4625-20.9357,100.3977,310.7846-91.0559,748.9818C1572.7974,1272.567,1528.0171,1341.3966,1526.9583,1314.7191z"/>
	<path fill="#AF2C01" d="M278.3074,524.6182c35.2464-140.9854,79.3032-114.5516,79.3032-114.5516s35.2465-17.6235,58.7451,114.5516
		C422.3968,558.5971,269.9375,558.1005,278.3074,524.6182z"/>
	<path fill="#AF2D01" d="M812.8737,760.5882c472.888-210.6724,821.5007,347.0894,725.4831,554.1309
		c-93.9886,202.6656-566.6732,106.8966-725.4831,93.9886c-175.6509-14.2751-509.866-453.6909-509.866-453.6909l307.2003-292.3533
		C610.2081,662.6636,761.4728,783.4866,812.8737,760.5882z"/>
	<path fill="#AF2C01" d="M1229.9523,918.1963c-121.2043,59.5064-185.0397,85.1807-52.8671,537.5039
		c14.2052,48.6083-205.4016-85.1759-176.2318,99.8638c5.3834,34.1406,135.7007,26.4381,135.7007,26.4381
		s100.5994-21.5891,252.0094-76.3676c32.271-11.6754-9.5063-64.791,0-83.3256c21.0455-41.0233,67.5548,4.0199,149.7932-107.5898
		C1612.851,1213.6185,1494.2977,788.4156,1229.9523,918.1963z"/>
	<path fill="#AF2D01" d="M290.0557,1426.3289c-30.5285,30.5286-114.5497,129.2351-114.5497,129.2351s116.6578,12.514,152.7337,0
		c143.9206-49.9294,235.937-276.0913,235.937-276.0913l-222.9029-129.2394
		C341.2738,1150.2333,347.2516,1369.1324,290.0557,1426.3289z"/>
	<path fill="#FFFCDF" d="M885.6244,1273.4713c-36.0942-13.5916-112.8816,139.0928-74.5522,143.3704
		c269.8693,30.1111,362.1946,25.7117,362.1946,25.7117l-36.7126-136.8998
		C1136.5542,1305.6536,1041.9702,1332.3402,885.6244,1273.4713z"/>
	<path fill="#FFFCDF" d="M560.5103,866.852c73.6622-84.3748,140.8429,335.0163,95.9638,437.6396
		c-5.7936,13.2495-38.2612,43.0143-47.9807,32.309c-47.9831-52.8676-232.9552-114.9268-283.92-182.1069
		c-29.7412-39.2054-63.8377-234.431-25.232-201.7757C351.342,996.9022,461.4315,980.3405,560.5103,866.852z"/>
	<path fill="#FFE7DF" d="M320.2983,1442.5533c-183.8149-20.8158-198.0719,89.7534-135.4432,140.1938
		c12.1743,9.8063,60.8109-14.5099,60.8109-14.5099s2.6262,20.0664,8.1545,20.7318
		c79.4999,9.5343,179.8089-105.4956,179.8089-105.4956S351.2154,1446.0532,320.2983,1442.5533z"/>
	<path fill="#FFECDF" d="M977.2123,1566.0962c31.9668,29.2964,163.6612,17.5505,174.3109,12.5236
		c20.6753-9.7544,40.7325-50.1128,33.1427-71.6783c-9.942-28.256-73.7677-59.9886-103.7244-59.9886
		c-66.2389,0-98.4302,45.0901-109.2579,76.6492C968.2097,1533.7311,969.3155,1558.8575,977.2123,1566.0962z"/>
	<path fill="#AF2C01" d="M1033.134,1476.1226c-25.2109,3.8419-63.3196,79.985-63.3196,79.985s63.3196-54.1556,81.6478-67.4896
		C1055.946,1485.3569,1038.6157,1475.2888,1033.134,1476.1226z"/>
	<path fill="#AF2C01" d="M1064.693,1511.0692c-23.2289-0.4688-66.5099,64.9081-66.5099,64.9081s54.0851-40.4423,79.877-50.7687
		C1082.5765,1523.4005,1069.5564,1511.1676,1064.693,1511.0692z"/>
	<path fill="#AF2D01" d="M1090.5271,1549.3655c-16.6558-3.4716-59.1265,33.6912-59.1265,33.6912s57.1964-7.7635,71.3358-17.3447
		C1106.9628,1562.8539,1095.5214,1550.4056,1090.5271,1549.3655z"/>
	<path fill="#FFFCDF" d="M1737.8273,406.501c173.9175,1.1524,195.1973,310.2295,113.9519,356.7671
		c-32.6039,18.6746-124.2734,40.8381-127.5857,31.655c-23.6694-65.6248,28.359-261.8996-32.9973-312.7314
		c-16.2063-13.4251-68.3988,18.3964-68.3988,18.3964S1659.0743,405.9785,1737.8273,406.501z"/>
	<path fill="#AF2C01" d="M310.6162,959.3179c92.0001,51.4431,358.3365-132.1703,299.5918-296.6543
		c-22.0295-61.6845-83.4704-141.0156-208.5407-158.606c-120.2113-16.9067-192.0956-2.6027-229.9303,23.6296
		c-61.8184,42.8597-36.0428,107.2876-56.2268,107.2876C22.4959,634.9748,37.4582,806.587,310.6162,959.3179z"/>
	<path fill="#59630A" d="M113.2568,830.0828c-56.4115,42.3655,16.7517,125.0324,16.7517,125.0324l104.6758-89.2755
		C234.6843,865.8397,168.7428,788.4133,113.2568,830.0828z"/>
	
		<path fill="#231F20" stroke="#231F20" stroke-width="4.3178" stroke-linecap="round" stroke-linejoin="round" stroke-miterlimit="10" d="
		M208.1335,840.4791l6.2052,5.8377c0,0,87.4625,15.9294,87.4625,67.5506c0,18.0754,14.4024-62.6028,1.2392-74.9931
		C280.4557,817.6157,208.1335,840.4791,208.1335,840.4791z"/>
	<path fill="#FFFCDF" d="M295.9308,710.5369c93.3938-276.916,246.1999-94.2137,234.1494-29.819
		c-6.7325,35.9843,64.7747,117.5132,25.1523,173.8052c-39.7907,56.5334-168.3489,144.6843-244.6162,104.7947
		c-27.518-14.3928,15.8383-129.0922-14.6854-123.36c-138.7646,26.0543-197.9966-41.3533-165.9223-73.4276
		C232.3344,660.2039,287.762,734.7542,295.9308,710.5369z"/>
	<path fill="#62200A" d="M170.9123,714.4205c0,0-37.2658,51.1524-50.9068,41.8993c-7.538-5.1137,9.2229-26.4544,15.6627-32.8942
		c11.6308-11.6307,41.8969-9.4124,33.2857-9.0051"/>
	<path fill="#62200A" d="M91.8974,752.7964c2.1877-6.7391-15.5878-16.3463-19.9776-23.1536
		c-3.7714-5.8497,5.1795,22.5871,11.3731,26.0917C85.2724,756.8538,91.197,754.9587,91.8974,752.7964z"/>
	<path opacity="0.4" fill="#FCAF1B" d="M328.2397,663.472c2.0236-29.9403,53.3636-74.6975,93.4192-75.3793
		c46.9876-0.7988,99.3274,49.5922,95.9825,80.7742c-5.0739,47.2875-68.3681,80.5286-100.2879,79.1953
		C386.6634,746.7808,324.679,716.1544,328.2397,663.472z"/>
	<path fill="#FFFFFF" d="M347.2516,660.2039c12.2938-32.6625,95.5373-79.7811,139.5941,0
		c11.2187,20.3149-46.5889,61.1367-69.7968,61.2048C393.841,721.4763,339.076,681.9245,347.2516,660.2039z"/>
	<path fill="#231F20" stroke="#000000" stroke-width="4.3178" stroke-miterlimit="10" d="M354.2633,661.0708
		c11.0637-29.3968,85.9839-71.8046,125.6345,0c10.0965,18.2836-41.93,55.0226-62.8187,55.0836
		C396.1928,716.2148,346.9052,680.6196,354.2633,661.0708z"/>
	<path fill="#FFFFFF" d="M421.5582,660.5272c8.8434-5.381,3.2773-36.5816-6.1045-40.96
		c-8.4006-3.9215-35.4268,10.9563-35.4268,10.9563S410.6163,667.1849,421.5582,660.5272z"/>
	<path fill="#AF2C01" d="M536.7776,636.2303c-10.2017-14.3693-7.5615-54.5726,0-70.4929
		c55.8074-117.4873,149.7985-117.4873,149.7985-117.4873s44.0568,99.6206-78.8369,207.7957
		C593.9131,668.2159,547.4412,651.2482,536.7776,636.2303z"/>
	<path fill="#FFFFFF" d="M682.2588,454.7062c-8.2739-24.5992-16.7704,78.2775-92.6794,148.2873
		c-9.0329,8.3306-5.2217,50.3445,6.9503,48.6577C639.4225,645.7103,705.813,524.7352,682.2588,454.7062z"/>
	<path fill="#AF2D01" d="M880.4286,1300.0313c-24.4586,116.0979-186.1691,185.0398-350.3484,320.15
		c-39.027,32.1171-201.8405,11.7507-201.8405,11.7507s13.4438-113.7461,41.6013-135.1102
		c27.7949-21.0883,109.6538-2.5629,137.5657-23.4962c140.9853-105.7389,143.9229-505.195,255.5351-478.7612
		C794.8218,1002.1119,945.0464,993.3136,880.4286,1300.0313z"/>
	<path fill="#FFECDF" d="M524.0433,1502.7391c15.1076,20.1648,38.4513,74.3435,27.4014,96.9824
		c-34.0892,69.8413-227.2931,32.2104-227.2931,32.2104s8.2461-112.561,46.1466-137.9355
		c24.6318-16.4917,89.0246-21.0878,117.7631-13.8257C498.357,1482.7706,517.6765,1494.2402,524.0433,1502.7391z"/>
	<path fill="#AF2D01" d="M456.322,1593.8885c-25.8293,5.1536-89.4535,44.4104-89.4535,44.4104s75.7683-13.7274,110.3566-22.2263
		C484.6249,1614.2549,462.9024,1592.5764,456.322,1593.8885z"/>
	<path fill="#AF2D01" d="M426.4848,1561.1254c-28.7481-4.8024-89.9995,72.5074-89.9995,72.5074s76.5551-40.0815,102.3048-57.4166
		C442.8264,1573.4988,429.502,1561.631,426.4848,1561.1254z"/>
	<path fill="#AF2D01" d="M381.5731,1525.5839c-28.467,5.6127-57.4214,100.8665-57.4214,100.8665s56.5871-65.8733,76.5835-85.8696
		C405.0362,1536.28,387.5394,1524.408,381.5731,1525.5839z"/>
	<path fill="#AF2D01" d="M217.3631,1480.2595c-26.9932,1.4806-28.3826,104.3429-28.3826,104.3429s35.4691-55.6079,39.2122-76.8502
		C229.4741,1500.4761,224.7398,1479.8566,217.3631,1480.2595z"/>
	<path fill="#AF2D01" d="M249.8548,1511.0831c-11.2072,8.9254-4.1888,57.1542-4.1888,57.1542s32.1026-34.9418,27.5185-47.9855
		C271.1067,1514.3392,254.7555,1507.1803,249.8548,1511.0831z"/>
	<path fill="#AF2D01" d="M318.1734,1509.9681c-20.5793,3.3075-32.3156,76.8599-32.3156,76.8599s33.1494-47.7231,50.6276-55.8425
		C342.8057,1528.0479,325.0512,1508.8623,318.1734,1509.9681z"/>
	<path fill="#FFFFFF" d="M122.2263,788.4133c0,0,2.4718,24.058-2.2208,21.4179c-11.4197-6.4254-32.4327-46.2306-32.4327-46.2306
		L122.2263,788.4133z"/>
	<path fill="#62200A" d="M134.3844,639.1678c73.4305,29.699,93.9421,74.817,0,146.8582
		c-11.7829,9.0353-42.3023-4.6896-58.1943-30.2915C5.843,642.4053,104.8869,627.2372,134.3844,639.1678z"/>
	<path opacity="0.2" fill="#49541C" d="M103.5771,847.5234c7.1566,12.8393,30.5846,38.102,30.5846,38.102
		s-12.3029,5.6784-19.34,32.1448C110.2535,934.9552,94.917,831.9874,103.5771,847.5234z"/>
	<path fill="#AF5436" d="M234.2482,1026.8732c-76.3651,25.7354-205.6003-88.4651-42.0043-174.4797
		c29.1953-15.3509,110.7639,0,110.7639,71.6779C303.0078,997.7691,263.5471,1016.9969,234.2482,1026.8732z"/>
	<path opacity="0.1" fill="#AF2C01" d="M138.5919,903.7286c0,0-54.3433,107.5947,80.9099,118.3096
		c16.8151,1.3304-36.2909-11.413-10.7384-52.6848C221.7274,948.4158,193.0378,962.9069,138.5919,903.7286z"/>
	<ellipse fill="#BC775F" cx="255.1254" cy="986.7169" rx="43.8366" ry="39.6459"/>
	<path opacity="0.1" fill="#AF2C01" d="M223.4771,964.5842c0,0-19.7968,39.7908,33.2833,54.8864
		c13.3104,3.7858-27.9349,7.1451-39.7605-19.1246C209.8975,984.5662,223.4771,964.5842,223.4771,964.5842z"/>
	<path fill="#FFFCDF" d="M1241.9838,910.8454c-230.9777,62.2377-105.4296,394.8082-105.4296,394.8082
		s-113.5023-323.1393,93.3981-387.4573c351.1382-109.1591,314.0691,387.4573,314.0691,387.4573
		S1581.7555,819.293,1241.9838,910.8454z"/>
	<path fill="#FFFFFF" d="M803.8782,999.8915c137.7618,58.3953,81.9126,272.7225,81.9126,272.7225s48.7608-214.875-79.5138-269.5037
		c-106.6457-45.4178-140.0532,104.9704-140.0532,104.9704S697.0099,954.5908,803.8782,999.8915z"/>
</g>
</svg>
