<?xml version="1.0" encoding="UTF-8" standalone="no"?>
<!-- Created with Inkscape (http://www.inkscape.org/) -->

<svg
   xmlns:dc="http://purl.org/dc/elements/1.1/"
   xmlns:cc="http://creativecommons.org/ns#"
   xmlns:rdf="http://www.w3.org/1999/02/22-rdf-syntax-ns#"
   xmlns:svg="http://www.w3.org/2000/svg"
   xmlns="http://www.w3.org/2000/svg"
   xmlns:sodipodi="http://sodipodi.sourceforge.net/DTD/sodipodi-0.dtd"
   xmlns:inkscape="http://www.inkscape.org/namespaces/inkscape"
   id="svg2"
   sodipodi:docname="si-missiridia-Universal-wait-symbol.svg"
   viewBox="0 0 523.43 479"
   sodipodi:version="0.32"
   version="1.0"
   inkscape:output_extension="org.inkscape.output.svg.inkscape"
   inkscape:version="0.92.1 r15371"
   width="558.32532"
   height="510.93332">
  <defs
     id="defs10" />
  <sodipodi:namedview
     id="base"
     bordercolor="#666666"
     inkscape:pageshadow="2"
     guidetolerance="10"
     pagecolor="#ffffff"
     gridtolerance="10000"
     inkscape:window-height="719"
     inkscape:zoom="0.35"
     objecttolerance="10"
     showgrid="false"
     borderopacity="1.0"
     inkscape:current-layer="layer1"
     inkscape:cx="-109.28571"
     inkscape:cy="520"
     inkscape:window-y="25"
     inkscape:window-x="-4"
     inkscape:window-width="1020"
     inkscape:pageopacity="0.0"
     inkscape:document-units="px" />
  <g
     id="layer1"
     inkscape:label="Layer 1"
     inkscape:groupmode="layer"
     transform="translate(-10.157,-38.608)">
    <g
       id="g3159">
      <path
         id="path2383"
         style="fill:#000000;fill-rule:evenodd;stroke:#000000;stroke-width:1px"
         d="m 168.57,260.93 c 3.1,20.42 3.66,41.52 12.11,60.68 2.74,12.29 11.32,21.27 19.59,30.17 8.54,8.45 9.29,21.23 13.04,32.14 0.52,17.55 -13.21,39.9 -11.3,54.2 42.19,0.94 84.37,1.88 126.56,2.81 -1.05,-21.94 -9.46,-44.67 -2.11,-66.18 16.21,-9.89 32.08,-20.34 47.83,-30.96 9.62,-21.61 20.69,-43.14 25.74,-66.34 -1.04,-23.26 2.07,-46.42 2.45,-69.66 -1.03,-17.39 -10.91,-38.43 -30.53,-38.28 -19.11,-5.11 -15.02,21.45 -17.89,33.95 -0.4,19.06 1.91,38.8 -1.19,57.45 -3.22,5.65 -8.86,21.49 -7.16,6.27 V 103.79 c -4.22,-14.241 -20.27,-30.974 -33.89,-17.662 -7.9,12.031 -7.62,28.252 -11.28,42.172 -0.47,35.72 1.46,71.53 1.93,107.28 0.07,6.12 0.83,24.78 -0.28,8.88 -4.54,-53.56 -9.08,-107.11 -13.62,-160.67 -12.28,-7.516 -23.89,-10.771 -32.86,2.679 -18.32,9.57 -4.11,31.631 -7.02,47.971 0.63,38.45 -2.58,76.79 -5.83,115.07 -2.86,-53.34 -5.72,-106.67 -8.57,-160 -10.88,-1.709 -26.17,-11.949 -27.72,5.312 -6.14,17.758 -15.82,36.318 -9.74,55.468 2.72,19.65 4.56,39.42 6.03,59.22 -5.72,-33.34 -11.43,-66.67 -17.15,-100 -11.92,2.21 -31.17,-2.08 -25.81,15.7 0.03,39.75 6.62,79.12 7.79,118.84 0.31,5.62 0.6,11.25 0.88,16.88 z"
         inkscape:connector-curvature="0" />
      <path
         id="path3157"
         style="fill:none;stroke:#000000;stroke-width:15;stroke-linejoin:round"
         sodipodi:type="star"
         d="M 205.71429,158.07647 61.334569,217.88405 -75.444161,142.29285 -101.62473,-11.775408 2.5073731,-128.30419 158.53854,-119.54494 248.97413,7.906446 Z"
         sodipodi:r1="180.09068"
         inkscape:flatsided="true"
         transform="matrix(1.4298,-0.074933,0.070038,1.3364,166.67,220.64)"
         sodipodi:arg2="1.1780763"
         sodipodi:arg1="0.72927738"
         inkscape:randomized="0"
         sodipodi:cy="38.076469"
         sodipodi:cx="71.428574"
         inkscape:rounded="0"
         sodipodi:r2="90.045341"
         sodipodi:sides="7" />
    </g>
  </g>
  <metadata
     id="metadata7">
    <rdf:RDF>
      <cc:Work>
        <dc:format>image/svg+xml</dc:format>
        <dc:type
           rdf:resource="http://purl.org/dc/dcmitype/StillImage" />
        <cc:license
           rdf:resource="http://creativecommons.org/licenses/publicdomain/" />
        <dc:publisher>
          <cc:Agent
             rdf:about="http://openclipart.org/">
            <dc:title>Openclipart</dc:title>
          </cc:Agent>
        </dc:publisher>
        <dc:title>Universal wait symbol</dc:title>
        <dc:date>2009-07-28T14:01:55</dc:date>
        <dc:description />
        <dc:source>https://openclipart.org/detail/27397/universal-wait-symbol-by-missiridia</dc:source>
        <dc:creator>
          <cc:Agent>
            <dc:title>missiridia</dc:title>
          </cc:Agent>
        </dc:creator>
        <dc:subject>
          <rdf:Bag>
            <rdf:li>pictogram</rdf:li>
            <rdf:li>signage</rdf:li>
            <rdf:li>symbol</rdf:li>
            <rdf:li>universal</rdf:li>
          </rdf:Bag>
        </dc:subject>
      </cc:Work>
      <cc:License
         rdf:about="http://creativecommons.org/licenses/publicdomain/">
        <cc:permits
           rdf:resource="http://creativecommons.org/ns#Reproduction" />
        <cc:permits
           rdf:resource="http://creativecommons.org/ns#Distribution" />
        <cc:permits
           rdf:resource="http://creativecommons.org/ns#DerivativeWorks" />
      </cc:License>
    </rdf:RDF>
  </metadata>
</svg>
