<?xml version="1.0" encoding="UTF-8" standalone="no"?>
<!-- Created with Inkscape (http://www.inkscape.org/) -->
<svg xmlns:dc="http://purl.org/dc/elements/1.1/" xmlns:cc="http://creativecommons.org/ns#" xmlns:rdf="http://www.w3.org/1999/02/22-rdf-syntax-ns#" xmlns:svg="http://www.w3.org/2000/svg" xmlns="http://www.w3.org/2000/svg" xmlns:sodipodi="http://sodipodi.sourceforge.net/DTD/sodipodi-0.dtd" xmlns:inkscape="http://www.inkscape.org/namespaces/inkscape" xmlns:ns1="http://sozi.baierouge.fr" version="1.0" width="541.21497" height="641.50531" id="svg3451" sodipodi:version="0.32" inkscape:version="0.46" sodipodi:docname="waitasecond.svg" inkscape:output_extension="org.inkscape.output.svg.inkscape" xmlns:xlink="http://www.w3.org/1999/xlink">
  <metadata id="metadata3382">
    <rdf:RDF>
      <cc:Work rdf:about="">
        <dc:format>image/svg+xml</dc:format>
        <dc:type rdf:resource="http://purl.org/dc/dcmitype/StillImage"/>
      </cc:Work>
    </rdf:RDF>
  </metadata>
  <sodipodi:namedview inkscape:window-height="1006" inkscape:window-width="1676" inkscape:pageshadow="2" inkscape:pageopacity="0.0" guidetolerance="10.0" gridtolerance="10.0" objecttolerance="10.0" borderopacity="1.0" bordercolor="#666666" pagecolor="#ffffff" id="base" showgrid="false" inkscape:zoom="0.72255697" inkscape:cx="268.27681" inkscape:cy="36.075877" inkscape:window-x="4" inkscape:window-y="0" inkscape:current-layer="layer1"/>
  <defs id="defs3453">
    <inkscape:perspective sodipodi:type="inkscape:persp3d" inkscape:vp_x="0 : 322.02859 : 1" inkscape:vp_y="0 : 1000 : 0" inkscape:vp_z="542.36127 : 322.02859 : 1" inkscape:persp3d-origin="271.18063 : 214.68573 : 1" id="perspective3384"/>
  </defs>
  <g transform="translate(-52.305082,-142.1226)" id="layer1">
    <g id="g3921">
      <path d="M 162.75034,763.05384 C 161.40417,762.84671 154.42853,761.31855 147.24894,759.65784 C 140.06934,757.99719 125.75093,755.38144 115.43025,753.84512 C 83.702951,749.12229 85.182928,749.70109 86.895425,742.68111 C 87.503211,740.19046 88.925131,736.59659 90.055183,734.69456 C 91.956146,731.49518 92.075996,730.70986 91.656887,724.19817 C 91.243652,717.77757 91.377421,716.85202 93.181246,713.65031 C 95.82081,708.96523 100.5786,705.8447 106.07434,705.19423 C 110.17821,704.70831 110.50652,704.4993 112.32051,701.21772 C 114.91651,696.52141 116.48663,694.96419 120.32511,693.27953 C 126.97415,690.36069 135.62418,691.80319 140.99746,696.72685 C 146.76415,702.01108 148.86859,710.23769 146.08919,716.63161 C 145.06487,718.98788 145.10786,719.36053 146.56524,720.75373 C 148.54224,722.64368 156.22017,725.23377 170.55408,728.84636 C 176.58274,730.36567 184.08518,732.81312 187.22625,734.28509 C 196.46428,738.61405 205.75696,746.58703 204.26148,748.90032 C 203.67952,749.80053 193.42355,749.67564 186.76039,748.68725 C 183.63972,748.22438 180.63228,747.9947 180.07717,748.17684 C 179.52206,748.35898 181.27069,749.57675 183.96304,750.88299 C 186.65539,752.18922 189.55758,753.99829 190.41244,754.90309 C 191.91649,756.49518 191.91877,756.59883 190.48204,758.11643 C 187.30147,761.47616 171.16565,764.34968 162.75083,763.05491 L 162.75034,763.05384 z" id="path3103" style="fill:#32261e;stroke:#000000;stroke-width:1.60000002;stroke-linecap:round;stroke-linejoin:round;stroke-miterlimit:4;stroke-dasharray:none;stroke-opacity:1"/>
      <path d="M 106.25179,264.37011 C 85.308571,260.798 70.965689,244.16975 70.965689,223.46243 C 70.965689,198.60351 91.970097,177.29174 118.04755,175.69131 C 153.22024,173.5326 175.30241,206.75151 159.32535,237.78597 C 153.49143,249.11767 140.42995,259.47991 127.34757,263.15497 C 121.7235,264.73504 111.75397,265.31024 106.25179,264.37221 L 106.25179,264.37011 z" id="path3101" style="fill:#bfa962;stroke:#000000;stroke-width:1.60000002;stroke-linecap:round;stroke-linejoin:round;stroke-miterlimit:4;stroke-dasharray:none;stroke-opacity:1"/>
      <path d="M 101.96851,728.16727 C 96.918146,727.09673 92.493881,725.08613 91.986414,723.63069 C 91.800071,723.09628 91.816258,696.79307 92.022394,665.17911 L 92.397153,607.69934 L 89.079933,602.95054 C 84.814272,596.84402 83.425753,591.04402 84.884762,585.42692 C 85.656275,582.45676 86.038638,564.77731 86.396068,515.54615 C 86.925213,442.66964 86.553236,447.4608 92.212115,440.63089 C 95.781355,436.32283 103.68479,432.74807 109.85109,432.65292 C 114.84988,432.5757 124.32614,434.55955 128.48378,436.55361 C 134.07024,439.23316 138.80201,445.17425 139.86752,450.84829 C 140.14586,452.32971 143.83523,479.51331 148.06614,511.25673 C 155.06959,563.80263 155.94803,569.32926 157.87363,572.95674 C 162.25637,581.21471 161.1725,590.64103 155.02627,597.71973 C 153.00578,600.04675 151.73785,602.30436 151.74103,603.56926 C 151.75408,608.67808 146.75504,710.32699 146.41768,711.80887 C 145.89572,714.10797 144.2213,714.62164 136.4927,714.85328 C 132.82058,714.96338 129.42455,715.28478 128.94597,715.56752 C 128.46397,715.85229 128.07585,718.51404 128.07585,721.5349 L 128.07585,726.98821 L 125.24651,728.11834 C 121.76653,729.50834 108.4283,729.53595 101.96829,728.16654 L 101.96851,728.16727 z" id="path3099" style="fill:#534c5d;stroke:#000000;stroke-width:1.60000002;stroke-linecap:round;stroke-linejoin:round;stroke-miterlimit:4;stroke-dasharray:none;stroke-opacity:1"/>
      <path d="M 115.69949,432.69605 C 97.70725,405.49965 98.815193,406.93318 94.972475,405.88026 C 90.160104,404.56155 87.229848,402.93959 84.322192,399.98511 C 77.347455,392.89837 76.60404,384.8793 82.119278,376.22356 L 85.035991,371.64603 L 86.953515,338.94953 L 88.871039,306.25302 L 85.560428,302.81958 C 80.480616,297.55135 78.750414,293.24586 78.735973,285.83646 C 78.725204,280.32964 79.044239,278.95828 81.400258,274.38309 C 86.403296,264.6682 95.900601,258.82413 106.8707,258.71026 C 114.88689,258.62699 120.22231,260.66479 125.70084,265.90206 C 131.07354,271.03818 133.14045,275.92347 133.08089,283.34378 C 133.01742,291.25078 129.48669,298.36225 122.86546,303.9193 C 120.63261,305.79333 119.91155,307.01377 119.87035,308.98888 C 119.84049,310.4196 118.97273,325.10238 117.94197,341.61754 L 116.06785,371.6451 L 118.03025,375.39753 C 120.71885,380.53864 121.61866,385.64512 120.62421,390.11884 C 120.0265,392.80759 120.07702,394.25094 120.81531,395.57839 C 121.74115,397.24293 125.61789,403.06032 142.8991,428.71712 C 146.41711,433.94005 149.29539,438.74789 149.29539,439.40148 C 149.29539,440.05502 148.10219,441.45825 146.64383,442.51974 C 143.42419,444.86322 130.50034,451.55687 129.16069,451.57481 C 128.63153,451.58182 122.57374,443.08597 115.69894,432.6941 L 115.69949,432.69605 z" id="path3097" style="fill:#755b6e;stroke:#000000;stroke-width:1.60000002;stroke-linecap:round;stroke-linejoin:round;stroke-miterlimit:4;stroke-dasharray:none;stroke-opacity:1"/>
      <path d="M 53.315605,459.91073 C 53.069672,459.3277 53.011851,425.33278 53.187099,384.36683 L 53.505751,309.88464 L 55.29591,305.48929 C 60.325905,293.13944 69.688201,280.8092 85.128395,274.27567 C 101.91927,267.17046 118.62771,269.33142 137.05817,273.20565 C 156.65814,277.32586 172.39376,290.15718 175.28282,304.37429 C 176.09447,308.3685 175.7713,455.60313 174.94278,459.30051 L 174.56834,460.97101 L 114.16559,460.97101 C 62.584297,460.97101 53.69756,460.81619 53.315614,459.91095 L 53.315605,459.91073 z" id="path3093" style="fill:#755b6e;stroke:#000000;stroke-width:1.56131768;stroke-linecap:round;stroke-linejoin:round;stroke-miterlimit:4;stroke-dasharray:none;stroke-opacity:1" sodipodi:nodetypes="ccccsssccccc"/>
      <path d="M 367.27463,292.07607 C 361.86069,295.56457 352.00819,301.05123 349.33108,302.06715 C 345.8472,303.39029 339.74677,307.78226 341.15734,307.95164 C 341.82535,308.03192 347.40213,305.95135 353.55018,303.32819 C 364.99245,298.446 367.35723,297.91397 367.96993,300.08385 C 368.47165,301.86216 365.98743,303.73003 357.12009,308.24149 C 352.82374,310.42741 345.38595,314.93574 340.59171,318.26027 C 331.53172,324.54256 323.75583,327.89893 318.50721,327.79364 C 316.93174,327.76193 313.57316,327.24449 311.04369,326.64386 C 306.50471,325.566 306.39769,325.58459 302.84998,328.06638 C 298.49943,331.10982 296.95185,326.26509 292.17951,325.79363 C 280.1046,324.60078 275.92608,317.79037 284.36095,308.77804 C 287.51165,305.41161 290.7872,300.70635 295.23551,301.11994 L 298.16858,301.39242 L 299.29082,296.23451 C 299.90803,293.39766 301.25955,289.66151 302.2941,287.93211 C 305.18078,283.10619 311.93095,277.96015 318.15673,275.83952 C 323.59091,273.98837 325.95295,274.08697 325.72931,276.15563 C 325.61297,277.23215 319.96861,281.4465 315.56876,283.74157 C 313.0717,285.04426 312.33847,287.11027 314.30426,287.30448 C 316.44349,287.5158 322.32234,285.15279 348.13993,273.70367 C 358.26697,269.21274 361.70284,268.44628 362.18687,270.56928 C 362.5767,272.2775 357.94642,275.56803 348.10746,280.57511 C 339.79362,284.80587 331.65591,289.99694 334.57069,289.2099 C 336.72632,288.62804 353.22259,282.27934 359.36863,279.66702 C 366.72971,276.5376 370.01833,276.1756 369.76461,278.52295 C 369.56463,280.37294 366.24804,282.68925 357.78757,286.8876 C 353.97407,288.78005 350.44549,290.69261 349.94626,291.13767 C 349.44702,291.58277 346.95899,293.09894 344.41717,294.50696 C 341.87539,295.91498 339.94324,297.24032 340.12332,297.45224 C 340.45417,297.84143 342.1544,297.2102 353.06392,292.64788 C 362.84414,288.55779 369.62922,286.33917 370.46722,286.95609 C 371.98701,288.07568 370.98233,289.68677 367.27468,292.07579 L 367.27463,292.07607 z" id="path3095" style="fill:#c2ac66;stroke:#000000;stroke-width:1.60000002;stroke-linecap:round;stroke-linejoin:round;stroke-miterlimit:4;stroke-dasharray:none;stroke-opacity:1"/>
      <path d="M 275.33315,338.47547 C 245.18522,352.78872 246.79073,351.88253 245.30015,355.42833 C 243.4333,359.86889 241.44444,362.48851 238.07133,364.94974 C 229.9805,370.85353 221.56004,370.73614 213.12044,364.60197 L 208.65723,361.35793 L 174.8329,356.1736 L 141.00855,350.98923 L 137.09566,353.78438 C 131.09178,358.07324 126.43399,359.27593 118.72285,358.52801 C 112.99178,357.97218 111.59764,357.52786 107.07923,354.81724 C 97.484911,349.06121 92.380313,339.4295 93.389455,328.98632 C 94.126841,321.35517 96.795628,316.4912 102.80829,311.82 C 108.70481,307.23903 114.00051,305.77579 121.71543,306.59516 C 129.93632,307.46831 136.973,311.55669 142.07465,318.42404 C 143.79506,320.73992 144.99086,321.55102 147.04179,321.79323 C 148.52743,321.96868 163.71598,324.30311 180.79442,326.98088 L 211.84613,331.8496 L 215.95235,330.36929 C 221.57812,328.34114 226.98402,328.01042 231.53682,329.41592 C 234.2731,330.26067 235.78014,330.361 237.23729,329.79542 C 239.06442,329.08613 245.51607,325.99771 273.9889,312.20231 C 279.7851,309.39394 285.08363,307.15117 285.76372,307.21836 C 286.44372,307.28554 287.7812,308.56441 288.73578,310.06024 C 290.84325,313.36271 296.47967,326.34007 296.3606,327.61579 C 296.31355,328.1197 286.85073,333.00674 275.33108,338.47579 L 275.33315,338.47547 z" id="path3119" style="fill:#755b6e;stroke:#000000;stroke-width:1.60000002;stroke-linecap:round;stroke-linejoin:round;stroke-miterlimit:4;stroke-dasharray:none;stroke-opacity:1"/>
      <path d="M 557.43268,781.87811 C 555.42391,781.37085 550.14583,779.19427 545.70372,777.04125 C 541.26142,774.88822 532.59225,771.46195 526.4392,769.42742 C 499.13213,760.39859 499.36878,760.49635 499.05262,758.10048 C 498.88932,756.86357 500.11439,753.10776 501.775,749.75418 C 503.61259,746.04327 504.45753,743.29429 503.9338,742.73056 C 502.49451,741.18134 466.74706,740.352 456.41559,741.62817 C 446.63413,742.83638 438.53452,741.93241 433.17001,739.03365 C 429.81361,737.22003 429.73841,732.82507 432.93786,725.46144 C 434.91155,720.91919 435.18656,719.17816 434.69417,714.34593 C 433.88786,706.43459 434.85716,702.03127 438.34624,697.75321 C 445.60343,688.85647 457.16271,689.46339 463.98363,699.09936 C 466.38423,702.49049 466.61069,703.54616 466.61668,711.37173 L 466.62323,719.93359 L 469.58601,721.23483 C 471.93442,722.26624 498.8041,727.62665 501.62526,727.62665 C 502.0005,727.62665 503.64955,725.39731 505.28987,722.6726 C 510.51781,713.9883 519.54066,711.24497 527.90124,715.79628 C 533.81081,719.01354 537.19059,724.68577 538.14759,732.99311 C 539.81335,747.45032 544.19635,750.89472 576.7337,763.31611 C 584.3585,766.22688 590.71696,770.51632 592.38758,773.87584 C 593.85026,776.81773 590.61669,778.70304 580.103,781.0381 C 570.80702,783.10283 563.37154,783.3785 557.43176,781.87879 L 557.43268,781.87811 z" id="path4030" style="fill:#694e2e;fill-opacity:1;stroke:#000000;stroke-width:1.5999999;stroke-linecap:round;stroke-linejoin:round;stroke-miterlimit:4;stroke-dasharray:none;stroke-opacity:1"/>
      <path d="M 507.57596,739.67138 C 505.92929,739.12237 504.32321,738.22264 504.00705,737.6719 C 503.69083,737.12118 500.69929,713.693 497.35908,685.60921 C 494.01896,657.52543 491.09294,634.33992 490.85685,634.08619 C 489.74962,632.8944 488.04158,638.16812 477.35438,675.77742 C 471.0598,697.9279 465.48885,716.61686 464.97438,717.30956 C 461.19584,722.39401 435.27082,712.95508 435.27082,706.4951 C 435.27082,705.39945 442.25478,679.91654 450.79094,649.86639 C 464.86588,600.31678 466.24372,594.80836 465.588,590.69945 C 465.19041,588.20752 464.93561,582.31751 465.02178,577.61053 C 465.10793,572.90355 464.51501,555.68659 463.70418,539.35061 L 462.2299,509.64884 L 455.29822,478.07937 C 451.48582,460.71642 448.37067,444.63215 448.37572,442.33655 C 448.3962,432.97304 455.67603,422.96495 464.18581,420.60089 C 473.08182,418.13011 480.67408,417.31215 484.46992,418.41585 C 489.8624,419.9841 495.68067,424.83013 497.96958,429.66024 C 500.27076,434.51542 500.4627,436.21114 502.12285,466.35452 L 503.39817,489.51184 L 511.9159,527.77175 C 519.17132,560.36115 521.00498,567.25095 524.28935,574.25654 C 527.92028,582.00277 528.11625,582.86341 527.65538,589.04299 C 527.38618,592.65292 526.27398,597.58784 525.18274,600.01453 C 524.09188,602.44001 523.19942,605.70277 523.19942,607.26519 C 523.19942,608.8276 526.14592,634.77105 529.74721,664.91684 C 537.69023,731.40653 537.85411,733.15944 536.3152,735.155 C 533.49516,738.81244 514.12943,741.85602 507.5779,739.67148 L 507.57596,739.67138 z" id="path4024" style="fill:#c44232;stroke:#000000;stroke-width:1.5999999;stroke-linecap:round;stroke-linejoin:round;stroke-miterlimit:4;stroke-dasharray:none;stroke-opacity:1"/>
      <path d="M 480.25091,293.10135 C 479.95738,292.59013 478.60536,281.55189 477.24651,268.57272 C 475.88765,255.59354 474.48007,243.66249 474.11854,242.05859 C 473.55153,239.54381 472.63125,238.85271 467.41529,237.02439 C 447.8926,230.18141 435.74832,212.79378 435.66881,191.57061 C 435.56408,163.71739 457.50381,141.12994 482.81287,143.03488 C 513.44248,145.33994 532.10367,180.50644 518.89492,211.03081 C 515.66171,218.50237 507.32311,228.33033 500.93995,232.19257 C 498.48191,233.67987 496.29925,235.37801 496.08954,235.96621 C 495.87982,236.55446 496.93327,248.78428 498.43056,263.14383 C 499.92785,277.50339 500.96942,289.7667 500.74511,290.39597 C 500.52085,291.02503 497.88354,291.84602 494.88456,292.22046 C 491.88549,292.5949 487.48631,293.15535 485.10871,293.46593 C 482.73093,293.77649 480.54528,293.61232 480.25175,293.1011 L 480.25091,293.10135 z" id="path4099" style="fill:#694e2e;stroke:#000000;stroke-width:1.5999999;stroke-linecap:round;stroke-linejoin:round;stroke-miterlimit:4;stroke-dasharray:none;stroke-opacity:1"/>
      <path d="M 489.30402,409.75391 C 469.43892,382.2546 470.66219,383.70408 466.41947,382.63944 C 461.10617,381.30604 457.8709,379.66601 454.66059,376.67862 C 446.95984,369.51295 446.13904,361.40455 452.22836,352.6524 L 455.44869,348.0239 L 457.56581,314.96319 L 459.68293,281.90249 L 456.02771,278.43082 C 450.41913,273.1039 448.50883,268.75045 448.49289,261.25852 C 448.481,255.69036 448.83325,254.30373 451.4345,249.67758 C 456.95831,239.85448 467.44421,233.94532 479.55621,233.83019 C 488.40684,233.74598 494.29763,235.80648 500.34643,241.10208 C 506.27838,246.29541 508.56044,251.23512 508.49468,258.73809 C 508.4246,266.73315 504.52635,273.92383 497.21592,279.54278 C 494.75064,281.43768 493.95452,282.67172 493.90903,284.66883 C 493.87607,286.11548 492.91799,300.96181 491.77993,317.66092 L 489.71073,348.02295 L 491.8774,351.81717 C 494.84586,357.01555 495.83933,362.1789 494.74136,366.70246 C 494.08144,369.42115 494.13721,370.88058 494.95232,372.22282 C 495.97454,373.9059 500.25481,379.78809 519.33486,405.73066 C 523.21906,411.01177 526.39695,415.87316 526.39695,416.53403 C 526.39695,417.19485 525.07955,418.61371 523.46939,419.68702 C 519.91461,422.05661 505.64549,428.82482 504.1664,428.84296 C 503.58215,428.85005 496.89379,420.25957 489.30339,409.75194 L 489.30402,409.75391 z" id="path3903" style="fill:#5aa84b;fill-opacity:1;stroke:#000000;stroke-width:1.69054949;stroke-linecap:round;stroke-linejoin:round;stroke-miterlimit:4;stroke-dasharray:none;stroke-opacity:1"/>
      <path d="M 431.51581,450.78949 C 426.11234,450.41819 420.73506,449.79967 419.56641,449.41507 L 417.4416,448.71573 L 417.69509,363.04582 L 417.9486,277.37591 L 420.99485,270.98926 C 423.12789,266.51713 425.99084,262.70391 430.5452,258.26887 C 458.71999,230.83263 511.7854,237.80711 527.69548,271.03948 L 531.164,278.28431 L 531.19328,345.94477 C 531.20937,383.15745 530.99888,421.64603 530.72545,431.47367 L 530.22833,449.34209 L 512.00902,449.60516 C 501.75786,449.75317 493.38926,450.28124 492.87464,450.81248 C 491.83885,451.8817 447.16451,451.86528 431.51549,450.78998 L 431.51581,450.78949 z" id="path4020" style="fill:#5aa84b;stroke:#000000;stroke-width:1.56732619;stroke-linecap:round;stroke-linejoin:round;stroke-miterlimit:4;stroke-dasharray:none;stroke-opacity:1"/>
      <path d="M 404.86518,482.03717 C 404.24782,481.37265 403.74271,479.31961 403.74271,477.47477 C 403.74271,475.32809 403.2036,473.89787 402.24523,473.50209 C 400.99647,472.98629 400.85139,471.84201 401.37165,466.61268 L 401.99555,460.34178 L 399.59523,460.83568 C 397.64445,461.23707 397.1949,460.93972 397.1949,459.24809 C 397.1949,455.98633 399.03109,447.05727 401.01226,440.68398 C 402.20265,436.85486 402.97622,430.88561 403.27995,423.18409 C 403.81594,409.59578 405.18647,406.13225 411.17779,403.2245 C 422.62426,397.66886 435.93778,411.31144 430.37309,422.89412 C 428.60454,426.57543 429.01069,441.44515 431.21034,453.54334 C 432.01578,457.97343 432.68949,464.62562 432.70745,468.32576 C 432.73794,474.62052 432.56527,475.18737 430.02332,477.13561 C 425.60207,480.52423 424.68033,479.91167 422.2916,471.9973 C 418.65431,459.94644 415.7224,460.30588 412.14347,473.24226 C 411.12987,476.90565 409.52856,480.65502 408.58503,481.57406 C 406.53763,483.56841 406.31407,483.5962 404.86542,482.03692 L 404.86518,482.03717 z" id="path4028" style="fill:#6d5231;stroke:#000000;stroke-width:1.5999999;stroke-linecap:round;stroke-linejoin:round;stroke-miterlimit:4;stroke-dasharray:none;stroke-opacity:1"/>
      <path d="M 408.35422,418.8781 L 405.61996,415.93501 L 405.61996,376.80719 L 403.15125,373.93992 C 393.2192,362.40455 396.26121,347.14287 410.09715,339.09319 C 412.12958,337.91075 417.75263,329.74377 429.16056,311.40509 L 445.34107,285.39439 L 445.35772,275.32599 C 445.37203,266.62166 445.6878,264.5971 447.68808,260.38146 C 455.37555,244.18141 475.53488,240.46315 487.81572,252.98049 C 494.97301,260.27544 497.61214,274.05667 493.64989,283.44645 C 490.01072,292.07074 480.5618,299.95662 473.83348,299.9838 C 472.5084,299.98883 470.55828,301.01309 469.49997,302.25906 C 468.44166,303.50502 460.37058,315.91785 451.56465,329.84446 C 440.10976,347.95851 435.55157,355.98101 435.54783,358.03597 C 435.53847,363.10471 433.70846,368.23526 430.37919,372.5244 L 427.13439,376.7047 L 427.13439,396.16087 C 427.13439,406.86157 426.87292,416.35003 426.55334,417.24611 C 425.6203,419.86329 421.05329,421.822 415.88419,421.822 C 411.83121,421.822 410.66551,421.36635 408.35452,418.87891 L 408.35422,418.8781 z" id="path4022" style="fill:#5aa84b;stroke:#000000;stroke-width:1.5999999;stroke-linecap:round;stroke-linejoin:round;stroke-miterlimit:4;stroke-dasharray:none;stroke-opacity:1"/>
      <path transform="translate(53.105081,138.90501)" id="path3895" d="M 74.961625,576.27274 L 80.543874,465.42523 L 70.974304,364.14729" style="fill:none;fill-rule:evenodd;stroke:#000000;stroke-width:1.60000002;stroke-linecap:butt;stroke-linejoin:miter;stroke-miterlimit:4;stroke-dasharray:none;stroke-opacity:1"/>
      <path id="path3897" d="M 463.39402,505.83709 L 492.10272,634.22881" style="fill:none;fill-rule:evenodd;stroke:#000000;stroke-width:1.60000002;stroke-linecap:butt;stroke-linejoin:miter;stroke-miterlimit:4;stroke-dasharray:none;stroke-opacity:1"/>
      <path id="path3899" d="M 506.45708,735.50675 L 504.06469,741.089" style="fill:none;fill-rule:evenodd;stroke:#000000;stroke-width:1.60000002;stroke-linecap:butt;stroke-linejoin:miter;stroke-miterlimit:4;stroke-dasharray:none;stroke-opacity:1"/>
      <path transform="translate(53.105081,138.90501)" id="path3901" d="M 74.164161,586.63978 L 127.59426,608.96877" style="fill:none;fill-rule:evenodd;stroke:#000000;stroke-width:1.60000002;stroke-linecap:butt;stroke-linejoin:miter;stroke-miterlimit:4;stroke-dasharray:none;stroke-opacity:1"/>
    </g>
  </g>
</svg>
