<?xml version="1.0" encoding="UTF-8" standalone="no"?>
<!-- Generator: Adobe Illustrator 12.0.0, SVG Export Plug-In . SVG Version: 6.00 Build 51448)  -->

<svg
   xmlns:dc="http://purl.org/dc/elements/1.1/"
   xmlns:cc="http://creativecommons.org/ns#"
   xmlns:rdf="http://www.w3.org/1999/02/22-rdf-syntax-ns#"
   xmlns:svg="http://www.w3.org/2000/svg"
   xmlns="http://www.w3.org/2000/svg"
   xmlns:sodipodi="http://sodipodi.sourceforge.net/DTD/sodipodi-0.dtd"
   xmlns:inkscape="http://www.inkscape.org/namespaces/inkscape"
   id="Layer_1"
   space="preserve"
   sodipodi:docname="soquili-Architetto----Cavallo-17.svg"
   viewBox="0 0 262.684 417.2"
   sodipodi:version="0.32"
   version="1.0"
   inkscape:output_extension="org.inkscape.output.svg.inkscape"
   inkscape:version="0.92.1 r15371"
   width="280.19626"
   height="445.01334">
  <defs
     id="defs194" />
  <sodipodi:namedview
     id="base"
     bordercolor="#666666"
     inkscape:pageshadow="2"
     inkscape:window-width="787"
     pagecolor="#ffffff"
     inkscape:zoom="0.86289547"
     inkscape:window-x="66"
     borderopacity="1.0"
     inkscape:current-layer="Layer_1"
     inkscape:cx="131.342"
     inkscape:cy="208.60001"
     inkscape:window-y="87"
     inkscape:window-height="510"
     inkscape:pageopacity="0.0"
     showgrid="false" />
  <path
     id="path3"
     style="fill:#875c2a;fill-rule:evenodd"
     d="m 113.85,85.233 c 19.5,19.477 19.6,46.797 34.77,67.697 8.66,11.92 22.9,13.66 35.67,20.04 10.25,5.12 24.33,10.46 27.64,22.71 -3.96,-0.91 -8.13,-6.23 -12.93,-6.23 -7.11,0 -11.85,0.24 -19.17,1.78 -12.26,2.58 -26.16,-0.65 -35.66,-8.02 12.9,9.74 27.65,12.93 41.9,20.05 13.8,6.89 29.08,21 34.78,34.29 -6.98,-5.49 -17.16,-8.02 -25.86,-8.02 -6.98,0 -21.57,-5.47 -24.07,-11.58 h -0.9 c 0.62,7.66 15.83,16.81 22.29,20.04 11.57,5.78 20.82,14.11 29.87,23.16 8.18,8.17 15.54,22.13 20.07,31.63 5.2,10.9 9.53,22.16 13.37,32.95 -10.28,-6.84 -23.16,-14.25 -35.66,-14.25 -14.04,0 -27.87,-2.48 -41.02,-6.23 3.79,5.17 11.69,8.67 17.83,10.68 3.69,1.21 8.64,1.86 12.48,2.68 3.73,0.79 9.28,2.67 12.93,2.67 6.99,0 18.61,7.79 21.4,13.36 2.08,4.14 6.06,8.27 9.36,11.58 2.65,2.64 4.08,7.81 6.24,9.8 -5.57,-2.71 -9.81,-5.35 -16.94,-5.35 -7.83,0 -14.96,1.95 -22.29,2.68 -14.67,1.45 -30.5,-1.35 -43.69,-6.24 -12.37,-4.58 -16.54,-10.88 -21.4,-21.38 -5.72,-12.37 -10.43,-26.82 -15.15,-40.08 -11.26,-31.57 -22,-63.24 -32.55,-94.86 -2.37,-7.12 -4.81,-13.91 -7.577,-20.94 -1.808,-4.59 -6.241,-13.48 -6.241,-18.26 0,-5.44 -5.083,-19.27 -8.025,-22.71 9.512,-14.55 19.023,-29.099 28.533,-43.647"
     inkscape:connector-curvature="0" />
  <path
     id="path5"
     style="fill:none;stroke:#000000;stroke-width:1.22490001;stroke-linecap:square;stroke-miterlimit:10"
     d="m 113.85,85.233 c 24.09,24.057 20.23,64.057 50.82,80.167"
     inkscape:connector-curvature="0" />
  <path
     id="path7"
     style="fill:none;stroke:#000000;stroke-width:1.22490001;stroke-linecap:square;stroke-miterlimit:10"
     d="m 164.67,165.4 c 14.99,7.66 42.07,11.11 47.26,30.28 -10.77,-2.47 -18.69,-11.03 -32.1,-4.45"
     inkscape:connector-curvature="0" />
  <path
     id="path9"
     style="fill:none;stroke:#000000;stroke-width:1.22490001;stroke-linecap:square;stroke-miterlimit:10"
     d="m 179.83,191.23 c -10.56,4.8 -27.64,-1.8 -35.66,-8.02 7.73,5.84 16.24,9.45 24.96,13.81 7.91,3.95 17.59,4.15 24.97,10.24"
     inkscape:connector-curvature="0" />
  <path
     id="path11"
     style="fill:none;stroke:#000000;stroke-width:1.22490001;stroke-linecap:square;stroke-miterlimit:10"
     d="m 194.1,207.26 c 10.44,6.2 22.58,20.56 26.75,30.29 -6.98,-5.5 -17.16,-8.02 -25.86,-8.02 -6.98,0 -21.57,-5.47 -24.07,-11.58 h -0.9 c -0.15,1.07 0.51,0.97 0.9,1.78"
     inkscape:connector-curvature="0" />
  <path
     id="path13"
     style="fill:none;stroke:#000000;stroke-width:1.22490001;stroke-linecap:square;stroke-miterlimit:10"
     d="m 170.92,219.73 c 0.74,4.51 10.74,11.9 14.26,14.26 5.66,3.77 19.79,8.35 22.74,14.25 2.38,4.75 17.39,9.47 17.39,16.48 0,1.57 5.38,9.38 6.68,10.69 3.09,3.08 5.33,9.14 7.58,12.02"
     inkscape:connector-curvature="0" />
  <path
     id="path15"
     style="fill:none;stroke:#000000;stroke-width:1.22490001;stroke-linecap:square;stroke-miterlimit:10"
     d="m 239.57,287.43 c 1.12,6.37 6.02,13.6 8.92,19.6 3.03,6.27 4.9,12.44 7.13,18.7 -8.08,-5.38 -17.57,-11.06 -26.75,-13.36 -9.31,-2.33 -20.83,-1.49 -30.31,-2.67"
     inkscape:connector-curvature="0" />
  <path
     id="path17"
     style="fill:none;stroke:#000000;stroke-width:1.22490001;stroke-linecap:square;stroke-miterlimit:10"
     d="m 198.56,309.7 c -6.45,-0.39 -13.53,-2.71 -19.62,-4.45 6.79,9.24 21.43,11.07 32.1,13.36 14.01,3 26.42,6.47 34.77,18.7"
     inkscape:connector-curvature="0" />
  <path
     id="path19"
     style="fill:none;stroke:#000000;stroke-width:1.22490001;stroke-linecap:square;stroke-miterlimit:10"
     d="m 245.81,337.31 c 3.63,5.44 9.23,14.9 13.38,18.71 -9.43,-4.59 -20.71,-7.96 -32.55,-4.01 -10.39,3.46 -25.07,1.55 -35.22,-1.34"
     inkscape:connector-curvature="0" />
  <path
     id="path21"
     style="fill:none;stroke:#000000;stroke-width:1.22490001;stroke-linecap:square;stroke-miterlimit:10"
     d="m 191.42,350.67 c -6.38,1.08 -16.67,-3.87 -22.29,-6.68 -6.23,-3.11 -7.26,-7.69 -11.14,-11.58 -3.06,-3.05 -5.04,-11.15 -6.69,-15.59 -2.95,-7.93 -6.19,-15.87 -8.92,-24.05"
     inkscape:connector-curvature="0" />
  <path
     id="path23"
     style="fill:none;stroke:#000000;stroke-width:1.22490001;stroke-linecap:square;stroke-miterlimit:10"
     d="m 142.38,292.77 c -1.5,-9.59 -7.07,-20.31 -10.25,-29.84 -3.83,-11.45 -8.75,-22.65 -12.48,-33.84 -7,-20.96 -14.98,-41.84 -20.958,-62.8"
     inkscape:connector-curvature="0" />
  <path
     id="path25"
     style="fill:none;stroke:#000000;stroke-width:1.22490001;stroke-linecap:square;stroke-miterlimit:10"
     d="M 98.692,166.29 C 91.405,155.97 92.741,137.56 85.317,128.88 94.828,114.33 104.34,99.781 113.85,85.233"
     inkscape:connector-curvature="0" />
  <path
     id="path27"
     style="fill:none;stroke:#000000;stroke-width:1.22490001;stroke-linecap:square;stroke-miterlimit:10"
     d="m 113.85,85.233 c 19.5,19.477 19.6,46.797 34.77,67.697 8.66,11.92 22.9,13.66 35.67,20.04 10.25,5.12 24.33,10.46 27.64,22.71 -3.96,-0.91 -8.13,-6.23 -12.93,-6.23 -7.11,0 -11.85,0.24 -19.17,1.78 -12.26,2.58 -26.16,-0.65 -35.66,-8.02 12.9,9.74 27.65,12.93 41.9,20.05 13.8,6.89 29.08,21 34.78,34.29 -6.98,-5.49 -17.16,-8.02 -25.86,-8.02 -6.98,0 -21.57,-5.47 -24.07,-11.58 h -0.9 c 0.62,7.66 15.83,16.81 22.29,20.04 11.57,5.78 20.82,14.11 29.87,23.16 8.18,8.17 15.54,22.13 20.07,31.63 5.2,10.9 9.53,22.16 13.37,32.95 -10.28,-6.84 -23.16,-14.25 -35.66,-14.25 -14.04,0 -27.87,-2.48 -41.02,-6.23 3.79,5.17 11.69,8.67 17.83,10.68 3.69,1.21 8.64,1.86 12.48,2.68 3.73,0.79 9.28,2.67 12.93,2.67 6.99,0 18.61,7.79 21.4,13.36 2.08,4.14 6.06,8.27 9.36,11.58 2.65,2.64 4.08,7.81 6.24,9.8 -5.57,-2.71 -9.81,-5.35 -16.94,-5.35 -7.83,0 -14.96,1.95 -22.29,2.68 -14.67,1.45 -30.5,-1.35 -43.69,-6.24 -12.37,-4.58 -16.54,-10.88 -21.4,-21.38 -5.72,-12.37 -10.43,-26.82 -15.15,-40.08 -11.26,-31.57 -22,-63.24 -32.55,-94.86 -2.37,-7.12 -4.81,-13.91 -7.577,-20.94 -1.808,-4.59 -6.241,-13.48 -6.241,-18.26 0,-5.44 -5.083,-19.27 -8.025,-22.71 9.512,-14.55 19.023,-29.099 28.533,-43.647"
     inkscape:connector-curvature="0" />
  <path
     id="path29"
     style="fill:#4a3217;fill-rule:evenodd"
     d="m 107.61,87.904 c 11.86,-1.891 16.84,27.136 18.49,35.366 2.02,10.08 5.82,19.73 7.37,29.66 1.22,7.87 3.56,15.43 3.56,23.16 0,5.89 2.05,11.86 2.68,17.81 0.3,2.84 -0.62,10.07 1.34,12.03 2.09,2.09 3.19,13.3 4.01,16.48 0.9,3.49 1.93,7.23 2.67,10.68 0.8,3.71 3.57,9.74 3.57,13.37 0,8.49 5.02,18.84 8.02,26.72 2.8,7.36 3.96,15.04 7.58,22.27 1.17,2.33 1.74,5.74 3.57,7.57 0.77,0.76 3.74,3.63 4.01,4.01 1.75,2.45 3.57,7.95 3.57,11.13 0,4.88 1.78,10.85 1.78,16.48 0,4.42 0.78,16.15 -2.23,19.15 -0.55,0.55 -2.23,8.99 -2.23,9.8 0,2.99 -2.36,7.65 -3.57,10.24 -3,6.49 -6.03,14.94 -11.14,20.04 -5.74,5.73 -9.5,11.79 -16.49,16.48 -3.5,2.34 -6.12,6.17 -10.7,6.24 -2.59,0.03 -5.42,-2.68 -8.48,-2.68 -4.88,0 -10.42,-2.63 -15.6,-3.56 -3.88,-0.69 -12.234,0.25 -14.712,-2.23 -1.715,-1.71 -9.521,-1.28 -12.038,-2.23 -2.044,-0.76 -6.628,-2.16 -8.47,-4.01 -3.851,-3.84 -11.146,-13 -11.146,-20.48 0,-5.05 -2.8,-11.12 -3.567,-16.48 -1.147,-8.02 -3.566,-15.82 -3.566,-24.05 0,-20.15 -3.567,-40.12 -3.567,-60.57 0,-36.85 4.34,-72.52 11.592,-107.78 3.321,-16.15 7.342,-32.37 12.483,-47.21 1.754,-5.06 2.943,-9.71 4.458,-14.25 3.235,-9.69 17.325,-16.429 26.753,-23.156"
     inkscape:connector-curvature="0" />
  <path
     id="path31"
     style="fill:none;stroke:#000000;stroke-width:1.22490001;stroke-linecap:square;stroke-miterlimit:10"
     d="m 107.61,87.904 c 12.65,-2.018 17.48,30.646 19.61,39.196 4.69,18.72 6.69,37.04 10.7,55.22"
     inkscape:connector-curvature="0" />
  <path
     id="path33"
     style="fill:none;stroke:#000000;stroke-width:1.22490001;stroke-linecap:square;stroke-miterlimit:10"
     d="m 137.92,182.32 c 1.55,5.72 1.37,10.91 1.79,16.93 0.33,4.77 2.67,9.27 2.67,14.25 0,3.63 1.97,7.67 3.12,11.13 1.39,4.17 0.77,9.98 2.68,13.81 4.75,9.49 6.37,21.04 9.36,31.18"
     inkscape:connector-curvature="0" />
  <path
     id="path35"
     style="fill:none;stroke:#000000;stroke-width:1.22490001;stroke-linecap:square;stroke-miterlimit:10"
     d="m 157.54,269.62 c 4.31,7.64 4.6,16.31 8.47,24.05 1.53,3.05 2.35,6.13 4.01,8.9 1.25,2.09 3.63,3.29 4.46,4.46 5.44,7.6 5.35,20.34 5.35,30.28"
     inkscape:connector-curvature="0" />
  <path
     id="path37"
     style="fill:none;stroke:#000000;stroke-width:1.22490001;stroke-linecap:square;stroke-miterlimit:10"
     d="m 179.83,337.31 c 1.35,14.47 -5.14,34.46 -12.48,46.32 -4.9,7.92 -9.61,14.96 -16.5,21.82 -1.86,1.86 -8.93,8.46 -11.14,8.46 -2.13,0 -3.57,2.61 -6.24,2.68 -1.2,0.03 -3.83,-1.53 -5.35,-1.78"
     inkscape:connector-curvature="0" />
  <path
     id="path39"
     style="fill:none;stroke:#000000;stroke-width:1.22490001;stroke-linecap:square;stroke-miterlimit:10"
     d="M 128.12,414.81 C 109.5,409.49 88.674,409.15 73.727,401.45"
     inkscape:connector-curvature="0" />
  <path
     id="path41"
     style="fill:none;stroke:#000000;stroke-width:1.22490001;stroke-linecap:square;stroke-miterlimit:10"
     d="m 73.727,401.44 c -4.839,-4.31 -11.591,-15.83 -11.591,-24.49 0,-6.8 -4.458,-14.68 -4.458,-21.82 0,-10.4 -3.545,-21.44 -3.567,-32.07"
     inkscape:connector-curvature="0" />
  <path
     id="path43"
     style="fill:none;stroke:#000000;stroke-width:1.22490001;stroke-linecap:square;stroke-miterlimit:10"
     d="m 54.11,323.06 c 0,-44.94 -5.232,-92.16 7.133,-135.39"
     inkscape:connector-curvature="0" />
  <path
     id="path45"
     style="fill:none;stroke:#000000;stroke-width:1.22490001;stroke-linecap:square;stroke-miterlimit:10"
     d="m 61.244,187.67 c 3.919,-27.41 11.583,-55.19 20.507,-78.39"
     inkscape:connector-curvature="0" />
  <path
     id="path47"
     style="fill:none;stroke:#000000;stroke-width:1.22490001;stroke-linecap:square;stroke-miterlimit:10"
     d="m 81.751,109.28 c 1.24,-7.99 18.559,-16.165 25.859,-21.376"
     inkscape:connector-curvature="0" />
  <path
     id="path49"
     style="fill:none;stroke:#000000;stroke-width:1.22490001;stroke-linecap:square;stroke-miterlimit:10"
     d="m 107.61,87.904 c 11.86,-1.891 16.84,27.136 18.49,35.366 2.02,10.08 5.82,19.73 7.37,29.66 1.22,7.87 3.56,15.43 3.56,23.16 0,5.89 2.05,11.86 2.68,17.81 0.3,2.84 -0.62,10.07 1.34,12.03 2.09,2.09 3.19,13.3 4.01,16.48 0.9,3.49 1.93,7.23 2.67,10.68 0.8,3.71 3.57,9.74 3.57,13.37 0,8.49 5.02,18.84 8.02,26.72 2.8,7.36 3.96,15.04 7.58,22.27 1.17,2.33 1.74,5.74 3.57,7.57 0.77,0.76 3.74,3.63 4.01,4.01 1.75,2.45 3.57,7.95 3.57,11.13 0,4.88 1.78,10.85 1.78,16.48 0,4.42 0.78,16.15 -2.23,19.15 -0.55,0.55 -2.23,8.99 -2.23,9.8 0,2.99 -2.36,7.65 -3.57,10.24 -3,6.49 -6.03,14.94 -11.14,20.04 -5.74,5.73 -9.5,11.79 -16.49,16.48 -3.5,2.34 -6.12,6.17 -10.7,6.24 -2.59,0.03 -5.42,-2.68 -8.48,-2.68 -4.88,0 -10.42,-2.63 -15.6,-3.56 -3.88,-0.69 -12.234,0.25 -14.712,-2.23 -1.715,-1.71 -9.521,-1.28 -12.038,-2.23 -2.044,-0.76 -6.628,-2.16 -8.47,-4.01 -3.851,-3.84 -11.146,-13 -11.146,-20.48 0,-5.05 -2.8,-11.12 -3.567,-16.48 -1.147,-8.02 -3.566,-15.82 -3.566,-24.05 0,-20.15 -3.567,-40.12 -3.567,-60.57 0,-36.85 4.34,-72.52 11.592,-107.78 3.321,-16.15 7.342,-32.37 12.483,-47.21 1.754,-5.06 2.943,-9.71 4.458,-14.25 3.235,-9.69 17.325,-16.429 26.753,-23.156"
     inkscape:connector-curvature="0" />
  <path
     id="path51"
     style="fill:#5a3d1c;fill-rule:evenodd"
     d="m 87.994,70.089 c 2.648,-2.873 7.704,-2.8 9.808,-5.344 1.201,-1.453 1.782,-7.702 1.782,-9.798 0,-2.779 2.746,-8.162 4.016,-10.69 2.64,-5.273 2.98,-10.304 4.01,-16.033 2.89,-16.085 14.43,11.225 16.05,16.924 1.58,5.558 6.24,15.141 3.12,21.377 -1.57,3.145 -0.87,7.546 -3.57,10.243 -2.25,2.249 -5.69,2.607 -7.58,5.791 -3.76,6.358 -0.89,13.881 -0.89,20.491 0,8.1 6.94,13.49 9.81,20.48 2.48,6.05 1.79,18.18 1.79,24.5 0,2.93 2.67,5.72 2.67,8.46 0,4.6 -0.62,8.9 -0.89,13.36 -0.93,15.31 0,28.67 0,43.65 0,17.09 0.15,34.06 -16.94,40.97 -5.48,2.22 -15.161,2.64 -15.161,10.24 v 11.14 c 0,4.35 -5.348,5.02 -8.024,7.12 -6.045,4.75 -5.352,8.63 -5.352,16.04 0,8.12 -7.759,11.28 -14.266,13.36 -10.497,3.35 -28.994,5.93 -35.666,-4.45 -2.526,-3.94 -6.241,-14.48 -6.241,-19.15 0,-6.45 -1.187,-11.03 -4.458,-18.27 -6.326,-13.99 8.468,-27.08 6.242,-40.97 -0.703,-4.38 -5.351,-7.1 -5.351,-11.13 0,-5.76 -0.892,-12.02 -0.892,-18.26 0,-10.73 -1.803,-18.87 -4.458,-28.51 -1.14,-4.14 -3.516,-10.79 -1.337,-15.14 0.274,-0.55 -4.356,-13.16 -5.35,-15.14 -0.9396,-1.88 -0.419,-12.23 0.446,-14.25 2.137,-5.02 8.956,-8.95 11.591,-14.26 -0.352,0.59 -0.374,1.09 -0.892,1.79 -0.322,-4.71 3.059,-8.78 5.35,-12.47 1.021,-1.65 6.241,-7.713 6.241,-10.249 0,-6.498 -5.665,-7.491 -8.024,-12.025 C 19.37,67.955 17.951,48.821 23.795,36.24 c 1.944,-4.186 4.724,-7.704 7.133,-11.58 0.08,-0.128 5.349,-7.784 5.349,-4.899 0,6.216 1.187,10.545 2.675,16.479 1.153,4.597 2.7,8.072 4.459,11.579 1.59,3.17 3.566,6.515 3.566,10.244 0,3.15 0.959,8.325 -0.446,11.134 -2.931,5.855 9.87,5.51 12.151,5.176 9.771,-1.427 19.541,-2.855 29.312,-4.284"
     inkscape:connector-curvature="0" />
  <path
     id="path53"
     style="fill:none;stroke:#000000;stroke-width:1.22490001;stroke-linecap:square;stroke-miterlimit:10"
     d="m 87.994,70.089 c 2.022,-2.195 9.808,-3.803 9.808,-6.235 0,-2.271 1.107,-8.449 2.228,-10.688 1.89,-3.778 3.4,-7.611 4.91,-11.58 1.78,-4.713 0.76,-11.632 2.67,-16.034 2.75,-6.333 10.7,1.149 10.7,5.79 0,7.125 8.61,12.258 7.13,20.042"
     inkscape:connector-curvature="0" />
  <path
     id="path55"
     style="fill:none;stroke:#000000;stroke-width:1.22490001;stroke-linecap:square;stroke-miterlimit:10"
     d="m 125.44,51.384 c 3.23,8.322 1.29,15.746 -1.34,23.605 -1.13,3.407 -6.37,3.381 -8.02,6.68 -2.12,4.237 -2.23,7.338 -2.23,12.025 0,7.916 1.63,15.066 5.35,21.826 5.17,9.4 6.24,13.92 6.24,24.94"
     inkscape:connector-curvature="0" />
  <path
     id="path57"
     style="fill:none;stroke:#000000;stroke-width:1.22490001;stroke-linecap:square;stroke-miterlimit:10"
     d="m 125.44,140.46 c -1.11,7.43 3.57,13.93 3.57,21.38 0,4.73 1.67,26.83 -1.34,29.84 -2.31,2.3 0.45,13.35 0.45,16.47 0,8.41 1.43,18.92 -1.79,26.73"
     inkscape:connector-curvature="0" />
  <path
     id="path59"
     style="fill:none;stroke:#000000;stroke-width:1.22490001;stroke-linecap:square;stroke-miterlimit:10"
     d="m 126.33,234.88 c -2.34,8.59 -2.49,12.46 -10.7,16.92 -4.2,2.28 -19.613,5.26 -19.613,11.58 0,9.25 1.247,14.97 -7.133,19.15 -7.534,3.76 -6.243,9.98 -6.243,17.37"
     inkscape:connector-curvature="0" />
  <path
     id="path61"
     style="fill:none;stroke:#000000;stroke-width:1.22490001;stroke-linecap:square;stroke-miterlimit:10"
     d="m 82.642,299.9 c 1.532,12.36 -30.703,18.96 -39.231,14.7 -7.195,-3.6 -10.089,-4.25 -12.483,-12.03 -2.044,-6.64 -5.48,-12.97 -3.566,-18.7"
     inkscape:connector-curvature="0" />
  <path
     id="path63"
     style="fill:none;stroke:#000000;stroke-width:1.22490001;stroke-linecap:square;stroke-miterlimit:10"
     d="m 27.362,283.87 c -1.08,-5.85 -9.503,-15.17 -7.579,-20.94 2.351,-7.04 2.715,-19.63 8.024,-24.94 5.669,-5.66 -3.225,-15.19 -4.904,-20.04 -3,-8.66 0.086,-20.18 -1.783,-29.39"
     inkscape:connector-curvature="0" />
  <path
     id="path65"
     style="fill:none;stroke:#000000;stroke-width:1.22490001;stroke-linecap:square;stroke-miterlimit:10"
     d="m 21.12,188.56 c 0,-5.72 -0.601,-11 -3.121,-16.03 -2.354,-4.71 0.007,-18.93 -4.012,-20.94 -3.308,-1.65 -3.688,-14.96 -3.567,-18.26 0.347,-9.33 8.538,-12.54 12.483,-20.49 -0.352,0.6 -0.374,1.09 -0.892,1.79 -0.227,-3.32 1.723,-5.8 2.675,-8.91"
     inkscape:connector-curvature="0" />
  <path
     id="path67"
     style="fill:none;stroke:#000000;stroke-width:1.22490001;stroke-linecap:square;stroke-miterlimit:10"
     d="m 24.687,105.72 c 3.315,-3.54 4.008,-7.568 7.579,-11.135 2.859,-2.856 1.752,-7.363 -1.337,-8.907 C 25.942,83.188 24.488,77.194 22.904,71.871 17.93,55.16 20.606,34.633 32.711,21.99"
     inkscape:connector-curvature="0" />
  <path
     id="path69"
     style="fill:none;stroke:#000000;stroke-width:1.22490001;stroke-linecap:square;stroke-miterlimit:10"
     d="m 32.711,21.99 c 3.861,-7.868 3.248,2.629 3.566,5.344 0.852,7.239 3.515,17.762 8.471,22.714 5.288,5.283 -0.24,16.849 3.121,21.823 5.683,8.413 31.037,-0.453 40.125,-1.782"
     inkscape:connector-curvature="0" />
  <path
     id="path71"
     style="fill:none;stroke:#000000;stroke-width:1.22490001;stroke-linecap:square;stroke-miterlimit:10"
     d="m 87.994,70.089 c 2.648,-2.873 7.704,-2.8 9.808,-5.344 1.201,-1.453 1.782,-7.702 1.782,-9.798 0,-2.779 2.746,-8.162 4.016,-10.69 2.64,-5.273 2.98,-10.304 4.01,-16.033 2.89,-16.085 14.43,11.225 16.05,16.924 1.58,5.558 6.24,15.141 3.12,21.377 -1.57,3.145 -0.87,7.546 -3.57,10.243 -2.25,2.249 -5.69,2.607 -7.58,5.791 -3.76,6.358 -0.89,13.881 -0.89,20.491 0,8.1 6.94,13.49 9.81,20.48 2.48,6.05 1.79,18.18 1.79,24.5 0,2.93 2.67,5.72 2.67,8.46 0,4.6 -0.62,8.9 -0.89,13.36 -0.93,15.31 0,28.67 0,43.65 0,17.09 0.15,34.06 -16.94,40.97 -5.48,2.22 -15.161,2.64 -15.161,10.24 v 11.14 c 0,4.35 -5.348,5.02 -8.024,7.12 -6.045,4.75 -5.352,8.63 -5.352,16.04 0,8.12 -7.759,11.28 -14.266,13.36 -10.497,3.35 -28.994,5.93 -35.666,-4.45 -2.526,-3.94 -6.241,-14.48 -6.241,-19.15 0,-6.45 -1.187,-11.03 -4.458,-18.27 -6.326,-13.99 8.468,-27.08 6.242,-40.97 -0.703,-4.38 -5.351,-7.1 -5.351,-11.13 0,-5.76 -0.892,-12.02 -0.892,-18.26 0,-10.73 -1.803,-18.87 -4.458,-28.51 -1.14,-4.14 -3.516,-10.79 -1.337,-15.14 0.274,-0.55 -4.356,-13.16 -5.35,-15.14 -0.9396,-1.88 -0.419,-12.23 0.446,-14.25 2.137,-5.02 8.956,-8.95 11.591,-14.26 -0.352,0.59 -0.374,1.09 -0.892,1.79 -0.322,-4.71 3.059,-8.78 5.35,-12.47 1.021,-1.65 6.241,-7.713 6.241,-10.249 0,-6.498 -5.665,-7.491 -8.024,-12.025 C 19.37,67.955 17.951,48.821 23.795,36.24 c 1.944,-4.186 4.724,-7.704 7.133,-11.58 0.08,-0.128 5.349,-7.784 5.349,-4.899 0,6.216 1.187,10.545 2.675,16.479 1.153,4.597 2.7,8.072 4.459,11.579 1.59,3.17 3.566,6.515 3.566,10.244 0,3.15 0.959,8.325 -0.446,11.134 -2.931,5.855 9.87,5.51 12.151,5.176 9.771,-1.427 19.541,-2.855 29.312,-4.284"
     inkscape:connector-curvature="0" />
  <path
     id="path73"
     style="fill:#805628;fill-rule:evenodd"
     d="M 64.811,64.746 C 51.789,57.91 46.674,43.682 54.111,30.007 62.264,15.015 77.479,9.23 93.343,7.738 86.552,13.261 77.555,15.493 71.052,21.99 c -3.075,3.071 -5.927,8.831 -8.025,9.798 4.475,-5.186 12.547,-12.47 20.953,-12.47 4.385,0 14.724,-0.653 17.39,-2.673 -8.91,2.098 -22.423,9.809 -25.86,18.706 3.202,-11.48 18.87,-6.565 26.75,-7.126 v 0.891 C 94.097,24.342 82.656,40.262 81.751,46.93 c -0.985,7.272 0.862,24.215 11.592,20.487 -5.275,8.995 5.377,30.228 12.487,36.523 -5.76,2.3 -13.085,-0.1 -16.946,-4.456 0.533,8.216 10.069,14.716 16.046,16.926 -6.634,-0.83 -22.644,-4.13 -25.854,-10.69 -0.562,6.67 2.365,9.36 6.241,14.25 2.141,2.7 4.535,7.74 8.025,8.91 -12.977,0 -26.781,0.82 -34.774,-10.69 -0.309,3.96 1.229,7.59 0.891,11.58 -11.63,-3.6 -22.291,-17.02 -22.291,-28.5 10e-4,-12.854 12.62,-37.536 27.643,-36.524"
     inkscape:connector-curvature="0" />
  <path
     id="path75"
     style="fill:none;stroke:#000000;stroke-width:1.22490001;stroke-linecap:square;stroke-miterlimit:10"
     d="M 64.811,64.746 C 51.789,57.91 46.674,43.682 54.111,30.007 62.264,15.015 77.479,9.23 93.343,7.738 92.451,8.3324 91.56,8.9264 90.668,9.5194"
     inkscape:connector-curvature="0" />
  <path
     id="path77"
     style="fill:none;stroke:#000000;stroke-width:1.22490001;stroke-linecap:square;stroke-miterlimit:10"
     d="m 90.667,9.5204 c -6.88,0.8846 -15.66,8.5176 -20.507,13.361 -2.913,2.909 -5.043,7.944 -7.134,8.907 4.475,-5.186 12.547,-12.47 20.953,-12.47 4.385,0 14.724,-0.653 17.391,-2.673 -5.743,1.353 -11.836,3.988 -16.053,8.017"
     inkscape:connector-curvature="0" />
  <path
     id="path79"
     style="fill:none;stroke:#000000;stroke-width:1.22490001;stroke-linecap:square;stroke-miterlimit:10"
     d="m 85.317,24.662 c -3.456,3.453 -8.167,6.444 -9.808,10.689 3.202,-11.48 18.87,-6.565 26.751,-7.126 v 0.891 C 95.383,25.095 86.9,37.333 83.088,41.141 79.283,44.94 80.856,59.295 84.425,62.964"
     inkscape:connector-curvature="0" />
  <path
     id="path81"
     style="fill:none;stroke:#000000;stroke-width:1.22490001;stroke-linecap:square;stroke-miterlimit:10"
     d="m 84.426,62.964 c 1.101,4.707 4.065,6.139 8.917,4.453 -5.275,8.995 5.377,30.228 12.487,36.523 -5.76,2.3 -13.085,-0.1 -16.946,-4.456 0.308,4.736 3.688,8.506 7.133,11.576"
     inkscape:connector-curvature="0" />
  <path
     id="path83"
     style="fill:none;stroke:#000000;stroke-width:1.22490001;stroke-linecap:square;stroke-miterlimit:10"
     d="m 96.018,111.06 c 2.716,2.86 5.902,4.24 8.922,5.35 -6.643,-0.83 -22.653,-4.13 -25.863,-10.69 -0.562,6.67 2.365,9.36 6.241,14.25 2.141,2.7 4.535,7.74 8.025,8.91 -8.335,0 -16.569,1.07 -24.075,-2.67"
     inkscape:connector-curvature="0" />
  <path
     id="path85"
     style="fill:none;stroke:#000000;stroke-width:1.22490001;stroke-linecap:square;stroke-miterlimit:10"
     d="m 69.268,126.21 c -4.577,-1.03 -8.221,-4.45 -10.699,-8.02 -0.309,3.96 1.229,7.59 0.891,11.58 -6.674,-2.07 -20.508,-12.78 -20.508,-20.49 0,-3.86 -2.38,-8.84 -0.891,-14.249 1.978,-7.18 6.598,-14.55 10.7,-21.377"
     inkscape:connector-curvature="0" />
  <path
     id="path87"
     style="fill:none;stroke:#000000;stroke-width:1.22490001;stroke-linecap:square;stroke-miterlimit:10"
     d="m 48.761,73.653 c 3.847,-5.445 9.118,-9.374 16.05,-8.907"
     inkscape:connector-curvature="0" />
  <path
     id="path89"
     style="fill:none;stroke:#000000;stroke-width:1.22490001;stroke-linecap:square;stroke-miterlimit:10"
     d="M 64.811,64.746 C 51.789,57.91 46.674,43.682 54.111,30.007 62.264,15.015 77.479,9.23 93.343,7.738 86.552,13.261 77.555,15.493 71.052,21.99 c -3.075,3.071 -5.927,8.831 -8.025,9.798 4.475,-5.186 12.547,-12.47 20.953,-12.47 4.385,0 14.724,-0.653 17.39,-2.673 -8.91,2.098 -22.423,9.809 -25.86,18.706 3.202,-11.48 18.87,-6.565 26.75,-7.126 v 0.891 C 94.097,24.342 82.656,40.262 81.751,46.93 c -0.985,7.272 0.862,24.215 11.592,20.487 -5.275,8.995 5.377,30.228 12.487,36.523 -5.76,2.3 -13.085,-0.1 -16.946,-4.456 0.533,8.216 10.069,14.716 16.046,16.926 -6.634,-0.83 -22.644,-4.13 -25.854,-10.69 -0.562,6.67 2.365,9.36 6.241,14.25 2.141,2.7 4.535,7.74 8.025,8.91 -12.977,0 -26.781,0.82 -34.774,-10.69 -0.309,3.96 1.229,7.59 0.891,11.58 -11.63,-3.6 -22.291,-17.02 -22.291,-28.5 10e-4,-12.854 12.62,-37.536 27.643,-36.524"
     inkscape:connector-curvature="0" />
  <path
     id="path91"
     style="fill:none;stroke:#000000;stroke-width:1.22490001;stroke-linecap:square;stroke-miterlimit:10"
     d="m 46.978,70.089 c -1.79,3.052 -3.201,6.143 -5.35,8.908"
     inkscape:connector-curvature="0" />
  <path
     id="path93"
     style="fill:none;stroke:#000000;stroke-width:1.22490001;stroke-linecap:square;stroke-miterlimit:10"
     d="m 46.978,70.089 c -1.79,3.052 -3.201,6.143 -5.35,8.908"
     inkscape:connector-curvature="0" />
  <line
     id="line95"
     style="fill:none;stroke:#000000;stroke-width:1.22490001;stroke-linecap:square;stroke-miterlimit:10"
     y2="0.61243999"
     y1="0.61243999"
     x2="0.61245"
     x1="0.61245" />
  <path
     id="path97"
     style="fill:#323232;fill-rule:evenodd"
     d="M 41.628,60.291 C 42.519,48.372 31.002,39.785 31.82,28.225 c -1.699,5.382 -5.196,12.774 -3.566,18.705 1.86,6.771 9.544,8.203 13.374,13.361"
     inkscape:connector-curvature="0" />
  <path
     id="path99"
     style="fill:none;stroke:#000000;stroke-width:1.22490001;stroke-linecap:square;stroke-miterlimit:10"
     d="M 41.628,60.291 C 42.519,48.372 31.002,39.785 31.82,28.225 c -1.699,5.382 -5.196,12.774 -3.566,18.705 1.86,6.771 9.544,8.203 13.374,13.361"
     inkscape:connector-curvature="0" />
  <path
     id="path101"
     style="fill:none;stroke:#000000;stroke-width:1.22490001;stroke-linecap:square;stroke-miterlimit:10"
     d="M 41.628,60.291 C 42.519,48.372 31.002,39.785 31.82,28.225 c -1.699,5.382 -5.196,12.774 -3.566,18.705 1.86,6.771 9.544,8.203 13.374,13.361"
     inkscape:connector-curvature="0" />
  <path
     id="path103"
     style="fill:none;stroke:#000000;stroke-width:1.22490001;stroke-linecap:square;stroke-miterlimit:10"
     d="m 31.82,28.225 c 1.301,5.493 2.529,14.735 7.132,18.705"
     inkscape:connector-curvature="0" />
  <path
     id="path105"
     style="fill:none;stroke:#000000;stroke-width:1.22490001;stroke-linecap:square;stroke-miterlimit:10"
     d="m 31.82,28.225 c 1.301,5.493 2.529,14.735 7.132,18.705"
     inkscape:connector-curvature="0" />
  <path
     id="path107"
     style="fill:none;stroke:#000000;stroke-width:1.22490001;stroke-linecap:square;stroke-miterlimit:10"
     d="m 38.952,46.93 c 2.376,7.984 3.802,13.047 -0.891,21.378"
     inkscape:connector-curvature="0" />
  <path
     id="path109"
     style="fill:none;stroke:#000000;stroke-width:1.22490001;stroke-linecap:square;stroke-miterlimit:10"
     d="m 38.952,46.93 c 2.376,7.984 3.802,13.047 -0.891,21.378"
     inkscape:connector-curvature="0" />
  <path
     id="path111"
     style="fill:#323232;fill-rule:evenodd"
     d="m 101.37,60.291 c 0.36,-5.556 6.24,-11.039 6.24,-16.033 0,-2.598 1.98,-15.142 4.46,-15.142 7.28,0 8.02,25.296 8.02,30.286 -0.65,-3.523 -5.75,-10.689 -9.81,-10.689 -1.92,-10e-4 -8.07,10.081 -8.91,11.578"
     inkscape:connector-curvature="0" />
  <path
     id="path113"
     style="fill:none;stroke:#000000;stroke-width:1.22490001;stroke-linecap:square;stroke-miterlimit:10"
     d="m 101.37,60.291 c 0.36,-5.556 6.24,-11.039 6.24,-16.033 0,-2.598 1.98,-15.142 4.46,-15.142 7.28,0 8.02,25.296 8.02,30.286 -0.65,-3.523 -5.75,-10.689 -9.81,-10.689 -1.92,-10e-4 -8.07,10.081 -8.91,11.578"
     inkscape:connector-curvature="0" />
  <line
     id="line115"
     style="fill:none;stroke:#000000;stroke-width:1.22490001;stroke-linecap:square;stroke-miterlimit:10"
     y2="0.61243999"
     y1="0.61243999"
     x2="0.61245"
     x1="0.61245" />
  <path
     id="path117"
     style="fill:none;stroke:#000000;stroke-width:1.22490001;stroke-linecap:square;stroke-miterlimit:10"
     d="m 101.37,60.291 c 0.36,-5.556 6.24,-11.039 6.24,-16.033 0,-2.598 1.98,-15.142 4.46,-15.142 7.28,0 8.02,25.296 8.02,30.286 -0.65,-3.523 -5.75,-10.689 -9.81,-10.689 -1.92,-10e-4 -8.07,10.081 -8.91,11.578"
     inkscape:connector-curvature="0" />
  <path
     id="path119"
     style="fill:none;stroke:#000000;stroke-width:1.22490001;stroke-linecap:square;stroke-miterlimit:10"
     d="m 110.28,30.006 c -0.18,8.834 -4.96,19.336 -8.02,27.613"
     inkscape:connector-curvature="0" />
  <path
     id="path121"
     style="fill:none;stroke:#000000;stroke-width:1.22490001;stroke-linecap:square;stroke-miterlimit:10"
     d="m 110.28,30.006 c -0.18,8.834 -4.96,19.336 -8.02,27.613"
     inkscape:connector-curvature="0" />
  <path
     id="path123"
     style="fill:none;stroke:#000000;stroke-width:1.22490001;stroke-linecap:square;stroke-miterlimit:10"
     d="m 102.26,57.62 c 0,4.302 -0.96,8.989 1.78,12.47"
     inkscape:connector-curvature="0" />
  <path
     id="path125"
     style="fill:none;stroke:#000000;stroke-width:1.22490001;stroke-linecap:square;stroke-miterlimit:10"
     d="m 102.26,57.62 c 0,4.302 -0.96,8.989 1.78,12.47"
     inkscape:connector-curvature="0" />
  <path
     id="path127"
     style="fill:none;stroke:#000000;stroke-width:1.22490001;stroke-linecap:square;stroke-miterlimit:10"
     d="m 104.04,70.089 c 3.29,1.369 8.03,5.355 5.35,9.798"
     inkscape:connector-curvature="0" />
  <path
     id="path129"
     style="fill:none;stroke:#000000;stroke-width:1.22490001;stroke-linecap:square;stroke-miterlimit:10"
     d="m 104.04,70.089 c 3.29,1.369 8.03,5.355 5.35,9.798"
     inkscape:connector-curvature="0" />
  <path
     id="path131"
     style="fill:none;stroke:#000000;stroke-width:1.22490001;stroke-linecap:square;stroke-miterlimit:10"
     d="m 109.39,79.888 c -1.29,2.056 -2.08,3.923 -2.67,6.236"
     inkscape:connector-curvature="0" />
  <path
     id="path133"
     style="fill:none;stroke:#000000;stroke-width:1.22490001;stroke-linecap:square;stroke-miterlimit:10"
     d="m 109.39,79.888 c -1.29,2.056 -2.08,3.923 -2.67,6.236"
     inkscape:connector-curvature="0" />
  <path
     id="path135"
     style="fill:none;stroke:#000000;stroke-width:1.22490001;stroke-linecap:square;stroke-miterlimit:10"
     d="M 65.702,59.401 C 61.016,50.789 54.11,44.028 54.11,31.788"
     inkscape:connector-curvature="0" />
  <path
     id="path137"
     style="fill:none;stroke:#000000;stroke-width:1.22490001;stroke-linecap:square;stroke-miterlimit:10"
     d="M 65.702,59.401 C 61.016,50.789 54.11,44.028 54.11,31.788"
     inkscape:connector-curvature="0" />
  <path
     id="path139"
     style="fill:none;stroke:#000000;stroke-width:1.22490001;stroke-linecap:square;stroke-miterlimit:10"
     d="m 54.11,31.788 c 2.282,-1.888 2.552,-4.329 4.905,-6.68 2.147,-2.146 7.593,-4.93 8.915,-7.572 2.895,-5.784 17.633,-8.1386 22.737,-9.7976"
     inkscape:connector-curvature="0" />
  <path
     id="path141"
     style="fill:none;stroke:#000000;stroke-width:1.22490001;stroke-linecap:square;stroke-miterlimit:10"
     d="m 54.11,31.788 c 2.282,-1.888 2.552,-4.329 4.905,-6.68 2.147,-2.146 7.593,-4.93 8.915,-7.572 2.895,-5.784 17.633,-8.1386 22.737,-9.7976"
     inkscape:connector-curvature="0" />
  <path
     id="path143"
     style="fill:none;stroke:#000000;stroke-width:1.22490001;stroke-linecap:square;stroke-miterlimit:10"
     d="M 66.593,58.51 C 62.002,51.63 59.312,44.497 56.785,36.242"
     inkscape:connector-curvature="0" />
  <path
     id="path145"
     style="fill:none;stroke:#000000;stroke-width:1.22490001;stroke-linecap:square;stroke-miterlimit:10"
     d="M 66.593,58.51 C 62.002,51.63 59.312,44.497 56.785,36.242"
     inkscape:connector-curvature="0" />
  <path
     id="path147"
     style="fill:none;stroke:#000000;stroke-width:1.22490001;stroke-linecap:square;stroke-miterlimit:10"
     d="M 56.786,36.242 C 55.626,23.122 79.324,13.952 87.994,9.519"
     inkscape:connector-curvature="0" />
  <path
     id="path149"
     style="fill:none;stroke:#000000;stroke-width:1.22490001;stroke-linecap:square;stroke-miterlimit:10"
     d="M 56.786,36.242 C 55.626,23.122 79.324,13.952 87.994,9.519"
     inkscape:connector-curvature="0" />
  <line
     id="line151"
     style="fill:none;stroke:#000000;stroke-width:1.22490001;stroke-linecap:square;stroke-miterlimit:10"
     y2="0.61243999"
     y1="0.61243999"
     x2="0.61245"
     x1="0.61245" />
  <path
     id="path153"
     style="fill:none;stroke:#000000;stroke-width:1.22490001;stroke-linecap:square;stroke-miterlimit:10"
     d="M 68.376,56.729 C 62.36,53.401 64.398,43.437 61.689,38.023 58.644,31.939 64.43,24.435 69.268,21.99"
     inkscape:connector-curvature="0" />
  <path
     id="path155"
     style="fill:none;stroke:#000000;stroke-width:1.22490001;stroke-linecap:square;stroke-miterlimit:10"
     d="M 68.376,56.729 C 62.36,53.401 64.398,43.437 61.689,38.023 58.644,31.939 64.43,24.435 69.268,21.99"
     inkscape:connector-curvature="0" />
  <path
     id="path157"
     style="fill:#181819;fill-rule:evenodd"
     d="m 120.09,140.46 c -1.27,5.37 -3.28,13.46 -10.7,12.47 -2.09,-0.28 -4.13,-2.45 -5.79,-3.56 -2.64,-1.76 1.33,-4.42 1.33,-7.13 0,-3.19 12.54,-1.78 15.16,-1.78"
     inkscape:connector-curvature="0" />
  <path
     id="path159"
     style="fill:none;stroke:#000000;stroke-width:1.22490001;stroke-linecap:square;stroke-miterlimit:10"
     d="m 120.09,140.46 c -1.27,5.37 -3.28,13.46 -10.7,12.47 -2.09,-0.28 -4.13,-2.45 -5.79,-3.56 -2.64,-1.76 1.33,-4.42 1.33,-7.13 0,-3.19 12.54,-1.78 15.16,-1.78"
     inkscape:connector-curvature="0" />
  <path
     id="path161"
     style="fill:none;stroke:#000000;stroke-width:1.22490001;stroke-linecap:square;stroke-miterlimit:10"
     d="m 120.09,140.46 c -1.27,5.37 -3.28,13.46 -10.7,12.47 -2.09,-0.28 -4.13,-2.45 -5.79,-3.56 -2.64,-1.76 1.33,-4.42 1.33,-7.13 0,-3.19 12.54,-1.78 15.16,-1.78"
     inkscape:connector-curvature="0" />
  <path
     id="path163"
     style="fill:none;stroke:#000000;stroke-width:1.22490001;stroke-linecap:square;stroke-miterlimit:10"
     d="m 123.66,136.9 c -3.95,-0.68 -9.23,-3.49 -12.48,0"
     inkscape:connector-curvature="0" />
  <path
     id="path165"
     style="fill:none;stroke:#000000;stroke-width:1.22490001;stroke-linecap:square;stroke-miterlimit:10"
     d="m 123.66,136.9 c -3.95,-0.68 -9.23,-3.49 -12.48,0"
     inkscape:connector-curvature="0" />
  <path
     id="path167"
     style="fill:none;stroke:#000000;stroke-width:1.22490001;stroke-linecap:square;stroke-miterlimit:10"
     d="m 111.18,136.9 c -4.15,1.29 -6.36,5.98 -8.03,9.79"
     inkscape:connector-curvature="0" />
  <path
     id="path169"
     style="fill:none;stroke:#000000;stroke-width:1.22490001;stroke-linecap:square;stroke-miterlimit:10"
     d="m 111.18,136.9 c -4.15,1.29 -6.36,5.98 -8.03,9.79"
     inkscape:connector-curvature="0" />
  <path
     id="path171"
     style="fill:none;stroke:#000000;stroke-width:1.22490001;stroke-linecap:square;stroke-miterlimit:10"
     d="m 103.15,146.69 c -1.29,3.65 -3.484,6.82 -6.242,8.02"
     inkscape:connector-curvature="0" />
  <path
     id="path173"
     style="fill:none;stroke:#000000;stroke-width:1.22490001;stroke-linecap:square;stroke-miterlimit:10"
     d="m 103.15,146.69 c -1.29,3.65 -3.484,6.82 -6.242,8.02"
     inkscape:connector-curvature="0" />
  <path
     id="path175"
     style="fill:none;stroke:#000000;stroke-width:1.22490001;stroke-linecap:square;stroke-miterlimit:10"
     d="m 96.908,154.71 c -0.818,0.73 -1.415,1.63 -1.782,2.67"
     inkscape:connector-curvature="0" />
  <path
     id="path177"
     style="fill:none;stroke:#000000;stroke-width:1.22490001;stroke-linecap:square;stroke-miterlimit:10"
     d="m 96.908,154.71 c -0.818,0.73 -1.415,1.63 -1.782,2.67"
     inkscape:connector-curvature="0" />
  <line
     id="line179"
     style="fill:none;stroke:#000000;stroke-width:1.22490001;stroke-linecap:square;stroke-miterlimit:10"
     y2="0.61243999"
     y1="0.61243999"
     x2="0.61245"
     x1="0.61245" />
  <path
     id="path181"
     style="fill:none;stroke:#000000;stroke-width:1.22490001;stroke-linecap:square;stroke-miterlimit:10"
     d="m 122.77,141.35 c -4.75,-1.95 -10.98,-0.89 -16.05,-0.89"
     inkscape:connector-curvature="0" />
  <path
     id="path183"
     style="fill:none;stroke:#000000;stroke-width:1.22490001;stroke-linecap:square;stroke-miterlimit:10"
     d="m 122.77,141.35 c -4.75,-1.95 -10.98,-0.89 -16.05,-0.89"
     inkscape:connector-curvature="0" />
  <path
     id="path185"
     style="fill:none;stroke:#000000;stroke-width:1.22490001;stroke-linecap:square;stroke-miterlimit:10"
     d="m 122.77,143.13 c 0.29,4.32 -3.65,10.99 -7.14,13.36"
     inkscape:connector-curvature="0" />
  <path
     id="path187"
     style="fill:none;stroke:#000000;stroke-width:1.22490001;stroke-linecap:square;stroke-miterlimit:10"
     d="m 122.77,143.13 c 0.29,4.32 -3.65,10.99 -7.14,13.36"
     inkscape:connector-curvature="0" />
  <path
     id="path189"
     style="fill:none;stroke:#000000;stroke-width:1.22490001;stroke-linecap:square;stroke-miterlimit:10"
     d="m 115.63,156.49 c -3.15,1.26 -6.46,0.89 -9.8,0.89"
     inkscape:connector-curvature="0" />
  <path
     id="path191"
     style="fill:none;stroke:#000000;stroke-width:1.22490001;stroke-linecap:square;stroke-miterlimit:10"
     d="m 115.63,156.49 c -3.15,1.26 -6.46,0.89 -9.8,0.89"
     inkscape:connector-curvature="0" />
  <path
     id="path193"
     style="fill:none;stroke:#000000;stroke-width:1.22490001;stroke-linecap:square;stroke-miterlimit:10"
     d="m 105.83,157.38 c -0.24,-1.86 -1,-2.87 -2.68,-2.67"
     inkscape:connector-curvature="0" />
  <path
     id="path195"
     style="fill:none;stroke:#000000;stroke-width:1.22490001;stroke-linecap:square;stroke-miterlimit:10"
     d="m 105.83,157.38 c -0.24,-1.86 -1,-2.87 -2.68,-2.67"
     inkscape:connector-curvature="0" />
  <path
     id="path197"
     style="fill:none;stroke:#000000;stroke-width:1.22490001;stroke-linecap:square;stroke-miterlimit:10"
     d="m 103.15,154.71 c -1.38,0.4 -2.27,1.29 -2.67,2.67"
     inkscape:connector-curvature="0" />
  <path
     id="path199"
     style="fill:none;stroke:#000000;stroke-width:1.22490001;stroke-linecap:square;stroke-miterlimit:10"
     d="m 103.15,154.71 c -1.38,0.4 -2.27,1.29 -2.67,2.67"
     inkscape:connector-curvature="0" />
  <line
     id="line201"
     style="fill:none;stroke:#000000;stroke-width:1.22490001;stroke-linecap:square;stroke-miterlimit:10"
     y2="0.61243999"
     y1="0.61243999"
     x2="0.61245"
     x1="0.61245" />
  <path
     id="path203"
     style="fill:#181819;fill-rule:evenodd"
     d="m 28.254,150.26 c -10.582,6.03 -13.381,-1.23 -16.05,-10.69 0.454,0.75 0.574,1.06 0.892,1.78 7.24,-3.71 13.169,2.41 15.158,8.91"
     inkscape:connector-curvature="0" />
  <path
     id="path205"
     style="fill:none;stroke:#000000;stroke-width:1.22490001;stroke-linecap:square;stroke-miterlimit:10"
     d="m 28.254,150.26 c -10.582,6.03 -13.381,-1.23 -16.05,-10.69 0.454,0.75 0.574,1.06 0.892,1.78 7.24,-3.71 13.169,2.41 15.158,8.91"
     inkscape:connector-curvature="0" />
  <path
     id="path207"
     style="fill:none;stroke:#000000;stroke-width:1.22490001;stroke-linecap:square;stroke-miterlimit:10"
     d="m 28.254,150.26 c -10.582,6.03 -13.381,-1.23 -16.05,-10.69 0.454,0.75 0.574,1.06 0.892,1.78 7.24,-3.71 13.169,2.41 15.158,8.91"
     inkscape:connector-curvature="0" />
  <path
     id="path209"
     style="fill:none;stroke:#000000;stroke-width:1.22490001;stroke-linecap:square;stroke-miterlimit:10"
     d="m 31.82,151.15 c -2.151,0.28 -3.73,-0.65 -4.458,-2.67"
     inkscape:connector-curvature="0" />
  <path
     id="path211"
     style="fill:none;stroke:#000000;stroke-width:1.22490001;stroke-linecap:square;stroke-miterlimit:10"
     d="m 31.82,151.15 c -2.151,0.28 -3.73,-0.65 -4.458,-2.67"
     inkscape:connector-curvature="0" />
  <path
     id="path213"
     style="fill:none;stroke:#000000;stroke-width:1.22490001;stroke-linecap:square;stroke-miterlimit:10"
     d="m 27.362,148.48 c -0.25,-2.82 -1.736,-5.27 -4.458,-6.24"
     inkscape:connector-curvature="0" />
  <path
     id="path215"
     style="fill:none;stroke:#000000;stroke-width:1.22490001;stroke-linecap:square;stroke-miterlimit:10"
     d="m 27.362,148.48 c -0.25,-2.82 -1.736,-5.27 -4.458,-6.24"
     inkscape:connector-curvature="0" />
  <path
     id="path217"
     style="fill:none;stroke:#000000;stroke-width:1.22490001;stroke-linecap:square;stroke-miterlimit:10"
     d="m 22.903,142.24 c -3.015,-2.14 -6.451,-2.27 -9.808,-0.89"
     inkscape:connector-curvature="0" />
  <path
     id="path219"
     style="fill:none;stroke:#000000;stroke-width:1.22490001;stroke-linecap:square;stroke-miterlimit:10"
     d="m 22.903,142.24 c -3.015,-2.14 -6.451,-2.27 -9.808,-0.89"
     inkscape:connector-curvature="0" />
  <path
     id="path221"
     style="fill:none;stroke:#000000;stroke-width:1.22490001;stroke-linecap:square;stroke-miterlimit:10"
     d="m 13.095,141.35 c -1.709,0.76 -3.4916,1.06 -5.3496,0.89"
     inkscape:connector-curvature="0" />
  <path
     id="path223"
     style="fill:none;stroke:#000000;stroke-width:1.22490001;stroke-linecap:square;stroke-miterlimit:10"
     d="m 13.095,141.35 c -1.709,0.76 -3.4916,1.06 -5.3496,0.89"
     inkscape:connector-curvature="0" />
  <line
     id="line225"
     style="fill:none;stroke:#000000;stroke-width:1.22490001;stroke-linecap:square;stroke-miterlimit:10"
     y2="0.61243999"
     y1="0.61243999"
     x2="0.61245"
     x1="0.61245" />
  <path
     id="path227"
     style="fill:none;stroke:#000000;stroke-width:1.22490001;stroke-linecap:square;stroke-miterlimit:10"
     d="m 24.687,142.24 c -3.478,-2.46 -7.161,-9.98 -12.483,-6.23"
     inkscape:connector-curvature="0" />
  <path
     id="path229"
     style="fill:none;stroke:#000000;stroke-width:1.22490001;stroke-linecap:square;stroke-miterlimit:10"
     d="m 24.687,142.24 c -3.478,-2.46 -7.161,-9.98 -12.483,-6.23"
     inkscape:connector-curvature="0" />
  <path
     id="path231"
     style="fill:none;stroke:#000000;stroke-width:1.22490001;stroke-linecap:square;stroke-miterlimit:10"
     d="m 23.795,160.95 c -2.604,-1.56 -4.74,-4 -7.133,-5.35"
     inkscape:connector-curvature="0" />
  <path
     id="path233"
     style="fill:none;stroke:#000000;stroke-width:1.22490001;stroke-linecap:square;stroke-miterlimit:10"
     d="m 23.795,160.95 c -2.604,-1.56 -4.74,-4 -7.133,-5.35"
     inkscape:connector-curvature="0" />
  <line
     id="line235"
     style="fill:none;stroke:#000000;stroke-width:1.22490001;stroke-linecap:square;stroke-miterlimit:10"
     y2="0.61243999"
     y1="0.61243999"
     x2="0.61245"
     x1="0.61245" />
  <path
     id="path237"
     style="fill:none;stroke:#000000;stroke-width:1.22490001;stroke-linecap:square;stroke-miterlimit:10"
     d="m 34.495,136.9 c -0.65,4.56 2.715,10.54 6.241,13.36"
     inkscape:connector-curvature="0" />
  <path
     id="path239"
     style="fill:none;stroke:#000000;stroke-width:1.22490001;stroke-linecap:square;stroke-miterlimit:10"
     d="m 34.495,136.9 c -0.65,4.56 2.715,10.54 6.241,13.36"
     inkscape:connector-curvature="0" />
  <path
     id="path241"
     style="fill:none;stroke:#000000;stroke-width:1.22490001;stroke-linecap:square;stroke-miterlimit:10"
     d="m 40.736,150.26 c 4.077,4 2.191,8.54 1.784,13.36"
     inkscape:connector-curvature="0" />
  <path
     id="path243"
     style="fill:none;stroke:#000000;stroke-width:1.22490001;stroke-linecap:square;stroke-miterlimit:10"
     d="m 40.736,150.26 c 4.077,4 2.191,8.54 1.784,13.36"
     inkscape:connector-curvature="0" />
  <path
     id="path245"
     style="fill:none;stroke:#000000;stroke-width:1.22490001;stroke-linecap:square;stroke-miterlimit:10"
     d="m 42.52,163.62 c -2.718,4.94 -2.507,13.67 -3.567,19.59 -1.088,6.09 -5.25,15.92 -0.891,21.38"
     inkscape:connector-curvature="0" />
  <path
     id="path247"
     style="fill:none;stroke:#000000;stroke-width:1.22490001;stroke-linecap:square;stroke-miterlimit:10"
     d="m 42.52,163.62 c -2.718,4.94 -2.507,13.67 -3.567,19.59 -1.088,6.09 -5.25,15.92 -0.891,21.38"
     inkscape:connector-curvature="0" />
  <path
     id="path249"
     style="fill:none;stroke:#000000;stroke-width:1.22490001;stroke-linecap:square;stroke-miterlimit:10"
     d="m 38.061,204.59 c -3.521,6.09 -8.047,19.93 -7.133,26.72"
     inkscape:connector-curvature="0" />
  <path
     id="path251"
     style="fill:none;stroke:#000000;stroke-width:1.22490001;stroke-linecap:square;stroke-miterlimit:10"
     d="m 38.061,204.59 c -3.521,6.09 -8.047,19.93 -7.133,26.72"
     inkscape:connector-curvature="0" />
  <line
     id="line253"
     style="fill:none;stroke:#000000;stroke-width:1.22490001;stroke-linecap:square;stroke-miterlimit:10"
     y2="0.61243999"
     y1="0.61243999"
     x2="0.61245"
     x1="0.61245" />
  <path
     id="path255"
     style="fill:none;stroke:#000000;stroke-width:1.22490001;stroke-linecap:square;stroke-miterlimit:10"
     d="m 88.884,141.35 c -0.6,7.3 -8.51,7.93 -11.591,13.36"
     inkscape:connector-curvature="0" />
  <path
     id="path257"
     style="fill:none;stroke:#000000;stroke-width:1.22490001;stroke-linecap:square;stroke-miterlimit:10"
     d="m 88.884,141.35 c -0.6,7.3 -8.51,7.93 -11.591,13.36"
     inkscape:connector-curvature="0" />
  <path
     id="path259"
     style="fill:none;stroke:#000000;stroke-width:1.22490001;stroke-linecap:square;stroke-miterlimit:10"
     d="m 77.293,154.71 c -2.604,5.2 -4.222,13.68 -1.784,19.6"
     inkscape:connector-curvature="0" />
  <path
     id="path261"
     style="fill:none;stroke:#000000;stroke-width:1.22490001;stroke-linecap:square;stroke-miterlimit:10"
     d="m 77.293,154.71 c -2.604,5.2 -4.222,13.68 -1.784,19.6"
     inkscape:connector-curvature="0" />
  <path
     id="path263"
     style="fill:none;stroke:#000000;stroke-width:1.22490001;stroke-linecap:square;stroke-miterlimit:10"
     d="m 75.51,174.31 c 0,7.89 -2.384,15.48 -1.783,23.16"
     inkscape:connector-curvature="0" />
  <path
     id="path265"
     style="fill:none;stroke:#000000;stroke-width:1.22490001;stroke-linecap:square;stroke-miterlimit:10"
     d="m 75.51,174.31 c 0,7.89 -2.384,15.48 -1.783,23.16"
     inkscape:connector-curvature="0" />
  <path
     id="path267"
     style="fill:none;stroke:#000000;stroke-width:1.22490001;stroke-linecap:square;stroke-miterlimit:10"
     d="m 73.727,197.47 c -0.751,13.87 8.229,27.91 4.458,41.86"
     inkscape:connector-curvature="0" />
  <path
     id="path269"
     style="fill:none;stroke:#000000;stroke-width:1.22490001;stroke-linecap:square;stroke-miterlimit:10"
     d="m 73.727,197.47 c -0.751,13.87 8.229,27.91 4.458,41.86"
     inkscape:connector-curvature="0" />
  <path
     id="path271"
     style="fill:none;stroke:#000000;stroke-width:1.22490001;stroke-linecap:square;stroke-miterlimit:10"
     d="m 78.185,239.33 c 2.965,2.82 8.325,2.85 8.025,8.02"
     inkscape:connector-curvature="0" />
  <path
     id="path273"
     style="fill:none;stroke:#000000;stroke-width:1.22490001;stroke-linecap:square;stroke-miterlimit:10"
     d="m 78.185,239.33 c 2.965,2.82 8.325,2.85 8.025,8.02"
     inkscape:connector-curvature="0" />
  <path
     id="path275"
     style="fill:none;stroke:#000000;stroke-width:1.22490001;stroke-linecap:square;stroke-miterlimit:10"
     d="m 86.21,247.35 c 2.352,7.06 1.784,14.72 1.784,22.27"
     inkscape:connector-curvature="0" />
  <path
     id="path277"
     style="fill:none;stroke:#000000;stroke-width:1.22490001;stroke-linecap:square;stroke-miterlimit:10"
     d="m 86.21,247.35 c 2.352,7.06 1.784,14.72 1.784,22.27"
     inkscape:connector-curvature="0" />
  <path
     id="path279"
     style="fill:none;stroke:#000000;stroke-width:1.22490001;stroke-linecap:square;stroke-miterlimit:10"
     d="m 87.994,269.62 c -2.525,5.04 -6.313,8.62 -8.917,13.36"
     inkscape:connector-curvature="0" />
  <path
     id="path281"
     style="fill:none;stroke:#000000;stroke-width:1.22490001;stroke-linecap:square;stroke-miterlimit:10"
     d="m 87.994,269.62 c -2.525,5.04 -6.313,8.62 -8.917,13.36"
     inkscape:connector-curvature="0" />
  <path
     id="path283"
     style="fill:none;stroke:#000000;stroke-width:1.22490001;stroke-linecap:square;stroke-miterlimit:10"
     d="m 79.076,282.98 c 0,5.57 -0.484,10.31 -2.675,15.14"
     inkscape:connector-curvature="0" />
  <path
     id="path285"
     style="fill:none;stroke:#000000;stroke-width:1.22490001;stroke-linecap:square;stroke-miterlimit:10"
     d="m 79.076,282.98 c 0,5.57 -0.484,10.31 -2.675,15.14"
     inkscape:connector-curvature="0" />
  <line
     id="line287"
     style="fill:none;stroke:#000000;stroke-width:1.22490001;stroke-linecap:square;stroke-miterlimit:10"
     y2="0.61243999"
     y1="0.61243999"
     x2="0.61245"
     x1="0.61245" />
  <path
     id="path289"
     style="fill:none;stroke:#000000;stroke-width:1.22490001;stroke-linecap:square;stroke-miterlimit:10"
     d="m 76.401,298.12 c 2.105,-1.25 4.701,-3.03 7.133,-3.56 -0.595,0.59 -1.18,1.19 -1.784,1.78"
     inkscape:connector-curvature="0" />
  <path
     id="path291"
     style="fill:none;stroke:#000000;stroke-width:1.22490001;stroke-linecap:square;stroke-miterlimit:10"
     d="m 76.401,298.12 c 2.105,-1.25 4.701,-3.03 7.133,-3.56 -0.595,0.59 -1.18,1.19 -1.784,1.78"
     inkscape:connector-curvature="0" />
  <path
     id="path293"
     style="fill:none;stroke:#000000;stroke-width:1.22490001;stroke-linecap:square;stroke-miterlimit:10"
     d="m 81.751,296.34 c -7.345,6.06 -18.857,11.22 -28.532,9.8"
     inkscape:connector-curvature="0" />
  <path
     id="path295"
     style="fill:none;stroke:#000000;stroke-width:1.22490001;stroke-linecap:square;stroke-miterlimit:10"
     d="m 81.751,296.34 c -7.345,6.06 -18.857,11.22 -28.532,9.8"
     inkscape:connector-curvature="0" />
  <path
     id="path297"
     style="fill:none;stroke:#000000;stroke-width:1.22490001;stroke-linecap:square;stroke-miterlimit:10"
     d="M 53.219,306.14 C 46.15,306.12 35.598,303.36 30.928,299.9"
     inkscape:connector-curvature="0" />
  <path
     id="path299"
     style="fill:none;stroke:#000000;stroke-width:1.22490001;stroke-linecap:square;stroke-miterlimit:10"
     d="M 53.219,306.14 C 46.15,306.12 35.598,303.36 30.928,299.9"
     inkscape:connector-curvature="0" />
  <path
     id="path301"
     style="fill:none;stroke:#000000;stroke-width:1.22490001;stroke-linecap:square;stroke-miterlimit:10"
     d="m 73.727,201.03 c -3.388,4.39 -4.1,11.49 -8.916,14.25"
     inkscape:connector-curvature="0" />
  <path
     id="path303"
     style="fill:none;stroke:#000000;stroke-width:1.22490001;stroke-linecap:square;stroke-miterlimit:10"
     d="m 73.727,201.03 c -3.388,4.39 -4.1,11.49 -8.916,14.25"
     inkscape:connector-curvature="0" />
  <path
     id="path305"
     style="fill:none;stroke:#000000;stroke-width:1.22490001;stroke-linecap:square;stroke-miterlimit:10"
     d="m 64.811,215.28 c 0,7.86 0.863,15.8 0.891,23.16"
     inkscape:connector-curvature="0" />
  <path
     id="path307"
     style="fill:none;stroke:#000000;stroke-width:1.22490001;stroke-linecap:square;stroke-miterlimit:10"
     d="m 64.811,215.28 c 0,7.86 0.863,15.8 0.891,23.16"
     inkscape:connector-curvature="0" />
  <line
     id="line309"
     style="fill:none;stroke:#000000;stroke-width:1.22490001;stroke-linecap:square;stroke-miterlimit:10"
     y2="0.61243999"
     y1="0.61243999"
     x2="0.61245"
     x1="0.61245" />
  <path
     id="path311"
     style="fill:none;stroke:#000000;stroke-width:1.22490001;stroke-linecap:square;stroke-miterlimit:10"
     d="m 37.169,204.59 c 2.208,1.7 4.134,3.65 4.458,6.24"
     inkscape:connector-curvature="0" />
  <path
     id="path313"
     style="fill:none;stroke:#000000;stroke-width:1.22490001;stroke-linecap:square;stroke-miterlimit:10"
     d="m 37.169,204.59 c 2.208,1.7 4.134,3.65 4.458,6.24"
     inkscape:connector-curvature="0" />
  <path
     id="path315"
     style="fill:none;stroke:#000000;stroke-width:1.22490001;stroke-linecap:square;stroke-miterlimit:10"
     d="m 41.628,210.83 c 0,8.12 -0.626,16.2 -0.892,24.05"
     inkscape:connector-curvature="0" />
  <path
     id="path317"
     style="fill:none;stroke:#000000;stroke-width:1.22490001;stroke-linecap:square;stroke-miterlimit:10"
     d="m 41.628,210.83 c 0,8.12 -0.626,16.2 -0.892,24.05"
     inkscape:connector-curvature="0" />
  <line
     id="line319"
     style="fill:none;stroke:#000000;stroke-width:1.22490001;stroke-linecap:square;stroke-miterlimit:10"
     y2="0.61243999"
     y1="0.61243999"
     x2="0.61245"
     x1="0.61245" />
  <path
     id="path321"
     style="fill:#2e1f0e;fill-rule:evenodd"
     d="m 67.485,255.36 c 12.833,-3.44 21.425,11.99 9.809,20.49 -4.599,3.36 -10.795,2.06 -8.471,-4.9 2.175,-6.52 6.491,-10.79 -1.338,-15.59"
     inkscape:connector-curvature="0" />
  <path
     id="path323"
     style="fill:none;stroke:#000000;stroke-width:1.22490001;stroke-linecap:square;stroke-miterlimit:10"
     d="m 67.485,255.36 c 12.833,-3.44 21.425,11.99 9.809,20.49 -4.599,3.36 -10.795,2.06 -8.471,-4.9 2.175,-6.52 6.491,-10.79 -1.338,-15.59"
     inkscape:connector-curvature="0" />
  <path
     id="path325"
     style="fill:none;stroke:#000000;stroke-width:1.22490001;stroke-linecap:square;stroke-miterlimit:10"
     d="m 67.485,255.36 c 12.833,-3.44 21.425,11.99 9.809,20.49 -4.599,3.36 -10.795,2.06 -8.471,-4.9 2.175,-6.52 6.491,-10.79 -1.338,-15.59"
     inkscape:connector-curvature="0" />
  <path
     id="path327"
     style="fill:#2e1f0e;fill-rule:evenodd"
     d="m 35.386,253.58 c -3.501,0.76 -10.699,2.18 -10.699,7.13 0,5.02 1.575,15.29 6.241,17.81 1.199,0.65 4.639,1.6 5.796,0.45 3.62,-3.62 0.781,-3.01 -0.892,-8.02 -2.375,-7.12 -8.087,-10.34 -0.446,-17.37"
     inkscape:connector-curvature="0" />
  <path
     id="path329"
     style="fill:none;stroke:#000000;stroke-width:1.22490001;stroke-linecap:square;stroke-miterlimit:10"
     d="m 35.386,253.58 c -3.501,0.76 -10.699,2.18 -10.699,7.13 0,5.02 1.575,15.29 6.241,17.81 1.199,0.65 4.639,1.6 5.796,0.45 3.62,-3.62 0.781,-3.01 -0.892,-8.02 -2.375,-7.12 -8.087,-10.34 -0.446,-17.37"
     inkscape:connector-curvature="0" />
  <path
     id="path331"
     style="fill:none;stroke:#000000;stroke-width:1.22490001;stroke-linecap:square;stroke-miterlimit:10"
     d="m 35.386,253.58 c -3.501,0.76 -10.699,2.18 -10.699,7.13 0,5.02 1.575,15.29 6.241,17.81 1.199,0.65 4.639,1.6 5.796,0.45 3.62,-3.62 0.781,-3.01 -0.892,-8.02 -2.375,-7.12 -8.087,-10.34 -0.446,-17.37"
     inkscape:connector-curvature="0" />
  <path
     id="path333"
     style="fill:none;stroke:#000000;stroke-width:1.22490001;stroke-linecap:square;stroke-miterlimit:10"
     d="m 63.027,255.36 c -1.116,3.45 -4.362,5.65 -6.241,8.91"
     inkscape:connector-curvature="0" />
  <path
     id="path335"
     style="fill:none;stroke:#000000;stroke-width:1.22490001;stroke-linecap:square;stroke-miterlimit:10"
     d="m 63.027,255.36 c -1.116,3.45 -4.362,5.65 -6.241,8.91"
     inkscape:connector-curvature="0" />
  <path
     id="path337"
     style="fill:none;stroke:#000000;stroke-width:1.22490001;stroke-linecap:square;stroke-miterlimit:10"
     d="m 56.786,264.27 c -0.979,0 -0.979,0 0,0"
     inkscape:connector-curvature="0" />
  <path
     id="path339"
     style="fill:none;stroke:#000000;stroke-width:1.22490001;stroke-linecap:square;stroke-miterlimit:10"
     d="m 56.786,264.27 c -0.979,0 -0.979,0 0,0"
     inkscape:connector-curvature="0" />
  <path
     id="path341"
     style="fill:none;stroke:#000000;stroke-width:1.22490001;stroke-linecap:square;stroke-miterlimit:10"
     d="m 56.786,264.27 c 2.959,4.59 2.674,9.01 2.674,14.25"
     inkscape:connector-curvature="0" />
  <path
     id="path343"
     style="fill:none;stroke:#000000;stroke-width:1.22490001;stroke-linecap:square;stroke-miterlimit:10"
     d="m 56.786,264.27 c 2.959,4.59 2.674,9.01 2.674,14.25"
     inkscape:connector-curvature="0" />
  <line
     id="line345"
     style="fill:none;stroke:#000000;stroke-width:1.22490001;stroke-linecap:square;stroke-miterlimit:10"
     y2="0.61243999"
     y1="0.61243999"
     x2="0.61245"
     x1="0.61245" />
  <path
     id="path347"
     style="fill:none;stroke:#000000;stroke-width:1.22490001;stroke-linecap:square;stroke-miterlimit:10"
     d="m 41.628,254.47 c 0.745,3.1 4.025,5.68 5.35,8.91"
     inkscape:connector-curvature="0" />
  <path
     id="path349"
     style="fill:none;stroke:#000000;stroke-width:1.22490001;stroke-linecap:square;stroke-miterlimit:10"
     d="m 41.628,254.47 c 0.745,3.1 4.025,5.68 5.35,8.91"
     inkscape:connector-curvature="0" />
  <path
     id="path351"
     style="fill:none;stroke:#000000;stroke-width:1.22490001;stroke-linecap:square;stroke-miterlimit:10"
     d="m 46.978,263.38 c -1.68,4.65 -1.783,9.23 -1.783,14.25"
     inkscape:connector-curvature="0" />
  <path
     id="path353"
     style="fill:none;stroke:#000000;stroke-width:1.22490001;stroke-linecap:square;stroke-miterlimit:10"
     d="m 46.978,263.38 c -1.68,4.65 -1.783,9.23 -1.783,14.25"
     inkscape:connector-curvature="0" />
  <path
     id="path355"
     style="fill:none;stroke:#000000;stroke-width:1.22490001;stroke-linecap:square;stroke-miterlimit:10"
     d="m 107.61,246.46 c -1.58,4.22 -3.83,8.24 -5.35,11.58"
     inkscape:connector-curvature="0" />
  <path
     id="path357"
     style="fill:none;stroke:#000000;stroke-width:1.22490001;stroke-linecap:square;stroke-miterlimit:10"
     d="m 107.61,246.46 c -1.58,4.22 -3.83,8.24 -5.35,11.58"
     inkscape:connector-curvature="0" />
  <path
     id="path359"
     style="fill:none;stroke:#000000;stroke-width:1.22490001;stroke-linecap:square;stroke-miterlimit:10"
     d="m 128.12,186.78 c 0.49,6.63 -3.53,17.91 -8.92,22.27"
     inkscape:connector-curvature="0" />
  <path
     id="path361"
     style="fill:none;stroke:#000000;stroke-width:1.22490001;stroke-linecap:square;stroke-miterlimit:10"
     d="m 128.12,186.78 c 0.49,6.63 -3.53,17.91 -8.92,22.27"
     inkscape:connector-curvature="0" />
  <path
     id="path363"
     style="fill:none;stroke:#000000;stroke-width:1.22490001;stroke-linecap:square;stroke-miterlimit:10"
     d="m 119.2,209.05 c -4.01,6.01 -11.68,15.61 -11.59,23.16"
     inkscape:connector-curvature="0" />
  <path
     id="path365"
     style="fill:none;stroke:#000000;stroke-width:1.22490001;stroke-linecap:square;stroke-miterlimit:10"
     d="m 119.2,209.05 c -4.01,6.01 -11.68,15.61 -11.59,23.16"
     inkscape:connector-curvature="0" />
  <line
     id="line367"
     style="fill:none;stroke:#000000;stroke-width:1.22490001;stroke-linecap:square;stroke-miterlimit:10"
     y2="0.61243999"
     y1="0.61243999"
     x2="0.61245"
     x1="0.61245" />
  <path
     id="path369"
     style="fill:none;stroke:#000000;stroke-width:1.22490001;stroke-linecap:square;stroke-miterlimit:10"
     d="m 60.352,315.93 c 2.967,26.62 17.903,54.49 24.074,79.28"
     inkscape:connector-curvature="0" />
  <path
     id="path371"
     style="fill:none;stroke:#000000;stroke-width:1.22490001;stroke-linecap:square;stroke-miterlimit:10"
     d="m 60.352,315.93 c 2.967,26.62 17.903,54.49 24.074,79.28"
     inkscape:connector-curvature="0" />
  <path
     id="path373"
     style="fill:none;stroke:#000000;stroke-width:1.22490001;stroke-linecap:square;stroke-miterlimit:10"
     d="m 145.95,288.32 c -0.67,7.15 0.89,14.73 0.89,22.27 0,9.92 -0.89,20.26 -0.89,29.84 0,15.55 0.32,35.7 -6.24,49.44"
     inkscape:connector-curvature="0" />
  <path
     id="path375"
     style="fill:none;stroke:#000000;stroke-width:1.22490001;stroke-linecap:square;stroke-miterlimit:10"
     d="m 139.71,389.87 v 2.67"
     inkscape:connector-curvature="0" />
  <path
     id="path377"
     style="fill:none;stroke:#000000;stroke-width:1.22490001;stroke-linecap:square;stroke-miterlimit:10"
     d="m 145.95,288.32 c -1.62,17.49 1.34,37.25 0,55.23 -0.74,9.91 -1.32,18.98 -2.68,28.5 -0.94,6.64 -3.42,14.18 -3.56,20.49"
     inkscape:connector-curvature="0" />
  <metadata
     id="metadata191">
    <rdf:RDF>
      <cc:Work>
        <dc:format>image/svg+xml</dc:format>
        <dc:type
           rdf:resource="http://purl.org/dc/dcmitype/StillImage" />
        <cc:license
           rdf:resource="http://creativecommons.org/licenses/publicdomain/" />
        <dc:publisher>
          <cc:Agent
             rdf:about="http://openclipart.org/">
            <dc:title>Openclipart</dc:title>
          </cc:Agent>
        </dc:publisher>
        <dc:title>Architetto -- Cavallo 17</dc:title>
        <dc:date>2009-04-29T18:00:41</dc:date>
        <dc:description>Horse head by Francesco 'Architetto' Rollandin.</dc:description>
        <dc:source>https://openclipart.org/detail/25470/architetto----cavallo-17-by-anonymous-25470</dc:source>
        <dc:creator>
          <cc:Agent>
            <dc:title>Anonymous</dc:title>
          </cc:Agent>
        </dc:creator>
        <dc:subject>
          <rdf:Bag>
            <rdf:li>animal</rdf:li>
            <rdf:li>head</rdf:li>
            <rdf:li>horse</rdf:li>
            <rdf:li>mammal</rdf:li>
          </rdf:Bag>
        </dc:subject>
      </cc:Work>
      <cc:License
         rdf:about="http://creativecommons.org/licenses/publicdomain/">
        <cc:permits
           rdf:resource="http://creativecommons.org/ns#Reproduction" />
        <cc:permits
           rdf:resource="http://creativecommons.org/ns#Distribution" />
        <cc:permits
           rdf:resource="http://creativecommons.org/ns#DerivativeWorks" />
      </cc:License>
    </rdf:RDF>
  </metadata>
</svg>
