<?xml version="1.0" encoding="UTF-8" standalone="no"?>
<!-- Created with Inkscape (http://www.inkscape.org/) -->

<svg
   xmlns:dc="http://purl.org/dc/elements/1.1/"
   xmlns:cc="http://creativecommons.org/ns#"
   xmlns:rdf="http://www.w3.org/1999/02/22-rdf-syntax-ns#"
   xmlns:svg="http://www.w3.org/2000/svg"
   xmlns="http://www.w3.org/2000/svg"
   xmlns:xlink="http://www.w3.org/1999/xlink"
   xmlns:sodipodi="http://sodipodi.sourceforge.net/DTD/sodipodi-0.dtd"
   xmlns:inkscape="http://www.inkscape.org/namespaces/inkscape"
   id="svg5816"
   sodipodi:docname="speech-baloons-internet-group-chat.svg"
   viewBox="0 0 48 48"
   sodipodi:version="0.32"
   inkscape:output_extension="org.inkscape.output.svg.inkscape"
   inkscape:version="0.92.1 r15371"
   version="1.1"
   width="51.200001"
   height="51.200001">
  <defs
     id="defs3">
    <radialGradient
       id="radialGradient6719"
       xlink:href="#linearGradient5060"
       gradientUnits="userSpaceOnUse"
       cy="486.64999"
       cx="605.71002"
       gradientTransform="matrix(-2.7744,0,0,1.9697,112.76,-872.89)"
       r="117.14"
       inkscape:collect="always" />
    <linearGradient
       id="linearGradient5060"
       inkscape:collect="always">
      <stop
         id="stop5062"
         style="stop-color:black"
         offset="0" />
      <stop
         id="stop5064"
         style="stop-color:black;stop-opacity:0"
         offset="1" />
    </linearGradient>
    <radialGradient
       id="radialGradient6717"
       xlink:href="#linearGradient5060"
       gradientUnits="userSpaceOnUse"
       cy="486.64999"
       cx="605.71002"
       gradientTransform="matrix(2.7744,0,0,1.9697,-1891.6,-872.89)"
       r="117.14"
       inkscape:collect="always" />
    <linearGradient
       id="linearGradient5048">
      <stop
         id="stop5050"
         style="stop-color:black;stop-opacity:0"
         offset="0" />
      <stop
         id="stop5056"
         style="stop-color:black"
         offset=".5" />
      <stop
         id="stop5052"
         style="stop-color:black;stop-opacity:0"
         offset="1" />
    </linearGradient>
    <linearGradient
       id="linearGradient6715"
       y2="609.51001"
       xlink:href="#linearGradient5048"
       gradientUnits="userSpaceOnUse"
       x2="302.85999"
       gradientTransform="matrix(2.7744,0,0,1.9697,-1892.2,-872.89)"
       y1="366.64999"
       x1="302.85999"
       inkscape:collect="always" />
    <linearGradient
       id="linearGradient29418">
      <stop
         id="stop29420"
         style="stop-color:#f5f5f5"
         offset="0" />
      <stop
         id="stop29422"
         style="stop-color:#e9e9e9"
         offset="1" />
    </linearGradient>
    <linearGradient
       id="linearGradient29429"
       y2="26.257999"
       xlink:href="#linearGradient29418"
       gradientUnits="userSpaceOnUse"
       x2="39.036999"
       gradientTransform="matrix(1.0076,0,0,0.98765,-3.0719,0.27461)"
       y1="10.916"
       x1="26.011999"
       inkscape:collect="always" />
    <radialGradient
       id="radialGradient29439"
       gradientUnits="userSpaceOnUse"
       cy="27.645"
       cx="29.496"
       gradientTransform="matrix(1,0,0,0.34649,0,18.067)"
       r="11.516"
       inkscape:collect="always">
      <stop
         id="stop29435"
         style="stop-color:#000000"
         offset="0" />
      <stop
         id="stop29437"
         style="stop-color:#000000;stop-opacity:0"
         offset="1" />
    </radialGradient>
    <linearGradient
       id="linearGradient29443"
       y2="24.143999"
       xlink:href="#linearGradient29418"
       gradientUnits="userSpaceOnUse"
       x2="27.273001"
       gradientTransform="matrix(-0.97723,0,0,0.99588,50.603,9.1156)"
       y1="10.957"
       x1="35.004002"
       inkscape:collect="always" />
  </defs>
  <sodipodi:namedview
     id="base"
     bordercolor="#666666"
     inkscape:pageshadow="2"
     inkscape:window-y="105"
     pagecolor="#ffffff"
     inkscape:window-height="743"
     inkscape:grid-bbox="true"
     inkscape:zoom="1"
     inkscape:window-x="214"
     showgrid="false"
     borderopacity="0.13333333"
     inkscape:current-layer="layer1"
     inkscape:cx="-127.22708"
     inkscape:cy="-13.353097"
     inkscape:showpageshadow="false"
     inkscape:window-width="872"
     inkscape:pageopacity="0.0"
     inkscape:document-units="px" />
  <g
     id="layer1"
     inkscape:label="Layer 1"
     inkscape:groupmode="layer">
    <g
       id="g6707"
       style="opacity:0.62886999"
       transform="matrix(0.015187,0,0,0.020868,32.508,31.904)">
      <rect
         id="rect6709"
         style="color:#000000;opacity:0.40206;fill:url(#linearGradient6715)"
         height="478.35999"
         width="1339.6"
         y="-150.7"
         x="-1559.3" />
      <path
         id="path6711"
         sodipodi:nodetypes="cccc"
         style="color:#000000;opacity:0.40206;fill:url(#radialGradient6717)"
         d="m -219.62,-150.68 v 478.33 c 142.88,0.9 345.4,-107.17 345.4,-239.2 0,-132.02 -159.44,-239.13 -345.4,-239.13 z"
         inkscape:connector-curvature="0" />
      <path
         id="path6713"
         sodipodi:nodetypes="cccc"
         style="color:#000000;opacity:0.40206;fill:url(#radialGradient6719)"
         d="m -1559.3,-150.68 v 478.33 c -142.8,0.9 -345.4,-107.17 -345.4,-239.2 0,-132.02 159.5,-239.13 345.4,-239.13 z"
         inkscape:connector-curvature="0" />
    </g>
    <g
       id="g6865"
       transform="matrix(0.015187,0,0,0.020868,42.258,21.904)">
      <rect
         id="rect6867"
         style="color:#000000;opacity:0.40206;fill:url(#linearGradient6715)"
         height="478.35999"
         width="1339.6"
         y="-150.7"
         x="-1559.3" />
      <path
         id="path6869"
         sodipodi:nodetypes="cccc"
         style="color:#000000;opacity:0.40206;fill:url(#radialGradient6717)"
         d="m -219.62,-150.68 v 478.33 c 142.88,0.9 345.4,-107.17 345.4,-239.2 0,-132.02 -159.44,-239.13 -345.4,-239.13 z"
         inkscape:connector-curvature="0" />
      <path
         id="path6871"
         sodipodi:nodetypes="cccc"
         style="color:#000000;opacity:0.40206;fill:url(#radialGradient6719)"
         d="m -1559.3,-150.68 v 478.33 c -142.8,0.9 -345.4,-107.17 -345.4,-239.2 0,-132.02 159.5,-239.13 345.4,-239.13 z"
         inkscape:connector-curvature="0" />
    </g>
    <ellipse
       id="path29431"
       style="color:#000000;display:block;opacity:0.12025003;fill:url(#radialGradient29439)"
       transform="matrix(1.3728,0,0,1.0924,-10.337,0.23562)"
       cx="29.496454"
       cy="27.645426"
       rx="11.515739"
       ry="3.9901025" />
    <path
       id="rect29408"
       style="color:#000000;display:block;fill:url(#linearGradient29429);stroke:#787878"
       d="m 18.402,6.5709 c -1.072,0 -1.921,0.8634 -1.921,1.9135 v 15.062 c 0,1.05 0.849,1.883 1.921,1.883 h 14.137 c 0.856,1.103 2.523,2.893 6.517,4.382 -1.778,-2.049 -1.774,-3.44 -1.574,-4.382 h 2.897 c 1.071,0 1.952,-0.833 1.952,-1.883 V 8.4844 c 0,-1.0497 -0.881,-1.9131 -1.952,-1.9131 H 18.402 Z"
       inkscape:connector-curvature="0" />
    <path
       id="path29445"
       sodipodi:nodetypes="cccccccccccc"
       style="color:#000000;display:block;fill:none;stroke:#ffffff"
       d="m 18.813,7.5755 c -0.918,0 -1.292,0.437 -1.292,1.337 v 13.868 c 0,0.9 0.727,1.614 1.646,1.614 h 13.884 c 0.733,0.946 1.303,1.975 3.515,3.1 -0.414,-0.898 -0.065,-2.152 0.216,-3.1 h 3.493 c 0.918,0 1.016,-0.36 1.016,-1.26 V 8.9125 c 0,-0.8995 -0.25,-1.286 -1.168,-1.286 L 18.813,7.576 Z"
       inkscape:connector-curvature="0" />
    <path
       id="path29441"
       style="color:#000000;display:block;fill:url(#linearGradient29443);stroke:#787878"
       d="m 29.776,15.464 c 1.039,0 1.862,0.871 1.862,1.93 v 15.187 c 0,1.059 -0.823,1.898 -1.862,1.898 H 16.064 c -0.831,1.113 -2.447,2.918 -6.3216,4.42 1.7246,-2.066 1.7216,-3.469 1.5266,-4.42 H 8.4597 c -1.039,0 -1.8933,-0.839 -1.8933,-1.898 V 17.394 c 0,-1.059 0.8543,-1.93 1.8933,-1.93 h 21.316 z"
       inkscape:connector-curvature="0" />
    <path
       id="path29449"
       sodipodi:nodetypes="cccccccccccc"
       style="color:#000000;display:block;fill:none;stroke:#ffffff"
       d="m 29.389,16.453 c 0.943,0 1.235,0.461 1.235,1.422 v 14.204 c 0,0.96 -0.242,1.368 -1.184,1.368 H 15.538 c -0.753,1.01 -2.068,2.596 -3.511,3.251 0.403,-1.167 0.248,-2.136 0.173,-3.251 H 8.7928 c -0.9425,0 -1.2123,-0.408 -1.2123,-1.368 V 18.001 c 0,-0.96 0.2698,-1.548 1.2123,-1.548 h 20.596 z"
       inkscape:connector-curvature="0" />
  </g>
  <metadata
     id="metadata36">
    <rdf:RDF>
      <cc:Work>
        <dc:format>image/svg+xml</dc:format>
        <dc:type
           rdf:resource="http://purl.org/dc/dcmitype/StillImage" />
        <cc:license
           rdf:resource="http://creativecommons.org/licenses/publicdomain/" />
        <dc:publisher>
          <cc:Agent
             rdf:about="http://openclipart.org/">
            <dc:title>Openclipart</dc:title>
          </cc:Agent>
        </dc:publisher>
        <dc:title>tango inetrnet group chat</dc:title>
        <dc:date>2010-03-29T08:03:30</dc:date>
        <dc:description>&quot;Group chat&quot; icon from &lt;a href=&quot;http://tango.freedesktop.org/Tango_Desktop_Project&quot;&gt; Tango Project &lt;/a&gt; \n&lt;br&gt;&lt;br&gt;\nSince version 0.8.90 Tango Project icons are Public Domain: &lt;a href=&quot;http://tango.freedesktop.org/Frequently_Asked_Questions#Terms_of_Use.3F&quot;&gt; Tango Project FAQ &lt;/a&gt;</dc:description>
        <dc:source>https://openclipart.org/detail/35209/tango-inetrnet-group-chat-by-warszawianka</dc:source>
        <dc:creator>
          <cc:Agent>
            <dc:title>warszawianka</dc:title>
          </cc:Agent>
        </dc:creator>
        <dc:subject>
          <rdf:Bag>
            <rdf:li>balloon</rdf:li>
            <rdf:li>externalsource</rdf:li>
            <rdf:li>icon</rdf:li>
            <rdf:li>speech</rdf:li>
            <rdf:li>tango</rdf:li>
          </rdf:Bag>
        </dc:subject>
      </cc:Work>
      <cc:License
         rdf:about="http://creativecommons.org/licenses/publicdomain/">
        <cc:permits
           rdf:resource="http://creativecommons.org/ns#Reproduction" />
        <cc:permits
           rdf:resource="http://creativecommons.org/ns#Distribution" />
        <cc:permits
           rdf:resource="http://creativecommons.org/ns#DerivativeWorks" />
      </cc:License>
    </rdf:RDF>
  </metadata>
</svg>
