<?xml version="1.0" encoding="UTF-8" standalone="no"?>
<!-- Created with Inkscape (http://www.inkscape.org/) -->

<svg
   xmlns:dc="http://purl.org/dc/elements/1.1/"
   xmlns:cc="http://creativecommons.org/ns#"
   xmlns:rdf="http://www.w3.org/1999/02/22-rdf-syntax-ns#"
   xmlns:svg="http://www.w3.org/2000/svg"
   xmlns="http://www.w3.org/2000/svg"
   xmlns:sodipodi="http://sodipodi.sourceforge.net/DTD/sodipodi-0.dtd"
   xmlns:inkscape="http://www.inkscape.org/namespaces/inkscape"
   version="1.1"
   width="160"
   height="160"
   id="svg2"
   inkscape:version="0.92.1 r15371"
   sodipodi:docname="surprised-face-of-a-surprised-woman.svg">
  <sodipodi:namedview
     pagecolor="#ffffff"
     bordercolor="#666666"
     borderopacity="1"
     objecttolerance="10"
     gridtolerance="10"
     guidetolerance="10"
     inkscape:pageopacity="0"
     inkscape:pageshadow="2"
     inkscape:window-width="1024"
     inkscape:window-height="715"
     id="namedview27"
     showgrid="false"
     inkscape:zoom="1.5733333"
     inkscape:cx="103.28564"
     inkscape:cy="61.242222"
     inkscape:window-x="0"
     inkscape:window-y="25"
     inkscape:window-maximized="1"
     inkscape:current-layer="svg2" />
  <title
     id="title3024">face of a surprised woman</title>
  <defs
     id="defs4">
    <inkscape:perspective
       sodipodi:type="inkscape:persp3d"
       inkscape:vp_x="0 : 160 : 1"
       inkscape:vp_y="0 : 1066.6667 : 0"
       inkscape:vp_z="320 : 160 : 1"
       inkscape:persp3d-origin="160 : 106.66667 : 1"
       id="perspective28" />
  </defs>
  <metadata
     id="metadata7">
    <rdf:RDF>
      <cc:Work
         rdf:about="">
        <dc:format>image/svg+xml</dc:format>
        <dc:type
           rdf:resource="http://purl.org/dc/dcmitype/StillImage" />
        <dc:title>face of a surprised woman</dc:title>
        <dc:date>04-11-2013</dc:date>
        <dc:creator>
          <cc:Agent>
            <dc:title>Tirso Otero</dc:title>
          </cc:Agent>
        </dc:creator>
        <cc:license
           rdf:resource="http://creativecommons.org/licenses/publicdomain/" />
      </cc:Work>
      <cc:License
         rdf:about="http://creativecommons.org/licenses/publicdomain/">
        <cc:permits
           rdf:resource="http://creativecommons.org/ns#Reproduction" />
        <cc:permits
           rdf:resource="http://creativecommons.org/ns#Distribution" />
        <cc:permits
           rdf:resource="http://creativecommons.org/ns#DerivativeWorks" />
      </cc:License>
    </rdf:RDF>
  </metadata>
  <g
     transform="matrix(0.49759971,0,0,0.49759971,2.0308278,-105.80923)"
     id="layer2">
    <g
       id="g3054">
      <path
         d="m 161.13666,298.29139 c -0.0172,0.88711 -0.18096,1.71002 -0.45469,2.45529 -0.27372,0.74528 -0.65738,1.41291 -1.09124,2.00061 -0.50933,0.68995 -1.08497,1.2864 -1.67323,1.78235 -0.58826,0.49595 -1.17992,0.90225 -1.70961,1.21855 -1.05936,0.63259 -1.87329,0.90937 -1.87329,0.90937 l -1.10943,0.4183 -0.10912,-1.18217 c 0,0 -0.0671,-0.68957 -0.27281,-1.63686 -0.20575,-0.94728 -0.55016,-2.15228 -1.09123,-3.1646 -0.27054,-0.50615 -0.57871,-0.94331 -0.92755,-1.29129 -0.34884,-0.34798 -0.73837,-0.60676 -1.16399,-0.74568 -0.42563,-0.13891 -0.93042,-0.18608 -1.54592,-0.0545 -0.6155,0.13152 -1.34172,0.44174 -2.21886,1.01849 -0.97595,0.64172 -1.91517,1.1878 -2.80084,1.63686 -0.88568,0.44905 -1.72246,0.80407 -2.50985,1.09124 -0.78739,0.28716 -1.51956,0.49872 -2.20067,0.65474 -0.6811,0.15602 -1.30647,0.25355 -1.87329,0.30918 -1.21612,0.11941 -2.15936,0.047 -2.80084,-0.0545 -0.21217,0.95199 -0.48774,1.86766 -0.81843,2.72809 -0.3307,0.86045 -0.71655,1.66567 -1.12761,2.41892 -0.55068,1.00906 -1.13551,1.92137 -1.7278,2.72809 -0.59229,0.80672 -1.18414,1.51515 -1.72779,2.10973 -1.0873,1.18916 -1.99496,1.93696 -2.34617,2.21886 -1.6e-4,0.0302 3.8e-4,0.0608 0,0.0909 -0.0139,1.10871 -0.16165,2.18147 -0.36374,3.1464 -0.20209,0.96493 -0.46496,1.83219 -0.72749,2.56441 -0.52506,1.46443 -1.03668,2.36436 -1.03668,2.36436 l -0.21824,-0.12732 c -0.1105,1.50197 -0.3777,2.86194 -0.7275,4.05578 -0.3498,1.19382 -0.78922,2.23286 -1.20037,3.07365 -0.82229,1.6815 -1.58229,2.60072 -1.58229,2.60072 l -0.10912,-0.0909 c -0.29585,2.28873 -0.73327,4.38521 -1.16399,6.12912 -0.43072,1.74392 -0.85473,3.13527 -1.1458,4.03758 -0.51648,1.60109 -1.1268,3.59631 -1.74599,6.51106 -0.30958,1.45738 -0.6307,3.14721 -0.92755,5.12883 -0.29683,1.9816 -0.57814,4.25659 -0.83661,6.89298 l -0.27281,2.92816 h 0.18187 c 0.0412,2.56056 0.24586,5.02776 0.582,7.40223 0.33613,2.37447 0.80517,4.65632 1.40042,6.85661 0.59524,2.2003 1.30944,4.3275 2.12792,6.36556 0.81847,2.03806 1.74046,3.98678 2.74628,5.8745 1.00581,1.88773 2.09825,3.70687 3.25553,5.45619 1.15727,1.74932 2.38281,3.43324 3.65565,5.05607 1.27284,1.62284 2.59411,3.18406 3.94664,4.69234 1.35253,1.50827 2.7322,2.95931 4.12852,4.36494 1.43365,1.36478 2.95869,2.72759 4.5832,4.05577 1.62451,1.32819 3.34849,2.62177 5.18339,3.89209 0.89597,0.61438 1.85225,1.2457 2.8554,1.83691 1.00315,0.59121 2.05844,1.14502 3.1464,1.65505 1.08797,0.51003 2.21425,0.97502 3.36465,1.34586 1.15041,0.37084 2.31966,0.64482 3.51016,0.81843 0.95313,0.139 1.92345,0.21619 2.89178,0.20007 0.96832,-0.0161 1.93092,-0.12338 2.90996,-0.32739 0.97904,-0.204 1.96108,-0.50294 2.94635,-0.92755 0.98527,-0.4246 1.97752,-0.9771 2.96453,-1.65504 0.74005,-0.49374 2.13926,-1.65314 2.90997,-2.40072 l 0.0364,-0.0364 c 1.25625,-1.23061 2.65954,-2.70139 4.14671,-4.38314 1.48717,-1.68174 3.05779,-3.56711 4.65596,-5.63806 1.59815,-2.07096 3.23042,-4.33106 4.81962,-6.7293 1.58922,-2.39825 3.14107,-4.93869 4.6014,-7.6023 1.46032,-2.66361 2.82607,-5.44455 4.03758,-8.3116 0.60575,-1.43353 1.17036,-2.89218 1.69142,-4.36495 0.52106,-1.47278 0.99723,-2.95161 1.41861,-4.45589 0.42137,-1.50429 0.78454,-3.03696 1.09124,-4.56502 0.3067,-1.52805 0.55046,-3.05731 0.72749,-4.60138 0.17702,-1.54409 0.29501,-3.10359 0.32737,-4.65596 0.0323,-1.55236 -0.0182,-3.10303 -0.1455,-4.65595 0.71132,-0.0684 1.40213,-0.26065 2.12792,-0.40012 0.36289,-0.0698 0.74213,-0.13305 1.12762,-0.1455 0.38547,-0.0125 0.77964,0.0143 1.20036,0.10913 0.50157,0.0544 1.01542,0.15608 1.52773,0.32737 1.37578,-1.66291 2.46634,-3.22807 3.32828,-4.71052 0.86193,-1.48243 1.49033,-2.88024 1.92785,-4.18308 0.43751,-1.30284 0.69775,-2.51333 0.80024,-3.63746 0.10251,-1.12412 0.0522,-2.16375 -0.091,-3.11003 -0.14802,-0.97877 -0.40146,-1.87002 -0.72749,-2.67353 -0.32604,-0.80351 -0.73321,-1.50559 -1.1458,-2.12792 -0.4126,-0.62232 -0.82905,-1.16528 -1.23674,-1.60048 -0.40769,-0.4352 -0.79809,-0.77634 -1.10943,-1.01849 -0.22697,-0.17654 -0.43834,-0.26587 -0.67293,-0.29099 -0.23458,-0.0252 -0.49236,0.014 -0.80024,0.10912 -0.61576,0.19033 -1.35144,0.65942 -2.01879,1.21855 -1.10273,0.9239 -1.9733,2.00195 -2.25523,2.36435 -0.0347,0.19983 -0.0742,0.38021 -0.10912,0.582 -0.0808,0.46881 -0.35743,2.96373 -0.96392,5.58349 -0.30326,1.30989 -0.70348,2.64554 -1.18218,3.78297 -0.23935,0.5687 -0.49334,1.09091 -0.78206,1.52773 -0.28871,0.43682 -0.60398,0.79093 -0.94574,1.03668 -0.20176,-0.72786 -0.29161,-1.38749 -0.32737,-2.00061 -0.0357,-0.61311 -0.0257,-1.17015 0,-1.7096 0.0257,-0.53946 0.0719,-1.05725 0.0545,-1.56411 -0.0173,-0.50687 -0.0898,-1.01239 -0.25462,-1.52773 -0.29126,-1.36328 -0.73705,-2.82566 -1.3095,-4.34678 -0.57243,-1.52112 -1.27153,-3.10099 -2.05515,-4.67413 -0.0152,-0.0243 -0.0214,-0.0484 -0.0364,-0.0727 -0.5813,-0.94603 -1.03353,-1.89351 -1.38224,-2.85541 -0.3487,-0.9619 -0.59386,-1.9382 -0.74568,-2.89178 -1.11652,-1.30902 -2.00975,-2.60057 -2.7099,-3.85571 -0.70016,-1.25513 -1.21235,-2.47675 -1.56412,-3.65565 -0.35175,-1.17889 -0.547,-2.30254 -0.61837,-3.38283 -0.0714,-1.0803 -0.0138,-2.11433 0.12732,-3.07367 -0.53069,-0.45976 -0.92753,-1.01239 -1.23674,-1.58229 -0.30921,-0.56989 -0.53081,-1.15703 -0.69112,-1.69141 -0.0894,-0.29793 -0.14349,-0.57867 -0.20005,-0.83662 -1.73461,0.89273 -3.5685,1.48214 -5.1652,2.20066 l -1.76417,0.78206 c 0.0298,0.74231 -0.0458,1.46402 -0.25462,2.10973 l -0.74566,2.30978 -0.94574,-2.23704 c -0.37609,-0.88566 -0.81984,-1.65415 -1.30948,-2.32798 -0.48964,-0.67381 -1.02498,-1.2551 -1.58229,-1.74597 -0.55731,-0.49088 -1.1305,-0.88173 -1.70961,-1.21856 -0.57912,-0.33682 -1.17276,-0.60675 -1.7278,-0.81842 -1.11006,-0.42335 -2.11687,-0.6314 -2.8554,-0.7275 -0.73853,-0.0961 -1.20037,-0.0909 -1.20037,-0.0909 l -0.34555,-1.74598 c 1.17774,-0.47931 2.27777,-0.78894 3.31009,-0.92756 0.77423,-0.104 1.51395,-0.11448 2.20066,-0.0545 0.68671,0.0599 1.31626,0.20147 1.90966,0.40012 0.59342,0.19865 1.14251,0.45165 1.63687,0.76387 0.49435,0.3122 0.93812,0.67246 1.32767,1.07304 0.61089,0.62823 1.10291,1.33808 1.47317,2.07336 0.37026,0.73527 0.61877,1.496 0.74567,2.25522 l 0.61837,-1.05486 c -0.0174,-0.011 0.063,-0.28644 0.0545,-0.60018 -0.0113,-0.41832 -0.0824,-0.99723 -0.20006,-1.67323 -0.11756,-0.67601 -0.28028,-1.44319 -0.50924,-2.25523 -0.22897,-0.81204 -0.52417,-1.66894 -0.87299,-2.50985 -0.34884,-0.84091 -0.76724,-1.6695 -1.23674,-2.43709 -0.46951,-0.76761 -0.99011,-1.47421 -1.56412,-2.07336 -0.57399,-0.59915 -1.18642,-1.0839 -1.8551,-1.4368 -0.66867,-0.35289 -1.39359,-0.57392 -2.18248,-0.61837 -1.88113,-0.10602 -3.51583,-0.29738 -4.91057,-0.54562 -1.39475,-0.24822 -2.54954,-0.55327 -3.47378,-0.83661 -0.54806,-0.16802 -0.99093,-0.33851 -1.38223,-0.49106 z m -57.27183,44.30428 c -0.36682,0.0162 -0.72477,0.11717 -1.07305,0.41831 -0.34829,0.30115 -0.68689,0.8025 -1.03668,1.61867 -0.35066,0.81822 -0.57065,1.73506 -0.69112,2.70991 -0.12047,0.97485 -0.14301,2.02179 -0.0727,3.09184 0.0703,1.07006 0.23315,2.1699 0.45468,3.27372 0.22153,1.10382 0.50329,2.19755 0.83661,3.27371 0.5651,1.82446 1.2474,3.57092 1.92786,5.07427 0.68046,1.50333 1.35909,2.76355 1.89148,3.63746 0.36888,-0.18251 0.73969,-0.3267 1.10943,-0.41832 0.66602,-0.16504 1.31825,-0.18631 1.92785,-0.10912 0.6096,0.0772 1.1779,0.2496 1.69141,0.47287 0.55546,0.2415 1.05586,0.54598 1.49136,0.8548 0.26707,-0.4641 0.75794,-0.85471 1.40043,-1.32767 l -1.25493,-2.63716 c -0.33446,-0.69932 -0.61887,-1.47546 -0.8548,-2.30978 -0.23594,-0.83434 -0.42339,-1.72688 -0.582,-2.65535 l -0.32342,-0.92388 c -0.18771,-0.53968 -0.89333,-0.58204 -1.17261,-0.42936 -0.39405,0.45672 -0.6899,1.18719 -0.94106,1.77154 -0.12819,0.29821 -0.20135,0.56076 -0.21826,0.80025 -0.017,0.23949 0.0225,0.4559 0.12732,0.65474 0.55922,0.68457 0.88953,1.00752 1.1458,1.38224 0.25627,0.37471 0.4385,0.80118 0.70931,1.69141 -0.88768,-0.22544 -1.60807,-0.52092 -2.18248,-0.89118 -0.57442,-0.37024 -1.00287,-0.81525 -1.27311,-1.32766 -0.27021,-0.51242 -0.35195,-1.04347 -0.32737,-1.56411 0.0246,-0.52065 0.15545,-1.03089 0.34556,-1.47317 0.18102,-0.42117 0.41426,-0.80682 0.65474,-1.16399 -0.29389,0.0202 -0.58679,-0.0444 -0.85481,-0.18188 -0.268,-0.13744 -0.51787,-0.34849 -0.72749,-0.60018 -0.20961,-0.25168 -0.37235,-0.55039 -0.49105,-0.87298 -0.11871,-0.32261 -0.18661,-0.66835 -0.18188,-1.0185 0.04,-0.58074 0.26524,-1.12139 0.61837,-1.47317 -0.56658,-0.32902 -1.04646,-0.5051 -1.38223,-0.60018 -0.33577,-0.095 -0.52743,-0.10912 -0.52743,-0.10912 0.11628,-0.20046 0.27296,-0.34015 0.47287,-0.4365 0.1999,-0.0963 0.44613,-0.1425 0.7093,-0.1455 0.52633,-0.006 1.1615,0.16998 1.81873,0.47288 0.65723,0.30288 1.33897,0.72918 1.96422,1.25492 0.62526,0.52573 1.18825,1.13799 1.61868,1.80054 -0.17294,-2.09862 -0.21741,-4.25265 -0.20006,-6.32918 l -0.0727,0.0364 c 0,0 -0.42606,-0.63128 -1.10943,-1.45499 -0.68336,-0.82369 -1.62404,-1.8398 -2.61897,-2.61897 -0.49746,-0.38958 -1.00267,-0.69806 -1.47317,-0.90937 -0.4705,-0.21129 -0.9063,-0.32542 -1.27311,-0.30918 z m 3.2919,10.73052 c -0.005,0.029 -0.0253,0.0583 -0.0364,0.21825 -0.0272,0.39373 0.0807,1.21645 0.49106,2.49166 0.41213,-0.60237 0.82206,-1.0582 1.14581,-1.38224 -0.34564,-0.51163 -0.70011,-0.94118 -1.05487,-1.30949 l -0.0727,0.12731 c 0,0 -0.1142,-0.0604 -0.27281,-0.10912 -0.0793,-0.0243 -0.15403,-0.0317 -0.20006,-0.0364 z m 62.30971,71.40337 c -0.93809,0.49925 -1.87634,0.90505 -2.81903,1.21855 -0.94268,0.31348 -1.88176,0.54453 -2.81904,0.69111 -0.93727,0.14657 -1.87902,0.20156 -2.80084,0.20005 -0.92181,-0.002 -1.83175,-0.0693 -2.7281,-0.20005 -1.2086,-0.17625 -2.37986,-0.46223 -3.52833,-0.81843 0.0893,0.91698 0.1727,2.1477 0.20006,3.56471 0.0274,1.41702 0.005,3.01887 -0.1455,4.72871 -0.15113,1.70982 -0.42677,3.51525 -0.87299,5.31069 -0.22311,0.89771 -0.49969,1.79327 -0.81843,2.67353 -0.31874,0.88026 -0.68048,1.7457 -1.10943,2.58259 1.10685,1.55277 2.1412,3.22583 3.09185,4.96515 0.95065,1.7393 1.81761,3.54486 2.61897,5.40163 0.79826,-0.36338 2.32427,-1.12814 4.16489,-2.38254 0.92031,-0.62721 1.92306,-1.374 2.94635,-2.25523 1.02327,-0.88124 2.07068,-1.89935 3.09184,-3.05547 -0.31906,-2.52565 -0.4474,-4.93731 -0.45469,-7.20218 -0.007,-2.26485 0.11101,-4.37812 0.3092,-6.31098 0.19817,-1.93288 0.46651,-3.69006 0.76386,-5.21977 0.29734,-1.5297 0.61918,-2.83672 0.90936,-3.89207 z"
         id="path4403"
         style="fill:#ffec92;stroke:none;stroke-width:1.06666672"
         inkscape:connector-curvature="0" />
      <path
         d="m 161.86667,247.83333 c 0.0119,0.99647 -0.0334,2.32049 -0.3,3.86667 l -0.0334,0.2 -0.0999,0.16667 c -0.64242,0.93569 -1.39099,1.74166 -2.16666,2.4 -0.77566,0.65832 -1.57781,1.17753 -2.43334,1.6 -0.85553,0.42246 -1.75131,0.73856 -2.63333,0.96666 -0.88202,0.22811 -1.74489,0.35809 -2.6,0.43334 -0.85511,0.0752 -1.71196,0.1289 -2.5,0.1 -0.78804,-0.0289 -1.5215,-0.10764 -2.2,-0.2 -1.35701,-0.18472 -2.43593,-0.47298 -3.1,-0.66667 -0.79839,-0.23286 -1.50956,-0.67422 -2.2,-1.2 -0.69043,-0.52578 -1.38308,-1.12297 -2.13333,-1.73333 -0.73738,-0.5999 -1.50663,-1.20349 -2.4,-1.73334 -0.89338,-0.52983 -1.9062,-1.01532 -3.03334,-1.33333 -1.22412,-0.005 -2.35791,0.12074 -3.4,0.3 -1.0421,0.17923 -1.98883,0.42756 -2.86666,0.76667 -0.87783,0.33909 -1.66869,0.75878 -2.4,1.23333 -0.73131,0.47455 -1.39745,1.0144 -2,1.6 -0.60816,0.59104 -1.174,1.21379 -1.66667,1.9 -0.49266,0.68622 -0.91179,1.41035 -1.3,2.16667 -0.38821,0.75633 -0.73853,1.56529 -1.03333,2.36666 -0.29481,0.80138 -0.55424,1.61196 -0.76667,2.43334 -0.40293,1.55802 -0.667,3.10506 -0.83333,4.56666 -0.16633,1.46161 -0.21598,2.83706 -0.23334,4.03334 -0.0347,2.39254 0.13132,4.08229 0.16667,4.4 1.92691,0.73776 2.98493,1.25242 4.96667,2.3 -0.98378,0.1247 -1.93255,0.11792 -2.8,0.0333 -0.86745,-0.0847 -1.64759,-0.24236 -2.4,-0.5 -0.75241,-0.25763 -1.46136,-0.60572 -2.1,-1 -0.63864,-0.39428 -1.24053,-0.83874 -1.76667,-1.33333 -0.81521,-0.76629 -1.46132,-1.59196 -2.03333,-2.46667 -0.57201,-0.8747 -1.04157,-1.8181 -1.46667,-2.7 -0.68645,1.09953 -1.21862,2.16575 -1.6,3.13333 -0.38138,0.96759 -0.63157,1.83135 -0.76667,2.66667 -0.13509,0.83532 -0.15238,1.63061 -0.0999,2.33333 0.0524,0.70273 0.18561,1.33019 0.36666,1.9 0.20012,0.62977 0.43572,1.19223 0.7,1.66667 0.2643,0.47444 0.54767,0.8823 0.8,1.2 0.50468,0.6354 0.9,0.93333 0.9,0.93333 -0.38696,0.0238 -0.73374,3.2e-4 -1.06666,-0.0667 -0.33294,-0.067 -0.65595,-0.1653 -0.96667,-0.36667 -0.31071,-0.20135 -0.61303,-0.48748 -0.93333,-0.86667 -0.3203,-0.3792 -0.63831,-0.86611 -1,-1.46666 -1.63701,0.18499 -3.11445,0.46281 -4.46667,0.83333 -1.35222,0.37053 -2.605555,0.83597 -3.7,1.36667 -1.094446,0.5307 -2.036309,1.13448 -2.9,1.8 -0.863691,0.66551 -1.640054,1.39169 -2.3,2.16666 -0.693014,0.81381 -1.268805,1.71362 -1.766667,2.63334 -0.49786,0.9197 -0.909459,1.86533 -1.233333,2.86666 -0.323874,1.00134 -0.562285,2.04134 -0.733333,3.1 -0.171048,1.05868 -0.260617,2.14159 -0.3,3.23334 -0.06333,1.75558 0.02739,3.53115 0.233333,5.26666 0.20595,1.73552 0.528944,3.40628 0.9,5 0.371056,1.59373 0.801348,3.10312 1.233333,4.43334 0.431985,1.3302 0.84459,2.48836 1.233334,3.43333 0.261076,-1.74512 0.71657,-3.68975 1.4,-5.9 l 1.733333,0.53333 c -0.59985,1.93994 -1.013313,3.67374 -1.266667,5.2 -0.253353,1.52626 -0.343307,2.84021 -0.333333,4 0.0099,1.1598 0.109862,2.15946 0.3,3 0.190138,0.84054 0.44619,1.53151 0.733333,2.1 0.287145,0.56849 0.621612,1.01157 0.933334,1.36667 0.311721,0.3551 0.600153,0.60641 0.866666,0.8 0.533025,0.38716 0.833334,0.46667 0.833334,0.46667 l -0.500054,1.76666 c 0,0 -0.66316,-0.23145 -1.4,-0.76666 -0.368419,-0.2676 -0.761208,-0.63375 -1.166666,-1.1 C 94.36121,329.00042 93.955906,328.43796 93.6,327.73333 93.237621,327.0159 92.92241,326.19311 92.7,325.2 c -0.222409,-0.99311 -0.363756,-2.15471 -0.366667,-3.46667 -0.682678,0.24234 -1.32795,0.42007 -1.933333,0.5 -0.605385,0.0799 -1.166765,0.071 -1.7,0 -0.639885,-0.0852 -1.214835,-0.29958 -1.733333,-0.56666 -0.518498,-0.26709 -0.970504,-0.60761 -1.366667,-1 -0.41736,-0.41339 -0.790623,-0.8522 -1.1,-1.33334 -0.309376,-0.48114 -0.563396,-1.0007 -0.8,-1.5 -0.143554,0.75367 -0.259045,1.47294 -0.3,2.1 -0.04097,0.62708 -0.02243,1.18503 0.06667,1.63334 0.136815,0.6883 0.377427,1.21046 0.666666,1.63333 0.28924,0.42287 0.653886,0.74261 1.033334,1 0.379455,0.2574 0.789543,0.43657 1.2,0.56667 0.410456,0.13011 0.809119,0.22188 1.166666,0.26666 0.71509,0.0896 1.233334,0.0334 1.233334,0.0334 l 3.366666,-0.33333 -2.733333,2 c -1.339749,0.96235 -2.471367,1.9453 -3.433333,2.96666 -0.961966,1.02136 -1.771662,2.06462 -2.4,3.13334 -0.628338,1.0687 -1.094469,2.16229 -1.433334,3.26666 -0.338866,1.10438 -0.539784,2.20496 -0.633333,3.33334 -0.09355,1.12837 -0.08636,2.29157 0.03333,3.43333 0.119728,1.14176 0.368873,2.29744 0.666667,3.43333 0.297795,1.1359 0.659338,2.25589 1.1,3.36667 0.440662,1.11079 0.95168,2.20022 1.5,3.26667 1.096645,2.13289 2.345003,4.14132 3.633333,5.96666 1.288331,1.82535 2.597209,3.46599 3.766667,4.83334 2.338916,2.7347 4.133333,4.4 4.133333,4.4 -0.620131,-0.14507 -1.241719,-0.36641 -1.833333,-0.66667 -0.591614,-0.30026 -1.154349,-0.69472 -1.733333,-1.13333 -1.157965,-0.87725 -2.297258,-2.00363 -3.5,-3.33334 -0.10064,1.62918 -0.114859,3.17772 -0.03333,4.6 0.08156,1.42229 0.259323,2.70298 0.5,3.93334 0.240678,1.23034 0.556608,2.37993 0.933334,3.43333 0.376724,1.0534 0.810304,2.04192 1.3,2.93333 0.489695,0.89141 1.020409,1.68893 1.6,2.43334 0.579589,0.7444 1.220258,1.42097 1.866666,2.03333 0.646409,0.61237 1.309849,1.17136 2,1.66667 0.690152,0.4953 1.389188,0.94011 2.1,1.33333 1.464793,0.81031 2.961553,1.38985 4.366663,1.83333 1.40511,0.4435 2.72559,0.74717 3.86667,0.93334 2.28214,0.37235 3.83333,0.33333 3.83333,0.33333 -0.55939,0.61742 -1.10601,1.05449 -1.73333,1.3 -0.31367,0.12275 -0.6582,0.20353 -1.03334,0.23333 -0.37512,0.0298 -0.76706,-0.003 -1.23333,-0.0667 -0.10517,1.44675 -0.32157,2.73664 -0.6,3.86666 -0.27842,1.13002 -0.61714,2.11755 -1.03333,2.96667 -0.41619,0.84911 -0.88152,1.56265 -1.4,2.16667 -0.51848,0.60401 -1.1147,1.07192 -1.7,1.46666 -0.49314,0.33258 -0.98195,0.59285 -1.46667,0.8 -0.48472,0.20717 -0.9394,0.38456 -1.4,0.5 -0.921206,0.23089 -1.802811,0.30037 -2.533329,0.36667 0.352711,0.83749 0.765745,1.54129 1.2,2.1 0.434255,0.55871 0.888938,0.95919 1.399999,1.23333 0.62034,0.33278 1.29909,0.52752 2,0.6 0.7009,0.0725 1.44394,0.0467 2.16666,-0.0667 1.04846,-0.16464 2.06535,-0.48405 2.93334,-0.83334 0.86799,-0.34929 1.57041,-0.74306 2.03333,-1 -0.0436,-0.4551 -0.0294,-1.13703 0.0334,-1.93333 0.0626,-0.79629 0.16634,-1.70822 0.36666,-2.53333 0.20032,-0.82511 0.49722,-1.55847 0.86667,-2.1 0.18471,-0.27077 0.40044,-0.49204 0.63333,-0.63334 0.2329,-0.1413 0.48168,-0.22721 0.76667,-0.2 -0.3198,1.03465 -0.54317,2.0011 -0.7,2.93334 -0.15683,0.93223 -0.25381,1.8307 -0.26667,2.66666 -0.0129,0.83597 0.0545,1.65416 0.16667,2.4 0.11213,0.74585 0.28188,1.43815 0.5,2.1 0.21812,0.66186 0.49488,1.28266 0.8,1.86667 0.30512,0.58401 0.62688,1.12102 1,1.63333 0.74625,1.02463 1.62903,1.89199 2.53333,2.66667 0.90154,0.7723 1.82606,1.4282 2.73334,1.96667 0.90726,0.53845 1.77143,0.97061 2.53333,1.3 -0.30582,-0.48334 -0.55789,-1.22109 -0.73333,-2.06667 -0.17544,-0.84557 -0.27989,-1.78947 -0.23334,-2.7 0.0465,-0.91052 0.23988,-1.78847 0.6,-2.46667 0.18006,-0.33909 0.42438,-0.64138 0.7,-0.86666 0.27563,-0.22527 0.58402,-0.35904 0.96667,-0.43334 -0.26059,0.96791 -0.42313,1.85069 -0.5,2.66667 -0.0769,0.81598 -0.0782,1.58092 0,2.26667 0.0782,0.68575 0.22869,1.28946 0.43333,1.86666 0.20464,0.57722 0.46422,1.10964 0.76667,1.6 0.48109,0.78004 1.08635,1.46091 1.76667,2.06667 0.68033,0.60577 1.43756,1.12621 2.2,1.63333 0.12649,-0.78843 0.32888,-1.51497 0.6,-2.2 0.2711,-0.68501 0.62455,-1.31998 1,-1.9 0.37544,-0.58001 0.79383,-1.12657 1.23333,-1.6 0.43949,-0.47344 0.9034,-0.86806 1.36667,-1.23333 0.76376,-0.60221 1.53038,-1.09935 2.2,-1.46667 -1.57337,-1.56479 -3.05114,-3.10961 -4.4,-4.7 -1.34887,-1.59038 -2.55835,-3.20606 -3.7,-4.8 -1.14166,-1.59394 -2.18159,-3.1912 -3.13334,-4.76666 -0.95175,-1.57547 -1.82086,-3.1317 -2.6,-4.66667 -0.77913,-1.53495 -1.47619,-3.02758 -2.1,-4.5 -0.6238,-1.47242 -1.18089,-2.91216 -1.66666,-4.3 -0.97157,-2.77568 -1.67679,-5.36149 -2.2,-7.66667 -0.3681,0.49419 -0.78987,0.88798 -1.23334,1.23334 -0.44346,0.34536 -0.90692,0.6274 -1.4,0.83333 -0.49307,0.20593 -1.01641,0.35746 -1.53333,0.43333 -0.51693,0.0758 -1.05166,0.0782 -1.56667,0.0334 -0.73299,-0.0638 -1.66383,-0.28531 -2.6,-0.7 -0.46808,-0.20734 -0.91886,-0.45388 -1.36666,-0.76667 -0.44781,-0.3128 -0.88653,-0.66995 -1.26667,-1.1 -0.38014,-0.43004 -0.70232,-0.93475 -0.93333,-1.5 -0.23101,-0.56524 -0.37956,-1.19305 -0.36667,-1.86666 0.0129,-0.67361 0.16809,-1.3893 0.46667,-2.13334 0.29857,-0.74403 0.7551,-1.52719 1.36666,-2.33333 0.4238,-0.55863 0.85562,-1.04018 1.3,-1.43333 -0.60507,-0.9732 -1.3202,-2.2921 -2.03333,-3.86667 -0.71313,-1.57458 -1.40183,-3.40208 -2,-5.33333 -0.3487,-1.12581 -0.689618,-2.25952 -0.933329,-3.43334 -0.24371,-1.17381 -0.387533,-2.36439 -0.466667,-3.53333 -0.07914,-1.16894 -0.07839,-2.32217 0.06667,-3.43333 0.145033,-1.11117 0.404543,-2.19949 0.833336,-3.2 0.21483,-0.50128 0.46164,-0.95115 0.73333,-1.33334 0.2717,-0.38218 0.58398,-0.70502 0.9,-0.96666 0.31603,-0.26166 0.65219,-0.46034 1,-0.6 0.34782,-0.13967 0.69959,-0.21709 1.06667,-0.23334 0.73416,-0.0324 1.43753,0.13881 2.1,0.43334 0.66247,0.29454 1.28588,0.71184 1.86667,1.16666 1.06476,0.83386 2.01419,1.84705 2.73333,2.7 0.0355,-0.95779 0.19775,-2.77204 0.56667,-4.43333 0.18447,-0.83065 0.43723,-1.61919 0.73333,-2.23333 0.14804,-0.30708 0.28719,-0.59609 0.46667,-0.8 0.17948,-0.20391 0.38672,-0.33196 0.6,-0.4 0,0 -0.12789,1.12728 -0.26667,2.9 -0.13877,1.7727 -0.28829,4.17577 -0.33333,6.83333 -0.0299,1.76057 -0.01,3.62654 0.0999,5.43333 0.10948,1.8068 0.31694,3.56941 0.6,5.16667 0.48768,-3.74279 1.01005,-6.65005 1.53334,-8.96667 0.52327,-2.31663 1.02838,-4.04132 1.46666,-5.4 0.25574,-0.7928 0.62601,-1.98922 1,-3.46666 0.37399,-1.47743 0.76702,-3.23334 1.06667,-5.16667 0.29966,-1.93333 0.5006,-4.03951 0.53333,-6.2 0.0163,-1.08026 -0.0134,-2.17251 -0.0999,-3.26667 -0.0865,-1.09415 -0.21995,-2.1872 -0.43334,-3.26666 0.55333,0.31684 0.97275,0.76996 1.3,1.33333 0.32726,0.56336 0.54313,1.20926 0.7,1.93333 0.15688,0.72408 0.25783,1.53435 0.3,2.33334 0.0422,0.79897 0.05,1.61192 0.0334,2.4 0.35984,-0.77288 0.7166,-1.69407 1,-2.76667 0.28341,-1.07259 0.47509,-2.2887 0.53333,-3.63333 0.0582,-1.34462 -0.0177,-2.81105 -0.33333,-4.4 -0.15783,-0.79448 -0.38747,-1.64964 -0.66667,-2.5 -0.2792,-0.85037 -0.61417,-1.73054 -1.03333,-2.63334 0.56486,0.13303 1.03974,0.4145 1.43333,0.76667 0.39359,0.35217 0.72738,0.79925 1,1.33333 0.27262,0.53408 0.46473,1.15461 0.66667,1.83334 0.20195,0.67873 0.3851,1.41386 0.56667,2.2 0.17051,-0.58381 0.31914,-1.25121 0.43333,-1.93334 0.11419,-0.68212 0.19072,-1.38986 0.2,-2.13333 0.0121,-0.96983 -0.083,-1.97365 -0.33333,-2.96667 -0.12518,-0.4965 -0.28455,-0.97722 -0.5,-1.46666 -0.21546,-0.48943 -0.47783,-0.99289 -0.8,-1.46667 -0.32218,-0.47377 -0.68799,-0.91713 -1.13334,-1.36667 -0.44534,-0.44953 -0.98171,-0.88328 -1.56666,-1.3 -0.58494,-0.41672 -1.22569,-0.82468 -1.96667,-1.2 -0.74099,-0.37532 -1.55319,-0.74132 -2.46667,-1.06666 0.72136,-0.15762 1.40182,-0.18368 2.06667,-0.13334 0.66486,0.0503 1.29869,0.21207 1.9,0.43334 0.6013,0.22127 1.16929,0.51153 1.7,0.86666 0.53071,0.35514 1.04695,0.74806 1.5,1.2 0.45305,0.45195 0.86501,0.95496 1.23333,1.46667 0.36832,0.5117 0.69013,1.03226 0.96667,1.56667 0.55309,1.06882 0.88971,2.16266 1.03333,3.1 0.58256,-0.55358 1.32792,-1.31729 2.1,-2.26667 0.77209,-0.94939 1.58776,-2.09485 2.3,-3.4 0.45657,-0.84035 0.76164,-1.63386 0.96667,-2.4 0.20502,-0.76615 0.30041,-1.49338 0.3,-2.26667 -4.2e-4,-0.77329 -0.10687,-1.57155 -0.26667,-2.43333 -0.15977,-0.86178 -0.3603,-1.80171 -0.63333,-2.83333 -0.38055,-0.73805 -0.78592,-1.24649 -1.1,-1.56667 -0.31408,-0.32019 -0.53333,-0.46667 -0.53333,-0.46667 0.25704,-0.17178 0.48854,-0.30883 0.73333,-0.4 0.24478,-0.0912 0.47756,-0.12065 0.73333,-0.0667 0.25578,0.054 0.54328,0.203 0.83334,0.46666 0.29004,0.26366 0.58574,0.62879 0.93333,1.16667 -0.26449,-1.47044 -0.4465,-2.67127 -0.56667,-3.8 -0.12017,-1.12873 -0.15102,-2.16201 -0.13333,-3.23333 0.60748,1.06884 1.07685,2.13612 1.46667,3.16666 0.38982,1.03054 0.66776,2.01474 0.86666,3 0.1989,0.98526 0.33194,1.93369 0.36667,2.86667 0.0348,0.93299 0.003,1.85962 -0.1,2.73333 0.46832,0.0776 1.19793,0.14152 2.3,0.0333 0.98391,-0.0965 2.19812,-0.34781 3.63334,-0.86667 0.7176,-0.25943 1.47801,-0.58443 2.3,-1 0.82198,-0.41556 1.71259,-0.92791 2.63333,-1.53333 0.50977,-0.33519 1.02026,-0.58866 1.5,-0.8 0.47974,-0.21135 0.92034,-0.37256 1.36667,-0.46667 0.44633,-0.0941 0.89046,-0.11652 1.3,-0.1 0.40952,0.0165 0.79732,0.0794 1.16666,0.2 0.73868,0.24108 1.35266,0.65546 1.86667,1.16667 0.51399,0.51121 0.93312,1.10928 1.26667,1.73333 0.42812,0.80102 0.7173,1.58611 0.93333,2.3 0.21603,0.71388 0.34336,1.35529 0.43333,1.9 0.47174,-0.23722 1.0391,-0.55525 1.63334,-1 0.59423,-0.44476 1.21429,-1.01843 1.76666,-1.76667 0.40653,-0.55068 0.72205,-1.14865 0.93334,-1.83333 0.21127,-0.68468 0.32099,-1.44271 0.23333,-2.3 -0.0877,-0.85729 -0.36595,-1.82019 -0.9,-2.9 -0.53406,-1.07982 -1.32587,-2.28369 -2.46667,-3.6 0.6252,0.0304 1.16729,0.19959 1.63334,0.46667 0.46604,0.26708 0.86231,0.63841 1.23333,1.1 0.74204,0.92316 1.35339,2.18521 2.1,3.63333 0.29195,0.144 0.88851,0.40815 2.16667,0.8 0.85552,0.26227 1.94565,0.55911 3.26666,0.8 1.32101,0.24089 2.85837,0.43146 4.66667,0.53333 0.52791,0.0298 1.0488,0.12917 1.53333,0.26667 0.48455,0.13749 0.96073,0.30518 1.4,0.53333 0.87854,0.45628 1.64721,1.08382 2.33334,1.8 0.68613,0.7162 1.2796,1.5387 1.8,2.4 0.5204,0.86132 0.95466,1.75381 1.33333,2.66667 0.37867,0.91286 0.71627,1.82727 0.96667,2.7 0.2504,0.87273 0.4374,1.72341 0.56666,2.46667 0.032,0.18398 0.0465,0.33348 0.0667,0.5 0.39356,-0.49788 0.83391,-1.11211 1.3,-1.86667 0.4661,-0.75456 0.95266,-1.65744 1.4,-2.66667 0.44735,-1.00922 0.86271,-2.13813 1.2,-3.4 0.33729,-1.26187 0.59739,-2.65415 0.73333,-4.16666 0.26862,0.4673 0.47777,0.9571 0.6,1.46666 0.12224,0.50957 0.1665,1.0624 0.16667,1.6 3.5e-4,1.0752 -0.22475,2.16472 -0.56667,3.26667 -0.34192,1.10195 -0.81041,2.18513 -1.3,3.2 -0.4896,1.01488 -0.99067,1.95269 -1.43333,2.76667 1.02522,-0.43005 2.00663,-0.87922 2.86667,-1.43334 0.44647,-0.28766 0.85258,-0.58607 1.23333,-0.93333 0.38074,-0.34726 0.7309,-0.72747 1.03333,-1.16667 0.30244,-0.4392 0.55515,-0.93654 0.76667,-1.5 0.21151,-0.56345 0.392,-1.21331 0.5,-1.93333 0.39534,0.64334 0.57725,1.31325 0.6,1.93333 0.0227,0.62008 -0.1176,1.22118 -0.36667,1.8 -0.24906,0.57883 -0.61323,1.11375 -1.03333,1.63334 -0.42009,0.51959 -0.90966,1.0243 -1.4,1.46666 0.0454,0.31122 0.13138,0.73793 0.3,1.3 0.15799,0.52665 0.40748,1.08336 0.7,1.56667 0.0767,-0.23296 0.29614,-0.73967 0.63333,-1.33333 0.33721,-0.59366 0.78207,-1.27182 1.26667,-1.9 0.4846,-0.62818 1.01441,-1.19681 1.53333,-1.53334 0.25946,-0.16826 0.51983,-0.29914 0.76667,-0.33333 0.24684,-0.0342 0.47993,0.0254 0.7,0.16667 0,0 -0.57749,0.53758 -1.26667,1.53333 -0.34458,0.49788 -0.71128,1.12233 -1.06666,1.83333 -0.35538,0.71102 -0.67482,1.49975 -0.93334,2.4 -0.22483,0.78295 -0.39125,1.66258 -0.46666,2.56667 -0.0754,0.90407 -0.0847,1.85004 0.0667,2.86667 0.15146,1.01664 0.44423,2.0794 0.9,3.2 0.45579,1.12059 1.09577,2.28402 1.93334,3.5 0.0339,-1.45328 0.22595,-2.80865 0.5,-4.06667 0.27406,-1.25802 0.61823,-2.41596 0.96666,-3.36667 0.69689,-1.90143 1.4,-3.06666 1.4,-3.06666 0.17881,0.40695 0.23156,0.89068 0.23334,1.43333 0.002,0.54266 -0.0574,1.14188 -0.16667,1.8 -0.21838,1.31626 -0.60075,2.8432 -0.86667,4.5 -0.13295,0.82841 -0.25424,1.68346 -0.3,2.56667 -0.0458,0.88321 -0.007,1.81554 0.1,2.73333 0.1075,0.91779 0.30652,1.83452 0.63333,2.76667 0.32682,0.93215 0.78782,1.8737 1.4,2.8 v 0.0334 l 0.0334,0.0334 c 0.79589,1.5918 1.51184,3.20427 2.1,4.76667 0.58816,1.5624 1.04144,3.081 1.36667,4.53333 0.31601,-1.5923 0.61904,-3.20746 0.9,-4.83333 0.20703,-1.1965 0.29544,-3.03602 0.73333,-4.63334 0.21894,-0.79865 0.53054,-1.52836 1,-2.1 0.23474,-0.28582 0.51187,-0.54516 0.83333,-0.73333 0.32146,-0.18816 0.67573,-0.30342 1.1,-0.36667 -0.21791,0.49552 -0.45534,1.17275 -0.66666,2 -0.17,0.66548 -0.30631,1.42407 -0.46667,2.23334 0.15938,-0.14603 0.2965,-0.29077 0.46667,-0.43334 0.38732,-0.32451 0.79487,-0.62842 1.23333,-0.9 0.43847,-0.27157 0.90406,-0.51338 1.4,-0.66666 0.49594,-0.1533 1.05984,-0.20118 1.6,-0.13334 0.54016,0.0678 1.09213,0.26426 1.56667,0.63334 0.39016,0.30346 0.85472,0.72345 1.33333,1.23333 0.47861,0.50989 0.96189,1.1176 1.43333,1.83333 0.47145,0.71575 0.89802,1.5123 1.26667,2.43334 0.36865,0.92103 0.69641,1.97423 0.86667,3.1 0.16236,1.07362 0.17833,2.22522 0.0667,3.46666 -0.11172,1.24144 -0.37255,2.56454 -0.83333,3.96667 -0.46078,1.40213 -1.11519,2.87761 -2,4.43333 -0.88481,1.55572 -1.98286,3.19783 -3.36667,4.9 0.36567,0.29872 0.69734,0.66582 0.96667,1.1 0.26932,0.43418 0.47886,0.93467 0.6,1.5 0.13166,0.61441 0.20128,1.26772 0.2,1.9 -0.001,0.63229 -0.0673,1.25468 -0.2,1.86667 -0.1328,0.61199 -0.3371,1.17982 -0.6,1.73333 -0.26291,0.55352 -0.60838,1.07646 -1,1.53334 -0.39161,0.45687 -0.83881,0.86772 -1.36667,1.16666 -0.52787,0.29894 -1.12334,0.49151 -1.76666,0.56667 -0.47696,0.0557 -0.9823,0.053 -1.5,-0.0334 -0.51771,-0.0862 -1.05594,-0.26177 -1.6,-0.5 -0.2912,1.93564 -0.69136,3.8693 -1.16667,5.76667 -0.47531,1.89735 -1.03479,3.75406 -1.66667,5.6 -0.63186,1.84595 -1.33911,3.68527 -2.1,5.46667 -0.76087,1.78139 -1.57098,3.4963 -2.43333,5.2 -0.86234,1.70371 -1.76375,3.3871 -2.7,5 -0.93626,1.61288 -1.88405,3.19106 -2.86667,4.7 -1.96523,3.01788 -4.0146,5.77672 -6,8.3 0.16834,0.36 0.39595,0.6918 0.7,0.96666 0.30405,0.27487 0.69914,0.50136 1.13334,0.73334 1.05975,0.56615 2.4315,1.00099 3.83333,1.43333 0.70092,0.21617 1.39619,0.40391 2.06667,0.66667 0.67047,0.26276 1.33616,0.59395 1.9,1 0.59743,0.43024 1.08108,1.03329 1.4,1.73333 0.4133,-0.68017 0.59954,-1.39687 0.66666,-2.1 0.0671,-0.70314 0.002,-1.39446 -0.13333,-2.06667 -0.18227,-0.89962 -0.46972,-1.69587 -0.73333,-2.26666 -0.26362,-0.57079 -0.5,-0.93334 -0.5,-0.93334 0.35084,0.038 0.65798,0.0789 0.93333,0.13334 0.27536,0.0543 0.53577,0.13079 0.76667,0.3 0.2309,0.16919 0.41585,0.41733 0.63333,0.8 0.21748,0.38267 0.46491,0.90528 0.7,1.6 0.0293,0.14491 0.0435,0.31559 0.0667,0.46666 0.63734,-0.67861 1.09852,-1.36754 1.46666,-2.03333 0.36813,-0.66578 0.61343,-1.32446 0.76667,-1.96667 0.15324,-0.6422 0.24067,-1.25879 0.23333,-1.86666 -0.007,-0.60789 -0.0864,-1.20388 -0.2,-1.76667 -0.13105,-0.64927 -0.31721,-1.27694 -0.53333,-1.83333 -0.21612,-0.5564 -0.47696,-1.03144 -0.7,-1.46667 -0.22304,-0.43524 -0.40453,-0.80875 -0.56667,-1.1 -0.0811,-0.14562 -0.17188,-0.27255 -0.23333,-0.4 -0.0614,-0.12746 -0.16667,-0.17581 -0.16667,-0.6 0.48444,0.11023 0.93318,0.22512 1.3,0.4 0.36683,0.17489 0.66875,0.41805 0.96667,0.76667 0.29793,0.34862 0.58893,0.8019 0.86667,1.43333 0.27774,0.63143 0.52706,1.44333 0.83333,2.46667 0.0763,0.37777 0.13151,0.762 0.16667,1.16666 0.38802,0.36268 1.02204,0.64413 1.86666,0.8 1.01074,0.18654 2.27423,0.19365 3.46667,0.1 0.99371,-0.0781 1.86009,-0.22811 2.63333,-0.36667 -0.70996,-0.58 -1.53635,-1.24513 -2.36666,-2.2 -0.4794,-0.5513 -0.93652,-1.15913 -1.36667,-1.83333 -0.43014,-0.6742 -0.8282,-1.41648 -1.13333,-2.2 -0.30514,-0.78352 -0.52898,-1.62073 -0.63334,-2.5 -0.10432,-0.87929 -0.0722,-1.80521 0.1,-2.76667 0.30122,-1.68179 0.3818,-3.1855 0.36667,-4.5 -0.0152,-1.3145 -0.12922,-2.42156 -0.3,-3.33333 -0.34158,-1.82355 -0.83334,-2.83333 -0.83334,-2.83333 0.5683,0.001 1.01008,0.16718 1.36667,0.46666 0.35658,0.29948 0.62897,0.75665 0.83333,1.26667 0.20436,0.51002 0.32172,1.10033 0.43334,1.73333 0.11161,0.633 0.22164,1.29822 0.3,1.96667 0.45377,-0.007 1.42536,-0.0584 2.7,-0.43333 0.63732,-0.1875 1.36489,-0.45398 2.1,-0.83334 0.7351,-0.37936 1.50539,-0.89552 2.26666,-1.53333 1.01882,-0.8536 1.90966,-1.68051 2.66667,-2.5 0.75701,-0.8195 1.37546,-1.61753 1.9,-2.4 0.52455,-0.78249 0.94525,-1.55744 1.26667,-2.3 0.3214,-0.74255 0.55238,-1.46694 0.7,-2.16667 0.1476,-0.69972 0.19606,-1.3702 0.2,-2.03333 0.004,-0.66311 -0.049,-1.30807 -0.16667,-1.93333 -0.11774,-0.62527 -0.2826,-1.21385 -0.5,-1.8 -0.21739,-0.58617 -0.47164,-1.1542 -0.76667,-1.7 -0.59006,-1.09161 -1.33782,-2.10721 -2.1,-3 -0.76217,-0.89278 -1.54046,-1.68537 -2.26666,-2.33334 -0.7262,-0.64796 -1.41026,-1.16718 -1.9,-1.53333 -0.24487,-0.18308 -0.44796,-0.32399 -0.6,-0.43333 -0.0761,-0.0546 -0.1122,-0.0597 -0.16667,-0.0999 -0.0545,-0.0403 -0.0766,-0.0433 -0.2,-0.16667 0.37684,-0.15765 0.77474,-0.21201 1.16667,-0.2 0.39192,0.012 0.76769,0.0795 1.16666,0.23334 0.79794,0.30764 1.62207,0.8922 2.4,1.6 0.77792,0.70779 1.50638,1.54818 2.2,2.43333 0.69362,0.88514 1.35497,1.79365 1.9,2.63333 0.31019,0.57385 0.56108,1.17233 0.8,1.8 l 0.0999,-0.16666 c 0.24095,0.14828 0.59383,0.30025 1,0.4 0.40617,0.0997 0.87773,0.17589 1.4,0.2 0.52226,0.0241 1.11072,-0.0219 1.7,-0.0999 0.58929,-0.0786 1.19279,-0.22498 1.8,-0.43333 0.60721,-0.20837 1.21325,-0.45681 1.8,-0.8 0.58675,-0.34319 1.13551,-0.7681 1.66667,-1.26667 0.53115,-0.49857 1.02625,-1.09215 1.46666,-1.76667 0.44043,-0.67451 0.81881,-1.42899 1.13334,-2.3 v -0.0334 h 0.0334 c 0.45542,-1.16383 0.80728,-2.29874 1.1,-3.4 0.29272,-1.10127 0.51865,-2.16222 0.66667,-3.2 0.14802,-1.03778 0.24534,-2.05997 0.26667,-3.03334 0.0213,-0.97336 -0.0122,-1.89196 -0.0999,-2.8 -0.0874,-0.90803 -0.25523,-1.79155 -0.43333,-2.63333 -0.1781,-0.84178 -0.38251,-1.65873 -0.63334,-2.43333 -0.50165,-1.54921 -1.1154,-2.95836 -1.8,-4.23334 -0.68459,-1.27497 -1.44324,-2.42436 -2.16666,-3.4 -0.72344,-0.97564 -1.41106,-1.76996 -2.03334,-2.43333 -1.24454,-1.32674 -2.16666,-2.03333 -2.16666,-2.03333 0.39979,-0.21532 0.79275,-0.3082 1.16666,-0.3 0.37391,0.009 0.72891,0.13516 1.1,0.33333 0.37111,0.19817 0.74198,0.47872 1.13334,0.83333 0.39136,0.35461 0.79863,0.7558 1.23333,1.23334 0.77412,-0.54081 1.43868,-1.05744 1.96667,-1.6 0.52799,-0.54256 0.91234,-1.09643 1.23333,-1.63334 0.32099,-0.5369 0.58021,-1.07614 0.73333,-1.6 0.15312,-0.52386 0.20898,-1.02991 0.23334,-1.53333 0.0396,-0.81808 -0.0726,-1.60283 -0.3,-2.33333 -0.2274,-0.73051 -0.55146,-1.4085 -0.9,-2.03334 -0.2827,0.27296 -0.60644,0.52042 -1,0.73334 -0.47605,0.25753 -1.0088,0.46795 -1.66667,0.63333 -0.65787,0.16538 -1.43965,0.28542 -2.33333,0.36667 l -0.56667,0.0667 -0.3,-0.53333 c -0.36817,-0.67229 -0.52749,-1.37649 -0.56667,-2.1 -0.0391,-0.72351 0.0357,-1.45898 0.23334,-2.16667 0.19753,-0.70769 0.48867,-1.3888 0.83333,-2.06666 0.34466,-0.67787 0.74226,-1.3634 1.16667,-2 0.84882,-1.27323 1.80017,-2.42551 2.6,-3.4 0.6498,-0.79169 1.07593,-1.32512 1.36666,-1.73334 -1.07253,-2.00502 -2.23858,-3.79526 -3.43333,-5.4 -1.19475,-1.60474 -2.42292,-3.01944 -3.66667,-4.26666 -1.24374,-1.24724 -2.48049,-2.33421 -3.7,-3.26667 -1.21952,-0.93247 -2.41127,-1.70621 -3.53333,-2.36667 -1.12206,-0.66046 -2.18196,-1.20212 -3.13333,-1.63333 -0.95138,-0.43121 -1.79253,-0.75527 -2.5,-1 -1.41496,-0.48943 -2.3,-0.66667 -2.3,-0.66667 0.72245,-0.31612 1.43952,-0.47839 2.1,-0.53333 0.66047,-0.0549 1.27503,-0.006 1.9,0.13333 0.62497,0.13889 1.25073,0.368 1.86666,0.63334 0.61594,0.26533 1.23329,0.5756 1.86667,0.9 -0.14565,-0.97119 -0.23772,-1.84004 -0.23333,-2.63334 0.004,-0.7933 0.0869,-1.5278 0.23333,-2.16666 0.19641,-0.85722 0.54379,-1.5717 0.96667,-2.16667 0.42289,-0.59497 0.93265,-1.07237 1.5,-1.4 0.42809,-0.2472 0.8612,-0.38716 1.3,-0.5 0.43879,-0.11285 0.86376,-0.18951 1.3,-0.2 0.87248,-0.021 1.75062,0.13693 2.53333,0.33333 -0.24859,-1.45463 -0.58458,-2.73487 -1,-3.9 -0.41542,-1.16513 -0.91548,-2.20049 -1.46667,-3.1 -0.55118,-0.89951 -1.14414,-1.67556 -1.8,-2.33333 -0.65586,-0.65776 -1.37052,-1.22676 -2.1,-1.66667 -0.78677,-0.47447 -1.62875,-0.80257 -2.46666,-1.06666 -0.83791,-0.26409 -1.68848,-0.45275 -2.53334,-0.53334 -0.84485,-0.0806 -1.65905,-0.0761 -2.46666,0 -0.80762,0.0761 -1.60714,0.22758 -2.33334,0.43334 -2.10462,0.59631 -4.0894,0.9626 -5.83333,1.16666 -1.74393,0.20407 -3.2318,0.26061 -4.3,0.26667 0.49389,0.59585 0.76386,1.07823 0.93333,1.6 0.16946,0.52177 0.23198,1.07887 0.33334,1.83333 -1.15928,-0.83574 -2.11178,-1.70517 -2.9,-2.56666 -0.78822,-0.86151 -1.40062,-1.72677 -1.86667,-2.6 -0.46605,-0.87324 -0.77391,-1.72904 -0.96667,-2.6 -0.19275,-0.87096 -0.29832,-1.74534 -0.26666,-2.6 0.039,-1.0538 0.21669,-2.10143 0.46666,-3.1 0.24997,-0.99858 0.59002,-1.94628 0.93334,-2.9 -0.67566,0.56454 -1.3346,1.06725 -1.96667,1.5 -0.63207,0.43274 -1.25431,0.78264 -1.83333,1.03333 -0.95855,0.41502 -1.83946,0.64017 -2.7,0.66667 -0.86055,0.0264 -1.67192,-0.13061 -2.4,-0.43334 -0.72809,-0.30273 -1.37574,-0.75593 -1.96667,-1.26666 -0.59094,-0.51073 -1.13899,-1.09483 -1.63333,-1.73334 -0.98868,-1.27701 -1.82112,-2.72657 -2.66667,-4.03333 h -0.0334 c -0.84719,-1.34031 -1.6481,-2.41833 -2.43344,-3.30016 -0.78534,-0.88183 -1.52558,-1.58685 -2.23333,-2.1 -0.70774,-0.51315 -1.3857,-0.83259 -2,-1.06667 -0.61431,-0.23409 -1.19499,-0.35536 -1.7,-0.4 -0.66623,-0.0589 -1.23324,-0.009 -1.7,0.1 -0.46675,0.10885 -0.81728,0.26726 -1.06667,0.4 0.0605,0.41249 0.0974,0.8738 0.0667,1.36667 -0.0306,0.49289 -0.13492,1.03426 -0.3,1.5 -0.16507,0.46575 -0.42375,0.86893 -0.76667,1.2 -0.34291,0.33108 -0.7692,0.57778 -1.33333,0.66667 0.40955,-1.06004 0.61811,-2.05993 0.66667,-2.96667 0.0485,-0.90674 -0.0408,-1.73211 -0.26667,-2.5 -0.22592,-0.76788 -0.58614,-1.45654 -1,-2.1 -0.41387,-0.64347 -0.88471,-1.23321 -1.4,-1.76667 -0.56667,-0.58667 -1.15532,-1.0861 -1.7,-1.5 -0.54468,-0.41391 -1.07777,-0.73243 -1.53333,-1 z m 9,62.23334 c 0.92017,0.33234 1.88092,0.79604 2.83333,1.43333 0.95241,0.63729 1.91295,1.47123 2.76667,2.5 -0.14511,-0.40009 -0.34935,-0.79251 -0.56667,-1.16667 -0.21732,-0.37415 -0.4534,-0.74451 -0.76667,-1.06666 -0.48629,-0.50009 -1.09166,-0.90522 -1.8,-1.2 -0.70834,-0.2948 -1.53048,-0.48784 -2.46666,-0.5 z M 141.7,312.83333 c -0.54334,0.23007 -1.00098,0.51822 -1.43333,0.83334 -0.43236,0.31511 -0.83079,0.65684 -1.16667,1.03333 -0.67177,0.75299 -1.16035,1.61019 -1.53333,2.46667 -0.43391,0.99637 -0.6545,1.92552 -0.8,2.7 0.45964,-0.37684 0.95541,-0.8533 1.43333,-1.43334 0.47792,-0.58003 0.9523,-1.27776 1.4,-2 0.77532,-1.25074 1.43354,-2.48071 2.1,-3.6 z"
         id="path4419"
         style="fill:#9cc336;stroke:none;stroke-width:1.06666672"
         inkscape:connector-curvature="0" />
      <path
         d="m 203.76667,361.06667 c -0.50625,0.0114 -0.90308,0.0189 -1.23334,0.0667 0.0669,1.38938 0.0543,2.78358 0,4.16667 -0.0543,1.3831 -0.1412,2.7617 -0.3,4.13333 0.52331,0.2826 0.99711,0.47248 1.43334,0.56667 0.43621,0.0942 0.8159,0.10773 1.16666,0.0667 0.39919,-0.0466 0.77193,-0.17999 1.1,-0.36667 0.32808,-0.18668 0.62908,-0.45059 0.9,-0.76667 0.27094,-0.31608 0.47311,-0.67652 0.66667,-1.1 0.19357,-0.42347 0.36108,-0.88059 0.46667,-1.36666 0.1056,-0.48607 0.193,-0.99616 0.2,-1.5 0.007,-0.50385 -0.0645,-1.02318 -0.16667,-1.5 -0.0942,-0.43936 -0.2431,-0.75665 -0.43333,-1.03334 -0.19024,-0.27668 -0.42746,-0.5183 -0.7,-0.7 -0.54508,-0.36338 -1.2568,-0.55268 -2,-0.63333 -0.37161,-0.0404 -0.75581,-0.0411 -1.1,-0.0334 z M 108.3,366.93333 c -0.21114,0.0107 -0.44918,0.0462 -0.66667,0.0999 -0.43495,0.10778 -0.88386,0.31666 -1.36666,0.66667 -0.48281,0.35001 -0.97439,0.84049 -1.5,1.53333 -0.53164,0.70081 -0.90456,1.33714 -1.13334,1.9 -0.22877,0.56285 -0.32509,1.06938 -0.33333,1.5 -0.008,0.43061 0.0591,0.82125 0.2,1.16667 0.14094,0.34542 0.37042,0.63589 0.63333,0.93333 0.26292,0.29743 0.57773,0.56466 0.93334,0.8 0.3556,0.23534 0.75213,0.46492 1.13333,0.63333 0.7624,0.33685 1.50449,0.49316 1.96667,0.53334 0.51809,0.045 1.01839,0.055 1.5,-0.0334 0.4816,-0.0885 0.94036,-0.23477 1.36666,-0.5 0.42631,-0.26524 0.81448,-0.64816 1.16667,-1.13333 0.35219,-0.48517 0.67408,-1.08504 0.93333,-1.83334 -0.28874,-1.58612 -0.47163,-2.9365 -0.6,-4.1 -0.2036,-0.21652 -0.51539,-0.53626 -0.93333,-0.86666 -0.41794,-0.33041 -0.93826,-0.6891 -1.5,-0.93334 -0.57428,-0.24968 -1.16658,-0.39827 -1.8,-0.36666 z"
         id="path4471"
         style="fill:#ffec3e;stroke:none;stroke-width:1.06666672"
         inkscape:connector-curvature="0" />
      <path
         d="m 102.69884,373.93126 c 0,0 7.81185,3.50186 10.64027,-2.76108 0.74078,1.95296 0.6061,3.63655 0.6061,3.63655 0,0 -5.25279,7.20575 -11.24637,-0.87547 z"
         id="path3031"
         style="fill:#ffcf2d;stroke:none;stroke-width:1.06666672"
         inkscape:connector-curvature="0" />
      <path
         d="m 187.67194,427.27578 c -0.66069,0.0299 -1.46859,0.0833 -2.45529,0.20006 -0.9867,0.11669 -2.15218,0.29657 -3.49197,0.58199 -1.03045,0.21954 -2.10742,0.50647 -3.18277,0.8548 -1.07535,0.34834 -2.14451,0.75489 -3.18278,1.25492 -1.03827,0.50004 -2.0453,1.08953 -2.96453,1.76417 -0.89143,0.59272 -2.37462,1.55489 -2.78265,2.05517 -0.17016,1.64926 -0.28766,3.44299 -0.3092,5.34707 -0.0215,1.90408 0.0529,3.91851 0.25463,6.03819 1.04658,-1.42691 2.12452,-3.13979 3.20097,-4.76508 0.53822,-0.81264 1.08021,-1.61299 1.61866,-2.32798 0.53847,-0.71497 1.06661,-1.35414 1.60049,-1.87329 -0.47796,1.6646 -1.0746,3.22199 -1.74598,4.65595 -0.67138,1.43397 -1.41409,2.74945 -2.21886,3.96484 -0.80476,1.21538 -1.66812,2.31943 -2.54622,3.32828 -0.8781,1.00884 -1.78213,1.91374 -2.67353,2.7281 -0.8914,0.81434 -1.77433,1.55058 -2.61897,2.18247 -0.84465,0.63189 -1.64468,1.17536 -2.38254,1.63685 -1.47572,0.92298 -2.67637,1.50511 -3.36465,1.81873 0.62801,1.55257 1.2111,3.12271 1.74598,4.69233 0.77424,2.27202 1.45264,4.54788 2.03698,6.74749 0.58434,2.19962 1.06804,4.32431 1.47317,6.32919 0.40512,2.00487 0.72734,3.87753 0.96393,5.56531 0.23659,1.68779 0.39412,3.18936 0.47287,4.43771 0.002,0.031 0.0164,0.0783 0.0182,0.10912 -0.9597,-0.89555 -1.41362,-1.50978 -1.8551,-2.21885 -0.44148,-0.70908 -0.87048,-1.51301 -1.74598,-2.78266 -0.9,-1.50577 -2.2825,-3.1846 -4.49226,-5.98363 -0.51174,-0.64819 -1.11108,-1.2616 -1.76417,-1.83691 -0.6531,-0.57532 -1.35545,-1.10215 -2.09155,-1.60048 -1.47219,-0.99669 -3.05653,-1.84572 -4.51045,-2.50986 -1.38683,-0.63348 -2.61829,-1.09755 -3.52833,-1.4186 -0.91005,-0.32107 -1.49868,-0.49913 -1.60049,-0.52744 0,0 -0.0528,-0.0179 -0.0545,-0.0182 -0.0427,-0.005 -0.5221,-0.061 -1.25492,-0.20006 -0.73283,-0.13906 -1.71902,-0.36126 -2.74628,-0.69111 -1.05109,-0.33751 -2.15703,-0.77284 -3.11004,-1.40043 -0.4765,-0.31379 -0.92139,-0.67879 -1.2913,-1.10942 -0.36991,-0.43065 -0.66484,-0.92694 -0.83661,-1.49136 l -0.18187,-0.61837 0.50924,-0.38193 c 0.77441,-0.56321 1.5101,-0.92368 2.36435,-1.52773 0.42712,-0.30203 0.87997,-0.66742 1.38224,-1.1458 0.50226,-0.47839 1.05903,-1.07141 1.67322,-1.83692 -1.15816,-0.27454 -3.39881,-0.82742 -6.27461,-1.67324 -1.89108,-0.5562 -3.82562,-1.18215 -5.41982,-1.83692 -24.87949,54.33233 75.73187,77.77702 71.67617,6.51106 -1.15637,0.30784 -2.32271,0.60436 -3.47377,0.76387 -1.51943,0.21056 -3.00709,0.30667 -4.41952,0.32737 -1.41242,0.0207 -2.75243,-0.0363 -3.94664,-0.12731 -1.19421,-0.0911 -2.24525,-0.22078 -3.11003,-0.34556 0.37757,0.33753 0.72494,0.68597 1.03667,1.03667 l 1.14581,1.2913 -1.70962,0.20006 c -0.88123,0.13488 -1.7464,0.38863 -2.60077,0.70931 -0.85439,0.32067 -1.68995,0.70795 -2.50985,1.16399 -1.63984,0.91208 -3.21792,2.04995 -4.67414,3.20097 -1.45622,1.151 -2.78956,2.32353 -4.00121,3.31009 -1.21165,0.98655 -2.29486,1.78197 -3.20097,2.20066 0,0 0.58357,-0.70547 1.56412,-1.78236 0.98053,-1.07688 2.35802,-2.52518 3.96483,-4.0012 1.37282,-1.26109 2.90346,-2.53097 4.51045,-3.61928 0.80349,-0.54415 1.62103,-1.04735 2.45529,-1.47317 0.83425,-0.42583 1.68155,-0.77927 2.52803,-1.03667 -1.03613,-0.88921 -2.23659,-1.78532 -3.40102,-2.50986 -1.62031,-1.00819 -2.96454,-1.69141 -2.96454,-1.69141 l -0.0727,-0.0364 -0.0728,-0.0545 c 0,0 -0.17474,-0.14026 -0.40012,-0.40012 -0.22537,-0.25987 -0.50137,-0.63935 -0.67293,-1.12762 -0.0858,-0.24413 -0.13563,-0.51869 -0.1455,-0.81843 -0.01,-0.29973 0.0203,-0.62464 0.12732,-0.94574 0.10703,-0.32109 0.27709,-0.62288 0.50925,-0.92755 0.23215,-0.30467 0.52641,-0.61223 0.89116,-0.89118 0.64621,-0.49415 1.30567,-0.95006 1.92787,-1.45497 0.62219,-0.50493 1.20713,-1.05887 1.7096,-1.70962 0.50247,-0.65074 0.94405,-1.40164 1.25493,-2.36435 0.15543,-0.48135 0.27857,-1.02385 0.36374,-1.61866 0.0851,-0.59482 0.12731,-1.2505 0.12731,-1.98243 0,-0.84018 0.0962,-1.69897 0.25462,-2.58259 0.15844,-0.88362 0.38432,-1.78619 0.65474,-2.67353 0.54086,-1.77469 1.25402,-3.52299 1.96424,-5.07426 1.04261,-2.2773 1.59156,-3.15639 2.07335,-3.98302 z m -52.4522,1.61866 c -0.0577,1.39505 -0.15461,2.83386 -0.32737,4.23765 -0.17275,1.40378 -0.42138,2.77254 -0.76387,4.07396 -0.3022,1.14834 -0.66729,2.23712 -1.1276,3.21914 -0.46031,0.98204 -1.01582,1.85735 -1.67324,2.60079 1.3326,0.50744 2.74531,1.07018 4.11033,1.69143 1.36503,0.62124 2.68236,1.30098 3.85571,2.09153 0.68239,0.45976 1.30566,0.95567 1.85511,1.49136 0.54944,0.5357 1.02508,1.11119 1.38223,1.74598 0.35716,0.6348 0.58311,1.33915 0.65474,2.07336 0.0716,0.73421 -0.0111,1.49827 -0.291,2.27341 l -0.0545,0.10913 -0.0545,0.10912 c -0.76346,1.0954 -1.45331,1.98999 -2.09153,2.70991 -0.63823,0.71991 -1.21706,1.27811 -1.74598,1.72779 -1.05786,0.89936 -1.9208,1.35057 -2.63717,1.80055 0.24887,0.36404 0.57941,0.71159 1.07306,1.03667 0.7418,0.4885 1.72207,0.89485 2.67352,1.20036 1.90293,0.61103 3.69204,0.83662 3.69204,0.83662 h 0.0727 l 0.0727,0.0182 c 0,0 0.61702,0.18294 1.61867,0.52742 1.00165,0.34449 2.38793,0.85054 3.91027,1.54593 1.52235,0.69539 3.19483,1.56637 4.78326,2.63716 0.79423,0.53539 1.56961,1.12555 2.29161,1.76417 0.72198,0.63861 1.39183,1.32528 1.98241,2.07335 1.77285,2.24562 2.94002,3.73011 3.89208,5.12882 -0.39463,-2.28447 -0.89999,-4.78739 -1.54592,-7.42042 -0.64593,-2.63304 -1.43242,-5.39616 -2.38253,-8.18429 -0.76419,-2.24253 -1.62311,-4.48235 -2.5826,-6.65656 -0.9595,-2.17419 -2.02702,-4.28192 -3.18278,-6.25642 -1.15577,-1.97451 -2.39358,-3.81275 -3.74658,-5.45619 -0.67651,-0.82173 -1.38375,-1.59546 -2.10973,-2.3098 -0.72599,-0.71433 -1.47963,-1.37371 -2.25523,-1.96422 0.50164,-0.16989 1.01704,-0.16177 1.52773,-0.0182 0.5107,0.14357 1.00883,0.43373 1.52773,0.80023 1.03782,0.73303 2.09904,1.81025 3.1646,2.89179 0.61759,-1.37079 1.07536,-2.81704 1.41862,-4.2922 0.34324,-1.47516 0.57197,-2.97922 0.7093,-4.41952 -0.39408,-0.25243 -1.11693,-0.68946 -2.12792,-1.21855 -1.01098,-0.52909 -2.30156,-1.15178 -3.83752,-1.74599 -1.53597,-0.59419 -3.32348,-1.15271 -5.2925,-1.60048 -0.98452,-0.22388 -2.0163,-0.4162 -3.09186,-0.5638 -1.07554,-0.14761 -2.19138,-0.2643 -3.34646,-0.30919 z"
         id="path4395"
         style="fill:#e4a6ca;stroke:none;stroke-width:1.06666672"
         inkscape:connector-curvature="0" />
      <path
         d="m 144.0224,322.9352 c -0.32967,0 -0.74507,0.10726 -1.21855,0.29099 -0.47348,0.18373 -1.0071,0.44684 -1.56411,0.80024 -0.55701,0.35341 -1.12934,0.78226 -1.70961,1.2913 -0.58025,0.50904 -1.16636,1.09535 -1.7096,1.74598 -0.54324,0.65065 -1.06099,1.36361 -1.52773,2.12792 -0.46674,0.76431 -0.88604,1.58121 -1.23675,2.4371 -0.3507,0.85589 -0.62329,1.74816 -0.81842,2.67353 -0.19512,0.92539 -0.30918,1.88263 -0.30918,2.8554 0,0.9962 0.0784,1.97484 0.21824,2.90998 0.13985,0.93514 0.33645,1.83648 0.60018,2.69172 0.26374,0.85524 0.59224,1.66241 0.96394,2.41891 0.37168,0.7565 0.79123,1.45264 1.25492,2.09154 0.46369,0.63889 0.97338,1.22607 1.50954,1.7278 0.53616,0.50172 1.09513,0.92358 1.69142,1.27311 0.59629,0.34951 1.22922,0.61796 1.8733,0.80023 0.64406,0.18229 1.30291,0.27282 1.98241,0.27282 0.6795,0 1.33835,-0.0906 1.98242,-0.27282 0.64407,-0.18227 1.277,-0.45072 1.87329,-0.80023 0.59629,-0.34953 1.15526,-0.77139 1.69142,-1.27311 0.53617,-0.50173 1.04585,-1.08891 1.50954,-1.7278 0.46369,-0.6389 0.88324,-1.33504 1.25492,-2.09154 0.3717,-0.7565 0.7002,-1.56367 0.96394,-2.41891 0.26373,-0.85524 0.46034,-1.75658 0.60018,-2.69172 0.13984,-0.93514 0.21824,-1.91378 0.21824,-2.90998 0,-0.98091 -0.0963,-1.94379 -0.27281,-2.87359 -0.1765,-0.92979 -0.42441,-1.81645 -0.74567,-2.67353 -0.32126,-0.85707 -0.71154,-1.67434 -1.14581,-2.4371 -0.43426,-0.76276 -0.92128,-1.48106 -1.4368,-2.12791 -0.51551,-0.64685 -1.05626,-1.22117 -1.61866,-1.7278 -0.5624,-0.50663 -1.14125,-0.93922 -1.70961,-1.2913 -0.56836,-0.35207 -1.13984,-0.61704 -1.67323,-0.80024 -0.53339,-0.1832 -1.03387,-0.29099 -1.49136,-0.29099 z"
         id="path4431"
         style="fill:#ffffff;stroke:none;stroke-width:1.06666672"
         inkscape:connector-curvature="0" />
      <path
         d="m 170.73955,321.98945 c -0.3194,0 -0.73061,0.0909 -1.20036,0.27281 -0.46974,0.1819 -0.9887,0.46739 -1.54592,0.81843 -0.55722,0.35104 -1.14596,0.78389 -1.7278,1.2913 -0.58182,0.50741 -1.16605,1.07676 -1.7096,1.7278 -0.54356,0.65104 -1.06094,1.36346 -1.52773,2.12791 -0.46681,0.76445 -0.88611,1.58035 -1.23674,2.4371 -0.35062,0.85675 -0.62341,1.76378 -0.81843,2.69172 -0.19502,0.92795 -0.30918,1.87737 -0.30918,2.85541 0,0.99973 0.0786,1.97106 0.21825,2.90997 0.13961,0.93891 0.33662,1.85124 0.60018,2.70991 0.26355,0.85865 0.59211,1.67811 0.96392,2.4371 0.37182,0.75898 0.79052,1.45166 1.25493,2.09154 0.4644,0.63988 0.97301,1.2094 1.50954,1.7096 0.53654,0.50021 1.09604,0.9443 1.69143,1.2913 0.59539,0.347 1.21412,0.60179 1.8551,0.78205 0.64097,0.18027 1.30913,0.27281 1.98241,0.27281 0.67329,0 1.32496,-0.0926 1.96424,-0.27281 0.63926,-0.18026 1.26198,-0.43505 1.8551,-0.78205 0.59311,-0.347 1.15659,-0.79109 1.69141,-1.2913 0.53484,-0.5002 1.04515,-1.06972 1.50955,-1.7096 0.46442,-0.63988 0.88312,-1.33256 1.25493,-2.09154 0.37182,-0.75899 0.70037,-1.57845 0.96393,-2.4371 0.26355,-0.85867 0.46055,-1.771 0.60018,-2.70991 0.13962,-0.93891 0.21824,-1.91025 0.21824,-2.90997 0,-0.98558 -0.0964,-1.9414 -0.2728,-2.87359 -0.17636,-0.93221 -0.42454,-1.83369 -0.74568,-2.69173 -0.32115,-0.85803 -0.71146,-1.67398 -1.14581,-2.4371 -0.43434,-0.76311 -0.92083,-1.4805 -1.43679,-2.12791 -0.51596,-0.64741 -1.05699,-1.22276 -1.61867,-1.7278 -0.56169,-0.50502 -1.14382,-0.94163 -1.7096,-1.29129 -0.5658,-0.34967 -1.12679,-0.61893 -1.65505,-0.80025 -0.52827,-0.18131 -1.02405,-0.27281 -1.47318,-0.27281 z"
         id="path4427"
         style="fill:#ffffff;stroke:none;stroke-width:1.06666672"
         inkscape:connector-curvature="0" />
      <path
         d="m 166.43333,336.03333 c -0.40028,0 -0.78823,0.0841 -1.13333,0.23334 -0.34509,0.14929 -0.67334,0.36453 -0.93333,0.63333 -0.25998,0.26879 -0.45504,0.57484 -0.6,0.93333 -0.14495,0.3585 -0.23334,0.74826 -0.23334,1.16667 0,0.4184 0.0883,0.84151 0.23334,1.2 0.14496,0.3585 0.34002,0.66453 0.6,0.93333 0.25999,0.2688 0.58824,0.48405 0.93333,0.63334 0.3451,0.1493 0.73305,0.23333 1.13333,0.23333 0.4003,0 0.78623,-0.084 1.13334,-0.23333 0.34709,-0.14929 0.63735,-0.36454 0.9,-0.63334 0.26265,-0.2688 0.48638,-0.57483 0.63333,-0.93333 0.14695,-0.35849 0.23333,-0.7816 0.23333,-1.2 0,-0.41841 -0.0864,-0.80817 -0.23333,-1.16667 -0.14695,-0.35849 -0.37068,-0.66454 -0.63333,-0.93333 -0.26265,-0.2688 -0.55291,-0.48404 -0.9,-0.63333 -0.34711,-0.14929 -0.73304,-0.23334 -1.13334,-0.23334 z m -17.63333,0.3 c -0.37074,0 -0.74704,0.0618 -1.06667,0.2 -0.31962,0.13828 -0.59253,0.35104 -0.83333,0.6 -0.2408,0.24896 -0.43242,0.53464 -0.56667,0.86667 -0.13425,0.33203 -0.2,0.71248 -0.2,1.1 0,0.38752 0.0657,0.73463 0.2,1.06667 0.13425,0.33203 0.32587,0.65104 0.56667,0.9 0.2408,0.24896 0.51371,0.42839 0.83333,0.56666 0.31963,0.13829 0.69593,0.23334 1.06667,0.23334 0.37075,0 0.71186,-0.0951 1.03333,-0.23334 0.32149,-0.13827 0.62341,-0.3177 0.86667,-0.56666 0.24327,-0.24896 0.43055,-0.56797 0.56667,-0.9 0.13609,-0.33204 0.2,-0.67915 0.2,-1.06667 0,-0.38752 -0.0639,-0.76797 -0.2,-1.1 -0.13612,-0.33203 -0.3234,-0.61771 -0.56667,-0.86667 -0.24326,-0.24896 -0.54518,-0.46172 -0.86667,-0.6 -0.32147,-0.13828 -0.66258,-0.2 -1.03333,-0.2 z"
         id="path4443"
         style="fill:#5296cc;stroke:none;stroke-width:1.06666672"
         inkscape:connector-curvature="0" />
      <path
         d="m 160,296.96667 c 0,0 -0.77143,6.27142 -5.53333,8.36666 -1.33334,-5.90476 -3.05238,-6.84285 -6.1,-7.03333 -3.04762,-0.19048 -10.08571,5.89524 -15.8,3.8 -1.52381,4.95238 -5.72381,12.3619 -8.2,12.93333 0.95238,3.04762 -1.13334,7.83334 -1.13334,7.83334 0,0 -1.14284,7.78571 -4,9.5 -0.7619,5.33333 -5.3381,20.58096 -4.76666,22.86666 0,0 6.85714,-13.13809 6.66666,-20.56666 1.90476,-4 7.0619,-12.39524 6.3,-18.3 4.57143,-3.42858 7.6,-8.9381 7.6,-11.03334 4.57144,-0.19047 9.34762,-1.90476 11.63334,-4 3.61905,-1.14285 6.27143,4.75715 5.7,7.23334 2.85714,-0.19048 9.3619,-3.41429 9.93333,-8.36667 5.14286,0.95238 9.11429,2.07143 10.06667,1.5 3.2381,3.42857 7.63809,8.39048 5.73333,14.86667 3.23809,-0.38096 6.86667,-1.7 6.86667,-1.7 0,0 -0.39049,10.1 6.46666,16.76666 1.33334,6.4762 6.35521,10.94754 7.3,20.2 2.09525,-4.95237 1.65238,-7.07618 -3.3,-16.6 -1.90476,-4.95237 -2.66666,-6.46666 -2.66666,-6.46666 0,0 -4.95239,-5.92381 -4,-12.4 C 187.05237,312.36667 186.1,312.2 186.1,312.2 l -4.96667,1.33333 c 0,0 -1.71904,-13.16666 -8.76666,-14.5 C 165.89047,298.65238 160,296.96667 160,296.96667 Z M 205.93333,343.1 204.2,346.8 l 1.73333,2.33333 c 0,0 -0.47395,-5.64754 3.56667,-4.23333 -1.61625,-1.68358 -3.56667,-1.8 -3.56667,-1.8 z m 7.2,0.73333 C 211.11302,354.67564 202.7,359.6 202.7,359.6 c 0,0 1.47835,0.39324 3.63333,1.06667 5.2528,-4.44466 6.86731,-10.77242 6.8,-16.83334 z m -112.16666,2.33334 c -0.72363,5.50979 -0.78371,11.35212 5.13333,21.06666 2.7619,-0.95237 4.45714,-1.5238 6.26667,0.66667 0.66666,-0.95237 0.53333,-1.66667 0.53333,-1.66667 0,0 -2.71428,-2.98096 -6,-1.93333 -1.86152,-3.36848 -6.45366,-12.10238 -5.93333,-18.13333 z m 62.13333,1.7 c 0,0 6.14941,14.80406 14.5,1.13333 -4.10796,2.22234 -8.10237,5.19696 -14.5,-1.13333 z M 136.43333,348.4 c 0,0 6.14941,14.8374 14.5,1.16667 -4.10795,2.22233 -8.10236,5.16362 -14.5,-1.16667 z m 25.6,32.3 c -3.5238,2.09524 -8.46666,0.16667 -8.46666,0.16667 0.0953,2.19047 3.94286,5.33809 5.8,6.1 0.90476,-0.28572 2.38096,-3.26667 2.66666,-6.26667 z m 8.33334,43.06667 c -5.25279,4.17529 -16.83334,1.76666 -16.83334,1.76666 7.13841,8.21592 15.89053,1.66785 16.83334,-1.76666 z M 152.2,443.5 c 0,0 -0.32793,0.0579 -0.86667,0.93333 1.01016,0.80813 4.51438,8.23824 6.4,11.06667 5.05077,-1.95296 11.1,-8.1 11.1,-8.1 0,0 0.13808,-0.32453 -0.33333,-1.2 -0.87546,1.21218 -8.07631,6.38645 -10.43333,7.73333 C 157.59526,451.03756 152.2,443.5 152.2,443.5 Z"
         id="path3021"
         style="fill:#ffd771;stroke:none;stroke-width:1.06666672"
         inkscape:connector-curvature="0" />
      <path
         d="m 185.63333,426.86667 c -4.5982,0.12053 -12.16666,1.71429 -17.16666,7.5 0.19047,1.04762 -0.16667,2 -0.16667,2 3.90476,-1.80953 8.16191,-6.66191 20.73333,-9.23334 -0.66666,-0.19047 -1.86726,-0.30684 -3.4,-0.26666 z m -50.76666,1.03333 -0.4,1.63333 c 13.04761,2.28572 19.06666,7.9 19.06666,7.9 0,0 0.38095,-0.86666 0.66667,-2.86666 C 145.15238,427.99525 134.86667,427.9 134.86667,427.9 Z M 175.1,437.96667 c -2.69374,2.55905 -6.6,4.86666 -6.6,4.86666 l 0.4,4.7 c 0,0 3.91031,-4.31387 6.2,-9.56666 z M 147.16667,439.6 c -0.39223,0.0129 -0.77945,0.0492 -1.16667,0.13333 2.96311,2.15499 5.13333,5.1 5.13333,5.1 l 1.46667,-3.9 c 0,0 -2.68777,-1.42356 -5.43333,-1.33333 z m -18.5,11.83333 c 0,0 6.27143,4.95238 11.03333,6 1.71429,-2 1.83333,-2.66666 1.83333,-2.66666 z m 31.03333,4.2 c 0,0 -1.12382,0.16191 -2.26667,0.73334 0.85641,1.61767 4.17282,14.0778 6.93334,26.73333 C 165.21358,468.16244 159.7,455.63333 159.7,455.63333 Z M 164.36667,483.1 c -0.46779,-0.96782 -2.31594,-4.5727 -6,-9.56667 -4.66667,-7.33333 -20.73334,-10.5 -20.73334,-10.5 0,0 -2.29524,-0.28095 -3.53333,0.1 4.47569,5.44575 16.40802,2.16817 30.46667,20.4 0,0 -0.13301,-0.26084 -0.2,-0.4 6.4e-4,-0.0112 -6.4e-4,-0.0221 0,-0.0334 z M 183.23333,458 c 1.52382,1.52381 2.96667,2.86667 2.96667,2.86667 0,0 4.17619,0.35714 12.36667,-2.5 -5.80952,0.38096 -13.42857,0.87142 -15.33334,-0.36667 z"
         id="path3001"
         style="fill:#bd88b9;stroke:none;stroke-width:1.06666672"
         inkscape:connector-curvature="0" />
      <path
         d="m 201.27028,368.07411 c 0,0 4.38327,2.83519 7.21169,-3.42775 0.74078,1.95296 0.60609,3.63655 0.60609,3.63655 0,0 -6.20517,5.34861 -7.81778,-0.2088 z"
         id="path3033"
         style="fill:#ffcf2d;stroke:none;stroke-width:1.06666672"
         inkscape:connector-curvature="0" />
      <path
         d="m 154.51648,403.30491 c 0.13051,-0.0143 0.16128,-0.0161 0.32737,0.10912 0.33217,0.25041 0.88821,1.09472 1.56411,2.1461 0.38307,0.59588 0.81973,1.06444 1.29129,1.40042 0.47158,0.33598 0.97804,0.5394 1.49136,0.60019 0.51333,0.0608 1.01014,-0.0276 1.45499,-0.23644 0.44485,-0.20887 0.83776,-0.53823 1.10943,-0.94574 0.10091,-0.15141 0.41002,-0.46254 0.78205,-0.76387 0.37203,-0.30134 0.80702,-0.59287 1.18217,-0.7093 0.37517,-0.11643 0.61397,-0.10102 0.81844,0.0182 0.10218,0.0595 0.23481,0.16859 0.36374,0.36374 0.12893,0.19515 0.25418,0.4764 0.36374,0.89118 0.23673,0.89618 0.3468,1.80839 0.40012,2.69172 0.0533,0.88333 0.0499,1.73777 0.0545,2.50985 0.01,0.82457 0.044,1.57911 0.20006,2.2916 -0.56289,-0.003 -1.1855,0.0919 -1.69142,0.16368 -0.19685,0.0364 -0.37931,0.0751 -0.56381,0.12732 -0.0107,-0.34196 -0.074,-0.66599 -0.18187,-0.96393 -0.23515,-0.64978 -0.62901,-1.18971 -1.05487,-1.63686 -0.91359,-0.80449 -1.601,-1.42116 -2.58259,-2.23703 0,0 -0.81531,0.99399 -1.54593,2.18247 -0.36531,0.59424 -0.7076,1.23579 -0.92755,1.89148 -0.10997,0.32784 -0.20424,0.67689 -0.21824,1.03668 -0.014,0.35978 0.0523,0.7303 0.27281,1.09123 0.29888,0.48908 0.7269,0.89377 1.21855,1.18218 0.49164,0.2884 1.0469,0.46052 1.63685,0.52743 0.58995,0.0669 1.22973,-0.0274 1.80055,-0.32737 0.2854,-0.14996 0.55024,-0.35151 0.78205,-0.60018 0.23181,-0.24867 0.43631,-0.55731 0.58199,-0.90936 0.0173,-0.0418 0.0394,-0.0852 0.0545,-0.12732 l 0.60018,0.67294 c -0.12918,0.11481 0.12433,-0.0447 0.47286,-0.10913 0.34854,-0.0644 0.79514,-0.11927 1.23675,-0.1455 0.0678,-0.004 0.11502,0.003 0.18186,0 -0.23624,0.39991 -0.58224,0.88441 -1.07304,1.45499 -0.49082,0.57058 -1.12644,1.22725 -1.96424,2.0006 -0.29444,0.27179 -0.64217,0.51501 -1.01848,0.70931 -0.37631,0.19429 -0.78157,0.34157 -1.20036,0.45468 -0.83759,0.2262 -1.7204,0.28443 -2.49166,0.16369 -0.38563,-0.0604 -0.73275,-0.15768 -1.03669,-0.291 -0.30393,-0.13333 -0.56469,-0.30269 -0.76386,-0.49106 -0.19918,-0.18837 -0.35841,-0.39328 -0.45468,-0.63656 -0.0963,-0.24328 -0.1296,-0.52493 -0.10912,-0.87299 0.0597,-1.01454 -0.0752,-1.8291 -0.32738,-2.47347 0.0451,0.0234 0.0931,0.0483 0.12731,0.0727 l 1.07306,-1.47318 c -0.32615,-0.23295 -0.67526,-0.3817 -1.0185,-0.49105 -0.34324,-0.10935 -0.68061,-0.17928 -1.0003,-0.21825 0.003,-0.0132 0.015,-0.023 0.0182,-0.0364 0.11449,-0.50091 0.0811,-0.97908 -0.0364,-1.4368 -0.11745,-0.45772 -0.31893,-0.89496 -0.52744,-1.30948 -0.41701,-0.82906 -0.93917,-1.62781 -1.30948,-2.41892 -0.18515,-0.39555 -0.32876,-0.77202 -0.41831,-1.1458 -0.0895,-0.37378 -0.12506,-0.74486 -0.091,-1.09124 0.0339,-0.34355 0.13722,-0.68353 0.34556,-1.05486 0.20834,-0.37133 0.52165,-0.77402 1.0003,-1.20036 0.007,-0.007 0.0107,-0.0112 0.0182,-0.0182 0.36936,-0.27243 0.66062,-0.3687 0.78206,-0.38193 z"
         id="path4481"
         style="fill:#e41844;stroke:none;stroke-width:1.06666672"
         inkscape:connector-curvature="0" />
      <path
         d="m 154.41866,412.11503 c 0,0 0.13468,-1.34687 -1.21219,-3.97327 -0.33672,-1.61625 0.21499,-3.61344 1.32714,-3.66783 1.34208,0.25023 2.79377,6.3024 7.33706,3.07808 1.41422,-1.14484 2.37196,-2.46382 2.98623,-1.0265 0.73817,1.72727 1.4142,6.3303 1.4142,6.3303 0,0 0.94282,-7.7445 -1.48154,-8.88935 -2.42438,-1.14484 -4.31,2.49172 -4.31,2.49172 0,0 -2.76107,0 -2.9631,-0.74078 -0.20204,-0.74078 -2.82844,-4.04061 -4.37733,-2.69374 -1.5489,1.34687 -2.35703,6.39763 1.27953,9.09137 z"
         id="path3035"
         style="fill:#eb5f67;stroke:none;stroke-width:1.06666672"
         inkscape:connector-curvature="0" />
      <path
         d="m 155.56349,417.70453 c 0,0 4.04062,4.57936 10.43825,-1.54889 -2.02031,3.36718 -9.76481,8.28325 -10.43825,1.54889 z"
         id="path3037"
         style="fill:#ec6862;stroke:none;stroke-width:1.06666672"
         inkscape:connector-curvature="0" />
      <path
         d="m 161.5,246.46667 c -0.53874,3.63655 -1.09204,14.92893 -18.46667,8.73333 -4.71404,-3.0978 -12.39847,-10.24704 -22.5,1.06667 -3.83547,7.54309 -3.90243,19.14326 -3.9,20.33333 L 110.1,269.53333 c -1.86582,3.37575 -3.34967,6.98829 -3.43333,11.43334 -26.36605,4.72409 -17.525667,24.23231 -14.300003,39.6 -4.249669,2.15939 -6.623198,-0.8887 -9.133334,-3.6 0.295854,3.30482 -2.17576,7.02549 4.766667,9.33333 -13.436642,12.93219 -4.709132,24.24326 0.766667,35.8 0.47055,10.78695 -0.01535,21.87438 17.533333,27.43333 -0.54731,5.83679 -3.09757,10.51133 -9.733333,12.76667 2.723548,5.98807 7.963953,4.38275 13.133333,3.03333 3.55947,8.50823 8.6226,9.1096 13.16667,12.36667 l 5.33333,4 c 0.64237,-5.26133 4.19904,-7.17229 7.23333,-9.7 l -2.76666,-2.56667 c -2.48639,1.74674 -5.88427,2.39542 -6.56667,6.26667 -3.27227,-2.02229 -2.94933,-6.29754 -3.53333,-10 -2.30938,1.30967 -4.71544,2.53218 -4.93334,5.93333 -7.79606,-4.38325 -4.74052,-11.00952 -4.86666,-16.96666 -4.78844,2.56167 -5.04578,10.6959 -9.2,7.83333 4.53092,-1.97154 5.30133,-6.36854 5.96666,-10.8 2.11494,-0.60538 3.87935,-1.71986 4.56667,-4.46667 -11.63459,-2.20769 -23.08419,-4.60258 -23.133333,-19.8 3.671275,2.17697 4.701912,1.48679 6.466666,1.6 C 90.722685,355.60455 74.612889,342.84057 90.866667,327.8 c 5.269703,7.36446 8.028814,3.44554 12.000003,4.96667 C 92.859289,326.53779 96.63726,316.53587 97.9,307.23333 l -5.766667,3.63334 c -1.451481,-10.92666 -5.317719,-23.4338 13.566667,-26.3 1.79526,1.8698 4.04046,2.89209 7.26667,1.9 -1.48104,-2.92064 -3.85401,-5.84604 -1.93334,-8.76667 5.50598,5.68292 10.44575,2.07797 15.63334,2.66667 l -7.1,-5.5 c 2.87719,-16.71902 6.01644,-24.39593 19.83333,-17.1 5.52217,2.42436 18.97918,5.92318 24.36667,-6.33334 2.28967,4.84874 2.98562,6.73148 1.1,10.23334 2.82842,0.26937 5.76531,-2.00897 5.9,-4.43334 2.82842,0.40406 5.93553,0.65482 9.03333,8.46667 2.96311,3.77124 6.20033,6.75499 12.8,4.6 0,3.77124 -2.81235,8.61523 8.36667,13.73333 1.07749,-2.82842 1.33333,-3.9 1.33333,-3.9 0,0 17.91709,-5.65787 19.53333,6.73334 -4.44467,2.15499 -7,1.05617 -7,8.73333 -2.55905,-0.53875 -6.62386,1.22656 -7.56666,1.9 9.15871,4.04061 20.21439,10.49898 22.1,17.23333 -4.71404,6.19561 -7.67394,7.54264 -3.63334,16.56667 3.90592,-0.13469 6.06667,-1.46667 6.06667,-1.46667 0,0 1.19696,5.25042 -5.13333,6.86667 -1.0775,2.55905 16.44636,31.51167 -8.06667,33.66667 -1.21218,4.84872 -4.83858,18.45989 -14.26667,19.13333 -2.55906,4.71404 -6.09018,10.50846 -0.43333,16.3 -2.82843,0 -4.96667,-0.56667 -4.96667,-0.56667 0,0 -1.20761,7.29595 -3.76666,7.7 -2.155,1.34687 -9.98376,0.40052 -11.6,-2.96666 l -1.6,2.13333 c 0,0 5.93146,3.65718 9.43333,4.6 2.42436,2.55905 2.4,2.83333 2.4,2.83333 0,0 2.43469,-3.6599 2.3,-4.33333 0.80813,-0.67344 4.03199,-4.84501 4.16667,-7 2.69375,0.67343 7.27291,0.54145 9.96666,-0.26667 -3.36718,-3.23249 -6.70542,-7.13282 -6.16666,-10.5 0.67343,-4.57936 0.66666,-5.93333 0.66666,-5.93333 0,0 6.47158,-0.13283 9.3,-3.5 2.82843,-3.36718 7.11083,-7.93367 6.03334,-14.53333 4.57936,0 14.29188,-0.004 15.1,-16.16667 -0.80812,-12.92995 -5.93334,-17.9 -5.93334,-17.9 0,0 8.61269,-2.83452 4.03334,-12.66667 -1.61625,0.53876 -5.5,1.73334 -5.5,1.73334 0,0 -4.06143,-1.89036 5.36666,-12.8 -3.0978,-6.06092 -9.54992,-13.6022 -14.53333,-16.7 0,-4.1753 -0.95601,-10.755 7.93333,-8.6 -2.82842,-10.10153 -4.82639,-14.69865 -15.46666,-14.83334 -6.06092,1.48156 -14.16667,2.03334 -14.16667,2.03334 0,0 -3.0978,-4.17733 0,-13.06667 -4.30998,2.28968 -6.98324,5.10051 -11.96667,1.73333 -2.82842,-4.44467 -9.0269,-16.00863 -16.3,-11.83333 -1.75092,-2.96311 -5.3824,-7.12521 -7.13333,-7.93333 z"
         id="path3046"
         style="fill:#dfdf50;stroke:none;stroke-width:1.06666672"
         inkscape:connector-curvature="0" />
      <path
         d="m 159.75488,244.78932 0.21825,1.60048 c 0,0 0.25356,2.0557 -0.18188,4.80145 -2.20647,3.09178 -5.34532,4.22644 -8.36615,4.49227 -3.075,0.2706 -5.96331,-0.38737 -7.12943,-0.72749 -0.89746,-0.26176 -2.10847,-1.34546 -3.67384,-2.61897 -1.56536,-1.27352 -3.54537,-2.69482 -6.22006,-3.41921 l -0.10912,-0.0181 h -0.10912 c -5.36966,-0.054 -9.31588,1.70033 -12.07637,4.38314 -2.7605,2.6828 -4.35206,6.23444 -5.25614,9.73021 -1.29664,5.0137 -1.2202,9.95225 -1.07305,12.36737 -0.31658,-0.23527 -0.62197,-0.47553 -0.90936,-0.74568 -1.79267,-1.68512 -3.00967,-4.04105 -3.8739,-6.07456 l -0.61837,-1.47317 -0.94574,1.30948 c -3.44832,4.75309 -4.0468,8.75232 -3.51015,11.71263 -6.717342,0.82441 -11.301142,3.31698 -14.222472,6.74748 -3.116083,3.65921 -4.325029,8.29543 -4.492265,12.93118 -0.307852,8.53358 2.696756,16.82511 4.346767,20.22428 -1.046891,0.34515 -1.944413,0.50812 -2.618973,0.41831 -0.86699,-0.11541 -1.501625,-0.48858 -2.073352,-1.05486 -1.14345,-1.13257 -1.869691,-3.10844 -2.564411,-4.76508 l -0.927552,-2.21885 -0.782054,2.27341 c -1.046676,3.08637 -1.250851,5.42912 -0.891179,7.23855 0.359672,1.80943 1.338301,3.05581 2.4371,3.80115 0.849862,0.57647 1.726979,0.84072 2.528035,1.0003 -4.438366,3.80019 -6.615762,8.16309 -6.983925,12.60381 -0.415003,5.0056 1.221563,10.00777 3.51015,14.4589 0.453681,1.84671 4.145512,7.31555 4.346766,7.87511 -1.271086,14.40563 4.77835,21.78452 11.130631,25.29855 2.467804,1.36516 4.967344,2.17577 7.111234,2.65534 -0.35196,5.56887 -2.05615,8.06146 -3.91027,9.3119 -1.960891,1.32246 -4.233281,1.29587 -5.85631,1.52773 l -1.054864,0.14551 0.309184,1.00029 c 0.83008,2.76694 2.263083,4.52516 3.964833,5.43801 1.701747,0.91285 3.575957,0.97599 5.274317,0.7093 2.04287,-0.32077 3.8706,-1.13315 5.0197,-1.72779 0.84136,3.65817 2.90268,6.4124 5.18338,8.36616 3.62276,3.10345 7.6042,4.28726 8.34798,4.49227 1.31211,1.39444 2.86853,2.43738 4.31039,3.31009 l 1.38224,0.83661 v -1.61866 c 0,-3.35643 1.81723,-5.60051 3.7102,-7.09306 0.88142,-0.69496 1.75168,-1.20024 2.4371,-1.54592 2.88183,2.72974 6.12186,5.3938 9.78477,7.92967 2.35449,1.61449 5.13214,3.2952 8.18429,4.49226 0.14005,1.30546 0.34466,3.92306 0.20006,7.09305 -2.70111,-1.59826 -9.66018,-5.12106 -18.66018,-5.23794 l -0.89118,-0.0182 -0.0364,0.90936 c -0.0722,2.96238 -0.40142,6.13046 -1.10942,8.82084 -0.708,2.6904 -1.81055,4.85155 -3.21916,5.8927 l -1.34585,1.0003 1.5641,0.58199 c 2.93563,1.10087 6.46041,2.45871 8.91178,4.11034 1.22568,0.82581 2.17071,1.72526 2.67354,2.61896 0.49038,0.8716 0.61525,1.70775 0.25462,2.76447 -0.005,0.007 -0.0128,0.0107 -0.0182,0.0182 -0.44082,-0.10058 -3.49055,-0.80196 -6.94755,-1.81873 -2.94559,-0.46604 -6.45513,-1.87425 -9.43921,-2.32797 0.33399,0.53439 0.81078,0.87013 1.40042,1.21855 0.58964,0.34842 1.31263,0.67292 2.10973,1.0003 1.5942,0.65476 3.52874,1.28072 5.41981,1.83692 2.87581,0.84582 5.11646,1.3987 6.27462,1.67323 -2.4568,3.06204 -3.87099,3.38404 -5.41982,4.51045 l -0.50923,0.38194 0.18186,0.61837 c 0.34357,1.12882 1.17492,1.97318 2.12792,2.60078 0.95301,0.62759 2.05895,1.06292 3.11003,1.40042 2.05454,0.65972 3.91592,0.88107 4.00121,0.89118 0.002,2.4e-4 0.0545,0.0182 0.0545,0.0182 0.20362,0.0566 2.35516,0.67905 5.12882,1.94604 2.90783,1.32827 6.31922,3.35446 8.36616,5.94725 2.20976,2.79903 3.59227,4.47786 4.49227,5.98362 1.751,2.53931 1.68169,3.21043 3.60111,5.00151 -0.002,-0.0308 -0.0162,-0.0781 -0.0182,-0.10912 -0.31499,-4.99333 -1.85,-13.99164 -4.94694,-23.0797 -0.53488,-1.56961 -1.11798,-3.13975 -1.74599,-4.69232 2.75314,-1.25452 13.72712,-6.9984 17.55075,-20.31522 -2.13554,2.07658 -4.32697,6.11253 -6.42011,8.96634 -0.40343,-4.23935 -0.28575,-8.08676 0.0545,-11.38525 3.95728,-3.27068 8.0779,-5.03842 12.11275,-5.92907 2.67956,-0.57086 4.62589,-0.72238 5.94725,-0.78205 -0.48179,0.82664 -1.03074,1.70573 -2.07335,3.98302 -1.42044,3.10253 -2.87359,6.96966 -2.87359,10.33039 0,2.92771 -0.74103,4.66395 -1.74598,5.96544 -1.00495,1.30148 -2.34506,2.17628 -3.63747,3.16459 -0.72952,0.55788 -1.18636,1.17654 -1.40042,1.81873 -0.21406,0.64219 -0.1534,1.2759 0.0182,1.76417 0.34311,0.97652 1.07305,1.52773 1.07305,1.52773 l 0.0727,0.0545 0.0728,0.0364 c 0,0 1.34422,0.68322 2.96453,1.69142 1.16444,0.72453 2.3649,1.62065 3.40102,2.50984 -3.38595,1.02964 -6.74812,3.60696 -9.49377,6.12913 -3.2136,2.95202 -5.52893,5.78357 -5.52893,5.78357 3.62444,-1.67478 9.93703,-9.50602 16.98694,-10.58502 l 1.7096,-0.20006 -1.1458,-1.2913 c -0.31174,-0.35071 -0.65911,-0.69914 -1.03668,-1.03668 3.45912,0.49914 9.99854,1.04096 16.0594,-0.87298 -6.07857,-0.10102 -14.656,1.35221 -20.00604,-1.98242 -1.60504,-0.9987 -2.80249,-1.6083 -2.92816,-1.67324 -0.0202,-0.0183 -0.36041,-0.31925 -0.49105,-0.69112 -0.0673,-0.19149 -0.0934,-0.37428 -0.0182,-0.60018 0.0753,-0.22588 0.28048,-0.54826 0.80024,-0.94574 1.20618,-0.92236 2.7284,-1.89067 3.96484,-3.49195 1.23642,-1.60128 2.12791,-3.8296 2.12791,-7.07487 0,-2.81224 1.3378,-6.56956 2.70991,-9.56652 1.3721,-2.99696 2.7281,-5.23795 2.7281,-5.23795 l 0.8366,-1.36404 -1.60048,-0.0182 c 0,0 -3.54584,-0.0494 -7.8751,0.87299 -3.77351,0.80392 -8.19765,2.33317 -11.45801,5.36526 0.5996,-4.13946 1.4739,-7.04439 1.92787,-8.38436 0.90627,-0.6557 1.80628,-1.40604 2.69172,-2.27341 2.13333,-2.0898 4.66883,-4.84312 7.32948,-8.11153 0.56535,0.77433 1.33364,1.35676 2.16429,1.80054 1.31109,0.70045 2.80485,1.12085 4.18308,1.54592 1.37822,0.42506 2.62552,0.87832 3.40103,1.43679 0.77551,0.55847 1.12242,1.06 1.01848,2.18248 l -0.20005,2.23704 1.7096,-1.45499 c 1.49013,-1.2822 2.15204,-2.82514 2.36435,-4.32857 2.70845,-2.29983 3.87235,-4.8147 4.1649,-7.12943 0.49391,0.22207 1.03129,0.37119 1.58229,0.47287 1.25941,0.23243 2.63963,0.21034 3.92846,0.10912 2.57765,-0.20243 4.83782,-0.78205 4.83782,-0.78205 l 2.07336,-0.54562 -1.81873,-1.10943 c 0,0 -1.86303,-1.16854 -3.58291,-3.1464 -1.71987,-1.97785 -3.21367,-4.64866 -2.65534,-7.76598 0.24054,-1.34304 0.36545,-2.59823 0.40012,-3.74658 1.28209,-0.0452 4.91288,-0.41435 8.23885,-3.20097 4.29207,-3.59606 6.4368,-7.11989 7.12942,-10.40314 0.36675,-1.73851 0.32269,-3.39503 0,-4.92876 1.66668,0.46559 3.80546,0.38367 5.98363,-0.36374 2.86754,-0.98397 5.75619,-3.23177 7.20217,-7.22036 0.002,-0.005 -0.002,-0.0128 0,-0.0182 3.83071,-9.80438 1.88733,-17.79776 -1.03668,-23.24338 -0.69865,-1.30116 -1.45616,-2.45868 -2.20066,-3.47378 3.37724,-2.405 4.75091,-5.18172 4.8742,-7.72961 0.13108,-2.70904 -1.04585,-5.05436 -2.16429,-6.62018 l -0.87299,-1.21855 -0.67293,1.34587 c -0.25304,0.50608 -0.53118,0.85802 -1.16399,1.20036 -0.51984,0.28123 -1.40868,0.50918 -2.58259,0.67293 -0.21476,-0.69788 -0.26348,-1.44912 -0.0182,-2.32798 0.31292,-1.12109 0.97612,-2.34627 1.76417,-3.52833 0.78804,-1.18207 1.70009,-2.3275 2.49166,-3.2919 0.79155,-0.96442 1.45548,-1.70552 1.83691,-2.36435 l 0.23644,-0.4365 -0.21825,-0.4365 c -4.18241,-8.06607 -9.6987,-12.96409 -14.36797,-15.8957 -0.54214,-2.52768 -0.55613,-4.34698 -0.27281,-5.58351 0.3022,-1.31895 0.8723,-1.97253 1.58229,-2.38254 1.42,-0.82 3.76258,-0.43541 5.05608,0.0727 l 1.4186,0.5638 -0.18186,-1.50955 c -0.85571,-7.11297 -3.83304,-11.4332 -7.49318,-13.64047 -2.7451,-1.65544 -5.81986,-2.12003 -8.5844,-1.8551 -0.92153,0.0883 -1.80445,0.25511 -2.63717,0.49105 -5.82477,1.65036 -10.78839,1.337 -11.18519,1.30949 -1.10499,-1.69597 -1.42593,-3.34881 -1.36405,-5.0197 -0.0952,-4.37066 2.79851,-7.18339 1.01849,-9.85751 -2.41791,2.54516 -4.39447,3.99397 -5.96544,4.67413 -1.57096,0.68017 -2.6981,0.63907 -3.71021,0.21825 -2.02093,-0.84029 -3.68436,-3.62826 -5.41981,-6.311 -0.003,-0.004 0.003,-0.0135 0,-0.0181 h -0.0182 c -3.56948,-5.6367 -7.05139,-7.47461 -9.73021,-7.71142 -1.43562,-0.12691 -2.59565,0.22301 -3.38284,0.5638 -0.58147,-1.63691 -1.54748,-3.01985 -2.60079,-4.11032 -2.35578,-2.43894 -5.14701,-3.63746 -5.14701,-3.63746 l -1.49136,-0.63656 z m 2.12791,3.03728 c 0.91112,0.53513 2.06763,1.3365 3.20098,2.50985 2.06113,2.13389 3.65701,5.08997 2.01878,9.33009 2.25656,-0.35553 2.56973,-3.07872 2.32798,-4.72869 0.49878,-0.26551 1.4502,-0.62704 2.78265,-0.50925 2.02006,0.17857 4.97787,1.51422 8.36617,6.8748 h 0.0182 c 1.6911,2.61353 3.3441,5.80938 6.25643,7.0203 1.45617,0.60546 3.21172,0.61178 5.12882,-0.21825 1.15803,-0.50139 2.43166,-1.41714 3.78296,-2.54622 -0.68662,1.90746 -1.30418,3.89423 -1.38224,6.0018 -0.12661,3.41868 1.34656,7.02377 5.98363,10.36677 -0.2027,-1.50893 -0.28533,-2.24568 -1.27311,-3.43739 2.13641,-0.012 5.93929,-0.226 10.14851,-1.41861 2.90478,-0.82302 6.63767,-0.7157 9.78477,1.18217 2.91787,1.75963 5.37121,5.16658 6.36556,10.98512 -1.56543,-0.39281 -3.41645,-0.60689 -5.12881,0.38194 -1.13472,0.65526 -2.06249,1.85029 -2.4553,3.56471 -0.29275,1.27773 -0.30952,2.84087 -0.0182,4.78326 -2.53354,-1.29758 -4.82161,-2.39213 -7.71142,-1.12761 0,0 13.6628,2.5473 22.24308,18.58743 -0.29073,0.40821 -0.69606,0.9361 -1.34587,1.72779 -0.79983,0.97449 -1.75197,2.14599 -2.60078,3.41922 -0.84882,1.27322 -1.60553,2.64038 -2.0006,4.05576 -0.39508,1.41539 -0.40895,2.92944 0.32737,4.27402 l 0.29099,0.52744 0.582,-0.0545 c 1.78738,-0.1625 3.04913,-0.48525 4.0012,-1.00031 0.39358,-0.21292 0.69942,-0.47272 0.98212,-0.74568 0.69709,1.24968 1.29771,2.72879 1.21855,4.36495 -0.0974,2.01372 -1.06843,4.22051 -4.16489,6.38375 -1.73881,-1.91012 -3.03857,-2.97099 -4.63777,-2.10973 0,0 3.609,2.75701 6.34737,7.85692 2.73838,5.09991 4.58903,12.4232 0.94574,21.73383 l -0.0182,0.0182 v 0.0182 c -1.25812,3.48401 -3.66391,5.31388 -6.09275,6.14731 -2.42885,0.83343 -4.91069,0.52037 -5.8745,-0.0727 l -0.10912,0.16368 c -0.23893,-0.62767 -0.50825,-1.2267 -0.81844,-1.80054 -2.18011,-3.35876 -5.8061,-7.97239 -8.82084,-6.71112 0.1234,0.12341 0.14558,0.12342 0.20006,0.16369 0.0545,0.0403 0.10582,0.0726 0.18187,0.12731 0.15203,0.10934 0.35532,0.25342 0.60018,0.43649 0.48973,0.36617 1.1471,0.87977 1.87329,1.52775 1.45241,1.29592 3.18485,3.12748 4.36496,5.31068 1.18012,2.1832 1.82718,4.69429 1.23674,7.49318 -0.59044,2.79889 -2.454,5.95206 -6.52925,9.36646 -3.04508,2.55128 -6.16731,2.7685 -7.07486,2.78266 -0.31345,-2.67378 -0.65494,-5.41416 -2.92816,-5.41982 0,0 1.96874,3.93059 0.76387,10.65776 -0.68881,3.84582 1.13788,7.08849 3.05547,9.29372 0.83032,0.95485 1.65439,1.63883 2.36435,2.21884 -0.77324,0.13856 -1.64345,0.28571 -2.63716,0.36375 -1.19244,0.0937 -2.44484,0.0774 -3.45558,-0.10912 -0.84462,-0.15587 -1.48527,-0.43756 -1.8733,-0.80025 -0.0351,-0.40465 -0.0875,-0.80439 -0.16368,-1.18217 -1.22508,-4.09332 -2.02703,-4.61515 -3.9648,-5.05607 0,0.42419 0.10218,0.47273 0.16368,0.60018 0.0614,0.12745 0.13718,0.2545 0.21825,0.40012 0.16213,0.29125 0.35894,0.656 0.58199,1.09124 0.44608,0.87048 0.95646,2.01157 1.21855,3.31009 0.45437,2.25119 0.276,4.90602 -2.27342,7.62048 -0.0231,-0.15107 -0.0434,-0.30977 -0.0727,-0.45468 -0.9404,-2.77888 -1.61569,-2.66708 -3.01909,-2.81903 0,0 0.87218,1.38353 1.23674,3.18277 0.27239,1.34441 0.281,2.80454 -0.54562,4.1649 -0.31891,-0.70006 -0.80299,-1.29756 -1.40042,-1.7278 -1.12767,-0.81207 -2.54481,-1.24089 -3.94665,-1.67323 -1.40184,-0.43234 -2.79596,-0.85245 -3.85571,-1.41861 -0.8684,-0.46394 -1.48206,-0.97143 -1.81873,-1.69141 7.94159,-10.09308 16.60345,-24.56334 18.93298,-40.04845 1.08815,0.47646 2.13794,0.63887 3.09185,0.52742 1.28666,-0.1503 2.36318,-0.81404 3.1464,-1.72779 1.56645,-1.82752 2.10894,-4.58082 1.5823,-7.03849 -0.24229,-1.13066 -0.8328,-2.00333 -1.56411,-2.60078 5.5352,-6.80874 6.7786,-12.47419 6.12912,-16.7687 -0.68101,-4.50305 -3.33169,-7.37054 -4.89238,-8.58441 -0.47453,-0.36908 -1.02395,-0.56871 -1.56411,-0.63655 -0.54016,-0.0678 -1.08636,-0.007 -1.58229,0.14549 -0.99188,0.30658 -1.86252,0.91508 -2.63717,1.56412 -0.17016,0.14257 -0.33168,0.29045 -0.49106,0.43649 0.16037,-0.80927 0.32107,-1.57158 0.49106,-2.23704 0.21133,-0.82725 0.43685,-1.52327 0.65475,-2.01879 -3.39413,0.50591 -3.24158,5.44573 -3.65565,7.83873 -0.28096,1.62588 -0.59335,3.22734 -0.90937,4.81964 -0.65043,-2.90467 -1.88198,-6.11014 -3.47377,-9.29372 l -0.0182,-0.0364 -0.0182,-0.0364 c -4.89751,-7.41032 0.39373,-15.33181 -1.03667,-18.58743 0,0 -2.71967,4.69913 -2.85541,10.51226 -3.35027,-4.86392 -3.33643,-8.99914 -2.4371,-12.13093 1.03409,-3.60106 3.27371,-5.78356 3.27371,-5.78356 -1.76064,-1.12522 -4.60364,3.99693 -4.91057,4.92876 -0.29253,-0.4833 -0.53313,-1.03747 -0.69111,-1.56411 -0.16863,-0.56207 -0.24555,-0.99827 -0.291,-1.30948 1.96132,-1.76948 3.76385,-4.22867 2.18248,-6.80206 -0.43202,2.8801 -1.74249,4.37832 -3.52834,5.52895 -0.86004,0.55411 -1.84838,1.00674 -2.87359,1.43679 1.77062,-3.25587 4.69517,-8.57435 2.54621,-12.3128 -0.54381,6.05002 -3.06353,10.10305 -4.63776,12.09456 -0.0202,-0.16653 -0.0407,-0.32527 -0.0727,-0.50925 -0.25853,-1.48652 -0.75222,-3.32129 -1.50955,-5.14701 -0.75734,-1.82572 -1.77415,-3.64188 -3.14641,-5.07426 -1.37226,-1.43237 -3.14447,-2.48181 -5.25613,-2.60078 -3.61659,-0.20375 -6.2368,-0.80313 -7.94785,-1.32768 -1.27815,-0.39184 -1.87234,-0.65623 -2.1643,-0.80023 -1.49321,-2.89625 -2.46437,-5.08003 -4.96513,-5.20158 2.28161,2.63263 3.18935,4.77829 3.36465,6.49287 0.17531,1.71458 -0.35093,3.04533 -1.16399,4.14671 -1.10472,1.49647 -2.45755,2.29004 -3.40102,2.76447 -0.17995,-1.08944 -0.52597,-2.59922 -1.38224,-4.20127 -0.66708,-1.24811 -1.65085,-2.42782 -3.12821,-2.90997 -1.47737,-0.48216 -3.28981,-0.15858 -5.32888,1.18217 -3.68292,2.42166 -6.59841,3.18969 -8.56623,3.38284 -1.10207,0.10818 -1.84146,0.0412 -2.30978,-0.0364 0.4108,-3.4949 -0.17089,-7.4918 -2.60079,-11.76719 -0.0354,2.14265 0.19851,4.1158 0.72749,7.05668 -1.39035,-2.15149 -2.22734,-1.85114 -3.25552,-1.16399 0,0 0.87574,0.5427 1.63685,2.01879 1.09214,4.1265 1.4625,6.56883 -0.36374,9.93027 -1.42449,2.61029 -3.21803,4.54911 -4.38315,5.65625 -0.57449,-3.74932 -4.65054,-9.73628 -10.42132,-8.47528 7.30777,2.60277 8.83296,6.94211 8.78447,10.82145 -0.0186,1.48693 -0.29552,2.88813 -0.63656,4.05576 -0.72628,-3.14456 -1.41437,-5.57885 -3.67383,-6.11093 3.35324,7.22235 1.93045,12.8224 0.49105,15.91389 0.0674,-3.15228 -0.11471,-6.73505 -2.32797,-8.00241 1.70705,8.63571 -1.03221,18.1989 -2.05517,21.37009 -0.87655,2.71734 -2.04371,6.88238 -3.01909,14.36797 -0.56611,-3.19454 -0.75079,-7.0639 -0.69111,-10.58502 0.09,-5.31511 0.60018,-9.74839 0.60018,-9.74839 -1.70633,0.5443 -2.29334,5.95953 -2.36435,7.8751 -0.71913,-0.85295 -1.66333,-1.85786 -2.7281,-2.69172 -1.16156,-0.90965 -2.4965,-1.66545 -3.96483,-1.60048 -1.46833,0.065 -2.8327,1.1231 -3.69203,3.12821 -1.715161,4.00206 -0.921927,9.10089 0.47287,13.60411 1.19635,3.8625 2.84563,7.25636 4.05577,9.20277 -0.44438,0.39314 -0.88569,0.85998 -1.30948,1.41862 -1.22312,1.61228 -1.79298,3.10867 -1.81873,4.45589 -0.0258,1.34722 0.53102,2.50453 1.29129,3.36465 1.52056,1.72022 3.77196,2.45513 5.23795,2.58259 2.06001,0.17914 4.23841,-0.56949 5.71082,-2.54622 2.09284,9.22071 7.21908,22.91054 19.80597,35.42888 -0.66961,0.36731 -1.43691,0.83459 -2.20066,1.4368 -1.85308,1.46108 -3.67708,3.79381 -4.18308,6.94754 -1.52487,-1.01423 -3.00266,-2.15015 -3.96484,-3.71021 -1.20978,-1.96149 -1.75167,-4.5309 -0.7093,-8.40253 -3.06115,0.59433 -2.51459,6.61468 -1.2913,8.54804 -1.52379,-0.65879 -3.48947,-1.71095 -5.29251,-3.25553 -3.61721,-3.09871 -6.57779,-8.00048 -4.01939,-16.27765 -2.27997,-0.21769 -2.82981,5.58184 -2.65535,7.40224 -0.92584,0.51388 -2.88641,1.48946 -4.98332,1.81873 -1.44545,0.22697 -2.90601,0.15629 -4.14671,-0.50924 -1.022118,-0.54829 -1.895365,-1.67149 -2.600782,-3.34647 1.461044,-0.13262 3.429082,-0.32471 5.401632,-1.65504 2.34121,-1.57896 4.28973,-4.68886 4.71051,-10.47589 1.86505,0.25255 2.88244,-0.23833 4.00121,-1.47318 0,0 -6.19899,0.13124 -12.058186,-3.11002 -5.686511,-3.14573 -11.08097,-9.31874 -10.275829,-22.3522 2.405479,2.65943 4.594341,4.54854 7.074863,5.12882 0,0 -7.162371,-6.67303 -11.54894,-15.20459 -2.193284,-4.26578 -3.666101,-8.9633 -3.291903,-13.4768 0.374199,-4.51349 2.534287,-8.88169 7.893292,-12.73111 l 2.746283,-1.98242 -3.364652,0.32738 c 0,0 -2.101464,0.15657 -3.619274,-0.873 -0.758902,-0.51478 -1.399597,-1.26056 -1.673232,-2.63716 -0.178224,-0.8966 -0.06885,-2.20289 0.218248,-3.71021 0.473213,0.99857 1.05676,2.01046 1.891479,2.83722 0.792321,0.78478 1.830266,1.37554 3.11003,1.54592 1.066468,0.14198 2.272098,-0.006 3.637461,-0.49105 0.0059,2.6239 0.530173,4.56695 1.254924,6.00181 0.711813,1.40924 1.609324,2.30202 2.346163,2.83722 0.736839,0.5352 1.382235,0.74567 1.382235,0.74567 l 0.527433,-1.74597 c 0,0 -0.303592,-0.0858 -0.836617,-0.47288 -0.533025,-0.38715 -1.226255,-1.04549 -1.800543,-2.18247 -1.148582,-2.27396 -1.853767,-6.53551 0.545619,-14.29522 l -1.727794,-0.52744 c -0.683429,2.21024 -1.121159,4.16575 -1.382236,5.91087 -1.55497,-3.77986 -3.872603,-11.12861 -3.619273,-18.15092 0.157539,-4.36698 1.283715,-8.56654 4.055769,-11.82175 2.63979,-3.0999 6.801453,-5.42555 13.34948,-6.1655 1.44679,2.40223 2.43519,2.8595 3.98303,2.76447 0,0 -1.61846,-1.28204 -2.41892,-3.80115 -0.72424,-2.27923 -0.65426,-5.62311 2.09155,-10.0212 0.85017,1.76379 1.89793,3.61443 3.52833,5.14701 2.1046,1.97833 5.10402,3.29966 9.03909,2.80085 -1.98174,-1.04757 -3.02003,-1.55384 -4.94694,-2.2916 -0.0707,-0.63543 -0.70238,-6.77186 0.90936,-13.00393 0.8497,-3.2855 2.31425,-6.51123 4.74689,-8.8754 2.41021,-2.34239 5.77945,-3.89402 10.67595,-3.8739 2.25426,0.63601 3.96325,1.83748 5.438,3.03728 1.50049,1.22073 2.7136,2.48061 4.31039,2.94635 1.32814,0.38737 4.38188,1.08305 7.80236,0.78204 3.42047,-0.301 7.26966,-1.65884 9.83933,-5.40163 l 0.10913,-0.16368 0.0364,-0.20006 c 0.26658,-1.54618 0.32113,-2.89561 0.30919,-3.89209 z m -0.74567,50.46977 c 0.3913,0.15255 0.83417,0.32304 1.38223,0.49106 1.84847,0.56668 4.62209,1.17028 8.38435,1.38223 1.57777,0.0889 2.88959,0.85689 4.03758,2.05517 1.14799,1.19828 2.1032,2.82863 2.80084,4.51046 0.69766,1.68182 1.14711,3.41306 1.38224,4.76507 0.11757,0.676 0.18877,1.25491 0.20007,1.67323 0.009,0.31375 -0.0719,0.58922 -0.0545,0.60018 l -0.61837,1.05487 c -0.25381,-1.51845 -0.99706,-3.07213 -2.21885,-4.32858 -1.55817,-1.60237 -3.97792,-2.5983 -7.07485,-2.18248 -1.03232,0.13861 -2.13236,0.44824 -3.3101,0.92755 l 0.34556,1.74598 c 0,0 7.37613,-0.15593 10.38495,6.92937 l 0.94574,2.23703 0.74569,-2.30978 c 0.20889,-0.64569 0.28437,-1.36741 0.25461,-2.10972 l 1.76417,-0.78206 c 1.59671,-0.71852 3.43059,-1.30793 5.16519,-2.20066 0.0565,0.25795 0.11069,0.53868 0.20007,0.83661 0.32063,1.06877 0.86648,2.35418 1.92785,3.27372 -0.56417,3.83733 0.299,8.73178 4.76508,13.96785 0.30361,1.90717 0.96531,3.85513 2.12791,5.74719 0.0149,0.0243 0.0212,0.0484 0.0364,0.0727 1.56727,3.14629 2.78217,6.29436 3.36465,9.0209 0.65944,2.06136 -0.27956,3.89064 0.52747,6.80205 2.73405,-1.966 3.71215,-10.99326 3.8739,-11.9309 0.0349,-0.20178 0.0745,-0.38216 0.10912,-0.58199 0.28192,-0.3624 1.15249,-1.44044 2.25522,-2.36436 0.66735,-0.55912 1.40304,-1.02822 2.0188,-1.21854 0.61575,-0.19033 1.01921,-0.1712 1.47317,0.18187 1.24534,0.96861 3.62736,3.50536 4.21946,7.42042 0.57242,3.78509 -0.46233,8.98945 -5.96544,15.64109 -0.51231,-0.1713 -1.02617,-0.27294 -1.52774,-0.32737 -1.68284,-0.37955 -3.03326,0.2997 -4.45589,0.43649 2.03662,24.84667 -17.32194,50.1187 -27.37189,59.96355 l -0.0364,0.0364 c -1.01157,0.94669 -2.15105,1.85263 -2.90997,2.40073 -3.94809,2.71176 -7.90009,3.26591 -11.71262,2.70991 -4.76199,-0.69446 -9.29274,-3.19873 -12.87662,-5.65625 -3.6698,-2.54064 -6.89927,-5.21829 -9.76658,-7.94786 -11.17066,-11.24507 -21.51392,-25.58394 -21.84299,-46.06845 h -0.18187 l 0.27281,-2.92815 c 1.03388,-10.54558 2.47719,-15.3307 3.51015,-18.53287 0.58213,-1.80463 1.7181,-5.58923 2.30978,-10.1667 l 0.10913,0.091 c 0,0 3.06817,-3.72235 3.51015,-9.73021 l 0.21825,0.1273 c 0,0 2.07248,-3.64029 2.12791,-8.07515 3.8e-4,-0.0301 -1.7e-4,-0.0607 0,-0.0909 0.70241,-0.5638 3.59907,-3.02042 5.80175,-7.05669 0.82214,-1.50649 1.5217,-3.24301 1.94605,-5.147 0.64148,0.10165 1.58473,0.17394 2.80084,0.0545 2.26722,-0.22255 5.48087,-1.12516 9.38465,-3.69203 1.75429,-1.15349 2.91352,-1.24174 3.76477,-0.96392 0.85127,0.27781 1.55048,1.02467 2.09154,2.03698 1.08214,2.02463 1.36406,4.80145 1.36406,4.80145 l 0.10912,1.18217 1.10943,-0.41831 c 0,0 3.21878,-1.15048 5.25612,-3.91027 0.86769,-1.17538 1.51163,-2.68168 1.54592,-4.45589 z m 9.73021,11.78538 c 1.87237,0.0243 3.28324,0.69124 4.25583,1.69142 0.62654,0.64432 1.03744,1.41868 1.32767,2.21885 -1.70743,-2.05755 -3.74316,-3.2456 -5.5835,-3.91027 z m -24.60743,0.0182 -2.54623,0.32737 c -4.33804,0.56339 -6.68881,3.42121 -7.82054,6.02 -1.13173,2.59879 -1.18218,5.03789 -1.18218,5.03789 l -0.0182,1.10942 1.09124,-0.18187 c 2.34775,-0.41431 3.93756,-2.72769 5.34707,-5.00151 1.4095,-2.27383 2.67308,-4.7262 3.36465,-5.4562 l 1.76417,-1.8551 z m 21.09727,2.69175 c 0.0495,3.61096 1.26103,5.98789 2.61898,7.45679 -0.0911,0.0143 -0.18097,0.0354 -0.27281,0.0545 -2.68634,-1.0951 -4.66131,-2.89084 -5.54713,-5.67444 -0.30234,1.10859 -0.0738,2.18605 0.38193,3.09184 0.45578,0.9058 1.13844,1.67157 1.81873,2.30979 0.44284,0.41544 0.88139,0.75195 1.2913,1.05486 -0.30658,0.16684 -0.62033,0.35564 -0.92755,0.56381 -4.48615,0.002 -4.078,-2.29109 -4.85601,-4.1649 -0.31408,1.51329 -0.19772,2.71911 0.25462,3.65565 0.45234,0.93653 1.2157,1.54329 1.96423,1.8733 0.22518,0.0993 0.45119,0.17336 0.67293,0.23643 -0.53898,0.51514 -1.07033,1.07823 -1.5823,1.69142 -2.39687,2.87079 -4.32858,6.83383 -4.32858,11.27613 0,4.35557 1.26692,8.30615 3.38284,11.22157 2.11593,2.91541 5.14138,4.80145 8.51166,4.80145 2.85409,0 5.44424,-1.36168 7.4568,-3.54653 2.33308,2.62368 7.07365,-5.67022 7.32948,-6.47468 -2.05249,4.00243 -6.67499,6.39282 -6.29281,5.21976 2.11593,-2.91542 3.38285,-6.866 3.38285,-11.22157 0,-4.41213 -1.70179,-8.39088 -4.00122,-11.27613 -1.89104,-2.99372 -5.00057,-3.81242 -6.94757,-5.56531 -2.68165,-3.25408 -3.51296,-4.88984 -4.31037,-6.58378 z m -25.64409,0.0545 c -0.66648,1.11929 -1.35261,2.35034 -2.12792,3.60109 -0.89541,1.44448 -1.89974,2.66553 -2.81904,3.41921 0.14551,-0.77449 0.36634,-1.69534 0.80025,-2.69172 0.74597,-1.71296 1.97333,-3.40832 4.14671,-4.32858 z m 7.49316,1.96422 c -1.19873,3.02991 -1.59773,3.5019 -3.34646,5.32889 -0.16979,0.17199 -0.33215,0.31701 -0.49105,0.4365 0.73241,-2.78652 0.80904,-3.037 -0.34557,-5.14701 -0.52656,2.83534 -1.22153,4.35486 -1.76416,5.14701 0.19693,-2.28177 -0.77496,-2.59222 -1.76414,-2.94635 0.37397,1.86991 -0.0414,3.05371 -0.50925,3.81933 -0.46788,0.76563 -0.94574,1.05487 -0.94574,1.05487 l 0.0182,0.0364 c -1.2124,0.82066 -2.43456,1.93828 -3.56471,3.2919 -2.3982,2.87236 -4.32859,6.86738 -4.32859,11.33069 0,4.3697 1.28225,8.33859 3.40104,11.25794 2.11877,2.91936 5.11168,4.78326 8.45709,4.78326 3.34541,0 6.35651,-1.8639 8.47529,-4.78326 2.11877,-2.91935 3.40102,-6.88824 3.40102,-11.25794 0,-4.43075 -1.71818,-8.42499 -4.01939,-11.3125 -1.51017,-1.89494 -3.26536,-3.34586 -5.05607,-4.12853 0.10974,-0.0951 0.21897,-0.18119 0.32737,-0.29099 1.17239,-1.18762 2.22123,-3.29877 2.05517,-6.62019 z m 21.53377,7.18399 c 1.7965,0 4.39264,1.50248 6.4565,4.09215 2.06385,2.58968 3.60109,6.18801 3.60109,10.13033 0,3.99889 -1.17967,7.58901 -3.03728,10.14852 -1.85762,2.55951 -4.32718,4.05577 -7.02031,4.05577 -2.69313,0 -5.18086,-1.49626 -7.03848,-4.05577 -1.85763,-2.55951 -3.03728,-6.14963 -3.03728,-10.14852 0,-3.91216 1.71784,-7.50801 3.89208,-10.11214 2.17424,-2.60414 4.90605,-4.11034 6.18368,-4.11034 z m -26.71715,0.94574 c 1.82998,0 4.43081,1.52293 6.49287,4.11034 2.06205,2.58741 3.60108,6.18844 3.60108,10.11214 0,3.98474 -1.18252,7.55656 -3.03728,10.11215 -1.85475,2.55557 -4.33867,4.07395 -7.05667,4.07395 -2.71801,0 -5.20191,-1.51838 -7.05667,-4.07395 -1.85477,-2.55559 -3.03728,-6.12741 -3.03728,-10.11215 0,-3.89114 1.71915,-7.49139 3.89208,-10.09395 2.17293,-2.60256 4.88318,-4.12853 6.20187,-4.12853 z m 22.40676,11.71263 c -2.3691,0 -4.27401,1.97641 -4.27401,4.36495 0,2.38856 1.90491,4.36496 4.27401,4.36496 2.36911,0 4.2922,-1.9764 4.2922,-4.36496 0,-2.38854 -1.92309,-4.36495 -4.2922,-4.36495 z m -17.64168,0.0727 c -2.36911,0 -4.27402,1.9764 -4.27402,4.36496 0,2.38855 1.90491,4.36495 4.27402,4.36495 2.36909,0 4.2922,-1.9764 4.2922,-4.36495 0,-2.38856 -1.92311,-4.36496 -4.2922,-4.36496 z m 17.64168,1.74598 c 1.36482,0 2.47347,1.11967 2.47347,2.54622 0,1.42656 -1.10865,2.54623 -2.47347,2.54623 -1.36483,0 -2.45528,-1.11967 -2.45528,-2.54623 0,-1.42655 1.09045,-2.54622 2.45528,-2.54622 z m -17.64168,0.0727 c 1.36481,0 2.47347,1.11968 2.47347,2.54623 0,1.42655 -1.10866,2.54622 -2.47347,2.54622 -1.36484,0 -2.45529,-1.11967 -2.45529,-2.54622 0,-1.42655 1.09045,-2.54623 2.45529,-2.54623 z m 57.81745,5.63807 c -0.0856,-10e-4 -0.16925,0.009 -0.25463,0.0182 -0.68301,0.0793 -1.21547,0.47165 -1.63686,0.92755 -0.42139,0.45589 -0.77337,1.00611 -1.07305,1.60048 -1.19873,2.37748 -1.80054,5.56531 -1.80054,5.56531 1.37617,-0.19198 1.9723,-0.60753 2.47347,-2.23703 0.36506,0.3543 0.77732,0.82261 1.03668,1.32767 1.13847,3.49867 -0.23469,3.35223 -0.83661,5.11063 1.52036,-0.8802 2.41444,-1.8958 2.76446,-2.98272 0.35003,-1.08691 0.11288,-2.14261 -0.30918,-2.96452 -0.58375,-1.1368 -1.48582,-1.92676 -2.00061,-2.32798 0.0977,-0.22999 0.20327,-0.46284 0.30919,-0.67293 0.25147,-0.49876 0.51927,-0.93574 0.76387,-1.20036 0.2446,-0.26463 0.4388,-0.33527 0.52743,-0.34556 0.0886,-0.0107 0.20493,-0.007 0.50924,0.2728 0.68995,0.59109 1.73514,0.91248 2.80085,0.94575 -0.50772,-1.03495 -1.01853,-1.77221 -1.5823,-2.2916 -0.49329,-0.45447 -1.0923,-0.73669 -1.69141,-0.74568 z m -102.7401,0.4183 c 0.73363,-0.0324 1.75135,0.43939 2.74628,1.21855 1.98987,1.55834 3.7284,4.07396 3.7284,4.07396 l 0.0727,-0.0364 c -0.0174,2.07652 0.0271,4.23056 0.20007,6.32917 -1.72171,-2.65017 -5.6535,-4.54997 -6.58381,-2.94633 0,0 0.77651,0.0513 1.90967,0.7093 -0.35313,0.35179 -0.57832,0.89243 -0.61837,1.47317 -0.0189,1.40062 1.07968,2.75413 2.25523,2.67354 -0.24048,0.35716 -0.47372,0.74283 -0.65474,1.16399 -0.38021,0.88456 -0.55866,2.01245 -0.0182,3.03728 0.54049,1.02482 1.68024,1.76797 3.45558,2.21885 -0.54161,-1.78046 -0.73667,-1.70453 -1.8551,-3.07366 -0.20973,-0.39767 -0.16541,-0.85858 0.091,-1.45498 0.25118,-0.58436 0.71539,-1.18014 1.10943,-1.63686 0.186,-0.17702 1.13911,0.44612 1.32768,1.21855 0.3172,1.85694 0.76789,3.56649 1.43679,4.96513 l 1.25493,2.63717 c -0.64248,0.47296 -1.13339,0.86354 -1.40045,1.32763 -0.4355,-0.30882 -0.93592,-0.6133 -1.49136,-0.85479 -0.51353,-0.22328 -1.08183,-0.39568 -1.69142,-0.47288 -0.6096,-0.0772 -1.26183,-0.0559 -1.92786,0.10912 -0.36973,0.0916 -0.74054,0.23581 -1.10942,0.41832 -1.06478,-1.74781 -2.68914,-5.06281 -3.81934,-8.71172 -1.33329,-4.30464 -1.93009,-9.07632 -0.52743,-12.34919 0.69958,-1.63234 1.3761,-2.00451 2.10973,-2.03698 z m 24.22549,4.21946 c 0,0 1.72532,4.58556 7.54773,6.00181 -2.79688,-2.21816 -5.19014,-3.55732 -7.54773,-6.00181 z m -19.33311,7.83873 c -0.32374,0.32404 -0.73367,0.77986 -1.1458,1.38224 -0.41031,-1.27522 -0.51822,-2.09793 -0.49106,-2.49167 0.37266,-0.38371 1.05009,0.34234 1.63686,1.10943 z m 95.01049,6.40193 c 0.34419,-0.007 0.71965,-0.004 1.09124,0.0364 0.7432,0.0806 1.47372,0.29136 2.0188,0.65474 0.54507,0.3634 0.93931,0.8491 1.1276,1.7278 0.40871,1.90729 -0.0984,4.21005 -1.18217,5.47438 -0.54185,0.63217 -1.18404,1.01616 -1.98241,1.10943 -0.70153,0.0819 -1.57236,-0.0532 -2.61898,-0.61837 0.31759,-2.74327 0.44293,-5.51465 0.30918,-8.29342 0.33028,-0.0478 0.73049,-0.0795 1.23674,-0.0909 z m -95.48336,5.89269 c 0.63342,-0.0316 1.24445,0.11406 1.81873,0.36375 1.12347,0.48846 2.02989,1.34932 2.4371,1.78235 0.12836,1.1635 0.29325,2.50602 0.58199,4.09214 -1.03703,2.99318 -2.89276,3.70855 -4.96513,3.52834 -0.92435,-0.0804 -2.98593,-0.79267 -4.03758,-1.98242 -0.52583,-0.59487 -0.83489,-1.24849 -0.81843,-2.10972 0.0165,-0.86123 0.3917,-1.98123 1.45498,-3.38284 1.05123,-1.3857 2.02188,-1.98511 2.89179,-2.20066 0.21748,-0.0539 0.42541,-0.0804 0.63655,-0.091 z m 42.15818,7.42042 c -1.11695,0.81601 -0.48382,3.83362 0.21825,4.67414 0.35024,0.40412 0.7597,0.7946 1.23673,1.16398 0.17566,0.53632 0.50514,1.33114 1.16399,2.23705 1.13236,1.55699 3.19003,3.42283 6.85662,4.87419 -1.97749,-2.17341 -3.791,-2.92032 -5.07426,-5.54712 3.33377,0.32938 6.33226,0.29203 7.36586,-1.20036 -5.89338,0.63904 -8.69094,-1.0071 -10.1667,-2.70991 -1.47578,-1.70282 -1.60049,-3.49197 -1.60049,-3.49197 z m 3.87389,27.11728 c -0.60665,0.0661 -1.17048,0.37082 -1.74598,0.81842 l -0.0182,0.0182 -0.0182,0.0182 c -1.22876,1.08541 -1.84877,2.28358 -1.96423,3.45558 -0.11547,1.172 0.23487,2.22874 0.67293,3.1646 0.43806,0.93586 0.97306,1.76847 1.32767,2.47347 0.35462,0.70501 0.46509,1.22531 0.40012,1.50955 -0.0979,0.42844 -0.20089,0.51419 -0.38193,0.60018 -0.18103,0.086 -0.51602,0.11965 -0.89118,0.0728 -0.75031,-0.0938 -1.54592,-0.47287 -1.54592,-0.47287 -0.0755,1.66083 2.03963,1.95287 3.29191,2.40078 0.29108,0.19868 0.7172,0.64777 0.61836,2.32798 -0.0693,1.17783 0.3823,2.22324 1.12762,2.92815 0.74531,0.70491 1.73509,1.1091 2.78266,1.27311 2.09511,0.32803 4.51363,-0.22397 6.20186,-1.78235 2.36539,-2.18342 3.45393,-3.7048 3.89209,-4.92876 1.02382,-0.18939 1.48991,-0.92285 1.52773,-1.81873 0,0 -0.7727,0.26668 -1.89148,-0.1455 -0.0138,-0.0292 -0.0355,-0.10965 -0.0727,-0.291 -0.0744,-0.36268 -0.0864,-0.99318 -0.091,-1.74598 -0.01,-1.5056 0.028,-3.53557 -0.52742,-5.63807 -0.29529,-1.11785 -0.80424,-1.93229 -1.54593,-2.36434 -0.74169,-0.43205 -1.583,-0.39614 -2.27341,-0.18188 -1.38082,0.42854 -2.41335,1.40118 -2.94635,2.20066 -0.19153,0.28731 -0.467,0.42571 -0.83662,0.38195 -0.36961,-0.0437 -0.91652,-0.31629 -1.47316,-1.18218 -0.64689,-1.00628 -1.12042,-1.96915 -1.98242,-2.61898 -0.431,-0.3249 -1.0302,-0.53902 -1.63685,-0.47287 z m 0.20007,1.81873 c 0.13051,-0.0143 0.16129,-0.0161 0.32737,0.10912 0.33217,0.25041 0.88821,1.09472 1.56411,2.1461 0.76613,1.19177 1.75601,1.87903 2.78265,2.00061 1.02666,0.12158 2.02107,-0.36717 2.56442,-1.18218 0.20188,-0.30282 1.2139,-1.24031 1.96422,-1.47317 0.37517,-0.11643 0.61396,-0.10091 0.81843,0.0182 0.20447,0.1191 0.50837,0.42535 0.72749,1.25492 0.47345,1.79237 0.44539,3.65742 0.45469,5.20157 0.01,0.82458 0.0441,1.57912 0.20003,2.29161 -0.56288,-0.003 -1.1855,0.0919 -1.69142,0.16368 -0.19684,0.0364 -0.37931,0.0751 -0.56381,0.1273 -0.0107,-0.34195 -0.074,-0.66598 -0.18187,-0.96392 -0.23515,-0.64977 -0.62901,-1.18971 -1.05487,-1.63686 -0.91359,-0.80449 -1.601,-1.42114 -2.58259,-2.23701 0,0 -0.8153,0.99401 -1.54592,2.18248 -0.36531,0.59424 -0.7076,1.23579 -0.92756,1.89148 -0.21995,0.65569 -0.38654,1.40605 0.0545,2.12792 0.59776,0.97815 1.67549,1.5758 2.8554,1.7096 1.1799,0.13381 2.58189,-0.4287 3.1646,-1.83692 0.0173,-0.0418 0.0394,-0.0852 0.0545,-0.12731 l 0.60018,0.67293 c -0.12917,0.11483 0.12433,-0.0447 0.47288,-0.10912 0.34853,-0.0644 0.79512,-0.11926 1.23673,-0.1455 0.0678,-0.004 0.11502,0.003 0.18187,0 -0.47249,0.79983 -1.36169,1.9089 -3.03728,3.45559 -1.17777,1.08718 -3.16798,1.56918 -4.71051,1.32767 -0.77126,-0.12074 -1.4022,-0.40531 -1.80054,-0.78206 -0.39834,-0.37673 -0.60476,-0.81344 -0.56381,-1.50954 0.0596,-1.01453 -0.0752,-1.82909 -0.32737,-2.47348 0.0451,0.0234 0.0931,0.0483 0.12731,0.0727 l 1.07305,-1.47317 c -0.65227,-0.46591 -1.37941,-0.63137 -2.01879,-0.70931 0.003,-0.0132 0.0152,-0.023 0.0182,-0.0364 0.22898,-1.00179 -0.14679,-1.91722 -0.56381,-2.74628 -0.417,-0.82906 -0.93918,-1.62781 -1.30948,-2.41891 -0.3703,-0.79111 -0.57749,-1.54429 -0.50925,-2.23704 0.0677,-0.68711 0.38858,-1.40252 1.34587,-2.25523 0.007,-0.007 0.0107,-0.0112 0.0182,-0.0182 0.36936,-0.27244 0.66063,-0.36869 0.78206,-0.38194 z m 5.63806,8.51166 c 0.30826,0.21201 0.64629,0.48581 0.94575,0.80023 0.30902,0.32448 0.55902,0.68555 0.67292,1.00031 0.11391,0.31475 0.13045,0.55773 0,0.87299 -0.29914,0.72293 -0.68912,0.81397 -1.2913,0.74568 -1.0766,-0.3036 -1.51885,-0.658 -1.40042,-1.45499 0.1452,-0.43284 0.44024,-1.00128 0.76386,-1.52773 0.14353,-0.23346 0.16427,-0.22469 0.30919,-0.43649 z m 9.3119,12.91298 c -1.16073,4.22144 -2.80398,12.52238 -1.52773,22.62501 -4.08466,4.62446 -8.60656,6.96649 -10.20308,7.69323 -1.6027,-3.71353 -3.49712,-7.26125 -5.71081,-10.36676 3.43153,-6.69522 3.10346,-15.19233 2.74628,-18.86024 1.14847,0.35619 2.31973,0.64218 3.52833,0.81843 3.58535,0.52286 7.41468,0.0874 11.16701,-1.90967 z m -34.2467,4.1649 c 9.24066,0.35905 16.11995,4.42829 17.69626,5.438 -0.27465,2.88061 -0.89274,5.97013 -2.12793,8.71172 -2.1311,-2.16306 -4.21349,-4.35337 -6.22005,-3.67383 6.20483,4.72413 10.82016,13.67307 13.87692,22.64319 1.90022,5.57624 3.13918,11.03579 3.92846,15.60471 -0.95207,-1.39871 -2.11924,-2.8832 -3.89209,-5.12882 -2.36234,-2.99229 -6.0126,-5.0839 -9.05728,-6.47468 -3.04468,-1.39078 -5.52894,-2.07335 -5.52894,-2.07335 l -0.0727,-0.0182 h -0.0728 c 0,0 -1.7891,-0.22559 -3.69202,-0.83662 -0.95146,-0.30551 -1.93174,-0.71186 -2.67354,-1.20036 -0.49364,-0.32508 -0.82419,-0.67263 -1.07304,-1.03667 1.43271,-0.89995 3.42083,-1.85665 6.47467,-6.23825 l 0.0545,-0.10912 0.0545,-0.10913 c 0.55982,-1.55028 0.35056,-3.07718 -0.36375,-4.34677 -0.71431,-1.26958 -1.87257,-2.31781 -3.23734,-3.23734 -2.3467,-1.5811 -5.30085,-2.76808 -7.96604,-3.78296 1.31483,-1.48689 2.19645,-3.52324 2.80084,-5.81993 0.68496,-2.60283 0.97579,-5.52152 1.09125,-8.31161 z m 23.11607,50.54252 c -1.55308,0 -2.81903,1.30062 -2.81903,2.85541 0,1.55478 1.26595,2.85541 2.81903,2.85541 1.55307,0 2.81904,-1.30062 2.81904,-2.85541 0,-1.55479 -1.26597,-2.85541 -2.81904,-2.85541 z m 0,1.81873 c 0.5488,0 1.00031,0.4439 1.00031,1.03668 0,0.59279 -0.45151,1.03668 -1.00031,1.03668 -0.5488,0 -1.0003,-0.44388 -1.0003,-1.03668 0,-0.59278 0.4515,-1.03668 1.0003,-1.03668 z m -0.41831,4.94695 c -1.55307,0 -2.80084,1.30063 -2.80084,2.85541 0,1.55479 1.24777,2.8554 2.80084,2.8554 1.55308,0 2.81903,-1.30061 2.81903,-2.8554 0,-1.55478 -1.26595,-2.85541 -2.81903,-2.85541 z m 0,1.81873 c 0.5488,0 1.0003,0.44389 1.0003,1.03668 0,0.59279 -0.4515,1.03667 -1.0003,1.03667 -0.5488,0 -0.98211,-0.44388 -0.98211,-1.03667 0,-0.59279 0.43331,-1.03668 0.98211,-1.03668 z"
         id="path2997"
         style="color:#000000;font-style:normal;font-variant:normal;font-weight:normal;font-stretch:normal;font-size:medium;line-height:normal;font-family:Sans;-inkscape-font-specification:Sans;text-indent:0;text-align:start;text-decoration:none;text-decoration-line:none;letter-spacing:normal;word-spacing:normal;text-transform:none;writing-mode:lr-tb;direction:ltr;text-anchor:start;display:inline;overflow:visible;visibility:visible;fill:#000000;fill-opacity:1;stroke:none;stroke-width:3.33333325;marker:none;enable-background:accumulate"
         inkscape:connector-curvature="0" />
      <path
         d="m 158.33333,481.26667 c -0.2744,0 -0.51852,0.11493 -0.7,0.3 -0.18148,0.18506 -0.3,0.43694 -0.3,0.73333 0,0.29639 0.11852,0.54827 0.3,0.73333 0.18148,0.18507 0.4256,0.3 0.7,0.3 0.2744,0 0.51852,-0.11492 0.7,-0.3 0.18148,-0.18506 0.3,-0.43694 0.3,-0.73333 0,-0.29639 -0.11852,-0.54827 -0.3,-0.73333 -0.18148,-0.18507 -0.4256,-0.3 -0.7,-0.3 z m -0.4,6.76666 c -0.2744,0 -0.52308,0.11494 -0.7,0.3 -0.17692,0.18508 -0.3,0.43694 -0.3,0.73334 0,0.29639 0.12308,0.54826 0.3,0.73333 0.17692,0.18507 0.4256,0.3 0.7,0.3 0.2744,0 0.51853,-0.11492 0.7,-0.3 0.18149,-0.18507 0.3,-0.43694 0.3,-0.73333 0,-0.2964 -0.11851,-0.54826 -0.3,-0.73334 -0.18147,-0.18506 -0.4256,-0.3 -0.7,-0.3 z"
         id="path4511"
         style="fill:#ffcc00;stroke:none;stroke-width:1.06666672"
         inkscape:connector-curvature="0" />
      <path
         d="m 160.15454,411.81657 c -0.14492,0.2118 -0.16565,0.20302 -0.30919,0.43649 -0.32363,0.52645 -0.61866,1.09489 -0.76386,1.52773 -0.0592,0.3985 0.0243,0.6832 0.25463,0.90936 0.23033,0.22618 0.60749,0.39383 1.14579,0.54563 0.30109,0.0341 0.55372,0.0319 0.76387,-0.0727 0.21016,-0.10464 0.37786,-0.31147 0.52744,-0.67293 0.13044,-0.31525 0.11391,-0.55824 0,-0.87299 -0.11391,-0.31475 -0.36391,-0.67583 -0.67294,-1.0003 -0.29945,-0.31443 -0.63747,-0.58823 -0.94574,-0.80024 z"
         id="path4487"
         style="fill:#ffffff;stroke:none;stroke-width:1.06666672"
         inkscape:connector-curvature="0" />
      <path
         d="m 164.8,337.7 c -0.80813,4.1753 2.42318,3.24212 3.43333,2.36667 C 164.86612,341.07681 164.8,337.7 164.8,337.7 Z m -17.66667,0.13333 c -0.80812,4.1753 2.42318,3.24213 3.43334,2.36667 -3.36721,1.01014 -3.43334,-2.36667 -3.43334,-2.36667 z"
         id="path3026"
         style="fill:#bcd0ea;stroke:none;stroke-width:1.06666672"
         inkscape:connector-curvature="0" />
    </g>
  </g>
</svg>
