<?xml version="1.0" encoding="UTF-8" standalone="no"?>
<!-- Created with Inkscape (http://www.inkscape.org/) -->

<svg
   xmlns:dc="http://purl.org/dc/elements/1.1/"
   xmlns:cc="http://creativecommons.org/ns#"
   xmlns:rdf="http://www.w3.org/1999/02/22-rdf-syntax-ns#"
   xmlns:svg="http://www.w3.org/2000/svg"
   xmlns="http://www.w3.org/2000/svg"
   xmlns:sodipodi="http://sodipodi.sourceforge.net/DTD/sodipodi-0.dtd"
   xmlns:inkscape="http://www.inkscape.org/namespaces/inkscape"
   width="212.95143"
   height="228.95482"
   id="svg2"
   version="1.1"
   inkscape:version="0.92.1 r15371"
   sodipodi:docname="thumbs_up.svg"
   inkscape:export-filename="/home/maurits/Desktop/thumbs_up.png"
   inkscape:export-xdpi="90"
   inkscape:export-ydpi="90">
  <defs
     id="defs4">
    <inkscape:path-effect
       effect="skeletal"
       id="path-effect3309"
       is_visible="true"
       pattern="m -23.571428,-0.71428575 c 0,-2.75999995 2.24,-4.99999995 5,-4.99999995 2.76,0 5,2.24 5,4.99999995 0,2.76000005 -2.24,5.00000005 -5,5.00000005 -2.76,0 -5,-2.24 -5,-5.00000005 z"
       copytype="single_stretched"
       prop_scale="1"
       scale_y_rel="false"
       spacing="0"
       normal_offset="0"
       tang_offset="0"
       prop_units="false"
       vertical_pattern="false"
       fuse_tolerance="0" />
    <inkscape:path-effect
       effect="spiro"
       id="path-effect3307"
       is_visible="true" />
    <inkscape:path-effect
       effect="skeletal"
       id="path-effect3303"
       is_visible="true"
       pattern="m -5.7142851,2.8571429 c 0,-2.76000005 2.24,-5 5.00000002,-5 2.75999998,0 4.99999998,2.23999995 4.99999998,5 0,2.76 -2.24,5 -4.99999998,5 -2.76000002,0 -5.00000002,-2.24 -5.00000002,-5 z"
       copytype="single_stretched"
       prop_scale="1"
       scale_y_rel="false"
       spacing="0"
       normal_offset="0"
       tang_offset="0"
       prop_units="false"
       vertical_pattern="false"
       fuse_tolerance="0" />
    <inkscape:path-effect
       effect="spiro"
       id="path-effect3301"
       is_visible="true" />
    <inkscape:path-effect
       effect="skeletal"
       id="path-effect3297"
       is_visible="true"
       pattern="m -3.5714281,-1.4285714 c 0,-2.76 2.24,-5 5.0000001,-5 2.7599999,0 4.9999999,2.24 4.9999999,5 0,2.76 -2.24,5 -4.9999999,5 -2.7600001,0 -5.0000001,-2.24 -5.0000001,-5 z"
       copytype="single_stretched"
       prop_scale="1"
       scale_y_rel="false"
       spacing="0"
       normal_offset="0"
       tang_offset="0"
       prop_units="false"
       vertical_pattern="false"
       fuse_tolerance="0" />
    <inkscape:path-effect
       effect="spiro"
       id="path-effect3295"
       is_visible="true" />
    <inkscape:path-effect
       effect="skeletal"
       id="path-effect3291"
       is_visible="true"
       pattern="m -7.1428572,26.428571 c 0,-2.76 2.24,-5 5,-5 2.76000005,0 5,2.24 5,5 0,2.76 -2.23999995,5 -5,5 -2.76,0 -5,-2.24 -5,-5 z"
       copytype="single_stretched"
       prop_scale="1.0666667"
       scale_y_rel="false"
       spacing="0"
       normal_offset="0"
       tang_offset="0"
       prop_units="false"
       vertical_pattern="false"
       fuse_tolerance="0" />
    <inkscape:path-effect
       effect="spiro"
       id="path-effect3289"
       is_visible="true" />
    <inkscape:path-effect
       fuse_tolerance="0"
       vertical_pattern="false"
       prop_units="false"
       tang_offset="0"
       normal_offset="0"
       spacing="0"
       scale_y_rel="false"
       prop_scale="1.0666667"
       copytype="single_stretched"
       pattern="m 206.21114,373.62978 c 0,-2.76 2.24,-5 5,-5 2.76,0 5,2.24 5,5 0,2.76 -2.24,5 -5,5 -2.76,0 -5,-2.24 -5,-5 z"
       is_visible="true"
       id="path-effect3285"
       effect="skeletal" />
    <inkscape:path-effect
       is_visible="true"
       id="path-effect3283"
       effect="spiro" />
    <inkscape:path-effect
       effect="skeletal"
       id="path-effect3257"
       is_visible="true"
       pattern="M 0,5 C 0,2.24 2.24,0 5,0 7.76,0 10,2.24 10,5 10,7.76 7.76,10 5,10 2.24,10 0,7.76 0,5 Z"
       copytype="single_stretched"
       prop_scale="1"
       scale_y_rel="false"
       spacing="0"
       normal_offset="0"
       tang_offset="0"
       prop_units="false"
       vertical_pattern="false"
       fuse_tolerance="0" />
    <inkscape:path-effect
       effect="spiro"
       id="path-effect3255"
       is_visible="true" />
    <inkscape:path-effect
       effect="skeletal"
       id="path-effect3251"
       is_visible="true"
       pattern="M -13.571428,-3.0079046e-8 C -13.571428,-2.76 -11.331428,-5 -8.5714284,-5 -5.8114285,-5 -3.5714285,-2.76 -3.5714285,-3.0079046e-8 -3.5714285,2.76 -5.8114285,5 -8.5714284,5 -11.331428,5 -13.571428,2.76 -13.571428,-3.0079046e-8 Z"
       copytype="single_stretched"
       prop_scale="1.0666667"
       scale_y_rel="false"
       spacing="0"
       normal_offset="0"
       tang_offset="0"
       prop_units="false"
       vertical_pattern="false"
       fuse_tolerance="0" />
    <inkscape:path-effect
       effect="spiro"
       id="path-effect3249"
       is_visible="true" />
    <inkscape:path-effect
       fuse_tolerance="0"
       vertical_pattern="false"
       prop_units="false"
       tang_offset="0"
       normal_offset="0"
       spacing="0"
       scale_y_rel="false"
       prop_scale="1.0666667"
       copytype="single_stretched"
       pattern="m 318.55714,462.05692 c 0,-2.76 2.24,-5 5,-5 2.76,0 5,2.24 5,5 0,2.76 -2.24,5 -5,5 -2.76,0 -5,-2.24 -5,-5 z"
       is_visible="true"
       id="path-effect3245"
       effect="skeletal" />
    <inkscape:path-effect
       is_visible="true"
       id="path-effect3243"
       effect="spiro" />
    <inkscape:path-effect
       effect="skeletal"
       id="path-effect3217"
       is_visible="true"
       pattern="M 0,5 C 0,2.24 2.24,0 5,0 7.76,0 10,2.24 10,5 10,7.76 7.76,10 5,10 2.24,10 0,7.76 0,5 Z"
       copytype="single_stretched"
       prop_scale="1.0666667"
       scale_y_rel="false"
       spacing="0"
       normal_offset="0"
       tang_offset="0"
       prop_units="false"
       vertical_pattern="false"
       fuse_tolerance="0" />
    <inkscape:path-effect
       effect="spiro"
       id="path-effect3215"
       is_visible="true" />
    <inkscape:path-effect
       effect="skeletal"
       id="path-effect3109"
       is_visible="true"
       pattern="m 1,-1 c 0,-2.76 2.24,-5 5,-5 2.76,0 5,2.24 5,5 C 11,1.76 8.76,4 6,4 3.24,4 1,1.76 1,-1 Z"
       copytype="single_stretched"
       prop_scale="1.0666667"
       scale_y_rel="false"
       spacing="0"
       normal_offset="0"
       tang_offset="0"
       prop_units="false"
       vertical_pattern="false"
       fuse_tolerance="0" />
    <inkscape:path-effect
       effect="spiro"
       id="path-effect3107"
       is_visible="true" />
    <inkscape:path-effect
       effect="skeletal"
       id="path-effect3097"
       is_visible="true"
       pattern="M 0,7 C 0,4.24 2.24,2 5,2 7.76,2 10,4.24 10,7 10,9.76 7.76,12 5,12 2.24,12 0,9.76 0,7 Z"
       copytype="single_stretched"
       prop_scale="1.0666667"
       scale_y_rel="false"
       spacing="0"
       normal_offset="0"
       tang_offset="0"
       prop_units="false"
       vertical_pattern="false"
       fuse_tolerance="0" />
    <inkscape:path-effect
       effect="spiro"
       id="path-effect3095"
       is_visible="true" />
    <inkscape:path-effect
       effect="skeletal"
       id="path-effect3091"
       is_visible="true"
       pattern="m 4.1428571,5.4285714 c 0,-2.76 2.24,-4.99999998 5,-4.99999998 2.7599999,0 4.9999999,2.23999998 4.9999999,4.99999998 0,2.76 -2.24,4.9999996 -4.9999999,4.9999996 -2.76,0 -5,-2.2399996 -5,-4.9999996 z"
       copytype="single_stretched"
       prop_scale="1.0666667"
       scale_y_rel="false"
       spacing="0"
       normal_offset="0"
       tang_offset="0"
       prop_units="false"
       vertical_pattern="false"
       fuse_tolerance="0" />
    <inkscape:path-effect
       effect="spiro"
       id="path-effect3089"
       is_visible="true" />
    <inkscape:path-effect
       effect="spiro"
       id="path-effect3107-1"
       is_visible="true" />
    <inkscape:path-effect
       effect="skeletal"
       id="path-effect3109-1"
       is_visible="true"
       pattern="m -334.93865,-430.78801 c 0,-2.76 2.24,-5 5,-5 2.76,0 5,2.24 5,5 0,2.76 -2.24,5 -5,5 -2.76,0 -5,-2.24 -5,-5 z"
       copytype="single_stretched"
       prop_scale="1"
       scale_y_rel="false"
       spacing="0"
       normal_offset="0"
       tang_offset="0"
       prop_units="false"
       vertical_pattern="false"
       fuse_tolerance="0" />
    <inkscape:path-effect
       effect="spiro"
       id="path-effect3249-4"
       is_visible="true" />
    <inkscape:path-effect
       effect="skeletal"
       id="path-effect3251-1"
       is_visible="true"
       pattern="m -247.58083,-377.28323 c 0,-2.76 2.24,-5 5,-5 2.76,0 5,2.24 5,5 0,2.76 -2.24,5 -5,5 -2.76,0 -5,-2.24 -5,-5 z"
       copytype="single_stretched"
       prop_scale="1"
       scale_y_rel="false"
       spacing="0"
       normal_offset="0"
       tang_offset="0"
       prop_units="false"
       vertical_pattern="false"
       fuse_tolerance="0" />
  </defs>
  <sodipodi:namedview
     id="base"
     pagecolor="#ffffff"
     bordercolor="#666666"
     borderopacity="1.0"
     inkscape:pageopacity="0.0"
     inkscape:pageshadow="2"
     inkscape:zoom="1.4"
     inkscape:cx="151.8584"
     inkscape:cy="60.847882"
     inkscape:document-units="px"
     inkscape:current-layer="layer1"
     showgrid="false"
     showguides="true"
     inkscape:guide-bbox="true"
     fit-margin-top="0"
     fit-margin-left="0"
     fit-margin-right="0"
     fit-margin-bottom="0"
     inkscape:window-width="1023"
     inkscape:window-height="814"
     inkscape:window-x="1205"
     inkscape:window-y="267"
     inkscape:window-maximized="0" />
  <metadata
     id="metadata7">
    <rdf:RDF>
      <cc:Work
         rdf:about="">
        <dc:format>image/svg+xml</dc:format>
        <dc:type
           rdf:resource="http://purl.org/dc/dcmitype/StillImage" />
        <dc:title />
      </cc:Work>
    </rdf:RDF>
  </metadata>
  <g
     inkscape:label="Layer 1"
     inkscape:groupmode="layer"
     id="layer1"
     transform="translate(-219.1554,-310.83585)">
    <path
       style="fill:#008080;stroke-width:1.06666672"
       d="m 245.05152,489.90838 -8.47177,-5.76765 -2.90213,-7.76008 c -6.00184,-16.04842 -6.45838,-40.95859 -1.22348,-66.75751 1.57651,-7.76939 2.87136,-14.47179 2.87744,-14.89421 0.006,-0.42244 0.96617,0.003 2.13349,0.94702 3.06455,2.47642 10.80984,5.72136 17.12215,7.17342 3.00527,0.69132 5.66296,1.43209 5.90596,1.64615 0.243,0.21408 -0.85721,2.65611 -2.44492,5.42675 -3.29907,5.75711 -7.84284,19.21016 -9.5815,28.36864 -2.68338,14.13471 -0.8317,39.66179 3.76579,51.9147 1.02485,2.73131 1.73451,5.07951 1.57704,5.21823 -0.15747,0.13872 -4.0986,-2.34323 -8.75807,-5.51546 z"
       id="path3340"
       inkscape:connector-curvature="0" />
    <path
       style="fill:#ffffff;stroke-width:1.06666672"
       d="m 356.37579,529.42385 c -22.75612,-1.78087 -46.52663,-7.66803 -66.11725,-16.37505 -10.18503,-4.52671 -25.17032,-12.54067 -26.71787,-14.28841 -1.62496,-1.83516 -4.82,-12.61122 -5.92074,-19.96917 -0.54926,-3.67159 -0.94627,-13.2678 -0.92751,-22.41924 0.0317,-15.47101 1.01433,-25.21306 4.64935,-46.09524 l 0.59683,-3.42857 6.07573,-0.51011 c 16.90364,-1.41918 31.23793,-11.76584 39.11658,-28.2348 2.05928,-4.30459 4.31641,-9.71224 5.01582,-12.017 1.94518,-6.40988 2.31307,-16.727 0.88297,-24.7619 -1.62765,-9.14484 -1.55873,-13.15816 0.27768,-16.17003 3.86378,-6.33693 13.10832,-3.44498 20.7068,6.47764 6.16146,8.04608 8.26637,15.69315 8.26637,30.03139 0,19.23584 -3.76682,32.38087 -13.21482,46.11549 -2.36994,3.4452 -4.30899,6.61663 -4.30899,7.04762 0,1.30512 2.2928,0.88232 4.76624,-0.87892 2.50952,-1.78694 10.43135,-2.9754 26.9182,-4.03836 17.23127,-1.11095 44.61633,3.73892 55.12572,9.76272 7.34536,4.21026 11.41986,9.26919 11.45597,14.22388 0.034,4.67724 -5.29352,9.14286 -10.90773,9.14286 -4.69134,0 -4.26782,2.4585 0.71777,4.16664 4.23916,1.4524 7.39911,6.72977 7.75349,12.949 0.33626,5.90102 -1.26055,8.95454 -6.67977,12.77353 -6.40414,4.51311 -6.52524,4.89365 -3.41956,10.74598 4.25908,8.02578 3.47748,14.05607 -2.40318,18.54147 -2.34236,1.78662 -3.72371,2.17474 -8.95318,2.51558 -5.49634,0.35825 -6.20833,0.5766 -6.40699,1.96485 -0.14249,0.99586 0.73165,2.43098 2.41225,3.96029 1.44965,1.31916 2.8685,3.13186 3.153,4.02822 1.60254,5.04918 -2.90011,11.23138 -9.71684,13.34139 -3.99894,1.2378 -23.45154,2.0826 -32.19634,1.39825 z"
       id="path3336"
       inkscape:connector-curvature="0" />
    <path
       style="fill:#ffd5d5;stroke-width:1.06666672"
       d="m 360.64245,535.21434 c -22.75612,-1.78087 -46.52662,-7.66804 -66.11724,-16.37504 -10.18504,-4.52672 -32.78937,-14.82639 -34.33692,-16.57413 -19.13486,-24.69302 -4.33391,-70.97836 -4.6497,-89.62651 l 16.7424,-0.51011 c 16.95526,-0.51658 31.23793,-11.76584 39.11658,-28.23479 2.05928,-4.3046 4.31641,-9.71225 5.01583,-12.017 1.94517,-6.40989 2.31306,-16.72701 0.88296,-24.76191 -1.62765,-9.14483 -1.55873,-13.15816 0.27769,-16.17003 3.86377,-6.33693 13.10832,-3.44498 20.70678,6.47764 6.16146,8.04608 5.98066,17.21695 5.98066,31.55519 0,19.23585 -8.33825,30.85708 -17.78624,44.59169 -18.57161,17.27468 24.42758,2.92877 34.23259,2.13035 17.23127,-1.11096 44.61634,3.73891 55.12572,9.76272 7.34536,4.21024 11.41986,9.26918 11.45598,14.22386 -16.28183,16.746 -4.55482,9.44236 -2.43647,26.25852 0.33624,5.901 -1.26056,8.95453 -6.67978,12.77352 -6.40414,4.51311 -6.52524,4.89365 -3.41955,10.74599 4.25907,8.02578 3.47748,14.05606 -2.40318,18.54147 -2.34237,1.78661 -3.72371,2.17472 -8.95319,2.51557 -5.49634,0.35824 -6.20832,0.57659 -6.40698,1.96486 -0.1425,0.99586 0.73164,2.43096 2.41224,3.96029 1.44966,1.31915 2.86851,3.13185 3.153,4.02822 1.60255,5.04917 -2.90011,11.23138 -9.71685,13.34139 -3.99893,1.2378 -23.45153,2.0826 -32.19633,1.39824 z"
       id="path3311"
       inkscape:connector-curvature="0"
       sodipodi:nodetypes="csccsssssssccsccssssssssc" />
    <path
       style="fill:#000000;fill-rule:evenodd;stroke:none;stroke-width:1.06666672"
       d="m 328.83934,411.33203 c -0.43889,-1.21842 6.19765,-5.67829 18.77323,-8.80901 12.68549,-3.15808 30.44874,-4.54068 50.04732,0.43156 3.03234,0.76931 5.98071,1.65997 8.83719,2.65839 4.97694,1.70269 9.76259,3.87286 14.08972,7.00879 4.8617,3.48691 8.44308,8.21566 10.24778,13.46772 0.59549,1.77176 0.94233,3.6377 0.99991,5.53683 0.0737,3.16586 -0.7664,6.06477 -2.12469,8.44036 -1.57394,2.74195 -3.77494,4.69019 -6.01879,5.90934 0,0 -1e-5,0 -1e-5,0 -2.8415,1.53846 -5.67489,1.88962 -7.89207,1.70196 -5.38523,-0.46187 -6.7665,-3.31334 -6.56923,-3.6938 0.37858,-0.73014 2.8912,-0.0191 6.33422,-0.89513 1.49697,-0.37832 3.20923,-1.12261 4.65793,-2.40027 0,0 0,0 0,0 1.14159,-1.00184 2.16443,-2.37863 2.74048,-3.97025 0.50102,-1.37076 0.69571,-2.97398 0.44478,-4.51065 -0.13838,-0.93822 -0.47222,-1.92932 -0.93601,-2.98113 -1.3437,-3.14022 -4.07085,-5.96271 -7.64214,-8.3765 -3.26697,-2.17758 -7.18465,-3.69107 -11.73048,-5.21879 -2.6136,-0.85722 -5.30122,-1.64028 -8.06098,-2.34044 -17.83906,-4.52585 -33.89412,-4.42089 -46.15869,-3.33409 -12.00558,1.06386 -19.49321,2.89162 -20.03947,1.37511 z"
       id="path3087"
       inkscape:path-effect="#path-effect3089;#path-effect3091"
       inkscape:original-d="m 328.83934,411.33203 c 30.87184,-0.6585 46.0567,-5.7701 75.95844,-0.70982 6.95426,1.17686 16.53848,13.13708 21.85506,17.0359 1.50367,1.10268 0.96796,2.89258 0.96796,4.25898 0,8.8123 -14.09253,10.49096 -18.39109,12.06708"
       inkscape:connector-curvature="0"
       sodipodi:nodetypes="csssc" />
    <path
       style="fill:#000000;fill-rule:evenodd;stroke:none;stroke-width:1.06666672"
       d="m 416.49309,447.20083 c 0.37279,-1.04553 6.09563,-3.05169 11.78465,4.04397 2.50485,3.1454 4.24808,7.71821 3.74336,12.95747 -0.0823,0.82154 -0.21918,1.64224 -0.41185,2.45623 -0.9503,4.01488 -3.11863,7.3271 -5.79354,9.66573 -4.40214,3.82099 -9.32279,4.43238 -12.36398,3.90387 0,0 0,0 0,0 -2.90845,-0.51302 -4.15129,-1.89779 -4.03235,-2.89545 0.12905,-1.08248 1.56925,-1.84543 3.34195,-2.89545 0,0 0,0 0,0 1.88721,-1.12098 4.28993,-2.69712 6.04641,-5.07387 1.07011,-1.42703 1.96352,-3.23117 2.42513,-5.1669 0.0946,-0.39671 0.16904,-0.79143 0.22293,-1.18161 0.35793,-2.44773 -0.0496,-4.98296 -0.78915,-7.01748 -0.7605,-2.13134 -1.96983,-3.92735 -2.8905,-5.34966 -0.91832,-1.41868 -1.6015,-2.55377 -1.28306,-3.44685 z"
       id="path3093"
       inkscape:path-effect="#path-effect3095;#path-effect3097"
       inkscape:original-d="m 416.49309,447.20083 c -5.6516,39.39795 26.34345,-8.17101 -3.38656,30.13182 -6.07431,8.7102 2.58718,0 -3.68715,0"
       inkscape:connector-curvature="0"
       sodipodi:nodetypes="ccc" />
    <path
       style="fill:#000000;fill-rule:evenodd;stroke:none;stroke-width:1.06666672"
       d="m 408.45667,478.40538 c 0.30243,-0.82964 1.88846,-1.39124 4.515,-0.63125 2.52977,0.73199 6.13747,2.85169 8.6417,7.19296 2.40583,4.22372 3.43211,10.14402 1.19486,16.14383 -0.35627,0.93747 -0.785,1.8512 -1.28458,2.73234 -2.46472,4.34711 -6.2896,7.30091 -10.34087,8.76294 -6.69253,2.37067 -12.46666,0.38141 -15.42357,-1.79272 0,0 0,0 0,0 -2.85109,-2.11189 -3.34671,-4.22398 -2.74099,-4.97953 0.69187,-0.86302 2.51675,-0.5237 4.97821,-0.40809 0,0 0,0 0,0 2.56057,0.1187 6.18499,-0.0945 9.31408,-1.90692 1.89082,-1.06643 3.72661,-2.81139 4.94269,-4.9428 0.24884,-0.43613 0.46592,-0.87931 0.64879,-1.32541 1.1891,-2.79661 1.19542,-6.05594 0.53615,-8.58532 -0.66525,-2.65903 -2.14548,-4.9067 -3.27318,-6.53098 -1.14053,-1.64276 -2.03574,-2.83077 -1.70829,-3.72905 z"
       id="path3105"
       inkscape:path-effect="#path-effect3107;#path-effect3109"
       inkscape:original-d="m 408.45667,478.40538 c 74.17923,-11.615 68.09328,73.8863 -11.57885,29.71429 -69.69723,-39.80382 3.19242,-2.28572 -3.8596,-2.28572"
       inkscape:connector-curvature="0"
       sodipodi:nodetypes="ccc" />
    <path
       style="fill:#000000;fill-rule:evenodd;stroke:none;stroke-width:1.06666672"
       d="m 308.45536,363.66252 c 1.14517,0.26338 1.86223,4.95518 -0.77554,12.32946 -2.60355,7.27863 -8.62341,16.83548 -19.60125,23.46645 -1e-5,0 -1e-5,0 -1e-5,10e-6 -2.22948,1.34149 -4.61217,2.52879 -7.12874,3.52873 -7.41559,2.94655 -14.90782,3.84659 -21.61519,3.3263 -8.87167,-0.69507 -15.75069,-3.78299 -19.986,-6.63761 -4.28574,-2.8886 -5.93726,-5.47116 -5.38812,-6.29906 0.61945,-0.93391 3.37102,-0.0816 7.80148,1.03007 4.42981,1.11153 10.61384,2.46471 17.85861,2.24761 5.47369,-0.15884 11.44869,-1.22189 17.39233,-3.58069 2.02193,-0.80242 3.94809,-1.71914 5.76783,-2.73099 0,0 0,0 0,0 8.8721,-4.90692 14.83867,-11.96257 18.66307,-17.48333 3.82039,-5.51497 5.61862,-9.51731 7.01153,-9.19695 z"
       id="path3213"
       inkscape:path-effect="#path-effect3215;#path-effect3217"
       inkscape:original-d="m 308.45536,363.66252 c -12.63983,10.15735 -12.18758,19.04481 -23.0257,31.2381 -8.9737,10.09575 -44.15398,-13.28075 -51.46915,-1.52382"
       inkscape:connector-curvature="0"
       sodipodi:nodetypes="csc" />
    <path
       style="fill:#000000;fill-rule:evenodd;stroke:none;stroke-width:1.06666672"
       d="m 393.97861,507.47046 c 0.0385,-0.11382 3.30839,-1.29548 7.20556,3.09881 1.5436,1.74673 2.98525,4.43745 3.17956,7.86358 0.14124,2.94623 -0.62252,6.2391 -2.58607,9.22408 -1.65905,2.52443 -3.98804,4.75464 -6.85476,6.43206 0,0 -1e-5,0 -1e-5,0 -5.04268,2.89185 -10.67152,4.10366 -16.68109,4.69669 0,0 -1e-5,0 -1e-5,0 -17.9263,2.03466 -39.2793,1.24973 -62.18421,-4.83398 -7.85029,-2.08509 -15.31919,-4.64593 -22.35374,-7.55992 0,0 -1e-5,0 -1e-5,0 -23.13005,-9.56783 -40.2329,-22.36661 -51.41039,-33.11865 -11.07483,-10.65329 -15.77602,-18.57338 -14.95168,-19.30755 1.06721,-0.95047 7.51883,5.34051 19.31546,14.18842 12.01326,9.0104 28.81426,19.96839 50.92941,28.5683 0,0 10e-6,0 10e-6,0 6.71521,2.60725 13.79635,4.94556 21.21077,6.91542 21.65261,5.75267 41.59301,7.17594 58.74874,6.41672 0,0 10e-6,0 10e-6,0 5.72842,-0.34173 10.12124,-0.68104 13.87136,-2.50184 0,0 10e-6,0 10e-6,0 2.10618,-0.98904 3.84766,-2.23576 5.09482,-3.71603 1.45712,-1.72778 2.31473,-3.66654 2.5224,-5.47744 0.27196,-2.0964 -0.25208,-4.09539 -0.98695,-5.57351 -1.7095,-3.46012 -4.28633,-4.67412 -4.06919,-5.31516 z"
       id="path3105-9"
       inkscape:path-effect="#path-effect3243;#path-effect3245"
       inkscape:original-d="m 393.97861,507.47046 c -1.32331,7.02926 4.06197,6.7836 7.72063,10.92553 0.87238,0.98759 56.10471,48.73873 -23.80527,16.02407 -92.94645,-38.05172 -141.14782,-60.45447 -150.55221,-60.45447"
       inkscape:connector-curvature="0"
       sodipodi:nodetypes="cssc" />
    <path
       style="fill:#000000;fill-rule:evenodd;stroke:none;stroke-width:1.06666672"
       d="m 261.11097,402.52626 c 1.42273,0.58761 0.21357,6.35869 -1.39106,15.39546 -1.67025,9.40631 -3.48406,21.08404 -3.75827,35.24469 -0.15613,8.06276 0.22001,15.451 0.86626,22.22316 0,0 0,0 0,0 0.32692,3.35424 0.65367,6.1373 1.18867,8.84528 2.05666,10.55831 6.31091,17.00005 5.02457,18.07296 -0.89633,0.7476 -8.29389,-3.26888 -12.99025,-15.75134 -1.1362,-3.0388 -1.97791,-6.25444 -2.67165,-9.75806 0,0 0,0 0,0 -1.42422,-7.12461 -2.2494,-15.16434 -2.08257,-23.8378 0.29074,-15.11545 3.50817,-27.96091 7.17817,-37.13004 3.62105,-9.04685 7.35117,-13.83501 8.63613,-13.30431 z"
       id="path3247"
       inkscape:path-effect="#path-effect3249;#path-effect3251"
       inkscape:original-d="m 261.11097,402.52626 c -9.63754,20.09806 -16.94374,52.70616 -9.0074,73.56773 0.92448,2.43011 0.3179,7.18267 1.93016,9.30167 3.30916,4.34925 7.23022,12.24062 9.0074,16.91214"
       inkscape:connector-curvature="0" />
    <path
       style="fill:#000000;fill-rule:evenodd;stroke:none;stroke-width:1.06666672"
       d="m 235.00529,393.28931 c 1.39435,0.64836 0.16162,5.87943 -1.44404,14.01743 -1.66973,8.46278 -3.47195,18.98849 -3.7232,31.73694 -0.14097,7.15308 0.23656,13.71871 0.88676,19.74362 0,0 0,0 0,0 0.3314,3.00142 0.65824,5.48796 1.17989,7.89147 2.03913,9.5532 6.26016,15.35394 5.03075,16.51531 -0.83697,0.79065 -8.17204,-2.32268 -12.98405,-13.96089 -1.13313,-2.76012 -1.98403,-5.69344 -2.68043,-8.87043 0,0 0,0 0,0 -1.4239,-6.42941 -2.25057,-13.69459 -2.09792,-21.52803 0.2702,-13.86515 3.52214,-25.58636 7.21006,-33.83757 3.64323,-8.15124 7.36342,-12.29316 8.62218,-11.70785 z"
       id="path3247-3"
       inkscape:path-effect="#path-effect3283;#path-effect3285"
       inkscape:original-d="m 235.00529,393.28931 c -23.11275,13.64057 -45.20209,38.11921 -9.0074,66.28572 1.72757,1.34438 0.3179,6.47169 1.93016,8.38095 3.30916,3.91874 7.23022,11.02899 9.0074,15.2381"
       inkscape:connector-curvature="0"
       sodipodi:nodetypes="cssc" />
    <path
       style="fill:#000000;fill-rule:evenodd;stroke:none;stroke-width:1.06666672"
       d="m 299.53717,384.84105 c -0.70064,-0.54019 1.34835,-4.07222 3.47417,-10.52448 2.07001,-6.28286 4.23024,-16.21096 1.82681,-27.22022 0,0 0,0 0,0 -0.76404,-3.50332 -2.52856,-8.88779 -3.08291,-14.13933 -0.27597,-2.64587 -0.1885,-5.55957 0.54123,-8.57648 0.70114,-2.929 2.18497,-5.86173 4.57867,-8.35799 2.34835,-2.34011 5.27631,-3.9482 8.4481,-4.67297 3.06645,-0.69882 6.20264,-0.67431 9.1743,0.006 5.71891,1.39155 10.54527,4.54611 14.27875,8.42366 0.74613,0.75134 1.46686,1.52914 2.16118,2.33196 5.58357,6.45608 9.11682,14.12095 10.73221,21.81711 1.22005,5.86928 1.41659,11.6149 1.22075,16.84874 -0.3227,11.82775 -2.76231,22.24685 -6.43769,30.74738 -3.66494,8.47639 -8.27326,14.42588 -12.37917,18.34367 -5.11695,4.83957 -8.86578,6.18012 -9.30387,5.6224 -0.60018,-0.76406 2.08121,-3.41737 5.69923,-8.72426 6.38795,-9.2744 12.60929,-23.26241 12.55328,-46.11851 -0.0642,-4.80038 -0.37599,-9.78685 -1.50707,-14.45306 -1.46062,-6.0869 -4.32719,-12.15145 -8.63049,-17.10606 -0.53596,-0.61708 -1.09046,-1.21248 -1.66278,-1.78483 -2.93275,-2.81506 -5.96406,-5.0614 -9.07781,-5.69773 -1.58267,-0.36515 -3.16408,-0.45043 -4.53931,-0.14689 -1.39651,0.30617 -2.70498,0.91953 -3.58283,1.77606 -0.97604,0.84283 -1.69708,2.22918 -2.1868,3.7172 -0.50711,1.57059 -0.62033,3.41839 -0.5675,5.31628 0.10884,4.11658 1.42736,8.61451 2.06347,13.3666 0,0 0,10e-6 0,10e-6 1.80368,13.45439 -2.19437,24.40503 -5.85247,30.71338 -3.79931,6.55188 -7.37704,8.92731 -7.94145,8.49215 z"
       id="path3287"
       inkscape:path-effect="#path-effect3289;#path-effect3291"
       inkscape:original-d="m 299.53717,384.84105 c 4.82603,-13.45902 6.25904,-25.71143 9.54745,-38.47512 2.18765,-8.3677 -1.50074,-18.51901 1.36391,-26.73694 2.73787,-7.85421 21.59982,-1.73054 24.55055,3.91273 1.96622,3.76036 9.62177,19.63469 11.59333,21.51998 1.98672,1.89978 1.36391,12.89 1.36391,15.6509 0,18.87561 -3.00435,35.47892 -15.68507,47.60478 -2.51723,2.40709 -5.02087,5.98726 -7.50155,7.17333"
       inkscape:connector-curvature="0"
       sodipodi:nodetypes="ccsssssc" />
  </g>
</svg>
