<?xml version="1.0" encoding="UTF-8" standalone="no"?>
<!-- Created with Inkscape (http://www.inkscape.org/) -->

<svg
   xmlns:dc="http://purl.org/dc/elements/1.1/"
   xmlns:cc="http://creativecommons.org/ns#"
   xmlns:rdf="http://www.w3.org/1999/02/22-rdf-syntax-ns#"
   xmlns:svg="http://www.w3.org/2000/svg"
   xmlns="http://www.w3.org/2000/svg"
   xmlns:sodipodi="http://sodipodi.sourceforge.net/DTD/sodipodi-0.dtd"
   xmlns:inkscape="http://www.inkscape.org/namespaces/inkscape"
   width="68.26667"
   height="68.26667"
   id="svg3958"
   version="1.1"
   inkscape:version="0.92.1 r15371"
   sodipodi:docname="tuya-coffeeBean.svg">
  <defs
     id="defs3960">
    <inkscape:perspective
       sodipodi:type="inkscape:persp3d"
       inkscape:vp_x="0 : 34.133333 : 1"
       inkscape:vp_y="0 : 1066.6667 : 0"
       inkscape:vp_z="68.266667 : 34.133333 : 1"
       inkscape:persp3d-origin="34.133333 : 22.755555 : 1"
       id="perspective3966" />
    <inkscape:perspective
       id="perspective3951"
       inkscape:persp3d-origin="0.53333333 : 0.35555555 : 1"
       inkscape:vp_z="1.0666667 : 0.53333333 : 1"
       inkscape:vp_y="0 : 1066.6667 : 0"
       inkscape:vp_x="0 : 0.53333333 : 1"
       sodipodi:type="inkscape:persp3d" />
  </defs>
  <sodipodi:namedview
     id="base"
     pagecolor="#ffffff"
     bordercolor="#666666"
     borderopacity="1.0"
     inkscape:pageopacity="0.0"
     inkscape:pageshadow="2"
     inkscape:zoom="5.5"
     inkscape:cx="32"
     inkscape:cy="32"
     inkscape:current-layer="layer1"
     showgrid="true"
     inkscape:document-units="px"
     inkscape:grid-bbox="true"
     inkscape:window-width="1600"
     inkscape:window-height="800"
     inkscape:window-x="0"
     inkscape:window-y="25"
     inkscape:window-maximized="1" />
  <metadata
     id="metadata3963">
    <rdf:RDF>
      <cc:Work
         rdf:about="">
        <dc:format>image/svg+xml</dc:format>
        <dc:type
           rdf:resource="http://purl.org/dc/dcmitype/StillImage" />
        <dc:title />
      </cc:Work>
    </rdf:RDF>
  </metadata>
  <g
     id="layer1"
     inkscape:label="Layer 1"
     inkscape:groupmode="layer">
    <path
       style="fill:#280d08;fill-opacity:1;stroke:none;stroke-width:1.06666672"
       d="m 15.438649,2.9010382 c 0,0 -5.5135731,1.6964848 -9.1186056,6.3618193 C 2.715011,13.928192 2.0788226,18.169406 1.6547088,20.714133 1.2305831,23.258862 0.80646928,28.772441 3.1391365,34.710139 5.4718039,40.647837 15.438649,52.947357 19.043681,56.128267 c 3.605033,3.18091 9.966846,7.634183 13.147764,8.058305 3.180907,0.424121 6.78594,1.272363 8.694481,0.848242 1.908554,-0.424121 4.453273,-2.332667 4.453273,-2.332667 0,0 0.848251,1.272363 2.54473,1.272363 1.696478,0 5.725637,-2.332667 9.542731,-5.513576 3.817084,-3.180911 6.361815,-5.725638 7.634178,-9.542731 1.272366,-3.817092 2.544732,-6.36182 1.908555,-9.330669 -0.636189,-2.968849 0.848239,0 -1.696491,-7.422123 C 62.728173,24.743287 61.031693,21.138257 58.2749,17.109103 55.518108,13.07995 47.247751,6.7181297 45.339199,5.4457659 43.430657,4.173402 39.4015,2.2648557 37.70502,2.2648557 c -1.69649,0 -5.725638,-0.8482418 -6.998002,-0.6361814 -1.272365,0.2120605 -4.453272,1.0603033 -5.9377,2.1206056 -1.484428,1.0603035 -0.424125,-1.9085451 -3.817094,-2.332666 -3.392971,-0.42412209 -5.725637,1.908545 -5.513575,1.4844243 z"
       id="path3731-8"
       inkscape:connector-curvature="0" />
    <path
       id="path3825-0"
       d="m 15.438649,2.9010382 c 0,0 -5.5135731,1.6964848 -9.1186056,6.3618193 C 2.715011,13.928192 2.0788226,18.169406 1.6547088,20.714133 1.2305831,23.258862 0.80646928,28.772441 3.1391365,34.710139 5.4718039,40.647837 15.438649,52.947357 19.043681,56.128267 c 3.605033,3.18091 9.966846,7.634183 13.147764,8.058305 3.180907,0.424121 6.78594,1.272363 8.694481,0.848242 2.256238,-0.147472 4.653719,-1.877842 5.725637,-4.665335 1.07192,-2.787494 -0.636176,-4.347243 -0.106016,-7.528154 0.499156,-2.994934 0.849301,-2.520966 -3.711052,-6.361819 -4.560365,-3.840854 -4.135201,-6.57388 -6.043731,-8.376397 -1.908541,-1.802516 -4.98343,-5.513576 -6.467857,-7.422122 -1.408254,-1.8106 0.302757,-4.876363 -0.530145,-8.164337 -0.832903,-3.287976 -2.147757,-5.331024 -2.226636,-7.528155 -0.142141,-3.959069 0,-5.3015155 -0.636189,-7.6341827 C 26.409953,5.5943731 24.345204,1.8407348 20.952235,1.4166139 17.559253,0.99249181 15.226587,3.3251589 15.438649,2.9010382 Z"
       style="fill:#4a180f;fill-opacity:1;stroke:none;stroke-width:1.06666672"
       sodipodi:nodetypes="csssssczszzszsssc"
       inkscape:connector-curvature="0" />
    <path
       id="path3827-9"
       d="m 29.646716,12.549798 c -0.82804,-1.966603 2.569935,3.707599 2.862823,5.195487 0.292878,1.487886 -0.424136,3.074879 -0.954282,4.135183 -1.153714,2.307478 0.175965,4.301839 1.590459,7.316093 1.414506,3.014254 6.377326,8.458344 9.648764,11.981428 4.135178,4.453274 5.869773,6.262422 10.497003,6.679912 -0.424126,0.954272 -1.535467,1.760261 -2.756805,3.286938 -1.696467,2.120608 -1.560332,3.284598 -1.802509,4.665336 -0.242178,1.380738 0.698073,4.423344 2.332667,4.877395 1.908553,0.530153 2.54473,0.954273 6.361824,-2.226636 3.817084,-3.180911 6.361815,-5.725638 7.634178,-9.542731 1.272366,-3.817092 2.544732,-6.36182 1.908555,-9.330669 -0.636189,-2.968849 0.848239,0 -1.696491,-7.422123 C 62.728173,24.743287 61.031693,21.138257 58.2749,17.109103 55.518108,13.07995 47.247751,6.7181297 45.339199,5.4457659 43.430657,4.173402 39.4015,2.2648557 37.70502,2.2648557 c -1.69649,0 -5.725638,-0.8482418 -6.998002,-0.6361814 -1.272365,0.2120605 -3.39297,0.6361826 -4.877398,1.6964846 -0.106016,1.0603035 0.321616,1.3916811 1.060303,2.4386977 0.738685,1.0470176 3.605032,8.8005174 2.756793,6.7859414 z"
       style="fill:#4a180f;fill-opacity:1;stroke:none;stroke-width:1.06666672"
       sodipodi:nodetypes="czszscszsssssssssczz"
       inkscape:connector-curvature="0" />
  </g>
</svg>
