<?xml version="1.0" encoding="UTF-8" standalone="no"?>
<!-- Created with Inkscape (http://www.inkscape.org/) -->

<svg
   xmlns:dc="http://purl.org/dc/elements/1.1/"
   xmlns:cc="http://creativecommons.org/ns#"
   xmlns:rdf="http://www.w3.org/1999/02/22-rdf-syntax-ns#"
   xmlns:svg="http://www.w3.org/2000/svg"
   xmlns="http://www.w3.org/2000/svg"
   xmlns:sodipodi="http://sodipodi.sourceforge.net/DTD/sodipodi-0.dtd"
   xmlns:inkscape="http://www.inkscape.org/namespaces/inkscape"
   id="svg2"
   xml:space="preserve"
   viewBox="0 0 21.8 21.8"
   version="1.1"
   inkscape:version="0.92.1 r15371"
   sodipodi:docname="tuya-food-bean-plain.svg"
   width="23.253332"
   height="23.253332"><sodipodi:namedview
     pagecolor="#ffffff"
     bordercolor="#666666"
     borderopacity="1"
     objecttolerance="10"
     gridtolerance="10"
     guidetolerance="10"
     inkscape:pageopacity="0"
     inkscape:pageshadow="2"
     inkscape:window-width="640"
     inkscape:window-height="480"
     id="namedview89"
     showgrid="false"
     inkscape:zoom="32.812502"
     inkscape:cx="11.626666"
     inkscape:cy="11.626666"
     inkscape:current-layer="svg2" /><defs
     id="defs6"><clipPath
       id="clipPath20"><path
         id="path22"
         d="m 1,3.44 h 15 v 9 H 1 Z"
         inkscape:connector-curvature="0" /></clipPath><mask
       id="mask24"><g
         id="g26"><g
           id="g28"
           clip-path="url(#clipPath20)"><path
             id="path30"
             style="fill:#000000;fill-opacity:0.14839998"
             d="m 1,3.44 h 15 v 9 H 1 Z"
             inkscape:connector-curvature="0" /></g></g></mask><clipPath
       id="clipPath36"><path
         id="path38"
         d="m 1,3.44 h 15 v 9 H 1 Z"
         inkscape:connector-curvature="0" /></clipPath><clipPath
       id="clipPath40"><path
         id="path42"
         d="m 1,4 h 15 v 9 H 1 Z"
         inkscape:connector-curvature="0" /></clipPath><clipPath
       id="clipPath64"><path
         id="path66"
         d="m 1,3.44 h 15 v 9 H 1 Z"
         inkscape:connector-curvature="0" /></clipPath><mask
       id="mask68"><g
         id="g70"><g
           id="g72"
           clip-path="url(#clipPath64)"><path
             id="path74"
             style="fill:#000000;fill-opacity:0.19140003"
             d="m 1,3.44 h 15 v 9 H 1 Z"
             inkscape:connector-curvature="0" /></g></g></mask><clipPath
       id="clipPath80"><path
         id="path82"
         d="m 1,3.44 h 15 v 9 H 1 Z"
         inkscape:connector-curvature="0" /></clipPath><clipPath
       id="clipPath84"><path
         id="path86"
         d="m 1,4 h 15 v 9 H 1 Z"
         inkscape:connector-curvature="0" /></clipPath><clipPath
       id="clipPath108"><path
         id="path110"
         d="m 2,7.44 h 4 v 4 H 2 Z"
         inkscape:connector-curvature="0" /></clipPath><mask
       id="mask112"><g
         id="g114"><g
           id="g116"
           clip-path="url(#clipPath108)"><path
             id="path118"
             style="fill:#000000;fill-opacity:0.19920002"
             d="m 2,7.44 h 4 v 4 H 2 Z"
             inkscape:connector-curvature="0" /></g></g></mask><clipPath
       id="clipPath124"><path
         id="path126"
         d="m 2,7.44 h 4 v 4 H 2 Z"
         inkscape:connector-curvature="0" /></clipPath><clipPath
       id="clipPath128"><path
         id="path130"
         d="m 2,8 h 4 v 4 H 2 Z"
         inkscape:connector-curvature="0" /></clipPath><clipPath
       id="clipPath152"><path
         id="path154"
         d="m 6,6.44 h 7 v 5 H 6 Z"
         inkscape:connector-curvature="0" /></clipPath><mask
       id="mask156"><g
         id="g158"><g
           id="g160"
           clip-path="url(#clipPath152)"><path
             id="path162"
             style="fill:#000000;fill-opacity:0.19920002"
             d="m 6,6.44 h 7 v 5 H 6 Z"
             inkscape:connector-curvature="0" /></g></g></mask><clipPath
       id="clipPath168"><path
         id="path170"
         d="m 6,6.44 h 7 v 5 H 6 Z"
         inkscape:connector-curvature="0" /></clipPath><clipPath
       id="clipPath172"><path
         id="path174"
         d="m 6,7 h 7 v 5 H 6 Z"
         inkscape:connector-curvature="0" /></clipPath></defs><g
     id="g10"
     transform="matrix(1.25,0,0,-1.25,0,21.8)"><g
       id="g12"><path
         id="path14"
         style="fill:#75ad45;fill-rule:evenodd"
         d="M 15.223,10.561 C 15.672,9.745 15.742,8.846 15.43,7.854 14.664,5.428 12.609,4.151 9.262,4.03 5.809,3.909 3.461,4.846 2.211,6.842 1.742,7.604 1.527,8.385 1.559,9.182 1.594,9.928 1.828,10.467 2.262,10.795 2.887,11.249 3.512,11.44 4.137,11.37 4.828,11.315 5.473,10.944 6.062,10.249 6.406,9.87 6.91,9.643 7.57,9.573 c 0.676,-0.051 1.2,0.097 1.563,0.441 0.277,0.246 0.762,0.758 1.457,1.535 0.711,0.61 1.449,0.836 2.211,0.68 1.129,-0.246 1.933,-0.801 2.422,-1.668 z"
         inkscape:connector-curvature="0" /><g
         id="g16"><g
           id="g32"
           mask="url(#mask24)"><g
             id="g44"><g
               id="g46"
               clip-path="url(#clipPath36)"><g
                 id="g48"
                 transform="translate(0,-0.56)"><g
                   id="g52"><g
                     id="g54"
                     clip-path="url(#clipPath40)"><g
                       id="g56"><path
                         id="path58"
                         style="fill:#000000;fill-rule:evenodd"
                         d="M 12.801,12.789 C 13.93,12.543 14.734,11.988 15.219,11.121 15.672,10.309 15.742,9.406 15.43,8.418 14.664,5.988 12.609,4.711 9.262,4.59 5.898,4.469 3.574,5.371 2.289,7.297 1.805,8.027 1.559,8.789 1.559,9.586 1.543,10.332 1.734,10.887 2.133,11.254 1.855,10.801 1.805,10.23 1.977,9.535 2.168,8.789 2.574,8.121 3.199,7.531 4.152,6.613 5.645,6.137 7.676,6.102 c 1.992,-0.036 3.527,0.355 4.605,1.171 1.11,0.832 1.492,1.957 1.145,3.379 -0.364,1.426 -1.235,1.926 -2.602,1.512 l -0.211,-0.078 c 0.715,0.625 1.442,0.859 2.188,0.703 z"
                         inkscape:connector-curvature="0" /></g></g></g></g></g></g></g></g><g
         id="g60"><g
           id="g76"
           mask="url(#mask68)"><g
             id="g88"><g
               id="g90"
               clip-path="url(#clipPath80)"><g
                 id="g92"
                 transform="translate(0,-0.56)"><g
                   id="g96"><g
                     id="g98"
                     clip-path="url(#clipPath84)"><g
                       id="g100"><path
                         id="path102"
                         style="fill:#000000;fill-rule:evenodd"
                         d="m 12.773,12.789 c 1.129,-0.246 1.934,-0.801 2.422,-1.668 0.45,-0.812 0.52,-1.715 0.207,-2.703 C 14.641,5.988 12.582,4.711 9.234,4.59 6.824,4.504 4.918,4.973 3.512,5.996 2.367,6.828 1.715,7.871 1.559,9.117 1.855,8.34 2.445,7.582 3.328,6.855 4.438,5.938 5.652,5.414 6.973,5.293 c 2.132,-0.207 3.902,0.012 5.308,0.652 1.336,0.606 2.168,1.481 2.496,2.629 0.606,2.172 -0.164,3.59 -2.3,4.254 z"
                         inkscape:connector-curvature="0" /></g></g></g></g></g></g></g></g><g
         id="g104"><g
           id="g120"
           mask="url(#mask112)"><g
             id="g132"><g
               id="g134"
               clip-path="url(#clipPath124)"><g
                 id="g136"
                 transform="translate(0,-0.56)"><g
                   id="g140"><g
                     id="g142"
                     clip-path="url(#clipPath128)"><g
                       id="g144"><path
                         id="path146"
                         style="fill:#ffffff;fill-rule:evenodd"
                         d="M 3.934,10.328 C 3.984,10.086 4.238,9.887 4.688,9.73 5.191,9.539 5.512,9.348 5.652,9.156 5.875,8.828 5.703,8.594 5.129,8.453 4.523,8.297 3.926,8.367 3.336,8.664 2.781,8.922 2.449,9.305 2.348,9.809 c -0.09,0.433 0.007,0.812 0.285,1.144 0.207,0.223 0.457,0.27 0.754,0.129 0.297,-0.156 0.476,-0.406 0.547,-0.754 z"
                         inkscape:connector-curvature="0" /></g></g></g></g></g></g></g></g><g
         id="g148"><g
           id="g164"
           mask="url(#mask156)"><g
             id="g176"><g
               id="g178"
               clip-path="url(#clipPath168)"><g
                 id="g180"
                 transform="translate(0,-0.56)"><g
                   id="g184"><g
                     id="g186"
                     clip-path="url(#clipPath172)"><g
                       id="g188"><path
                         id="path190"
                         style="fill:#ffffff;fill-rule:evenodd"
                         d="M 7.508,7.82 C 7.074,8.062 6.891,8.348 6.961,8.68 c 0.051,0.207 0.301,0.343 0.754,0.414 0.262,0.035 0.762,0.113 1.508,0.234 0.504,0.106 0.886,0.34 1.144,0.703 0.141,0.207 0.289,0.504 0.445,0.883 0.137,0.227 0.336,0.348 0.598,0.367 0.328,0.035 0.598,-0.148 0.805,-0.547 C 12.547,10.125 12.562,9.547 12.27,8.992 11.887,8.277 11.02,7.812 9.664,7.586 8.766,7.43 8.043,7.508 7.508,7.82 Z"
                         inkscape:connector-curvature="0" /></g></g></g></g></g></g></g></g><path
         id="path192"
         style="fill:#ffffff;fill-rule:evenodd"
         d="M 10.953,10.198 C 11.336,10.284 11.492,10.12 11.422,9.706 11.336,9.272 10.953,8.889 10.277,8.561 9.773,8.335 9.297,8.237 8.844,8.272 8.258,8.307 8.238,8.362 8.793,8.428 c 0.746,0.086 1.25,0.383 1.512,0.887 0.277,0.555 0.492,0.848 0.648,0.883 z"
         inkscape:connector-curvature="0" /><path
         id="path194"
         style="fill:#ffffff;fill-rule:evenodd"
         d="M 3.484,10.069 C 3.57,9.737 3.66,9.503 3.746,9.366 3.867,9.21 3.812,9.182 3.59,9.288 3.383,9.393 3.234,9.538 3.148,9.729 c -0.07,0.176 -0.043,0.305 0.079,0.391 0.121,0.086 0.207,0.07 0.257,-0.051 z"
         inkscape:connector-curvature="0" /><path
         id="path196"
         style="fill:#ffffff;fill-rule:evenodd"
         d="M 4.238,9.053 C 4.57,8.862 4.707,8.741 4.656,8.69 4.605,8.62 4.492,8.628 4.32,8.713 4.195,8.768 4.117,8.854 4.086,8.975 4.066,9.096 4.117,9.124 4.238,9.053 Z"
         inkscape:connector-curvature="0" /><path
         id="path198"
         style="fill:#ffffff;fill-rule:evenodd"
         d="M 7.855,8.323 C 8.031,8.288 8.125,8.237 8.145,8.17 8.145,8.1 8.059,8.053 7.883,8.038 7.711,8.003 7.625,8.053 7.625,8.194 7.621,8.315 7.699,8.358 7.855,8.323 Z"
         inkscape:connector-curvature="0" /></g></g><metadata
     id="metadata86"><rdf:RDF><cc:Work><dc:format>image/svg+xml</dc:format><dc:type
           rdf:resource="http://purl.org/dc/dcmitype/StillImage" /><cc:license
           rdf:resource="http://creativecommons.org/licenses/publicdomain/" /><dc:publisher><cc:Agent
             rdf:about="http://openclipart.org/"><dc:title>Openclipart</dc:title></cc:Agent></dc:publisher></cc:Work><cc:License
         rdf:about="http://creativecommons.org/licenses/publicdomain/"><cc:permits
           rdf:resource="http://creativecommons.org/ns#Reproduction" /><cc:permits
           rdf:resource="http://creativecommons.org/ns#Distribution" /><cc:permits
           rdf:resource="http://creativecommons.org/ns#DerivativeWorks" /></cc:License></rdf:RDF></metadata></svg>