<?xml version="1.0" encoding="UTF-8" standalone="no"?>
<!-- Created with Inkscape (http://www.inkscape.org/) -->

<svg
   xmlns:dc="http://purl.org/dc/elements/1.1/"
   xmlns:cc="http://creativecommons.org/ns#"
   xmlns:rdf="http://www.w3.org/1999/02/22-rdf-syntax-ns#"
   xmlns:svg="http://www.w3.org/2000/svg"
   xmlns="http://www.w3.org/2000/svg"
   xmlns:sodipodi="http://sodipodi.sourceforge.net/DTD/sodipodi-0.dtd"
   xmlns:inkscape="http://www.inkscape.org/namespaces/inkscape"
   id="svg2"
   sodipodi:docname="wahaya-wolf.svg"
   viewBox="0 0 744.09 1052.4"
   version="1.1"
   inkscape:version="0.92.1 r15371"
   width="793.69604"
   height="1122.5601">
  <defs
     id="defs77" />
  <sodipodi:namedview
     id="base"
     bordercolor="#666666"
     inkscape:pageshadow="2"
     inkscape:window-y="-8"
     pagecolor="#ffffff"
     inkscape:window-height="838"
     inkscape:window-maximized="1"
     inkscape:zoom="0.47419554"
     inkscape:window-x="-8"
     showgrid="false"
     borderopacity="1.0"
     inkscape:current-layer="layer1"
     inkscape:cx="340.52219"
     inkscape:cy="717.41367"
     inkscape:window-width="1440"
     inkscape:pageopacity="0.0"
     inkscape:document-units="px" />
  <g
     id="layer1"
     inkscape:label="Layer 1"
     inkscape:groupmode="layer">
    <g
       id="g4111">
      <path
         id="path3896"
         d="m 47.844,224.26 11.681,40.646 6.5416,16.559 12.149,28.101 13.55,28.602 13.083,31.613 8.8778,18.065 21.026,7.0252 41.118,-87.313 z"
         style="fill:#666666"
         inkscape:connector-curvature="0" />
      <path
         id="path3894"
         d="m 682.37,216.23 -3.2708,22.079 -10.28,16.559 -10.28,30.108 -9.8123,18.567 -7.9433,9.0324 -7.4761,6.5234 v 7.0252 l 3.2708,11.541 -1.869,35.126 -2.8035,19.068 -4.2053,15.054 -9.3451,-7.527 c 0,0 -14.485,-41.649 -15.419,-43.656 -0.93451,-2.0072 -30.839,-35.126 -30.839,-35.126 l -23.363,-28.101 30.372,-29.104 71.49,-29.104 z"
         style="fill:#666666"
         inkscape:connector-curvature="0" />
      <path
         id="path3892"
         d="m 362.05,834.3 13.877,7.211 11.191,-0.48075 21.934,-8.6532 13.429,-12.98 14.324,-11.538 42.078,-30.286 41.63,-24.517 19.696,-14.903 1.7906,-12.499 v -11.538 -6.2495 l 3.1335,-1.4422 8.0575,1.4422 11.639,0.96147 9.848,-15.383 8.9528,-12.499 53.269,-48.073 15.22,-24.517 5.3717,-15.383 v -14.422 l -8.5051,-17.787 -18.353,-7.211 h -26.858 l -44.316,-1.4422 c 0,0 -31.335,-11.538 -35.811,-11.538 -4.4764,0 -19.248,2.4037 -23.277,3.3651 -4.0287,0.96147 -34.021,31.248 -37.154,47.593 -3.1335,16.345 -13.429,62.976 -13.877,65.38 -0.44764,2.4037 -16.563,54.804 -16.563,54.804 l 3.5811,22.594 2.6858,14.422 0.89528,6.2495 3.5811,19.71 -4.924,11.057 -12.982,15.383 -18.801,13.941 -20.144,5.288 -16.563,-1.4422 -16.563,-3.8459 -11.639,-8.1724 -9.848,-11.057 -5.8193,-12.499 0.44763,-17.787 -3.5811,-10.576 -1.3429,-32.69 -41.63,-90.858 -3.1335,-87.013 -89.528,-42.785 -44.316,-22.114 -14.324,-24.517 -7.1622,-5.2881 -7.6099,3.3651 -8.0575,35.093 7.1622,23.075 v 20.672 l -9.4004,16.826 -8.0575,27.882 2.6858,27.402 12.534,22.594 c 0,0 4.4764,14.903 6.2669,15.864 1.7906,0.96146 7.6098,6.2495 7.6098,6.2495 l 8.9528,1.4422 35.811,-2.4037 6.2669,18.749 7.1622,20.672 25.068,31.728 18.801,17.306 15.667,13.941 39.84,20.672 20.144,10.095 20.144,18.268 24.62,24.517 z"
         style="fill:#e6e6e6"
         inkscape:connector-curvature="0" />
      <path
         id="path3898"
         d="m 322.12,726.81 0.46726,19.319 0.46725,9.5342 3.738,10.789 2.5699,3.5126 1.869,-1.5054 3.2708,9.5342 -1.869,1.2545 -7.2424,4.2653 -8.1769,-14.552 -9.8123,-16.81 -7.7097,-8.0288 -5.8407,-10.287 -11.915,-25.341 -0.46725,-3.7635 2.3363,-5.018 13.083,1.5054 c 0,0 16.588,8.2797 17.522,10.036 0.9345,1.7563 7.7097,15.556 7.7097,15.556 z"
         style="fill:#c83737"
         inkscape:connector-curvature="0" />
      <path
         id="path3884"
         d="m 43.328,209.83 c -6.7894,12.108 13.887,24.034 21.487,35.574 5.6524,8.5832 10.812,17.753 17.906,24.998 10.257,10.477 25.237,14.866 34.916,25.96 5.9486,6.8186 8.3338,16.463 13.429,24.037 8.3029,12.342 13.731,36.857 27.754,34.613 19.031,-3.0453 19.649,-36.434 23.277,-56.726 1.5765,-8.8183 2.7575,-18.844 -0.89528,-26.921 -2.2202,-4.9094 -7.5064,-7.399 -11.639,-10.576 -7.0744,-5.4392 -14.807,-9.8249 -22.382,-14.422 -9.4143,-5.7135 -18.91,-11.297 -28.649,-16.345 -11.434,-5.927 -22.614,-12.973 -34.916,-16.345 -13.063,-3.5802 -33.333,-16.249 -40.287,-3.8459 z"
         sodipodi:nodetypes="aaaaaaaaaaaaa"
         style="fill:#784421"
         inkscape:connector-curvature="0" />
      <path
         id="path3888"
         d="m 323.09,598.41 c -7.5743,-5.9813 -12.338,-15.375 -19.625,-21.755 -6.3973,-5.6013 -13.115,-11.305 -20.891,-14.277 -6.8059,-2.6013 -14.341,-3.5423 -21.524,-2.7194 -8.4272,0.9653 -15.586,8.5241 -24.056,8.8382 -6.5479,0.24278 -13.695,-1.298 -18.992,-5.4389 -6.294,-4.9202 -9.0888,-13.647 -12.661,-21.076 -3.1288,-6.5058 -3.0792,-14.911 -7.5967,-20.396 -3.1913,-3.8744 -8.0992,-5.8189 -12.661,-7.4784 -6.6708,-2.4267 -13.926,-2.2717 -20.891,-3.3993 -4.2199,-0.68321 -8.7927,-0.10432 -12.661,-2.0396 -4.3367,-2.1695 -7.6682,-6.2789 -10.762,-10.198 -2.5747,-3.2615 -4.4858,-7.0885 -6.3306,-10.878 -5.2122,-10.706 -10.238,-21.686 -13.294,-33.313 -2.3752,-9.0373 -3.7983,-25.155 -3.7983,-27.874 0,-2.7194 5.0644,-25.155 5.0644,-25.155 0,0 8.5944,-24.591 13.294,-36.712 6.3912,-16.484 15.3,-31.907 20.258,-48.95 3.715,-12.769 -1.234,-29.358 6.9636,-39.432 2.1956,-2.698 7.052,-0.95981 9.4958,-3.3993 4.0186,-4.0114 6.3306,-16.317 6.3306,-16.317 l 37.35,-26.514 95.81,-47.974 32.23,1.9229 49.24,-7.6917 18.801,-1.9229 44.764,4.8073 25.068,7.6917 20.591,7.6917 18.801,6.7303 34.021,-7.6917 20.591,10.576 h 27.754 l 8.0575,10.576 -21.487,35.574 c 0,0 -28.083,15.245 -32.23,29.805 -1.9904,6.9887 2.0616,14.767 5.3717,21.152 5.7516,11.095 17.164,17.655 24.172,27.882 5.7042,8.3243 9.8351,17.779 14.324,26.921 5.1053,10.397 9.7802,21.036 14.324,31.728 2.831,6.6613 8.0575,20.191 8.0575,20.191 0,0 16.103,35.616 23.277,53.842 4.2296,10.745 9.2576,21.308 11.639,32.69 0.85287,4.077 0.20811,8.3861 0.89528,12.499 0.76737,4.593 3.5811,13.461 3.5811,13.461 l 11.639,27.882 0.89527,23.075 -5.3717,12.499 c 0,0 -11.626,-7.1895 -17.906,-9.6147 -14.986,-5.7879 -31.985,-18.446 -46.554,-11.538 -5.0116,2.3764 -4.8765,10.593 -8.0575,15.383 -4.1731,6.284 -9.2581,11.832 -14.324,17.306 -2.8302,3.0582 -5.0034,7.8772 -8.9528,8.6532 -5.6694,1.114 -11.377,-3.2053 -16.115,-6.7302 -6.254,-4.6533 -10.36,-11.981 -15.22,-18.268 -3.1261,-4.0446 -5.2235,-9.0946 -8.9528,-12.499 -3.3572,-3.0647 -7.5379,-4.999 -11.639,-6.7302 -6.6017,-2.7871 -13.922,-3.1744 -20.591,-5.7688 -5.2717,-2.0507 -10.39,-4.6339 -15.22,-7.6917 -5.7081,-3.6137 -10.361,-8.9698 -16.115,-12.499 -4.5256,-2.776 -9.2231,-5.5843 -14.324,-6.7303 -4.9658,-1.1155 -10.473,-1.9235 -15.22,0 -9.2981,3.768 -15.761,13.193 -22.382,21.152 -10.424,12.531 -16.38,28.864 -26.858,41.343 -5.8096,6.9186 -11.664,14.748 -19.696,18.268 -8.8592,3.8818 -19.276,3.9865 -28.649,1.9229 -7.6986,-1.6949 -14.722,-6.395 -21.054,-11.395 z"
         sodipodi:nodetypes="aaaaaaaaaaaaaascaaaacccccccccccccccaaaaacaaaccccaaaaaaaaaaaaaaaaaaa"
         style="fill:#cccccc"
         inkscape:connector-curvature="0" />
      <path
         id="path3890"
         d="m 295.8,714.6 -11.639,-12.018 -5.3717,-11.538 c 0,0 -12.534,-28.363 -12.534,-31.248 V 636.24 c 0,-1.9229 0.44764,-25.96 0.44764,-25.96 l -1.3429,-16.345 c 0,0 -2.8331,-14.243 -2.7944,-21.468 0.0286,-5.3483 0.0718,-11.048 2.2382,-15.864 2.5718,-5.7172 7.2977,-10.217 12.086,-13.941 6.9214,-5.3827 15.848,-7.0032 23.277,-11.538 6.9596,-4.2475 19.805,-14.587 19.805,-14.587 l 8.0575,-17.306 -10.743,-30.767 -19.696,-31.728 -34.916,-52.881 -17.906,-22.114 -16.115,-21.152 c 0,0 -37.602,-24.037 -41.183,-24.998 -3.5811,-0.96146 -11.639,-8.6532 -11.639,-8.6532 l -7.1622,-15.383 -0.89527,-24.037 22.382,-23.075 25.963,-14.422 69.621,-38.851 59.507,-12.237 25.322,2.7194 30.387,-8.1583 45.58,4.0792 29.121,5.4389 27.854,12.237 17.726,4.0792 36.717,-5.4389 c 0,0 7.5967,6.7986 12.661,8.1583 5.0645,1.3597 36.717,1.3597 36.717,1.3597 l 6.3306,9.518 -29.121,23.115 -37.983,29.914 -13.927,12.237 -22.79,31.273 -16.459,23.115 -30.387,24.475 -18.992,23.115 c 0,0 -5.0644,0 -12.661,13.597 -7.5967,13.597 -18.992,47.59 -18.992,47.59 l -16.459,47.59 5.0644,25.835 20.258,9.518 c 0,0 1.6728,3.3284 3.1653,4.0792 6.8795,3.4604 15.224,0.73266 22.79,0 4.6995,-0.45508 9.3217,-3.8218 13.927,-2.7194 13.145,3.1462 22.045,16.623 32.919,25.155 1.7039,1.3369 5.0644,4.0792 5.0644,4.0792 l -18.359,68.666 -10.129,32.633 -10.129,27.194 -9.4958,14.957 -28.488,20.396 -15.51,8.1583 -12.661,2.7194 -11.078,1.3597 -8.2297,-0.67987 -5.6975,-1.3597 h -4.1149 l -7.5967,3.7392 -14.877,0.33993 -17.409,-3.0594 -17.093,-7.1385 z"
         sodipodi:nodetypes="cccssccaaaacccccccsccccccccccccccscccccccccsccccaaaaccccccccccccccccc"
         style="fill:#999999"
         inkscape:connector-curvature="0" />
      <path
         id="path3900"
         d="m 432.63,705.99 2.5699,23.585 3.2708,14.803 1.4018,8.5306 -1.4018,3.2617 h -2.3363 l -7.0088,-6.7743 -2.5699,0.2509 -0.70087,4.2653 -0.70089,10.538 -2.1026,4.7671 1.4018,2.0072 c 0,0 3.738,1.0036 4.9062,0.2509 1.1681,-0.7527 11.214,-1.5054 11.214,-1.5054 l 3.9717,2.0072 17.055,-44.66 8.177,-26.595 3.9717,-20.323 1.4018,-19.319 -0.46725,-5.2689 -2.5699,-2.0072 -1.4018,1.7563 -3.738,16.058 -5.607,12.545 z"
         style="fill:#c83737"
         inkscape:connector-curvature="0" />
      <path
         id="path3882"
         d="m 535.42,276.06 c 5.2393,-19.069 27.799,-26.478 43.28,-37.38 11.274,-7.9393 23.552,-14.166 35.811,-20.191 17.788,-8.7415 35.226,-25.889 54.612,-23.075 5.9147,0.85843 13.08,5.2688 14.324,11.538 2.5631,12.908 -8.8511,25.688 -17.906,34.613 -6.9873,6.887 -17.486,7.9322 -25.963,12.499 -18.628,10.035 -34.709,26.052 -54.612,32.69 -14.676,4.8949 -33.117,22.041 -45.659,1.9229 -2.2946,-3.6809 -5.0556,-8.3672 -3.8883,-12.616 z"
         sodipodi:nodetypes="aaaaaaassa"
         style="fill:#784421"
         inkscape:connector-curvature="0" />
      <path
         id="path3886"
         d="m 340.56,657.87 c 10.275,8.2562 26.742,5.5272 38.497,0 4.8364,-2.2741 8.3134,-7.4652 10.743,-12.499 3.933,-8.1477 2.796,-18.17 5.3717,-26.921 3.2243,-10.954 7.5948,-21.538 12.534,-31.728 6.4993,-13.41 13.747,-26.519 22.382,-38.459 5.5675,-7.698 19.408,-11.427 18.801,-21.152 -0.51138,-8.1901 -11.385,-11.101 -17.906,-15.383 -5.5839,-3.6667 -11.641,-6.6163 -17.906,-8.6532 -6.9495,-2.2597 -14.335,-5.1929 -21.487,-3.8459 -5.396,1.0163 -9.599,5.6766 -14.324,8.6532 -5.4301,3.4205 -9.8296,10.198 -16.115,10.576 -4.9321,0.29672 -8.9814,-4.4221 -13.429,-6.7303 -3.605,-1.8708 -6.813,-4.9487 -10.743,-5.7688 -7.3471,-1.5331 -15.695,-1.6878 -22.382,1.9229 -5.6684,3.0609 -8.1993,10.408 -12.534,15.383 -3.7483,4.3027 -6.9284,9.4776 -11.639,12.499 -5.3497,3.4316 -12.113,3.3018 -17.906,5.7688 -2.4812,1.0567 -6.825,1.0023 -7.1622,3.8459 -1.9508,16.449 22.781,22.436 34.916,32.69 6.8978,5.8286 16.225,8.8002 21.487,16.345 6.0532,8.6803 6.7813,20.434 9.848,30.767 3.212,10.822 0.48462,25.885 8.9528,32.69 z"
         sodipodi:nodetypes="aaaaaaaaaaaaaaaaaaaaaaa"
         style="fill:#784421"
         inkscape:connector-curvature="0" />
      <path
         id="path3032"
         d="m 268.49,668.45 v -29.325 c 0,-8.0122 0.46359,-16.04 0,-24.037 -0.4485,-7.7366 -2.6858,-23.075 -2.6858,-23.075 0,0 -6.4817,30.693 -5.3717,46.15 0.75178,10.468 8.0575,30.286 8.0575,30.286 z"
         sodipodi:nodetypes="caacac"
         style="fill:#000000"
         inkscape:connector-curvature="0" />
      <path
         id="path2996"
         d="m 363.39,720.37 -9.848,3.3651 -11.191,-2.8844 -11.639,-5.7688 -13.877,-11.057 -2.6858,-15.383 -2.2382,-8.6532 1.7906,-10.576 5.3717,-9.1339 14.324,-9.1339 17.458,-5.7688 20.591,0.48074 21.487,1.9229 11.191,8.6532 6.2669,8.1725 4.4764,18.268 -3.5811,12.98 -5.3716,6.2495 c 0,0 -3.1335,-0.96146 -3.1335,1.9229 0,2.88436 -3.1335,8.6532 -3.1335,8.6532 l -6.7146,4.8073 -9.848,3.3651 c 0,0 -6.2669,1.4422 -12.982,0.48073 l -6.7146,-0.96146 z"
         style="fill:#000000"
         inkscape:connector-curvature="0" />
      <path
         id="path2998"
         d="m 345.04,692.97 c -2.9868,-1.7504 -6.4654,-2.49 -9.848,-2.8844 -2.9705,-0.34635 -6.8268,-1.7741 -8.9528,0.48073 -1.702,1.8052 -1.8278,5.5936 -0.44764,7.6917 1.2536,1.9056 4.1841,1.2593 6.2669,1.9229 1.9457,0.61991 3.8215,1.5392 5.8193,1.9229 2.6479,0.50865 5.6275,1.7197 8.0575,0.48074 1.8334,-0.93477 3.793,-3.1204 3.5811,-5.2881 -0.20958,-2.1441 -2.7142,-3.2939 -4.4764,-4.3266 z"
         sodipodi:nodetypes="aaaaaaaaa"
         style="fill:#333333"
         inkscape:connector-curvature="0" />
      <path
         id="path3000"
         d="m 393.38,686.24 c -3.2831,-1.9618 -7.557,-2.4664 -11.191,-1.4422 -2.6846,0.75666 -5.9834,2.4126 -6.7146,5.2881 -0.59871,2.3546 0.84997,5.2914 2.6858,6.7302 2.5426,1.9927 6.273,1.344 9.4004,0.96147 2.8129,-0.34405 6.4915,-0.35147 8.0575,-2.8844 1.0761,-1.7406 0.26632,-4.306 -0.44764,-6.2495 -0.35061,-0.95447 -0.95566,-1.9048 -1.7906,-2.4037 z"
         sodipodi:nodetypes="aaaaaaaa"
         style="fill:#333333"
         inkscape:connector-curvature="0" />
      <path
         id="path3002"
         d="m 319.07,681.91 c 0,0 12.2,-4.9113 18.353,-3.8458 2.7043,0.46821 4.7794,2.8757 7.1622,4.3266 2.093,1.2744 4.2348,2.4626 6.2669,3.8459 1.5384,1.0472 3.2866,1.8841 4.4764,3.3651 2.1795,2.713 4.4764,9.6146 4.4764,9.6146 l 2.6858,8.1724 c 0,0 -0.27332,-6.7431 0,-10.095 0.22468,-2.7557 -0.0807,-5.8671 1.3429,-8.1725 1.6698,-2.7041 5.0195,-3.6179 7.6098,-5.288 3.9513,-2.5477 7.6689,-5.7995 12.086,-7.211 4.0147,-1.2829 8.3536,-1.2449 12.534,-0.96147 3.0373,0.20592 6.0418,0.96927 8.9528,1.9229 1.8554,0.60784 5.3717,2.4037 5.3717,2.4037 0,0 0.89527,-13.941 -1.7906,-13.941 -2.6858,0 -10.909,4.3614 -16.563,5.7688 -3.0835,0.76755 -6.3709,0.45714 -9.4004,1.4422 -3.641,1.1839 -6.7684,3.7578 -10.296,5.2881 -2.1875,0.94903 -4.3926,1.9548 -6.7146,2.4037 -4.2612,0.82381 -8.6922,1.1148 -12.982,0.48073 -3.4127,-0.50448 -6.6366,-2.0265 -9.848,-3.3651 -1.9916,-0.83017 -3.7166,-2.4786 -5.8193,-2.8844 -3.8296,-0.73913 -8.0438,-0.63763 -11.639,0.96147 -2.5419,1.1307 -6.2669,5.7688 -6.2669,5.7688 z"
         sodipodi:nodetypes="caaaaccaaaaaacsaaaaaaaac"
         style="fill:#333333"
         inkscape:connector-curvature="0" />
      <path
         id="path3876"
         d="m 332.95,732.15 4.0288,10.576 4.0288,6.4899 8.5051,11.297 6.9384,3.8459 10.52,2.8844 12.534,0.24037 14.772,-3.6055 10.296,-7.6917 8.5051,-11.057 5.1478,-7.6917 0.67146,-5.0477 1.1191,-10.095 v -2.4037 l -10.967,6.2495 -15.891,4.0862 -10.743,0.96146 -7.6099,-1.4422 -5.5955,-0.7211 -4.7002,0.7211 -6.4908,3.1248 -8.729,0.7211 -6.7146,-0.48074 z"
         style="fill:#ff8080;stroke:#000000;stroke-width:0.64945px"
         inkscape:connector-curvature="0" />
      <path
         id="path3874"
         d="m 437.92,774.45 2.6858,-5.0477 4.4764,-0.48073 -13.653,25.719 -19.248,16.105 c 0,0 -21.934,9.3743 -22.83,9.3743 -0.89528,0 -24.62,-1.9229 -24.62,-1.9229 l -11.862,-3.1248 -20.144,-19.47 -4.0287,-6.9706 -3.1335,-5.7688 1.7906,-4.3266 4.2526,-2.644 2.6858,1.4422 4.7002,5.288 3.5811,-0.48072 2.9096,-2.644 1.3429,-5.5284 4.7002,-2.1633 4.0287,6.2495 3.3573,1.9229 3.1335,-1.6826 2.6858,-1.4422 h 2.0144 l 6.0431,1.2018 2.6858,-0.48074 3.8049,-0.7211 6.4908,-0.24036 h 4.4764 l 7.1622,-1.6826 3.5811,-0.48073 6.9384,0.48073 h 4.2526 l 0.44763,-1.6826 10.072,-3.3651 7.6098,-1.4422 z"
         style="fill:#ff8080"
         inkscape:connector-curvature="0" />
      <path
         id="path3006"
         d="m 279.68,704.02 c 0,0 8.613,15.282 11.639,23.556 1.6935,4.631 1.2671,10.112 3.5811,14.422 2.3188,4.3192 6.9192,6.7079 9.848,10.576 3.2637,4.3105 5.6889,9.281 8.5051,13.941 2.7039,4.4743 5.3369,8.9979 8.0575,13.461 2.6522,4.3505 5.307,8.7002 8.0575,12.98 2.1874,3.4034 4.0404,7.1198 6.7146,10.095 3.3991,3.7821 7.534,6.7514 11.639,9.6147 3.4154,2.3825 6.8808,4.8627 10.743,6.2495 2.8619,1.0276 6.0281,0.64409 8.9528,1.4422 5.0781,1.3857 9.5347,5.6076 14.772,5.7688 7.786,0.23967 15.429,-3.4414 22.382,-7.211 3.9961,-2.1663 7.1553,-5.7788 10.743,-8.6532 4.6167,-3.6985 9.6634,-6.8394 13.877,-11.057 4.0254,-4.0292 7.642,-8.579 10.743,-13.461 4.4769,-7.0467 7.9453,-14.808 11.191,-22.594 3.7036,-8.8844 6.4954,-18.181 9.4004,-27.402 3.4035,-10.803 6.6441,-21.676 9.4004,-32.69 2.4239,-9.6853 5.4736,-19.332 6.2669,-29.325 0.45703,-5.7568 -0.89527,-17.306 -0.89527,-17.306 0,0 -1.871,18.363 -3.5811,27.402 -2.1837,11.542 -5.168,22.913 -8.5051,34.132 -2.859,9.6118 -6.2711,19.033 -9.848,28.363 -3.8644,10.08 -7.7292,20.203 -12.534,29.805 -2.2534,4.5038 -4.7119,8.9234 -7.6098,12.98 -3.3422,4.6782 -6.7766,9.4736 -11.191,12.98 -3.8632,3.0684 -8.5116,4.8369 -12.982,6.7303 -6.5416,2.7709 -13.221,5.4048 -20.144,6.7303 -5.7365,1.0983 -11.64,1.3177 -17.458,0.96148 -5.4369,-0.33294 -11.169,-0.43632 -16.115,-2.8844 -8.8487,-4.3802 -16.028,-12.258 -22.382,-20.191 -8.2102,-10.251 -12.364,-23.621 -19.696,-34.613 -4.7508,-7.1219 -11.055,-12.965 -15.667,-20.191 -6.9487,-10.886 -17.906,-34.613 -17.906,-34.613 z"
         sodipodi:nodetypes="caaaaaaaaaaaaaaaaaaacaaaaaaaaaaaaac"
         style="fill:#000000"
         inkscape:connector-curvature="0" />
      <path
         id="path3008"
         d="m 333.4,734.31 c 0,0 2.6147,9.6341 4.924,13.941 1.5349,2.8629 3.9766,5.0465 5.8193,7.6917 1.7355,2.4913 2.6222,5.8023 4.924,7.6917 2.5121,2.0619 5.9921,2.1735 8.9528,3.3651 3.0097,1.2114 5.7741,3.3345 8.9528,3.8459 1.7769,0.28584 3.575,-0.46074 5.3717,-0.48073 2.3919,-0.0266 4.7786,0.69712 7.1622,0.48073 2.5966,-0.23574 5.0054,-1.8307 7.6098,-1.9229 1.8143,-0.0643 3.643,1.5564 5.3717,0.96146 2.2105,-0.76074 3.2209,-3.5943 4.924,-5.288 2.0187,-2.0076 3.6865,-4.7437 6.2669,-5.7688 1.3994,-0.55596 3.1657,0.76578 4.4764,0 2.654,-1.5506 3.3533,-5.4007 4.924,-8.1725 1.8763,-3.3108 4.3171,-6.3888 5.3717,-10.095 1.1805,-4.1491 0.89528,-12.98 0.89528,-12.98 l 0.44764,-3.8459 c 0,0 -1.592,9.6197 -3.5811,13.941 -2.4068,5.229 -5.8528,9.9898 -9.848,13.941 -4.2932,4.2461 -9.377,7.7042 -14.772,10.095 -5.7897,2.5661 -12.091,4.1972 -18.353,4.3266 -5.9112,0.12218 -12.109,-0.66109 -17.458,-3.3651 -4.5981,-2.3243 -8.28,-6.4801 -11.639,-10.576 -4.349,-5.3038 -10.743,-17.787 -10.743,-17.787 z"
         sodipodi:nodetypes="caaaaaaaaaaaaaaccaaaaaac"
         style="fill:#000000"
         inkscape:connector-curvature="0" />
      <path
         id="path3010"
         d="m 330.26,622.3 c -4.641,-7.099 -5.7734,-16.369 -10.296,-23.556 -3.3104,-5.2608 -8.1979,-9.1582 -12.086,-13.941 -2.7894,-3.4313 -8.0575,-10.576 -8.0575,-10.576 0,0 11.517,10.365 17.01,15.864 0.92619,0.92708 1.5161,3.4047 2.6858,2.8844 3.0328,-1.3491 1.0938,-7.2522 0,-10.576 -1.6617,-5.0496 -5.542,-9.106 -9.4004,-12.499 -2.9949,-2.6337 -10.296,-5.7688 -10.296,-5.7688 0,0 6.1588,-0.65673 8.9528,0.48073 3.5736,1.4548 6.4861,4.5568 8.9528,7.6917 1.983,2.5203 3.4417,5.5463 4.4764,8.6532 1.6854,5.0608 1.325,10.692 2.6858,15.864 1.5671,5.9565 3.7532,11.736 6.2669,17.306 1.2835,2.8441 3.8326,5.0885 4.4764,8.1724 0.36052,1.7271 -0.44765,5.2881 -0.44765,5.2881 0,0 -3.5902,-3.2479 -4.924,-5.2881 z"
         sodipodi:nodetypes="aaacaaaacaaaaaaca"
         style="fill:#000000"
         inkscape:connector-curvature="0" />
      <path
         id="path3012"
         d="m 362.49,616.53 c 0,0 -2.6618,-9.3023 -4.0287,-13.941 -1.4664,-4.9764 -4.4764,-14.903 -4.4764,-14.903 0,0 -1.1408,-5.2779 -2.2382,-7.6917 -1.0351,-2.2768 -2.3844,-4.4326 -4.0288,-6.2495 -4.3888,-4.8495 -10.913,-7.0842 -15.22,-12.018 -3.0288,-3.4703 -7.1622,-12.018 -7.1622,-12.018 0,0 8.1968,6.8746 12.086,10.576 4.1859,3.9837 8.3662,8.0138 12.086,12.499 2.6202,3.1591 7.1622,10.095 7.1622,10.095 0,0 0.0665,-10.577 0,-15.864 -0.0746,-5.9307 -0.16115,-11.864 -0.44764,-17.787 -0.20184,-4.173 -1.0586,-8.3241 -0.89527,-12.499 0.23481,-6.0012 1.9934,-11.827 2.6858,-17.787 1.0571,-9.0984 1.5988,-18.259 2.2382,-27.402 0.35827,-5.1234 0.89527,-15.383 0.89527,-15.383 0,0 -0.56182,25.959 -0.44763,38.939 0.0451,5.1301 -0.30706,10.318 0.44763,15.383 0.83543,5.6078 4.4004,10.666 4.4764,16.345 0.0842,6.296 -3.7241,12.023 -4.4764,18.268 -0.59349,4.9265 -0.27881,9.9442 0,14.903 0.29898,5.3171 1.7906,15.864 1.7906,15.864 0,0 3.8047,-7.9555 6.2669,-11.538 3.0105,-4.3795 7.3668,-7.5754 10.296,-12.018 3.1241,-4.7391 3.8875,-11.172 7.6098,-15.383 3.594,-4.0661 8.7465,-6.1751 13.429,-8.6532 4.7472,-2.5122 14.772,-6.2495 14.772,-6.2495 0,0 -12.167,11.274 -17.906,17.306 -4.8278,5.0753 -9.4066,10.424 -13.877,15.864 -4.4876,5.4612 -9.2284,10.759 -12.982,16.826 -2.142,3.4626 -4.0589,7.1461 -5.3716,11.057 -1.449,4.3168 -2.6858,13.461 -2.6858,13.461 z"
         sodipodi:nodetypes="cacaaacaacaaaaacaaaaacaaaacaaaac"
         style="fill:#000000"
         inkscape:connector-curvature="0" />
      <path
         id="path3014"
         d="m 390.7,622.3 c 0,0 9.9846,-29.002 18.353,-41.343 2.1748,-3.2072 10.566,-5.2602 8.0575,-8.1724 -4.3761,-5.0797 -8.8839,17.65 -14.324,13.941 -4.7423,-3.2324 1.24,-12.753 4.924,-17.306 1.62,-2.0023 4.5246,-2.1386 6.7146,-3.3651 5.8092,-3.2536 17.01,-10.576 17.01,-10.576 l 6.7146,-3.8458 c 0,0 -13.144,4.0041 -19.248,7.211 -5.428,2.8517 -11.587,5.3906 -15.22,10.576 -4.03,5.7522 -4.1126,13.71 -5.8193,20.672 -1.5577,6.3535 -2.5894,12.844 -4.0288,19.229 -0.97917,4.3442 -3.1335,12.98 -3.1335,12.98 z"
         sodipodi:nodetypes="caaaaaccaaaac"
         style="fill:#000000"
         inkscape:connector-curvature="0" />
      <path
         id="path3016"
         d="m 205.82,433.37 c 1.7906,-0.96147 25.048,-8.7171 38.049,-10.095 6.5404,-0.69333 13.21,-0.17597 19.696,0.96147 7.5046,1.316 15.44,2.4828 21.934,6.7302 2.9751,1.9458 7.1622,8.1725 7.1622,8.1725 0,0 -18.689,-8.789 -28.649,-10.576 -3.9737,-0.71299 -8.066,-0.28039 -12.086,0 -6.9074,0.48175 -13.938,0.83197 -20.591,2.8844 -3.7862,1.1681 -6.828,4.8221 -10.743,5.2881 -5.003,0.59541 -14.772,-3.3651 -14.772,-3.3651 z"
         sodipodi:nodetypes="caaacaaaac"
         style="fill:#28170b"
         inkscape:connector-curvature="0" />
      <path
         id="path3018"
         d="m 428.3,429.53 c 0,0 9.2778,-14.457 16.115,-18.749 5.0306,-3.1579 11.277,-3.2089 17.01,-4.3266 8.1399,-1.5869 16.371,-2.6951 24.62,-3.3651 6.1021,-0.49564 12.831,-3.3118 18.353,-0.48074 2.2086,1.1322 0.89527,5.7688 4.4764,6.2495 3.5811,0.48073 -5.9557,0.84226 -8.9528,0.96146 -5.8172,0.23136 -11.647,-0.84394 -17.458,-0.48073 -6.3199,0.39498 -12.666,1.2086 -18.801,2.8844 -6.6347,1.8122 -13.03,4.6158 -19.248,7.6917 -5.5813,2.761 -16.115,9.6146 -16.115,9.6146 z"
         sodipodi:nodetypes="caaaasaaaac"
         style="fill:#28170b"
         inkscape:connector-curvature="0" />
      <path
         id="path3878"
         d="m 443.52,446.59 -8.2813,7.211 -3.1335,12.98 c 0,0 2.9096,6.4899 4.0287,6.4899 1.1191,0 13.877,2.4037 13.877,2.4037 l 15.22,-4.8073 7.8337,-15.143 -1.5667,-7.9321 -2.6858,-5.7688 -9.1766,1.2018 -10.296,1.4422 z"
         style="fill:#f7e61b"
         inkscape:connector-curvature="0" />
      <path
         id="path3020"
         d="m 422.03,503.56 7.6098,-26.44 2.2382,-12.98 c 0,0 3.3782,5.1492 5.8193,6.7302 3.4404,2.2284 7.6211,3.41 11.639,3.3651 3.7301,-0.0417 7.4573,-1.4691 10.743,-3.3651 2.2384,-1.2916 4.3947,-3.0284 5.8193,-5.288 1.3227,-2.0981 1.8022,-4.7209 2.2382,-7.211 0.55214,-3.1536 0.37301,-6.4068 0.44764,-9.6146 0.0261,-1.1214 0,-3.3651 0,-3.3651 l 8.9528,-0.96146 c 0,0 2.2382,-1.9229 1.7906,0 -0.44763,1.9229 -3.0918,8.2901 -4.4764,12.499 -1.619,4.9215 -1.6822,10.632 -4.4764,14.903 -2.385,3.6454 -6.3033,5.8579 -9.848,8.1724 -3.9359,2.57 -8.3181,4.2562 -12.534,6.2495 -3.5506,1.6788 -7.5748,2.4033 -10.743,4.8073 -3.4512,2.6185 -8.5051,10.095 -8.5051,10.095 z"
         sodipodi:nodetypes="cccaaaaaaccsaaaaacc"
         style="fill:#000000"
         inkscape:connector-curvature="0" />
      <path
         id="path3880"
         d="m 245.66,466.06 16.786,-5.0477 4.7002,0.7211 4.2526,2.8844 4.7002,2.8844 3.3573,2.1633 5.5955,9.1339 -1.5667,11.297 -7.1622,6.0092 -10.296,0.24037 -12.31,-6.0092 -7.6098,-10.095 z"
         style="fill:#f7e61b"
         inkscape:connector-curvature="0" />
      <path
         id="path3022"
         d="m 297.59,517.98 c 0,0 -1.8366,-10.323 -3.1335,-15.383 -1.252,-4.8857 -2.739,-9.7106 -4.4764,-14.422 -1.5733,-4.2663 -5.3717,-12.499 -5.3717,-12.499 0,0 -0.56386,7.4397 -2.2382,10.576 -1.6276,3.0489 -4.1517,5.8331 -7.1622,7.211 -2.6117,1.1953 -5.7066,0.99358 -8.5051,0.48074 -2.7042,-0.49555 -5.2316,-1.8969 -7.6098,-3.3651 -2.7685,-1.7091 -5.707,-3.4955 -7.6099,-6.2495 -1.5193,-2.199 -1.9278,-5.0773 -2.6858,-7.6917 -0.73165,-2.5233 -2.6615,-5.22 -1.7906,-7.6917 1.0254,-2.91 7.1622,-5.288 7.1622,-5.288 0,0 -7.7708,0.5055 -11.639,0.96146 -3.1464,0.37092 -9.4004,1.4422 -9.4004,1.4422 0,0 5.048,8.0308 7.6099,12.018 3.1031,4.83 5.4209,10.401 9.4004,14.422 3.9512,3.9926 8.935,6.7295 13.877,9.1339 4.127,2.008 8.643,2.9242 12.982,4.3266 3.572,1.1546 7.4428,1.4983 10.743,3.3651 3.7528,2.1226 9.848,8.6532 9.848,8.6532 z"
         sodipodi:nodetypes="caacaaaaaaacacaaaaac"
         style="fill:#000000"
         inkscape:connector-curvature="0" />
      <path
         id="path3024"
         d="m 267.59,466.06 c -1.646,0.9523 -2.4046,3.303 -2.6858,5.2881 -0.3433,2.4234 -0.0953,5.3075 1.3429,7.211 1.432,1.8953 4.1329,3.7239 6.2669,2.8844 2.8196,-1.1092 4.1608,-5.4315 4.0287,-8.6532 -0.10019,-2.4437 -1.6407,-4.9686 -3.5811,-6.2495 -1.5307,-1.0104 -3.7898,-1.3959 -5.3717,-0.48073 z"
         sodipodi:nodetypes="aaaaaaa"
         style="fill:#000000"
         inkscape:connector-curvature="0" />
      <path
         id="path3026"
         d="m 443.07,455 c -0.13371,2.3779 0.42499,5.358 2.2382,6.7303 1.8295,1.3846 4.8523,1.3333 6.7146,0 1.614,-1.1555 1.953,-3.7083 2.2382,-5.7688 0.22047,-1.5929 0.32493,-3.4271 -0.44764,-4.8073 -0.83151,-1.4856 -2.4164,-2.8076 -4.0287,-2.8844 -1.8678,-0.089 -3.6258,1.4395 -4.924,2.8844 -0.92671,1.0314 -1.7101,2.4152 -1.7906,3.8459 z"
         sodipodi:nodetypes="aaaaaaaa"
         style="fill:#000000"
         inkscape:connector-curvature="0" />
      <path
         id="path3028"
         d="m 434.56,454.04 c 0,0 4.6801,-6.7866 8.0575,-8.6532 3.2281,-1.7841 7.2048,-1.0508 10.743,-1.9229 5.1541,-1.2704 9.9453,-4.3984 15.22,-4.8073 3.1571,-0.2448 6.2431,1.2012 9.4004,1.4422 1.786,0.13632 5.3717,0 5.3717,0 0,0 -7.4142,2.1617 -11.191,2.8844 -5.029,0.9623 -10.165,1.1322 -15.22,1.9229 -3.447,0.53924 -7.0217,0.64547 -10.296,1.9229 -3.079,1.2014 -5.6212,3.6193 -8.5051,5.2881 -1.1749,0.67986 -3.5811,1.9229 -3.5811,1.9229 z"
         sodipodi:nodetypes="caaaacaaaac"
         style="fill:#000000"
         inkscape:connector-curvature="0" />
      <path
         id="path3030"
         d="m 255.96,462.7 c 0,0 7.5969,-1.5656 11.191,-0.48073 4.1434,1.2507 7.0208,5.3717 10.743,7.6917 1.4429,0.89924 4.4764,2.4037 4.4764,2.4037 0,0 -2.9398,-4.5449 -4.924,-6.2495 -3.0228,-2.5968 -6.4636,-5.1815 -10.296,-5.7688 -3.766,-0.57716 -11.191,2.4037 -11.191,2.4037 z"
         sodipodi:nodetypes="caacaac"
         style="fill:#000000"
         inkscape:connector-curvature="0" />
      <path
         id="path3034"
         d="m 481.57,644.41 c 0,0 12.407,-7.9862 17.906,-12.98 9.7512,-8.8559 17.135,-20.378 26.411,-29.805 3.8438,-3.9068 12.086,-11.057 12.086,-11.057 0,0 -19.2,35.451 -34.468,46.631 -6.3175,4.6261 -21.934,7.211 -21.934,7.211 z"
         sodipodi:nodetypes="caacac"
         style="fill:#000000"
         inkscape:connector-curvature="0" />
      <path
         id="path3036"
         d="m 267.38,558.29 c 0,0 -13.584,12.287 -21.524,16.317 -7.9146,4.0173 -17.02,10.46 -25.322,7.4784 -8.8465,-3.1766 -12.833,-14.883 -17.093,-23.795 -3.0184,-6.3145 -3.2082,-13.821 -5.6975,-20.396 -2.0619,-5.4461 -3.3145,-11.974 -7.5967,-15.637 -3.9236,-3.3558 -9.5444,-4.0721 -14.56,-4.0792 -6.7559,-0.01 -12.923,4.5251 -19.625,5.4389 -4.8148,0.65644 -14.56,0 -14.56,0 0,0 25.074,-13.251 38.616,-13.597 6.3463,-0.16244 13.333,1.2741 18.359,5.4389 9.6566,8.0021 9.9625,24.492 18.359,33.993 3.9887,4.5137 8.978,8.5296 14.56,10.198 11.595,3.4652 36.084,-1.3597 36.084,-1.3597 z"
         sodipodi:nodetypes="caaaaaaacaaaac"
         style="fill:#784421"
         inkscape:connector-curvature="0" />
      <path
         id="path3038"
         d="m 284.47,531.78 c 0,0 -10.527,12.502 -17.726,14.277 -7.5426,1.8601 -15.957,-0.85695 -22.79,-4.759 -6.3238,-3.6112 -10.524,-10.485 -15.193,-16.317 -6.4942,-8.1106 -14.616,-15.672 -17.726,-25.835 -3.3599,-10.98 0,-34.673 0,-34.673 0,0 1.987,21.867 5.6975,31.953 3.4849,9.4728 9.2715,17.879 15.193,25.835 3.354,4.506 6.6764,9.4806 11.395,12.237 5.308,3.1012 11.685,4.2507 17.726,4.0792 8.085,-0.22958 23.423,-6.7986 23.423,-6.7986 z"
         sodipodi:nodetypes="caaaacaaaac"
         style="fill:#000000"
         inkscape:connector-curvature="0" />
      <path
         id="path3040"
         d="m 443.37,524.3 c 0,0 19.551,-0.62345 27.854,-5.4389 10.507,-6.093 18.473,-16.926 24.689,-27.874 5.3505,-9.4234 6.4143,-20.983 10.129,-31.273 1.7426,-4.8276 5.6975,-14.277 5.6975,-14.277 0,0 -3.2938,37.864 -12.028,53.709 -3.1961,5.7981 -9.5785,8.7404 -13.927,13.597 -4.7754,5.3333 -6.8221,14.46 -13.294,16.996 -9.2553,3.6279 -29.121,-5.4389 -29.121,-5.4389 z"
         sodipodi:nodetypes="caaacaaac"
         style="fill:#000000"
         inkscape:connector-curvature="0" />
      <path
         id="path3042"
         d="m 450.96,544.7 c 0,0 34.185,4.759 37.35,6.7986 3.1653,2.0396 19.718,6.4218 29.121,10.878 5.2694,2.4972 15.193,8.8382 15.193,8.8382 0,0 3.6785,-7.4704 4.4314,-11.558 0.85997,-4.6685 0.68346,-9.575 0,-14.277 -0.8543,-5.8773 -4.1126,-11.136 -5.0644,-16.996 -1.016,-6.2549 -1.7876,-12.809 -0.63306,-19.036 1.5858,-8.5533 3.6551,-18.53 10.129,-23.795 7.661,-6.2308 28.488,-4.759 28.488,-4.759 h 7.5967 c 0,0 -13.305,-5.7912 -20.258,-5.4389 -7.5999,0.38518 -15.864,2.6973 -21.524,8.1583 -4.0018,3.8615 -5.3842,10.114 -6.9636,15.637 -3.3205,11.612 -0.40234,24.965 -5.0644,36.032 -2.1605,5.1287 -5.4544,10.371 -10.129,12.917 -8.2994,4.5218 -27.854,2.0396 -27.854,2.0396 z"
         sodipodi:nodetypes="csacaaaaaccaaaaacc"
         style="fill:#784421"
         inkscape:connector-curvature="0" />
      <path
         id="path3044"
         d="m 582.64,491.67 c 0,0 12.064,19.459 14.56,30.594 1.8768,8.3723 1.4868,17.372 0,25.835 -1.9327,11 -6.9353,21.156 -11.395,31.273 -4.2443,9.6292 -14.56,27.874 -14.56,27.874 0,0 21.913,-7.8243 29.754,-16.317 10.299,-11.155 16.639,-26.773 19.625,-42.151 1.6388,-8.442 1.3846,-17.695 -1.2661,-25.835 -2.3969,-7.3607 -7.0911,-14.034 -12.661,-19.036 -6.8065,-6.1128 -24.056,-12.237 -24.056,-12.237 z"
         sodipodi:nodetypes="caaacaaaac"
         style="fill:#28170b"
         inkscape:connector-curvature="0" />
      <path
         id="path3046"
         d="m 274.34,304.03 c 0,0 20.556,36.794 31.02,55.069 5.2139,9.1058 10.957,17.871 15.826,27.194 5.7702,11.049 15.826,33.993 15.826,33.993 0,0 0.53454,-16.089 -1.2661,-23.795 -3.1712,-13.571 -9.3769,-26.328 -16.459,-38.072 -8.0504,-13.349 -19.235,-24.191 -29.121,-36.032 -5.1832,-6.209 -15.826,-18.356 -15.826,-18.356 z"
         sodipodi:nodetypes="caacaaac"
         style="fill:#784421;stroke:#000000;stroke-width:3.24720001"
         inkscape:connector-curvature="0" />
      <path
         id="path3048"
         d="m 378.16,397.85 c 0,0 9.7065,-25.996 17.093,-37.392 6.651,-10.262 16.508,-17.675 24.056,-27.194 7.224,-9.1101 12.506,-19.959 20.258,-28.554 11.167,-12.381 37.35,-32.633 37.35,-32.633 0,0 -26.365,40.855 -40.516,60.507 -9.9002,13.749 -19.676,27.715 -31.02,40.112 -8.3902,9.1693 -27.221,25.155 -27.221,25.155 z"
         sodipodi:nodetypes="caaacaac"
         style="fill:#784421;stroke:#000000;stroke-width:3.24720001"
         inkscape:connector-curvature="0" />
      <path
         id="path3050"
         d="m 532,275.47 c 0,0 46.658,-34.166 72.801,-44.871 11.485,-4.7027 24.713,-3.1468 36.084,-8.1583 6.4982,-2.8638 11.278,-9.2433 17.726,-12.237 4.7915,-2.2252 10.631,-6.8033 15.193,-4.0792 5.4243,3.2387 4.8758,12.43 5.6975,19.036 0.61528,4.9468 -0.63306,14.957 -0.63306,14.957 0,0 6.2032,-22.252 9.4958,-33.313 2.0319,-6.826 6.8036,-13.247 6.3306,-20.396 -0.30105,-4.5492 -2.4296,-9.3249 -5.6975,-12.237 -2.3643,-2.1073 -5.7913,-2.6373 -8.8628,-2.7194 -9.3131,-0.24911 -18.314,3.8695 -27.221,6.7986 -10.155,3.3392 -19.905,7.97 -29.754,12.237 -7.0149,3.0395 -13.511,7.7338 -20.891,9.518 -4.9451,1.1956 -10.152,1.2448 -15.193,0.67986 -11.046,-1.2379 -21.183,-9.1116 -32.286,-8.8382 -5.0719,0.1249 -14.56,4.759 -14.56,4.759 0,0 23.31,9.1325 35.451,11.558 8.5286,1.7035 23.822,-6.9905 25.955,2.0396 2.4043,10.176 -17.217,10.227 -24.689,16.996 -7.4211,6.7234 -19.625,23.115 -19.625,23.115 z"
         sodipodi:nodetypes="caaaaacaaaaaaaaacaaacc"
         style="fill:#000000"
         inkscape:connector-curvature="0" />
      <path
         id="path3052"
         d="m 549.72,298.59 c 1.2661,-2.7194 28.734,-33.19 44.947,-47.59 5.7284,-5.088 18.359,-13.597 18.359,-13.597 0,0 -22.36,12.261 -32.286,20.396 -8.8969,7.2921 -15.708,17.149 -24.056,25.155 -4.4742,4.2905 -13.927,12.237 -13.927,12.237 z"
         sodipodi:nodetypes="cacaacc"
         style="fill:#000000"
         inkscape:connector-curvature="0" />
      <path
         id="path3054"
         d="m 671.27,248.28 c 0,0 -10.002,42.88 -20.891,61.187 -4.0161,6.7523 -14.631,9.0877 -15.826,16.996 -0.60466,4.0016 4.5105,6.8677 5.0644,10.878 1.288,9.3238 -2.7053,18.632 -4.4314,27.874 -1.661,8.8933 -3.9416,17.642 -5.6975,26.514 -1.6089,8.1295 3.2176,23.211 -4.4314,24.475 -8.306,1.3723 -7.7143,-16.05 -12.028,-23.795 -4.146,-7.444 -9.16,-14.304 -13.294,-21.755 -4.7843,-8.6233 -7.8224,-18.376 -13.294,-26.514 -3.0585,-4.5489 -10.762,-12.237 -10.762,-12.237 0,0 8.3577,-2.6449 12.661,-2.7194 6.417,-0.11113 14.276,-1.276 18.992,3.3993 5.1142,5.0705 3.0055,14.615 5.0644,21.755 2.3306,8.0825 5.9755,15.688 8.2297,23.795 2.1677,7.7961 -2.5112,23.885 5.0644,23.795 15.725,-0.18622 9.0181,-32.749 9.4958,-49.63 0.22662,-8.0085 -1.5198,-15.98 -3.1653,-23.795 -0.7802,-3.7053 -4.3448,-7.2963 -3.1653,-10.878 1.7759,-5.3923 9.7469,-5.2517 13.294,-9.518 5.5316,-6.6528 7.556,-15.886 11.395,-23.795 5.8468,-12.046 17.726,-36.032 17.726,-36.032 z"
         sodipodi:nodetypes="caaaaaaaaacaaaaaaaaaac"
         style="fill:#000000"
         inkscape:connector-curvature="0" />
      <path
         id="path3056"
         d="m 538.33,197.29 c 0,0 -11.446,2.2965 -17.093,1.3597 -6.7383,-1.118 -12.696,-5.3469 -18.992,-8.1583 -9.3384,-4.1701 -18.142,-9.8876 -27.854,-12.917 -9.0284,-2.8165 -18.534,-3.4369 -27.854,-4.759 -7.9936,-1.1339 -16.022,-1.9828 -24.056,-2.7194 -12.853,-1.1786 -38.616,-2.7194 -38.616,-2.7194 0,0 -17.232,3.7206 -25.955,4.759 -12.181,1.45 -24.657,-0.3009 -36.717,2.0396 -8.275,1.6059 -16.163,5.043 -24.056,8.1583 -12.25,4.8349 -24.269,10.363 -36.084,16.317 -11.193,5.6402 -22.011,12.104 -32.919,18.356 -6.5819,3.7726 -12.75,8.4443 -19.625,11.558 -7.3192,3.3147 -15.06,5.5123 -22.79,7.4784 -9.7897,2.4902 -20.15,2.219 -29.754,5.4389 -3.3343,1.1179 -9.4958,4.759 -9.4958,4.759 0,0 10.577,17.753 12.028,27.874 1.004,7.0009 -2.5322,21.076 -2.5322,21.076 0,0 17.076,-29.962 29.121,-41.471 7.4896,-7.1566 17.206,-11.06 25.955,-16.317 18.373,-11.038 36.653,-22.343 55.709,-31.953 10.109,-5.0981 20.231,-10.496 31.02,-13.597 9.0521,-2.602 18.524,-5.0148 27.854,-4.0792 13.953,1.3992 25.9,13.273 39.883,14.277 4.501,0.32321 9.1019,-0.93074 13.294,-2.7194 10.935,-4.6654 18.282,-17.585 29.754,-20.396 10.36,-2.5388 21.103,2.7127 31.653,4.0792 13.928,1.804 28.23,1.5417 41.782,5.4389 11.964,3.4406 21.823,14.81 34.185,15.637 7.6664,0.51258 22.157,-6.7986 22.157,-6.7986 z"
         sodipodi:nodetypes="caaaaacaaaaaaaacacaaaaaaaaaaac"
         style="fill:#000000"
         inkscape:connector-curvature="0" />
      <path
         id="path3058"
         d="m 139.5,237.4 c -6.7798,-12.939 -22.945,-16.789 -35.451,-23.115 -9.2975,-4.7031 -19.622,-6.6639 -29.121,-10.878 -5.8445,-2.5927 -11.315,-6.0782 -17.093,-8.8382 -4.5829,-2.1892 -9.0099,-7.1812 -13.927,-6.1187 -2.3405,0.5057 -3.9379,3.1783 -5.0645,5.4389 -2.0309,4.0752 -2.8724,8.9895 -2.5322,13.597 0.62271,8.4347 5.2362,15.968 8.2297,23.795 7.2129,18.858 23.423,55.748 23.423,55.748 0,0 -11.004,-33.627 -14.56,-50.989 -1.0067,-4.9143 -5.6716,-11.973 -1.8992,-14.957 5.6248,-4.4494 12.588,6.5188 18.992,9.518 6.6808,3.1291 13.643,5.5511 20.258,8.8382 9.9364,4.9377 20.728,8.7662 29.121,16.317 7.1505,6.4328 12.378,15.151 17.093,23.795 6.2599,11.477 13.619,23.45 14.56,36.712 0.71212,10.029 -6.9636,29.234 -6.9636,29.234 0,0 17.421,-23.988 17.093,-38.072 -0.19862,-8.5159 -7.5404,-14.99 -11.395,-22.435 -3.5359,-6.8296 -8.907,-12.84 -10.762,-20.396 -2.1518,-8.7653 4.1395,-19.295 0,-27.194 z"
         sodipodi:nodetypes="aaaaaaaacaaaaaaacaaaa"
         style="fill:#000000"
         inkscape:connector-curvature="0" />
      <path
         id="path3060"
         d="m 71.764,295.19 c 0,0 14.807,36.902 22.79,55.069 3.6248,8.2488 8.2774,15.99 11.395,24.475 2.1812,5.9362 3.8689,12.105 5.0644,18.356 2.1802,11.399 1.709,23.254 3.7983,34.673 0.7601,4.1542 3.1653,12.237 3.1653,12.237 0,0 5.5224,-24.59 8.8628,-36.712 3.219,-11.682 6.2992,-23.472 10.762,-34.673 3.1936,-8.0153 11.395,-23.115 11.395,-23.115 0,0 -16.083,16.777 -24.689,24.475 -3.2429,2.9006 -5.9857,9.021 -10.129,8.1583 -9.2018,-1.916 -10.268,-16.886 -14.56,-25.835 -6.102,-12.73 -9.215,-27.01 -15.826,-39.43 -3.371,-6.34 -12.028,-17.68 -12.028,-17.68 z"
         sodipodi:nodetypes="caaaacaacaaaac"
         style="fill:#000000"
         inkscape:connector-curvature="0" />
      <path
         id="path3062"
         d="m 114.18,452.24 c 0,0 -6.167,25.54 -11.395,37.392 -3.8593,8.7491 -18.492,15.763 -14.56,24.475 2.7748,6.1484 15.597,-3.7392 18.992,2.0396 5.9831,10.186 -9.1696,22.19 -11.395,33.993 -1.5517,8.2301 0.16028,16.898 -1.2661,25.155 -1.3756,7.9624 -6.9636,23.115 -6.9636,23.115 0,0 7.7325,-18.975 11.395,-28.554 2.4112,-6.3065 4.3137,-12.841 6.9636,-19.036 3.3887,-7.9223 9.4381,-14.654 11.395,-23.115 1.9329,-8.3576 2.3237,-17.593 0,-25.835 -1.1024,-3.9101 -5.3857,-6.2405 -6.3306,-10.198 -3.0512,-12.779 3.1653,-39.432 3.1653,-39.432 z"
         sodipodi:nodetypes="caaaaacaaaaac"
         style="fill:#000000"
         inkscape:connector-curvature="0" />
      <path
         id="path3064"
         d="m 97.719,601.81 c 0,0 9.1207,17.092 11.395,26.514 2.1239,8.7994 -4.4076,21.132 1.8992,27.194 4.4052,4.2348 11.886,0.3129 17.726,-0.67986 9.1041,-1.5477 26.588,-8.1583 26.588,-8.1583 0,0 -20.421,5.3101 -29.121,0.67986 -5.1433,-2.7376 -6.8847,-9.8711 -10.129,-14.957 -6.3846,-10.009 -18.359,-30.594 -18.359,-30.594 z"
         sodipodi:nodetypes="caaacaac"
         style="fill:#000000"
         inkscape:connector-curvature="0" />
      <path
         id="path3066"
         d="m 144.57,534.5 c 0,0 6.5867,23.038 9.4958,34.673 2.0838,8.3342 2.9646,17.04 5.6975,25.155 3.9158,11.628 11.84,21.484 15.193,33.313 2.7288,9.6274 3.3586,19.861 3.7983,29.914 0.23785,5.4376 -1.8202,11.024 -0.63306,16.317 2.6114,11.641 16.459,31.273 16.459,31.273 0,0 -13.169,-20.513 -18.992,-31.273 -4.1731,-7.7114 -9.9464,-15.013 -11.395,-23.795 -1.4838,-8.9953 4.2518,-18.134 3.1653,-27.194 -1.5966,-13.314 -10.442,-24.5 -13.927,-37.392 -4.4883,-16.605 -8.8628,-50.989 -8.8628,-50.989 z"
         sodipodi:nodetypes="caaaaacaaaac"
         style="fill:#000000"
         inkscape:connector-curvature="0" />
      <path
         id="path3068"
         d="m 632.02,429.12 c 0,0 16.113,24.121 22.157,37.392 2.7565,6.0528 3.4242,13.065 6.3306,19.036 4.2044,8.6384 19.98,15.128 15.826,23.795 -2.0277,4.2316 -11.159,-4.1704 -13.294,0 -6.2609,12.231 18.401,21.654 20.891,35.353 1.3563,7.4602 -2.4308,14.978 -3.7983,22.435 -1.3754,7.5008 -1.3441,15.547 -4.4314,22.435 -5.3316,11.896 -15.06,20.917 -23.423,30.594 -8.9348,10.338 -17.96,20.8 -28.488,29.234 -4.091,3.2773 -13.294,8.1583 -13.294,8.1583 0,0 22.779,-25.876 31.653,-40.792 4.7773,-8.0297 11.215,-16.308 11.395,-25.835 0.18572,-9.8475 -10.762,-27.194 -10.762,-27.194 0,0 15.986,16.199 24.056,12.237 7.1707,-3.52 6.9255,-16.032 6.3306,-24.475 -0.85526,-12.138 -10.446,-21.729 -13.927,-33.313 -2.5801,-8.5862 -2.7192,-17.851 -5.0644,-26.514 -5.7986,-21.42 -22.157,-62.547 -22.157,-62.547 z"
         sodipodi:nodetypes="caaaaaaaaacaacaaaac"
         style="fill:#000000"
         inkscape:connector-curvature="0" />
      <path
         id="path3070"
         d="m 614.93,459.71 16.459,1.3597 c 0,0 -1.7844,-21.325 -8.8628,-27.194 -6.2002,-5.1413 -15.607,-1.4823 -23.423,-2.0396 -12.229,-0.87185 -24.912,1.4931 -36.717,-2.0396 -6.457,-1.9322 -17.726,-10.198 -17.726,-10.198 0,0 15.231,12.587 24.056,16.317 10.591,4.4757 23.798,0.50111 33.552,6.7986 5.7902,3.7382 12.661,16.996 12.661,16.996 z"
         sodipodi:nodetypes="ccaaacaac"
         style="fill:#28170b"
         inkscape:connector-curvature="0" />
      <path
         id="path3072"
         d="m 135.7,479.43 c -2.5322,0.67986 -13.294,6.7986 -13.294,6.7986 0,0 12.028,15.637 13.294,18.356 1.2661,2.7194 10.129,6.7986 12.661,-8.8382 2.5322,-15.637 11.395,-38.752 11.395,-38.752 z"
         style="fill:#28170b"
         inkscape:connector-curvature="0" />
      <path
         id="path3074"
         d="m 205.34,715.34 c 0,0 22.359,26.746 36.084,36.712 7.118,5.1686 15.75,7.4052 23.423,11.558 8.6027,4.6554 16.886,9.9621 25.322,14.957 8.0232,4.7503 16.387,8.8944 24.056,14.277 3.7803,2.6532 10.762,8.8382 10.762,8.8382 0,0 -14.979,-17.715 -24.056,-24.475 -8.298,-6.18 -18.03,-9.7867 -27.221,-14.277 -9.3825,-4.5835 -19.765,-7.0196 -28.488,-12.917 -6.1989,-4.1912 -10.792,-10.653 -16.459,-15.637 -7.5762,-6.6611 -23.423,-19.036 -23.423,-19.036 z"
         sodipodi:nodetypes="caaaacaaaac"
         style="fill:#000000"
         inkscape:connector-curvature="0" />
      <path
         id="path3076"
         d="m 456.03,793.53 c 0,0 23.663,-8.4047 34.818,-14.277 10.204,-5.3715 20.145,-11.552 29.121,-19.036 10.019,-8.354 22.476,-15.921 27.221,-28.554 2.6063,-6.9386 -5.921,-17.564 -0.63305,-22.435 4.398,-4.0514 11.691,5.6514 17.093,3.3993 11.095,-4.6258 13.551,-21.104 21.524,-30.594 5.6012,-6.6668 18.359,-18.356 18.359,-18.356 0,0 5.6975,-4.759 3.1653,-3.3993 -2.5322,1.3597 -19.916,16.141 -29.121,25.155 -6.947,6.803 -10.784,18.319 -19.625,21.755 -5.5876,2.1719 -13.306,-6.305 -17.726,-2.0396 -4.5518,4.3926 1.8761,13.46 0,19.716 -2.5495,8.5006 -8.1215,16.104 -14.56,21.755 -7.1667,6.2907 -17.319,7.2445 -25.322,12.237 -15.803,9.8586 -44.314,34.673 -44.314,34.673 z"
         sodipodi:nodetypes="caaaaaacsaaaaaac"
         style="fill:#000000"
         inkscape:connector-curvature="0" />
      <path
         id="path3078"
         d="m 336.38,815.28 c 0,0 9.6779,7.7475 14.56,11.558 4.4055,3.4379 8.453,7.5197 13.294,10.198 6.3477,3.5116 13.12,7.276 20.258,7.4784 7.6785,0.21772 15.428,-2.8198 22.157,-6.7986 9.1646,-5.4191 15.51,-15.085 23.423,-22.435 6.4574,-5.9983 19.625,-17.676 19.625,-17.676 0,0 -19.245,14.327 -29.121,21.076 -7.2666,4.9658 -14.278,10.54 -22.157,14.277 -6.0458,2.8679 -12.41,6.7704 -18.992,6.1187 -16.07,-1.5912 -43.048,-23.795 -43.048,-23.795 z"
         sodipodi:nodetypes="caaaaacaaac"
         style="fill:#000000"
         inkscape:connector-curvature="0" />
      <path
         id="path3080"
         d="m 322.14,730.98 v 11.558 12.237 l 2.8488,10.198 2.8488,5.4389 2.5322,1.3597 1.2661,-3.0594 v -2.0396 l -3.1653,1.3597 -2.5322,-5.0989 -1.8992,-8.4982 z"
         style="fill:#000000"
         inkscape:connector-curvature="0" />
      <path
         id="path3004"
         d="m 273.86,681.91 c 0,0 5.073,14.872 9.4004,21.152 4.3347,6.2906 10.112,11.427 16.115,15.864 3.573,2.6409 7.6866,4.3299 11.639,6.2495 4.6958,2.2809 9.349,4.8058 14.324,6.2495 5.0928,1.4778 10.418,1.8409 15.667,2.4037 5.2051,0.55798 10.491,1.7689 15.667,0.96146 3.9235,-0.612 7.2394,-3.9811 11.191,-4.3266 4.0837,-0.357 7.9915,2.2498 12.086,2.4037 6.6036,0.24817 13.283,-0.69575 19.696,-2.4037 7.1539,-1.9051 14.203,-4.706 20.591,-8.6532 16.846,-10.408 35.397,-21.215 45.659,-38.939 2.9826,-5.1514 2.3251,-11.873 3.5811,-17.787 0.85305,-4.0167 2.6858,-12.018 2.6858,-12.018 0,0 0.89527,-6.2495 0,-2.8844 -0.89528,3.3651 -5.1494,16.747 -8.9528,24.517 -3.1003,6.3338 -6.73,12.472 -11.191,17.787 -4.0419,4.8159 -9.0451,8.6118 -13.877,12.499 -7.3197,5.8889 -14.761,11.721 -22.83,16.345 -4.1316,2.3676 -8.4793,4.385 -12.982,5.7688 -5.2356,1.6092 -10.673,2.6608 -16.115,2.8844 -6.7361,0.27682 -13.47,-2.9412 -20.144,-1.9229 -2.8531,0.43529 -5.2173,2.8413 -8.0575,3.3651 -9.5634,1.7637 -19.606,1.2112 -29.096,-0.96147 -6.1518,-1.4084 -11.912,-4.5047 -17.458,-7.6917 -6.8235,-3.9212 -13.672,-8.179 -19.248,-13.941 -7.4629,-7.7109 -18.353,-26.921 -18.353,-26.921 z"
         sodipodi:nodetypes="caaaaaaaaaaaacsaaaaaaaaaaac"
         style="fill:#000000"
         inkscape:connector-curvature="0" />
      <path
         id="path3082"
         d="m 345.24,785.71 -6.9636,-7.1385 -4.4314,-8.8382 -1.5826,-6.4587 -1.8992,-11.218 -0.63305,-4.4191 1.8992,-3.0594 3.7983,3.0594 3.1653,7.4784 -4.1149,-4.0792 -3.4818,-0.33993 2.5322,14.957 3.7983,9.1781 z"
         style="fill:#000000"
         inkscape:connector-curvature="0" />
      <path
         id="path3084"
         d="m 340.5,755.11 c 0,0 -0.31652,8.1583 -0.31652,9.518 0,1.3597 -0.94959,7.4784 -0.94959,7.4784 l 1.8992,2.7194 6.014,-3.3993 4.1149,-1.3597 -7.5967,0.33993 -1.8992,1.0198 -0.31653,-8.1583 z"
         style="fill:#000000"
         inkscape:connector-curvature="0" />
      <path
         id="path3086"
         d="m 352.21,768.03 2.5322,9.1781 1.5826,3.7392 5.0644,-1.0198 2.8488,-2.3795 h 3.4818 l -0.31652,-2.3795 -6.014,1.6996 -4.1149,1.6996 z"
         style="fill:#000000"
         inkscape:connector-curvature="0" />
      <path
         id="path3088"
         d="m 368.35,773.13 3.1653,3.7392 3.1653,0.33993 3.4818,-1.6996 v 2.3795 l -6.014,1.3597 z"
         style="fill:#000000"
         inkscape:connector-curvature="0" />
      <path
         id="path3090"
         d="m 379.11,772.11 2.5322,4.0792 3.4818,1.3597 5.0644,1.0198 4.1149,-3.3993 h -3.7983 l -5.381,0.33993 -3.1653,-0.67987 z"
         style="fill:#000000"
         inkscape:connector-curvature="0" />
      <path
         id="path3092"
         d="m 394.62,770.41 1.5826,3.7392 3.7983,1.3597 h 6.014 l 2.8488,-0.33993 -5.0644,-1.3597 -6.014,-0.33993 z"
         style="fill:#000000"
         inkscape:connector-curvature="0" />
      <path
         id="path3094"
         d="m 406.02,761.23 0.63306,7.1385 1.2661,4.4191 -0.63305,-6.7986 z"
         style="fill:#000000"
         inkscape:connector-curvature="0" />
      <path
         id="path3096"
         d="m 410.13,758.85 0.94958,4.4191 7.2802,2.3795 3.7983,0.33994 0.31653,-3.3993 v -4.0792 l -6.014,-10.198 2.2157,7.1385 2.2157,5.7788 v 2.7194 l -5.381,-1.0198 z"
         style="fill:#000000"
         inkscape:connector-curvature="0" />
      <path
         id="path3098"
         d="m 413.93,768.71 -1.8992,10.878 c 0,0 -2.3994,6.5446 -4.1149,9.518 -1.0675,1.8502 -2.2619,3.6794 -3.7983,5.0989 -1.756,1.6224 -3.8046,2.9918 -6.014,3.7392 -3.5351,1.1958 -7.3735,0.9118 -11.078,1.0198 -3.3767,0.0984 -6.7626,-0.64096 -10.129,-0.33993 -3.2168,0.28767 -6.268,2.0037 -9.4958,2.0396 -3.0008,0.0333 -6.0693,-0.52213 -8.8628,-1.6996 -3.2692,-1.378 -6.5166,-3.3121 -8.8628,-6.1187 -1.2608,-1.5083 -1.8697,-3.5409 -2.5322,-5.4389 -1.033,-2.9594 -2.2157,-9.1781 -2.2157,-9.1781 0,0 3.0053,7.0432 5.0644,10.198 1.6296,2.4966 3.2183,5.3131 5.6975,6.7986 2.0603,1.2345 4.6274,1.0068 6.9636,1.3597 3.15,0.47591 6.3186,1.1866 9.4958,1.0198 1.612,-0.0847 3.6211,0.2212 4.7479,-1.0198 3.4392,-3.7878 -2.3806,-16.027 2.5322,-15.637 4.3154,0.34312 -2.2562,10.201 0.31652,13.937 0.99187,1.4405 3.0919,1.4835 4.7479,1.6996 2.6268,0.34291 5.3135,-0.14977 7.9132,-0.67986 2.4921,-0.50816 5.0628,-1.0564 7.2802,-2.3795 1.9608,-1.17 3.6991,-2.8477 5.0644,-4.759 4.2221,-5.9103 9.1793,-20.056 9.1793,-20.056 z"
         sodipodi:nodetypes="ccaaaaaaaaacaaaaaaaaaaac"
         style="fill:#000000"
         inkscape:connector-curvature="0" />
      <path
         id="path3100"
         d="m 425.64,765.99 0.63306,-11.218 -0.31653,-8.8382 -1.5826,-5.0989 -0.63306,-2.3795 -4.1149,1.0198 -3.1653,7.8184 4.7479,-4.759 2.8488,2.0396 0.63306,10.878 -0.63306,7.4784 -1.5826,6.1187 -2.8488,4.759 -1.8992,4.759 z"
         style="fill:#000000"
         inkscape:connector-curvature="0" />
      <path
         id="path3102"
         d="m 433.24,715 1.2661,8.1583 2.8488,10.878 1.2661,6.7986 1.8992,7.4784 0.94959,6.1187 -2.2157,4.0792 -2.5322,-0.33992 -7.9132,-10.198 6.014,6.4586 3.4818,0.33993 -3.7983,-26.514 z"
         style="fill:#000000"
         inkscape:connector-curvature="0" />
      <path
         id="path3104"
         d="m 443.37,766.67 -4.1149,-3.3993 c 0,0 -7.0689,-0.29507 -9.8124,1.6996 -3.0567,2.2225 -3.5843,6.9476 -5.6975,10.198 -2.4055,3.6999 -4.8354,7.4657 -7.9132,10.538 -1.222,1.2197 -2.9322,1.7958 -4.1149,3.0594 -0.91304,0.97547 -1.3465,2.3787 -2.2157,3.3993 -1.7688,2.0769 -3.6886,4.1408 -6.014,5.4389 -3.2927,1.8379 -7.109,2.3582 -10.762,3.0594 -4.382,0.84109 -8.8539,1.022 -13.294,1.3597 -4.5305,0.34463 -9.1014,1.2627 -13.611,0.67986 -3.7125,-0.47988 -7.4634,-1.508 -10.762,-3.3993 -2.9078,-1.6672 -5.1988,-4.3697 -7.5967,-6.7986 -1.6833,-1.7052 -3.1921,-3.5994 -4.7479,-5.4389 -2.3625,-2.7931 -4.7994,-5.5256 -6.9636,-8.4982 -1.0276,-1.4114 -2.8488,-4.4191 -2.8488,-4.4191 0,0 2.7801,9.5412 5.381,13.597 2.2431,3.498 5.2688,6.4612 8.5463,8.8382 2.7788,2.0154 6.0999,2.994 9.1793,4.4191 3.041,1.4074 5.9565,3.2621 9.1793,4.0792 2.8826,0.73079 5.9029,0.56648 8.8628,0.67986 2.7415,0.10502 5.5219,-0.47191 8.2297,0 2.6347,0.45917 4.9451,3.0482 7.5967,2.7195 1.5999,-0.1984 2.6713,-1.9525 4.1149,-2.7195 2.6344,-1.3996 5.7019,-1.7889 8.2297,-3.3993 3.9273,-2.5018 7.0873,-6.1951 10.445,-9.518 2.5239,-2.4974 4.8728,-5.1916 7.2802,-7.8184 3.2975,-3.5979 5.1784,-10.03 9.8124,-10.878 1.628,-0.29798 4.4314,2.3795 4.4314,2.3795 l 0.31653,6.7986 z"
         sodipodi:nodetypes="ccaaaaaaaaaaaaacaaaaaaaaaaaaccc"
         style="fill:#000000"
         inkscape:connector-curvature="0" />
    </g>
  </g>
  <metadata
     id="metadata74">
    <rdf:RDF>
      <cc:Work>
        <dc:format>image/svg+xml</dc:format>
        <dc:type
           rdf:resource="http://purl.org/dc/dcmitype/StillImage" />
        <cc:license
           rdf:resource="http://creativecommons.org/licenses/publicdomain/" />
        <dc:publisher>
          <cc:Agent
             rdf:about="http://openclipart.org/">
            <dc:title>Openclipart</dc:title>
          </cc:Agent>
        </dc:publisher>
        <dc:title>wolf</dc:title>
        <dc:date>2013-02-12T14:57:14</dc:date>
        <dc:description />
        <dc:source>https://openclipart.org/detail/175064/wolf-by-artbejo-175064</dc:source>
        <dc:creator>
          <cc:Agent>
            <dc:title>artbejo</dc:title>
          </cc:Agent>
        </dc:creator>
        <dc:subject>
          <rdf:Bag>
            <rdf:li>animal</rdf:li>
            <rdf:li>wild</rdf:li>
            <rdf:li>wolf</rdf:li>
          </rdf:Bag>
        </dc:subject>
      </cc:Work>
      <cc:License
         rdf:about="http://creativecommons.org/licenses/publicdomain/">
        <cc:permits
           rdf:resource="http://creativecommons.org/ns#Reproduction" />
        <cc:permits
           rdf:resource="http://creativecommons.org/ns#Distribution" />
        <cc:permits
           rdf:resource="http://creativecommons.org/ns#DerivativeWorks" />
      </cc:License>
    </rdf:RDF>
  </metadata>
</svg>
