<?xml version="1.0" encoding="UTF-8" standalone="no"?>
<!-- Created with Inkscape (http://www.inkscape.org/) -->

<svg
   xmlns:dc="http://purl.org/dc/elements/1.1/"
   xmlns:cc="http://creativecommons.org/ns#"
   xmlns:rdf="http://www.w3.org/1999/02/22-rdf-syntax-ns#"
   xmlns:svg="http://www.w3.org/2000/svg"
   xmlns="http://www.w3.org/2000/svg"
   xmlns:sodipodi="http://sodipodi.sourceforge.net/DTD/sodipodi-0.dtd"
   xmlns:inkscape="http://www.inkscape.org/namespaces/inkscape"
   id="svg2"
   version="1.1"
   inkscape:version="0.91 r13725"
   xml:space="preserve"
   width="1204.725"
   height="744.09998"
   viewBox="0 0 1204.725 744.09998"
   sodipodi:docname="Plush bears.svg"><metadata
     id="metadata8"><rdf:RDF><cc:Work
         rdf:about=""><dc:format>image/svg+xml</dc:format><dc:type
           rdf:resource="http://purl.org/dc/dcmitype/StillImage" /><dc:title></dc:title></cc:Work></rdf:RDF></metadata><defs
     id="defs6"><linearGradient
       x1="0"
       y1="0"
       x2="1"
       y2="0"
       gradientUnits="userSpaceOnUse"
       gradientTransform="matrix(138.98549,138.98549,-154.4259,154.4259,30.805176,224.29102)"
       spreadMethod="pad"
       id="linearGradient24"><stop
         style="stop-opacity:1;stop-color:#8b5e3c"
         offset="0"
         id="stop26" /><stop
         style="stop-opacity:1;stop-color:#8b5e3c"
         offset="0.26303688"
         id="stop28" /><stop
         style="stop-opacity:1;stop-color:#603913"
         offset="1"
         id="stop30" /></linearGradient><clipPath
       clipPathUnits="userSpaceOnUse"
       id="clipPath38"><path
         d="m 0,595.28 963.78,0 L 963.78,0 0,0 0,595.28 Z"
         id="path40"
         inkscape:connector-curvature="0" /></clipPath><linearGradient
       x1="0"
       y1="0"
       x2="1"
       y2="0"
       gradientUnits="userSpaceOnUse"
       gradientTransform="matrix(-138.98456,138.98456,154.42487,154.42487,451.07275,224.08203)"
       spreadMethod="pad"
       id="linearGradient58"><stop
         style="stop-opacity:1;stop-color:#8b5e3c"
         offset="0"
         id="stop60" /><stop
         style="stop-opacity:1;stop-color:#8b5e3c"
         offset="0.26303688"
         id="stop62" /><stop
         style="stop-opacity:1;stop-color:#603913"
         offset="1"
         id="stop64" /></linearGradient><clipPath
       clipPathUnits="userSpaceOnUse"
       id="clipPath72"><path
         d="m 0,595.28 963.78,0 L 963.78,0 0,0 0,595.28 Z"
         id="path74"
         inkscape:connector-curvature="0" /></clipPath><linearGradient
       x1="0"
       y1="0"
       x2="1"
       y2="0"
       gradientUnits="userSpaceOnUse"
       gradientTransform="matrix(46.74263,174.48705,-193.85443,51.94072,147.07275,37.951172)"
       spreadMethod="pad"
       id="linearGradient92"><stop
         style="stop-opacity:1;stop-color:#8b5e3c"
         offset="0"
         id="stop94" /><stop
         style="stop-opacity:1;stop-color:#8b5e3c"
         offset="0.26303688"
         id="stop96" /><stop
         style="stop-opacity:1;stop-color:#603913"
         offset="1"
         id="stop98" /></linearGradient><clipPath
       clipPathUnits="userSpaceOnUse"
       id="clipPath106"><path
         d="m 0,595.28 963.78,0 L 963.78,0 0,0 0,595.28 Z"
         id="path108"
         inkscape:connector-curvature="0" /></clipPath><linearGradient
       x1="0"
       y1="0"
       x2="1"
       y2="0"
       gradientUnits="userSpaceOnUse"
       gradientTransform="matrix(-46.74263,174.48705,193.85443,51.94072,334.80029,38.001953)"
       spreadMethod="pad"
       id="linearGradient126"><stop
         style="stop-opacity:1;stop-color:#8b5e3c"
         offset="0"
         id="stop128" /><stop
         style="stop-opacity:1;stop-color:#8b5e3c"
         offset="0.26303688"
         id="stop130" /><stop
         style="stop-opacity:1;stop-color:#603913"
         offset="1"
         id="stop132" /></linearGradient><clipPath
       clipPathUnits="userSpaceOnUse"
       id="clipPath140"><path
         d="m 0,595.28 963.78,0 L 963.78,0 0,0 0,595.28 Z"
         id="path142"
         inkscape:connector-curvature="0" /></clipPath><radialGradient
       fx="0"
       fy="0"
       cx="0"
       cy="0"
       r="1"
       gradientUnits="userSpaceOnUse"
       gradientTransform="matrix(123.56718,0,0,137.29686,240.86475,279.00098)"
       spreadMethod="pad"
       id="radialGradient160"><stop
         style="stop-opacity:1;stop-color:#603913"
         offset="0"
         id="stop162" /><stop
         style="stop-opacity:1;stop-color:#603913"
         offset="0.4854273"
         id="stop164" /><stop
         style="stop-opacity:1;stop-color:#8b5e3c"
         offset="1"
         id="stop166" /></radialGradient><clipPath
       clipPathUnits="userSpaceOnUse"
       id="clipPath174"><path
         d="m 0,595.28 963.78,0 L 963.78,0 0,0 0,595.28 Z"
         id="path176"
         inkscape:connector-curvature="0" /></clipPath><radialGradient
       fx="0"
       fy="0"
       cx="0"
       cy="0"
       r="1"
       gradientUnits="userSpaceOnUse"
       gradientTransform="matrix(126.78262,0,0,126.78262,240.92236,438.25049)"
       spreadMethod="pad"
       id="radialGradient206"><stop
         style="stop-opacity:1;stop-color:#603913"
         offset="0"
         id="stop208" /><stop
         style="stop-opacity:1;stop-color:#603913"
         offset="0.4854273"
         id="stop210" /><stop
         style="stop-opacity:1;stop-color:#8b5e3c"
         offset="1"
         id="stop212" /></radialGradient><clipPath
       clipPathUnits="userSpaceOnUse"
       id="clipPath220"><path
         d="m 0,595.28 963.78,0 L 963.78,0 0,0 0,595.28 Z"
         id="path222"
         inkscape:connector-curvature="0" /></clipPath><clipPath
       clipPathUnits="userSpaceOnUse"
       id="clipPath282"><path
         d="m 107.695,438.247 c 0,-66.233 59.658,-119.924 133.249,-119.924 l 0,0 c 73.593,0 133.252,53.691 133.252,119.924 l 0,0 c 0,66.232 -59.659,119.924 -133.252,119.924 l 0,0 c -73.591,0 -133.249,-53.692 -133.249,-119.924"
         id="path284"
         inkscape:connector-curvature="0" /></clipPath><clipPath
       clipPathUnits="userSpaceOnUse"
       id="clipPath318"><path
         d="m 0,595.28 963.78,0 L 963.78,0 0,0 0,595.28 Z"
         id="path320"
         inkscape:connector-curvature="0" /></clipPath><linearGradient
       x1="0"
       y1="0"
       x2="1"
       y2="0"
       gradientUnits="userSpaceOnUse"
       gradientTransform="matrix(139.05339,139.05339,-154.50134,154.50134,512.62842,224.22266)"
       spreadMethod="pad"
       id="linearGradient354"><stop
         style="stop-opacity:1;stop-color:#41393d"
         offset="0"
         id="stop356" /><stop
         style="stop-opacity:1;stop-color:#41393d"
         offset="0.26303688"
         id="stop358" /><stop
         style="stop-opacity:1;stop-color:#332b2e"
         offset="1"
         id="stop360" /></linearGradient><clipPath
       clipPathUnits="userSpaceOnUse"
       id="clipPath368"><path
         d="m 0,595.28 963.78,0 L 963.78,0 0,0 0,595.28 Z"
         id="path370"
         inkscape:connector-curvature="0" /></clipPath><linearGradient
       x1="0"
       y1="0"
       x2="1"
       y2="0"
       gradientUnits="userSpaceOnUse"
       gradientTransform="matrix(-139.05246,139.05246,154.50031,154.50031,933.02295,224.01465)"
       spreadMethod="pad"
       id="linearGradient388"><stop
         style="stop-opacity:1;stop-color:#41393d"
         offset="0"
         id="stop390" /><stop
         style="stop-opacity:1;stop-color:#41393d"
         offset="0.26303688"
         id="stop392" /><stop
         style="stop-opacity:1;stop-color:#332b2e"
         offset="1"
         id="stop394" /></linearGradient><clipPath
       clipPathUnits="userSpaceOnUse"
       id="clipPath402"><path
         d="m 0,595.28 963.78,0 L 963.78,0 0,0 0,595.28 Z"
         id="path404"
         inkscape:connector-curvature="0" /></clipPath><linearGradient
       x1="0"
       y1="0"
       x2="1"
       y2="0"
       gradientUnits="userSpaceOnUse"
       gradientTransform="matrix(46.742508,174.48662,-193.85396,51.940582,628.9624,38.058594)"
       spreadMethod="pad"
       id="linearGradient422"><stop
         style="stop-opacity:1;stop-color:#41393d"
         offset="0"
         id="stop424" /><stop
         style="stop-opacity:1;stop-color:#41393d"
         offset="0.26303688"
         id="stop426" /><stop
         style="stop-opacity:1;stop-color:#332b2e"
         offset="1"
         id="stop428" /></linearGradient><clipPath
       clipPathUnits="userSpaceOnUse"
       id="clipPath436"><path
         d="m 0,595.28 963.78,0 L 963.78,0 0,0 0,595.28 Z"
         id="path438"
         inkscape:connector-curvature="0" /></clipPath><linearGradient
       x1="0"
       y1="0"
       x2="1"
       y2="0"
       gradientUnits="userSpaceOnUse"
       gradientTransform="matrix(-46.74263,174.48705,193.85443,51.94072,816.67529,38.001953)"
       spreadMethod="pad"
       id="linearGradient456"><stop
         style="stop-opacity:1;stop-color:#41393d"
         offset="0"
         id="stop458" /><stop
         style="stop-opacity:1;stop-color:#41393d"
         offset="0.26303688"
         id="stop460" /><stop
         style="stop-opacity:1;stop-color:#332b2e"
         offset="1"
         id="stop462" /></linearGradient><clipPath
       clipPathUnits="userSpaceOnUse"
       id="clipPath470"><path
         d="m 0,595.28 963.78,0 L 963.78,0 0,0 0,595.28 Z"
         id="path472"
         inkscape:connector-curvature="0" /></clipPath><radialGradient
       fx="0"
       fy="0"
       cx="0"
       cy="0"
       r="1"
       gradientUnits="userSpaceOnUse"
       gradientTransform="matrix(123.56718,0,0,137.29686,722.7417,279.00098)"
       spreadMethod="pad"
       id="radialGradient490"><stop
         style="stop-opacity:1;stop-color:#332b2e"
         offset="0"
         id="stop492" /><stop
         style="stop-opacity:1;stop-color:#332b2e"
         offset="0.4854273"
         id="stop494" /><stop
         style="stop-opacity:1;stop-color:#41393d"
         offset="1"
         id="stop496" /></radialGradient><clipPath
       clipPathUnits="userSpaceOnUse"
       id="clipPath504"><path
         d="m 0,595.28 963.78,0 L 963.78,0 0,0 0,595.28 Z"
         id="path506"
         inkscape:connector-curvature="0" /></clipPath><radialGradient
       fx="0"
       fy="0"
       cx="0"
       cy="0"
       r="1"
       gradientUnits="userSpaceOnUse"
       gradientTransform="matrix(126.74983,0,0,126.74983,722.96826,438.26562)"
       spreadMethod="pad"
       id="radialGradient536"><stop
         style="stop-opacity:1;stop-color:#332b2e"
         offset="0"
         id="stop538" /><stop
         style="stop-opacity:1;stop-color:#332b2e"
         offset="0.4854273"
         id="stop540" /><stop
         style="stop-opacity:1;stop-color:#41393d"
         offset="1"
         id="stop542" /></radialGradient><clipPath
       clipPathUnits="userSpaceOnUse"
       id="clipPath550"><path
         d="m 0,595.28 963.78,0 L 963.78,0 0,0 0,595.28 Z"
         id="path552"
         inkscape:connector-curvature="0" /></clipPath><clipPath
       clipPathUnits="userSpaceOnUse"
       id="clipPath612"><path
         d="m 589.585,438.247 c 0,-66.233 59.658,-119.924 133.249,-119.924 l 0,0 c 73.593,0 133.251,53.691 133.251,119.924 l 0,0 c 0,66.232 -59.658,119.924 -133.251,119.924 l 0,0 c -73.591,0 -133.249,-53.692 -133.249,-119.924"
         id="path614"
         inkscape:connector-curvature="0" /></clipPath><clipPath
       clipPathUnits="userSpaceOnUse"
       id="clipPath648"><path
         d="m 0,595.28 963.78,0 L 963.78,0 0,0 0,595.28 Z"
         id="path650"
         inkscape:connector-curvature="0" /></clipPath></defs><sodipodi:namedview
     pagecolor="#ffffff"
     bordercolor="#666666"
     borderopacity="1"
     objecttolerance="10"
     gridtolerance="10"
     guidetolerance="10"
     inkscape:pageopacity="0"
     inkscape:pageshadow="2"
     inkscape:window-width="1920"
     inkscape:window-height="1028"
     id="namedview4"
     showgrid="false"
     inkscape:zoom="1.1056465"
     inkscape:cx="602.36249"
     inkscape:cy="372.04999"
     inkscape:window-x="-8"
     inkscape:window-y="-8"
     inkscape:window-maximized="1"
     inkscape:current-layer="g10" /><g
     id="g10"
     inkscape:groupmode="layer"
     inkscape:label="Plush bears"
     transform="matrix(1.25,0,0,-1.25,0,744.1)"><g
       id="g12"><g
         id="g14"><g
           id="g20"><g
             id="g22"><path
               d="M 66.693,320.19 C 27.501,277.077 18.525,238.057 34.306,220.698 l 0,0 c 15.782,-17.359 50.346,-6.486 89.537,36.625 l 0,0 c 39.189,43.11 58.168,92.132 42.386,109.492 l 0,0 c -3.772,4.149 -9.184,6.114 -15.778,6.113 l 0,0 C 129.456,372.925 96.516,352.995 66.693,320.19"
               style="fill:url(#linearGradient24);stroke:none"
               id="path32"
               inkscape:connector-curvature="0" /></g></g></g></g><g
       id="g34"><g
         id="g36"
         clip-path="url(#clipPath38)"><g
           id="g42"
           transform="translate(166.229,366.8145)"><path
             d="m 0,0 -1.049,-0.954 c 1.732,-1.905 3.024,-4.238 3.89,-6.986 0.866,-2.747 1.3,-5.906 1.3,-9.416 0.01,-11.183 -4.433,-25.865 -12.631,-41.777 -8.192,-15.919 -20.111,-33.088 -34.946,-49.405 -13.626,-14.99 -26.67,-26.035 -38.485,-33.306 -11.814,-7.276 -22.392,-10.755 -31.032,-10.748 -3.722,0.001 -7.085,0.638 -10.072,1.879 -2.988,1.242 -5.607,3.086 -7.849,5.55 -4.581,5.042 -7.003,12.063 -7.008,20.759 -0.004,9.748 3.084,21.549 9.567,34.61 6.481,13.063 16.346,27.386 29.828,42.216 14.833,16.317 30.437,29.423 44.891,38.422 7.225,4.5 14.162,7.972 20.555,10.311 6.392,2.341 12.239,3.543 17.263,3.541 3.156,0 5.984,-0.471 8.442,-1.408 2.459,-0.939 4.553,-2.336 6.287,-4.242 L 0,0 1.049,0.954 c -2.038,2.243 -4.536,3.902 -7.375,4.983 -2.841,1.082 -6.016,1.593 -9.452,1.593 -5.473,-0.001 -11.617,-1.291 -18.237,-3.713 -19.846,-7.274 -44.073,-24.755 -66.57,-49.488 -13.629,-14.994 -23.645,-29.515 -30.269,-42.863 -6.621,-13.349 -9.859,-25.527 -9.863,-35.87 -0.004,-9.209 2.597,-17.005 7.745,-22.665 2.509,-2.761 5.491,-4.864 8.859,-6.262 3.368,-1.399 7.115,-2.096 11.16,-2.095 9.4,0.007 20.408,3.72 32.518,11.168 12.11,7.455 25.33,18.67 39.097,33.814 14.991,16.491 27.044,33.84 35.368,50.014 8.319,16.18 12.935,31.161 12.945,43.074 0,3.741 -0.46,7.186 -1.43,10.268 -0.97,3.08 -2.457,5.799 -4.496,8.042 L 0,0 Z"
             style="fill:#3c2415;fill-opacity:1;fill-rule:nonzero;stroke:none"
             id="path44"
             inkscape:connector-curvature="0" /></g></g></g><g
       id="g46"><g
         id="g48"><g
           id="g54"><g
             id="g56"><path
               d="m 315.662,366.815 c -15.781,-17.36 3.196,-66.382 42.388,-109.492 l 0,0 c 39.188,-43.111 73.753,-53.984 89.533,-36.625 l 0,0 c 15.782,17.359 6.805,56.379 -32.385,99.492 l 0,0 c -29.823,32.805 -62.763,52.735 -83.758,52.738 l 0,0 c -6.594,10e-4 -12.006,-1.964 -15.778,-6.113"
               style="fill:url(#linearGradient58);stroke:none"
               id="path66"
               inkscape:connector-curvature="0" /></g></g></g></g><g
       id="g68"><g
         id="g70"
         clip-path="url(#clipPath72)"><g
           id="g76"
           transform="translate(315.6626,366.8145)"><path
             d="m 0,0 -1.049,0.954 c -2.039,-2.243 -3.526,-4.962 -4.496,-8.043 -0.97,-3.081 -1.43,-6.526 -1.43,-10.267 0.011,-11.913 4.626,-26.894 12.945,-43.074 8.324,-16.174 20.377,-33.523 35.368,-50.014 13.767,-15.144 26.986,-26.359 39.096,-33.814 12.11,-7.448 23.118,-11.161 32.517,-11.168 4.046,-0.001 7.792,0.696 11.16,2.095 3.368,1.398 6.35,3.501 8.859,6.262 5.148,5.66 7.749,13.457 7.745,22.665 -0.004,10.343 -3.242,22.521 -9.863,35.87 -6.623,13.348 -16.639,27.869 -30.268,42.863 C 85.592,-29.181 69.815,-15.917 55.094,-6.75 47.733,-2.166 40.635,1.395 34.015,3.817 27.395,6.239 21.251,7.529 15.778,7.53 12.342,7.53 9.167,7.019 6.326,5.937 3.487,4.856 0.988,3.197 -1.049,0.954 L 0,0 1.049,-0.954 c 1.734,1.906 3.828,3.303 6.287,4.242 2.458,0.937 5.286,1.408 8.442,1.408 5.024,0.002 10.871,-1.2 17.263,-3.541 19.192,-7.012 43.204,-24.255 65.445,-48.733 13.482,-14.83 23.347,-29.152 29.827,-42.216 6.483,-13.061 9.571,-24.862 9.567,-34.61 -0.005,-8.696 -2.427,-15.717 -7.008,-20.759 -2.242,-2.464 -4.861,-4.308 -7.848,-5.55 -2.987,-1.241 -6.35,-1.878 -10.073,-1.879 -8.639,-0.007 -19.217,3.472 -31.031,10.748 -11.815,7.271 -24.858,18.316 -38.484,33.306 -14.835,16.316 -26.754,33.486 -34.946,49.405 -8.198,15.912 -12.64,30.594 -12.63,41.777 -0.001,3.509 0.433,6.669 1.299,9.416 0.866,2.748 2.158,5.081 3.89,6.987 L 0,0 Z"
             style="fill:#3c2415;fill-opacity:1;fill-rule:nonzero;stroke:none"
             id="path78"
             inkscape:connector-curvature="0" /></g></g></g><g
       id="g80"><g
         id="g82"><g
           id="g88"><g
             id="g90"><path
               d="M 123.215,137.93 C 110.303,89.749 120.985,45.023 147.07,38.032 l 0,0 c 26.083,-6.988 57.697,26.404 70.605,74.586 l 0,0 c 12.911,48.181 2.231,92.909 -23.853,99.899 l 0,0 c -2.323,0.622 -4.688,0.924 -7.082,0.924 l 0,0 c -24.484,-0.001 -51.766,-31.62 -63.525,-75.511"
               style="fill:url(#linearGradient92);stroke:none"
               id="path100"
               inkscape:connector-curvature="0" /></g></g></g></g><g
       id="g102"><g
         id="g104"
         clip-path="url(#clipPath106)"><g
           id="g110"
           transform="translate(193.8218,212.5166)"><path
             d="m 0,0 -0.367,-1.369 c 4.397,-1.18 8.336,-3.485 11.808,-6.784 5.206,-4.945 9.341,-12.15 12.158,-21.004 2.818,-8.851 4.318,-19.337 4.318,-30.786 0,-12.353 -1.744,-25.827 -5.433,-39.588 -5.827,-21.764 -15.513,-40.47 -26.702,-53.665 -5.592,-6.599 -11.557,-11.817 -17.572,-15.366 -6.017,-3.551 -12.068,-5.43 -17.88,-5.429 -2.274,0 -4.515,0.286 -6.715,0.876 -4.398,1.179 -8.336,3.484 -11.809,6.784 -5.206,4.945 -9.341,12.15 -12.158,21.005 -2.818,8.85 -4.319,19.337 -4.318,30.787 0,12.351 1.744,25.824 5.432,39.586 5.828,21.764 15.514,40.47 26.703,53.665 5.592,6.599 11.556,11.816 17.572,15.365 6.017,3.552 12.068,5.431 17.88,5.43 2.274,0 4.515,-0.286 6.716,-0.876 L 0,0 0.367,1.369 c -2.445,0.655 -4.937,0.973 -7.45,0.973 -6.429,-10e-4 -12.97,-2.074 -19.321,-5.823 -9.529,-5.629 -18.677,-15.026 -26.579,-27.151 -7.899,-12.127 -14.546,-26.991 -18.994,-43.587 -3.749,-13.993 -5.528,-27.702 -5.528,-40.32 0.003,-15.596 2.711,-29.527 7.841,-40.29 2.568,-5.38 5.746,-9.971 9.517,-13.557 3.769,-3.585 8.14,-6.159 13.028,-7.468 2.445,-0.654 4.936,-0.972 7.449,-0.972 6.43,0.001 12.97,2.074 19.321,5.823 9.529,5.629 18.677,15.026 26.579,27.15 7.899,12.127 14.545,26.992 18.993,43.587 3.749,13.995 5.528,27.703 5.528,40.323 -0.002,15.595 -2.71,29.526 -7.841,40.289 -2.567,5.38 -5.744,9.969 -9.515,13.555 -3.769,3.585 -8.14,6.16 -13.028,7.468 L 0,0 Z"
             style="fill:#3c2415;fill-opacity:1;fill-rule:nonzero;stroke:none"
             id="path112"
             inkscape:connector-curvature="0" /></g></g></g><g
       id="g114"><g
         id="g116"><g
           id="g122"><g
             id="g124"><path
               d="m 288.068,212.517 c -26.083,-6.99 -36.764,-51.718 -23.852,-99.899 l 0,0 c 12.908,-48.182 44.522,-81.574 70.605,-74.586 l 0,0 c 26.084,6.991 36.766,51.717 23.855,99.898 l 0,0 c -11.759,43.891 -39.041,75.51 -63.526,75.511 l 0,0 c -2.393,0 -4.759,-0.302 -7.082,-0.924"
               style="fill:url(#linearGradient126);stroke:none"
               id="path134"
               inkscape:connector-curvature="0" /></g></g></g></g><g
       id="g136"><g
         id="g138"
         clip-path="url(#clipPath140)"><g
           id="g144"
           transform="translate(288.0688,212.5166)"><path
             d="m 0,0 -0.367,1.369 c -4.888,-1.308 -9.259,-3.883 -13.028,-7.468 -5.656,-5.38 -9.979,-13.011 -12.905,-22.198 -2.924,-9.19 -4.45,-19.95 -4.451,-31.646 0,-12.62 1.779,-26.328 5.528,-40.323 5.931,-22.128 15.765,-41.176 27.279,-54.763 5.758,-6.793 11.939,-12.223 18.293,-15.974 6.351,-3.749 12.891,-5.822 19.321,-5.823 2.512,0 5.004,0.318 7.449,0.972 4.888,1.309 9.259,3.883 13.028,7.468 5.656,5.381 9.98,13.013 12.906,22.199 2.925,9.191 4.451,19.951 4.452,31.648 -10e-4,12.618 -1.779,26.327 -5.528,40.32 -5.932,22.128 -15.766,41.177 -27.279,54.764 -5.759,6.793 -11.94,12.223 -18.294,15.974 C 20.053,0.268 13.512,2.341 7.083,2.342 4.57,2.342 2.078,2.024 -0.367,1.369 L 0,0 0.367,-1.369 c 2.201,0.59 4.441,0.876 6.716,0.876 5.812,0.001 11.863,-1.878 17.88,-5.43 9.024,-5.321 17.929,-14.406 25.645,-26.257 7.719,-11.847 14.258,-26.45 18.63,-42.773 3.688,-13.762 5.432,-27.235 5.432,-39.586 0.003,-15.267 -2.671,-28.819 -7.565,-39.069 -2.445,-5.126 -5.44,-9.424 -8.911,-12.723 -3.473,-3.3 -7.411,-5.605 -11.809,-6.784 -2.2,-0.59 -4.441,-0.876 -6.715,-0.876 -5.812,-10e-4 -11.863,1.878 -17.88,5.429 -9.024,5.322 -17.929,14.407 -25.644,26.257 -7.72,11.848 -14.258,26.451 -18.63,42.774 -3.689,13.761 -5.433,27.235 -5.433,39.588 -0.002,15.265 2.671,28.818 7.565,39.068 2.445,5.126 5.44,9.424 8.911,12.722 3.472,3.299 7.41,5.604 11.808,6.784 L 0,0 Z"
             style="fill:#3c2415;fill-opacity:1;fill-rule:nonzero;stroke:none"
             id="path146"
             inkscape:connector-curvature="0" /></g></g></g><g
       id="g148"><g
         id="g150"><g
           id="g156"><g
             id="g158"><path
               d="m 124.957,279.061 c 0,-80.234 51.929,-145.275 115.987,-145.275 l 0,0 c 64.061,0 115.991,65.041 115.991,145.275 l 0,0 c 0,80.235 -51.93,145.277 -115.991,145.277 l 0,0 c -64.058,0 -115.987,-65.042 -115.987,-145.277"
               style="fill:url(#radialGradient160);stroke:none"
               id="path168"
               inkscape:connector-curvature="0" /></g></g></g></g><g
       id="g170"><g
         id="g172"
         clip-path="url(#clipPath174)"><g
           id="g178"
           transform="translate(356.9351,279.0615)"><path
             d="m 0,0 -1.417,0 c 0.001,-39.812 -12.89,-75.827 -33.664,-101.841 -20.782,-26.019 -49.375,-42.015 -80.909,-42.017 -31.534,0.002 -60.127,15.998 -80.909,42.017 -20.772,26.014 -33.664,62.029 -33.662,101.841 -0.002,39.811 12.89,75.828 33.662,101.842 20.782,26.019 49.375,42.015 80.909,42.017 31.534,-0.002 60.127,-15.998 80.909,-42.017 C -14.307,75.828 -1.416,39.812 -1.417,0 L 0,0 1.417,0 c -0.001,40.423 -13.075,77.045 -34.282,103.61 -21.198,26.56 -50.6,43.085 -83.125,43.084 -32.525,0.001 -61.927,-16.524 -83.124,-43.084 -21.207,-26.565 -34.28,-63.187 -34.282,-103.61 0.002,-40.423 13.075,-77.045 34.282,-103.61 21.197,-26.56 50.599,-43.084 83.124,-43.082 32.525,-0.002 61.927,16.522 83.125,43.082 C -11.658,-77.045 1.415,-40.423 1.417,0 L 0,0 Z"
             style="fill:#3c2415;fill-opacity:1;fill-rule:nonzero;stroke:none"
             id="path180"
             inkscape:connector-curvature="0" /></g><g
           id="g182"
           transform="translate(174.4976,479.7466)"><path
             d="m 0,0 c 0,-32.309 -26.191,-58.5 -58.5,-58.5 -32.309,0 -58.5,26.191 -58.5,58.5 0,32.309 26.191,58.5 58.5,58.5 C -26.191,58.5 0,32.309 0,0"
             style="fill:#8b5e3c;fill-opacity:1;fill-rule:nonzero;stroke:none"
             id="path184"
             inkscape:connector-curvature="0" /></g><g
           id="g186"
           transform="translate(307.3931,479.7466)"><path
             d="M 0,0 C 0,-32.309 26.191,-58.5 58.5,-58.5 90.809,-58.5 117,-32.309 117,0 117,32.309 90.809,58.5 58.5,58.5 26.191,58.5 0,32.309 0,0"
             style="fill:#8b5e3c;fill-opacity:1;fill-rule:nonzero;stroke:none"
             id="path188"
             inkscape:connector-curvature="0" /></g><g
           id="g190"
           transform="translate(374.1958,438.2466)"><path
             d="m 0,0 c 0,-66.232 -59.658,-119.924 -133.249,-119.924 -73.593,0 -133.251,53.692 -133.251,119.924 0,66.232 59.658,119.925 133.251,119.925 C -59.658,119.925 0,66.232 0,0"
             style="fill:#8b5e3c;fill-opacity:1;fill-rule:nonzero;stroke:none"
             id="path192"
             inkscape:connector-curvature="0" /></g></g></g><g
       id="g194"><g
         id="g196"><g
           id="g202"><g
             id="g204"><path
               d="m 107.695,438.247 c 0,-66.233 59.658,-119.924 133.252,-119.924 l 0,0 c 73.59,0 133.249,53.691 133.249,119.924 l 0,0 c 0,66.232 -59.659,119.924 -133.249,119.924 l 0,0 c -73.594,0 -133.252,-53.692 -133.252,-119.924"
               style="fill:url(#radialGradient206);stroke:none"
               id="path214"
               inkscape:connector-curvature="0" /></g></g></g></g><g
       id="g216"><g
         id="g218"
         clip-path="url(#clipPath220)"><path
           d="m 238.359,546.603 5.036,0 0,11.569 -5.036,0 0,-11.569 z"
           style="fill:#3c2415;fill-opacity:1;fill-rule:nonzero;stroke:none"
           id="path224"
           inkscape:connector-curvature="0" /><path
           d="m 238.359,523.395 5.036,0 0,13.569 -5.036,0 0,-13.569 z"
           style="fill:#3c2415;fill-opacity:1;fill-rule:nonzero;stroke:none"
           id="path226"
           inkscape:connector-curvature="0" /><path
           d="m 238.359,500.188 5.036,0 0,13.569 -5.036,0 0,-13.569 z"
           style="fill:#3c2415;fill-opacity:1;fill-rule:nonzero;stroke:none"
           id="path228"
           inkscape:connector-curvature="0" /><path
           d="m 238.359,476.978 5.036,0 0,13.566 -5.036,0 0,-13.566 z"
           style="fill:#3c2415;fill-opacity:1;fill-rule:nonzero;stroke:none"
           id="path230"
           inkscape:connector-curvature="0" /><path
           d="m 238.359,456.77 5.036,0 0,13.569 -5.036,0 0,-13.569 z"
           style="fill:#3c2415;fill-opacity:1;fill-rule:nonzero;stroke:none"
           id="path232"
           inkscape:connector-curvature="0" /><path
           d="m 238.359,433.558 5.036,0 0,13.568 -5.036,0 0,-13.568 z"
           style="fill:#3c2415;fill-opacity:1;fill-rule:nonzero;stroke:none"
           id="path234"
           inkscape:connector-curvature="0" /><path
           d="m 238.359,410.354 5.036,0 0,13.566 -5.036,0 0,-13.566 z"
           style="fill:#3c2415;fill-opacity:1;fill-rule:nonzero;stroke:none"
           id="path236"
           inkscape:connector-curvature="0" /><path
           d="m 238.359,387.142 5.036,0 0,13.569 -5.036,0 0,-13.569 z"
           style="fill:#3c2415;fill-opacity:1;fill-rule:nonzero;stroke:none"
           id="path238"
           inkscape:connector-curvature="0" /><path
           d="m 238.359,363.933 5.036,0 0,13.569 -5.036,0 0,-13.569 z"
           style="fill:#3c2415;fill-opacity:1;fill-rule:nonzero;stroke:none"
           id="path240"
           inkscape:connector-curvature="0" /><path
           d="m 238.359,340.726 5.036,0 0,13.57 -5.036,0 0,-13.57 z"
           style="fill:#3c2415;fill-opacity:1;fill-rule:nonzero;stroke:none"
           id="path242"
           inkscape:connector-curvature="0" /><path
           d="m 238.359,317.516 5.036,0 0,13.566 -5.036,0 0,-13.566 z"
           style="fill:#3c2415;fill-opacity:1;fill-rule:nonzero;stroke:none"
           id="path244"
           inkscape:connector-curvature="0" /><path
           d="m 238.359,294.308 5.036,0 0,13.569 -5.036,0 0,-13.569 z"
           style="fill:#3c2415;fill-opacity:1;fill-rule:nonzero;stroke:none"
           id="path246"
           inkscape:connector-curvature="0" /><path
           d="m 238.359,271.095 5.036,0 0,13.568 -5.036,0 0,-13.568 z"
           style="fill:#3c2415;fill-opacity:1;fill-rule:nonzero;stroke:none"
           id="path248"
           inkscape:connector-curvature="0" /><path
           d="m 238.359,247.892 5.036,0 0,13.566 -5.036,0 0,-13.566 z"
           style="fill:#3c2415;fill-opacity:1;fill-rule:nonzero;stroke:none"
           id="path250"
           inkscape:connector-curvature="0" /><path
           d="m 238.359,224.679 5.036,0 0,13.57 -5.036,0 0,-13.57 z"
           style="fill:#3c2415;fill-opacity:1;fill-rule:nonzero;stroke:none"
           id="path252"
           inkscape:connector-curvature="0" /><path
           d="m 238.359,201.47 5.036,0 0,13.57 -5.036,0 0,-13.57 z"
           style="fill:#3c2415;fill-opacity:1;fill-rule:nonzero;stroke:none"
           id="path254"
           inkscape:connector-curvature="0" /><path
           d="m 238.359,178.263 5.036,0 0,13.57 -5.036,0 0,-13.57 z"
           style="fill:#3c2415;fill-opacity:1;fill-rule:nonzero;stroke:none"
           id="path256"
           inkscape:connector-curvature="0" /><path
           d="m 238.359,155.054 5.036,0 0,13.566 -5.036,0 0,-13.566 z"
           style="fill:#3c2415;fill-opacity:1;fill-rule:nonzero;stroke:none"
           id="path258"
           inkscape:connector-curvature="0" /><path
           d="m 238.359,133.845 5.036,0 0,11.57 -5.036,0 0,-11.57 z"
           style="fill:#3c2415;fill-opacity:1;fill-rule:nonzero;stroke:none"
           id="path260"
           inkscape:connector-curvature="0" /><g
           id="g262"
           transform="translate(190.4468,458.2456)"><path
             d="M 0,0 C -15.063,-0.001 -27.271,-12.087 -27.273,-26.999 -27.271,-41.91 -15.063,-53.997 0,-53.998 15.061,-53.997 27.27,-41.91 27.271,-26.999 27.27,-12.087 15.061,-0.001 0,0"
             style="fill:#000000;fill-opacity:1;fill-rule:nonzero;stroke:none"
             id="path264"
             inkscape:connector-curvature="0" /></g><g
           id="g266"
           transform="translate(291.4458,458.2456)"><path
             d="m 0,0 c -15.063,-0.001 -27.271,-12.087 -27.271,-26.999 0,-14.911 12.208,-26.998 27.271,-26.999 15.059,0.002 27.271,12.088 27.271,26.999 C 27.271,-12.087 15.059,-0.001 0,0"
             style="fill:#000000;fill-opacity:1;fill-rule:nonzero;stroke:none"
             id="path268"
             inkscape:connector-curvature="0" /></g><g
           id="g270"
           transform="translate(290.4458,440.9668)"><path
             d="m 0,0 c -8.133,-0.001 -14.725,-6.528 -14.727,-14.58 0.002,-8.052 6.594,-14.579 14.727,-14.579 8.131,0 14.725,6.527 14.725,14.579 C 14.725,-6.527 8.131,-0.001 0,0"
             style="fill:#ffffff;fill-opacity:1;fill-rule:nonzero;stroke:none"
             id="path272"
             inkscape:connector-curvature="0" /></g><g
           id="g274"
           transform="translate(191.4468,440.9668)"><path
             d="m 0,0 c -8.135,-0.001 -14.727,-6.528 -14.728,-14.58 10e-4,-8.052 6.593,-14.579 14.728,-14.579 8.131,0 14.725,6.527 14.725,14.579 C 14.725,-6.527 8.131,-0.001 0,0"
             style="fill:#ffffff;fill-opacity:1;fill-rule:nonzero;stroke:none"
             id="path276"
             inkscape:connector-curvature="0" /></g></g></g><g
       id="g278"><g
         id="g280"
         clip-path="url(#clipPath282)"><g
           id="g286"
           transform="translate(324.6958,363.3218)"><path
             d="m 0,0 c 0,-33.303 -37.496,-60.301 -83.751,-60.301 -46.254,0 -83.75,26.998 -83.75,60.301 0,33.302 37.496,60.3 83.75,60.3 C -37.496,60.3 0,33.302 0,0"
             style="fill:#c49a6c;fill-opacity:1;fill-rule:nonzero;stroke:none"
             id="path288"
             inkscape:connector-curvature="0" /></g><g
           id="g290"
           transform="translate(324.6958,363.3218)"><path
             d="m 0,0 -1.417,0 c -10e-4,-8.058 -2.264,-15.732 -6.387,-22.754 -6.181,-10.528 -16.579,-19.573 -29.741,-25.974 -13.159,-6.401 -29.067,-10.156 -46.206,-10.155 -22.851,-0.003 -43.515,6.678 -58.392,17.394 -7.44,5.357 -13.432,11.716 -17.554,18.735 -4.124,7.022 -6.386,14.696 -6.386,22.754 0,8.058 2.262,15.731 6.386,22.753 6.181,10.529 16.579,19.573 29.74,25.974 13.159,6.401 29.068,10.156 46.206,10.155 22.852,0.003 43.516,-6.678 58.393,-17.394 7.44,-5.356 13.431,-11.716 17.554,-18.735 C -3.681,15.731 -1.418,8.058 -1.417,0 L 0,0 1.417,0 c 10e-4,8.593 -2.424,16.783 -6.776,24.189 -6.533,11.114 -17.374,20.484 -30.946,27.087 -13.574,6.602 -29.893,10.44 -47.446,10.441 -23.403,-0.003 -44.614,-6.82 -60.048,-17.928 -7.716,-5.556 -13.99,-12.191 -18.343,-19.6 -4.352,-7.406 -6.777,-15.596 -6.776,-24.189 -0.001,-8.593 2.424,-16.783 6.776,-24.189 6.533,-11.115 17.374,-20.484 30.946,-27.088 13.574,-6.602 29.893,-10.44 47.445,-10.441 23.403,0.003 44.615,6.821 60.049,17.929 7.716,5.556 13.99,12.19 18.343,19.6 C -1.007,-16.783 1.418,-8.593 1.417,0 L 0,0 Z"
             style="fill:#3c2415;fill-opacity:1;fill-rule:nonzero;stroke:none"
             id="path292"
             inkscape:connector-curvature="0" /></g><g
           id="g294"
           transform="translate(275.7563,382.4458)"><path
             d="m 0,0 c 0,-13.841 -15.586,-25.062 -34.81,-25.062 -19.224,0 -34.808,11.221 -34.808,25.062 0,13.842 15.584,25.062 34.808,25.062 C -15.586,25.062 0,13.842 0,0"
             style="fill:#3c2415;fill-opacity:1;fill-rule:nonzero;stroke:none"
             id="path296"
             inkscape:connector-curvature="0" /></g><g
           id="g298"
           transform="translate(275.7563,382.4458)"><path
             d="m 0,0 -1.417,0 c -10e-4,-3.192 -0.894,-6.231 -2.541,-9.037 -2.467,-4.205 -6.659,-7.869 -12.01,-10.47 -5.347,-2.602 -11.84,-4.139 -18.842,-4.138 -9.336,-0.002 -17.765,2.735 -23.785,7.074 -3.011,2.168 -5.42,4.73 -7.066,7.534 -1.646,2.806 -2.539,5.845 -2.54,9.037 10e-4,3.193 0.894,6.231 2.54,9.038 2.467,4.205 6.659,7.868 12.01,10.469 5.347,2.602 11.839,4.139 18.841,4.138 9.336,0.002 17.765,-2.734 23.786,-7.074 3.012,-2.168 5.42,-4.73 7.066,-7.533 C -2.311,6.231 -1.418,3.193 -1.417,0 L 0,0 1.417,0 c 10e-4,3.729 -1.054,7.283 -2.931,10.474 -2.817,4.79 -7.453,8.779 -13.214,11.583 -5.763,2.802 -12.666,4.422 -20.082,4.422 -9.888,-0.002 -18.863,-2.875 -25.441,-7.607 -3.288,-2.368 -5.978,-5.205 -7.854,-8.399 -1.876,-3.19 -2.932,-6.744 -2.931,-10.473 -0.001,-3.728 1.055,-7.282 2.931,-10.473 2.817,-4.79 7.453,-8.78 13.213,-11.583 5.764,-2.803 12.666,-4.423 20.082,-4.423 9.888,0.002 18.864,2.876 25.442,7.607 3.288,2.368 5.978,5.205 7.854,8.399 C 0.363,-7.282 1.418,-3.728 1.417,0 L 0,0 Z"
             style="fill:#3c2415;fill-opacity:1;fill-rule:nonzero;stroke:none"
             id="path300"
             inkscape:connector-curvature="0" /></g><g
           id="g302"
           transform="translate(239.5293,356.6948)"><path
             d="m 0,0 0,-14.147 2.835,0 0,14.147"
             style="fill:#3c2415;fill-opacity:1;fill-rule:nonzero;stroke:none"
             id="path304"
             inkscape:connector-curvature="0" /></g><g
           id="g306"
           transform="translate(239.5293,347.4204)"><path
             d="m 0,0 c 0,-1.462 -0.411,-2.936 -1.191,-4.348 -1.167,-2.116 -3.177,-4.073 -5.748,-5.485 -2.57,-1.413 -5.689,-2.281 -9.049,-2.281 -4.677,-0.007 -8.86,0.656 -11.691,2.03 -1.419,0.684 -2.488,1.525 -3.196,2.505 -0.705,0.985 -1.093,2.114 -1.099,3.579 l -2.835,0 c -0.005,-1.995 0.581,-3.788 1.637,-5.239 1.589,-2.186 4.096,-3.581 7.05,-4.46 2.965,-0.878 6.433,-1.248 10.134,-1.25 5.134,0.003 9.782,1.758 13.193,4.481 1.704,1.363 3.103,2.973 4.085,4.748 0.981,1.774 1.545,3.722 1.545,5.72 L 0,0 Z"
             style="fill:#3c2415;fill-opacity:1;fill-rule:nonzero;stroke:none"
             id="path308"
             inkscape:connector-curvature="0" /></g><g
           id="g310"
           transform="translate(274.3369,343.4204)"><path
             d="m 0,0 c -0.005,-1.465 -0.394,-2.594 -1.099,-3.579 -1.053,-1.467 -2.96,-2.634 -5.56,-3.402 -2.591,-0.771 -5.82,-1.134 -9.328,-1.133 -4.478,-0.002 -8.532,1.548 -11.421,3.86 -1.445,1.154 -2.595,2.495 -3.374,3.906 -0.78,1.412 -1.191,2.886 -1.191,4.348 l -2.835,0 c 0,-1.998 0.564,-3.946 1.545,-5.72 1.475,-2.662 3.879,-4.954 6.863,-6.597 2.985,-1.641 6.565,-2.631 10.413,-2.632 4.935,0.007 9.454,0.65 12.922,2.311 1.73,0.834 3.21,1.943 4.263,3.398 C 2.254,-3.788 2.84,-1.995 2.835,0 L 0,0 Z"
             style="fill:#3c2415;fill-opacity:1;fill-rule:nonzero;stroke:none"
             id="path312"
             inkscape:connector-curvature="0" /></g></g></g><g
       id="g314"><g
         id="g316"
         clip-path="url(#clipPath318)"><g
           id="g322"
           transform="translate(124.2593,514.2563)"><path
             d="m 0,0 c -14.867,3.559 -30.617,-9.006 -35.18,-28.065 -4.562,-19.059 3.791,-37.395 18.657,-40.954 l 0.189,-0.039 C -14.813,-45.1 -5.479,-23.027 9.414,-4.868 6.7,-2.538 3.537,-0.847 0,0"
             style="fill:#603913;fill-opacity:1;fill-rule:nonzero;stroke:none"
             id="path324"
             inkscape:connector-curvature="0" /></g><g
           id="g326"
           transform="translate(124.2593,514.2563)"><path
             d="M 0,0 0.33,1.378 C -1.478,1.811 -3.3,2.02 -5.113,2.02 c -7.033,-0.002 -13.871,-3.132 -19.443,-8.39 -5.576,-5.261 -9.919,-12.667 -12.002,-21.365 -0.87,-3.636 -1.286,-7.249 -1.286,-10.751 0.002,-7.706 2.007,-14.872 5.633,-20.538 3.62,-5.662 8.903,-9.83 15.357,-11.373 l 0.024,-0.006 0.213,-0.043 1.595,-0.325 0.103,1.624 c 1.502,23.644 10.709,45.43 25.429,63.38 l 0.879,1.072 -1.052,0.902 C 7.469,-1.329 4.098,0.477 0.33,1.378 L 0,0 -0.33,-1.378 C 2.976,-2.17 5.931,-3.747 8.491,-5.943 l 0.923,1.075 -1.096,0.899 C -6.747,-22.337 -16.208,-44.696 -17.749,-68.968 l 1.415,-0.09 0.283,1.389 -0.19,0.039 -0.282,-1.389 0.33,1.378 c -5.659,1.357 -10.328,4.995 -13.631,10.145 -3.297,5.146 -5.186,11.796 -5.185,19.01 0,3.278 0.389,6.671 1.208,10.091 1.957,8.183 6.044,15.111 11.19,19.963 5.149,4.857 11.324,7.619 17.498,7.618 1.595,0 3.194,-0.184 4.783,-0.564 L 0,0 Z"
             style="fill:#3c2415;fill-opacity:1;fill-rule:nonzero;stroke:none"
             id="path328"
             inkscape:connector-curvature="0" /></g><g
           id="g330"
           transform="translate(392.811,486.1914)"><path
             d="m 0,0 c -4.563,19.059 -20.313,31.624 -35.18,28.065 -3.537,-0.847 -6.699,-2.538 -9.412,-4.868 14.893,-18.158 24.227,-40.231 25.748,-64.19 l 0.188,0.039 C -3.789,-37.395 4.563,-19.059 0,0"
             style="fill:#603913;fill-opacity:1;fill-rule:nonzero;stroke:none"
             id="path332"
             inkscape:connector-curvature="0" /></g><g
           id="g334"
           transform="translate(392.811,486.1914)"><path
             d="m 0,0 1.378,0.33 c -2.083,8.698 -6.426,16.104 -12.002,21.365 -5.571,5.258 -12.409,8.388 -19.443,8.39 -1.812,0 -3.635,-0.209 -5.443,-0.642 -3.768,-0.901 -7.138,-2.707 -10.005,-5.171 l -1.051,-0.902 0.878,-1.072 c 14.72,-17.949 23.927,-39.736 25.43,-63.381 l 0.103,-1.626 1.807,0.371 0.022,0.005 c 6.455,1.543 11.738,5.712 15.358,11.373 3.625,5.666 5.631,12.832 5.632,20.538 0,3.502 -0.415,7.116 -1.286,10.752 L 0,0 -1.378,-0.33 c 0.818,-3.421 1.208,-6.815 1.208,-10.092 0.001,-7.214 -1.888,-13.864 -5.185,-19.009 -3.303,-5.15 -7.972,-8.788 -13.631,-10.145 l 0.33,-1.378 -0.286,1.388 -0.187,-0.038 0.285,-1.389 1.415,0.09 c -1.541,24.272 -11.002,46.632 -26.067,64.999 l -1.096,-0.899 0.924,-1.075 c 2.558,2.196 5.512,3.773 8.818,4.565 1.59,0.38 3.188,0.563 4.783,0.563 6.174,0.002 12.349,-2.76 17.498,-7.617 5.146,-4.852 9.233,-11.78 11.191,-19.963 L 0,0 Z"
             style="fill:#3c2415;fill-opacity:1;fill-rule:nonzero;stroke:none"
             id="path336"
             inkscape:connector-curvature="0" /></g><g
           id="g338"
           transform="translate(365.8931,538.2466)"><path
             d="m 0,0 0,1.417 c -13.41,10e-4 -25.801,-4.411 -35.785,-11.858 l 0.847,-1.136 0.902,1.093 c -23.968,19.774 -55.883,31.826 -90.91,31.826 -35.026,0 -66.943,-12.053 -90.912,-31.826 l 0.902,-1.094 0.847,1.137 c -9.982,7.446 -22.375,11.859 -35.786,11.858 -33.091,0 -59.916,-26.825 -59.917,-59.917 0.003,-30.653 23.02,-55.912 52.719,-59.472 l 0.168,1.408 -1.401,-0.215 c 4.542,-29.582 20.91,-55.736 44.618,-74.474 23.71,-18.741 54.772,-30.088 88.762,-30.088 33.988,0 65.05,11.347 88.76,30.088 23.708,18.738 40.076,44.892 44.618,74.474 l -1.401,0.215 0.169,-1.408 c 29.699,3.561 52.715,28.819 52.717,59.472 C 59.917,-25.408 33.092,1.417 0,1.417 L 0,0 0,-1.417 C 15.768,-1.418 30.029,-7.804 40.363,-18.136 50.696,-28.471 57.082,-42.732 57.083,-58.5 57.085,-87.701 35.147,-111.767 6.862,-115.157 l -1.069,-0.128 -0.163,-1.064 c -4.423,-28.811 -20.371,-54.337 -43.574,-72.68 -23.202,-18.341 -53.646,-29.478 -87.002,-29.477 -33.357,-0.001 -63.801,11.136 -87.003,29.477 -23.204,18.343 -39.152,43.869 -43.575,72.68 l -0.164,1.064 -1.068,0.128 c -28.284,3.39 -50.224,27.456 -50.221,56.657 0,15.768 6.387,30.029 16.719,40.364 10.334,10.332 24.596,16.718 40.363,16.719 12.786,-10e-4 24.576,-4.201 34.092,-11.297 l 0.891,-0.664 0.858,0.707 c 23.453,19.349 54.735,31.179 89.108,31.178 34.373,10e-4 65.654,-11.829 89.107,-31.177 l 0.858,-0.708 0.891,0.665 C -24.574,-5.617 -12.785,-1.418 0,-1.417 L 0,0 Z"
             style="fill:#3c2415;fill-opacity:1;fill-rule:nonzero;stroke:none"
             id="path340"
             inkscape:connector-curvature="0" /></g></g></g><g
       id="g342"><g
         id="g344"><g
           id="g350"><g
             id="g352"><path
               d="m 548.582,320.19 c -39.191,-43.113 -48.168,-82.133 -32.386,-99.492 l 0,0 c 15.781,-17.359 50.346,-6.486 89.536,36.625 l 0,0 c 39.19,43.11 58.169,92.132 42.387,109.492 l 0,0 c -3.772,4.149 -9.184,6.114 -15.778,6.113 l 0,0 c -20.995,-0.003 -53.935,-19.933 -83.759,-52.738"
               style="fill:url(#linearGradient354);stroke:none"
               id="path362"
               inkscape:connector-curvature="0" /></g></g></g></g><g
       id="g364"><g
         id="g366"
         clip-path="url(#clipPath368)"><g
           id="g372"
           transform="translate(648.1187,366.8145)"><path
             d="m 0,0 -1.049,-0.954 c 1.733,-1.905 3.024,-4.238 3.89,-6.986 0.866,-2.747 1.3,-5.906 1.3,-9.416 0.009,-11.183 -4.434,-25.865 -12.631,-41.777 -8.192,-15.919 -20.112,-33.088 -34.946,-49.405 -13.626,-14.99 -26.669,-26.035 -38.485,-33.306 -11.814,-7.276 -22.392,-10.755 -31.031,-10.748 -3.723,0.001 -7.086,0.638 -10.073,1.879 -2.989,1.242 -5.607,3.086 -7.849,5.55 -4.581,5.042 -7.004,12.063 -7.008,20.759 -0.004,9.748 3.083,21.549 9.568,34.61 6.48,13.063 16.344,27.386 29.827,42.216 14.833,16.317 30.437,29.423 44.89,38.422 7.226,4.5 14.163,7.972 20.556,10.311 6.392,2.341 12.238,3.543 17.263,3.541 3.156,0 5.984,-0.471 8.442,-1.408 2.459,-0.939 4.554,-2.336 6.287,-4.242 L 0,0 1.049,0.954 c -2.037,2.243 -4.536,3.902 -7.375,4.983 -2.84,1.082 -6.016,1.593 -9.452,1.593 -5.473,-0.001 -11.617,-1.291 -18.238,-3.713 -19.845,-7.274 -44.072,-24.755 -66.569,-49.488 -13.629,-14.994 -23.645,-29.515 -30.269,-42.863 -6.621,-13.349 -9.859,-25.527 -9.863,-35.87 -0.005,-9.209 2.597,-17.005 7.745,-22.665 2.509,-2.761 5.491,-4.864 8.859,-6.262 3.368,-1.399 7.115,-2.096 11.161,-2.095 9.398,0.007 20.406,3.72 32.517,11.168 12.11,7.455 25.33,18.67 39.097,33.814 14.991,16.491 27.044,33.84 35.368,50.014 8.319,16.18 12.935,31.161 12.945,43.074 0,3.741 -0.459,7.186 -1.43,10.268 -0.97,3.08 -2.457,5.799 -4.496,8.042 L 0,0 Z"
             style="fill:#000000;fill-opacity:1;fill-rule:nonzero;stroke:none"
             id="path374"
             inkscape:connector-curvature="0" /></g></g></g><g
       id="g376"><g
         id="g378"><g
           id="g384"><g
             id="g386"><path
               d="m 797.552,366.815 c -15.781,-17.36 3.195,-66.382 42.386,-109.492 l 0,0 c 39.19,-43.111 73.755,-53.984 89.535,-36.625 l 0,0 c 15.782,17.359 6.805,56.379 -32.385,99.492 l 0,0 c -29.823,32.805 -62.763,52.735 -83.758,52.738 l 0,0 c -6.594,10e-4 -12.006,-1.964 -15.778,-6.113"
               style="fill:url(#linearGradient388);stroke:none"
               id="path396"
               inkscape:connector-curvature="0" /></g></g></g></g><g
       id="g398"><g
         id="g400"
         clip-path="url(#clipPath402)"><g
           id="g406"
           transform="translate(797.5522,366.8145)"><path
             d="m 0,0 -1.049,0.954 c -2.039,-2.243 -3.526,-4.962 -4.496,-8.043 -0.971,-3.081 -1.43,-6.526 -1.43,-10.267 0.01,-11.913 4.626,-26.894 12.945,-43.074 8.324,-16.174 20.377,-33.523 35.368,-50.014 13.767,-15.144 26.986,-26.359 39.097,-33.814 12.11,-7.448 23.117,-11.161 32.516,-11.168 4.045,-0.001 7.792,0.696 11.16,2.095 3.368,1.398 6.35,3.501 8.859,6.262 5.148,5.66 7.749,13.457 7.745,22.665 -0.004,10.343 -3.242,22.521 -9.862,35.87 -6.624,13.348 -16.64,27.869 -30.269,42.863 C 85.592,-29.181 69.815,-15.917 55.095,-6.75 47.733,-2.166 40.635,1.395 34.015,3.817 27.395,6.239 21.251,7.529 15.778,7.53 12.342,7.53 9.166,7.019 6.326,5.937 3.487,4.856 0.988,3.197 -1.049,0.954 L 0,0 1.049,-0.953 c 1.733,1.905 3.828,3.302 6.287,4.241 2.458,0.937 5.286,1.408 8.442,1.408 5.024,0.002 10.87,-1.2 17.263,-3.541 19.191,-7.012 43.204,-24.255 65.445,-48.733 13.482,-14.83 23.346,-29.152 29.827,-42.216 6.483,-13.061 9.571,-24.862 9.567,-34.61 -0.005,-8.696 -2.427,-15.717 -7.008,-20.759 -2.242,-2.464 -4.86,-4.308 -7.849,-5.55 -2.987,-1.241 -6.349,-1.878 -10.072,-1.879 -8.638,-0.007 -19.217,3.472 -31.031,10.748 -11.815,7.271 -24.858,18.316 -38.484,33.306 -14.835,16.316 -26.754,33.486 -34.946,49.405 -8.198,15.912 -12.64,30.594 -12.631,41.777 0,3.509 0.434,6.669 1.3,9.416 0.866,2.748 2.157,5.081 3.89,6.986 L 0,0 Z"
             style="fill:#000000;fill-opacity:1;fill-rule:nonzero;stroke:none"
             id="path408"
             inkscape:connector-curvature="0" /></g></g></g><g
       id="g410"><g
         id="g412"><g
           id="g418"><g
             id="g420"><path
               d="M 605.104,137.93 C 592.193,89.749 602.875,45.023 628.96,38.032 l 0,0 c 26.082,-6.988 57.697,26.404 70.605,74.586 l 0,0 c 12.911,48.181 2.231,92.909 -23.854,99.899 l 0,0 c -2.323,0.622 -4.688,0.924 -7.082,0.924 l 0,0 c -24.483,-0.001 -51.766,-31.62 -63.525,-75.511"
               style="fill:url(#linearGradient422);stroke:none"
               id="path430"
               inkscape:connector-curvature="0" /></g></g></g></g><g
       id="g432"><g
         id="g434"
         clip-path="url(#clipPath436)"><g
           id="g440"
           transform="translate(675.7114,212.5166)"><path
             d="m 0,0 -0.367,-1.369 c 4.397,-1.18 8.336,-3.485 11.808,-6.784 5.206,-4.945 9.341,-12.15 12.158,-21.004 2.818,-8.851 4.318,-19.337 4.318,-30.786 0,-12.353 -1.744,-25.827 -5.433,-39.588 -5.828,-21.764 -15.513,-40.47 -26.702,-53.665 -5.593,-6.599 -11.557,-11.817 -17.572,-15.366 -6.018,-3.551 -12.068,-5.43 -17.88,-5.429 -2.274,0 -4.515,0.286 -6.715,0.876 -4.398,1.179 -8.337,3.484 -11.809,6.784 -5.206,4.945 -9.341,12.15 -12.159,21.005 -2.818,8.85 -4.318,19.337 -4.318,30.787 0,12.351 1.744,25.824 5.433,39.586 5.828,21.764 15.514,40.47 26.703,53.665 5.592,6.599 11.556,11.816 17.571,15.365 6.018,3.552 12.069,5.431 17.882,5.43 2.273,0 4.515,-0.286 6.715,-0.876 L 0,0 0.367,1.369 c -2.445,0.655 -4.937,0.973 -7.449,0.973 -6.431,-10e-4 -12.971,-2.074 -19.322,-5.823 -9.53,-5.629 -18.677,-15.026 -26.579,-27.151 -7.9,-12.127 -14.546,-26.991 -18.994,-43.587 -3.749,-13.993 -5.528,-27.702 -5.528,-40.32 0.003,-15.596 2.711,-29.527 7.842,-40.29 2.566,-5.38 5.745,-9.971 9.516,-13.557 3.768,-3.585 8.14,-6.159 13.028,-7.468 2.444,-0.654 4.936,-0.972 7.449,-0.972 6.43,0.001 12.97,2.074 19.321,5.823 9.529,5.629 18.676,15.026 26.578,27.15 7.9,12.127 14.546,26.992 18.994,43.587 3.749,13.995 5.528,27.703 5.528,40.323 -0.003,15.595 -2.71,29.526 -7.841,40.289 -2.567,5.38 -5.745,9.969 -9.515,13.555 -3.769,3.585 -8.14,6.16 -13.028,7.468 L 0,0 Z"
             style="fill:#000000;fill-opacity:1;fill-rule:nonzero;stroke:none"
             id="path442"
             inkscape:connector-curvature="0" /></g></g></g><g
       id="g444"><g
         id="g446"><g
           id="g452"><g
             id="g454"><path
               d="m 769.958,212.517 c -26.084,-6.99 -36.764,-51.718 -23.853,-99.899 l 0,0 C 759.013,64.436 790.628,31.044 816.71,38.032 l 0,0 c 26.085,6.991 36.767,51.717 23.856,99.898 l 0,0 c -11.759,43.891 -39.042,75.51 -63.526,75.511 l 0,0 c -2.394,0 -4.759,-0.302 -7.082,-0.924"
               style="fill:url(#linearGradient456);stroke:none"
               id="path464"
               inkscape:connector-curvature="0" /></g></g></g></g><g
       id="g466"><g
         id="g468"
         clip-path="url(#clipPath470)"><g
           id="g474"
           transform="translate(769.9585,212.5166)"><path
             d="m 0,0 -0.367,1.369 c -4.888,-1.308 -9.259,-3.883 -13.028,-7.468 -5.656,-5.38 -9.979,-13.011 -12.905,-22.198 -2.924,-9.19 -4.451,-19.95 -4.451,-31.646 0,-12.62 1.778,-26.328 5.528,-40.323 5.931,-22.128 15.766,-41.176 27.279,-54.763 5.758,-6.793 11.939,-12.223 18.293,-15.974 6.351,-3.749 12.891,-5.822 19.321,-5.823 2.513,0 5.005,0.318 7.449,0.972 4.888,1.309 9.26,3.883 13.028,7.468 5.657,5.381 9.98,13.013 12.906,22.199 2.925,9.191 4.451,19.951 4.452,31.648 0,12.618 -1.779,26.327 -5.528,40.32 -5.932,22.128 -15.766,41.177 -27.28,54.764 C 38.938,-12.662 32.758,-7.232 26.404,-3.481 20.053,0.268 13.513,2.341 7.082,2.342 4.57,2.342 2.077,2.024 -0.367,1.369 L 0,0 0.367,-1.369 c 2.2,0.59 4.442,0.876 6.715,0.876 5.813,0.001 11.863,-1.878 17.881,-5.43 9.024,-5.321 17.929,-14.406 25.645,-26.257 7.719,-11.847 14.257,-26.45 18.63,-42.773 3.688,-13.762 5.433,-27.235 5.432,-39.586 0.003,-15.267 -2.671,-28.819 -7.566,-39.069 -2.444,-5.126 -5.44,-9.424 -8.91,-12.723 -3.472,-3.3 -7.412,-5.605 -11.809,-6.784 -2.2,-0.59 -4.442,-0.876 -6.715,-0.876 -5.812,-10e-4 -11.863,1.878 -17.88,5.429 -9.024,5.322 -17.929,14.407 -25.644,26.257 -7.72,11.848 -14.258,26.451 -18.63,42.774 -3.689,13.761 -5.433,27.235 -5.433,39.588 -0.003,15.265 2.671,28.818 7.565,39.068 2.445,5.126 5.44,9.424 8.911,12.722 3.472,3.299 7.411,5.604 11.808,6.784 L 0,0 Z"
             style="fill:#000000;fill-opacity:1;fill-rule:nonzero;stroke:none"
             id="path476"
             inkscape:connector-curvature="0" /></g></g></g><g
       id="g478"><g
         id="g480"><g
           id="g486"><g
             id="g488"><path
               d="m 606.847,279.061 c 0,-80.234 51.929,-145.275 115.987,-145.275 l 0,0 c 64.06,0 115.99,65.041 115.99,145.275 l 0,0 c 0,80.235 -51.93,145.277 -115.99,145.277 l 0,0 c -64.058,0 -115.987,-65.042 -115.987,-145.277"
               style="fill:url(#radialGradient490);stroke:none"
               id="path498"
               inkscape:connector-curvature="0" /></g></g></g></g><g
       id="g500"><g
         id="g502"
         clip-path="url(#clipPath504)"><g
           id="g508"
           transform="translate(838.8247,279.0615)"><path
             d="m 0,0 -1.417,0 c 0.002,-39.812 -12.891,-75.827 -33.663,-101.841 -20.783,-26.019 -49.376,-42.015 -80.91,-42.017 -31.534,0.002 -60.126,15.998 -80.908,42.017 -20.774,26.014 -33.665,62.029 -33.664,101.841 -10e-4,39.811 12.89,75.828 33.664,101.842 20.782,26.019 49.374,42.015 80.908,42.017 31.534,-0.002 60.127,-15.998 80.91,-42.017 C -14.308,75.828 -1.415,39.812 -1.417,0 L 0,0 1.417,0 c -0.002,40.423 -13.075,77.045 -34.282,103.61 -21.198,26.56 -50.6,43.085 -83.125,43.084 -32.525,0.001 -61.927,-16.524 -83.124,-43.084 C -220.32,77.045 -233.394,40.423 -233.396,0 c 0.002,-40.423 13.076,-77.045 34.282,-103.61 21.197,-26.56 50.599,-43.084 83.124,-43.082 32.525,-0.002 61.927,16.522 83.125,43.082 C -11.658,-77.045 1.415,-40.423 1.417,0 L 0,0 Z"
             style="fill:#000000;fill-opacity:1;fill-rule:nonzero;stroke:none"
             id="path510"
             inkscape:connector-curvature="0" /></g><g
           id="g512"
           transform="translate(656.3872,479.7466)"><path
             d="m 0,0 c 0,-32.309 -26.191,-58.5 -58.5,-58.5 -32.309,0 -58.5,26.191 -58.5,58.5 0,32.309 26.191,58.5 58.5,58.5 C -26.191,58.5 0,32.309 0,0"
             style="fill:#41393d;fill-opacity:1;fill-rule:nonzero;stroke:none"
             id="path514"
             inkscape:connector-curvature="0" /></g><g
           id="g516"
           transform="translate(789.2827,479.7466)"><path
             d="M 0,0 C 0,-32.309 26.191,-58.5 58.5,-58.5 90.809,-58.5 117,-32.309 117,0 117,32.309 90.809,58.5 58.5,58.5 26.191,58.5 0,32.309 0,0"
             style="fill:#41393d;fill-opacity:1;fill-rule:nonzero;stroke:none"
             id="path518"
             inkscape:connector-curvature="0" /></g><g
           id="g520"
           transform="translate(856.0854,438.2466)"><path
             d="m 0,0 c 0,-66.232 -59.658,-119.924 -133.249,-119.924 -73.593,0 -133.251,53.692 -133.251,119.924 0,66.232 59.658,119.925 133.251,119.925 C -59.658,119.925 0,66.232 0,0"
             style="fill:#41393d;fill-opacity:1;fill-rule:nonzero;stroke:none"
             id="path522"
             inkscape:connector-curvature="0" /></g></g></g><g
       id="g524"><g
         id="g526"><g
           id="g532"><g
             id="g534"><path
               d="m 589.585,438.247 c 0,-66.233 59.658,-119.924 133.252,-119.924 l 0,0 c 73.59,0 133.248,53.691 133.248,119.924 l 0,0 c 0,66.232 -59.658,119.924 -133.248,119.924 l 0,0 c -73.594,0 -133.252,-53.692 -133.252,-119.924"
               style="fill:url(#radialGradient536);stroke:none"
               id="path544"
               inkscape:connector-curvature="0" /></g></g></g></g><g
       id="g546"><g
         id="g548"
         clip-path="url(#clipPath550)"><path
           d="m 720.249,546.603 5.036,0 0,11.569 -5.036,0 0,-11.569 z"
           style="fill:#000000;fill-opacity:1;fill-rule:nonzero;stroke:none"
           id="path554"
           inkscape:connector-curvature="0" /><path
           d="m 720.249,523.395 5.036,0 0,13.569 -5.036,0 0,-13.569 z"
           style="fill:#000000;fill-opacity:1;fill-rule:nonzero;stroke:none"
           id="path556"
           inkscape:connector-curvature="0" /><path
           d="m 720.249,500.188 5.036,0 0,13.569 -5.036,0 0,-13.569 z"
           style="fill:#000000;fill-opacity:1;fill-rule:nonzero;stroke:none"
           id="path558"
           inkscape:connector-curvature="0" /><path
           d="m 720.249,476.978 5.036,0 0,13.566 -5.036,0 0,-13.566 z"
           style="fill:#000000;fill-opacity:1;fill-rule:nonzero;stroke:none"
           id="path560"
           inkscape:connector-curvature="0" /><path
           d="m 720.249,456.77 5.036,0 0,13.569 -5.036,0 0,-13.569 z"
           style="fill:#000000;fill-opacity:1;fill-rule:nonzero;stroke:none"
           id="path562"
           inkscape:connector-curvature="0" /><path
           d="m 720.249,433.558 5.036,0 0,13.568 -5.036,0 0,-13.568 z"
           style="fill:#000000;fill-opacity:1;fill-rule:nonzero;stroke:none"
           id="path564"
           inkscape:connector-curvature="0" /><path
           d="m 720.249,410.354 5.036,0 0,13.566 -5.036,0 0,-13.566 z"
           style="fill:#000000;fill-opacity:1;fill-rule:nonzero;stroke:none"
           id="path566"
           inkscape:connector-curvature="0" /><path
           d="m 720.249,387.142 5.036,0 0,13.569 -5.036,0 0,-13.569 z"
           style="fill:#000000;fill-opacity:1;fill-rule:nonzero;stroke:none"
           id="path568"
           inkscape:connector-curvature="0" /><path
           d="m 720.249,363.933 5.036,0 0,13.569 -5.036,0 0,-13.569 z"
           style="fill:#000000;fill-opacity:1;fill-rule:nonzero;stroke:none"
           id="path570"
           inkscape:connector-curvature="0" /><path
           d="m 720.249,340.726 5.036,0 0,13.57 -5.036,0 0,-13.57 z"
           style="fill:#000000;fill-opacity:1;fill-rule:nonzero;stroke:none"
           id="path572"
           inkscape:connector-curvature="0" /><path
           d="m 720.249,317.516 5.036,0 0,13.566 -5.036,0 0,-13.566 z"
           style="fill:#000000;fill-opacity:1;fill-rule:nonzero;stroke:none"
           id="path574"
           inkscape:connector-curvature="0" /><path
           d="m 720.249,294.308 5.036,0 0,13.569 -5.036,0 0,-13.569 z"
           style="fill:#000000;fill-opacity:1;fill-rule:nonzero;stroke:none"
           id="path576"
           inkscape:connector-curvature="0" /><path
           d="m 720.249,271.095 5.036,0 0,13.568 -5.036,0 0,-13.568 z"
           style="fill:#000000;fill-opacity:1;fill-rule:nonzero;stroke:none"
           id="path578"
           inkscape:connector-curvature="0" /><path
           d="m 720.249,247.892 5.036,0 0,13.566 -5.036,0 0,-13.566 z"
           style="fill:#000000;fill-opacity:1;fill-rule:nonzero;stroke:none"
           id="path580"
           inkscape:connector-curvature="0" /><path
           d="m 720.249,224.679 5.036,0 0,13.57 -5.036,0 0,-13.57 z"
           style="fill:#000000;fill-opacity:1;fill-rule:nonzero;stroke:none"
           id="path582"
           inkscape:connector-curvature="0" /><path
           d="m 720.249,201.47 5.036,0 0,13.57 -5.036,0 0,-13.57 z"
           style="fill:#000000;fill-opacity:1;fill-rule:nonzero;stroke:none"
           id="path584"
           inkscape:connector-curvature="0" /><path
           d="m 720.249,178.263 5.036,0 0,13.57 -5.036,0 0,-13.57 z"
           style="fill:#000000;fill-opacity:1;fill-rule:nonzero;stroke:none"
           id="path586"
           inkscape:connector-curvature="0" /><path
           d="m 720.249,155.054 5.036,0 0,13.566 -5.036,0 0,-13.566 z"
           style="fill:#000000;fill-opacity:1;fill-rule:nonzero;stroke:none"
           id="path588"
           inkscape:connector-curvature="0" /><path
           d="m 720.249,133.845 5.036,0 0,11.57 -5.036,0 0,-11.57 z"
           style="fill:#000000;fill-opacity:1;fill-rule:nonzero;stroke:none"
           id="path590"
           inkscape:connector-curvature="0" /><g
           id="g592"
           transform="translate(672.3364,458.2456)"><path
             d="M 0,0 C -15.063,-0.001 -27.271,-12.087 -27.273,-26.999 -27.271,-41.91 -15.063,-53.997 0,-53.998 15.061,-53.997 27.27,-41.91 27.271,-26.999 27.27,-12.087 15.061,-0.001 0,0"
             style="fill:#000000;fill-opacity:1;fill-rule:nonzero;stroke:none"
             id="path594"
             inkscape:connector-curvature="0" /></g><g
           id="g596"
           transform="translate(773.3354,458.2456)"><path
             d="m 0,0 c -15.063,-0.001 -27.271,-12.087 -27.271,-26.999 0,-14.911 12.208,-26.998 27.271,-26.999 15.059,0.002 27.271,12.088 27.271,26.999 C 27.271,-12.087 15.059,-0.001 0,0"
             style="fill:#000000;fill-opacity:1;fill-rule:nonzero;stroke:none"
             id="path598"
             inkscape:connector-curvature="0" /></g><g
           id="g600"
           transform="translate(772.3354,440.9668)"><path
             d="m 0,0 c -8.133,-0.001 -14.725,-6.528 -14.727,-14.58 0.002,-8.052 6.594,-14.579 14.727,-14.579 8.131,0 14.725,6.527 14.725,14.579 C 14.725,-6.527 8.131,-0.001 0,0"
             style="fill:#ffffff;fill-opacity:1;fill-rule:nonzero;stroke:none"
             id="path602"
             inkscape:connector-curvature="0" /></g><g
           id="g604"
           transform="translate(673.3364,440.9668)"><path
             d="m 0,0 c -8.135,-0.001 -14.727,-6.528 -14.728,-14.58 10e-4,-8.052 6.593,-14.579 14.728,-14.579 8.131,0 14.725,6.527 14.725,14.579 C 14.725,-6.527 8.131,-0.001 0,0"
             style="fill:#ffffff;fill-opacity:1;fill-rule:nonzero;stroke:none"
             id="path606"
             inkscape:connector-curvature="0" /></g></g></g><g
       id="g608"><g
         id="g610"
         clip-path="url(#clipPath612)"><g
           id="g616"
           transform="translate(806.5854,363.3218)"><path
             d="m 0,0 c 0,-33.303 -37.496,-60.301 -83.751,-60.301 -46.254,0 -83.75,26.998 -83.75,60.301 0,33.302 37.496,60.3 83.75,60.3 C -37.496,60.3 0,33.302 0,0"
             style="fill:#cbc37b;fill-opacity:1;fill-rule:nonzero;stroke:none"
             id="path618"
             inkscape:connector-curvature="0" /></g><g
           id="g620"
           transform="translate(806.5854,363.3218)"><path
             d="m 0,0 -1.417,0 c -0.002,-8.058 -2.264,-15.732 -6.387,-22.754 -6.181,-10.528 -16.579,-19.573 -29.741,-25.974 -13.159,-6.401 -29.067,-10.156 -46.206,-10.155 -22.852,-0.003 -43.515,6.678 -58.392,17.394 -7.44,5.357 -13.431,11.716 -17.554,18.735 -4.123,7.022 -6.385,14.696 -6.387,22.754 0.002,8.058 2.264,15.731 6.387,22.753 6.181,10.529 16.579,19.573 29.741,25.974 13.158,6.401 29.066,10.156 46.205,10.155 22.852,0.003 43.516,-6.678 58.393,-17.394 7.44,-5.356 13.431,-11.716 17.554,-18.735 C -3.681,15.731 -1.419,8.058 -1.417,0 L 0,0 1.417,0 c 0.002,8.593 -2.424,16.783 -6.776,24.189 -6.533,11.114 -17.374,20.484 -30.946,27.087 -13.574,6.602 -29.893,10.44 -47.446,10.441 -23.402,-0.003 -44.614,-6.82 -60.049,-17.928 -7.716,-5.556 -13.988,-12.191 -18.342,-19.6 -4.352,-7.406 -6.778,-15.596 -6.776,-24.189 -0.002,-8.593 2.424,-16.783 6.776,-24.189 6.533,-11.115 17.374,-20.484 30.946,-27.088 13.574,-6.602 29.892,-10.44 47.445,-10.441 23.403,0.003 44.614,6.821 60.049,17.929 7.716,5.556 13.989,12.19 18.343,19.6 C -1.007,-16.783 1.419,-8.593 1.417,0 L 0,0 Z"
             style="fill:#000000;fill-opacity:1;fill-rule:nonzero;stroke:none"
             id="path622"
             inkscape:connector-curvature="0" /></g><g
           id="g624"
           transform="translate(757.646,382.4458)"><path
             d="m 0,0 c 0,-13.841 -15.586,-25.062 -34.81,-25.062 -19.224,0 -34.808,11.221 -34.808,25.062 0,13.842 15.584,25.062 34.808,25.062 C -15.586,25.062 0,13.842 0,0"
             style="fill:#000000;fill-opacity:1;fill-rule:nonzero;stroke:none"
             id="path626"
             inkscape:connector-curvature="0" /></g><g
           id="g628"
           transform="translate(757.646,382.4458)"><path
             d="m 0,0 -1.417,0 c -0.002,-3.192 -0.894,-6.231 -2.541,-9.037 -2.467,-4.205 -6.659,-7.869 -12.01,-10.47 -5.347,-2.602 -11.84,-4.139 -18.842,-4.138 -9.336,-0.002 -17.764,2.735 -23.785,7.074 -3.011,2.168 -5.42,4.73 -7.066,7.534 -1.647,2.806 -2.538,5.845 -2.54,9.037 0.002,3.193 0.893,6.231 2.54,9.038 2.468,4.205 6.659,7.868 12.01,10.469 5.347,2.602 11.839,4.139 18.841,4.138 9.336,0.002 17.765,-2.734 23.786,-7.074 3.011,-2.168 5.42,-4.73 7.066,-7.533 C -2.311,6.231 -1.419,3.193 -1.417,0 L 0,0 1.417,0 c 0.002,3.729 -1.055,7.283 -2.931,10.474 -2.817,4.79 -7.453,8.779 -13.214,11.583 -5.763,2.802 -12.666,4.422 -20.082,4.422 -9.887,-0.002 -18.864,-2.875 -25.441,-7.607 -3.288,-2.368 -5.978,-5.205 -7.853,-8.399 -1.877,-3.19 -2.933,-6.744 -2.931,-10.473 -0.002,-3.728 1.054,-7.282 2.931,-10.473 2.816,-4.79 7.452,-8.78 13.212,-11.583 5.764,-2.803 12.666,-4.423 20.082,-4.423 9.888,0.002 18.864,2.876 25.442,7.607 3.288,2.368 5.977,5.205 7.854,8.399 C 0.362,-7.282 1.419,-3.728 1.417,0 L 0,0 Z"
             style="fill:#000000;fill-opacity:1;fill-rule:nonzero;stroke:none"
             id="path630"
             inkscape:connector-curvature="0" /></g><g
           id="g632"
           transform="translate(721.4194,356.6948)"><path
             d="m 0,0 0,-14.147 2.834,0 0,14.147"
             style="fill:#000000;fill-opacity:1;fill-rule:nonzero;stroke:none"
             id="path634"
             inkscape:connector-curvature="0" /></g><g
           id="g636"
           transform="translate(721.4194,347.4204)"><path
             d="m 0,0 c -0.001,-1.462 -0.411,-2.936 -1.191,-4.348 -1.167,-2.116 -3.177,-4.073 -5.748,-5.485 -2.571,-1.413 -5.689,-2.281 -9.049,-2.281 -4.677,-0.007 -8.861,0.656 -11.692,2.03 -1.419,0.684 -2.488,1.525 -3.196,2.505 -0.705,0.985 -1.093,2.114 -1.099,3.579 l -2.834,0 c -0.005,-1.995 0.58,-3.788 1.636,-5.239 1.589,-2.186 4.096,-3.581 7.051,-4.46 2.965,-0.878 6.433,-1.248 10.134,-1.25 5.133,0.003 9.782,1.758 13.192,4.481 1.704,1.363 3.103,2.973 4.085,4.748 0.982,1.774 1.545,3.722 1.545,5.72 L 0,0 Z"
             style="fill:#000000;fill-opacity:1;fill-rule:nonzero;stroke:none"
             id="path638"
             inkscape:connector-curvature="0" /></g><g
           id="g640"
           transform="translate(756.2271,343.4204)"><path
             d="m 0,0 c -0.006,-1.465 -0.394,-2.594 -1.1,-3.579 -1.052,-1.467 -2.96,-2.634 -5.56,-3.402 -2.59,-0.771 -5.819,-1.134 -9.327,-1.133 -4.479,-0.002 -8.533,1.548 -11.421,3.86 -1.445,1.154 -2.595,2.495 -3.374,3.906 -0.781,1.412 -1.192,2.886 -1.192,4.348 l -2.834,0 c -10e-4,-1.998 0.564,-3.946 1.544,-5.72 1.476,-2.662 3.879,-4.954 6.864,-6.597 2.985,-1.641 6.564,-2.631 10.413,-2.632 4.934,0.007 9.454,0.65 12.922,2.311 1.73,0.834 3.209,1.943 4.262,3.398 C 2.254,-3.788 2.84,-1.995 2.834,0 L 0,0 Z"
             style="fill:#000000;fill-opacity:1;fill-rule:nonzero;stroke:none"
             id="path642"
             inkscape:connector-curvature="0" /></g></g></g><g
       id="g644"><g
         id="g646"
         clip-path="url(#clipPath648)"><g
           id="g652"
           transform="translate(606.1489,514.2563)"><path
             d="m 0,0 c -14.867,3.559 -30.617,-9.006 -35.18,-28.065 -4.562,-19.059 3.791,-37.395 18.657,-40.954 l 0.189,-0.039 C -14.813,-45.1 -5.479,-23.027 9.414,-4.868 6.7,-2.538 3.537,-0.847 0,0"
             style="fill:#332b2e;fill-opacity:1;fill-rule:nonzero;stroke:none"
             id="path654"
             inkscape:connector-curvature="0" /></g><g
           id="g656"
           transform="translate(606.1489,514.2563)"><path
             d="m 0,0 0.33,1.378 c -1.808,0.433 -3.631,0.642 -5.443,0.642 -7.033,-0.002 -13.871,-3.132 -19.444,-8.39 -5.575,-5.261 -9.918,-12.667 -12.001,-21.365 -0.871,-3.636 -1.286,-7.249 -1.286,-10.751 10e-4,-7.706 2.007,-14.872 5.633,-20.538 3.62,-5.662 8.902,-9.83 15.357,-11.373 l 0.024,-0.006 0.213,-0.043 1.595,-0.325 0.102,1.624 c 1.503,23.644 10.71,45.43 25.43,63.38 l 0.879,1.072 -1.052,0.902 C 7.469,-1.329 4.098,0.477 0.33,1.378 L 0,0 -0.33,-1.378 C 2.977,-2.17 5.932,-3.747 8.491,-5.943 l 0.923,1.075 -1.096,0.899 C -6.747,-22.337 -16.208,-44.696 -17.748,-68.968 l 1.414,-0.09 0.283,1.389 -0.189,0.039 -0.283,-1.389 0.33,1.378 c -5.66,1.357 -10.328,4.995 -13.631,10.145 -3.297,5.146 -5.187,11.796 -5.185,19.01 0,3.278 0.389,6.671 1.207,10.091 1.958,8.183 6.045,15.111 11.191,19.963 5.149,4.857 11.324,7.619 17.498,7.618 1.595,0 3.193,-0.184 4.783,-0.564 L 0,0 Z"
             style="fill:#000000;fill-opacity:1;fill-rule:nonzero;stroke:none"
             id="path658"
             inkscape:connector-curvature="0" /></g><g
           id="g660"
           transform="translate(874.7007,486.1914)"><path
             d="m 0,0 c -4.563,19.059 -20.313,31.624 -35.18,28.065 -3.537,-0.847 -6.699,-2.538 -9.412,-4.868 14.893,-18.158 24.227,-40.231 25.748,-64.19 l 0.188,0.039 C -3.789,-37.395 4.563,-19.059 0,0"
             style="fill:#332b2e;fill-opacity:1;fill-rule:nonzero;stroke:none"
             id="path662"
             inkscape:connector-curvature="0" /></g><g
           id="g664"
           transform="translate(874.7007,486.1914)"><path
             d="m 0,0 1.378,0.33 c -2.083,8.698 -6.426,16.104 -12.001,21.365 -5.572,5.258 -12.41,8.388 -19.444,8.39 -1.813,0 -3.635,-0.209 -5.443,-0.642 -3.767,-0.901 -7.137,-2.707 -10.006,-5.171 l -1.05,-0.902 0.878,-1.072 c 14.72,-17.949 23.927,-39.736 25.43,-63.381 l 0.103,-1.626 1.806,0.371 0.023,0.005 c 6.455,1.543 11.738,5.712 15.357,11.373 3.626,5.666 5.631,12.832 5.633,20.538 0,3.502 -0.415,7.116 -1.286,10.752 L 0,0 -1.379,-0.33 c 0.819,-3.421 1.208,-6.815 1.208,-10.092 0.002,-7.214 -1.888,-13.864 -5.184,-19.009 -3.303,-5.15 -7.972,-8.788 -13.631,-10.145 l 0.33,-1.378 -0.285,1.388 -0.188,-0.038 0.285,-1.389 1.414,0.09 c -1.54,24.272 -11.001,46.632 -26.066,64.999 l -1.096,-0.899 0.924,-1.075 c 2.558,2.196 5.512,3.773 8.818,4.565 1.589,0.38 3.188,0.563 4.783,0.563 6.174,0.002 12.349,-2.76 17.499,-7.617 5.145,-4.852 9.232,-11.78 11.189,-19.963 L 0,0 Z"
             style="fill:#000000;fill-opacity:1;fill-rule:nonzero;stroke:none"
             id="path666"
             inkscape:connector-curvature="0" /></g><g
           id="g668"
           transform="translate(847.7827,538.2466)"><path
             d="m 0,0 0,1.417 c -13.41,10e-4 -25.802,-4.411 -35.785,-11.858 l 0.847,-1.136 0.903,1.093 c -23.969,19.774 -55.885,31.826 -90.911,31.826 -35.026,0 -66.944,-12.053 -90.912,-31.826 l 0.902,-1.094 0.848,1.137 c -9.984,7.446 -22.376,11.859 -35.787,11.858 -33.091,0 -59.916,-26.825 -59.917,-59.917 0.002,-30.653 23.02,-55.912 52.718,-59.472 l 0.169,1.408 -1.401,-0.215 c 4.542,-29.582 20.911,-55.736 44.619,-74.474 23.709,-18.741 54.771,-30.088 88.761,-30.088 33.989,0 65.05,11.347 88.759,30.088 23.708,18.738 40.078,44.892 44.619,74.474 l -1.401,0.215 0.169,-1.408 c 29.699,3.561 52.714,28.819 52.717,59.472 C 59.916,-25.408 33.092,1.417 0,1.417 L 0,0 0,-1.417 C 15.768,-1.418 30.029,-7.804 40.363,-18.136 50.695,-28.471 57.082,-42.732 57.083,-58.5 57.085,-87.701 35.147,-111.767 6.862,-115.157 l -1.068,-0.128 -0.164,-1.064 c -4.423,-28.811 -20.37,-54.337 -43.574,-72.68 -23.202,-18.341 -53.647,-29.478 -87.002,-29.477 -33.357,-0.001 -63.801,11.136 -87.003,29.477 -23.204,18.343 -39.152,43.869 -43.574,72.68 l -0.165,1.064 -1.068,0.128 c -28.284,3.39 -50.224,27.456 -50.222,56.657 0.001,15.768 6.388,30.029 16.72,40.364 10.334,10.332 24.596,16.718 40.363,16.719 12.786,-10e-4 24.576,-4.201 34.091,-11.297 l 0.892,-0.664 0.858,0.707 c 23.452,19.349 54.735,31.179 89.108,31.178 34.374,10e-4 65.653,-11.829 89.106,-31.177 l 0.859,-0.708 0.891,0.665 C -24.574,-5.617 -12.785,-1.418 0,-1.417 L 0,0 Z"
             style="fill:#000000;fill-opacity:1;fill-rule:nonzero;stroke:none"
             id="path670"
             inkscape:connector-curvature="0" /></g></g></g></g></svg>