<?xml version="1.0" encoding="utf-8"?>
<!DOCTYPE svg PUBLIC "-//W3C//DTD SVG 1.1//EN" "http://www.w3.org/Graphics/SVG/1.1/DTD/svg11.dtd">
<svg version="1.1" id="Layer_1" xmlns="http://www.w3.org/2000/svg" xmlns:xlink="http://www.w3.org/1999/xlink" x="0px" y="0px"
	 viewBox="-767.7333 -1248.1659 2353.7334 3615.4055" enable-background="new -767.7333 -1248.1659 2353.7334 3615.4055"
	 xml:space="preserve">
<g>
	<g id="_x23_000000ff">
		<path stroke="#000000" stroke-width="1.0152" d="M120.3764-1188.5359c13.722-9.9048,32.0837-9.5757,48.3723-9.5428
			c22.9357,1.0531,46.9573-3.1919,68.7742,5.8903c6.68,2.1061,9.148,9.1151,12.274,14.6433
			c4.8702,9.2467,11.7805,17.6049,14.3802,27.9375c3.3564,18.6578-1.2834,37.6777-8.9505,54.7233
			c37.6777,1.8098,75.4542,3.9817,112.737,10.0364c26.8187,6.2522,53.7689,13.2612,78.5475,25.6012
			c32.676,16.7163,67.458,31.4584,94.2437,57.3228c19.6451,19.4147,37.8752,41.4291,47.0232,67.8529
			c4.4423,16.157,2.3033,33.1038,2.402,49.6556c14.1498,4.0146,28.3325,10.3326,37.7108,22.1459
			c16.0911,19.8096,29.4841,41.8569,40.2115,64.9901c8.1937,17.1442,8.7531,36.4931,7.7329,55.1181
			c-0.7897,11.3198,0.1975,23.7255-6.1863,33.729c-4.1133,6.9432-12.4058,9.0493-19.3161,11.9779
			c19.1515,46.2004,11.3198,96.942,12.9323,145.5118c-0.3291,8.5885,5.627,15.3344,8.8518,22.837
			c12.9321,28.6943,14.018,60.8109,14.6104,91.7429c0.329,23.2976-18.5922,40.409-38.4017,49.0633
			c-8.7202,42.4492-21.1917,84.0757-35.7034,124.8795c-4.7714,14.1497-12.2412,27.1148-20.04,39.7508
			c28.5627,1.9086,55.8091-8.6543,81.0483-20.8626c10.7603-5.5612,20.3361-13.3928,31.8533-17.6048
			c29.6487-11.5172,58.8364-25.0418,84.6351-43.8642c41.6923-29.9776,81.7722-62.3246,119.1868-97.5015
			c25.8973-23.6925,44.8184-53.8018,70.8472-77.3628c14.8737-14.2484,31.985-25.8315,49.5898-36.4273
			c41.3962-26.0947,84.1086-51.1694,130.8685-66.405c35.4401-11.7475,69.9587-26.2592,106.0242-36.1641
			c17.0784-5.0017,33.3341-12.4715,50.3466-17.7036c27.5099-8.5228,55.5131-15.466,82.7595-24.8443
			c2.5996,2.6325,5.265,5.2979,7.9304,7.9633c-1.1517,1.5466-3.4552,4.6727-4.6068,6.2523
			c-35.6376,11.6159-72.3282,19.9083-107.4722,33.1366c7.6013,12.0438,10.3984,26.1277,13.6891,39.7838
			c40.8367-21.3891,83.4175-39.0598,124.9783-58.9023c2.6324,4.0474,5.2979,8.1279,7.9962,12.1753
			c-30.7673,14.5776-62.1272,27.8058-92.8287,42.4492c-11.9779,6.0219-23.7914,12.3728-36.2958,17.2101
			c5.5941,10.8262,10.5631,22.3434,18.7238,31.5571c6.318,2.7642,12.8007-2.4351,18.5592-4.7056
			c36.1641-20.3032,75.0264-35.0782,112.046-53.7032c1.9414,4.1462,3.9159,8.2924,5.9561,12.4386
			c-41.1987,21.3563-84.7997,37.6777-125.0441,60.9096c6.8776,9.1151,13.6233,18.3289,20.2703,27.6414
			c39.7179-18.3946,80.5878-34.6175,122.4445-47.4839c2.2047,3.85,4.4752,7.7001,6.7787,11.5502
			c-14.051,4.4423-28.431,7.8975-42.087,13.4916c-26.6873,10.9908-54.2626,20.0729-79.5675,34.1568
			c7.4039,11.6488,14.7749,23.3306,22.047,35.0782c6.4498-1.5137,13.064-2.83,19.2174-5.4625
			c32.9393-13.8536,66.2734-26.7858,98.6532-41.8897c2.1719,3.6526,4.3766,7.3052,6.5812,10.9907
			c-38.2371,17.4074-77.0665,33.5316-116.3896,48.3065c6.3839,7.7988,11.7476,16.5519,19.2504,23.3964
			c7.7659,2.4022,16.4531-0.1974,24.3834-1.5794c33.2683-8.6544,66.9973-15.8938,99.6405-26.8516
			c2.764,4.1133,5.5283,8.2266,8.3911,12.3399c-36.954,12.636-75.2897,20.2703-112.9016,30.4384
			c-5.3967,0.4936-5.0348,7.1078-7.1736,10.6946c-53.3083,11.4513-105.728,27.2793-156.3051,47.747
			c-43.2061,16.8481-83.3848,40.4419-121.9509,66.043c-28.5299,18.4933-57.2571,36.7893-84.9641,56.5331
			c-25.9961,18.625-52.6831,36.5919-75.6517,59.034c-21.4879,20.2374-40.1128,43.3706-62.6208,62.5879
			c-12.9322,11.2539-27.1148,21.0271-39.6521,32.7747c-21.3235,19.9083-37.6119,44.4235-58.6721,64.5622
			c42.8441,34.9137,67.8199,87.1031,79.8308,140.1481c10.3326,55.4801,15.1039,111.8815,26.9832,167.0984
			c5.1334,34.3213,14.5446,67.7541,19.2172,102.1741c8.128,32.6103,9.7404,66.2734,15.3345,99.3442
			c4.2119,33.5316,14.7749,65.8127,20.3361,99.1468c5.2649,33.0708,16.9139,65.1874,16.4202,99.0482
			c11.7146,11.1551,24.186,22.5737,30.2738,38.0068c8.5557,20.9942,7.4369,44.1273,8.5885,66.3391
			c30.208,26.4239,32.347,71.8675,23.0674,108.229c19.6123,17.1442,28.4312,46.4637,18.0326,70.8801
			c-9.6085,21.6195-30.9977,34.1898-51.3667,44.0945c24.4823,33.005,51.5972,67.3264,56.8621,109.5122
			c2.1061,18.4606,5.7915,42.1859-11.3525,54.9536c-18.3618,12.8994-42.5479,10.6946-63.7725,9.1481
			c-0.5267,21.4548,1.3161,43.0415-1.1846,64.4307c-7.1408,37.6776-36.0325,68.478-70.7159,83.2859
			c-26.8844,12.7675-57.1583,14.2153-86.4119,14.9395c-20.9615,0.0986-41.9228,1.053-62.8512,0.2633
			c-16.4202-0.3622-30.9648-8.9836-44.8843-16.7495c0.1318,23.5282,2.6327,47.1549,0.2963,70.6171
			c-5.4296,33.2024-35.6705,54.0652-64.3648,66.701c0.0328,28.9578-0.1974,58.0797,4.3437,86.774
			c7.6013,50.9391,15.6963,101.7794,24.7784,152.488c6.1205,36.8881,16.0254,72.9862,21.9485,109.9399
			c8.9176,47.3193,17.7035,95.5271,14.018,143.8666c-1.7439,21.3562-26.8514,22.2448-39.8495,34.3213
			c23.6268,27.5095,39.8168,60.6794,48.1749,95.9221c10.2338,26.1274,10.7275,54.5254,9.6745,82.2
			c-1.2504,25.9961-18.6578,47.9773-38.1384,63.7065c-17.8024,15.0054-39.1257,25.4365-61.6994,30.9319
			c-45.7399,12.636-93.5198,14.8738-140.7075,15.7295c-46.1018-0.6914-93.1908,4.6064-138.2066-8.2925
			c-28.2665-5.3967-55.875-17.9998-74.7303-40.3103c-16.5848-20.2375-29.1551-45.0161-30.3396-71.5383
			c-0.7898-18.625-3.2578-37.5461,0.3949-56.0066c2.2047-11.4185,8.2595-21.488,14.0181-31.3928
			c-16.519-0.1313-33.0051,0.9873-49.4911,1.3823c-8.7531-25.4368-4.7715-52.6831-3.2577-78.8767
			c6.1863-56.7634,12.7676-113.6583,12.6031-170.8496c0.2304-50.1821,5.4295-102.0426-11.8463-150.2502
			c-9.5099-27.082-23.528-52.2882-32.7417-79.4689c-5.9561-20.04-12.998-40.0469-23.9558-57.948
			c-2.5009-4.541-4.2449-9.4441-6.1536-14.2156c-5.8902,0.0659-11.7804,0.1975-17.6707,0.4279
			c-7.7658,19.7438-19.6122,37.7764-25.4365,58.4417c-9.8719,37.1511-31.0965,70.0575-41.2975,107.1101
			c-4.1462,17.6377-7.4697,35.5717-7.8317,53.7688c-0.6252,74.7633,0.362,149.7567,10.0693,224.0264
			c4.3437,32.6104,5.6928,65.6152,3.521,98.4558c-0.5923,4.2119-1.744,8.3252-2.7312,12.5371
			c-16.519-4.6069-33.6962-4.8042-50.6757-4.4751c8.6543,13.2612,15.6963,28.2009,15.7621,44.4236
			c0.0987,20.7312,0.1646,41.7908-3.9816,62.2258c-8.5227,30.8992-28.0033,59.5276-56.0065,75.8818
			c-17.243,10.5303-37.3159,14.5447-56.7306,19.0859c-38.4346,9.4771-78.317,5.3967-117.4756,5.8904
			c-56.6318-0.4607-114.4482-2.7974-168.5462-21.1589c-26.5554-9.7732-50.5441-27.2795-67.5238-49.9521
			c-9.0163-12.4053-15.0382-27.2461-14.8078-42.7124c-0.033-22.5735-1.1517-45.8052,6.2193-67.4907
			c5.5612-17.1113,9.3783-34.8477,16.7493-51.334c8.3253-20.4675,21.0272-38.7634,34.8807-55.8748
			c-10.6945-7.2723-23.1003-11.8462-33.367-19.645c-11.945-15.9268-10.0364-37.0526-7.2723-55.6118
			c5.1663-64.2988,19.4147-127.479,32.7089-190.4948c11.4514-62.1929,21.6194-124.6492,30.57-187.2699
			c2.2376-24.7126,3.7513-49.7543,1.5795-74.4341c-26.2263-12.998-54.5587-30.7017-62.0943-61.1071
			c-5.0676-25.0417-0.4278-50.8074-0.9543-76.1124c-13.7878,7.6343-28.1349,16.1899-44.3577,16.6836
			c-20.8627,0.8883-41.7581-0.1646-62.6537-0.2303c-31.7875-0.5266-64.8255-2.6984-93.454-17.9341
			c-31.7217-15.4989-57.5532-44.917-64.2661-80.0939c-2.468-21.455-0.4607-43.0745-1.2175-64.5951
			c-21.2246,1.4806-45.312,3.6854-63.7396-9.0493c-17.2429-12.7676-13.4587-36.6248-11.4185-55.151
			c5.265-42.1201,32.314-76.4086,56.7963-109.3806c-20.2045-10.0366-41.7581-22.2776-51.2022-43.9301
			c-10.4313-24.3835-1.9086-53.9663,17.934-70.979c-9.2138-36.4274-7.2723-82.1011,23.1989-108.4262
			c1.053-23.8243-0.2632-48.9319,10.53-70.9133c5.6928-12.3069,16.2557-21.1258,25.305-30.8332
			c4.1133-4.2778,2.5996-10.892,3.6197-16.1899c0.7239-23.6267,8.3911-46.2004,12.6031-69.3007
			c4.4094-23.7585,9.0493-47.4838,14.9724-70.946c9.9048-40.0799,12.7347-81.4432,19.1515-122.1154
			c5.0018-20.1716,7.3052-40.8369,11.4843-61.14c6.9432-27.74,10.7275-56.1053,16.4861-84.1086
			c9.4771-48.3723,13.6232-97.6002,22.9357-145.9725c8.7859-38.2371,24.0874-75.52,47.8458-106.9126
			c28.1678-35.8021,67.7542-60.416,108.6897-79.2384c19.9083-8.0292,32.8076-26.1606,50.0505-38.2372
			c23.8571-17.2758,48.3723-34.2883,75.6845-45.7068c21.6195-9.8719,44.3907-16.881,66.1418-26.4238
			c11.9779-5.1005,25.0088-6.9104,37.4803-10.3655c-13.0968-11.5172-29.2537-19.4476-40.5406-33.0709
			c-17.0126-21.1588-35.0782-42.4821-44.0945-68.5439c-15.104-41.7581-27.6742-84.4706-36.8551-127.9069
			c-18.6908-8.3253-37.0526-23.8242-38.0068-45.8057c-0.8556-37.6448,2.6325-77.0995,22.0801-110.2691
			c3.9159-50.8403-6.4825-104.346,13.9852-152.9816c-11.2869-2.9615-22.1789-10.3655-23.6267-22.8699
			c-2.5667-25.9631-5.3966-53.8019,5.9889-78.2184c10.7933-23.1002,24.2191-45.1146,40.3432-64.8583
			c9.3125-11.8463,23.528-17.9669,37.6119-22.0143c0.2961-19.7767-3.2906-40.9355,6.0547-59.2643
			c19.4806-40.8367,54.1967-73.1508,94.145-93.6514c25.0417-12.3398,49.3596-26.4567,75.9808-35.1769
			c21.2575-6.0876,42.4821-12.998,64.628-15.1698c31.294-3.4552,62.6866-5.989,94.1451-7.1736
			c-8.3582-18.5262-13.8207-40.1787-7.3382-60.0541C106.7203-1166.5215,113.499-1177.6768,120.3764-1188.5359 M156.7708-1158.3937
			c-6.647,1.415-13.36,3.2249-19.2502,6.6801c-9.4771,5.0017-4.4094,17.5061-2.7312,25.6998
			c4.5081,17.1771,22.5737,24.1862,37.8752,28.6943c13.0638,4.3107,26.2264-2.5338,37.941-7.733
			c16.2228-7.2723,23.2319-27.2793,19.6451-43.8641C208.7957-1162.7701,181.1544-1162.0463,156.7708-1158.3937 M25.5733-1052.4023
			c-35.6375,4.7056-70.7157,15.071-102.5032,31.9191c-28.3324,14.2484-58.0468,27.9045-80.3244,51.1364
			c-12.5044,13.1955-24.581,27.2794-32.0508,43.9958c-5.4295,12.0437-3.7513,25.6011-3.9816,38.4017
			c23.2319,0.9214,46.7928-2.0073,69.7943,2.3035c26.9503,6.9103,53.9664,13.5903,80.4889,22.0472
			c40.4748,8.9505,81.9697,12.307,123.2013,15.795c52.7489,2.1718,105.6293,6.9761,158.411,1.9415
			c47.1548-1.1846,94.2108-5.5283,140.872-12.5044c30.5371-4.0804,59.1327-16.157,89.1432-22.5408
			c28.3653-10.1352,58.705-6.2523,88.1561-7.042c0-14.3801,1.4808-29.8131-6.0547-42.7453
			c-17.4403-31.8533-45.2133-57.4216-77.3628-74.0392c-29.0233-14.8079-57.7506-31.0966-89.571-39.1256
			c-35.4401-11.0895-72.8216-11.8792-109.5123-14.9724c-41.6593-2.6654-83.4175,0.0658-125.1098-1.1188
			C107.872-1059.9708,66.6075-1056.6473,25.5733-1052.4023 M-217.8349-848.8109c-14.4788,3.2906-23.9558,15.6634-31.8204,27.3123
			c-8.8189,13.4257-17.572,27.049-24.0545,41.8239c-7.6343,17.0126-5.1005,36.1312-4.9689,54.1967
			c27.8388,9.0164,56.928,12.998,85.359,19.6122c34.3871,8.2924,69.9589,7.9962,104.9054,12.0436
			c41.7911,3.5869,83.5163,9.6745,125.5377,9.2138c95.3954-0.0659,190.8238-0.0659,286.2192,0
			c25.3708,0.4607,50.6429-1.5137,75.882-4.1133c44.1274-4.8373,88.4852-7.6343,132.6126-12.4386
			c36.855-7.4368,74.105-13.6232,110.2362-24.1862c0.9872-18.8224,3.0273-38.8624-5.8245-56.3027
			c-9.5428-19.2831-20.5006-38.1055-34.42-54.5587c-10.0364-12.1424-26.6542-14.8737-41.4949-15.5317
			c-21.9156-0.2633-43.897-1.1846-65.7469,0.5594c-41.5278,7.1406-80.6863,24.6469-122.6748,29.6157
			c-62.884,9.6415-126.5249,12.0767-190.0341,14.413c-71.5055-2.5668-143.3729-5.4296-213.9241-18.3618
			c-18.1313-3.2249-35.2427-10.201-53.045-14.5446c-20.5006-4.6727-40.5735-12.7347-61.9297-12.0437
			C-170.5814-851.3447-194.6359-854.1746-217.8349-848.8109 M-263.0811-665.8846c15.1698-2.8629,30.8332-6.0547,46.1676-2.4351
			c22.9028,5.4296,42.6137,18.954,64.3648,27.4768c33.5974,13.9852,71.0119,15.9596,106.8469,12.5044
			c28.3982-6.318,57.9152-9.1151,86.8399-5.1334c29.517,7.0419,56.9609,23.0673,87.9915,23.2647
			c30.0435,0.4607,61.1729,4.8701,90.1963-5.2321c36.8222-11.6489,75.7503-16.1241,114.2836-14.3472
			c22.6067,1.4149,43.6996,10.3326,64.8255,17.7365c24.3507,8.7531,50.5113,11.254,76.244,10.7604
			c26.8187-0.5265,46.9903-20.3032,70.617-30.1093c26.5554-12.7676,56.6318-7.5026,84.997-8.6544
			c-2.1389-15.1698-5.1334-30.208-9.3454-44.9172c-26.5225,5.0018-52.8475,10.9907-79.2713,16.3545
			c-26.2922,5.4296-53.2095,5.1663-79.765,8.1937c-47.2206,4.1462-94.3095,11.0565-141.7605,10.8591
			c-89.9987,0.2961-179.9647,0.2961-269.9635,0.0328c-61.6665,0.6911-122.6748-9.9377-184.0781-13.7877
			c-41.8569-1.8757-82.1671-14.413-123.2342-21.6524C-259.1323-678.6193-261.1067-672.2355-263.0811-665.8846 M-265.6149-636.8941
			c0.1646,33.0051-0.329,66.0101,0.4607,99.0151c-2.8628,88.3864,18.9541,175.5554,47.8458,258.4135
			c8.4569,26.8186,28.9576,46.8915,44.1932,69.7614c26.9503,22.4751,53.0451,49.5569,88.6497,57.4545
			c31.261,11.0235,63.5092,18.7237,95.2639,28.1678c45.2462,11.2211,91.6441,16.4532,137.7459,22.7711
			c18.625,2.9945,37.7106,3.5539,56.4673,1.3492c44.0287-6.1535,88.2876-10.9578,131.757-20.4348
			c20.3361-4.0146,39.8167-11.3527,59.9553-16.0583c22.5408-6.5155,46.2663-11.7146,65.7797-25.3708
			c26.3909-17.3417,52.7159-34.8807,77.1324-54.8877c9.3784-9.3455,17.0125-20.3362,24.9102-30.932
			c12.0107-16.3873,17.8351-36.0653,24.219-55.0522c13.5903-41.462,24.8444-83.7137,31.8205-126.7881
			c11.4513-57.5861,8.0949-116.5872,8.5557-174.9301c-18.4605,0.1316-37.1513-1.5795-55.3485,2.0073
			c-30.0764,8.5886-53.4728,34.42-85.7868,36.2299c-27.3781,0.8556-55.3155-0.0658-81.7064-8.0291
			c-22.146-6.0219-42.9099-17.2429-65.9773-19.678c-28.7272-1.0859-57.7835-0.033-85.7868,6.9432
			c-19.9083,3.9816-38.7637,13.3928-59.3959,13.2941c-26.3251,0.1646-52.7159,0.3948-78.9094-2.5338
			c-26.5553-3.2906-50.6428-15.9595-76.3098-22.6395c-22.0801-0.8556-44.7855-2.1389-66.372,3.8171
			c-20.0071,5.4954-40.9684,2.7642-61.4362,2.5667c-31.3268-0.691-61.8968-10.0364-89.8672-23.7913
			c-14.8078-6.8774-29.0562-15.8608-45.4107-18.592c-9.7074-1.4479-18.987,3.0932-28.5956,3.3564
			C-256.5985-632.715-261.0409-634.9855-265.6149-636.8941 M1181.9017-551.2718c-56.9279,17.9668-108.3934,49.3595-157.5884,82.4961
			c-38.3358,27.2794-62.0943,69.2349-97.1724,99.9695c-44.2261,39.6521-90.1305,77.955-140.3456,109.7755
			c-56.171,30.8991-117.2452,52.1895-179.2078,67.9516c-11.1552,3.0603-22.7712,3.3236-34.2226,4.2449
			c-16.5848,0.9543-29.155,13.1296-43.5351,19.9742c-23.7912,11.5501-42.3504,31.4585-66.734,41.9884
			c-32.9392,16.2229-69.3337,22.5409-104.1156,33.4658c-46.2005,12.0437-93.6186,19.1186-141.2011,22.4421
			c-29.3525,4.4424-58.8036-1.2175-88.2548-1.3162C88.4572-73.439,47.7193-80.7442,7.7052-90.4844
			c-35.0452-10.7603-71.341-17.901-104.8725-33.1367c-10.7933-4.1461-21.5537-10.4313-33.4328-9.6745
			c-13.0309,2.0731-24.8772,8.1608-37.1841,12.5702c-42.3176,17.1442-87.3993,29.2538-125.3732,55.4472
			c-26.2263,16.5519-50.6757,36.164-71.308,59.4288c54.4929,6.4826,109.249,12.0108,163.1825,22.475
			c43.0086,9.9378,85.5893,21.9486,127.0842,37.1183C-36.2906,67.466,2.4731,78.8515,39.7888,94.2518
			c41.6594,17.0783,85.6222,27.378,128.9599,39.1585c23.3306,6.7458,47.5825,8.9834,71.2093,14.3801
			c43.4035,10.8591,88.3535,13.5245,132.9416,14.2484c31.1623-0.0328,62.6537,1.5466,93.4869-4.212
			c30.5042-5.7914,60.3174-15.8279,87.6625-30.6358c44.8184-25.272,91.4138-47.4509,133.9946-76.4743
			C722.2662,27.024,763.3002,15.5068,797.161-8.7781c25.601-19.2501,42.7123-46.9902,65.4835-69.1691
			c16.2557-16.881,36.3944-29.2866,53.1768-45.5753c26.3251-25.2063,49.6228-53.5715,78.35-76.2111
			c61.4361-47.1218,126.3275-89.7026,192.535-129.7496c59.9882-35.144,126.6235-56.4014,192.9625-75.882
			c-12.9978-20.2703-25.9629-40.5406-38.9939-60.778c-13.1625-20.4019-28.8259-38.994-42.6136-58.9023
			c-12.274-17.6378-18.2631-38.4346-25.2062-58.4745C1242.5481-572.7926,1212.1757-562.1967,1181.9017-551.2718 M664.1206-510.7312
			c-2.5008,35.6047-5.5612,71.2093-12.274,106.3532c8.3582-7.0419,18.2959-14.3801,19.9412-25.996
			C674.0584-457.3571,670.5703-484.5378,664.1206-510.7312 M-308.5247-432.4142c0.5594,12.5045,11.1223,20.5665,19.9083,27.9046
			c-2.2705-18.3946-6.0877-36.5589-7.8975-54.9865c-2.106-16.4203-1.3821-33.0379-3.8172-49.4253
			C-308.2286-484.3403-309.7422-458.0482-308.5247-432.4142 M-476.9723,70.1971c-13.0309,17.9669-22.804,38.1385-30.2738,59.0011
			c-12.1424,32.9063-15.0053,68.116-20.2374,102.5361c-10.1681,78.0209-28.2336,154.6597-41.6923,232.1213
			c-5.1334,39.8824-9.3125,80.0939-19.3818,119.1537c-7.4697,29.7145-11.7147,60.1199-19.0527,89.8672
			c-3.1591,14.6434-7.6672,29.7145-4.936,44.8184c2.468,9.9707,6.2193,20.9943,15.9266,26.1276
			c19.4805,11.4515,42.0872,15.7952,64.1016,19.5464c45.7727,7.9635,92.3022,9.6088,138.5356,13.1296
			c27.7729,1.5467,55.8749,4.1462,82.1342,13.9525c5.5283-29.2538,11.3527-58.4417,16.2228-87.827
			c6.0877-37.1843,13.5903-74.3355,14.4459-112.1119c1.2175-19.5793-0.8885-39.4219,2.6325-58.8036
			c0.8227-6.2852,6.1535-12.0768,12.8664-11.4843c12.1095,0.0657,19.1186,13.2282,18.2301,24.1531
			c-0.8555,34.1897-0.2633,68.511-5.265,102.4374c-17.7694,121.3915-45.5753,241.006-66.0759,361.9038
			c-12.2412,71.012-20.8297,142.649-26.2263,214.5164c24.3178-9.1149,50.215-13.689,76.1781-13.689
			c17.7036,0.1316,35.5388,5.1005,50.1493,15.2357c13.9852,9.6415,24.7455,22.9685,35.7363,35.7692
			c29.0562-15.2357,62.9498-17.9011,95.0993-14.9724c24.1862,3.3563,40.5077,22.6724,59.1327,36.1641
			c26.0947-0.724,49.2278-18.1313,75.9807-16.2557c19.4147-0.9215,33.0051,14.9065,43.8642,28.7931
			c6.9761-2.83,13.9523-5.66,20.9613-8.4241c-0.2304-43.1401-0.7239-86.4449,5.0675-129.2891
			c4.0805-43.897,11.0566-87.465,15.3015-131.3291c2.2047-114.5469-3.2906-229.3242,4.8043-343.7067
			c2.9615-51.2679,15.0711-101.516,17.2758-152.817c4.1133-40.6063,10.5958-80.9825,12.9651-121.7205
			c2.0072-33.0379,10.7274-65.9771,5.0676-99.1139c-4.8372-50.4783-11.8792-101.6805-32.9722-148.3089
			c-33.1695-9.0163-66.7011-17.2758-98.5544-30.3725c-21.3233-8.9505-43.0415-16.7493-64.99-23.923
			c-47.0561-15.7292-93.3882-33.8605-141.6289-45.7727c-44.1932-13.2612-90.3279-17.1112-135.7716-23.9558
			c-25.1733-4.0474-50.8074-3.817-75.9807-7.7001c-11.4514-1.2175-18.987-10.5629-26.3251-18.3288
			C-431.3969,25.1485-457.755,44.4973-476.9723,70.1971 M795.2524,35.4152c-29.5828,15.6633-61.5348,26.9831-89.2749,46.0689
			c-23.1989,15.7292-47.3851,30.0435-72.3281,42.844c-30.3397,15.6635-59.3301,34.091-90.7228,47.7142
			c-37.217,14.9395-77.0008,24.8114-117.3111,24.6468c-20.8626-0.0658-41.7253-0.0658-62.5879-0.0987
			c-49.4911-0.3949-98.4886-8.5556-146.6635-19.4805c-12.5703,36.2298-20.8627,74.0721-23.3635,112.408
			c-1.3821,19.2173-6.2851,38.4016-3.7514,57.7835c5.989,44.1274,7.9963,88.7154,13.8865,132.8757
			c1.8757,13.7221,3.6526,27.444,4.7715,41.2646c3.6197,65.0886,18.9541,129.0256,20.3361,194.2789
			c2.6325,38.303,1.4808,76.7047,1.7111,115.0734c0.0987,62.5879-0.1645,125.1758,0.0659,187.7637
			c4.4424,45.1474,11.7147,89.9987,15.4989,135.212c7.5026,43.6339,4.936,87.9586,5.1663,131.9873
			c7.3381,2.9945,14.7092,5.9889,22.0801,9.0162c10.6616-15.7291,26.6541-31.4254,47.3523-29.1549
			c25.5024-0.5923,47.5496,16.3545,72.7229,16.1901c12.669-7.7661,21.9156-20.2046,35.1769-27.2466
			c21.8499-13.8536,48.9318-10.1351,73.3483-7.9962c15.8938,0.9872,29.9118,9.0493,45.0487,12.998
			c10.3326-8.8188,17.9669-20.402,28.5627-28.9248c15.0382-12.8992,34.5188-20.2701,54.2955-20.8954
			c27.1149-0.5266,54.2297,4.2449,79.6334,13.7548c-5.6599-65.2203-12.2741-130.4407-23.2977-195.0029
			c-14.051-88.1889-33.0051-175.4566-49.2278-263.2177c-13.36-74.9278-29.2866-150.4806-24.7785-227.0208
			c0.8227-10.1023,10.5301-19.8754,21.093-17.6378c9.5757,3.8829,10.5958,15.2027,10.7603,24.1531
			c0.4937,31.6888,0.5594,63.5421,5.3308,95.0005c7.5027,50.5443,16.5848,100.8251,26.3251,150.9743
			c15.5647-5.5941,31.7875-9.3453,48.2407-11.2539c69.7614-7.2724,140.9708-5.8902,209.2514-23.8242
			c15.8608-5.1334,35.9666-10.9249,41.0672-29.0893c6.7128-15.2027,2.4351-32.0837-1.053-47.5168
			c-8.2595-32.4456-12.5374-65.7468-20.9286-98.1594c-10.6946-41.7911-14.4128-84.8656-20.5665-127.4134
			c-5.4624-25.4695-8.8189-51.3339-14.8735-76.6389c-12.4716-61.0412-22.5737-122.5761-30.7346-184.3412
			c-7.1077-55.2826-27.3452-112.046-69.9589-149.9212C809.9616,37.9819,802.9525,29.9856,795.2524,35.4152 M156.6391,164.7371
			c10.2339,31.5572,18.0985,63.7067,24.4823,96.2181c8.819-28.0691,12.4386-57.5531,22.3764-85.4248
			C187.9331,171.6474,172.3684,167.8632,156.6391,164.7371 M181.1544,412.3243c-5.4295,36.2628-8.3582,72.8547-12.9322,109.2491
			c-5.1005,75.8491-22.9357,150.7439-21.1917,227.0866c0,82.2329-0.1317,164.4658,0.0658,246.7316
			c0.1317,29.7474-5.7257,59.0669-8.6544,88.5837c-4.903,32.8407-7.4039,65.9445-11.6488,98.8508
			c-1.5795,33.2352-0.1974,66.5695-0.5595,99.8376c25.1076-3.6525,50.4125,0.2303,75.6188-1.7109
			c11.6817-0.5266,23.3306,0.658,34.9465,1.8428c-0.9543-44.292,3.3236-88.9789-4.1462-132.9088
			c-4.3107-48.3394-12.3727-96.251-16.4532-144.5904c-0.3949-86.6095-0.0658-173.252-0.1317-259.8942
			c1.6453-59.001-8.9504-117.2782-16.3544-175.5554c-3.1261-33.9921-6.1206-67.9844-10.6617-101.7792
			C186.3865,449.4756,186.946,430.3242,181.1544,412.3243 M-650.7835,784.8899c-3.7842,18.2629,0,36.9867-2.4022,55.2826
			c-6.7129,8.9833-17.6707,14.3801-22.3434,24.9431c-5.4954,13.0637-5.627,27.6083-5.3967,41.5607
			c-0.5265,12.3069,12.0767,20.7639,11.7476,32.8075c-4.8372,14.0511-22.5737,18.6249-27.6084,32.676
			c-3.1261,8.5228-3.2248,19.5793,5.0018,25.338c24.1533,20.7968,57.7506,19.0856,87.5308,21.0272
			c15.4002,1.9413,16.4532,20.6981,25.7986,29.9446c16.7164,15.6964,41.5936,19.2501,63.608,17.21
			c4.1462-8.6543,4.8701-18.6249,9.6744-26.983c4.4753-6.8774,14.775-7.3053,20.6981-2.106
			c8.8518,7.7,13.2612,19.6779,23.528,25.9302c12.2411,7.6343,26.358,11.6816,40.5077,14.1497
			c19.0199,2.6324,39.3889,6.8446,57.4216-2.2047c11.4514-85.0629,29.2866-169.0727,44.8842-253.4117
			c-13.9852-2.6983-27.9375-5.66-42.0543-7.371c-69.9589-6.5156-141.1682-6.2194-209.5146-24.1533
			c-24.4494-6.2194-46.0359-19.8424-64.6938-36.493C-641.8329,762.4148-649.4672,772.5171-650.7835,784.8899 M959.817,779.4603
			c-31.3926,14.8737-66.4049,18.6578-100.3972,23.4293c-59.1326,7.5027-119.3842,5.2979-177.8259,18.0327
			c15.5977,84.4377,33.4,168.4805,44.8843,253.642c19.4477,9.3126,41.2975,4.4752,61.6006,1.3164
			c17.6048-3.9159,37.4804-9.181,48.1091-25.0747c5.9231-7.766,12.0109-19.0199,23.4952-17.6379
			c13.8534,3.192,12.3728,20.073,17.9011,30.241c1.7769,5.2651,7.8317,2.6654,11.9779,3.0933
			c19.316-1.2175,40.9683-4.6727,54.3611-20.1387c7.5684-9.5427,9.6415-26.687,24.3508-27.8716
			c29.0891-2.0072,61.6335-0.2633,85.655-19.8426c12.8666-8.7859,9.5759-28.7601-1.4479-37.6119
			c-7.4039-7.5025-19.3159-12.8333-20.1715-24.6468c3.3894-11.3527,13.6561-20.402,12.4058-33.0379
			c-0.3619-16.8152-0.3949-36.6906-13.7219-49.0305c-6.4827-6.6471-17.4403-12.1424-15.4661-23.133
			c1.119-26.8188,2.9944-57.323-17.3417-78.1198C985.9117,762.5793,974.0655,773.0106,959.817,779.4603 M-638.7068,1051.4312
			c-14.5117,28.069-38.1714,50.3467-50.939,79.4688c-7.9962,15.5975-10.8591,33.1366-11.5501,50.5114
			c12.7676,1.1516,27.3452,4.1133,38.5662-3.8829c6.68-3.8173,12.7347-11.6161,21.2575-9.5759
			c9.7731,1.8428,16.5519,11.5172,16.9138,21.1588c1.6782,30.8331-0.9872,61.8638,1.2504,92.6973
			c6.5484,31.6886,37.6119,51.0375,67.2935,57.5531c32.8076,6.318,66.4708,4.179,99.7062,4.9689
			c27.9046,2.6981,53.8677-16.6835,67.3264-39.6852c9.2138-62.5878,12.5373-125.9324,20.1058-188.7178
			c-39.718-0.6252-81.6077-5.7585-114.5799-29.8461c-5.7257,5.66-11.0894,12.6691-19.2831,14.7422
			c-41.7253,5.5939-89.1103-9.8391-111.4867-47.5167C-622.3195,1052.7473-630.5132,1052.0564-638.7068,1051.4312
			 M977.6192,1053.2739c-22.4092,37.4474-69.3664,52.9791-111.0259,47.6154c-8.3911-1.9414-13.8534-9.0822-19.7438-14.7419
			c-33.2024,23.8241-74.9276,29.2865-114.7114,29.6815c7.7658,62.7522,10.859,126.0642,20.1387,188.5862
			c9.8719,18.592,28.4968,32.8405,48.6684,38.8624c17.3746,2.2047,34.9794,0.329,52.4527,0.8226
			c31.4257-0.5596,64.7269,0.4279,93.3882-14.6104c20.2704-9.9049,38.0068-28.6287,40.442-51.8605
			c1.1516-29.4512-0.5266-58.9681,0.7238-88.4193c0.1645-11.7805,10.9249-23.4951,23.2648-21.2576
			c7.5355,3.4222,13.2941,9.8719,21.0601,12.998c10.4972,3.2906,21.6852,1.5465,32.4457,0.5265
			c-0.7898-12.4056-1.8757-24.9429-5.8574-36.7893c-11.4185-35.3414-39.5206-61.1727-56.6647-93.3552
			C994.0067,1052.0234,985.813,1052.7144,977.6192,1053.2739 M-344.3597,1265.4868c-6.5154,4.3766-6.7787,12.6688-7.7659,19.7109
			c-3.9488,40.4091-7.7988,80.9167-7.2065,121.5889c0.7568,13.5903-3.521,29.879,6.8116,40.9026
			c10.7933,11.2209,26.7528,22.4751,42.5807,13.8536c5.989,4.4752,11.5172,9.5757,16.8481,14.9065
			c25.6669,7.2394,51.4326,14.6763,77.988,17.934c59.6592,7.338,119.5487,15.1368,179.8002,13.6561
			c35.2756-1.415,70.0576,6.6799,105.3332,5.4954c32.0837-1.0201,63.4105,8.5555,95.4941,7.7659
			c27.5755,0.1315,55.2826,0.691,82.529-4.3436c29.3854-5.5283,59.3301-1.5795,88.8471-5.3638
			c21.7512-2.4351,43.5681-4.179,65.4507-3.5538c58.2113,1.2832,116.0606-6.3181,173.7126-13.3271
			c23.8242-2.6984,47.056-8.9834,70.1562-15.1698c11.1224-2.4021,18.5922-11.4843,27.5427-17.7036
			c15.9266,8.1279,31.6887-3.0933,42.4492-14.3472c9.8719-11.0894,6.4496-27.1477,6.9432-40.7051
			c-0.2303-45.2792-4.2778-90.3279-9.0493-135.3108c-16.9467-17.2759-41.1658-24.219-64.6609-26.0291
			c-19.7767-1.7769-42.5807-3.4221-58.4417,10.8263c-15.104,11.6158-22.7711,31.7545-40.7709,39.5206
			c-17.9998,4.7383-32.0179-12.0768-49.3266-13.6892c-18.3947-2.2375-37.7107-5.5282-55.9079-0.7897
			c-19.9742,6.8116-29.517,29.7802-50.4783,34.5846c-30.3726,6.7128-56.7964-19.7767-87.136-14.8738
			c-9.6744,9.0492-15.6305,23.0674-29.2537,27.1807c-10.859,4.4093-21.7511-1.3492-31.7217-5.2649
			c-10.168-4.3766-21.1916-5.8904-32.0837-7.1409c-4.7056,4.8702-7.7329,13.9196-15.7621,13.7877
			c-5.7915-1.053-11.254-3.2905-16.7823-5.1003c-6.4825,1.9086-12.8335,5.1663-19.7109,5.0675
			c-5.8903-2.5667-8.424-9.1479-12.4715-13.6232c-10.9249,1.0201-21.9486,2.3693-32.0837,6.7787
			c-10.0365,3.8501-20.8626,9.9047-31.7875,5.627c-13.7878-3.8829-19.9412-17.7693-29.2866-27.1477
			c-29.4512-5.1005-55.1181,19.7767-84.6022,15.2356c-24.7786-3.7513-35.1111-33.2683-60.0541-36.8221
			c-17.934-1.3821-36.1641,0-53.8019,3.488c-14.3801,2.8628-26.2592,15.1041-41.5278,13.5574
			c-15.6634-3.7184-23.3635-19.4475-33.7948-30.175c-10.2339-12.5044-24.9759-22.0802-41.6265-21.9485
			C-288.2544,1244.2292-320.4039,1246.796-344.3597,1265.4868 M-293.9143,1511.2643c-1.1517,30.0105-0.8227,60.2185-5.6599,89.9658
			c-12.1096,79.2384-24.252,158.5428-41.9885,236.7281c-7.6671,47.7471-21.3233,95.7246-17.0126,144.4259
			c10.9908,16.3873,31.7217,22.2777,49.8202,27.2466c74.1051,17.901,149.5264,29.7802,224.0592,45.7726
			c54.4271,10.4312,109.4794,17.4075,164.795,21.0271c-0.0659-31.3597-3.4881-62.5549-7.2724-93.6184
			c-8.2266-69.9919-8.8189-140.5431-8.3581-210.8969c0.4278-20.994,4.0474-41.7909,9.2137-62.0942
			c9.3783-35.4399,29.1551-66.9314,39.5534-102.0096c5.6599-18.2959,13.4258-35.8021,20.4349-53.5714
			c-21.0272-3.488-42.2517-6.1864-63.608-5.9231c-33.0379,0.8228-65.6152-6.2522-98.6203-5.1006
			c-61.2386,1.053-122.0825-6.1534-182.6959-13.8206C-239.4214,1526.3354-266.4375,1517.681-293.9143,1511.2643 M577.6099,1529.0665
			c-51.6959,6.1864-103.4247,13.2614-155.5483,13.9194c-24.0874,0.658-48.2407-0.5266-72.2293,1.9084
			c-39.8825,5.4625-80.456,1.1519-120.0753,9.181c6.9433,17.8352,14.8079,35.3083,20.4677,53.6372
			c9.9048,33.4987,28.4969,63.6737,38.2043,97.2383c7.0091,25.0087,10.9578,50.9061,10.859,76.9349
			c-0.0328,60.4819-0.4606,121.0953-6.5813,181.3468c-3.6197,37.6777-9.806,75.2238-8.9176,113.1978
			c53.4398-3.5867,106.5836-10.2996,159.2337-20.04c36.7564-7.6013,73.6116-14.8407,110.4995-21.9154
			c44.2261-8.9177,88.8801-16.1899,132.2505-28.6945c13.36-4.9688,28.5627-10.7603,36.0983-23.5938
			c3.9487-31.6229-2.6983-63.4106-7.8317-94.5728c-9.6087-58.6062-24.4493-116.1923-33.3671-174.9302
			c-10.0693-66.7999-25.1733-133.4352-22.7382-201.3866C631.1485,1517.2203,604.9222,1525.8417,577.6099,1529.0665
			 M-316.521,2042.8002c-20.9613,22.5409-39.0598,48.537-47.3851,78.5145c-5.956,20.303-13.6561,40.5076-13.6561,61.9626
			c0.0987,15.1038-2.6325,32.4785,7.5027,45.2461c15.5976,20.0728,39.1914,32.6433,63.6737,38.4348
			c64.8584,16.7163,132.5138,13.7546,198.8859,14.3801c26.0289,0.5591,51.7617-4.377,76.7047-11.3201
			c25.1075-6.1206,47.1219-23.1328,58.9682-46.1348c12.6689-21.0925,12.1095-46.4636,12.0108-70.156
			c-0.362-8.5227-0.5923-18.7896-8.3253-24.1863c-9.6415-7.1077-19.5464-14.1497-26.0947-24.4165
			c-47.418-7.3381-94.7044-15.137-141.6289-25.2063C-196.0838,2067.48-256.6972,2057.1145-316.521,2042.8002 M450.6244,2089.626
			c-30.6359,6.7456-61.9627,9.6414-92.7959,15.4658c-6.6142,10.0696-16.2557,17.2429-25.9302,24.1536
			c-8.9505,6.1206-8.1279,18.1638-8.6544,27.7397c0.2304,21.126-0.2961,43.5022,9.8391,62.7197
			c10.6616,22.376,30.0764,40.7705,53.9992,48.0762c27.3781,8.3909,55.8421,14.1494,84.6023,13.5574
			c39.4547-0.3621,78.9752,0.7239,118.3641-2.4021c35.5388-2.4351,71.7028-6.812,104.8725-20.501
			c17.9998-8.9834,36.6905-21.5535,44.4565-40.9023c7.4368-38.665-4.8044-77.2312-18.0327-113.198
			c-9.0822-23.3303-24.7455-43.1401-41.3304-61.5348C604.0008,2060.5366,527.0328,2073.7322,450.6244,2089.626z"/>
		<path stroke="#000000" stroke-width="0.3085" d="M-73.5735-523.466c39.4218-11.0894,84.0757,8.8519,106.5837,42.2847
			c7.6342,9.8719,1.6124,27.5755-12.307,26.1276c-14.051-2.7642-19.7438-18.2301-31.8533-24.5482
			c-15.5976-10.892-35.111-10.0035-53.1767-10.2668C-79.7599-490.9545-88.151-515.5684-73.5735-523.466z"/>
		<path stroke="#000000" stroke-width="0.3085" d="M341.6057-513.0347c19.0856-2.468,38.4675-4.3765,57.6848-2.9286
			c13.2283,1.5137,22.7711,17.8352,15.5976,29.6157c-5.6928,8.1937-16.8151,6.2193-25.4037,6.9103
			c-20.0399,0.8556-41.4948,0.2961-59.4618,10.6287c-5.2979,2.7312-10.2668,6.2851-16.1241,7.7988
			c-15.7621,0.7569-27.1477-21.1259-15.3672-32.6101C310.3447-504.479,326.1068-510.0731,341.6057-513.0347z"/>
		<path stroke="#000000" stroke-width="0.3085" d="M141.2719-430.7031c8.2595-1.0201,16.519-2.8628,24.943-2.435
			c8.424,0.8556,14.3143,7.6013,20.5007,12.636c-1.5466,3.6855-3.3894,7.2724-5.5612,10.6617
			c-6.2522,1.744-10.2338-4.1792-14.7749-7.1736c-9.9706-0.3619-20.6981,1.9086-29.5829-3.85
			C137.9154-423.332,140.1531-428.2351,141.2719-430.7031z"/>
		<path stroke="#000000" stroke-width="0.3085" d="M53.0501-318.624c3.5868-2.5667,7.1406-5.1663,10.7274-7.7002
			c8.5228,9.9048,12.4058,23.2977,22.7712,31.7547c7.2723,6.0218,14.6434,12.1753,23.1002,16.519
			c30.5042,13.1625,64.0358,28.102,97.7648,17.539c23.8571-8.1607,49.2608-15.3014,68.2148-32.9392
			c11.3198-8.4569,15.3014-22.7054,24.5153-33.005c3.3236,2.7641,6.7458,5.4953,10.201,8.0949
			c-10.6288,30.1752-37.9739,51.3997-67.458,61.6007c-17.6049,6.5483-35.5717,15.9267-54.9536,13.3929
			c-8.5227-0.9873-17.0455,0.4936-25.5682,0c-15.4002-1.8099-29.4183-8.8848-43.7983-14.1826
			C89.7406-267.8825,63.3498-289.0083,53.0501-318.624z"/>
		<path stroke="#000000" stroke-width="1.0152" d="M295.2078,467.7716c34.6174-7.6672,70.979,21.6193,70.9131,57.0265
			c1.9415,33.3671-29.0233,63.8384-62.3575,61.3375c-34.9794-0.5923-63.8054-36.8222-55.9737-71.1105
			C252.3308,491.7273,271.91,472.2468,295.2078,467.7716 M291.6538,486.4623c-17.2429,5.6927-29.155,23.8571-27.3452,41.9556
			c0.7569,21.6195,21.3233,39.8495,42.9099,38.1384c22.9028-0.0986,42.1859-22.4749,39.1585-45.1474
			C345.0609,495.5116,315.7084,477.1169,291.6538,486.4623z"/>
		<path stroke="#000000" stroke-width="1.0152" d="M308.2716,746.6855c35.2097-11.8133,75.6187,17.2431,76.4743,54.098
			c2.83,33.6304-27.9374,64.99-61.6007,62.8512c-33.3012-0.1645-61.7322-32.5773-57.4544-65.6481
			C267.7967,774.3598,285.6978,753.4315,308.2716,746.6855 M315.0832,763.9286c-16.881,3.9158-30.2739,19.645-31.0308,37.0196
			c-2.5008,22.4749,16.7165,44.0287,39.2902,44.2589c23.7913,1.9086,45.4766-20.4017,42.8441-44.1273
			C365.4956,776.2026,338.9074,757.2814,315.0832,763.9286z"/>
		<path stroke="#000000" stroke-width="0.3085" d="M-295.0002,2155.2739c6.2522-6.4495,12.998-14.1824,22.7054-14.5115
			c15.6305-2.5337,30.8661,3.5867,43.4693,12.4385c19.9083,13.5244,39.9812,27.5754,63.0485,35.21
			c23.89,8.2266,49.524,7.7,74.4341,7.3052c20.2703-0.2961,39.3889-7.6672,58.7378-12.7349
			c3.7842-1.5134,7.371,0.658,10.4971,2.6982c-5.5283,15.6304-24.7456,15.4331-38.1056,19.3489
			c-27.0818,7.8977-55.3813,4.8047-82.9898,2.468c-24.3507-2.7312-47.0231-13.3269-67.6883-26.0286
			c-13.7219-8.2268-25.9631-19.02-40.8038-25.2725C-265.7794,2149.7458-280.7847,2161.592-295.0002,2155.2739z"/>
		<path stroke="#000000" stroke-width="0.3085" d="M594.7212,2151.6873c14.6433-10.3655,34.3542-15.2356,51.3668-7.9963
			c6.647,2.1719,7.5026,9.9048,10.0364,15.4331c-10.9907-1.6782-21.7839-5.2319-32.9393-5.0017
			c-11.55,1.6782-21.1258,9.0164-30.6358,15.2356c-19.9412,14.0181-41.2645,26.72-64.7596,33.7949
			c-18.2959,5.627-37.6119,5.3967-56.5331,6.7456c-15.0053,1.1521-30.0435-0.658-44.5881-4.2117
			c-15.1368-3.6526-33.8606-4.6069-41.9226-20.2046c2.0073-0.9873,6.0219-2.8958,8.0291-3.8501
			c38.5005,15.1367,80.8838,17.9011,121.4244,10.8591C544.3087,2186.502,569.811,2168.5684,594.7212,2151.6873z"/>
	</g>
	<g id="_x23_790000ff">
		<path fill="#790000" stroke="#790000" stroke-width="0.3085" d="M156.7708-1158.3937
			c24.3836-3.6526,52.0249-4.3765,73.4799,9.4771c3.5868,16.5848-3.4223,36.5918-19.6451,43.8641
			c-11.7146,5.1992-24.8772,12.0437-37.941,7.733c-15.3015-4.5082-33.3671-11.5172-37.8752-28.6943
			c-1.6783-8.1937-6.7459-20.6981,2.7312-25.6998C143.4108-1155.1688,150.1238-1156.9786,156.7708-1158.3937z"/>
		<path fill="#790000" stroke="#790000" stroke-width="0.3085" d="M-476.9723,70.1971
			c19.2173-25.6998,45.5753-45.0487,73.3153-60.6792c7.3381,7.7658,14.8737,17.1112,26.3251,18.3288
			c25.1733,3.883,50.8074,3.6527,75.9807,7.7001c45.4436,6.8446,91.5783,10.6946,135.7716,23.9558
			c48.2406,11.9122,94.5728,30.0435,141.6289,45.7727c21.9485,7.1737,43.6667,14.9724,64.99,23.923
			c31.8533,13.0966,65.3849,21.3562,98.5544,30.3725c21.093,46.6283,28.135,97.8306,32.9722,148.3089
			c5.6598,33.1367-3.0604,66.076-5.0676,99.1139c-2.3693,40.7381-8.8518,81.1142-12.9651,121.7205
			c-2.2048,51.301-14.3143,101.5491-17.2758,152.817c-8.0949,114.3824-2.5996,229.1597-4.8043,343.7067
			c-4.2449,43.8641-11.2211,87.4321-15.3015,131.3291c-5.7915,42.8441-5.2979,86.1489-5.0675,129.2891
			c-7.0091,2.764-13.9852,5.5941-20.9613,8.4241c-10.8591-13.8866-24.4495-29.7146-43.8642-28.7931
			c-26.7529-1.8756-49.886,15.5317-75.9807,16.2557c-18.625-13.4917-34.9465-32.8077-59.1327-36.1641
			c-32.1495-2.9287-66.043-0.2633-95.0993,14.9724c-10.9908-12.8007-21.7511-26.1277-35.7363-35.7692
			c-14.6104-10.1353-32.4456-15.1041-50.1493-15.2357c-25.9631,0-51.8604,4.5741-76.1781,13.689
			c5.3966-71.8673,13.9852-143.5044,26.2263-214.5164c20.5006-120.8978,48.3065-240.5123,66.0759-361.9038
			c5.0018-33.9264,4.4095-68.2477,5.265-102.4374c0.8885-10.9249-6.1206-24.0875-18.2301-24.1531
			c-6.7129-0.5925-12.0437,5.199-12.8664,11.4843c-3.521,19.3817-1.415,39.2243-2.6325,58.8036
			c-0.8556,37.7764-8.3582,74.9276-14.4459,112.1119c-4.8701,29.3853-10.6945,58.5732-16.2228,87.827
			c-26.2592-9.8062-54.3612-12.4058-82.1342-13.9525c-46.2334-3.5208-92.7629-5.1661-138.5356-13.1296
			c-22.0143-3.7512-44.621-8.0948-64.1016-19.5464c-9.7073-5.1334-13.4587-16.1569-15.9266-26.1276
			c-2.7313-15.1039,1.7769-30.175,4.936-44.8184c7.3381-29.7473,11.583-60.1526,19.0527-89.8672
			c10.0693-39.0598,14.2484-79.2712,19.3818-119.1537c13.4587-77.4615,31.5242-154.1004,41.6923-232.1213
			c5.2321-34.4201,8.095-69.6298,20.2374-102.5361C-499.7763,108.3357-490.0032,88.1641-476.9723,70.1971z"/>
		<path fill="#790000" stroke="#790000" stroke-width="1.0152" d="M795.2524,35.4152c7.7001-5.4296,14.7092,2.5667,20.3032,7.1736
			c42.6137,37.8752,62.8512,94.6386,69.9589,149.9212c8.1609,61.7652,18.263,123.3,30.7346,184.3412
			c6.0546,25.305,9.4111,51.1694,14.8735,76.6389c6.1537,42.5479,9.8719,85.6223,20.5665,127.4134
			c8.3912,32.4127,12.6691,65.7139,20.9286,98.1594c3.488,15.4331,7.7658,32.3141,1.053,47.5168
			c-5.1006,18.1644-25.2064,23.9559-41.0672,29.0893c-68.2806,17.934-139.49,16.5518-209.2514,23.8242
			c-16.4531,1.9086-32.676,5.6598-48.2407,11.2539c-9.7402-50.1492-18.8223-100.43-26.3251-150.9743
			c-4.7714-31.4584-4.8372-63.3118-5.3308-95.0005c-0.1645-8.9504-1.1846-20.2702-10.7603-24.1531
			c-10.5629-2.2376-20.2703,7.5355-21.093,17.6378c-4.5081,76.5402,11.4185,152.093,24.7785,227.0208
			c16.2228,87.7611,35.1769,175.0288,49.2278,263.2177c11.0236,64.5623,17.6378,129.7826,23.2977,195.0029
			c-25.4037-9.5099-52.5185-14.2814-79.6334-13.7548c-19.7767,0.6252-39.2573,7.9962-54.2955,20.8954
			c-10.5958,8.5228-18.23,20.106-28.5627,28.9248c-15.1369-3.9487-29.1549-12.0109-45.0487-12.998
			c-24.4164-2.1389-51.4984-5.8574-73.3483,7.9962c-13.2612,7.042-22.5079,19.4805-35.1769,27.2466
			c-25.1733,0.1644-47.2205-16.7823-72.7229-16.1901c-20.6981-2.2705-36.6906,13.4258-47.3523,29.1549
			c-7.371-3.0273-14.7421-6.0217-22.0801-9.0162c-0.2304-44.0287,2.3363-88.3534-5.1663-131.9873
			c-3.7842-45.2133-11.0565-90.0646-15.4989-135.212c-0.2304-62.5879,0.0329-125.1758-0.0659-187.7637
			c-0.2303-38.3687,0.9214-76.7703-1.7111-115.0734c-1.382-65.2533-16.7164-129.1903-20.3361-194.2789
			c-1.1188-13.8207-2.8958-27.5426-4.7715-41.2646c-5.8902-44.1602-7.8975-88.7483-13.8865-132.8757
			c-2.5338-19.3819,2.3692-38.5663,3.7514-57.7835c2.5008-38.336,10.7933-76.1782,23.3635-112.408
			c48.1748,10.9249,97.1724,19.0856,146.6635,19.4805c20.8626,0.0329,41.7253,0.0329,62.5879,0.0987
			c40.3103,0.1646,80.094-9.7073,117.3111-24.6468c31.3927-13.6232,60.3831-32.0507,90.7228-47.7142
			c24.943-12.8005,49.1292-27.1148,72.3281-42.844C733.7176,62.3984,765.6696,51.0786,795.2524,35.4152 M295.2078,467.7716
			c-23.2977,4.4752-42.8769,23.9557-47.418,47.2534c-7.8317,34.2883,20.9943,70.5182,55.9737,71.1105
			c33.3341,2.5009,64.2989-27.9704,62.3575-61.3375C366.1868,489.3909,329.8252,460.1043,295.2078,467.7716 M308.2716,746.6855
			c-22.5738,6.746-40.4749,27.6743-42.5808,51.3011c-4.2778,33.0708,24.1532,65.4836,57.4544,65.6481
			c33.6632,2.1388,64.4307-29.2208,61.6007-62.8512C383.8903,763.9286,343.4813,734.8722,308.2716,746.6855z"/>
	</g>
	<path fill="#623A12" stroke="#623A12" stroke-width="0.3085" d="M25.5733-1052.4023c41.0342-4.245,82.2988-7.5685,123.5962-6.5483
		c41.6924,1.1846,83.4505-1.5466,125.1098,1.1188c36.6906,3.0933,74.0722,3.8829,109.5123,14.9724
		c31.8205,8.0291,60.5477,24.3177,89.571,39.1256c32.1495,16.6177,59.9225,42.1859,77.3628,74.0392
		c7.5356,12.9322,6.0547,28.3652,6.0547,42.7453c-29.4511,0.7897-59.7907-3.0932-88.1561,7.042
		c-30.0106,6.3838-58.6062,18.4604-89.1432,22.5408c-46.6612,6.9761-93.7172,11.3198-140.872,12.5044
		c-52.7817,5.0347-105.6622,0.2303-158.411-1.9415c-41.2316-3.488-82.7266-6.8445-123.2013-15.795
		c-26.5225-8.4569-53.5386-15.1369-80.4889-22.0472c-23.0015-4.3107-46.5624-1.3821-69.7943-2.3035
		c0.2303-12.8005-1.4479-26.358,3.9816-38.4017c7.4698-16.7164,19.5464-30.8003,32.0508-43.9958
		c22.2775-23.2319,51.992-36.888,80.3244-51.1364C-45.1424-1037.3313-10.0642-1047.6968,25.5733-1052.4023z"/>
	<path fill="#7D4900" d="M-263.0811-665.8846c1.9744-6.3509,3.9488-12.7347,5.956-19.0857
		c41.0671,7.2394,81.3774,19.7767,123.2342,21.6524c61.4033,3.85,122.4115,14.4788,184.0781,13.7877
		c89.9987,0.2633,179.9647,0.2633,269.9635-0.0328c47.451,0.1974,94.5399-6.713,141.7605-10.8591
		c26.5555-3.0273,53.4728-2.7641,79.765-8.1937c26.4238-5.3638,52.7488-11.3527,79.2713-16.3545
		c4.212,14.7092,7.2065,29.7474,9.3454,44.9172c-28.3652,1.1517-58.4416-4.1133-84.997,8.6544
		c-23.6267,9.8061-43.7983,29.5828-70.617,30.1093c-25.7328,0.4936-51.8933-2.0073-76.244-10.7604
		c-21.1259-7.4039-42.2188-16.3216-64.8255-17.7365c-38.5333-1.7769-77.4614,2.6983-114.2836,14.3472
		c-29.0234,10.1022-60.1528,5.6927-90.1963,5.2321c-31.0306-0.1974-58.4745-16.2228-87.9915-23.2647
		c-28.9247-3.9817-58.4417-1.1846-86.8399,5.1334c-35.8349,3.4552-73.2495,1.4808-106.8469-12.5044
		c-21.7511-8.5228-41.462-22.0472-64.3648-27.4768C-232.2479-671.9393-247.9113-668.7474-263.0811-665.8846z"/>
	<path fill="#623A12" stroke="#623A12" stroke-width="0.3085" d="M291.6538,486.4623c24.0546-9.3455,53.407,9.0493,54.7232,34.9465
		c3.0274,22.6725-16.2557,45.0488-39.1585,45.1474c-21.5865,1.7112-42.153-16.5189-42.9099-38.1384
		C262.4989,510.3194,274.4109,492.1551,291.6538,486.4623z"/>
	<path fill="#623A12" stroke="#623A12" stroke-width="0.3085" d="M315.0832,763.9286c23.8242-6.6472,50.4124,12.274,51.1035,37.1512
		c2.6324,23.7255-19.0528,46.0359-42.8441,44.1273c-22.5737-0.2302-41.791-21.7839-39.2902-44.2589
		C284.8094,783.5735,298.2023,767.8444,315.0832,763.9286z"/>
	<g id="_x23_005e20ff">
		<path fill="#005E20" stroke="#005E20" stroke-width="0.3085" d="M-217.8349-848.8109c23.199-5.3638,47.2535-2.5338,70.8145-3.2906
			c21.3562-0.691,41.4291,7.371,61.9297,12.0437c17.8023,4.3436,34.9137,11.3198,53.045,14.5446
			c70.5512,12.9322,142.4186,15.795,213.9241,18.3618c63.5092-2.3364,127.15-4.7715,190.0341-14.413
			c41.9885-4.9688,81.147-22.475,122.6748-29.6157c21.8499-1.744,43.8312-0.8227,65.7469-0.5594
			c14.8407,0.6581,31.4584,3.3893,41.4949,15.5317c13.9194,16.4532,24.8771,35.2756,34.42,54.5587
			c8.8518,17.4403,6.8116,37.4803,5.8245,56.3027c-36.1312,10.5629-73.3812,16.7493-110.2362,24.1862
			c-44.1274,4.8043-88.4852,7.6013-132.6126,12.4386c-25.2391,2.5996-50.5111,4.574-75.882,4.1133
			c-95.3954-0.0659-190.8238-0.0659-286.2192,0c-42.0215,0.4607-83.7467-5.627-125.5377-9.2138
			c-34.9465-4.0474-70.5182-3.7513-104.9054-12.0436c-28.4311-6.6143-57.5202-10.5959-85.359-19.6122
			c-0.1316-18.0656-2.6654-37.1841,4.9689-54.1967c6.4825-14.7749,15.2356-28.3982,24.0545-41.8239
			C-241.7907-833.1475-232.3136-845.5203-217.8349-848.8109z"/>
		<path fill="#005E20" stroke="#005E20" stroke-width="0.3085" d="M1181.9017-551.2718
			c30.2739-10.9249,60.6464-21.5208,90.9532-32.2482c6.9431,20.0399,12.9321,40.8367,25.2062,58.4745
			c13.7877,19.9084,29.4512,38.5004,42.6136,58.9023c13.031,20.2374,25.9961,40.5077,38.9939,60.778
			c-66.339,19.4806-132.9744,40.738-192.9625,75.882c-66.2075,40.0471-131.0989,82.6279-192.535,129.7496
			c-28.7272,22.6396-52.0249,51.0048-78.35,76.2111c-16.7823,16.2887-36.921,28.6943-53.1768,45.5753
			c-22.7711,22.1788-39.8824,49.919-65.4835,69.1691c-33.8608,24.2849-74.8948,35.8021-109.1174,59.4947
			c-42.5808,29.0234-89.1761,51.2022-133.9946,76.4743c-27.3452,14.8078-57.1583,24.8443-87.6625,30.6358
			c-30.8332,5.7586-62.3246,4.1792-93.4869,4.212c-44.588-0.7239-89.5381-3.3893-132.9416-14.2484
			c-23.6267-5.3967-47.8787-7.6343-71.2093-14.3801c-43.3377-11.7805-87.3005-22.0802-128.9599-39.1585
			C2.4731,78.8515-36.2906,67.466-74.1988,53.744c-41.4949-15.1698-84.0756-27.1806-127.0842-37.1183
			C-255.2165,6.1614-309.9726,0.6332-364.4655-5.8493c20.6323-23.2648,45.0817-42.8769,71.308-59.4288
			c37.9739-26.1934,83.0556-38.303,125.3732-55.4472c12.3069-4.4094,24.1532-10.4971,37.1841-12.5702
			c11.8792-0.7568,22.6396,5.5283,33.4328,9.6745c33.5315,15.2356,69.8273,22.3764,104.8725,33.1367
			c40.0141,9.7402,80.7521,17.0455,121.8192,20.2045c29.4512,0.0987,58.9023,5.7586,88.2548,1.3162
			c47.5825-3.3236,95.0005-10.3984,141.2011-22.4421c34.7819-10.9249,71.1764-17.2429,104.1156-33.4658
			c24.3836-10.53,42.9428-30.4384,66.734-41.9884c14.3801-6.8446,26.9503-19.0199,43.5351-19.9742
			c11.4514-0.9214,23.0674-1.1847,34.2226-4.2449c61.9626-15.7621,123.0368-37.0525,179.2078-67.9516
			c50.2151-31.8205,96.1195-70.1234,140.3456-109.7755c35.0781-30.7346,58.8365-72.6901,97.1724-99.9695
			C1073.5083-501.9123,1124.9739-533.305,1181.9017-551.2718z"/>
		<path fill="#005E20" stroke="#005E20" stroke-width="0.3085" d="M156.6391,164.7371c15.7292,3.1261,31.294,6.9104,46.8587,10.7933
			c-9.9378,27.8717-13.5574,57.3557-22.3764,85.4248C174.7376,228.4438,166.8731,196.2942,156.6391,164.7371z"/>
		<path fill="#005E20" stroke="#005E20" stroke-width="0.3085" d="M181.1544,412.3243c5.7915,17.9999,5.2321,37.1514,7.8975,55.7433
			c4.5411,33.7949,7.5356,67.7872,10.6617,101.7792c7.4039,58.2772,17.9997,116.5544,16.3544,175.5554
			c0.0659,86.6422-0.2632,173.2847,0.1317,259.8942c4.0805,48.3394,12.1424,96.251,16.4532,144.5904
			c7.4698,43.9299,3.1919,88.6168,4.1462,132.9088c-11.6159-1.1848-23.2648-2.3694-34.9465-1.8428
			c-25.2063,1.9413-50.5112-1.9415-75.6188,1.7109c0.362-33.2682-1.0201-66.6024,0.5595-99.8376
			c4.2448-32.9064,6.7458-66.0101,11.6488-98.8508c2.9287-29.5168,8.786-58.8363,8.6544-88.5837
			c-0.1974-82.2658-0.0658-164.4987-0.0658-246.7316c-1.744-76.3427,16.0911-151.2375,21.1917-227.0866
			C172.7962,485.179,175.7249,448.5871,181.1544,412.3243z"/>
		<path fill="#005E20" stroke="#005E20" stroke-width="0.3085" d="M-293.9143,1511.2643
			c27.4768,6.4167,54.4929,15.0712,82.6607,18.1313c60.6135,7.6671,121.4573,14.8735,182.6959,13.8206
			c33.005-1.1516,65.5824,5.9233,98.6203,5.1006c21.3563-0.2633,42.5808,2.4351,63.608,5.9231
			c-7.0091,17.7693-14.775,35.2755-20.4349,53.5714c-10.3983,35.0782-30.175,66.5697-39.5534,102.0096
			c-5.1663,20.3033-8.7859,41.1002-9.2137,62.0942c-0.4607,70.3538,0.1316,140.9049,8.3581,210.8969
			c3.7843,31.0635,7.2065,62.2587,7.2724,93.6184c-55.3155-3.6196-110.3679-10.5959-164.795-21.0271
			c-74.5328-15.9924-149.9541-27.8716-224.0592-45.7726c-18.0985-4.9689-38.8294-10.8593-49.8202-27.2466
			c-4.3107-48.7013,9.3455-96.6788,17.0126-144.4259c17.7365-78.1853,29.879-157.4897,41.9885-236.7281
			C-294.737,1571.4828-295.066,1541.2748-293.9143,1511.2643z"/>
		<path fill="#005E20" stroke="#005E20" stroke-width="0.3085" d="M577.6099,1529.0665
			c27.3123-3.2249,53.5386-11.8462,80.3244-17.7693c-2.4352,67.9514,12.6688,134.5867,22.7382,201.3866
			c8.9177,58.7379,23.7584,116.324,33.3671,174.9302c5.1334,31.1621,11.7805,62.9498,7.8317,94.5728
			c-7.5356,12.8335-22.7383,18.625-36.0983,23.5938c-43.3705,12.5045-88.0244,19.7767-132.2505,28.6945
			c-36.8879,7.0747-73.7431,14.3141-110.4995,21.9154c-52.6501,9.7405-105.7938,16.4534-159.2337,20.04
			c-0.8885-37.974,5.2979-75.52,8.9176-113.1978c6.1206-60.2515,6.5484-120.8649,6.5813-181.3468
			c0.0987-26.0288-3.85-51.9263-10.859-76.9349c-9.7074-33.5646-28.2995-63.7396-38.2043-97.2383
			c-5.6599-18.3289-13.5244-35.802-20.4677-53.6372c39.6193-8.0292,80.1928-3.7185,120.0753-9.181
			c23.9886-2.4351,48.142-1.2505,72.2293-1.9084C474.1853,1542.3279,525.914,1535.2529,577.6099,1529.0665z"/>
	</g>
	<g id="_x23_faad81ff">
		<path fill="#FAAD81" stroke="#FAAD81" stroke-width="1.0152" d="M-265.6149-636.8941c4.574,1.9086,9.0164,4.1791,13.8536,5.4296
			c9.6086-0.2632,18.8882-4.8043,28.5956-3.3564c16.3544,2.7312,30.6028,11.7147,45.4107,18.592
			c27.9704,13.7549,58.5404,23.1003,89.8672,23.7913c20.4677,0.1974,41.4291,2.9286,61.4362-2.5667
			c21.5865-5.9561,44.2919-4.6727,66.372-3.8171c25.667,6.68,49.7545,19.3489,76.3098,22.6395
			c26.1935,2.9286,52.5844,2.6984,78.9094,2.5338c20.6322,0.0987,39.4876-9.3125,59.3959-13.2941
			c28.0033-6.9762,57.0597-8.0292,85.7868-6.9432c23.0674,2.4351,43.8313,13.6561,65.9773,19.678
			c26.3908,7.9633,54.3283,8.8847,81.7064,8.0291c32.3141-1.8098,55.7104-27.6413,85.7868-36.2299
			c18.1972-3.5868,36.888-1.8757,55.3485-2.0073c-0.4608,58.3429,2.8956,117.344-8.5557,174.9301
			c-6.9761,43.0744-18.2302,85.3261-31.8205,126.7881c-6.3839,18.9869-12.2083,38.6649-24.219,55.0522
			c-7.8976,10.5958-15.5318,21.5865-24.9102,30.932c-24.4165,20.007-50.7416,37.546-77.1324,54.8877
			c-19.5134,13.6561-43.239,18.8553-65.7797,25.3708c-20.1386,4.7056-39.6192,12.0437-59.9553,16.0583
			c-43.4694,9.477-87.7283,14.2813-131.757,20.4348c-18.7567,2.2048-37.8423,1.6453-56.4673-1.3492
			c-46.1018-6.318-92.4996-11.5501-137.7459-22.7711c-31.7547-9.4441-64.0029-17.1443-95.2639-28.1678
			c-35.6046-7.8976-61.6994-34.9794-88.6497-57.4545c-15.2356-22.8698-35.7363-42.9427-44.1932-69.7614
			c-28.8918-82.8581-50.7087-170.0271-47.8458-258.4135C-265.9439-570.884-265.4503-603.889-265.6149-636.8941 M-73.5735-523.466
			c-14.5775,7.8976-6.1864,32.5115,9.2467,33.5974c18.0656,0.2633,37.5791-0.6252,53.1767,10.2668
			c12.1095,6.318,17.8023,21.784,31.8533,24.5482c13.9194,1.4478,19.9412-16.2557,12.307-26.1276
			C10.5022-514.6141-34.1517-534.5554-73.5735-523.466 M341.6057-513.0347c-15.499,2.9616-31.261,8.5557-43.0744,19.4148
			c-11.7805,11.4843-0.395,33.367,15.3672,32.6101c5.8573-1.5137,10.8262-5.0676,16.1241-7.7988
			c17.9669-10.3326,39.4218-9.7732,59.4618-10.6287c8.5886-0.691,19.7108,1.2834,25.4037-6.9103
			c7.1736-11.7805-2.3693-28.102-15.5976-29.6157C380.0732-517.4112,360.6913-515.5026,341.6057-513.0347 M141.2719-430.7031
			c-1.1188,2.468-3.3565,7.3711-4.4753,9.8391c8.8848,5.7586,19.6122,3.4881,29.5829,3.85
			c4.5411,2.9945,8.5227,8.9177,14.7749,7.1736c2.1718-3.3893,4.0146-6.9762,5.5612-10.6617
			c-6.1864-5.0347-12.0767-11.7804-20.5007-12.636C157.7909-433.5659,149.5315-431.7231,141.2719-430.7031 M53.0501-318.624
			c10.2997,29.6157,36.6905,50.7415,65.5165,61.0741c14.3801,5.2979,28.3981,12.3727,43.7983,14.1826
			c8.5227,0.4936,17.0455-0.9873,25.5682,0c19.3819,2.5338,37.3487-6.8446,54.9536-13.3929
			c29.484-10.201,56.8292-31.4255,67.458-61.6007c-3.4552-2.5996-6.8774-5.3308-10.201-8.0949
			c-9.2138,10.2997-13.1955,24.5481-24.5153,33.005c-18.954,17.6378-44.3577,24.7785-68.2148,32.9392
			c-33.729,10.563-67.2606-4.3765-97.7648-17.539c-8.4568-4.3437-15.8279-10.4971-23.1002-16.519
			c-10.3655-8.4569-14.2484-21.8499-22.7712-31.7547C60.1907-323.7903,56.6369-321.1907,53.0501-318.624z"/>
		<path fill="#FAAD81" stroke="#FAAD81" stroke-width="0.3085" d="M664.1206-510.7312c6.4497,26.1935,9.9378,53.3741,7.6672,80.3572
			c-1.6453,11.6159-11.5831,18.9541-19.9412,25.996C658.5594-439.5219,661.6198-475.1266,664.1206-510.7312z"/>
		<path fill="#FAAD81" stroke="#FAAD81" stroke-width="0.3085" d="M-308.5247-432.4142
			c-1.2175-25.634,0.2961-51.9262,8.1936-76.5072c2.4351,16.3874,1.7112,33.0051,3.8172,49.4253
			c1.8098,18.4276,5.627,36.5919,7.8975,54.9865C-297.4024-411.8477-307.9653-419.9097-308.5247-432.4142z"/>
		<path fill="#FAAD81" stroke="#FAAD81" stroke-width="0.3085" d="M-638.7068,1051.4312c8.1937,0.6252,16.3873,1.3162,24.581,1.8757
			c22.3763,37.6776,69.7614,53.1106,111.4867,47.5167c8.1937-2.0731,13.5574-9.0822,19.2831-14.7422
			c32.9722,24.0875,74.8619,29.2208,114.5799,29.8461c-7.5685,62.7854-10.892,126.13-20.1058,188.7178
			c-13.4587,23.0017-39.4218,42.3833-67.3264,39.6852c-33.2354-0.7899-66.8986,1.3491-99.7062-4.9689
			c-29.6815-6.5156-60.7451-25.8645-67.2935-57.5531c-2.2376-30.8335,0.4278-61.8641-1.2504-92.6973
			c-0.3619-9.6416-7.1407-19.316-16.9138-21.1588c-8.5228-2.0402-14.5775,5.7587-21.2575,9.5759
			c-11.2211,7.9962-25.7986,5.0345-38.5662,3.8829c0.691-17.3748,3.5539-34.9138,11.5501-50.5114
			C-676.8782,1101.7778-653.2186,1079.5001-638.7068,1051.4312z"/>
		<path fill="#FAAD81" stroke="#FAAD81" stroke-width="0.3085" d="M977.6192,1053.2739c8.1938-0.5596,16.3875-1.2505,24.5811-1.9415
			c17.1441,32.1825,45.2462,58.0138,56.6647,93.3552c3.9817,11.8464,5.0676,24.3837,5.8574,36.7893
			c-10.7605,1.02-21.9485,2.7642-32.4457-0.5265c-7.766-3.1261-13.5246-9.5758-21.0601-12.998
			c-12.3399-2.2375-23.1003,9.4771-23.2648,21.2576c-1.2504,29.4512,0.4278,58.9681-0.7238,88.4193
			c-2.4352,23.2318-20.1716,41.9556-40.442,51.8605c-28.6613,15.0382-61.9625,14.0508-93.3882,14.6104
			c-17.4733-0.4937-35.0781,1.3821-52.4527-0.8226c-20.1716-6.022-38.7965-20.2704-48.6684-38.8624
			c-9.2797-62.522-12.3729-125.834-20.1387-188.5862c39.7838-0.395,81.509-5.8574,114.7114-29.6815
			c5.8904,5.6598,11.3527,12.8005,19.7438,14.7419C908.2528,1106.2531,955.21,1090.7213,977.6192,1053.2739z"/>
	</g>
	<g id="_x23_827b00ff">
		<path fill="#827B00" stroke="#827B00" stroke-width="0.3085" d="M-650.7835,784.8899
			c1.3163-12.3728,8.9506-22.4751,16.3874-31.8533c18.6579,16.6506,40.2444,30.2737,64.6938,36.493
			c68.3464,17.934,139.5557,17.6378,209.5146,24.1533c14.1168,1.711,28.0691,4.6727,42.0543,7.371
			c-15.5976,84.339-33.4329,168.3488-44.8842,253.4117c-18.0327,9.0493-38.4017,4.8372-57.4216,2.2047
			c-14.1497-2.468-28.2665-6.5154-40.5077-14.1497c-10.2668-6.2523-14.6762-18.2302-23.528-25.9302
			c-5.9232-5.1993-16.2228-4.7715-20.6981,2.106c-4.8043,8.3582-5.5282,18.3287-9.6744,26.983
			c-22.0143,2.0402-46.8915-1.5135-63.608-17.21c-9.3454-9.2466-10.3984-28.0033-25.7986-29.9446
			c-29.7802-1.9415-63.3776-0.2303-87.5308-21.0272c-8.2266-5.7586-8.1279-16.8151-5.0018-25.338
			c5.0347-14.0511,22.7712-18.6249,27.6084-32.676c0.3291-12.0436-12.274-20.5005-11.7476-32.8075
			c-0.2303-13.9525-0.0987-28.497,5.3967-41.5607c4.6727-10.563,15.6305-15.9597,22.3434-24.9431
			C-650.7835,821.8766-654.5677,803.1528-650.7835,784.8899z"/>
		<path fill="#827B00" stroke="#827B00" stroke-width="0.3085" d="M959.817,779.4603c14.2485-6.4497,26.0947-16.881,38.3687-26.3909
			c20.3361,20.7968,18.4606,51.301,17.3417,78.1198c-1.9742,10.9906,8.9834,16.4859,15.4661,23.133
			c13.327,12.3399,13.36,32.2153,13.7219,49.0305c1.2504,12.6359-9.0164,21.6852-12.4058,33.0379
			c0.8556,11.8135,12.7676,17.1443,20.1715,24.6468c11.0238,8.8519,14.3145,28.826,1.4479,37.6119
			c-24.0215,19.5793-56.5659,17.8354-85.655,19.8426c-14.7092,1.1846-16.7823,18.3289-24.3508,27.8716
			c-13.3929,15.4659-35.0451,18.9211-54.3611,20.1387c-4.1462-0.4279-10.201,2.1719-11.9779-3.0933
			c-5.5283-10.168-4.0477-27.049-17.9011-30.241c-11.4843-1.382-17.5721,9.8719-23.4952,17.6379
			c-10.6287,15.8937-30.5043,21.1588-48.1091,25.0747c-20.3031,3.1588-42.153,7.9962-61.6006-1.3164
			c-11.4843-85.1616-29.2866-169.2043-44.8843-253.642c58.4417-12.7347,118.6932-10.5299,177.8259-18.0327
			C893.412,798.1181,928.4244,794.334,959.817,779.4603z"/>
		<path fill="#827B00" stroke="#827B00" stroke-width="0.3085" d="M-344.3597,1265.4868
			c23.9558-18.6908,56.1053-21.2576,85.3919-20.9613c16.6506-0.1317,31.3926,9.4441,41.6265,21.9485
			c10.4314,10.7275,18.1314,26.4567,33.7948,30.175c15.2685,1.5468,27.1477-10.6946,41.5278-13.5574
			c17.6378-3.488,35.8679-4.8701,53.8019-3.488c24.943,3.5538,35.2755,33.0708,60.0541,36.8221
			c29.484,4.5411,55.1509-20.3361,84.6022-15.2356c9.3454,9.3784,15.4989,23.2648,29.2866,27.1477
			c10.9249,4.2777,21.751-1.7769,31.7875-5.627c10.1351-4.4094,21.1587-5.7585,32.0837-6.7787
			c4.0475,4.4752,6.5813,11.0565,12.4715,13.6232c6.8774,0.0988,13.2283-3.1589,19.7109-5.0675
			c5.5282,1.8098,10.9907,4.0474,16.7823,5.1003c8.0291,0.1318,11.0565-8.9175,15.7621-13.7877
			c10.8921,1.2505,21.9156,2.7643,32.0837,7.1409c9.9706,3.9156,20.8627,9.6742,31.7217,5.2649
			c13.6232-4.1133,19.5793-18.1315,29.2537-27.1807c30.3396-4.903,56.7634,21.5865,87.136,14.8738
			c20.9613-4.8044,30.5042-27.7729,50.4783-34.5846c18.1972-4.7385,37.5132-1.4479,55.9079,0.7897
			c17.3087,1.6124,31.3268,18.4275,49.3266,13.6892c17.9998-7.7661,25.6669-27.9048,40.7709-39.5206
			c15.8609-14.2484,38.6649-12.6031,58.4417-10.8263c23.4952,1.8101,47.7142,8.7532,64.6609,26.0291
			c4.7715,44.9829,8.819,90.0316,9.0493,135.3108c-0.4936,13.5574,2.9287,29.6157-6.9432,40.7051
			c-10.7604,11.2539-26.5225,22.4751-42.4492,14.3472c-8.9506,6.2194-16.4203,15.3015-27.5427,17.7036
			c-23.1002,6.1864-46.332,12.4714-70.1562,15.1698c-57.652,7.009-115.5013,14.6104-173.7126,13.3271
			c-21.8827-0.6251-43.6996,1.1188-65.4507,3.5538c-29.517,3.7843-59.4617-0.1646-88.8471,5.3638
			c-27.2464,5.0347-54.9535,4.4751-82.529,4.3436c-32.0837,0.7897-63.4105-8.786-95.4941-7.7659
			c-35.2756,1.1846-70.0576-6.9104-105.3332-5.4954c-60.2515,1.4807-120.141-6.3181-179.8002-13.6561
			c-26.5554-3.2577-52.3211-10.6946-77.988-17.934c-5.3309-5.3308-10.8591-10.4313-16.8481-14.9065
			c-15.8279,8.6215-31.7875-2.6327-42.5807-13.8536c-10.3326-11.0236-6.0548-27.3123-6.8116-40.9026
			c-0.5923-40.6721,3.2578-81.1798,7.2065-121.5889C-351.1384,1278.1556-350.8752,1269.8634-344.3597,1265.4868z"/>
	</g>
	<g id="_x23_4c2e12ff">
		<path fill="#4C2E12" stroke="#4C2E12" stroke-width="1.0152" d="M-316.521,2042.8002
			c59.8238,14.3143,120.4372,24.6798,180.6558,37.1183c46.9245,10.0693,94.2108,17.8682,141.6289,25.2063
			c6.5483,10.2668,16.4532,17.3088,26.0947,24.4165c7.733,5.3967,7.9633,15.6636,8.3253,24.1863
			c0.0987,23.6924,0.6581,49.0635-12.0108,70.156c-11.8463,23.002-33.8606,40.0142-58.9682,46.1348
			c-24.943,6.9431-50.6757,11.8792-76.7047,11.3201c-66.3721-0.6255-134.0275,2.3362-198.8859-14.3801
			c-24.4823-5.7915-48.0761-18.3621-63.6737-38.4348c-10.1352-12.7676-7.4039-30.1423-7.5027-45.2461
			c0-21.4551,7.7001-41.6597,13.6561-61.9626C-355.5808,2091.3372-337.4823,2065.3411-316.521,2042.8002 M-295.0002,2155.2739
			c14.2155,6.3181,29.2208-5.5281,43.3047,0.9214c14.8407,6.2524,27.0819,17.0457,40.8038,25.2725
			c20.6652,12.7017,43.3376,23.2974,67.6883,26.0286c27.6085,2.3367,55.9079,5.4297,82.9898-2.468
			c13.36-3.9158,32.5772-3.7185,38.1056-19.3489c-3.1261-2.0403-6.7129-4.2117-10.4971-2.6982
			c-19.3489,5.0676-38.4675,12.4387-58.7378,12.7349c-24.9101,0.3948-50.5441,0.9214-74.4341-7.3052
			c-23.0674-7.6345-43.1402-21.6855-63.0485-35.21c-12.6031-8.8518-27.8388-14.9722-43.4693-12.4385
			C-282.0022,2141.0916-288.748,2148.8245-295.0002,2155.2739z"/>
		<path fill="#4C2E12" stroke="#4C2E12" stroke-width="1.0152" d="M450.6244,2089.626
			c76.4084-15.8938,153.3764-29.0894,229.39-46.8258c16.5848,18.3947,32.2482,38.2045,41.3304,61.5348
			c13.2283,35.9668,25.4695,74.533,18.0327,113.198c-7.766,19.3489-26.4567,31.9189-44.4565,40.9023
			c-33.1697,13.689-69.3337,18.0659-104.8725,20.501c-39.3889,3.126-78.9094,2.04-118.3641,2.4021
			c-28.7602,0.592-57.2242-5.1665-84.6023-13.5574c-23.9229-7.3057-43.3376-25.7002-53.9992-48.0762
			c-10.1352-19.2175-9.6087-41.5938-9.8391-62.7197c0.5265-9.5759-0.2961-21.6191,8.6544-27.7397
			c9.6745-6.9106,19.316-14.084,25.9302-24.1536C388.6617,2099.2673,419.9885,2096.3716,450.6244,2089.626 M594.7212,2151.6873
			c-24.9102,16.8811-50.4125,34.8147-80.5218,40.804c-40.5406,7.042-82.9239,4.2776-121.4244-10.8591
			c-2.0072,0.9543-6.0218,2.8628-8.0291,3.8501c8.0621,15.5977,26.7858,16.552,41.9226,20.2046
			c14.5446,3.5537,29.5829,5.3638,44.5881,4.2117c18.9211-1.3489,38.2372-1.1187,56.5331-6.7456
			c23.4951-7.075,44.8184-19.7769,64.7596-33.7949c9.51-6.2192,19.0858-13.5574,30.6358-15.2356
			c11.1553-0.2302,21.9486,3.3235,32.9393,5.0017c-2.5338-5.5283-3.3893-13.2612-10.0364-15.4331
			C629.0754,2136.4517,609.3645,2141.3218,594.7212,2151.6873z"/>
	</g>
</g>
</svg>
