<?xml version="1.0" encoding="UTF-8" standalone="no"?>
<!-- Created with Inkscape (http://www.inkscape.org/) -->
<svg xmlns:svg="http://www.w3.org/2000/svg" xmlns="http://www.w3.org/2000/svg" xmlns:inkscape="http://www.inkscape.org/namespaces/inkscape" xmlns:sodipodi="http://sodipodi.sourceforge.net/DTD/sodipodi-0.dtd" xmlns:ns1="http://sozi.baierouge.fr" xmlns:xlink="http://www.w3.org/1999/xlink" xmlns:dc="http://purl.org/dc/elements/1.1/" xmlns:cc="http://web.resource.org/cc/" viewBox="0 0 345 377" inkscape:version="0.91 r13725" xmlns:rdf="http://www.w3.org/1999/02/22-rdf-syntax-ns#">
  <title>Kommentare auf Webseiten</title>
  <rect width="237.1" height="158.9" x="74.06" y="60.14" style="fill:#e2eae6"/>
  <rect width="343.5" height="10.33" x="0.486" y="322.4" style="fill:#636051;stroke:#303430;stroke-width:0.2"/>
  <rect width="343" height="9.546" x="0.3659" y="163.2" style="fill:#9a694b"/>
  <rect width="343" height="7.638" x="0.3658" y="172.1" style="fill:#a97d56"/>
  <path d="m 297,285.3 c 0,0 -1.5,4.2 -1.5,8.6 0,4.5 0.6,23.2 0,26.7 -0.7,3.5 -5.5,15 -5.5,15 0,0 5.5,-3.2 4.2,0 -1.3,3.2 -2.6,6 -4.5,7.6 -1.9,1.6 -8.3,5.8 -10.2,5.8 -1.9,0 -5.1,-1 -5.4,-3.2 -0.3,-2.2 -0.9,-7.3 0.3,-9.6 1.3,-2.2 8.3,-36.2 9,-40.1 0.6,-3.8 1.5,-13 1.5,-13 z" style="fill:#cccccc;stroke:#777777;stroke-width:0.2"/>
  <path d="m 167.8,288.1 c 0,0 -1.9,14.4 -0.9,19.8 0.9,5.4 3.8,14.3 3.8,19.1 0,4.7 -1.9,4.7 -1.9,4.7 l 1.9,10.5 c 0,0 -2.5,-1.6 -2.5,1.6 0,3.2 -0.4,9.2 1.6,11.2 1.9,1.9 2.8,3.8 6.3,3.5 3.5,-0.4 4.5,-1.6 5.4,-4.2 1,-2.5 4.5,-8.9 4.2,-11.1 -0.4,-2.2 -3.5,-3.5 -3.5,-3.5 0,0 -2.3,-11.5 -1.6,-18.1 0.6,-6.7 0.6,-22.3 0.9,-25.8 0.3,-3.5 2.3,-14.3 2.3,-14.3 z" style="fill:#cccccc;stroke:#777777;stroke-width:0.2"/>
  <path d="m 193,282.4 c 0,0 1.6,10.5 1.6,14.3 0,3.8 1.6,20.7 2.2,26.4 0.6,5.8 0.3,12.1 0.3,12.1 l -1.6,0 c 0,0 0.7,8.3 0.7,11.5 0,3.2 -1.6,7.6 -1.6,9.5 0,1.9 0.9,6.1 3.8,6.7 2.9,0.6 11.5,-1.9 11.5,-1.9 l 0.3,-1.9 c 0,0 6,-1.3 7.3,-3.2 1.3,-1.9 0.9,-6.4 0.3,-7.9 -0.6,-1.6 -3.8,-2.9 -5.4,-2.3 -1.6,0.7 -2.5,-0.9 -2.5,-0.9 0,0 -1,-5.8 -1,-8 0,-2.2 -2.2,-2.8 -2.2,-2.8 0,0 0.3,-11.8 1.2,-18.2 1,-6.3 1,-17.8 1,-21 0,-3.2 1.3,-13.7 0,-13.3 -1.3,0.3 -15.9,0.9 -15.9,0.9 z" style="fill:#cccccc;stroke:#777777;stroke-width:0.2"/>
  <path d="m 269.4,288.8 c 0,0 0.9,7 0.9,10.8 0,3.9 -1.9,17.9 1.6,25.8 3.5,8 7.6,17.5 7.6,17.5 l -1.9,1 c 0,0 4.5,7.3 4.5,9.8 0,2.6 -2.2,1.3 -3.2,2.6 -1,1.3 -1.6,5.7 1.6,9.5 3.2,3.8 4.8,5.1 8.3,4.8 3.5,-0.3 5.7,-4.5 5.7,-4.5 0,0 1,0 1.3,-2.5 0.3,-2.5 -1,-11.5 -1.3,-13.4 -0.3,-1.9 -2.2,-8.6 -2.2,-8.6 l -2.9,-2.2 c 0,0 -3.5,-27.7 -3.5,-30.5 0,-2.9 1,-10.5 1,-15 0,-4.4 0,-8.9 0,-8.9 0,0 -3.9,-1.9 -7.4,-1.6 -3.5,0.3 -10.1,5.4 -10.1,5.4 z" style="fill:#cccccc;stroke:#777777;stroke-width:0.2"/>
  <path d="m 163.6,149.3 c 0,0 -6.2,1.8 -7.6,19.8 -1.4,18 -2.3,23.9 -1.4,27.9 1,4.1 1.4,7.2 3.6,6.8 2.3,-0.5 4.1,-1.8 5.9,-5 1.8,-3.1 0.5,-16.2 1.8,-22 1.4,-5.9 3.6,-20.3 3.6,-20.3 z" style="fill:#cccccc;stroke:#777777;stroke-width:0.2"/>
  <path d="m 205.1,150.2 c 0,0 4,-1.8 6.3,0 2.2,1.8 4.9,10.4 4.9,18.5 0,8.1 2.3,18 0.5,21.1 -1.8,3.2 -5.4,10.4 -6.8,6.8 -1.3,-3.6 -6.3,-18 -4.9,-27.5 1.3,-9.4 0,-18.9 0,-18.9 z" style="fill:#cccccc;stroke:#777777;stroke-width:0.2"/>
  <path d="m 266.3,166.3 c 0,0 0.9,-2.7 -3.6,-2.7 -4.5,0 -9.5,-1.8 -9.5,-1.8 l 10.4,0.4 4,-8.5 c 0,0 -5.8,0.4 -13.5,0.9 -7.6,0.4 -15.7,-2.3 -20.2,2.2 -4.5,4.5 -7.7,5.9 -5.4,9 2.2,3.2 13.5,8.1 17.5,10.4 4.1,2.2 18.9,5.4 21.6,4.5 2.7,-0.9 -1.3,-14.4 -1.3,-14.4 z" style="fill:#cccccc;stroke:#777777;stroke-width:0.2"/>
  <path d="m 172.7,145.3 c -3.2,0.4 -8.1,3.1 -10.4,4.5 -2.3,1.3 -1.3,8.1 -0.9,15.7 0.4,7.7 5.9,22.5 5.9,25.7 0,3.1 -4.1,32.8 -6.3,46.3 -2.3,13.5 -10.9,42.8 -7.2,44.1 3.6,1.4 3.6,-0.9 7.2,3.6 3.6,4.5 1.3,7.2 9.9,4.1 8.5,-3.2 13,-0.5 17.1,-0.9 4,-0.5 4.9,-1.8 4.9,-1.8 l 5.9,0 c 0,0 -7.2,1.3 0.4,1.8 7.7,0.4 12.6,0 12.6,0 l 0.5,-2.7 4,-1.8 8.6,0.9 c 0,0 -0.9,-27.9 -3.2,-40.5 -2.2,-12.6 -8.1,-39.6 -9,-46.4 -0.9,-6.7 -7.2,-9.9 -7.2,-19.8 0,-9.9 2.7,-30.6 2.7,-30.6 0,0 -4,-3.1 -8.5,-3.1 -4.5,0 -24.8,1.3 -24.8,1.3 z" style="fill:#f9f9f9;stroke:#777777;stroke-width:0.2"/>
  <path d="m 276.2,165.8 c 0,0 -8.1,4.1 -10.8,5.9 -2.7,1.8 -5,3.6 -3.6,9.4 1.3,5.9 4.9,15.8 4.9,20.3 0,4.5 -9,30.1 -10.8,36.4 -1.8,6.3 -9,54 -9,54 0,0 6.8,3.6 9.9,2.3 3.2,-1.4 14,-1.4 14,-1.4 l 0.4,-2.2 6.8,0.4 0,-3.1 c 0,0 2.7,-2.7 12.1,0.9 9.5,3.6 13.1,3.6 13.1,3.6 0,0 3.6,-1.4 5.8,-1.4 2.3,0 5.9,2.7 8.6,2.7 2.7,0 4.5,-0.4 4.5,-0.4 0,0 -6.3,-42.8 -6.3,-46.8 0,-4.1 -0.5,-14.9 -1.4,-23 -0.9,-8.1 -4.9,-18 -5.4,-22 -0.4,-4.1 -0.9,-17.6 -0.9,-21.2 0,-3.6 -5.8,-9.4 -6.3,-11.7 -0.4,-2.2 -25.6,-2.7 -25.6,-2.7 z" style="fill:#f9f9f9;stroke:#777777;stroke-width:0.2"/>
  <path d="m 281.1,122.2 c -4.5,1.7 -12.1,5.4 -12.6,9.9 -0.4,4.5 -0.4,13.5 -1.8,19.3 -1.3,5.9 -4.9,17.1 -5.4,19.4 -0.4,2.2 -2.7,5.8 0.5,9.9 3.1,4 4.5,-0.9 6.3,-2.7 1.8,-1.8 4.5,1.3 4.5,4 0,2.7 1.3,6.8 1.3,0.5 0,-6.3 2.3,-14.4 2.3,-14.4 0,0 2.7,13.5 6.3,16.2 3.6,2.7 12.1,4 12.1,4 0,0 -9.4,-3.1 -9.4,-6.3 0,-3.1 2.2,-12.1 2.2,-12.1 l 1.8,7.2 1.8,3.6 c 0,0 1.8,-5.9 1.8,-7.2 0,-1.4 5.4,9 5.4,9 0,0 6.8,0.9 10.4,-1.4 3.6,-2.2 -1.8,-0.9 -2.7,-3.6 -0.9,-2.7 -4.5,-10.8 -1.8,-7.6 2.7,3.1 13.5,9.9 13.5,9.9 0,0 -2.3,-4.1 -4.5,-7.7 -2.3,-3.6 -2.3,-7.2 -3.2,-13.9 -0.9,-6.8 -7.2,-10.8 -7.6,-16.7 -0.5,-5.8 0.4,-9.4 -4.5,-14.4 -5,-4.9 -16.7,-4.9 -16.7,-4.9 z" style="fill:#cccccc;stroke:#777777;stroke-width:0.2"/>
  <path d="m 194.7,97.12 c 0,0 -9,-1.36 -13.9,4.98 -5,6.3 -6.8,14.8 -9.1,18.9 -2.2,4 -3.1,13 -4,16.6 -0.9,3.6 -1.8,7.2 3.6,12.6 5.4,5.4 6.8,5.4 9.9,6.3 3.2,0.9 0.9,0 0.9,-3.1 0,-3.2 1.8,-11.3 1.8,-11.3 0,0 0.9,4.5 1.8,7.7 0.9,3.1 1.8,5.8 5,6.7 3.1,0.9 1.8,-1.8 1.8,-3.6 0,-1.8 3.6,3.2 3.6,3.2 0,0 4.9,0.4 6.7,-0.5 1.8,-0.9 3.6,-4.5 3.6,-4.5 l 1.4,2.3 c 0,0 -0.9,1.3 1.8,-0.9 2.7,-2.3 6.3,-5.9 6.3,-5.9 0,0 1.3,-8.1 -0.9,-17.1 -2.3,-9 -3.6,-14.8 -5.4,-19.8 -1.8,-4.9 0,-3.6 -3.6,-7.6 -3.7,-4.09 -11.3,-4.98 -11.3,-4.98 z" style="fill:#cccccc;stroke:#777777;stroke-width:0.2"/>
  <path d="m 166.3,198.4 c 0,0 3.2,5.8 17.6,4.5 14.4,-1.4 27,-10.8 27,-10.8 0,0 1.1,3.2 2,5 0.9,1.8 0.5,4.4 0.5,4.4 0,0 -9.7,3.6 -15.1,5.4 -5.4,1.8 -17.1,4.1 -21.6,2.7 -4.5,-1.3 -11.7,-3.1 -11.7,-3.1 z" style="fill:#c0c0c0;stroke:#777777;stroke-width:0.2"/>
  <path d="M 266.3,205.9 264,214 c 0,0 10.4,-4.5 21.2,-4.5 10.8,0 26.1,0.4 26.1,0.4 l -2.3,-8.5 c 0,0 -18.4,-0.5 -24.3,0.4 -5.8,0.9 -13,-0.9 -18.4,4.1 z" style="fill:#c0c0c0;stroke:#777777;stroke-width:0.2"/>
  <path d="m 160,280.7 c 0,0 12.2,-46.8 12.7,-52.6 0.4,-5.9 1.8,-15.8 1.8,-15.8" style="fill:none;stroke:#777777;stroke-width:0.2"/>
  <path d="m 184.8,215 c 0,0 2.2,14.4 1.8,24.3 -0.4,9.9 -3.2,44.6 -3.2,44.6" style="fill:none;stroke:#777777;stroke-width:0.2"/>
  <path d="m 199.2,210.1 c 0,0 1.4,14.4 1.4,29.2 0,14.9 -3.2,45.5 -3.2,45.5" style="fill:none;stroke:#777777;stroke-width:0.2"/>
  <path d="m 205.1,209.2 c 0,0 6.3,26.1 7.2,32.8 0.9,6.8 3.6,38.3 3.6,38.3" style="fill:none;stroke:#777777;stroke-width:0.2"/>
  <path d="m 272.6,215.8 c 0,0 -8.1,14.4 -8.6,24.3 -0.4,9.9 -5.4,52.2 -5.4,52.2" style="fill:none;stroke:#777777;stroke-width:0.2"/>
  <path d="m 280.7,213.1 c 0,0 -4.1,17.1 -5,27.9 -0.9,10.8 -4.5,46.8 -4.5,46.8" style="fill:none;stroke:#777777;stroke-width:0.2"/>
  <path d="m 288.8,213.5 c -0.5,1.8 -5,32.9 -5.4,44.1 -0.5,11.3 -2.3,27.5 -2.3,27.5" style="fill:none;stroke:#777777;stroke-width:0.2"/>
  <path d="m 296.9,213.5 c -1.4,5.4 -3.2,30.2 -3.2,41 0,10.8 1.8,34.6 1.8,34.6" style="fill:none;stroke:#777777;stroke-width:0.2"/>
  <path d="m 303.2,212.2 c 0,0 -0.9,37.3 0,45.9 0.9,8.5 6.7,29.7 6.7,29.7" style="fill:none;stroke:#777777;stroke-width:0.2"/>
  <path d="m 168.4,223.3 a 1.265,1.424 0 1 1 -2.5,0 1.265,1.424 0 1 1 2.5,0 z" fill="#636051"/>
  <path d="m 169.5,227 a 1.187,1.108 0 0 1 -2.3,0 1.187,1.108 0 1 1 2.3,0 z" fill="#636051"/>
  <path d="m 172.5,225.6 a 1.506,1.268 0 0 1 -3,0 1.506,1.268 0 1 1 3,0 z" fill="#636051"/>
  <path d="m 172.1,222.2 a 1.2,1.12 0 0 1 -2.4,0 1.2,1.12 0 1 1 2.4,0 z" fill="#636051"/>
  <path d="m 169.2,221.5 a 0.8699,0.8699 0 1 1 -1.7,0 0.8699,0.8699 0 1 1 1.7,0 z" fill="#636051"/>
  <path d="m 174.9,244.4 a 1.265,1.424 0 1 1 -2.5,0 1.265,1.424 0 1 1 2.5,0 z" fill="#636051"/>
  <path d="m 176,248 a 1.2,1.12 0 0 1 -2.4,0 1.2,1.12 0 1 1 2.4,0 z" fill="#636051"/>
  <path d="m 179,246.6 a 1.506,1.268 0 0 1 -3,0 1.506,1.268 0 1 1 3,0 z" fill="#636051"/>
  <path d="m 178.6,243.3 a 1.2,1.12 0 0 1 -2.4,0 1.2,1.12 0 1 1 2.4,0 z" fill="#636051"/>
  <path d="m 175.7,242.6 a 0.8699,0.8699 0 1 1 -1.7,0 0.8699,0.8699 0 1 1 1.7,0 z" fill="#636051"/>
  <path d="m 181.1,227.9 a 1.3,1.463 0 0 1 -2.6,0 1.3,1.463 0 1 1 2.6,0 z" fill="#636051"/>
  <path d="m 182.2,231.6 a 1.2,1.12 0 0 1 -2.4,0 1.2,1.12 0 1 1 2.4,0 z" fill="#636051"/>
  <path d="m 185.2,230.1 a 1.506,1.268 0 0 1 -3,0 1.506,1.268 0 1 1 3,0 z" fill="#636051"/>
  <path d="m 184.7,226.8 a 1.2,1.12 0 0 1 -2.4,0 1.2,1.12 0 1 1 2.4,0 z" fill="#636051"/>
  <path d="m 181.9,226.1 a 0.9,0.9 0 0 1 -1.8,0 0.9,0.9 0 1 1 1.8,0 z" fill="#636051"/>
  <path d="m 191.5,245.5 a 1.265,1.424 0 1 1 -2.5,0 1.265,1.424 0 1 1 2.5,0 z" fill="#636051"/>
  <path d="m 192.6,249.1 a 1.2,1.12 0 0 1 -2.4,0 1.2,1.12 0 1 1 2.4,0 z" fill="#636051"/>
  <path d="m 195.6,247.7 a 1.506,1.268 0 0 1 -3,0 1.506,1.268 0 1 1 3,0 z" fill="#636051"/>
  <path d="m 195.2,244.4 a 1.2,1.12 0 0 1 -2.4,0 1.2,1.12 0 1 1 2.4,0 z" fill="#636051"/>
  <path d="m 192.3,243.7 a 0.8699,0.8699 0 1 1 -1.7,0 0.8699,0.8699 0 1 1 1.7,0 z" fill="#636051"/>
  <path d="m 195.5,227.8 a 1.3,1.463 0 0 1 -2.6,0 1.3,1.463 0 1 1 2.6,0 z" fill="#636051"/>
  <path d="m 196.6,231.4 a 1.2,1.12 0 0 1 -2.4,0 1.2,1.12 0 1 1 2.4,0 z" fill="#636051"/>
  <path d="m 199.6,230 a 1.506,1.268 0 0 1 -3,0 1.506,1.268 0 1 1 3,0 z" fill="#636051"/>
  <path d="m 199.1,226.7 a 1.2,1.12 0 0 1 -2.4,0 1.2,1.12 0 1 1 2.4,0 z" fill="#636051"/>
  <path d="m 196.3,226 a 0.9,0.9 0 0 1 -1.8,0 0.9,0.9 0 1 1 1.8,0 z" fill="#636051"/>
  <path d="m 203.1,271.7 a 1.3,1.463 0 0 1 -2.6,0 1.3,1.463 0 1 1 2.6,0 z" fill="#636051"/>
  <path d="m 204.2,275.4 a 1.2,1.12 0 0 1 -2.4,0 1.2,1.12 0 1 1 2.4,0 z" fill="#636051"/>
  <path d="m 207.2,274 a 1.506,1.268 0 0 1 -3,0 1.506,1.268 0 1 1 3,0 z" fill="#636051"/>
  <path d="m 206.7,270.6 a 1.2,1.12 0 0 1 -2.4,0 1.2,1.12 0 1 1 2.4,0 z" fill="#636051"/>
  <path d="m 203.9,269.9 a 0.9,0.9 0 0 1 -1.8,0 0.9,0.9 0 1 1 1.8,0 z" fill="#636051"/>
  <path d="m 193.1,259.4 a 1.265,1.424 0 1 1 -2.5,0 1.265,1.424 0 1 1 2.5,0 z" fill="#636051"/>
  <path d="m 194.2,263.1 a 1.2,1.12 0 0 1 -2.4,0 1.2,1.12 0 1 1 2.4,0 z" fill="#636051"/>
  <path d="m 197.2,261.6 a 1.506,1.268 0 0 1 -3,0 1.506,1.268 0 1 1 3,0 z" fill="#636051"/>
  <path d="m 196.7,258.3 a 1.187,1.108 0 0 1 -2.3,0 1.187,1.108 0 1 1 2.3,0 z" fill="#636051"/>
  <path d="m 193.9,257.6 a 0.9,0.9 0 0 1 -1.8,0 0.9,0.9 0 1 1 1.8,0 z" fill="#636051"/>
  <path d="m 165.5,259.2 -0.6,2.5 c 0.6,-0.1 1.1,-0.6 1.1,-1.4 0,-0.4 -0.2,-0.8 -0.5,-1.1 z" fill="#636051"/>
  <path d="m 167.2,264 a 1.2,1.12 0 0 1 -2.4,0 1.2,1.12 0 1 1 2.4,0 z" fill="#636051"/>
  <path d="m 170.2,262.6 a 1.506,1.268 0 0 1 -3,0 1.506,1.268 0 1 1 3,0 z" fill="#636051"/>
  <path d="m 169.7,259.3 a 1.2,1.12 0 0 1 -2.4,0 1.2,1.12 0 1 1 2.4,0 z" fill="#636051"/>
  <path d="m 166,257.7 -0.5,1.6 c 0.2,0.1 0.3,0.1 0.5,0.1 0.4,0 0.8,-0.4 0.8,-0.8 0,-0.5 -0.4,-0.9 -0.8,-0.9 z" fill="#636051"/>
  <path d="m 214.1,259.4 0.2,2.4 c 0.3,-0.3 0.5,-0.7 0.5,-1.1 0,-0.6 -0.3,-1 -0.7,-1.3 z" fill="#636051"/>
  <path d="m 214.7,263.2 c -0.1,0 -0.2,0 -0.3,0 l 0.2,2.2 c 0,0 0,0 0.1,0 0.7,0 1.2,-0.5 1.2,-1.1 0,-0.6 -0.5,-1.1 -1.2,-1.1 z" fill="#636051"/>
  <path d="m 218.9,262.9 a 1.506,1.268 0 0 1 -3,0 1.506,1.268 0 1 1 3,0 z" fill="#636051"/>
  <path d="m 218.4,259.6 a 1.2,1.12 0 0 1 -2.4,0 1.2,1.12 0 1 1 2.4,0 z" fill="#636051"/>
  <path d="m 214.7,258 c -0.3,0 -0.5,0.1 -0.7,0.3 l 0.1,1.2 c 0.2,0.1 0.4,0.2 0.6,0.2 0.5,0 0.9,-0.4 0.9,-0.8 0,-0.5 -0.4,-0.9 -0.9,-0.9 z" fill="#636051"/>
  <path d="m 210.8,234.3 c 0.3,0.9 0.4,1.8 0.6,2.6 0.4,-0.2 0.7,-0.7 0.7,-1.2 0,-0.8 -0.6,-1.4 -1.3,-1.4 z" fill="#636051"/>
  <path d="m 212,238.2 c -0.1,0 -0.2,0 -0.3,0.1 0.1,0.8 0.2,1.3 0.4,2.2 0.6,0 1.1,-0.5 1.1,-1.1 0,-0.6 -0.5,-1.1 -1.2,-1.1 z" fill="#636051"/>
  <path d="m 216.2,237.9 a 1.506,1.268 0 0 1 -3,0 1.506,1.268 0 1 1 3,0 z" fill="#636051"/>
  <path d="m 215.7,234.6 a 1.2,1.12 0 0 1 -2.4,0 1.2,1.12 0 1 1 2.4,0 z" fill="#636051"/>
  <path d="m 212.9,233.9 a 0.9,0.9 0 0 1 -1.8,0 0.9,0.9 0 1 1 1.8,0 z" fill="#636051"/>
  <path d="m 167.3,276.3 a 1.265,1.424 0 1 1 -2.5,0 1.265,1.424 0 1 1 2.5,0 z" fill="#636051"/>
  <path d="m 168.4,280 a 1.2,1.12 0 0 1 -2.4,0 1.2,1.12 0 1 1 2.4,0 z" fill="#636051"/>
  <path d="m 171.4,278.5 a 1.506,1.268 0 0 1 -3,0 1.506,1.268 0 1 1 3,0 z" fill="#636051"/>
  <path d="m 171,275.2 a 1.2,1.12 0 0 1 -2.4,0 1.2,1.12 0 1 1 2.4,0 z" fill="#636051"/>
  <path d="m 168.1,274.5 a 0.8699,0.8699 0 1 1 -1.7,0 0.8699,0.8699 0 1 1 1.7,0 z" fill="#636051"/>
  <path d="m 176.6,196.5 a 1.265,1.424 0 1 1 -2.5,0 1.265,1.424 0 1 1 2.5,0 z" fill="#636051"/>
  <path d="m 177.8,200.1 a 1.2,1.12 0 0 1 -2.4,0 1.2,1.12 0 1 1 2.4,0 z" fill="#636051"/>
  <path d="m 180.8,198.7 a 1.506,1.268 0 0 1 -3,0 1.506,1.268 0 1 1 3,0 z" fill="#636051"/>
  <path d="m 180.3,195.4 a 1.2,1.12 0 0 1 -2.4,0 1.2,1.12 0 1 1 2.4,0 z" fill="#636051"/>
  <path d="m 177.4,194.6 a 0.8699,0.8699 0 1 1 -1.7,0 0.8699,0.8699 0 1 1 1.7,0 z" fill="#636051"/>
  <path d="m 186.1,189.5 a 1.265,1.424 0 1 1 -2.5,0 1.265,1.424 0 1 1 2.5,0 z" fill="#636051"/>
  <path d="m 187.2,193.1 a 1.187,1.108 0 0 1 -2.3,0 1.187,1.108 0 1 1 2.3,0 z" fill="#636051"/>
  <path d="m 190.3,191.7 a 1.55,1.305 0 0 1 -3.1,0 1.55,1.305 0 1 1 3.1,0 z" fill="#636051"/>
  <path d="m 189.8,188.4 a 1.2,1.12 0 0 1 -2.4,0 1.2,1.12 0 1 1 2.4,0 z" fill="#636051"/>
  <path d="m 186.9,187.7 a 0.8699,0.8699 0 1 1 -1.7,0 0.8699,0.8699 0 1 1 1.7,0 z" fill="#636051"/>
  <path d="m 170.3,169.6 a 1.265,1.424 0 1 1 -2.5,0 1.265,1.424 0 1 1 2.5,0 z" fill="#636051"/>
  <path d="m 171.4,173.2 a 1.187,1.108 0 0 1 -2.3,0 1.187,1.108 0 1 1 2.3,0 z" fill="#636051"/>
  <path d="m 174.4,171.8 a 1.506,1.268 0 0 1 -3,0 1.506,1.268 0 1 1 3,0 z" fill="#636051"/>
  <path d="m 174,168.5 a 1.2,1.12 0 0 1 -2.4,0 1.2,1.12 0 1 1 2.4,0 z" fill="#636051"/>
  <path d="m 171.1,167.8 a 0.8699,0.8699 0 1 1 -1.7,0 0.8699,0.8699 0 1 1 1.7,0 z" fill="#636051"/>
  <path d="m 187.7,161.8 a 1.265,1.424 0 1 1 -2.5,0 1.265,1.424 0 1 1 2.5,0 z" fill="#636051"/>
  <path d="m 188.8,165.5 a 1.187,1.108 0 0 1 -2.3,0 1.187,1.108 0 1 1 2.3,0 z" fill="#636051"/>
  <path d="m 191.8,164 a 1.506,1.268 0 0 1 -3,0 1.506,1.268 0 1 1 3,0 z" fill="#636051"/>
  <path d="m 191.4,160.7 a 1.2,1.12 0 0 1 -2.4,0 1.2,1.12 0 1 1 2.4,0 z" fill="#636051"/>
  <path d="m 188.5,160 a 0.8699,0.8699 0 1 1 -1.7,0 0.8699,0.8699 0 1 1 1.7,0 z" fill="#636051"/>
  <path d="m 197.5,177.9 a 1.265,1.424 0 1 1 -2.5,0 1.265,1.424 0 1 1 2.5,0 z" fill="#636051"/>
  <path d="m 198.6,181.6 a 1.187,1.108 0 0 1 -2.3,0 1.187,1.108 0 1 1 2.3,0 z" fill="#636051"/>
  <path d="m 201.6,180.2 a 1.506,1.268 0 0 1 -3,0 1.506,1.268 0 1 1 3,0 z" fill="#636051"/>
  <path d="m 201.2,176.8 a 1.2,1.12 0 0 1 -2.4,0 1.2,1.12 0 1 1 2.4,0 z" fill="#636051"/>
  <path d="m 198.3,176.1 a 0.8699,0.8699 0 1 1 -1.7,0 0.8699,0.8699 0 1 1 1.7,0 z" fill="#636051"/>
  <path d="m 199.4,191.7 a 1.265,1.424 0 1 1 -2.5,0 1.265,1.424 0 1 1 2.5,0 z" fill="#636051"/>
  <path d="m 200.5,195.4 a 1.187,1.108 0 0 1 -2.3,0 1.187,1.108 0 1 1 2.3,0 z" fill="#636051"/>
  <path d="m 203.5,193.9 a 1.506,1.268 0 0 1 -3,0 1.506,1.268 0 1 1 3,0 z" fill="#636051"/>
  <path d="m 203.1,190.6 a 1.2,1.12 0 0 1 -2.4,0 1.2,1.12 0 1 1 2.4,0 z" fill="#636051"/>
  <path d="m 200.2,189.9 a 0.8699,0.8699 0 1 1 -1.7,0 0.8699,0.8699 0 1 1 1.7,0 z" fill="#636051"/>
  <path d="m 180.6,175.6 a 1.265,1.424 0 1 1 -2.5,0 1.265,1.424 0 1 1 2.5,0 z" fill="#636051"/>
  <path d="m 181.7,179.2 a 1.2,1.12 0 0 1 -2.4,0 1.2,1.12 0 1 1 2.4,0 z" fill="#636051"/>
  <path d="m 184.7,177.8 a 1.506,1.268 0 0 1 -3,0 1.506,1.268 0 1 1 3,0 z" fill="#636051"/>
  <path d="m 184.2,174.5 a 1.187,1.108 0 0 1 -2.3,0 1.187,1.108 0 1 1 2.3,0 z" fill="#636051"/>
  <path d="m 181.4,173.8 a 0.8699,0.8699 0 1 1 -1.7,0 0.8699,0.8699 0 1 1 1.7,0 z" fill="#636051"/>
  <path d="m 171.7,185.7 a 1.265,1.424 0 1 1 -2.5,0 1.265,1.424 0 1 1 2.5,0 z" fill="#636051"/>
  <path d="m 172.9,189.3 a 1.2,1.12 0 0 1 -2.4,0 1.2,1.12 0 1 1 2.4,0 z" fill="#636051"/>
  <path d="m 175.9,187.9 a 1.506,1.268 0 0 1 -3,0 1.506,1.268 0 1 1 3,0 z" fill="#636051"/>
  <path d="m 175.4,184.6 a 1.2,1.12 0 0 1 -2.4,0 1.2,1.12 0 1 1 2.4,0 z" fill="#636051"/>
  <path d="m 172.5,183.9 a 0.8699,0.8699 0 1 1 -1.7,0 0.8699,0.8699 0 1 1 1.7,0 z" fill="#636051"/>
  <path d="m 267.9,188.4 a 1.265,1.424 0 1 1 -2.5,0 1.265,1.424 0 1 1 2.5,0 z" fill="#636051"/>
  <path d="m 269,192 a 1.2,1.12 0 0 1 -2.4,0 1.2,1.12 0 1 1 2.4,0 z" fill="#636051"/>
  <path d="m 272,190.6 a 1.506,1.268 0 0 1 -3,0 1.506,1.268 0 1 1 3,0 z" fill="#636051"/>
  <path d="m 271.6,187.3 a 1.2,1.12 0 0 1 -2.4,0 1.2,1.12 0 1 1 2.4,0 z" fill="#636051"/>
  <path d="m 268.7,186.6 a 0.8699,0.8699 0 1 1 -1.7,0 0.8699,0.8699 0 1 1 1.7,0 z" fill="#636051"/>
  <path d="m 282.8,196.1 a 1.265,1.424 0 1 1 -2.5,0 1.265,1.424 0 1 1 2.5,0 z" fill="#636051"/>
  <path d="m 283.9,199.8 a 1.2,1.12 0 0 1 -2.4,0 1.2,1.12 0 1 1 2.4,0 z" fill="#636051"/>
  <path d="m 286.9,198.3 a 1.506,1.268 0 0 1 -3,0 1.506,1.268 0 1 1 3,0 z" fill="#636051"/>
  <path d="m 286.4,195 a 1.2,1.12 0 0 1 -2.4,0 1.2,1.12 0 1 1 2.4,0 z" fill="#636051"/>
  <path d="m 283.6,194.3 a 0.9,0.9 0 0 1 -1.8,0 0.9,0.9 0 1 1 1.8,0 z" fill="#636051"/>
  <path d="m 297.3,182.4 a 1.265,1.424 0 1 1 -2.5,0 1.265,1.424 0 1 1 2.5,0 z" fill="#636051"/>
  <path d="m 298.4,186 a 1.187,1.108 0 0 1 -2.3,0 1.187,1.108 0 1 1 2.3,0 z" fill="#636051"/>
  <path d="m 301.4,184.6 a 1.506,1.268 0 0 1 -3,0 1.506,1.268 0 1 1 3,0 z" fill="#636051"/>
  <path d="m 296.7,179.9 c -0.2,0.1 -0.3,0.4 -0.3,0.7 0,0.4 0.4,0.8 0.8,0.8 0.2,0 0.2,0 0.3,0 l -0.8,-1.5 z" fill="#636051"/>
  <path d="m 301,195.2 a 1.3,1.463 0 0 1 -2.6,0 1.3,1.463 0 1 1 2.6,0 z" fill="#636051"/>
  <path d="m 302.1,198.8 a 1.2,1.12 0 0 1 -2.4,0 1.2,1.12 0 1 1 2.4,0 z" fill="#636051"/>
  <path d="m 305.1,197.4 a 1.506,1.268 0 0 1 -3,0 1.506,1.268 0 1 1 3,0 z" fill="#636051"/>
  <path d="m 304.6,194.1 a 1.2,1.12 0 0 1 -2.4,0 1.2,1.12 0 1 1 2.4,0 z" fill="#636051"/>
  <path d="m 301.8,193.4 a 0.9,0.9 0 0 1 -1.8,0 0.9,0.9 0 1 1 1.8,0 z" fill="#636051"/>
  <path d="m 282.9,220.6 a 1.265,1.424 0 1 1 -2.5,0 1.265,1.424 0 1 1 2.5,0 z" fill="#636051"/>
  <path d="m 284,224.3 a 1.187,1.108 0 0 1 -2.3,0 1.187,1.108 0 1 1 2.3,0 z" fill="#636051"/>
  <path d="m 287.1,222.8 a 1.55,1.305 0 0 1 -3.1,0 1.55,1.305 0 1 1 3.1,0 z" fill="#636051"/>
  <path d="m 286.6,219.5 a 1.2,1.12 0 0 1 -2.4,0 1.2,1.12 0 1 1 2.4,0 z" fill="#636051"/>
  <path d="m 283.7,218.8 a 0.8699,0.8699 0 1 1 -1.7,0 0.8699,0.8699 0 1 1 1.7,0 z" fill="#636051"/>
  <path d="m 268.1,233.6 a 1.3,1.463 0 0 1 -2.6,0 1.3,1.463 0 1 1 2.6,0 z" fill="#636051"/>
  <path d="m 269.2,237.3 a 1.2,1.12 0 0 1 -2.4,0 1.2,1.12 0 1 1 2.4,0 z" fill="#636051"/>
  <path d="m 272.2,235.8 a 1.506,1.268 0 0 1 -3,0 1.506,1.268 0 1 1 3,0 z" fill="#636051"/>
  <path d="m 271.7,232.5 a 1.2,1.12 0 0 1 -2.4,0 1.2,1.12 0 1 1 2.4,0 z" fill="#636051"/>
  <path d="m 268.9,231.8 a 0.9,0.9 0 0 1 -1.8,0 0.9,0.9 0 1 1 1.8,0 z" fill="#636051"/>
  <path d="m 261.7,265.9 -0.2,2.4 c 0.4,-0.2 0.7,-0.7 0.7,-1.3 0,-0.5 -0.2,-0.8 -0.5,-1.1 z" fill="#636051"/>
  <path d="m 262.1,269.6 c -0.3,0 -0.6,0.1 -0.8,0.3 l -0.2,1.3 c 0.2,0.3 0.6,0.6 1,0.6 0.7,0 1.2,-0.5 1.2,-1.1 0,-0.6 -0.5,-1.1 -1.2,-1.1 z" fill="#636051"/>
  <path d="m 266.2,269.2 a 1.506,1.268 0 0 1 -3,0 1.506,1.268 0 1 1 3,0 z" fill="#636051"/>
  <path d="m 265.7,265.9 a 1.2,1.12 0 0 1 -2.4,0 1.2,1.12 0 1 1 2.4,0 z" fill="#636051"/>
  <path d="m 262.1,264.3 c -0.1,0 -0.2,0 -0.2,0 l -0.2,1.6 c 0.1,0.1 0.3,0.1 0.4,0.1 0.5,0 0.9,-0.4 0.9,-0.8 0,-0.5 -0.4,-0.9 -0.9,-0.9 z" fill="#636051"/>
  <path d="m 273.9,263.8 c -0.1,0 -0.2,0 -0.2,0 l -0.3,2.7 c 0.1,0.1 0.3,0.1 0.5,0.1 0.7,0 1.3,-0.6 1.3,-1.4 0,-0.8 -0.6,-1.4 -1.3,-1.4 z" fill="#636051"/>
  <path d="m 276.3,268.9 a 1.2,1.12 0 0 1 -2.4,0 1.2,1.12 0 1 1 2.4,0 z" fill="#636051"/>
  <path d="m 279.3,267.5 a 1.506,1.268 0 0 1 -3,0 1.506,1.268 0 1 1 3,0 z" fill="#636051"/>
  <path d="m 278.8,264.1 a 1.187,1.108 0 0 1 -2.3,0 1.187,1.108 0 1 1 2.3,0 z" fill="#636051"/>
  <path d="m 276,263.4 a 0.9,0.9 0 0 1 -1.8,0 0.9,0.9 0 1 1 1.8,0 z" fill="#636051"/>
  <path d="m 286.6,258.4 a 1.3,1.463 0 0 1 -2.6,0 1.3,1.463 0 1 1 2.6,0 z" fill="#636051"/>
  <path d="m 287.7,262.1 a 1.2,1.12 0 0 1 -2.4,0 1.2,1.12 0 1 1 2.4,0 z" fill="#636051"/>
  <path d="m 290.7,260.7 a 1.506,1.268 0 0 1 -3,0 1.506,1.268 0 1 1 3,0 z" fill="#636051"/>
  <path d="m 290.2,257.3 a 1.2,1.12 0 0 1 -2.4,0 1.2,1.12 0 1 1 2.4,0 z" fill="#636051"/>
  <path d="m 287.4,256.6 a 0.9,0.9 0 0 1 -1.8,0 0.9,0.9 0 1 1 1.8,0 z" fill="#636051"/>
  <path d="m 298.6,243.7 a 1.265,1.424 0 1 1 -2.5,0 1.265,1.424 0 1 1 2.5,0 z" fill="#636051"/>
  <path d="m 299.7,247.4 a 1.2,1.12 0 0 1 -2.4,0 1.2,1.12 0 1 1 2.4,0 z" fill="#636051"/>
  <path d="m 302.7,245.9 a 1.506,1.268 0 0 1 -3,0 1.506,1.268 0 1 1 3,0 z" fill="#636051"/>
  <path d="m 302.2,242.6 a 1.187,1.108 0 0 1 -2.3,0 1.187,1.108 0 1 1 2.3,0 z" fill="#636051"/>
  <path d="m 299.4,241.9 a 0.9,0.9 0 0 1 -1.8,0 0.9,0.9 0 1 1 1.8,0 z" fill="#636051"/>
  <path d="m 307.8,266.3 a 1.3,1.463 0 0 1 -2.6,0 1.3,1.463 0 1 1 2.6,0 z" fill="#636051"/>
  <path d="m 308.9,270 a 1.2,1.12 0 0 1 -2.4,0 1.2,1.12 0 1 1 2.4,0 z" fill="#636051"/>
  <path d="m 311.9,268.6 a 1.506,1.268 0 0 1 -3,0 1.506,1.268 0 1 1 3,0 z" fill="#636051"/>
  <path d="m 311.4,265.2 a 1.2,1.12 0 0 1 -2.4,0 1.2,1.12 0 1 1 2.4,0 z" fill="#636051"/>
  <path d="m 308.5,264.5 a 0.8699,0.8699 0 1 1 -1.7,0 0.8699,0.8699 0 1 1 1.7,0 z" fill="#636051"/>
  <path d="m 309.7,247.5 a 1.3,1.463 0 0 1 -2.6,0 1.3,1.463 0 1 1 2.6,0 z" fill="#636051"/>
  <path d="m 310.8,251.2 a 1.2,1.12 0 0 1 -2.4,0 1.2,1.12 0 1 1 2.4,0 z" fill="#636051"/>
  <path d="m 313.8,249.7 a 1.506,1.268 0 0 1 -3,0 1.506,1.268 0 1 1 3,0 z" fill="#636051"/>
  <path d="m 313.3,246.4 a 1.2,1.12 0 0 1 -2.4,0 1.2,1.12 0 1 1 2.4,0 z" fill="#636051"/>
  <path d="m 310.4,245.7 a 0.8699,0.8699 0 1 1 -1.7,0 0.8699,0.8699 0 1 1 1.7,0 z" fill="#636051"/>
  <path d="m 298.6,280.9 a 1.265,1.424 0 1 1 -2.5,0 1.265,1.424 0 1 1 2.5,0 z" fill="#636051"/>
  <path d="m 299.7,284.5 a 1.2,1.12 0 0 1 -2.4,0 1.2,1.12 0 1 1 2.4,0 z" fill="#636051"/>
  <path d="m 302.7,283.1 a 1.506,1.268 0 0 1 -3,0 1.506,1.268 0 1 1 3,0 z" fill="#636051"/>
  <path d="m 302.2,279.8 a 1.2,1.12 0 0 1 -2.4,0 1.2,1.12 0 1 1 2.4,0 z" fill="#636051"/>
  <path d="m 299.4,279.1 a 0.9,0.9 0 0 1 -1.8,0 0.9,0.9 0 1 1 1.8,0 z" fill="#636051"/>
  <path d="m 287.2,282.8 a 1.265,1.424 0 1 1 -2.5,0 1.265,1.424 0 1 1 2.5,0 z" fill="#636051"/>
  <path d="m 288.3,286.4 a 1.2,1.12 0 0 1 -2.4,0 1.2,1.12 0 1 1 2.4,0 z" fill="#636051"/>
  <path d="m 291.3,285 a 1.506,1.268 0 0 1 -3,0 1.506,1.268 0 1 1 3,0 z" fill="#636051"/>
  <path d="m 290.8,281.7 a 1.187,1.108 0 0 1 -2.3,0 1.187,1.108 0 1 1 2.3,0 z" fill="#636051"/>
  <path d="m 288,281 a 0.9,0.9 0 0 1 -1.8,0 0.9,0.9 0 1 1 1.8,0 z" fill="#636051"/>
  <path d="m 265,286.7 a 1.265,1.424 0 1 1 -2.5,0 1.265,1.424 0 1 1 2.5,0 z" fill="#636051"/>
  <path d="m 266.2,290.4 a 1.2,1.12 0 0 1 -2.4,0 1.2,1.12 0 1 1 2.4,0 z" fill="#636051"/>
  <path d="m 269.2,289 a 1.506,1.268 0 0 1 -3,0 1.506,1.268 0 1 1 3,0 z" fill="#636051"/>
  <path d="m 268.7,285.6 a 1.2,1.12 0 0 1 -2.4,0 1.2,1.12 0 1 1 2.4,0 z" fill="#636051"/>
  <path d="m 265.8,284.9 a 0.8699,0.8699 0 1 1 -1.7,0 0.8699,0.8699 0 1 1 1.7,0 z" fill="#636051"/>
  <path d="m 250.6,287.5 a 1.265,1.424 0 1 1 -2.5,0 1.265,1.424 0 1 1 2.5,0 z" fill="#636051"/>
  <path d="m 251.8,291.2 a 1.2,1.12 0 0 1 -2.4,0 1.2,1.12 0 1 1 2.4,0 z" fill="#636051"/>
  <path d="m 254.8,289.8 a 1.506,1.268 0 0 1 -3,0 1.506,1.268 0 1 1 3,0 z" fill="#636051"/>
  <path d="m 254.3,286.4 a 1.2,1.12 0 0 1 -2.4,0 1.2,1.12 0 1 1 2.4,0 z" fill="#636051"/>
  <path d="m 251.4,285.7 a 0.8699,0.8699 0 1 1 -1.7,0 0.8699,0.8699 0 1 1 1.7,0 z" fill="#636051"/>
  <path d="m 255.2,245.9 c -0.4,0 -0.7,0.2 -0.9,0.6 l -0.2,1.4 c 0.1,0.5 0.6,0.9 1.1,0.9 0.7,0 1.3,-0.6 1.3,-1.4 0,-0.8 -0.6,-1.5 -1.3,-1.5 z" fill="#636051"/>
  <path d="m 257.6,251 a 1.2,1.12 0 0 1 -2.4,0 1.2,1.12 0 1 1 2.4,0 z" fill="#636051"/>
  <path d="m 260.6,249.6 a 1.506,1.268 0 0 1 -3,0 1.506,1.268 0 1 1 3,0 z" fill="#636051"/>
  <path d="m 260.1,246.3 a 1.187,1.108 0 0 1 -2.3,0 1.187,1.108 0 1 1 2.3,0 z" fill="#636051"/>
  <path d="m 257.3,245.6 a 0.8699,0.8699 0 1 1 -1.7,0 0.8699,0.8699 0 1 1 1.7,0 z" fill="#636051"/>
</svg>
