<?xml version="1.0" encoding="utf-8"?>
<!DOCTYPE svg PUBLIC "-//W3C//DTD SVG 1.1//EN" "http://www.w3.org/Graphics/SVG/1.1/DTD/svg11.dtd">
<svg version="1.1" id="Layer_1" xmlns="http://www.w3.org/2000/svg" xmlns:xlink="http://www.w3.org/1999/xlink" x="0px" y="0px"
	 viewBox="0 0 910 1449" enable-background="new 0 0 910 1449" xml:space="preserve">
<g>
	<path stroke="#000000" stroke-width="0.0938" d="M382.04,34.23c47.84-5.88,96.83-1.45,142.99,12.31
		c72,21.07,136.8199,64.17,186.31,120.26c24.7599,28.17,45.79,59.74,61.22,93.95c17.57,39.27,27.83,82.12,27.41,125.26
		c0.02,45.37-12.97,90.55-36.6,129.24c-8.7,14.11-18.11,27.96-29.82,39.77c-1.71,1.49-3.3,3.1-4.8,4.79
		c1.55,0.04,3.09,0.05,4.65,0.05c2.94,0.4,3.5099,3.7,4.09,6.08c1.61,8.11,4.38,16.77,11.35,21.87
		c7.81,5.67,18.24,4.68,27.0699,2.39c13.7401-4.17,26.42-12.56,35.1-24.05c4.28-5.22,4.59-12.83,1.13-18.56
		c-7.67-13.69-20.11-23.81-32.26-33.3701c-1.91-1.7599-5.31-3.08-4.74-6.21c0.13-4.75,3.26-8.69,5.55-12.65
		c3.18-0.22,6.45-0.18,9.41,1.17c15.47,5.97,30.4901,14.19,41.9301,26.39c9.48,9.5,15.93,22.53,15.71,36.14
		c0.12,12.56-6.14,24.24-14.24,33.47c-14.26,16.0699-34.19,27.45-55.6,30.24c-9.97,1.54-20.32,0.51-29.82-2.82
		c-11.17-4.09-20.85-12.53-25.8-23.4c-2.4-5.62-4.13-11.62-4.27-17.76c0-2.92,0.03-5.84-0.03-8.75c-2.1,1.9-4.13,3.88-6.16,5.87
		c-30.43,25.78-67.35,43.34-105.87,53.25c-40.36,10.58-82.51,12.73-124.03,10.17c-4.28-0.25-8.64-1.29-12.84,0.04
		c-0.17,5.72,1.76,11.16,3.05,16.66c3.35,13.55,6.99,27.02,10.82,40.45c0.74,2,1.02,4.56,3.06,5.75c2.63,0.72,5.34,1.12,8.02,1.66
		c0.93,2.65,1.78,5.34,2.33,8.11c8.4,39.4,24.99,76.36,42.44,112.46c12.89,27.04,26.12,53.97,36.99,81.91
		c8.75,21.89,15.35,44.58,20.19,67.64c5.68,1.58,10.82,4.59,16.38,6.51c0.19,0.23,0.58,0.7,0.77,0.93c0.7,1.58,2.64,0.87,2.81-0.64
		c0.14-0.32,0.41-0.96,0.55-1.28c7.95-9.05,15.02-18.89,23.39-27.58c5.52-6.16,11.1-12.28,17.45-17.6
		c10.46-9.96,22.82-18.19,36.62-22.67c2.71-0.63,5.69-0.41,8,1.26c17.52,10.79,31.16,26.77,42.45,43.76
		c6.41,9.83,12.27,20.01,17.66,30.43c3.46,6.61,5.94,13.78,10.29,19.91c11.06,1.2401,22.29,5.29,30.23,13.34
		c0.91,0.83,1.9,1.59,2.91,2.35c0.05,0.27,0.16,0.81,0.22,1.08c-0.13,2.46,2.82,1.92,3.15-0.06c0.16-0.29,0.49-0.89,0.66-1.18
		c4.65-3.25,9.61-6.31,15.28-7.38c11.99-2.88,24.44,2.67,32.87,11.1c12.79,11.87,21.52,28.8999,20.83,46.61
		c-0.56,13.87-9.47,26.8099-21.68,33.08c-1.2,0.51-2.38,1.05-3.56,1.59c1.14,0.55,2.28,1.0901,3.47,1.5901
		c7.08,2.58,13.37,7,19.05,11.9c7.87,6.98,13.12,17.21,12.72,27.8799c-0.57,8.88-5.12,17.0701-11.06,23.52
		c-10.6,10.65-24.35,18.8401-39.52,20.3301c-7.75,0.9099-15.91-0.04-22.96-3.4701c-1.77-1.08-3.48-2.1799-5.19-3.2799
		c-0.3,1.9299-0.58,3.84-0.83,5.8099c-1.65,9.55-7.13,18.76-15.68,23.63c-9.03,5.36-20.28,5.3301-30.15,2.59
		c-15.73-4.35-30.7-13.95-38.71-28.5c-7.17-12.11-6.55-27.8099,0.29-39.9099c0.75-0.85,1.42-1.78,2.13-2.64l0.2-0.24
		c0.95-1.28,1.86-2.5601,2.77-3.86c-8.33,1.21-16.95,2.12-25.27,0.5l-0.53,0.0199c-7.38-0.1-14.54-3.5499-20.02-8.37
		c-8.37-7.34-11.65-19.21-10.1299-30.0199c2.1299-15.27,9.18-30.1101,20.75-40.4701c5.77-5.01,12.67-9.0699,20.25-10.47
		c1.64-0.1799,3.29-0.2999,4.94-0.42c-0.61-3.2699-1.2401-6.5399-1.69-9.83c-0.8701-11.3199,5.19-22.95,15.0699-28.61
		c1.53-0.84,3.09-1.61,4.64-2.39c-1.38-1.97-2.79-3.91-4.25-5.8c-11.65-17.7-23.09-35.65-36.71-51.93c-1.06-1.34-2.9-1.83-3.79-3.28
		c-19.67,12.53-35.79,30.07-51.39,47.31l-0.03-0.03c-1.2,1.09-2.38,2.22-3.56,3.34c1.12,1.4901,2.25,2.96,3.43,4.4301l0.23,0.28
		c6.53,9.29,10,21.23,7.21,32.47c-1.54,6.64-5.66,12.27-9.94,17.4299c-9.7,11.74-22.65,21.6001-37.77,24.8501
		c-7.03,1.6-14.26,0.71-21.37,0.36c-6.05,6.09-9.4,14.25-14.81,20.84c-3.65,7.3-8.47,13.98-12.43,21.14
		c-6.47,10.58-11.86,21.78-18.33,32.35c-2.44,0.22-4.89,0.17-7.3-0.1801c-2.55-1.36-5.16-2.6-7.61-4.1299
		c-0.81-5.5701,2.45-10.3301,4.39-15.27c9.51-21.63,20.27-42.7001,31.92-63.24c1.56-2.4,2.55-5.0901,3.41-7.79
		c-1.0099-3.25-2.37-6.4-4.3-9.2c-0.27-1.4801,0.32-3.4601-1.06-4.4601c-1.51,0.7001-1.53,3.0701-1.34,4.5701
		c-3.61,6.0599-6.8,12.4099-11.38,17.84c-14.37,18.35-34.42,31.09-55.04,41.35c0.01,13.62,1,27.23,0.86,40.86
		c-0.32,51.73-3.21,103.4-4.6,155.11c0.04,7.3101-0.36,14.66,0.57,21.9401c22.72,5.6799,45.47,11.2999,68.4,16.1
		c12.08,1.98,24.21,4.6901,36.52,4.42l0.48,0.9299l-0.2-0.9299c1.31-0.16,2.64-0.28,3.97-0.36c-1.27-1.3501-0.42-3.4601-1.45-4.9401
		c-5.59-9.0599-15.2401-14.61-24.78-18.71c-17.59-7.03-37.91-8.12-55.7-1.15c-3.6,1.3-7.06,3.67-11.07,2.98
		c-2.16-2.72-4.45-5.35-6.26-8.3099c-0.85-1.99-0.45-4.2301-0.57-6.3101c5.72-4.04,11.48-8.1,17.96-10.87
		c24.58-10.91,53.58-9.91,78.1,0.67c4.39,2.23,9.28,3.9299,12.88,7.3999c15.74,8.9,27.73,26.4901,26.52,45.0801
		c-0.81,7.66-3.04,15.6-8.09,21.59c-5.86,5.41-13.8,7.97-21.46,9.5701c-22.36,3.8199-45.08,0.11-67.23-3.3401
		c-27.92-4.4099-55.25-11.76-82.89-17.5599c-3.24-0.6801-8.12-1.3101-7.92-5.65c-0.13-14.23-1.19-28.46-0.51-42.6801
		c1.19-65.63,11.01-130.6499,18.42-195.76c-35.72,11.27-74.11,14.3401-111.12,8.4301c-5.37-0.99-10.82-1.76-16.06-3.33
		c-1.84-0.3301-2.49-2.4-2.64-3.98c0.31-3.5,1.12-6.91,1.85-10.3301c0.16-0.6,0.49-1.8099,0.66-2.41
		c7.1-0.97,14.23,0.3201,21.34,0.42c33.24,0.84,66.63-5.33,97.36-18.04c4.08-1.73,8.25-3.37,11.85-6.01
		c1.46-6.7899,0.66-14.1299,3.1-20.6c4.89-2.12,10.99-2.23,16.22-0.9c0.42,1.0601,0.77,2.16,1.05,3.29c0.26,2.63,0.41,5.26,0.65,7.9
		c1.28-1,2.54-2.02,3.81-3.03c12.44-9.52,25.22-20.11,31.54-34.87c3.58-7.8099,2.21-16.58,1.57-24.83
		c-5.72-70.84-26.32-139.2-43.44-207.85c-0.8-3.06-2.05-6.04-2.04-9.24c1.86-11.46,3.39-23.37,0.38-34.79
		c-1.71-8.46-5.67-16.21-10.18-23.49c-0.66-0.02-1.96-0.0601-2.61-0.08c0.4-0.11,1.2-0.35,1.6-0.46c-2.28-2.67-3.67-5.91-4.13-9.37
		c-0.72,0.65-1.45,1.29-2.19,1.92l-1.17,0.01c1.68-1.81,3-3.99,2.21-6.54c-4.82-27.43-8.04-55.2-8.36-83.07
		c-0.07-2.47-0.18-4.97-0.88-7.33c-1.08-2.37-4.09-2.25-6.26-2.81c-25.4-3.9-50.5-9.72-74.94-17.63c-1.7-0.66-4.29-1.11-4.51-3.31
		c-0.5-4.93,1.89-9.53,3.33-14.11c4.51-0.94,8.99,0.25,13.32,1.42c46.94,10.56,95.39,15.76,143.47,11.93
		c1.03-0.14,2.08-0.29,3.12-0.44c-0.55,0.31-1.09,0.64-1.63,0.96c3.07-1.42,6.52-1.02,9.78-1.52
		c38.97-4.3199,77.77-14.29,112.46-32.9c34.13-18.45,63.63-45.92,82.96-79.69c18.8-31.55,29.33-67.92,30.36-104.63
		c1.35-41.43-9.04-82.71-27.01-119.89c-30.81-64.35-82.41-117.86-143.81-153.79c-37.66-22.29-79.54-37.72-122.91-43.96
		c-31.56-4.71-63.82-4.34-95.29,0.86c-29.27,5.07-57.5,16.61-81.56,34.11c-25.53,18.17-46.37,42.35-62.54,69.08
		c-31.27,53.2-44.74,116.42-39.11,177.78c4.24,48.38,20.73,96.25,50.51,134.92c3.27,4.31,6.85,8.37,10.25,12.57
		c0.83,1.12,1.65,2.24,2.46,3.38c1.12-0.88,2.23-1.77,3.29-2.7c15.89-13.94,37.01-21.06,57.97-21.89
		c18.57-0.53,37.43,3.58,53.73,12.61c21.24,11.96,38.38,32.66,42.74,57.03c2.14,9.54,1.04,19.35,0.65,29.01
		c-0.06,2.56-0.58,5.12-1.95,7.32c-10.02-11.45-19.3-23.61-30.41-34.06c-12.01-11.35-26.49-19.93-41.98-25.59
		c-18.21-6.73-37.6-9.3-56.82-11.18c-5.07-0.28-10.35-1.02-15.27,0.56c13.53,13.14,28.98,24.18,45.26,33.67
		c2.42,1.03,3.08,3.86,2.08,6.16c-1.36,3.21-2.73,6.48-4.82,9.3c-1.52,2.11-4.34,0.95-6.27,0.15
		c-32.71-15.57-61.83-38.59-84.41-66.94c-31.73-39.93-51.72-88.85-58.19-139.38c-0.6-4.29-0.86-8.65-1.99-12.85
		c-1.27,0.11-2.53,0.25-3.79,0.39c-11.09,9.61-25.96,14.42-40.56,13.93c-14.78-0.56-28.95-6.91-40.11-16.45
		c-9.29-8.04-16.92-17.89-22.92-28.58c-8.49-14.52-14.62-31.33-12.84-48.38c1.06-14.88,10.13-28.69,22.91-36.21
		c16.9-10.46,37.54-12.24,56.96-11.45c15.22,0.55,30.27,3.45,44.95,7.41c1.99,0.67,4.3-0.07,6.15,1.01
		c12.78-46.17,35.41-90.23,68.75-124.96c17.68-18.83,38.46-34.75,61.24-46.92C322.08,46.72,351.76,37.7,382.04,34.23 M134.88,254.5
		c-14.7,1.21-29.53,2.84-43.64,7.36c-5.26,2.01-10.86,4.17-14.64,8.52c-2.7,3.13-2.43,7.59-1.7,11.39
		c2.2,9.55,7.04,18.21,12.15,26.47c5.07,7.59,10.76,15.23,18.91,19.71c7.13,4.33,15.87,5.29,23.95,3.55
		c8.27-1.25,15.26-6.07,21.83-10.92c2.37,1.63,3.02-2.57,1.71-3.88c0.6-18.34,1.85-36.71,5.36-54.76c0.64-2.67,0.61-5.42,0.37-8.12
		C151.09,252.87,142.97,254.07,134.88,254.5 M553.47,957.77c0.34,2.73,0.64,5.47,0.8101,8.24l0.1,0.25c-0.1,1.65-0.14,3.3-0.18,4.98
		l1.17-1.48c0.87,8.78,1.41,17.61,2.56,26.37c0.16-0.03,0.49-0.1,0.66-0.14l-0.4301,0.35c3.42,1.56,7.38,0.89,11.05,1.49
		c-0.7-2.35-1.55-4.67-2.7-6.82c-2.7-6.89-4.85-14.05-8.04-20.72C557.65,965.85,555.78,961.62,553.47,957.77 M573.71,1012.82
		c0.83,7.62,2.5,15.1299,4.75,22.45c1.8-0.9501,0.64-2.9401,0.4-4.4C577.16,1024.85,575.95,1018.67,573.71,1012.82 M754.89,1043.22
		c-3.26,0.6901-2.36,4.55-1.61,6.79c3.91,11.22,10.54,21.21,16.45,31.4399c2.54,4.5801,5.87,8.88,6.71,14.2001l-1.58-0.0701
		c0.28,1.15,0.66,2.3,1.62,3.12c-0.04,0.8501-0.13,2.54-0.18,3.39c-2.88,3.0701-6.64,5.0701-10.16,7.3
		c-0.86,0.04-2.58,0.11-3.44,0.14c-9.03-7.25-16.62-16.42-27.03-21.8401c-4.08-2.09-9.09-4.46-13.59-2.1899
		c-7.44,3.62-10.77,12.05-13,19.5c-0.85,1.92-1.27,4.03-1.5,6.13c1.67,0.41,3.35,0.95,5.12,0.83c12.28,2.3501,24.89,1.8,37.33,1.61
		c5.09,0,10.45-0.9299,15.29,1.16c0.54,1.9301,2.85,1.35,4.29,2.09c3.95,4.05,7.76,9.52,5.95,15.4801
		c-7.74,8.1899-17.05,15.4399-22,25.83c-3.04,3.61-2.69,8.7-1.98,13.0699c5.55,7.6001,14.95,13.8201,24.71,12.3301
		c1.97-4.97,2.4-10.3201,3-15.5701c1.11-12.08,0.69-24.23,1.25-36.34c0.2-0.09,0.59-0.27,0.79-0.36c0.05-0.5701,0.15-1.71,0.19-2.28
		c2.34-1.0599,5.26-1.63,6.7-3.96c0.76-2.12,1.03-4.36,1.3701-6.5601c1.12-0.3199,2.23-0.6499,3.3799-0.9299
		c-1.1899-0.02-2.37-0.05-3.53-0.0901c5.34-2.84,12.61,0.9,17.56-3.24c-1.48-0.75-3.34-1.6599-3.45-3.5399
		c-0.52-4.61-1.37-9.39,0.31-13.87c11.75-3.92,24.26-6.4701,34.7-13.49c3.64-2.41,7.13-6.1001,7.03-10.75
		c0.04-6.13-3.53-11.54-7.1201-16.2201c-2.15-2.5199-4.53-5.71-8.14-5.7899c-2.85,1.09-4.62,3.8199-6.44,6.13
		c-7.84,10.8999-13.96,22.89-20.59,34.5399c-1.08,1.9501-2.78,3.4301-4.3,5.03c-1.16-1.41-3.57,0.53-2.62,2
		c-5.87,1.74-11.13-2.17-15.91-4.99c-0.09-2.42-0.35-4.88,0.2401-7.25c2.64-10.4301,5.41-21.11,4.54-31.96
		c-0.57-4.15-1.69-9.11-5.99-10.89C771.67,1039.59,762.62,1040.65,754.89,1043.22 M805.89,1115.14c5.07,13.26,6.1,28.41,14.96,40.03
		c2.61,3.72,7.41,5.6899,11.87,4.6599c8.57-1.61,15.54-7.47,21.15-13.84c-12.4-12.83-28.64-20.9399-43.57-30.41
		C808.83,1115.4301,807.34,1115.26,805.89,1115.14z"/>
	<path stroke="#000000" stroke-width="0.0938" d="M323.02,269.93c2.42,0.96,3.4,3.54,4.68,5.59c10.89,20.2,22.75,39.95,36.96,58.01
		c7.15,9.28,14.71,18.68,24.88,24.81c13.77,8.71,30.43,11.4,46.48,11.48c21.43,0.09,42.71-2.83,64.09-3.65
		c2.56-0.1,5.08,0.42,7.56,1h-2.09c0.18,0.46,0.52,1.4,0.7,1.87c-9.43,5.47-18.1,12.27-27.46,17.93
		c-20.14,12.4-43.54,20.47-67.39,19.91c-25.71-0.13-51.21-11.77-67.71-31.57c-15.58-19.65-26.12-44-26.74-69.29
		c-0.15-10,2.25-19.77,4.11-29.53C321.5,274.24,322.18,272.06,323.02,269.93z"/>
	<path stroke="#000000" stroke-width="0.0938" d="M524.48,391.24c1.54,0.06,3.09,0.16,4.64,0.29c0.99,1.16,2.34,1.87,3.67,2.6
		c14.44,9.24,27.55,20.34,40.89,31.07c8.25,6.47,16.61,13.03,26.15,17.53c7.61,3.34,15.96,4.33,24.1,5.59
		c10.32,1.31,20.67,2.78,31.09,2.52c6.88-0.08,13.78-1.3,20.65-0.26c-0.05,1.4,0.05,2.91-0.91,4.06c-4.53,7-9.16,14.24-16.03,19.18
		c-10.32,7.35-22.72,11.38-35.19,13.07c-16.52,2.38-34.2,0.27-48.55-8.71c-15.33-9.04-27.25-22.97-35.87-38.38
		c-6.02-10.79-10.18-22.58-12.48-34.72C525.75,400.5,524.33,395.96,524.48,391.24z"/>
	<path stroke="#000000" stroke-width="0.0938" d="M282.02,605.95c1.43-1.29,2.84-3.01,4.99-2.75c2.49-0.29,4.02,1.94,5.75,3.33
		c1.64,1.61,3.63,2.96,4.92,4.91c1.19,4.52-2.44,8.06-4.48,11.67c-26.06,42.17-39.27,90.85-46.74,139.47
		c-1.54,6.7-0.88,13.93-4.12,20.19c-5.82,11.56-7.46,24.96-5.47,37.69c0.99,5.2599,3.26,10.42,2.27,15.89
		c0.43-0.1,1.28-0.3,1.71-0.4c0.93,0.36,2.45,1.44,1.92,2.64c-1.21-0.17-2.3-0.82-3.46-1.14c-0.64,18.15-1.66,36.31-1.7,54.49
		c0.11,19.67-0.61,39.34-0.04,59.01c0.17,18.69-0.17,37.39,0.26,56.08c0.19,12.6899-0.38,25.37-0.18,38.0699
		c0.42,6.3-1.08,12.5601-0.46,18.86c1.35-3.0399,1.45-6.39,1.93-9.62c0.45-1.64,0.97-3.26,1.41-4.88
		c4.8-1.1599,9.86-0.95,14.65,0.13c2.26,1.29,2.18,4.26,2.44,6.53c4.45,53.01,0.2,106.3101-6.51,158.95
		c-2.62,18.51-5.25,37.03-8.22,55.4901c-3.92,22.2799-7.75,44.58-11.78,66.84c-0.52,2.26-1.01,4.52-1.44,6.8099
		c1.14-0.87,2.29-1.73,3.43-2.58c1.69-1.2,3.39-2.36,4.95-3.71c15.5-10.52,33.26-17.67,51.76-20.7201
		c24.43-4.0299,50.06-0.35,72.38,10.38c13.05,6.5701,25.42,15.6001,33.02,28.3401c5.41,8.9199,7.69,19.9299,5.04,30.13
		c-3.33,10.9099-11.99,19.58-22.25,24.22c-9.68,4.4399-20.49,5.4199-31.01,5.52c-23.76-0.01-47.34-3.15-70.96-5.29
		c-25.53-2.52-51.23-4.09-76.88-2.65c-7.25,0.5801-14.51,1.1-21.78,0.8201c-0.53-1.51-1.15-3.0701-0.73-4.66
		c3.53-21.39,6.87-42.8101,10.55-64.1801c3.79-23.4299,8.79-46.64,12.99-70c9.68-48.24,19.65-96.4399,28.01-144.9399
		c0.94-6.05,2.35-12.04,2.38-18.1801c0.32-0.2999,0.95-0.9099,1.27-1.22c-4.04,0.33-8.1,0.17-12.14,0.11
		c-0.48-0.38-1.45-1.13-1.93-1.51c-2.45-10.97-3.78-22.1599-5.64-33.25c-7.01-45.7-12.61-91.67-15.26-137.84
		c-0.97-18.51-1.84-37.07-1.24-55.6c0.38-3.16,0.25-6.34-0.03-9.48c-0.95,5.09-1.69,10.21-2.47,15.33
		c-4.12,22.09-6.77,44.42-9.82,66.68c-7.73,58.22-12.22,116.8-19.2,175.11c-1.3,7.0499-1.11,14.4299-3.63,21.22
		c-5.29,0.87-11.02,1.6799-16.02-0.77c-1.62-5.01-1.87-10.28-2.57-15.4399c-3.43-30.24-5.25-60.66-5.27-91.1001
		c-0.34-44.4399,2.34-88.96,9.4-132.8599C156.27,840.82,175.43,776.47,207,718.23c3.95-6.94,7.74-13.99,12.27-20.57
		c1.88-3.14,5.89-4.22,7.49-7.55C239.68,658.98,257.49,629.33,282.02,605.95 M243.78,1355.8199c-1.62,0.9701-3.56,0.62-5.35,0.7401
		c-2.67-2.9301-4.57-6.64-7.96-8.8301c0.18-0.64,0.55-1.91,0.73-2.5499l-1.19,1.5399l-0.81-1.5499
		c0.29,6.6699-3.38,12.9199-2.42,19.6599c-0.35,0.02-1.05,0.05-1.39,0.0701c5.98,2.01,12.31,1.9,18.54,2.46
		c14.39,1.05,28.71,3,43,5.01c22.34,2.78,44.52,7.75,67.12,7.78c4.88-0.51,11.8,0.12,14.27-5.09c-0.97-5.4701-4.92-9.8401-8.87-13.5
		c-12.97-11.16-29.48-17.79-46.36-19.9901C289.22,1338.3,264.7,1344.25,243.78,1355.8199z"/>
	<path fill="#E11B1A" stroke="#E11B1A" stroke-width="0.0938" d="M151.74,320.58c-0.42-1.53,0.75-2.85,1.71-3.88
		C154.76,318.01,154.11,322.21,151.74,320.58z"/>
	<path fill="#E11B1A" stroke="#E11B1A" stroke-width="0.0938" d="M248.29,506.56c1.78,1.01,3.78,1,5.75,0.68
		c-1.06,0.93-2.17,1.82-3.29,2.7C249.94,508.8,249.12,507.68,248.29,506.56z"/>
	<path fill="#E11B1A" stroke="#E11B1A" stroke-width="0.0938" d="M728.75,559.81c1.5-1.69,3.09-3.3,4.8-4.79
		c-0.08,0.85-0.23,2.55-0.31,3.4c0.9,0.3,1.8,0.62,2.71,0.95c-0.64,0.13-1.91,0.37-2.55,0.49
		C731.84,559.86,730.3,559.85,728.75,559.81z"/>
	<path fill="#E11B1A" stroke="#E11B1A" stroke-width="0.0938" d="M711.82,575.91c2.03-1.99,4.06-3.97,6.16-5.87
		c0.06,2.91,0.03,5.83,0.03,8.75c0,0.29-0.01,0.87-0.01,1.16c-0.32-1.99-0.62-3.98-0.95-5.96
		C715.21,574.35,713.48,575.07,711.82,575.91z"/>
	<path fill="#E11B1A" stroke="#E11B1A" stroke-width="0.0938" d="M394.46,728.15c6.49-3.03,13.34-5.72,20.6-5.83
		c8.5-0.72,16.98,0.86,25.11,3.23c1.41,0.67,2.8,1.37,4.21,2.07c3.45,1.74,6.52,4.07,9.77,6.14c0.29,0.2,0.88,0.59,1.18,0.79
		l1.17-0.01c0.74-0.63,1.47-1.27,2.19-1.92c0.46,3.46,1.85,6.7,4.13,9.37c-0.4,0.11-1.2,0.35-1.6,0.46
		c0.65,0.02,1.95,0.06,2.61,0.08c4.51,7.28,8.47,15.03,10.18,23.49c3.01,11.42,1.48,23.33-0.38,34.79
		c-0.15,0.97-0.24,1.96-0.26,2.96c-2.14,0.95-2.77,3.3-3.59,5.27c-0.46,1.07-0.93,2.14-1.4,3.21c-0.76,1.24-1.43,2.52-2.08,3.83
		c-2.35,3.81-4.8,7.56-7.36,11.24c-0.75,1.11-1.52,2.23-2.3,3.34l-0.27,0.77c-1.6,2.06-2.98,4.27-4.33,6.5
		c-0.67,0.99-1.34,1.99-1.99,3.02c-0.67,1.01-1.34,2.01-2.03,3.01c-1.44,1.9-2.81,3.87-3.84,6.03c-2.5,4.81-5.34,9.43-7.92,14.2
		c-4.21,7.42-8.05,15.04-11.55,22.82c-0.44,1.09-0.89,2.18-1.35,3.28c-1.15,2.19-2.17,4.45-3.11,6.76c-1.12,2.63-2.1,5.33-2.99,8.06
		c-2.96,6.13-3.88,12.94-6.04,19.36c-0.82,0.02-2.45,0.05-3.27,0.07c-4.01-5.11-7.9-10.48-13.28-14.24
		c-5.73-4.73-12.07-8.58-18.58-12.1c-5.51-3.11-11.19-5.96-17.24-7.86c-1.62-0.79-3.28-1.51-4.95-2.15
		c-9.42-3.66-19.28-5.93-28.86-9.07c-13.93-3.31-28-6.14-42.06-8.89c-1.32-0.54-2.66-1.02-4-1.45c-3.26-1.1201-6.43-2.47-9.52-3.98
		c-1.44-0.93-2.89-1.83-4.37-2.66c-7.35-4.62-13.31-11.04-18.12-18.23c-0.91-1.5-1.85-2.97-2.81-4.43c-0.86-1.63-1.65-3.3-2.19-5.05
		c-0.28,0.38-0.84,1.14-1.12,1.52c-0.43,0.1-1.28,0.3-1.71,0.4c0.99-5.47-1.28-10.63-2.27-15.89c-1.99-12.73-0.35-26.13,5.47-37.69
		c3.24-6.26,2.58-13.49,4.12-20.19c-0.03,2.53-0.56,5.02-0.95,7.52c0.25,0.61,0.73,1.83,0.98,2.44c0.34-0.0099,1.02-0.03,1.36-0.04
		c-0.09,0.68-0.27,2.03-0.36,2.71c0.45-0.89,0.8-1.82,1.04-2.77l0.97,0.08l-0.03-0.85c2.96-3.11,5.76-6.38,8.62-9.58
		c6.47-6.54,14.08-11.8701,22.15-16.25c1.83-0.8701,3.8-1.39,5.74-1.98c1.73-0.48,3.41-1.16,4.88-2.22
		c10.44-4.37,22.17-3.98,33.11-1.95c4.27,1.09,8.37,2.79,12.19,5.02c0.46,0.27,1.4,0.81,1.86,1.08c3.21,1.73,6.21,3.82,8.93,6.26
		c2.22,2.83,4.63,5.5,6.97,8.25c0.96,3.02,2.11,7.54-0.94,9.68c-6.69,5.13-14.06,9.25-21.09,13.88
		c-5.01,3.68-10.72,6.74-14.33,11.98c0.39,1.46,0.77,2.93,1.14,4.41c5.55,0.56,11.13,0.64,16.68,1.16
		c5.49,0.91,10.99,1.78,16.52,2.42c4.56,0.63,9.58,0.09,13.5,3c-0.2,1.22,0.23,2.76-0.86,3.68c-3.32,3.36-6.67,6.71-10.28,9.76
		c-3.29,2.51-6.25,5.46-8.7,8.8c-0.56,1.58-0.87,3.23-0.74,4.92c0.52,0.33,1.56,0.98,2.07,1.31c5.13,2.04,10.79,1.57,16.16,2.47
		c5.97,0.56,11.8,1.91,17.7,2.9c-0.05,0.88-0.15,2.65-0.2,3.54c-4.37,2.91-8.89,5.57-13.53,8.02c-1.27,0.63-2.51,1.33-3.73,2.07
		c-3.1,1.97-6.5,3.56-9.15,6.17c-0.67,0.25-1.34,0.4901-2.02,0.7401c0.33,0.05,0.98,0.13,1.3,0.17c-0.1,0.86-0.3,2.57-0.4,3.43
		l1.8-0.31c-0.53,0.24-1.05,0.5-1.56,0.76c8.41,1.72,16.98,2.63,25.55,2.95c6.03-2.62,9.92-8.2,13.95-13.13
		c2.5-3.15,5.3-6.19,6.64-10.06c0.1-2.44,0.13-4.99-1.32-7.07c-1.33-0.32-2.65-0.65-3.9-1.16c-5.88-1.87-11.53-4.33-17.25-6.63
		c-1.12-0.37-2.26-0.66-3.39-0.91c-2.16-0.94-4.83-1.82-4.42-4.74l1.08-0.05c0.72-2.27,3.16-3.08,4.9-4.42
		c6.13-4.42,13.55-6.81,19.23-11.91c0.1-0.77,0.21-1.54,0.33-2.29c-7.57-5.35-17.13-6.27-25.6-9.6201
		c-0.52-0.29-1.56-0.8799-2.08-1.17c0.1-0.53,0.3-1.58,0.41-2.11c6.67-3.7,14.44-4.11,21.52-6.67c6.01-2.07,12.26-3.27,18.36-5.03
		c2.57-1.29,7-1.13,6.77-5.1c0.42-0.04,1.26-0.1,1.68-0.13c-0.44-0.08-1.32-0.25-1.77-0.34c-0.41-2.01-2.37-2.13-3.98-2.54
		c-9.88-1.52-19.9-1.82-29.91-1.94c-3.5-0.55-8.11,0.21-10.57-2.83c-0.48-6.09,1.97-11.93,4.28-17.42c0.25-0.51,0.74-1.53,0.98-2.03
		c1.16-2.21,2.51-4.29,3.91-6.34C382.88,736.74,388.33,731.89,394.46,728.15z"/>
	<path fill="#E11B1A" stroke="#E11B1A" stroke-width="0.0938" d="M195.6,867.92c0.28,3.14,0.41,6.32,0.03,9.48
		c-0.25,0.35-0.76,1.0699-1.01,1.43c0,2.17,0.02,4.36,0,6.55c-0.37-0.53-1.12-1.6-1.49-2.13
		C193.91,878.13,194.65,873.01,195.6,867.92z"/>
	<path fill="#E11B1A" stroke="#E11B1A" stroke-width="0.0938" d="M553.47,957.77c2.3101,3.85,4.1801,8.08,5,12.52
		c-0.3799-0.44-1.15-1.32-1.53-1.7599l-0.99,1.62c-0.55-1.3-1.05-2.6-1.57-3.89l-0.1-0.25C554.11,963.24,553.81,960.5,553.47,957.77
		z"/>
	<path fill="#E11B1A" stroke="#E11B1A" stroke-width="0.0938" d="M613.39,980.8c0.64,0,1.91,0.01,2.55,0.01
		c-0.17,1.51-2.11,2.22-2.81,0.64L613.39,980.8z"/>
	<path fill="#E11B1A" stroke="#E11B1A" stroke-width="0.0938" d="M566.51,991.01c1.15,2.15,2,4.47,2.7,6.82
		c-3.67-0.6-7.63,0.07-11.05-1.49c2.6201,0,5.38,0.67,7.95-0.22C566.6,994.46,566.52,992.69,566.51,991.01z"/>
	<path fill="#E11B1A" stroke="#E11B1A" stroke-width="0.0938" d="M638.07,1002.47c1.18-1.12,2.36-2.25,3.56-3.34
		c-1.34,2.46-1.11,5.22-0.13,7.77C640.32,1005.43,639.19,1003.96,638.07,1002.47z"/>
	<path fill="#E11B1A" stroke="#E11B1A" stroke-width="0.0938" d="M735.34,1011.91c-0.65-1.61-1.31-3.2-1.79-4.85
		c1.46,1.89,2.87,3.83,4.25,5.8c-1.55,0.78-3.11,1.55-4.64,2.39C733.86,1014.12,734.6,1013.01,735.34,1011.91z"/>
	<path fill="#E11B1A" stroke="#E11B1A" stroke-width="0.0938" d="M573.71,1012.82c2.24,5.85,3.45,12.03,5.15,18.05
		c0.24,1.46,1.4,3.45-0.4,4.4C576.21,1027.95,574.54,1020.44,573.71,1012.82z"/>
	<path fill="#E11B1A" stroke="#E11B1A" stroke-width="0.0938" d="M805.71,1023.81c0.79-0.02,2.36-0.05,3.15-0.06
		C808.53,1025.73,805.58,1026.27,805.71,1023.81z"/>
	<path fill="#E11B1A" stroke="#E11B1A" stroke-width="0.0938" d="M718.09,1043.86c0.45,3.29,1.08,6.5601,1.69,9.83
		c-1.65,0.1201-3.3,0.2401-4.94,0.42c0.92-0.49,1.85-0.96,2.8-1.41C718.4,1049.8,718.32,1046.8101,718.09,1043.86z"/>
	<path fill="#E11B1A" stroke="#E11B1A" stroke-width="0.0938" d="M237.65,1045.1c0.45,1.11,0.73,2.29,0.83,3.53l1.19-0.2
		c-0.2,1.96-0.35,3.9299-0.55,5.9099c-0.48,3.23-0.58,6.5801-1.93,9.62C236.57,1057.66,238.07,1051.4,237.65,1045.1z"/>
	<path fill="#E11B1A" stroke="#E11B1A" stroke-width="0.0938" d="M481.54,1072.73c1.07,2.12,1.01,6.11,4.46,4.87
		c-1.27,1.01-2.53,2.03-3.81,3.03C481.95,1077.99,481.8,1075.36,481.54,1072.73z"/>
	<path fill="#E11B1A" stroke="#E11B1A" stroke-width="0.0938" d="M796.38,1098.24c-0.95-1.47,1.46-3.41,2.62-2
		C798.26,1097.01,797.57,1098.17,796.38,1098.24z"/>
	<path fill="#E11B1A" stroke="#E11B1A" stroke-width="0.0938" d="M709.08,1105c0.06,1.8199,0.17,3.66,0.26,5.51
		c1.11,0.47,2.23,0.96,3.36,1.45c-1.77,0.12-3.45-0.4199-5.12-0.83C707.81,1109.03,708.23,1106.92,709.08,1105z"/>
	<path fill="#E11B1A" stroke="#E11B1A" stroke-width="0.0938" d="M853.26,1107.5699c1.18-0.5399,2.36-1.08,3.56-1.59
		c-0.02,0.8-0.07,2.39-0.09,3.1801C855.54,1108.66,854.4,1108.12,853.26,1107.5699z"/>
	<path fill="#E11B1A" stroke="#E11B1A" stroke-width="0.0938" d="M328.39,1131.5699c-0.63-4.7899-0.86-10.3199,1.57-14.59
		c-0.73,3.42-1.54,6.8301-1.85,10.3301c0.15,1.58,0.8,3.6499,2.64,3.98c5.24,1.5699,10.69,2.34,16.06,3.33
		c37.01,5.91,75.4,2.84,111.12-8.4301c-7.41,65.1101-17.23,130.13-18.42,195.76c-0.68,14.2201,0.38,28.4501,0.51,42.6801
		c-0.05,0.41-0.16,1.23-0.22,1.64c-3.9-74.4301,6.88-148.46,15.52-222.1801c0.32-4.14,1.28-8.22,1.24-12.38
		c-0.25-0.63-0.73-1.89-0.98-2.52c-2.58-0.0699-5.19-0.1699-7.71,0.4801c-24.06,6.33-49.04,9.11-73.9,8.1
		C358.59,1137.45,343.42,1134.62,328.39,1131.5699z"/>
	<path fill="#E11B1A" stroke="#E11B1A" stroke-width="0.0938" d="M703.99,1143.4399l0.53-0.0199c8.32,1.62,16.94,0.71,25.27-0.5
		c-0.91,1.2999-1.82,2.58-2.77,3.86l-0.2,0.24c-0.89-0.52-1.56-1.26-2.01-2.23c-7.34-0.5-14.73,0.3099-22.06-0.67
		C703.06,1143.95,703.68,1143.61,703.99,1143.4399z"/>
	<path fill="#E11B1A" stroke="#E11B1A" stroke-width="0.0938" d="M809.77,1186.04c1.71,1.1,3.42,2.2,5.19,3.2799
		c-1.55,0-3.08,0.01-4.6,0.03c-0.35,0.62-1.07,1.87-1.42,2.5C809.19,1189.88,809.47,1187.97,809.77,1186.04z"/>
	<path fill="#E11B1A" stroke="#E11B1A" stroke-width="0.0938" d="M229.67,1344.21c0.43-2.2899,0.92-4.5499,1.44-6.8099
		c0.11,0.76,0.34,2.27,0.45,3.03c0.79-0.02,2.37-0.0601,3.15-0.0701l-1.61,1.27C231.96,1342.48,230.81,1343.34,229.67,1344.21z"/>
</g>
</svg>
