<?xml version="1.0" encoding="UTF-8" standalone="no"?>
<svg
   xmlns:dc="http://purl.org/dc/elements/1.1/"
   xmlns:cc="http://creativecommons.org/ns#"
   xmlns:rdf="http://www.w3.org/1999/02/22-rdf-syntax-ns#"
   xmlns:svg="http://www.w3.org/2000/svg"
   xmlns="http://www.w3.org/2000/svg"
   version="1.1"
   id="svg4995"
   viewBox="0 0 90.000001 90.000001"
   height="90"
   width="90">
  <defs
     id="defs4997" />
  <metadata
     id="metadata5000">
    <rdf:RDF>
      <cc:Work
         rdf:about="">
        <dc:format>image/svg+xml</dc:format>
        <dc:type
           rdf:resource="http://purl.org/dc/dcmitype/StillImage" />
        <dc:title></dc:title>
      </cc:Work>
    </rdf:RDF>
  </metadata>
  <g
     transform="translate(-126.42857,-401.64792)"
     id="layer1">
    <path
       id="path5651-5-2-2-2"
       d="m 171.42857,401.64792 a 45,45 0 0 0 -45,45 45,45 0 0 0 45,45 45,45 0 0 0 45,-45 45,45 0 0 0 -45,-45 z m 5.1113,17.2559 a 27.74422,27.74422 0 0 1 27.7441,27.7441 27.74422,27.74422 0 0 1 -27.7441,27.7442 27.74422,27.74422 0 0 1 -12.4531,-3.002 c 0.4957,-1.1696 0.7714,-2.4583 0.7714,-3.8125 l 0,-9.7343 c 0,-3.3706 -1.6965,-6.3299 -4.2851,-8.0762 a 11.681776,16.062443 0 0 0 1.3633,-7.5 11.681776,16.062443 0 0 0 -6.0664,-14.082 27.74422,27.74422 0 0 1 20.6699,-9.2813 z m -26.2852,10.2207 a 8.7613318,13.141997 0 0 1 8.7617,13.1426 8.7613318,13.141997 0 0 1 -1.0664,6.2598 c -0.8945,-0.2687 -1.8436,-0.418 -2.8281,-0.418 l -9.7344,0 c -0.9872,0 -1.9374,0.1472 -2.8339,0.418 a 8.7613318,13.141997 0 0 1 -1.0606,-6.2598 8.7613318,13.141997 0 0 1 8.7617,-13.1426 z m 16.9981,10.2227 -0.8926,2 5.0586,2.2578 -5.1016,2.5429 0.9766,1.961 7.1797,-3.5801 a 1.0952759,1.0952759 0 0 0 -0.043,-1.9785 l -7.1777,-3.2031 z m 18.7773,0.7304 a 3.6505543,3.6505543 0 0 0 -3.6504,3.6504 3.6505543,3.6505543 0 0 0 3.6504,3.6504 3.6505543,3.6505543 0 0 0 3.6504,-3.6504 3.6505543,3.6505543 0 0 0 -3.6504,-3.6504 z m -39.6699,10.9512 7.7891,0 c 3.6403,0 6.6716,2.4773 7.5332,5.8418 l -12.8868,0 0,1.459 13.1172,0 c 0,0.1617 0.023,0.3217 0.023,0.4863 l 0,3.1641 -13.1426,0 0,1.4609 13.1426,0 0,3.1641 c 0,0.164 0,0.3254 -0.023,0.4863 l -13.1172,0 0,1.4609 12.8868,0 c -0.8616,3.3643 -3.8929,5.8399 -7.5332,5.8399 l -7.7891,0 c -4.3145,0 -7.7871,-3.4729 -7.7871,-7.7871 l 0,-7.7891 c 0,-4.3143 3.4726,-7.7871 7.7871,-7.7871 z m 23.1738,4.4629 -1.8535,1.168 c 0,0 3.7145,6.0058 10.3184,6.0058 6.6039,0 10.3183,-6.0058 10.3183,-6.0058 l -1.8535,-1.168 c 0,0 -3.2149,4.9844 -8.4648,4.9844 -5.2499,0 -8.4649,-4.9844 -8.4649,-4.9844 z"
       style="fill:#5c8ece;fill-opacity:1;fill-rule:nonzero;stroke:none;stroke-width:4;stroke-linecap:round;stroke-linejoin:round;stroke-miterlimit:4;stroke-dasharray:none;stroke-opacity:1" />
  </g>
</svg>
