<?xml version="1.0" encoding="UTF-8" standalone="no"?>
<!-- Created with Inkscape (http://www.inkscape.org/) -->

<svg
   xmlns:dc="http://purl.org/dc/elements/1.1/"
   xmlns:cc="http://creativecommons.org/ns#"
   xmlns:rdf="http://www.w3.org/1999/02/22-rdf-syntax-ns#"
   xmlns:svg="http://www.w3.org/2000/svg"
   xmlns="http://www.w3.org/2000/svg"
   xmlns:sodipodi="http://sodipodi.sourceforge.net/DTD/sodipodi-0.dtd"
   xmlns:inkscape="http://www.inkscape.org/namespaces/inkscape"
   id="svg2"
   version="1.1"
   inkscape:version="0.91 r13725"
   width="600"
   height="600"
   sodipodi:docname="nopassingwater-b.svg">
  <metadata
     id="metadata8">
    <rdf:RDF>
      <cc:Work
         rdf:about="">
        <dc:format>image/svg+xml</dc:format>
        <dc:type
           rdf:resource="http://purl.org/dc/dcmitype/StillImage" />
        <dc:title></dc:title>
      </cc:Work>
    </rdf:RDF>
  </metadata>
  <defs
     id="defs6">
    <inkscape:perspective
       sodipodi:type="inkscape:persp3d"
       inkscape:vp_x="0 : 150 : 1"
       inkscape:vp_y="0 : 1000 : 0"
       inkscape:vp_z="300 : 150 : 1"
       inkscape:persp3d-origin="150 : 100 : 1"
       id="perspective3848" />
  </defs>
  <sodipodi:namedview
     pagecolor="#ffffff"
     bordercolor="#666666"
     borderopacity="1"
     objecttolerance="10"
     gridtolerance="10"
     guidetolerance="10"
     inkscape:pageopacity="0"
     inkscape:pageshadow="2"
     inkscape:window-width="1413"
     inkscape:window-height="833"
     id="namedview4"
     showgrid="false"
     inkscape:zoom="0.92395286"
     inkscape:cx="148.15692"
     inkscape:cy="368.15504"
     inkscape:window-x="163"
     inkscape:window-y="-18"
     inkscape:window-maximized="0"
     inkscape:current-layer="g4050"
     fit-margin-top="0"
     fit-margin-left="0"
     fit-margin-right="0"
     fit-margin-bottom="0" />
  <g
     id="g3895"
     transform="matrix(0.92847402,0,0,0.92847402,9.4447934,39.306257)">
    <g
       id="g4060"
       transform="matrix(1.063514,0,0,1.0413861,-11.430083,-5.617176)">
      <g
         id="g4050"
         transform="translate(-9.6881226,-23.498205)">
        <path
           sodipodi:open="true"
           sodipodi:end="6.2602245"
           sodipodi:start="0"
           d="M 599.50192,296.69034 A 279.6936,268.27356 0 0 1 321.41381,564.95948 279.6936,268.27356 0 0 1 40.133147,299.77016 279.6936,268.27356 0 0 1 314.99206,28.456556 279.6936,268.27356 0 0 1 599.4282,290.5311"
           sodipodi:ry="268.27356"
           sodipodi:rx="279.6936"
           sodipodi:cy="296.69034"
           sodipodi:cx="319.80832"
           id="path3909"
           style="fill:#db000e;fill-opacity:1;stroke:#310000;stroke-width:0;stroke-linecap:square;stroke-linejoin:bevel;stroke-miterlimit:4;stroke-dasharray:none;stroke-dashoffset:0;stroke-opacity:1"
           sodipodi:type="arc" />
        <path
           sodipodi:open="true"
           sodipodi:end="6.2602245"
           sodipodi:start="0"
           d="M 545.62097,293.8479 A 227.95026,214.36533 0 0 1 318.97919,508.20969 227.95026,214.36533 0 0 1 89.735481,296.30885 227.95026,214.36533 0 0 1 313.74547,79.514359 227.95026,214.36533 0 0 1 545.56089,288.92633"
           sodipodi:ry="214.36533"
           sodipodi:rx="227.95026"
           sodipodi:cy="293.8479"
           sodipodi:cx="317.67072"
           id="path3911"
           style="fill:#f5f5f5;fill-opacity:1;stroke:#310000;stroke-width:0;stroke-linecap:square;stroke-linejoin:bevel;stroke-miterlimit:4;stroke-dasharray:none;stroke-dashoffset:0;stroke-opacity:1"
           sodipodi:type="arc" />
        <g
           id="g4045"
           transform="matrix(1.0984298,0,0,1.0984298,-9.4598377,-44.904156)">
          <g
             style="fill:#070000;fill-opacity:1"
             id="g3890"
             transform="matrix(1.2881399,0,0,1.0547078,-20.277573,66.864817)">
            <path
               transform="matrix(0.44416665,0,0,0.50009618,73.989897,-246.91691)"
               sodipodi:open="true"
               sodipodi:end="6.2602245"
               sodipodi:start="0"
               d="m 291.57281,1103.6625 a 69.977478,25.269644 0 0 1 -69.57579,25.2692 69.977478,25.269644 0 0 1 -70.37455,-24.9791 69.977478,25.269644 0 0 1 68.76787,-25.556 69.977478,25.269644 0 0 1 71.16403,24.6857"
               sodipodi:ry="25.269644"
               sodipodi:rx="69.977478"
               sodipodi:cy="1103.6625"
               sodipodi:cx="221.59534"
               id="path3843"
               style="fill:#070000;fill-opacity:1;stroke:#100000;stroke-width:0;stroke-linecap:square;stroke-linejoin:bevel;stroke-miterlimit:4;stroke-opacity:1;stroke-dasharray:none;stroke-dashoffset:0"
               sodipodi:type="arc" />
          </g>
          <path
             sodipodi:nodetypes="cccccccccccccccccccccccccccccccccccccccccscccccccccccccsccc"
             inkscape:connector-curvature="0"
             id="path4043"
             d="m 357.32981,203.15234 20.48032,3.07725 12.97088,9.74462 c 7.26817,16.78576 7.24971,12.17384 0.68267,28.20809 l -4.09607,6.15449 -2.04803,4.61586 -2.7307,2.0515 -4.77875,1.53863 2.73072,5.64162 14.33621,4.10299 c 13.02889,11.16128 10.56832,7.36747 7.50945,24.10509 l -4.77873,12.30899 -5.46142,7.18024 -8.19213,4.61587 -1.36535,16.92485 -2.73072,15.89911 -7.50945,12.30898 1.36536,9.74461 2.04803,14.87337 -1.36535,16.92484 -0.68268,12.82187 -7.26103,-0.74033 -11.88942,-2.05152 -10.95833,0.14807 -13.04183,1.17381 -12.82893,1.98282 4.77874,-8.20599 -8.19212,-8.20599 -16.38426,-31.28534 -2.04804,-12.30898 6.1441,-23.59222 0.68267,-3.59012 -19.11496,0.51287 c -25.06604,5.16118 -39.64834,10.12155 -55.29686,28.20809 l -14.33622,19.48923 c 18.90915,-43.25824 54.69848,-47.11481 91.47876,-50.77456 l -0.68268,-4.61587 -6.52653,-0.12698 -6.53491,-1.41164 -4.68817,-2.56437 -8.19213,-11.28324 c 0,0 14.33623,-15.38623 17.06693,-17.95061 2.73071,-2.56437 15.01891,-13.8476 15.01891,-13.8476 l 6.14409,-3.59013 6.1441,-2.05149 11.60551,-4.61587 2.04804,-4.61587 -3.41339,-2.56437 -4.09606,-6.66737 0,-5.12874 -2.04804,-2.56438 -6.14409,-4.61586 -1.36536,-2.56438 2.04804,-4.61586 5.46141,-8.20599 c 0,0 -0.68268,-1.53862 0,-4.103 0.68269,-2.56437 11.60551,-8.71886 11.60551,-8.71886 l 8.19214,-4.61587 z"
             style="fill:#070000;fill-opacity:1;stroke:#000000;stroke-width:0.93170935px;stroke-linecap:butt;stroke-linejoin:miter;stroke-opacity:1" />
        </g>
        <path
           inkscape:connector-curvature="0"
           id="path15"
           style="fill:#db000e;fill-opacity:1"
           d="m 538.17059,467.35884 -384.7015,-367.29169 -36.34738,34.70856 384.67844,367.29168 36.37044,-34.70855 z" />
      </g>
    </g>
  </g>
</svg>
