<?xml version="1.0" encoding="UTF-8" standalone="no"?>
<!-- Created with Inkscape (http://www.inkscape.org/) -->
<svg xmlns:inkscape="http://www.inkscape.org/namespaces/inkscape" xmlns:rdf="http://www.w3.org/1999/02/22-rdf-syntax-ns#" xmlns="http://www.w3.org/2000/svg" xmlns:xlink="http://www.w3.org/1999/xlink" xmlns:ns1="http://sozi.baierouge.fr" xmlns:cc="http://creativecommons.org/ns#" xmlns:sodipodi="http://sodipodi.sourceforge.net/DTD/sodipodi-0.dtd" xmlns:dc="http://purl.org/dc/elements/1.1/" id="svg2" xml:space="preserve" viewBox="0 0 208 134.95" version="1.1" inkscape:version="0.91 r13725">
  <g id="g10" transform="matrix(1.25 0 0 -1.25 0 134.95)">
    <g id="g12">
      <path id="path14" style="fill-rule:evenodd;fill:#b3aa9e" d="m135.96 53.039-1.801-1.117c0.078 0.187 0.117 0.414 0.117 0.679l-0.039 0.321c-2.453-0.106-4.574 0.105-6.359 0.64-0.746 0.239-2.254 0.879-4.52 1.918-4.187 1.95-9.574 2.922-16.16 2.922-1.387 0-2.265-0.105-2.64-0.32l1.203-0.399c7.011-1.093 12.133-2.468 15.359-4.121 0.746-0.375 1.531-0.867 2.359-1.48 0.508-0.375 0.907-0.559 1.2-0.559 0.531 0 2.242-0.308 5.121-0.922l-6.403-0.039c-1.867 1.735-3.32 2.825-4.359 3.278-1.117 0.48-5.051 1.441-11.801 2.883 5.067-2.43 8.707-3.973 10.922-4.641 1.012-0.293 1.774-0.68 2.278-1.16l-2.2 0.398 2.602-1.32c0.293-0.824 0.348-1.547 0.16-2.16-0.109-0.289-0.254-0.559-0.441-0.797-2.719-0.453-4.653-0.68-5.801-0.68-4.348 0-7.824 0.652-10.438 1.957-4.32 2.16-7.093 3.43-8.32 3.801 2.934-2.613 4.973-4.106 6.121-4.481 1.305-0.453 2.238-0.906 2.797-1.359l-3.078 0.602c-0.988 0.906-1.895 1.547-2.719 1.918-1.148 0.398-2.23 0.812-3.242 1.238l0.121-0.199 1.078-3.438c0-0.75-1.187-1.375-3.558-1.883-3.016-0.636-7.508-0.957-13.481-0.957-2.988 0-5.027 0.438-6.121 1.321-4.16 3.332-7.348 5.679-9.559 7.039l-0.441 2.758c0.215 1.414 1.441 3.867 3.68 7.359 2.347 3.707 4.039 5.562 5.082 5.562 2.183 0 7.664-0.082 16.437-0.242 3.973-0.078 6.906 0.043 8.801 0.364 2.16 0.371 4.852 1.292 8.082 2.757 0.691 0.321 5.41 2.602 14.16 6.84 4.852-1.012 9.012-1.574 12.477-1.68 1.84-0.054 3.894-0.078 6.16-0.078 1.762-0.16 3.855-0.839 6.281-2.043 2.641-1.277 6.949-3.796 12.922-7.558-1.043-1.84-2.043-3.16-3-3.961-0.75-0.613-1.203-1.012-1.363-1.199l3.363 4.32-0.762-0.32c-3.492-2.801-6-4.719-7.519-5.762-2.692-1.813-4.735-2.719-6.121-2.719l-4.918 1c-3.282 0.668-6.293 1-9.039 1l-2.403-0.078 0.481-0.402c0.828-0.453 1.679-0.825 2.558-1.117 0.59-0.188 1.856-0.551 3.801-1.083-1.73 0.083-2.973 0-3.719-0.238l0.602-0.48c0.371-0.215 1.293-0.563 2.758-1.039 1.519-0.481 2.601-0.762 3.238-0.844h0.004zm3.437 0.48-0.359 0.282c1.496 0.132 3.414 0.187 5.762 0.16 1.625 0 2.719 0.094 3.277 0.281-0.613-0.426-1.039-0.695-1.277-0.801-0.508-0.215-1.11-0.32-1.801-0.32l-3.398 0.121c-0.293 0.184-1.028 0.277-2.204 0.277zm10.44-38.679c0.426 0.48 0.883 0.988 1.359 1.519l0.281 0.281c-0.585-0.667-1.132-1.265-1.64-1.8zm-116.6 9.48 1.524-0.238 1.078-0.242-2.602 0.48zm-25.879 16.121 0.84-0.441c0.481-0.266 0.879-0.52 1.199-0.758l-2.039 1.199zm3.563 7.52c-2.055 2.48-3.402 4-4.043 4.558-0.078-0.636-0.277-1.531-0.598-2.679-0.347-1.387-0.668-2.254-0.961-2.602-0.32 0.082-0.933 0.496-1.84 1.242-0.695 0.559-1.187 0.989-1.48 1.282l-1.078-0.723-0.922 3.641c0 0.906 0.094 1.628 0.281 2.16 0.321 0.961 0.957 1.734 1.918 2.32 2.801 0.453 4.746 1.148 5.84 2.082 0.641 0.531 1.574 1.465 2.801 2.797 1.226 0.934 3.105 2.668 5.64 5.203 1.305 1.332 2.598 2 3.879 2 0.266 0 1.282-0.469 3.039-1.402 0.082 0 1 1.16 2.762 3.48s3.145 3.481 4.16 3.481c0.028 0 1.012-0.266 2.961-0.801 1.946-0.504 3.051-0.758 3.321-0.758 0.878 0 1.625 0.227 2.238 0.68 0.746 0.558 1.121 1.32 1.121 2.277 0 0.75-0.188 1.496-0.563 2.242-0.503 1.012-1.32 1.879-2.437 2.598l2-0.879c0.746-0.691 1.332-1.121 1.758-1.277 0.215-0.11 0.547-0.243 1-0.403 1.066-0.613 3.679-3.281 7.84-8-5.387-3.039-8.625-5.507-9.719-7.398-0.613-1.043-1.121-2.563-1.52-4.563-0.265-1.254-0.734-3.718-1.398-7.398l0.598 6.398c-0.188-0.796-0.575-2.636-1.161-5.519-0.691-3.387-1.078-5.492-1.16-6.317-0.453-0.828-0.758-1.589-0.918-2.281-0.16-0.695-0.386-1.308-0.679-1.84-0.215-0.402-0.774-0.816-1.68-1.242-1.016-0.48-1.723-0.945-2.121-1.398l-0.281-0.52c-0.665-2.082-1.239-3.469-1.719-4.16-0.453-0.613-1.055-0.922-1.801-0.922-0.453 0-1 0.133-1.641 0.403-0.828 0.347-1.613 0.867-2.359 1.558-1.895 1.758-3.441 3.453-4.641 5.082-0.851 1.117-1.281 1.785-1.281 2 0 0.16 0.176 0.41 0.524 0.758 0.32 0.32 0.691 0.547 1.117 0.68 0.109 0.054 0.215 0.093 0.32 0.121l1.16 0.437 1.403 0.524c4.32-0.668 7.597 1.289 9.839 5.879 1.625 3.277 2.52 7.238 2.68 11.878l-4.441-11.839c-0.614-0.051-1.52-0.508-2.719-1.36-1.199-0.879-1.934-1.402-2.199-1.558 0.476 0.531 1.652 1.492 3.519 2.879 1.598 1.441 2.344 3 2.239 4.679-0.028 0.242-0.094 0.227-0.2-0.039-0.054-0.16-0.105-0.336-0.16-0.519-0.906-2.266-2.933-4.321-6.082-6.16-2.105-1.227-4.465-2.243-7.078-3.04-1.145 0.157-2.133 0.411-2.961 0.758 3.656-0.242 6.387 0.481 8.199 2.16 0.375 0.348 1.282 1.372 2.723 3.082 1.359 1.571 2.691 2.946 4 4.118l-13.402-7.481-0.918-0.121c-0.375 0-1.282-0.078-2.719-0.238zm20.957 18.32c-2.504 0.078-4.117-0.348-4.84-1.281 1.016-0.664 1.734-1 2.16-1 0.563 0 1.133 0.242 1.723 0.723 0.613 0.503 0.933 1.023 0.957 1.558zm13.281 22.84c-4.961 1.227-7.48 1.84-7.558 1.84-0.11 0-0.204-0.028-0.282-0.078 0.426 0.586 0.895 1.132 1.399 1.636-0.051-0.078-0.117-0.16-0.199-0.238l-0.758-1.121c1.359-0.238 2.812-0.492 4.359-0.758 1.172-0.187 2.68-0.281 4.52-0.281 0.558 0 1.265 0.066 2.121 0.199-1.524-0.347-2.723-0.746-3.602-1.199zm11.719 3.078c-1.625-0.586-3.68-1.094-6.16-1.519 1.441 0.375 4.586 1.359 9.441 2.96 5.735 1.868 11.442 3.801 17.121 5.801-9.574-2.265-16.386-3.906-20.441-4.922l-3.16-0.839-1.399-0.52c-1.679-0.398-2.75-0.625-3.203-0.68-0.504-0.05-1.41-0.293-2.719-0.718-1.199-0.375-1.828-0.563-1.879-0.563-0.773 0-1.601 0.375-2.48 1.121-0.906 0.746-1.625 1.121-2.16 1.121-0.106 0-0.227-0.054-0.36-0.16 2.692 2.586 6.442 4.774 11.239 6.559 4.562 1.707 8.906 2.761 13.043 3.16 2 0.187 7.371 1.148 16.117 2.883 6.883 1.382 13.785 2.078 20.723 2.078 2.398 0 5.183-0.559 8.359-1.68 1.891-0.668 5.293-1.879 10.199-3.641-0.586-2.375-1.707-4.039-3.359-5-1.735-0.613-2.828-1.027-3.281-1.238-0.774-0.375-1.852-0.801-3.243-1.281-1.25-0.398-2.515-0.934-3.797-1.602l0.879-0.16-3.36-0.758c0.16 0.106 0.84 0.504 2.039 1.2 0.75 0.453 1.414 0.961 2 1.519l-0.961-0.238c-1.15-0.266-5.47-0.535-12.959-0.801-7.894-0.266-12.641-0.519-14.242-0.762-1.785-0.265-3.133-0.597-4.039-1-0.719-0.32-1.707-0.519-2.961-0.597-2.984-0.188-4.613-0.535-4.879-1.039-0.105-0.243-0.266-0.723-0.48-1.442-0.321-0.828-0.864-1.695-1.641-2.601 1.523 0.668 2.844 1.215 3.961 1.64-3.199-1.918-5.051-3.011-5.559-3.281-0.054 0-0.281-0.094-0.679-0.277-0.723-0.375-1.508-0.828-2.36-1.36l-1.043-0.679c0.188 0.824 0.309 1.945 0.36 3.359 0.054 1.172 0.054 2.012 0 2.52 1.253 2.425 4.668 4.839 10.242 7.238l-1.403-0.399c1.254 0.399 2.227 0.758 2.922 1.079l-3.922-0.918 1.563 0.597c-4.43-1.437-7.773-2.558-10.039-3.359l-2.043-0.801zm66.081-7.199l0.117 0.121c0.641 0.293 1.375 0.547 2.199 0.762l-2.32-0.883zm-10.441-5.68 1.441 0.719-1.32-0.719-1.403-0.801 0.641 0.403 0.762 0.398h-0.121zm-21.52 11.442c-1.84-0.133-5.52-0.227-11.039-0.282l0.437 0.321-1.679-0.039c0.64 0.132 1.547 0.265 2.722 0.398 1.145 0.133 1.934 0.199 2.36 0.199 0.531 0 2.652-0.117 6.359-0.359 0.266-0.133 0.547-0.211 0.84-0.238zm19.441 8.121c0.051-0.375-0.015-0.657-0.203-0.844 1.016-0.613 2.535 0 4.563 1.844-2.535-0.348-3.989-0.684-4.36-1zm-34.881-56.801c1.203-0.402 2.253-0.602 3.16-0.602 0.269 0 1.933 0.133 5 0.403 3.203 0.265 5.402 0.371 6.601 0.316 2-0.133 4.039 0.16 6.118 0.883 2.96 1.012 4.523 1.531 4.683 1.558-1.121-0.8-2.641-1.546-4.562-2.242-1.946-0.636-3.2-1.05-3.758-1.238-0.11-0.027-1.375 0.078-3.801 0.32-2.375 0.266-4.133 0.145-5.281-0.359-2.664-0.16-5.078-0.215-7.239-0.16l-0.921 1.121zm1.32-1.402-0.16 0.043-0.199 0.199 0.359-0.242zm25.402 4.8-0.043 0.403 0.641-0.442-0.598 0.039zm-37.44 4.121 3.32-2.761c-0.668 0.215-1.398 0.722-2.199 1.519-0.453 0.453-0.828 0.867-1.121 1.242zm-2.52-16.8c-0.425 1.839-0.64 3.148-0.64 3.922l0.121 1.796 0.48 0.043 0.039-5.761zm3.559 8.121c-0.024 0.371-0.371 1.293-1.039 2.758-0.695 1.492-1.051 2.293-1.078 2.402 2.238-1.496 4.226-2.856 5.957-4.082 0.535 0 1.426 0.265 2.679 0.801-0.05-0.563-0.039-1.547 0.043-2.961 0-0.801-0.441-1.348-1.32-1.641-0.883-0.293-1.32-0.867-1.32-1.719 0-0.691 1.265-2.691 3.801-6 2.476-3.172 3.625-5.121 3.437-5.84-1.387-0.265-3.453 0.692-6.199 2.879-2.828 2.243-4.547 3.364-5.16 3.364-0.321 0-0.547-0.055-0.68-0.16-0.105-0.11-0.172-0.161-0.199-0.161-0.055-0.187-0.106-0.32-0.16-0.402-0.028-0.078-0.039-0.277-0.039-0.598 0-0.242 0.066-0.523 0.199-0.839 0.426-1.149 0.918-2.551 1.48-4.204-1.308 1.043-2.027 1.75-2.16 2.121 0 0.481-0.16 1.055-0.48 1.719l-0.121 3.641c0 1.441 0.281 2.613 0.839 3.519 0.321 0.563 0.879 1.348 1.68 2.36 0.375 0.613 1.133 1.027 2.281 1.242 0.559 0.105 1.188 0.211 1.879 0.316-0.586 0.536-0.879 0.95-0.879 1.243l-3.441 0.242zm44.48 4.48-3.64-0.121-0.559 0.481 4.199-0.36zm-58.238 29.68-0.16 0.16 0.48-0.441-0.32 0.281zm-33.563-30.082l2.043-0.117h-0.524l-1.519 0.117zm1.043-4.199c-0.829-0.426-1.243-0.813-1.243-1.161 0-0.347 0.149-0.64 0.442-0.878 0.504-0.426 2.172 0.625 5 3.16l0.597-0.16-0.277 1.32-0.32-1.16c-1.762-0.188-3.16-0.563-4.199-1.121zm44.519 11.359 0.238-0.238 0.243-1.801-0.481 2.039z" inkscape:connector-curvature="0"/>
      <path id="path16" style="fill-rule:evenodd;fill:#7c7367" d="m155.72 21.64c-0.399 0.801-0.785 2.028-1.16 3.68-0.293 1.363-0.438 2.203-0.438 2.52 0.801 3.386 1.332 5.429 1.598 6.121l-1.36-1.559c2.668 5.465 4.094 8.399 4.282 8.797 1.121 2.453 1.679 4.043 1.679 4.762 0.055 1.785-0.011 3.547-0.199 5.281-0.348 3.465-1.043 5.199-2.082 5.199l-6.961-0.082-0.598-0.039 3.04 4.403h0.042l0.079 0.078c0.16 0.187 0.613 0.586 1.359 1.199 0.961 0.801 1.961 2.121 3 3.961 1.52-1.067 3.281-3.613 5.281-7.641 2.082-4.16 3.121-7.347 3.121-9.558 0-5.493-1.679-11.493-5.043-18-1.066-2.082-2.281-4.149-3.636-6.2-1.203-1.734-1.871-2.707-2.004-2.922zm-30.481 18.961c-0.316 1.625-0.515 2.895-0.597 3.801l0.16-0.16c2.773-2.641 5.332-6.055 7.679-10.242 1.598-2.852 3.055-4.277 4.36-4.277 1.226 0 2.762 0.546 4.601 1.636 2.481 1.496 3.731 3.364 3.758 5.602l0.121-4.442c0-2.132-0.468-3.879-1.398-5.238-0.563-0.855-1.563-1.785-3-2.801-1.524-1.066-2.535-1.945-3.043-2.64-0.934-1.227-1.399-2.785-1.399-4.68 0-1.922 0.293-3.359 0.879-4.32 0.481-0.746 1.039-1.117 1.68-1.117 1.414 0 3.402 1.785 5.961 5.359 2.691 3.758 4.039 7.023 4.039 9.801 0 0.343 0.066 0.613 0.199 0.797 0.43 0.585 1.414 1.335 2.961 2.242-0.586-0.426-1.078-0.817-1.48-1.16-0.746-0.641-1.117-1.227-1.117-1.762 0-0.211 0.371-1 1.117-2.36 0.719-1.359 1.082-2.132 1.082-2.32 0-1.867-0.199-3.851-0.602-5.957-0.48-0.535-0.933-1.043-1.359-1.523-0.453-0.45-0.867-0.852-1.238-1.2-0.321-0.316-1.094-1.011-2.321-2.078 0-0.027-0.015-0.039-0.043-0.039-3.863-1.707-6.879-2.562-9.039-2.562-2.347 0-3.758 0.336-4.238 1-0.934 1.281-1.574 2.015-1.922 2.199-0.348-0.266-0.691-0.879-1.039-1.84-0.16-0.504-0.332-1-0.52-1.48-0.187-0.133-0.828-0.36-1.918-0.68-1.093-0.32-1.695-0.492-1.8-0.52-5.387-2.558-10.52-3.906-15.403-4.039l-0.398 2.282c0.641-0.375 2.293-0.707 4.961-1 5.144 0 8.824 1.519 11.039 4.558 1.625 2.215 2.441 5.16 2.441 8.84 0 5.547-0.429 10.492-1.281 14.84-0.082 0.426-0.703 2.922-1.879 7.48h-0.004zm-55.76-32.519c-9.492 6.215-16.812 11.078-21.96 14.598l-0.161-1.879-0.961 0.679c-0.503 1.254-1.011 2.094-1.519 2.52-0.371 0.293-0.559 0.574-0.559 0.84 0 3.175 0.535 6.761 1.602 10.761 0.879 3.227 1.691 5.493 2.437 6.797-0.398-1.758-0.851-3.73-1.359-5.918-0.32-1.414-0.48-2.398-0.48-2.961 0-0.504 0.093-0.879 0.281-1.117 0.238-0.293 1.144-1.293 2.719-3 0.105-0.133 0.894-2.16 2.359-6.082 0.508-1.226 1.933-2.254 4.281-3.082 0.078 1.735 0.121 4.043 0.121 6.922 0 2.719-0.043 4.945-0.121 6.68 0.371-5.067 3.121-10.16 8.238-15.282 3.469-3.437 7.84-6.718 13.122-9.839l0.32-0.321c-2.641 0.641-4.879 1.43-6.719 2.364-1.359 0.664-2.629 1.039-3.801 1.117 0.133-1.09 0.852-2.36 2.16-3.797zm-34.718 16-1.524 0.238c-3.199 0.082-5.383 0.36-6.558 0.84-0.879 0.375-2.188 1.426-3.918 3.16-1.016 1.016-2.563 2.348-4.641 4-3.629 2.879-5.453 4.332-5.48 4.36 3.039-0.879 5.757-2.321 8.16-4.321 2.078-1.758 3.824-2.707 5.238-2.84 2.613-0.293 4.602-0.398 5.961-0.32 0.535 0.242 0.895 0.508 1.078 0.801 0.055 0.269 0.121 0.562 0.203 0.883 0.184 0.64 0.438 1.25 0.758 1.84 0.906 0.292 2.066 0.531 3.481 0.718 1.226 0.266 2.359 0.852 3.402 1.758 1.812 1.602 2.973 3.027 3.476 4.281 0.375 0.907 0.668 1.614 0.883 2.121-0.933-2.425-1.679-5.695-2.242-9.8-1.094-3.762-3.851-6.332-8.277-7.719zm79.199 55.957-1.441-0.719c-2.961-0.293-4.879-0.586-5.758-0.879-1.282-0.426-2.453-0.734-3.524-0.922 2.485 1.95 4.403 3.586 5.762 4.922 3.172 3.121 4.762 5.614 4.762 7.481 0 1.519-0.227 2.504-0.684 2.961-0.371 0.398-1.183 0.597-2.437 0.597-1.149-0.078-2.364-0.144-3.641-0.199l-0.641 0.078-0.882 0.16c1.281 0.668 2.55 1.204 3.8 1.602 1.387 0.48 2.469 0.906 3.243 1.281 0.453 0.211 1.546 0.625 3.281 1.238 1.652 0.961 2.773 2.625 3.359 5v0.04c3.438-0.747 5.426-3.04 5.961-6.879 0.289-2.161 0.344-5.465 0.156-9.918-0.824-0.215-1.558-0.469-2.199-0.762-0.32 2.641-0.574 4.586-0.758 5.84-0.32 2.238-0.867 3.359-1.64 3.359-0.375 0-0.84-0.32-1.403-0.961 0.188-1.73 0.453-5.105 0.801-10.117l-6.117-3.203zm-13.16-7.316c0.773 0.449 2.121 1.425 4.039 2.917 2.133 1.415 4.48 2.508 7.039 3.282l-0.641-0.403-0.597-0.32 4.16-0.359c-0.906-0.934-2.856-1.867-5.84-2.801-2.293-0.719-3.816-1.117-4.563-1.199l-3.597-1.117zm38.597-19.204c2.27-1.972 3.735-3.398 4.403-4.281 1.226-1.598 1.906-3.426 2.039-5.476l0.961-1.204h-0.36c-0.269 0.188-0.468 0.59-0.601 1.204-2.586 3.25-4.399 5.586-5.442 7l-1.117 1.519c-0.054 0.024-1.16 0.277-3.32 0.758-0.641 0.082-1.719 0.359-3.238 0.84-1.469 0.48-2.387 0.828-2.762 1.039l-0.602 0.48c0.75 0.242 1.989 0.321 3.719 0.242 0.43-0.136 1.375-0.453 2.844-0.96 1.414-0.481 2.453-0.774 3.117-0.879l0.359-0.282zm-65.359 36.282 4.68 0.961 1.679 0.039l-0.439-0.321-0.121-0.16c-0.719-0.961-1.199-1.64-1.442-2.039-0.343-0.586-0.984-2.266-1.918-5.039v0.32c-0.027 2.266-0.054 3.438-0.082 3.52-0.238 1.226-1.023 2.133-2.359 2.719zm-3.84-0.918c-0.133-0.43-0.414-1.137-0.84-2.121-0.398-0.961-0.64-1.497-0.718-1.602-1.016-1.867-1.629-3.012-1.84-3.437-0.321-0.563-0.789-0.84-1.403-0.84-0.558 0-1.21 0.398-1.957 1.199-1.203 1.277-1.828 1.945-1.882 2l1.043 0.84c0.398 0.183 0.625 0.277 0.679 0.277 0.504 0.27 2.36 1.363 5.559 3.281l1.359 0.403zm-12.439-11.801 7.476-0.602c0.535 0 1-0.16 1.403-0.48 0.371-0.293 0.558-0.664 0.558-1.117-1.121-0.137-2.094-0.203-2.918-0.203-1.574 0-3.867 0.441-6.883 1.32-3.144 1.015-5.183 1.656-6.117 1.922l-1 0.48c1.387-1.387 3.172-2.707 5.36-3.961 1.464-0.828 2.199-1.574 2.199-2.242 0-0.797-0.254-1.73-0.762-2.797-0.344-0.746-1.199-2.508-2.558-5.281l-0.52-1c0.48 0.293 2.055 1.707 4.719 4.238 0.668 0.59 1.293 1.11 1.883 1.563-0.348-0.481-0.629-1.039-0.84-1.68-0.481-2.723-0.989-4.469-1.524-5.242-2.586-3.785-5.332-7.719-8.238-11.801 0.375 1.816 0.773 3.617 1.199 5.402l0.242 1.039c-0.429-0.535-1.64-2.214-3.64-5.039 0.211 1.305 0.426 2.532 0.64 3.68 0.399 2.188 1 3.734 1.797 4.641 1.789 2.051 2.883 3.398 3.282 4.039 0.906 1.414 1.359 2.867 1.359 4.359 0 0.934-0.266 2.082-0.801 3.442-0.504 1.253-1.051 2.265-1.637 3.039l-0.48 0.441-0.32 0.277c-0.508 0.43-2.547 1.454-6.121 3.082-3.68 1.707-5.547 2.575-5.598 2.598 1.172 0.055 2.879 0.094 5.117 0.121l0.199 0.039c0.242 0.082 0.961 0.59 2.16 1.524 1.043 0.773 2.442 1.359 4.204 1.757-0.348-0.64-1.067-1.48-2.161-2.519-0.882-0.856-1.32-1.465-1.32-1.84 0-0.988 0.746-1.547 2.238-1.68 2.856-0.242 5.321-0.746 7.403-1.519zm35.117-2c-2.051-0.723-4.371-1.16-6.957-1.32-2.43-0.133-4.574 0-6.442 0.398 4.161-0.027 7.375 0.094 9.641 0.359 1.227 0.137 2.481 0.321 3.758 0.563zm9.359-29.199c-0.05 0.289-0.183 0.625-0.398 1l3.082-0.602c0.183-0.215 0.305-0.332 0.359-0.359 0.16-0.11 0.453-0.16 0.879-0.16l0.563-0.481 0.515-0.601c0.801-1.094 1.602-2.665 2.403-4.719 0.824-2.215 1.121-3.668 0.879-4.36l-4.239 7.758c-0.375 0.16-0.988 0.496-1.84 1-0.961 0.59-1.48 0.949-1.562 1.082l-0.641 0.442zm-37.041 48.797c-3.465-1.012-5.48-1.692-6.039-2.04-0.453-0.585-1.066-1.226-1.84-1.917 0.825-0.11 1.907 0.132 3.239 0.718-2.852-2.082-4.797-3.441-5.84-4.082-1.52-0.957-3.145-1.679-4.879-2.16l0.441 0.481c0.852 0.585 1.758 1.668 2.719 3.242 0.801 1.332 2.094 2.426 3.879 3.277l2.043 0.801c2.266 0.801 5.613 1.922 10.039 3.359l-1.563-0.597-2.199-1.082zm18.641-25.438c-5.332-0.269-10.574 0.277-15.719 1.641l-1.402 0.398c1.093-0.027 3.988-0.359 8.679-1 4.801-0.668 7.614-1.016 8.442-1.039zm26.12-62.922c0 0.668 0.051 1.32 0.16 1.961-0.43-0.695-1.91-2.242-4.441-4.641-1.414-0.402-2.868-0.8-4.36-1.199-2.961-0.773-4.613-1.16-4.961-1.16-1.597 0-2.851 0.266-3.757 0.801-0.59 0.344-0.883 0.641-0.883 0.879 1.226 2.586 1.84 3.922 1.84 4 0 4.078-0.25 6.945-0.758 8.601-0.535 1.758-2.199 5.106-5 10.039 0.16-1.199 0.558-3.148 1.199-5.839 0.48-1.922 0.719-4.028 0.719-6.321 0-2.054-0.281-3.547-0.84-4.48-0.823-0.988-1.53-1.946-2.116-2.879-0.508-0.856-1.227-1.336-2.16-1.442-0.454-0.054-1.575 0.028-3.364 0.243 0.934 1.199 2.16 2.613 3.684 4.238 1.09 1.332 1.64 2.641 1.64 3.918 0 0.48-0.093 1.309-0.281 2.48l-0.121 1.563c0.133 2.183 0.16 3.652 0.082 4.398-0.082 0.852-0.629 3.149-1.64 6.879-0.586 2.563-1.879 5.215-3.879 7.961-1.684 2.348-3.067 3.813-4.161 4.403h0.161l0.156-0.043 8.922-0.598c0-0.055-0.106-0.602-0.321-1.641-0.187-0.855-0.281-1.441-0.281-1.761 0-0.481 0.535-1.665 1.602-3.559 1.281-2.238 2.039-3.68 2.281-4.32 0.879-2.266 2.051-4.227 3.52-5.879 0.746-0.828 1.453-1.547 2.121-2.16 0.289-0.586 0.398-1.493 0.316-2.723-0.051-0.664-0.133-1.691-0.238-3.078 0-2.375 1.453-3.559 4.359-3.559 0.133 0 1.067 0.117 2.801 0.36 1.73 0.238 3.094 0.359 4.078 0.359 0.801 0 1.586 0.691 2.359 2.078 0.934 1.684 1.403 3.816 1.403 6.402 0 0.321 0.211 1.985 0.64 5l0.64 4.399c0.027-0.266 0.188-2.399 0.484-6.399 0.317-4.187 0.477-7.039 0.477-8.562 0-1.813-0.144-3.449-0.437-4.918-0.375-1.734-0.922-3-1.641-3.801zm-86.198 41.563-5.203-2.883l1.519-0.117-0.879-0.524-1.16-0.437c-0.105-0.028-0.211-0.067-0.32-0.121-1.199-0.348-2.145-0.532-2.84-0.559-1.039 0-2.133 0.305-3.277 0.918 0.023 0.188 0.078 0.359 0.16 0.52 0.16 0.375 0.398 0.558 0.718 0.558 1.442 0 2.614 0.149 3.52 0.442 2.613 0.8 4.973 1.816 7.078 3.043 3.149 1.839 5.176 3.89 6.082 6.16 0.051 0.183 0.106 0.359 0.16 0.519 0.106 0.266 0.172 0.278 0.2 0.039 0.105-1.679-0.641-3.242-2.239-4.679-1.867-1.387-3.043-2.348-3.519-2.879zm22.957 0.359-0.16-2.203c-0.239-0.531-0.438-1.039-0.598-1.516l0.117 0.797c0.082 0.613 0.297 1.586 0.641 2.922z" inkscape:connector-curvature="0"/>
      <path id="path18" style="fill-rule:evenodd;fill:#d2c8ba" d="m32.879 83.961c1.359-0.879 2.723-1.856 4.082-2.922 1.117-0.719 1.934-1.586 2.437-2.598 0.375-0.746 0.563-1.492 0.563-2.242 0-0.957-0.375-1.719-1.121-2.277-0.613-0.453-1.36-0.68-2.238-0.68-0.27 0-1.375 0.25-3.321 0.758-1.949 0.535-2.933 0.801-2.961 0.801-1.015 0-2.398-1.161-4.16-3.481s-2.68-3.48-2.762-3.48c-1.757 0.933-2.773 1.402-3.039 1.402-1.281 0-2.574-0.668-3.879-2-2.535-2.535-4.414-4.269-5.64-5.203-1.227-1.332-2.16-2.266-2.801-2.797-1.094-0.934-3.039-1.629-5.84-2.082h-0.039c1.414 1.094 3.465 2.945 6.16 5.563 3.442 3.382 5.934 6.199 7.481 8.437 1.039 1.52 3.144 3.668 6.32 6.441 4.293 3.735 7.852 5.758 10.68 6.079l0.078 0.281zm15.883 6.359c-0.856-0.133-1.563-0.199-2.121-0.199-1.84 0-3.348 0.094-4.52 0.281-1.547 0.266-3 0.52-4.359 0.758l0.758 1.121c0.082 0.078 0.148 0.16 0.199 0.238l0.121 0.121c0.215 0.321 0.426 0.536 0.64 0.641 0.133 0.106 0.254 0.16 0.36 0.16 0.535 0 1.254-0.375 2.16-1.121 0.879-0.746 1.707-1.121 2.48-1.121 0.051 0 0.68 0.188 1.879 0.563 1.309 0.425 2.215 0.664 2.719 0.718 0.453 0.055 1.524 0.282 3.203 0.68l1.399 0.52 3.16 0.839c4.055 1.016 10.867 2.653 20.441 4.922-5.679-2-11.386-3.933-17.121-5.801-4.855-1.601-8-2.585-9.441-2.96-0.239-0.051-0.426-0.094-0.559-0.118-0.508-0.109-0.972-0.187-1.398-0.242zm90.277-36.519c-0.664 0.105-1.707 0.398-3.117 0.879-1.469 0.507-2.414 0.828-2.844 0.96-1.945 0.536-3.211 0.895-3.797 1.083-0.883 0.292-1.734 0.664-2.558 1.117l-0.485 0.402 2.403 0.078c2.746 0 5.757-0.332 9.039-1l4.922-1c1.386 0 3.425 0.906 6.117 2.719 1.519 1.043 4.027 2.961 7.519 5.762l0.762 0.32-3.359-4.32-0.082-0.078h-0.039l-3.043-4.403c-0.45-0.613-0.797-1.027-1.039-1.238-0.293-0.266-0.747-0.547-1.36-0.84-0.558-0.187-1.652-0.281-3.281-0.281-2.344 0.027-4.262-0.028-5.758-0.16zm9.402-8.321c-0.214 0.426-0.336 0.961-0.363 1.602v0.238l0.082 1.403 0.481-0.684c0.613-0.641 1.093-1.57 1.441-2.801 0.238-0.851 0.359-1.515 0.359-2 0-0.398-0.105-0.68-0.32-0.84-0.266-0.133-0.48-0.265-0.641-0.398l-0.238 2.719-0.043-0.039c-0.32 0.187-0.574 0.453-0.758 0.8zm-19.363-0.879c-0.133 0.348-0.223 0.598-0.277 0.758-0.11 0.293-0.16 0.602-0.16 0.922s0.066 0.465 0.199 0.442c0.082 0 0.254-0.028 0.519-0.083 1.653 0.028 2.852-0.613 3.602-1.917 0.531-0.911 0.801-1.989 0.801-3.243 0-0.242-0.016-0.386-0.043-0.441-0.106-0.316-0.371-0.707-0.797-1.156l-1.242 1.156c-1.625 1.441-2.508 2.336-2.641 2.684 0.133 0.21 0.149 0.503 0.039 0.878zm0.723 6c-2.879 0.614-4.586 0.918-5.121 0.918-0.293 0-0.692 0.188-1.2 0.563-0.828 0.613-1.613 1.105-2.359 1.48-3.226 1.653-8.348 3.024-15.359 4.118l-1.2 0.402c0.372 0.211 1.25 0.32 2.637 0.32 6.59 0 11.977-0.972 16.16-2.922 2.27-1.039 3.774-1.679 4.52-1.918 1.789-0.535 3.91-0.75 6.359-0.64l0.043-0.321c0-0.265-0.043-0.492-0.121-0.679-0.265-0.403-1-0.75-2.199-1.039-0.906-0.188-1.629-0.282-2.16-0.282zm-33.12 40.438c-1.575-0.133-3.746-0.145-6.52-0.039-3.707 0.242-5.824 0.359-6.359 0.359-0.426 0-1.215-0.066-2.36-0.199-1.171-0.133-2.082-0.266-2.718-0.398l-4.684-0.961h-0.078l-3.762-0.918-1.359-0.403c-1.117-0.425-2.438-0.972-3.961-1.64 0.777 0.906 1.32 1.773 1.641 2.601 0.214 0.719 0.375 1.199 0.48 1.442 0.266 0.504 1.895 0.851 4.879 1.039 1.254 0.078 2.242 0.277 2.961 0.597 0.906 0.403 2.254 0.735 4.039 1 1.601 0.243 6.348 0.496 14.242 0.762 7.492 0.266 11.813 0.535 12.957 0.801l0.961 0.238c-0.586-0.558-1.25-1.066-2-1.519-1.199-0.696-1.879-1.094-2.039-1.2-0.852-0.773-2.961-1.293-6.32-1.562zm18.601-59.078c-0.101 0.851-0.219 1.676-0.359 2.48 0.148-0.754 0.336-1.57 0.558-2.441 1.094-4.824 1.641-7.785 1.641-8.879 0-0.801-0.32-1.52-0.961-2.16-0.293 5.199-0.586 8.867-0.879 11zm-4.84 66.922c0.371 0.316 1.825 0.652 4.36 1-2.028-1.844-3.547-2.453-4.563-1.844 0.188 0.187 0.254 0.469 0.203 0.844zm-53.042-49.364c1.922 1.789 3.016 2.84 3.282 3.161 0.105-3.227 0.281-6.399 0.519-9.52 0.055-1.52-0.387-2.277-1.32-2.277-1.094 0-1.957 0.437-2.598 1.316-0.75 1.016-1.121 2.535-1.121 4.563 0 1.066 0.414 1.984 1.238 2.757zm7.442 0.082-0.238 0.52-0.243 1.801-0.238 0.238c-0.402 0.695-0.601 1.441-0.601 2.242l0.082 2.278 0.32-2 0.437-2.758c2.215-1.36 5.403-3.707 9.563-7.039 1.09-0.883 3.133-1.321 6.117-1.321 5.973 0 10.469 0.321 13.481 0.957 2.375 0.508 3.558 1.133 3.558 1.883l-1.078 3.438-0.121 0.199c1.016-0.426 2.094-0.84 3.242-1.238 0.824-0.375 1.734-1.012 2.719-1.918 0.215-0.375 0.348-0.707 0.398-1l0.043-0.403c-0.027-0.32-0.254-0.558-0.679-0.718l-0.481-0.122c-0.16-0.023-1.723-0.546-4.683-1.558-2.079-0.719-4.118-1.012-6.118-0.879-1.199 0.051-3.398-0.055-6.601-0.32-3.067-0.266-4.731-0.399-5-0.399-0.907 0-1.957 0.199-3.16 0.598-1.254 0.375-2.653 1.105-4.2 2.199-0.586 0.426-1.652 1.281-3.199 2.559l-3.32 2.761zm55.719-2.562-1.719-1c-0.746-0.238-1.481-0.426-2.199-0.559-1.735-0.211-3.829-0.238-6.282-0.078l-4.199 0.36c-0.426 0-0.719 0.05-0.883 0.16-0.05 0.027-0.172 0.144-0.355 0.359-0.563 0.453-1.496 0.906-2.801 1.359-1.148 0.375-3.187 1.868-6.121 4.481 1.227-0.375 4-1.641 8.32-3.801 2.614-1.305 6.094-1.961 10.442-1.961 1.144 0 3.078 0.227 5.797 0.68zm-54.681-6.117 3.441-0.242c0-0.293 0.293-0.707 0.879-1.239-0.691-0.109-1.32-0.215-1.879-0.32-1.148-0.215-1.906-0.625-2.281-1.238-0.801-1.016-1.359-1.801-1.68-2.364-0.558-0.906-0.839-2.078-0.839-3.519l0.121-3.641c0.054-1.332 0.027-2.344-0.082-3.039l-0.481 1.082c-0.316 1.172-0.57 3.305-0.758 6.399l-0.039 5.761c0.106 0.852 0.278 1.774 0.52 2.758l0.277 1.242c0.43-0.668 1.027-1.148 1.801-1.441 0.375-0.133 0.707-0.199 1-0.199zm-34 25.359c-0.024-0.535-0.348-1.055-0.957-1.558-0.59-0.481-1.16-0.723-1.723-0.723-0.426 0-1.144 0.336-2.16 1 0.723 0.933 2.336 1.359 4.84 1.281zm-20.957-18.32c1.437 0.16 2.344 0.238 2.719 0.238l0.918 0.121 13.402 7.481c-1.309-1.172-2.641-2.547-4-4.118-1.441-1.71-2.348-2.734-2.723-3.082-1.812-1.679-4.543-2.402-8.199-2.16-0.211 0.028-0.691 0.199-1.437 0.52-0.723 0.293-1.188 0.519-1.403 0.679l0.723 0.321zm7.637-2.961l5.203 2.883c0.265 0.156 1 0.679 2.199 1.558 1.199 0.852 2.105 1.309 2.719 1.36l4.441 11.839c-0.16-4.64-1.055-8.601-2.68-11.878-2.242-4.586-5.519-6.547-9.839-5.879l-2.043 0.117zm1.043-4.199c1.039 0.558 2.437 0.933 4.199 1.121l0.32 1.16 0.277-1.32-0.597 0.16c-2.828-2.535-4.496-3.586-5-3.16-0.293 0.238-0.442 0.531-0.442 0.878 0 0.348 0.414 0.735 1.243 1.161z" inkscape:connector-curvature="0"/>
      <path id="path20" style="fill-rule:evenodd;fill:#9b9286" d="m11.52 37.601-2.122 1.641c-0.32 0.238-0.718 0.492-1.199 0.758 0.426 0.375 1.602 1.226 3.52 2.562l0.203 0.278c-1.817 0.562-3.188 1.027-4.121 1.402-1.067 0.426-2.321 0.867-3.762 1.32v-2c-0.293 0.477-0.664 1.09-1.117 1.84-0.961 1.625-1.563 2.664-1.801 3.117-0.027 0.082-0.055 0.149-0.082 0.204l-0.117 0.316 1.078 0.723c0.293-0.293 0.785-0.723 1.48-1.282 0.907-0.746 1.52-1.16 1.84-1.242 0.293 0.348 0.614 1.215 0.961 2.602 0.321 1.148 0.52 2.043 0.598 2.679 0.641-0.558 1.988-2.078 4.043-4.558l-0.723-0.321c0.215-0.16 0.68-0.386 1.403-0.679 0.746-0.321 1.226-0.492 1.437-0.52 0.828-0.347 1.816-0.601 2.961-0.758-0.906-0.296-2.078-0.441-3.52-0.441-0.32 0-0.558-0.187-0.718-0.559-0.082-0.16-0.137-0.335-0.16-0.523 1.144-0.613 2.238-0.918 3.277-0.918 0.695 0.027 1.641 0.215 2.84 0.559-0.426-0.133-0.797-0.36-1.117-0.68-0.348-0.348-0.524-0.602-0.524-0.762 0-0.211 0.43-0.879 1.281-2 1.2-1.625 2.746-3.32 4.641-5.078 0.746-0.695 1.535-1.215 2.359-1.558 0.641-0.27 1.188-0.403 1.641-0.403 0.746 0 1.348 0.309 1.801 0.918 0.48 0.695 1.054 2.082 1.719 4.16 0.48-0.476 1.386-1.371 2.718-2.679 1.121-1.227 1.723-2.227 1.801-3-0.32-0.586-0.57-1.2-0.758-1.84-0.082-0.321-0.148-0.614-0.203-0.879-0.183-0.293-0.547-0.563-1.078-0.801-1.359-0.078-3.348 0.027-5.961 0.32-1.84 1.707-3.48 3.067-4.918 4.079-2.586 1.898-5.789 3.23-9.601 4.003zm40.601 37.481c1.254-3.547 1.879-5.883 1.879-7 0-2.508-1.602-4.535-4.801-6.082-1.625-0.719-2.758-1.238-3.398-1.559-1.121-0.508-1.746-1.015-1.879-1.519-0.668-2.242-1.508-6.653-2.524-13.242-0.558-3.68-1.503-5.52-2.839-5.52-1.172 0-1.758 2.402-1.758 7.199l0.121 3.762c0.664 3.68 1.133 6.144 1.398 7.398 0.399 2 0.907 3.52 1.52 4.563 1.094 1.891 4.332 4.359 9.719 7.398-4.161 4.719-6.774 7.387-7.84 8-0.453 0.16-0.785 0.293-1 0.403-0.426 0.156-1.012 0.586-1.758 1.277 2.426-0.961 4.547-1.84 6.359-2.641 1.282-0.531 3.387-1.199 6.321-2l0.32-0.277 0.16-0.16zm-7.082 6.238c-0.801 0.852-1.719 1.629-2.758 2.32-2.027 1.36-4.84 2.215-8.441 2.559 0.801 1.203 1.293 1.906 1.48 2.121 0.559 0.668 0.973 1.16 1.239 1.481l0.242 0.558c0.16 0.27 0.332 0.442 0.519 0.524 0.078 0.05 0.172 0.078 0.282 0.078 0.078 0 2.597-0.613 7.558-1.84-0.48-0.668-0.719-1.293-0.719-1.879 0-0.426 0.094-1.309 0.278-2.641 0.187-1.386 0.359-2.468 0.519-3.242l-0.199-0.039zm19.801-31.719c0.293-0.375 0.668-0.785 1.121-1.242 0.801-0.797 1.531-1.304 2.199-1.519 1.547-1.278 2.613-2.133 3.199-2.559 1.547-1.094 2.946-1.828 4.2-2.199l0.921-1.121 0.239-0.238h-0.16c1.093-0.586 2.48-2.055 4.16-4.403 2-2.746 3.293-5.398 3.883-7.957 0-0.48-0.11-2.402-0.321-5.762 0-0.214 0.211-0.961 0.641-2.238 0.453-1.281 0.867-2.375 1.238-3.281l0.121-1.559c-1.574-2.855-2.679-4.281-3.32-4.281-3.52 0-7.227 1.387-11.121 4.16-1.227 0.879-3.867 3.184-7.918 6.918-1.254 1.176-2.36 2.414-3.32 3.719-1.094 1.547-1.813 2.976-2.161 4.281-0.64 2.508-1.214 5.094-1.718 7.762-0.641 3.277-0.961 5.558-0.961 6.84 0 2.078 0.734 4.211 2.199 6.398 1.68 2.481 2.746 5.653 3.199 9.52 0.348 2.855 1.133 5.082 2.36 6.679 1.042 1.364 2.574 2.481 4.601 3.364 5.149-1.364 10.387-1.91 15.719-1.641 2.32 0 4.508 0.172 6.562 0.52 0.477 0.027 1.41 0.199 2.797 0.519 2.801 0.559 5.016 1.199 6.641 1.918l4.562 1.641c0.746 0.082 2.266 0.48 4.559 1.199 2.984 0.934 4.934 1.867 5.84 2.801l5.359-0.52c-8.746-4.238-13.465-6.519-14.16-6.84-3.227-1.465-5.918-2.386-8.078-2.757-1.895-0.321-4.828-0.442-8.801-0.364-8.773 0.16-14.254 0.242-16.441 0.242-1.039 0-2.735-1.851-5.078-5.562-2.243-3.492-3.469-5.945-3.68-7.359l-0.32 2-0.082-2.278c0-0.801 0.203-1.547 0.601-2.242l0.481-2.039 0.238-0.52zm-7.442-0.082c-0.824-0.773-1.238-1.691-1.238-2.757 0-2.028 0.371-3.547 1.121-4.563 0.641-0.879 1.504-1.316 2.598-1.316 0.933 0 1.375 0.757 1.32 2.277-0.238 3.121-0.414 6.293-0.519 9.523-0.266-0.324-1.36-1.375-3.282-3.164zm71.68-4.918c-2.316 1.786-3.652 2.868-4 3.239-0.398 0.187-0.797 0.281-1.199 0.281-0.024-0.613 0.109-1.387 0.402-2.32 0.16-0.481 0.332-1 0.52-1.559l-0.16 0.16c0.082-0.906 0.281-2.176 0.597-3.801 0.055-5.148-0.039-9.05-0.277-11.718-0.109-1.176-0.414-3.2-0.922-6.082-0.851-4.879-1.371-7.52-1.559-7.918-0.507-1.121-1.867-1.68-4.082-1.68-2.21 0-3.453 0.84-3.718 2.52-0.106 3.652-0.305 7.492-0.602 11.519-0.449 6.508-0.691 9.84-0.719 10-0.05 0.664-0.437 1.719-1.16 3.16-0.691 1.414-1.039 2.199-1.039 2.36 0 0.211-0.172 0.453-0.519 0.718-0.641 0.508-1.774 0.907-3.399 1.2l-0.519 0.601 3.64 0.117c2.449-0.16 4.547-0.133 6.278 0.082 0.722 0.133 1.453 0.321 2.199 0.559l1.722 1c0.184 0.242 0.333 0.508 0.438 0.801 0.188 0.613 0.137 1.332-0.16 2.16 0.348-0.133 1-0.348 1.961-0.641s1.508-0.437 1.64-0.437c1.309 0 3.375 0.343 6.2 1.039 1.199 0.265 2.453 0.465 3.761 0.597 2.641 0.243 4.414 0.082 5.321-0.476 0.504-0.32 0.89-0.801 1.156-1.442 0.59-0.64 1.281-1.734 2.082-3.281 0.719-1.492 1.082-2.426 1.082-2.801 0-2.984-2.027-5.414-6.082-7.277-0.852 0-1.824 0.41-2.918 1.238-1.441 1.067-2.563 2.575-3.363 4.52l1.242-1.16c0.426 0.453 0.691 0.84 0.801 1.16 0.027 0.055 0.039 0.199 0.039 0.441 0 1.25-0.266 2.332-0.801 3.239-0.746 1.308-1.945 1.949-3.598 1.918-0.269 0.054-0.441 0.082-0.519 0.082-0.133 0.027-0.203-0.121-0.203-0.438 0-0.32 0.054-0.629 0.16-0.922 0.051-0.16 0.144-0.41 0.277-0.758zm19.363 0.879c0.184-0.347 0.438-0.613 0.758-0.8l0.039 0.043 0.24-2.723c0.161 0.133 0.375 0.269 0.641 0.402 0.215 0.16 0.32 0.438 0.32 0.84 0 0.481-0.121 1.145-0.363 2-0.344 1.227-0.824 2.16-1.437 2.797l-0.481 0.684-0.082-1.403v-0.238c-0.211 0.719-0.476 1.344-0.797 1.879-0.347 0.558-1.293 1.226-2.84 2-1.519 0.746-2.468 1.508-2.839 2.281l3.4-0.121c0.691 0 1.293 0.105 1.801 0.32 0.238 0.106 0.664 0.375 1.277 0.801 0.617 0.293 1.07 0.574 1.363 0.84 0.239 0.211 0.586 0.625 1.039 1.238l0.598 0.039-0.117-0.476c0.586-0.59 1.906-0.95 3.961-1.082 1.547-0.106 2.316-0.852 2.316-2.239 0-2.16-1.183-4.922-3.558-8.281-2.481-3.066-3.801-4.707-3.957-4.922-0.645 0.375-1 1.629-1.082 3.762-0.028 0.852-0.094 1.641-0.2 2.359zm-28 5.442c-0.507 0.48-1.269 0.867-2.281 1.16-2.215 0.664-5.851 2.211-10.922 4.641 6.75-1.442 10.684-2.403 11.801-2.883 1.039-0.453 2.496-1.547 4.359-3.278-1.066 0.078-2.05 0.2-2.957 0.36zm-40.6 39.398l0.121 0.16c5.519 0.055 9.199 0.149 11.039 0.282 0.906-0.055 4.691-0.016 11.359 0.121 0.536 0 1.2-0.028 2-0.082l0.121-1.321c0-2.507-1.761-4.84-5.281-7-3.574-2.215-7.492-3.32-11.761-3.32-3.731 0-6.25 0.453-7.559 1.359-1.094 0.746-1.641 2.121-1.641 4.121 0 0.481 0.52 1 1.563 1.559 1.597 0.906 2.746 1.668 3.437 2.281l0.321 0.2c-0.747 0.054-1.454 0.16-2.121 0.32 0.054 0.187 0.253 0.375 0.601 0.562l1 0.399-3.199 0.359zm-11.199-5.16c0.078 0.105 0.32 0.641 0.718 1.602 0.426 0.984 0.707 1.691 0.84 2.121l3.762 0.918-1.281-1.52c0.054 0.055 0.148 0.16 0.281 0.32 0.16 0.133 0.414 0.2 0.758 0.2 0.347 0 0.789-0.067 1.32-0.2l0.121-0.32c0.051-0.215 0.078-0.48 0.078-0.801 0-3.304-0.05-5.226-0.16-5.757-0.371-1.922-1.41-2.883-3.117-2.883-1.496 0-2.481 0.468-2.961 1.402-0.266 0.504-0.398 1.359-0.398 2.559l0.039 2.359zm-3.403-8.68-7.476 0.602c-0.907 0.531-2.067 1.547-3.481 3.039-0.586 0.641-1.828 0.812-3.722 0.519 0.269 1.465 1.32 2.614 3.16 3.442 2.453 1.117 4.402 2.68 5.84 4.68 0.054-0.508 0.054-1.348 0-2.52-0.051-1.414-0.172-2.535-0.36-3.359l-0.918-0.801c0.453-0.266 1.614-0.707 3.481-1.32 1.758-0.907 2.918-2.336 3.476-4.282zm50.043-44.519c0.293-2.133 0.586-5.801 0.879-11 0.641 0.64 0.961 1.359 0.961 2.16 0 1.094-0.547 4.051-1.641 8.879-0.222 0.871-0.41 1.687-0.558 2.441 0.137-0.804 0.258-1.633 0.359-2.48zm-18.6 59.078c3.359 0.269 5.468 0.789 6.32 1.562l3.359 0.758 0.641-0.078c-2.879-1.016-4.707-1.625-5.48-1.84-1.625-0.402-3.239-0.535-4.84-0.402zm4.441-46.399 0.481 0.122c0.503-0.375 1.359-0.762 2.558-1.161 1.149-0.535 2.106-1.402 2.879-2.601 1.176-1.813 1.883-2.945 2.121-3.399 0.453-0.906 0.68-1.867 0.68-2.878-1.094-9.227-2.199-13.84-3.32-13.84-1.786 0-3.575 0.73-5.36 2.199-1.652 1.332-2.48 2.492-2.48 3.48 0 0.637 0.199 2.879 0.601 6.719l-0.242 1.801c-1.303-0.109-2.545-0.133-3.717-0.082-2.265 0.082-3.945 0.492-5.039 1.238-0.453 0.297-0.746 0.867-0.883 1.723-0.105 0.961-0.226 1.652-0.359 2.078-0.453 1.574-2.227 1.934-5.316 1.082 1.144 0.508 2.906 0.625 5.277 0.359 2.426-0.242 3.695-0.347 3.801-0.32 0.558 0.188 1.812 0.602 3.761 1.242 1.918 0.692 3.438 1.438 4.559 2.238zm-38.84-6.078-0.48-0.043-0.121-1.796c0-0.774 0.215-2.083 0.64-3.922 0.188-3.094 0.442-5.227 0.758-6.399l0.481-1.082c0.109 0.695 0.136 1.707 0.082 3.039 0.32-0.664 0.48-1.238 0.48-1.719 0.133-0.371 0.852-1.078 2.16-2.117-0.562 1.653-1.054 3.051-1.48 4.2-0.133 0.316-0.199 0.597-0.199 0.839 0 0.321 0.011 0.52 0.039 0.598 0.054 0.082 0.105 0.215 0.16 0.402 0.027 0 0.094 0.051 0.199 0.161 0.133 0.105 0.359 0.16 0.68 0.16 0.613 0 2.332-1.121 5.16-3.36 2.746-2.187 4.812-3.148 6.199-2.883 0.188 0.719-0.961 2.668-3.437 5.84-2.536 3.309-3.801 5.309-3.801 6 0 0.856 0.437 1.426 1.32 1.719 0.879 0.297 1.32 0.84 1.32 1.641-0.082 1.414-0.093 2.402-0.043 2.961-1.252-0.532-2.143-0.801-2.678-0.801-1.731 1.226-3.719 2.586-5.957 4.082 0.023-0.109 0.383-0.906 1.078-2.399 0.668-1.468 1.015-2.386 1.039-2.761-0.293 0-0.625 0.066-1 0.199-0.774 0.293-1.371 0.773-1.801 1.441l-0.277-1.242c-0.242-0.984-0.414-1.906-0.52-2.758zm-43.082 5.797 0.879 0.524h0.524l-1.403-0.524zm16 1.321c0-1.868-0.519-3.465-1.558-4.797-1.067-1.309-2.348-1.961-3.84-1.961 0.398 0.453 1.105 0.918 2.121 1.398 0.906 0.426 1.465 0.84 1.68 1.242 0.293 0.532 0.519 1.145 0.679 1.84 0.16 0.692 0.465 1.453 0.918 2.278z" inkscape:connector-curvature="0"/>
      <path id="path22" style="fill-rule:evenodd;fill:#898074" d="m52.121 75.082 0.32-0.281c0.586-0.774 1.133-1.786 1.637-3.039 0.535-1.36 0.801-2.508 0.801-3.442 0-1.492-0.453-2.945-1.359-4.359-0.399-0.641-1.493-1.988-3.282-4.039-0.797-0.907-1.398-2.453-1.797-4.641-0.214-1.148-0.429-2.375-0.64-3.68-0.106-0.242-0.309-0.8-0.602-1.679-0.32-0.934-0.48-1.496-0.48-1.684-0.344-1.332-0.559-2.305-0.641-2.918l-0.117-0.801c0.16 0.481 0.359 0.989 0.598 1.52l-0.84-3.359c-0.16-0.348-0.305-0.707-0.438-1.079-0.215-0.507-0.508-1.214-0.883-2.121-0.503-1.254-1.664-2.679-3.476-4.281-1.043-0.906-2.176-1.492-3.402-1.758-1.415-0.187-2.575-0.426-3.481-0.718-0.078 0.773-0.68 1.773-1.801 3-1.332 1.304-2.238 2.199-2.718 2.679l0.281 0.52c1.492 0 2.773 0.652 3.84 1.961 1.039 1.332 1.558 2.929 1.558 4.797 0.082 0.828 0.469 2.933 1.16 6.32 0.586 2.879 0.973 4.719 1.161 5.519l-0.598-6.398-0.121-3.762c0-4.797 0.586-7.199 1.758-7.199 1.336 0 2.281 1.84 2.839 5.52 1.016 6.585 1.856 11 2.524 13.242 0.133 0.504 0.758 1.011 1.879 1.519 0.64 0.321 1.773 0.84 3.398 1.559 3.199 1.547 4.801 3.574 4.801 6.082 0 1.117-0.625 3.453-1.879 7zm-40.601-37.481c3.812-0.773 7.015-2.105 9.601-4 1.438-1.015 3.078-2.375 4.918-4.082-1.414 0.133-3.16 1.082-5.238 2.84-2.403 2-5.121 3.442-8.16 4.321l-1.121 0.921zm-3.321 2.399-0.84 0.441c-0.027 0.028-0.214 0.133-0.558 0.321-0.403 0.238-1.039 0.746-1.922 1.519l-0.84 1.039v2.242c1.441-0.453 2.695-0.894 3.762-1.32 0.933-0.375 2.304-0.84 4.121-1.402l-0.203-0.278c-1.918-1.336-3.094-2.187-3.52-2.562zm43.442 35.519c-2.934 0.801-5.039 1.469-6.321 2-1.812 0.801-3.933 1.68-6.359 2.641l-2 0.879c-1.359 1.066-2.723 2.043-4.082 2.922l0.16 0.48 0.801 1.758c3.601-0.344 6.414-1.199 8.441-2.559 1.039-0.691 1.957-1.464 2.758-2.32-2.238-0.027-3.945-0.066-5.117-0.121 0.051-0.023 1.918-0.891 5.598-2.598 3.574-1.628 5.613-2.652 6.121-3.082zm71.439 9.602-0.12-0.121c-0.934-0.641-1.895-1.227-2.883-1.758-0.344 5.012-0.613 8.387-0.801 10.117 0.563 0.641 1.028 0.961 1.403 0.961 0.773 0 1.32-1.121 1.64-3.359 0.188-1.254 0.442-3.199 0.758-5.84zm28-28.762 6.961 0.082c1.039 0 1.734-1.734 2.082-5.199 0.188-1.734 0.254-3.492 0.199-5.281 0-0.719-0.558-2.309-1.679-4.762-0.188-0.398-1.614-3.332-4.282-8.797l-2.16-2.48c-1.547-0.907-2.531-1.653-2.961-2.242-0.133-0.184-0.199-0.454-0.199-0.797 0-2.778-1.348-6.043-4.039-9.801-2.559-3.574-4.547-5.359-5.961-5.359-0.641 0-1.199 0.371-1.68 1.117-0.586 0.961-0.879 2.398-0.879 4.32 0 1.895 0.465 3.453 1.399 4.68 0.508 0.695 1.519 1.574 3.043 2.64 1.437 1.016 2.437 1.946 3 2.801 0.93 1.359 1.398 3.106 1.398 5.238l-0.121 4.442c-0.027-2.238-1.277-4.106-3.758-5.602-1.839-1.09-3.375-1.636-4.601-1.636-1.305 0-2.762 1.425-4.36 4.277-2.347 4.187-4.906 7.601-7.679 10.242-0.188 0.559-0.36 1.078-0.52 1.559-0.293 0.933-0.426 1.707-0.402 2.32 0.402 0 0.801-0.094 1.199-0.281 0.348-0.371 1.684-1.453 4-3.239 0.11-0.375 0.094-0.668-0.039-0.882 0.133-0.348 1.016-1.239 2.641-2.68 0.8-1.945 1.922-3.453 3.359-4.52 1.094-0.824 2.066-1.238 2.922-1.238 4.051 1.867 6.078 4.293 6.078 7.277 0 0.375-0.359 1.309-1.078 2.801-0.801 1.547-1.496 2.641-2.082 3.281-0.266 0.641-0.652 1.122-1.16 1.442-0.907 0.558-2.68 0.719-5.321 0.48-1.304-0.136-2.558-0.336-3.757-0.601-2.829-0.692-4.895-1.039-6.2-1.039-0.132 0-0.679 0.144-1.64 0.437s-1.613 0.508-1.961 0.641l-2.602 1.32 2.203-0.398c0.907-0.16 1.891-0.282 2.957-0.36l6.403 0.039c0.531 0 1.254 0.094 2.16 0.282 1.199 0.293 1.934 0.64 2.199 1.039l1.801 1.117c2.16-0.477 3.266-0.731 3.316-0.758l1.121-1.519c1.04-1.414 2.856-3.747 5.442-7 0.133-0.614 0.332-1.012 0.598-1.2h0.363l-0.961 1.2c-0.133 2.054-0.813 3.878-2.039 5.48-0.668 0.879-2.137 2.309-4.403 4.281 1.176 0 1.907-0.093 2.2-0.281 0.375-0.773 1.32-1.535 2.84-2.281 1.55-0.774 2.496-1.438 2.839-2 0.321-0.531 0.59-1.16 0.801-1.879 0.027-0.641 0.149-1.176 0.36-1.602 0.109-0.718 0.175-1.507 0.203-2.359 0.078-2.133 0.437-3.387 1.078-3.758 0.16 0.211 1.48 1.852 3.961 4.918 2.375 3.359 3.558 6.121 3.558 8.281 0 1.387-0.773 2.133-2.316 2.239-2.055 0.132-3.375 0.496-3.961 1.082l0.117 0.476zm-60.08 34.403c-0.293 0.027-0.574 0.105-0.84 0.238 2.774-0.106 4.945-0.094 6.52 0.039 1.597-0.133 3.215 0 4.84 0.402 0.773 0.215 2.601 0.824 5.48 1.84 1.281 0.055 2.492 0.121 3.641 0.199 1.254 0 2.066-0.199 2.437-0.597 0.457-0.453 0.684-1.442 0.684-2.961 0-1.867-1.586-4.36-4.762-7.481-1.359-1.336-3.277-2.972-5.758-4.922-1.066-0.16-4.519-0.972-10.363-2.437-1.277-0.242-2.531-0.426-3.758-0.563-2.266-0.265-5.48-0.386-9.641-0.359-2.957 0.402-7.05 0.641-12.277 0.723 0 0.453-0.187 0.824-0.562 1.117-0.399 0.32-0.868 0.48-1.399 0.48-0.562 1.95-1.719 3.375-3.48 4.282-1.867 0.613-3.028 1.054-3.481 1.32l0.922 0.801 1.039 0.679c0.852 0.532 1.641 0.985 2.36 1.36l-1.04-0.84c0.051-0.055 0.68-0.723 1.879-2 0.747-0.801 1.399-1.199 1.961-1.199 0.614 0 1.078 0.277 1.399 0.84 0.215 0.425 0.828 1.57 1.84 3.437l-0.039-2.359c0-1.2 0.132-2.051 0.398-2.559 0.48-0.934 1.469-1.402 2.961-1.402 1.707 0 2.746 0.961 3.121 2.883 0.106 0.531 0.16 2.449 0.16 5.757 0 0.321-0.027 0.586-0.082 0.801l-0.117 0.32c-0.535 0.133-0.973 0.2-1.32 0.2-0.348 0-0.602-0.067-0.762-0.2-0.133-0.16-0.227-0.265-0.281-0.32l1.281 1.52h0.082c1.332-0.586 2.117-1.493 2.359-2.719 0.028-0.082 0.055-1.254 0.078-3.52v-0.32c0.934 2.773 1.575 4.453 1.922 5.039 0.239 0.399 0.719 1.078 1.438 2.039l3.203-0.359-1-0.399c-0.348-0.187-0.547-0.375-0.602-0.562 0.668-0.16 1.375-0.266 2.121-0.32l-0.32-0.2c-0.695-0.613-1.84-1.375-3.441-2.281-1.039-0.559-1.559-1.078-1.559-1.559 0-2 0.547-3.375 1.641-4.121 1.305-0.906 3.824-1.359 7.558-1.359 4.266 0 8.188 1.105 11.762 3.32 3.52 2.16 5.277 4.493 5.277 7l-0.117 1.321c-0.801 0.054-1.468 0.082-2 0.082-6.669-0.137-10.454-0.176-11.36-0.121zm13.398-16.922-4.558-1.641 0.961 0.524 3.597 1.117zm-37 21.922 3.922 0.918c-0.697-0.321-1.67-0.68-2.924-1.079l-3.199-0.921 2.199 1.082zm-6.839-4.321c-0.051 0 1.043 0.598 3.281 1.801 2.32 1.25 3.84 2.039 4.558 2.359l1.401 0.399c-5.574-2.399-8.989-4.813-10.242-7.238-1.438-2-3.387-3.563-5.84-4.68-1.84-0.828-2.891-1.977-3.16-3.442 1.894 0.293 3.136 0.122 3.722-0.519 1.414-1.492 2.574-2.508 3.481-3.039-2.082 0.773-4.551 1.277-7.403 1.519-1.492 0.133-2.238 0.692-2.238 1.68 0 0.375 0.438 0.984 1.32 1.84 1.094 1.039 1.813 1.879 2.161 2.519-1.762-0.398-3.161-0.984-4.204-1.757-1.199-0.934-1.918-1.442-2.16-1.524-0.16 0.774-0.332 1.856-0.519 3.242-0.184 1.332-0.278 2.215-0.278 2.641 0 0.586 0.239 1.211 0.719 1.879 0.879 0.453 2.078 0.852 3.602 1.199 0.426 0.055 0.89 0.133 1.398 0.242 0.133 0.024 0.32 0.067 0.559 0.118 2.48 0.425 4.535 0.933 6.16 1.519-1.785-0.851-3.078-1.945-3.879-3.277-0.961-1.574-1.867-2.657-2.719-3.242l-0.441-0.481c1.734 0.481 3.359 1.203 4.879 2.16 1.043 0.641 2.988 2 5.84 4.082zm7.56-20.558c-2.027-0.883-3.562-2-4.601-3.364-1.227-1.597-2.012-3.824-2.36-6.679-0.453-3.867-1.519-7.039-3.199-9.52-1.469-2.187-2.199-4.32-2.199-6.398 0-1.282 0.316-3.563 0.957-6.84 0.508-2.668 1.082-5.254 1.722-7.762 0.348-1.305 1.067-2.734 2.161-4.281 0.957-1.305 2.066-2.547 3.32-3.719 4.051-3.734 6.691-6.039 7.918-6.918 3.894-2.773 7.601-4.16 11.121-4.16 0.641 0 1.746 1.426 3.316 4.281 0.188-1.175 0.282-2 0.282-2.484 0-1.277-0.547-2.586-1.637-3.918-1.524-1.625-2.75-3.039-3.684-4.238-2.16 0.105-3.867 0.265-5.117 0.48-2.187 0.399-4.402 1.305-6.641 2.719-1.308 1.441-2.027 2.707-2.16 3.801 1.172-0.082 2.438-0.453 3.801-1.121 1.84-0.934 4.078-1.719 6.719-2.36l-0.32 0.321c-5.282 3.117-9.653 6.398-13.122 9.839-5.121 5.121-7.867 10.211-8.238 15.278 0.078-1.731 0.117-3.957 0.117-6.68 0-2.879-0.039-5.184-0.117-6.918-2.348 0.828-3.773 1.852-4.281 3.082-1.465 3.918-2.254 5.945-2.359 6.078-1.575 1.707-2.481 2.707-2.719 3-0.188 0.238-0.281 0.613-0.281 1.121 0 0.559 0.16 1.547 0.48 2.961 0.504 2.184 0.961 4.156 1.359 5.918 0 0.985 0.266 2.531 0.801 4.641 0.559 1.945 0.84 3 0.84 3.16 2.906 4.078 5.652 8.012 8.238 11.797 0.535 0.773 1.039 2.523 1.52 5.242 0.215 0.641 0.496 1.199 0.84 1.68l4.203 2.32 1.918 0.039 1.402-0.398zm15.598-29.762c3.093 0.852 4.867 0.492 5.32-1.082 0.133-0.426 0.254-1.117 0.359-2.078 0.133-0.856 0.426-1.426 0.879-1.723 1.094-0.746 2.778-1.156 5.043-1.238 1.172-0.051 2.414-0.027 3.719 0.082l0.238-1.801c-0.398-3.84-0.597-6.082-0.597-6.719 0-0.988 0.828-2.148 2.48-3.48 1.785-1.469 3.574-2.199 5.36-2.199 1.121 0 2.226 4.613 3.32 13.84 0 1.011-0.227 1.972-0.68 2.878-0.242 0.454-0.949 1.586-2.121 3.399-0.773 1.199-1.734 2.066-2.879 2.601-1.199 0.399-2.055 0.786-2.562 1.161 0.429 0.16 0.656 0.398 0.679 0.718l0.602-0.039c0.082-0.133 0.601-0.492 1.559-1.082 0.855-0.508 1.468-0.84 1.839-1l4.243-7.758c0.242 0.692-0.055 2.145-0.879 4.36-0.801 2.051-1.602 3.625-2.403 4.719 1.629-0.293 2.762-0.692 3.403-1.2 0.347-0.265 0.519-0.507 0.519-0.718 0-0.161 0.348-0.95 1.039-2.364 0.719-1.437 1.106-2.492 1.16-3.16 0.028-0.156 0.266-3.492 0.719-10 0.293-4.023 0.492-7.863 0.602-11.515 0.265-1.684 1.508-2.524 3.718-2.524 2.211 0 3.575 0.563 4.079 1.684 0.187 0.398 0.711 3.039 1.562 7.918 0.508 2.882 0.813 4.906 0.918 6.082 0.242 2.664 0.336 6.57 0.281 11.718 1.172-4.562 1.801-7.054 1.883-7.48 0.852-4.348 1.277-9.293 1.277-14.84 0-3.68-0.812-6.629-2.437-8.84-2.215-3.043-5.895-4.558-11.043-4.558-2.664 0.289-4.32 0.625-4.957 1v0.437c0.719 0.801 1.266 2.067 1.637 3.801 0.293 1.465 0.441 3.105 0.441 4.918 0 1.519-0.16 4.375-0.48 8.562-0.293 4-0.454 6.133-0.481 6.399l-0.64-4.399c-0.426-3.015-0.641-4.679-0.641-5 0-2.586-0.465-4.718-1.399-6.402-0.773-1.387-1.558-2.078-2.359-2.078-0.988 0-2.348-0.121-4.082-0.359-1.73-0.243-2.664-0.364-2.797-0.364-2.91 0-4.363 1.188-4.363 3.563 0.109 1.387 0.187 2.414 0.242 3.078 0.082 1.226-0.027 2.133-0.32 2.723-0.668 0.613-1.375 1.332-2.121 2.16-1.465 1.652-2.637 3.613-3.52 5.879-0.238 0.64-1 2.082-2.277 4.32-1.067 1.891-1.602 3.078-1.602 3.559 0 0.32 0.094 0.906 0.281 1.757 0.211 1.043 0.321 1.59 0.321 1.645l-8.922 0.598-0.359 0.242-0.04 0.039c2.161-0.055 4.575 0 7.239 0.16zm2.441-24.039c-0.375 0.906-0.785 2-1.238 3.277-0.43 1.281-0.645 2.028-0.645 2.242 0.215 3.36 0.321 5.282 0.321 5.758 1.015-3.73 1.562-6.023 1.64-6.879 0.082-0.746 0.055-2.211-0.078-4.398z" inkscape:connector-curvature="0"/>
      <path id="path24" style="fill-rule:evenodd;fill:#635b52" d="m151.48 16.64-0.281-0.281c0.403 2.11 0.602 4.094 0.602 5.961 0 0.188-0.36 0.961-1.082 2.32-0.746 1.36-1.117 2.149-1.117 2.36 0 0.535 0.371 1.121 1.117 1.762 0.402 0.343 0.894 0.73 1.48 1.16l2.16 2.476 1.36 1.563c-0.266-0.696-0.797-2.735-1.598-6.121 0-0.321 0.145-1.16 0.438-2.52 0.375-1.652 0.761-2.879 1.16-3.68-0.879-1.226-2.293-2.894-4.239-5zm-70.242-11.757c1.789-0.215 2.91-0.297 3.364-0.243 0.933 0.106 1.652 0.586 2.16 1.442 0.586 0.933 1.293 1.891 2.117 2.879 0.559 0.933 0.84 2.426 0.84 4.48 0 2.293-0.239 4.399-0.719 6.321-0.641 2.691-1.039 4.64-1.199 5.839 2.801-4.933 4.465-8.281 5-10.039 0.508-1.656 0.758-4.523 0.758-8.601 0-0.078-0.614-1.414-1.84-4 0-0.238 0.293-0.535 0.883-0.879 0.906-0.535 2.16-0.801 3.757-0.801 0.348 0 2 0.387 4.961 1.16 1.492 0.399 2.946 0.797 4.36 1.199 2.531 2.399 4.011 3.946 4.441 4.641-0.109-0.641-0.16-1.293-0.16-1.961v-0.437l0.398-2.282c4.879 0.133 10.016 1.481 15.403 4.039 0.105 0.028 0.703 0.2 1.797 0.52 1.093 0.32 1.734 0.547 1.921 0.68 0.184 0.48 0.36 0.972 0.52 1.48 0.348 0.961 0.691 1.574 1.039 1.84 0.348-0.187 0.988-0.918 1.922-2.199 0.477-0.668 1.891-1 4.238-1 2.16 0 5.172 0.851 9.039 2.558l-0.48-0.398c-2.59-1.387-5.37-2.547-8.36-3.481l-1.56-0.441-36.918-6.879c-4-0.215-6.27-0.32-6.801-0.32-2.293 0-5.082 0.226-8.359 0.68-9.469 3.441-15.028 5.601-16.684 6.48-1.68 1.016-2.719 1.668-3.117 1.961-1.895 1.227-3.973 2.68-6.242 4.359l-10.36 7.321 0.161 1.882c5.148-3.523 12.468-8.386 21.96-14.601 2.239-1.414 4.454-2.32 6.641-2.719 1.254-0.215 2.957-0.375 5.117-0.48zm-32.879 37.519c-0.746-1.308-1.558-3.574-2.437-6.801-1.067-4-1.602-7.586-1.602-10.761 0-0.266 0.188-0.547 0.559-0.84 0.508-0.426 1.016-1.266 1.519-2.52l-5.918 3.84c-0.585-1.57-1.468-2.305-2.64-2.199-1.145 0.426-1.813 0.668-2 0.719l-1.078 0.242c4.426 1.387 7.183 3.957 8.277 7.719 0.563 4.105 1.309 7.375 2.242 9.8 0.133 0.372 0.278 0.735 0.438 1.082l0.84 3.36 0.16 2.199c0 0.188 0.16 0.746 0.48 1.68 0.293 0.879 0.496 1.441 0.602 1.679 2 2.829 3.211 4.508 3.64 5.039l-0.242-1.039c-0.426-1.785-0.824-3.586-1.199-5.398 0-0.16-0.281-1.215-0.84-3.16-0.535-2.11-0.801-3.656-0.801-4.641zm12.243 26.52c-0.59-0.453-1.215-0.973-1.883-1.563-2.664-2.531-4.239-3.945-4.719-4.238l0.52 1c1.359 2.773 2.214 4.535 2.558 5.281 0.508 1.067 0.762 2 0.762 2.797 0 0.668-0.735 1.414-2.199 2.242-2.188 1.254-3.973 2.574-5.36 3.961l1-0.48c0.934-0.266 2.973-0.907 6.117-1.922 3.016-0.879 5.309-1.32 6.883-1.32 0.824 0 1.797 0.066 2.918 0.203 5.227-0.082 9.321-0.321 12.281-0.723 1.868-0.398 4.012-0.531 6.442-0.398 2.586 0.16 4.906 0.597 6.957 1.32 5.84 1.465 9.293 2.277 10.359 2.437 1.067 0.188 2.242 0.496 3.52 0.922 0.883 0.293 2.801 0.586 5.762 0.879h0.117l-0.758-0.398c-2.559-0.774-4.906-1.867-7.039-3.282-1.922-1.492-3.27-2.464-4.043-2.917l-0.96-0.524c-1.629-0.719-3.84-1.359-6.641-1.918-1.387-0.32-2.32-0.492-2.801-0.519-2.054-0.348-4.238-0.52-6.558-0.52-0.828 0.023-3.641 0.371-8.442 1.039-4.695 0.641-7.586 0.973-8.679 1l-1.922-0.039-4.199-2.32h0.004zm7.796 26.679c-0.718-0.32-2.238-1.105-4.558-2.359-2.238-1.203-3.332-1.801-3.281-1.801-1.332-0.586-2.414-0.828-3.239-0.718 0.774 0.691 1.387 1.332 1.84 1.917 0.559 0.348 2.574 1.028 6.039 2.04l3.199 0.921z" inkscape:connector-curvature="0"/>
    </g>
  </g>
<metadata><rdf:RDF><cc:Work><dc:format>image/svg+xml</dc:format><dc:type rdf:resource="http://purl.org/dc/dcmitype/StillImage"/><cc:license rdf:resource="http://creativecommons.org/licenses/publicdomain/"/><dc:publisher><cc:Agent rdf:about="http://openclipart.org/"><dc:title>Openclipart</dc:title></cc:Agent></dc:publisher></cc:Work><cc:License rdf:about="http://creativecommons.org/licenses/publicdomain/"><cc:permits rdf:resource="http://creativecommons.org/ns#Reproduction"/><cc:permits rdf:resource="http://creativecommons.org/ns#Distribution"/><cc:permits rdf:resource="http://creativecommons.org/ns#DerivativeWorks"/></cc:License></rdf:RDF></metadata></svg>
