<?xml version="1.0" encoding="UTF-8" standalone="no"?>
<!-- Created with Inkscape (http://www.inkscape.org/) -->
<svg xmlns:inkscape="http://www.inkscape.org/namespaces/inkscape" xmlns:rdf="http://www.w3.org/1999/02/22-rdf-syntax-ns#" xmlns="http://www.w3.org/2000/svg" xmlns:xlink="http://www.w3.org/1999/xlink" xmlns:ns1="http://sozi.baierouge.fr" xmlns:cc="http://creativecommons.org/ns#" xmlns:sodipodi="http://sodipodi.sourceforge.net/DTD/sodipodi-0.dtd" xmlns:dc="http://purl.org/dc/elements/1.1/" id="svg2" xml:space="preserve" viewBox="0 0 205 85" version="1.1" inkscape:version="0.91 r13725">
  <defs id="defs6">
    <clipPath id="clipPath18">
      <path id="path20" d="m0 0h164v36h-164v-36z" inkscape:connector-curvature="0"/>
    </clipPath>
    <mask id="mask22">
      <g id="g24">
        <g id="g26" clip-path="url(#clipPath18)">
          <path id="path28" style="fill:#000000;fill-opacity:.62890" d="m0 0h164v36h-164v-36z" inkscape:connector-curvature="0"/>
        </g>
      </g>
    </mask>
    <clipPath id="clipPath34">
      <path id="path36" d="m0 0h164v36h-164v-36z" inkscape:connector-curvature="0"/>
    </clipPath>
    <clipPath id="clipPath38">
      <path id="path40" d="m0 0h164v36h-164v-36z" inkscape:connector-curvature="0"/>
    </clipPath>
    <clipPath id="clipPath42">
      <path id="path44" d="m164 17.602c0-4.883-8-9.043-24-12.481-16-3.414-35.33-5.121-58-5.121-22.668 0-41.988 1.707-57.961 5.121-16.027 3.438-24.039 7.598-24.039 12.481 0 4.851 8.012 9 24.039 12.437 16 3.441 35.32 5.16 57.961 5.16s41.973-1.719 58-5.16c16-3.437 24-7.586 24-12.437z" inkscape:connector-curvature="0"/>
    </clipPath>
    <clipPath id="clipPath46">
      <path id="path48" d="m0-133.83h205v215.41h-205v-215.41z" inkscape:connector-curvature="0"/>
    </clipPath>
    <radialGradient id="radialGradient50" gradientUnits="userSpaceOnUse" cy="-22.3" cx="102.2" r="88.325">
      <stop id="stop52" style="stop-color:#ffffff;stop-opacity:.61961" offset="0"/>
      <stop id="stop54" style="stop-color:#ffffff;stop-opacity:0" offset="1"/>
    </radialGradient>
    <mask id="mask56">
      <g id="g58">
        <g id="g60" clip-path="url(#clipPath46)">
          <path id="path62" style="fill:url(#radialGradient50)" d="m0-133.83h205v215.41h-205v-215.41z" inkscape:connector-curvature="0"/>
        </g>
      </g>
    </mask>
    <radialGradient id="radialGradient64" gradientUnits="userSpaceOnUse" cy="-22.3" cx="102.2" r="88.325">
      <stop id="stop66" style="stop-color:#000000" offset="0"/>
      <stop id="stop68" style="stop-color:#000000" offset="1"/>
    </radialGradient>
    <clipPath id="clipPath100">
      <path id="path102" d="m12 4h136v28h-136v-28z" inkscape:connector-curvature="0"/>
    </clipPath>
    <mask id="mask104">
      <g id="g106">
        <g id="g108" clip-path="url(#clipPath100)">
          <path id="path110" style="fill:#000000;fill-opacity:.14060" d="m12 4h136v28h-136v-28z" inkscape:connector-curvature="0"/>
        </g>
      </g>
    </mask>
    <clipPath id="clipPath116">
      <path id="path118" d="m12 4h136v28h-136v-28z" inkscape:connector-curvature="0"/>
    </clipPath>
    <clipPath id="clipPath120">
      <path id="path122" d="m12 4h136v28h-136v-28z" inkscape:connector-curvature="0"/>
    </clipPath>
    <linearGradient id="linearGradient212" y2="-15762" gradientUnits="userSpaceOnUse" x2="-391.16" gradientTransform="matrix(.0392 -.79904 .79904 .0392 12666 332.28)" y1="-15762" x1="-396.71">
      <stop id="stop214" style="stop-color:#92979c" offset="0"/>
      <stop id="stop216" style="stop-color:#e3e4e6" offset="1"/>
    </linearGradient>
    <linearGradient id="linearGradient230" y2="-15760" gradientUnits="userSpaceOnUse" x2="-395.61" gradientTransform="matrix(.03848 -.79904 .79904 .03848 12672 326.98)" y1="-15760" x1="-400.79">
      <stop id="stop232" style="stop-color:#92979c" offset="0"/>
      <stop id="stop234" style="stop-color:#e3e4e6" offset="1"/>
    </linearGradient>
    <linearGradient id="linearGradient248" y2="-14589" gradientUnits="userSpaceOnUse" x2="-1291.8" gradientTransform="matrix(.14272 -.7872 .7872 .14272 11732 1080.1)" y1="-14589" x1="-1298.8">
      <stop id="stop250" style="stop-color:#92979c" offset="0"/>
      <stop id="stop252" style="stop-color:#e3e4e6" offset="1"/>
    </linearGradient>
    <linearGradient id="linearGradient266" y2="-16681" gradientUnits="userSpaceOnUse" x2="569.99" gradientTransform="matrix(-.05472 -.79816 .79816 -.05472 13419 -440.54)" y1="-16681" x1="565.33">
      <stop id="stop268" style="stop-color:#92979c" offset="0"/>
      <stop id="stop270" style="stop-color:#e3e4e6" offset="1"/>
    </linearGradient>
    <linearGradient id="linearGradient284" y2="-15726" gradientUnits="userSpaceOnUse" x2="-401.11" gradientTransform="matrix(.03992 -.79904 .79904 .03992 12660 338.33)" y1="-15726" x1="-407">
      <stop id="stop286" style="stop-color:#92979c" offset="0"/>
      <stop id="stop288" style="stop-color:#e3e4e6" offset="1"/>
    </linearGradient>
    <linearGradient id="linearGradient302" y2="-17096" gradientUnits="userSpaceOnUse" x2="1006.7" gradientTransform="matrix(-.09592 -.79424 .79424 -.09592 13720 -807.44)" y1="-17096" x1="1001.2">
      <stop id="stop304" style="stop-color:#92979c" offset="0"/>
      <stop id="stop306" style="stop-color:#e3e4e6" offset="1"/>
    </linearGradient>
    <linearGradient id="linearGradient320" y2="-15405" gradientUnits="userSpaceOnUse" x2="-737.42" gradientTransform="matrix(.07424 -.79656 .79656 .07424 12362 598.07)" y1="-15405" x1="-742.19">
      <stop id="stop322" style="stop-color:#92979c" offset="0"/>
      <stop id="stop324" style="stop-color:#e3e4e6" offset="1"/>
    </linearGradient>
    <linearGradient id="linearGradient338" y2="-17698" gradientUnits="userSpaceOnUse" x2="1825.2" gradientTransform="matrix(-.16552 -.78272 .78272 -.16552 14189 -1467.8)" y1="-17698" x1="1820.9">
      <stop id="stop340" style="stop-color:#92979c" offset="0"/>
      <stop id="stop342" style="stop-color:#e3e4e6" offset="1"/>
    </linearGradient>
    <linearGradient id="linearGradient356" y2="-18751" gradientUnits="userSpaceOnUse" x2="3873.2" gradientTransform="matrix(-.3192 -.7336 .7336 -.3192 15032 -3117.8)" y1="-18751" x1="3868.2">
      <stop id="stop358" style="stop-color:#92979c" offset="0"/>
      <stop id="stop360" style="stop-color:#e3e4e6" offset="1"/>
    </linearGradient>
    <linearGradient id="linearGradient374" y2="-17535" gradientUnits="userSpaceOnUse" x2="1682.4" gradientTransform="matrix(-.154 -.78504 .78504 -.154 14115 -1355.5)" y1="-17535" x1="1677.2">
      <stop id="stop376" style="stop-color:#92979c" offset="0"/>
      <stop id="stop378" style="stop-color:#e3e4e6" offset="1"/>
    </linearGradient>
  </defs>
  <g id="g10" transform="matrix(1.25,0,0,-1.25,0,85)">
    <g id="g12">
      <g id="g14">
        <g id="g30" mask="url(#mask22)">
          <g id="g70">
            <g id="g72" clip-path="url(#clipPath34)">
              <g id="g74">
                <g id="g78">
                  <g id="g80" clip-path="url(#clipPath38)">
                    <g id="g82">
                      <g id="g84">
                        <g id="g86" clip-path="url(#clipPath42)">
                          <g id="g88" transform="matrix(.8 0 0 -.16712 0 13.634)">
                            <g id="g92" mask="url(#mask56)">
                              <path id="path94" style="fill-rule:evenodd;fill:url(#radialGradient64)" d="m164 17.602c0-4.883-8-9.043-24-12.481-16-3.414-35.33-5.121-58-5.121-22.668 0-41.988 1.707-57.961 5.121-16.027 3.438-24.039 7.598-24.039 12.481 0 4.851 8.012 9 24.039 12.437 16 3.441 35.32 5.16 57.961 5.16s41.973-1.719 58-5.16c16-3.437 24-7.586 24-12.437z" inkscape:connector-curvature="0"/>
                            </g>
                          </g>
                        </g>
                      </g>
                    </g>
                  </g>
                </g>
              </g>
            </g>
          </g>
        </g>
      </g>
      <g id="g96">
        <g id="g112" mask="url(#mask104)">
          <g id="g124">
            <g id="g126" clip-path="url(#clipPath116)">
              <g id="g128">
                <g id="g132">
                  <g id="g134" clip-path="url(#clipPath120)">
                    <g id="g136">
                      <path id="path138" style="fill-rule:evenodd;fill:#000000" d="m145.64 19.801c1.414-0.242 2.187-0.375 2.32-0.403 0.133-0.027-0.066-0.011-0.602 0.043-2.132 0.239-3.691 0.371-4.679 0.399-1.012 0-2.707-0.067-5.078-0.199-2.348-0.133-3.895-0.188-4.641-0.161-0.988 0-1.949-0.121-2.883-0.359-1.25-0.375-2.371-0.68-3.359-0.922-1.227-0.347-2.332-0.894-3.321-1.64l-1.117-1.039 3.199-1.68c-1.574-0.16-4.132-0.492-7.679-1-2.082-0.293-3.52-0.762-4.321-1.399-0.933-0.722-1.574-1.121-1.921-1.203-0.852-0.211-1.973-0.265-3.36-0.16-1.492 0.137-2.531 0.215-3.121 0.242-0.613 0-1.504-0.039-2.68-0.121-1.652-0.16-3.132-0.265-4.437-0.32-1.414-0.078-2.281-0.414-2.602-1-0.265-0.586-0.972-0.867-2.121-0.84-1.117 0.027-2.293-0.078-3.519-0.32-1.067-0.184-2.16-0.227-3.278-0.117-0.695 0.05-1.347-0.122-1.961-0.524-0.695-0.558-1.265-1-1.718-1.316-1.735-1.227-4.121-1.59-7.16-1.082-1.094 0.187-1.602 0.695-1.524 1.519 0.055 0.668-0.156 0.934-0.637 0.801-1.066-0.32-3.586-0.668-7.562-1.039-4.348-0.453-7.453-0.602-9.32-0.441-0.907 0.082-1.371 0.214-1.399 0.402 0 0.051 0.16 0.277 0.481 0.68 0.586 0.769-0.36 1.464-2.84 2.078-4.348 1.093-6.496 1.547-6.442 1.359 0.856-0.398 1.133-0.547 0.84-0.437-0.371 0.105-1.066 0.238-2.078 0.398l-1.441 0.199c-2.348 0.055-3.918 0.172-4.719 0.36-0.481 0.109-0.469 0.32 0.039 0.64 0.238 0.16 0.535 0.309 0.879 0.442l2.68 1.879c-0.934-0.426-2.012-0.84-3.239-1.239-2.453-0.801-4.414-1.187-5.879-1.16-1.226 0-2.601 0.547-4.121 1.641-1.625 1.117-3.015 1.73-4.16 1.84-1.465 0.132-1.652 0.343-0.558 0.636 0.531 0.16 1.21 0.309 2.039 0.442l0.039 1.64c-1.973 0.028-3.254 0.133-3.84 0.321-0.828 0.293-1.32 0.492-1.481 0.597-0.48 0.242-0.464 0.414 0.039 0.524 0.774 0.183 1.961 0.531 3.563 1.039 0.586 0.187 0.199 0.387-1.16 0.597-2.16 0.934-3.535 1.403-4.121 1.403l-5.602 0.121c-1.68 0.023-2.172 0.383-1.476 1.078 0.691 0.719 1.386 1.078 2.078 1.078 0.293 0 0.785 0.137 1.48 0.402 0.695 0.239 1.188 0.36 1.481 0.36 0.613 0 1.121 0.265 1.519 0.801l2.641 0.8 0.039 2.2 0.519 0.558c0.641 0.403 1.762 0.641 3.36 0.723l2.082 0.519c1.574 0.344 2.851 0.504 3.84 0.481 61.171 0.476 92.457 0.719 93.839 0.719 0.907-0.028 1.934-0.254 3.079-0.68 0.855-0.32 1.586-0.68 2.203-1.082 0.586-0.371 1.226-0.641 1.918-0.801 1.148-0.238 2.961-0.371 5.441-0.398 2.133-0.028 3.145-0.145 3.039-0.36-0.265-0.558-0.215-1 0.16-1.32 0.453-0.348 0.668-0.547 0.641-0.602 0-0.05-0.254-0.078-0.762-0.078-1.972 0.028-4-0.175-6.078-0.601-0.375-0.078 0.293-0.438 2-1.078 0.852-0.321 1.746-0.629 2.68-0.922l-1.52-1.879 1.598-0.68c1.519-0.535 3.441-0.988 5.762-1.359z" inkscape:connector-curvature="0"/>
                    </g>
                  </g>
                </g>
              </g>
            </g>
          </g>
        </g>
      </g>
      <path id="path140" style="fill-rule:evenodd;fill:#c9cacc" d="m130.48 30.922c-0.347-1.547-0.773-3.32-1.281-5.32-0.105-0.481-0.519-1.321-1.238-2.524-0.75-1.199-1.133-1.824-1.16-1.879-0.028-0.054-1.508-0.851-4.442-2.398-3.093-1.602-4.945-2.762-5.558-3.481-0.774-0.933-2.453-1.695-5.039-2.281-2.535-0.559-5.028-0.773-7.481-0.641-11.12 0.563-17.921 0.774-20.401 0.641-1.067-0.051-3.824-0.492-8.277-1.32-4.375-0.797-6.907-1.199-7.602-1.199-0.879 0-2.879 0.132-6 0.402l-4.398 0.398-4.524 2.801c-0.183 0.133-1.586 0.32-4.199 0.559-2.481 0.242-4.012 0.359-4.598 0.359-1.015-0.051-1.906-0.066-2.679-0.039-1.469 0.055-2.629 0.254-3.481 0.602-2.668 0.878-4.441 1.543-5.32 2-0.563 0.265-1.723 0.957-3.481 2.078l-2.519 1.64c0.586 0.852 1.199 1.852 1.84 3 1.304 2.293 2.121 4.188 2.437 5.68 0.297 1.305 0.574 2.934 0.844 4.879 0.238 1.629 0.398 2.535 0.476 2.723 0.215 1.519 0.469 3.023 0.762 4.519 0.586 2.934 1.399 4.973 2.442 6.117 1.679 1.867 3.05 3.563 4.117 5.082l1.883 0.442c1.625 0.449 3.359 1.011 5.199 1.679 2.933 1.067 5.465 1.864 7.597 2.399l4.641-0.32c3.52-0.188 6.414-0.254 8.68-0.2 2.215 0.055 4.574 0.239 7.082 0.559 1.359 0.16 3.265 0.414 5.719 0.762 1.308 0.132 2.933 0.625 4.878 1.48 2.403 1.039 4.508 1.801 6.321 2.277 1.629 0.403 3.601 1.067 5.922 2 1.547 0.614 2.961 0.922 4.238 0.922 1.148 0 3.148-0.027 6-0.082 2.586 0.055 4.668 0.309 6.242 0.762 2.504 0.695 5.094 1.172 7.758 1.441 0.961-1.761 1.707-3.535 2.242-5.32 0.531-1.762 0.891-4.254 1.078-7.48 0.028-0.536 0.867-2.426 2.52-5.68 1.656-3.254 2.508-5.496 2.562-6.723 0.078-1.972 0.481-4.144 1.199-6.519 0.055-0.211-0.281-1.813-1-4.797z" inkscape:connector-curvature="0"/>
      <path id="path142" style="fill-rule:evenodd;fill:#d7dce0" d="m35.52 48.281c0.402 0.504 0.96 1.199 1.679 2.078 0.535 0.801 1.375 1.786 2.52 2.961l0.801-0.558c0.585-0.403 0.988-0.707 1.199-0.922 0.375-0.348 0.867-0.707 1.48-1.078l-0.801-1.203c-0.32-0.504-0.476-0.973-0.476-1.399 0-0.238 0.023-0.652 0.078-1.238 0-0.723 0.094-1.309 0.281-1.762-2.508 0.801-4.066 1.387-4.679 1.762-0.375 0.211-0.696 0.293-0.961 0.238-0.293-0.082-0.547-0.121-0.762-0.121-0.293 0-0.664-0.199-1.117-0.598l-0.641-0.601c0.16 0.695 0.625 1.508 1.399 2.441z" inkscape:connector-curvature="0"/>
      <path id="path144" style="fill-rule:evenodd;fill:#d7dce0" d="m44.801 42.602c0.531 0.265 1.027 0.453 1.48 0.558 0.692 0.188 2.239 0.774 4.641 1.762 1.117 0.371 1.918 0.57 2.398 0.598 0.239 0 0.375-0.028 0.399-0.079l0.679-2c-0.718-0.882-1.343-1.507-1.878-1.882-0.532-0.348-1.348-0.719-2.442-1.118-1.383-0.507-2.613-0.8-3.68-0.882-0.984-0.051-1.664 0.375-2.039 1.281l-0.238 1.398 0.68 0.364z" inkscape:connector-curvature="0"/>
      <path id="path146" style="fill-rule:evenodd;fill:#d7dce0" d="m78.238 27.879c-0.078-0.215-0.226-0.445-0.437-0.68-0.453-0.504-1.016-0.785-1.68-0.84-0.695-0.054-1.199-0.187-1.519-0.398-0.348-0.32-0.68-0.586-1-0.801-1.895-1.305-4.524-2.187-7.883-2.64-2-0.293-3.797-0.973-5.399-2.04l-1.8-1.558 0.718 1.156c0.535 0.801 0.883 1.254 1.043 1.363 0.078 0.051 0.598 0.637 1.559 1.758 0.933 1.067 1.558 1.68 1.879 1.84 2.535 1.254 5.562 1.961 9.082 2.121 2.371 0.106 4 0.281 4.879 0.52 0.3 0.07 0.488 0.136 0.558 0.199z" inkscape:connector-curvature="0"/>
      <path id="path148" style="fill-rule:evenodd;fill:#d7dce0" d="m44.52 31.039c1.015 0 1.921-0.344 2.718-1.039 0.696-0.641 0.95-1.094 0.762-1.359-0.215-0.614-0.441-1.188-0.68-1.719-0.508-1.043-1.175-1.762-2-2.16-0.773-0.348-1.375-0.457-1.8-0.321-0.907 0.293-1.547 0.454-1.918 0.481-0.883 0.051-2.297 0.625-4.243 1.719-1.867 1.148-2.894 1.773-3.078 1.879-0.242 0.105-0.508 0.414-0.801 0.921l-0.402 0.68 1.32 0.438c1.043 0.296 1.977 0.496 2.801 0.601 1.336 0.188 3.774 0.145 7.321-0.121z" inkscape:connector-curvature="0"/>
      <path id="path150" style="fill-rule:evenodd;fill:#d7dce0" d="m31.68 19.32c-0.934 0.825-1.586 1.305-1.961 1.442-0.504 0.183-0.614 0.543-0.321 1.078 0.27 0.535 0.641 0.801 1.122 0.801 0.347 0 1.082 0.171 2.199 0.519 1.359 0.426 2.32 0.695 2.883 0.801 0.878 0.184 3.011-0.43 6.398-1.84l-0.359-0.32c-0.266-0.348-0.547-0.828-0.84-1.442-0.375-0.8-0.813-1.32-1.321-1.558-0.695-0.321-1.949-0.508-3.761-0.563-1.574-0.05-2.918 0.309-4.039 1.082z" inkscape:connector-curvature="0"/>
      <path id="path152" style="fill-rule:evenodd;fill:#d7dce0" d="m110 41.32c-2.613-0.453-4.906-0.828-6.879-1.121-3.762-0.531-7.242-0.691-10.441-0.48-3.282 0.215-5.559 0.789-6.84 1.722l-0.918 1.321v1.199l1.039 0.719c0.746 0.508 1.199 0.761 1.359 0.761 0.133 0 0.735 0.012 1.801 0.039 1.094 0.028 1.824 0.012 2.199-0.039 2.774-0.347 5.266-0.441 7.481-0.281 1.387 0.106 2.359 0.387 2.918 0.84 0.269 0.215 0.402 0.426 0.402 0.641l1.957-0.082c1.336-0.079 2.11-0.145 2.32-0.2 0.348-0.078 1.989-0.293 4.922-0.64 0.801-0.797 1.067-1.426 0.801-1.879-0.133-0.238-0.148-0.707-0.043-1.399-0.133-0.64-0.824-1.015-2.078-1.121z" inkscape:connector-curvature="0"/>
      <path id="path154" style="fill-rule:evenodd;fill:#b2b3b5" d="m98.16 40.719c0.719 0.082 2.172 0.226 4.36 0.441 2.933 0.188 5.519 0.453 7.761 0.801-0.64-1.602-1.176-2.84-1.601-3.723-0.453-0.879-2.282-2.519-5.481-4.918l-5.078 2.52c-1.496 0.348-3.133 0.652-4.922 0.922-1.387 0.211-2.547-0.082-3.48-0.883-0.985-0.852-1.52-2.106-1.598-3.758-0.082-2.32-0.652-4.949-1.723-7.883v-1.918c0.028-1.465 0.122-2.695 0.282-3.679 0.132-0.801 0.425-1.84 0.879-3.121 0.16-0.852-0.321-1.282-1.438-1.282-4.535 0-9.547-0.625-15.043-1.879-3.039-0.664-6.344-0.984-9.918-0.961h-1.719c0.637 0.098 1.438 0.243 2.399 0.442 2.961 0.613 4.84 0.922 5.64 0.922 0.934 0 1.786 0.226 2.559 0.679 1.066 0.664 1.988 1.106 2.762 1.321 1.199 0.343 2.094 0.879 2.679 1.597 0.348 0.453 0.825 1.254 1.442 2.403 0.426 0.664 1.105 2.011 2.039 4.039 0.906 2 1.48 3.187 1.719 3.558 0.695 1.039 1.039 3.934 1.039 8.68 0 1.895 0.293 3.84 0.883 5.84l0.878 2.441 2 0.801 0.68-0.801c0.453-0.586 0.707-0.988 0.762-1.199 0.078-0.242 0.797-0.441 2.156-0.601 0.856-0.133 2.535-0.332 5.043-0.598 1.598-0.215 2.945-0.281 4.039-0.203z" inkscape:connector-curvature="0"/>
      <path id="path156" style="fill-rule:evenodd;fill:#b2b3b5" d="m48.68 29.961c1.679 2.398 3.679 5.824 6 10.277l-0.961-6.117c-0.16-0.883-0.387-1.828-0.68-2.84-0.32-1.043-0.492-1.656-0.519-1.84-0.188-1.441-0.188-2.773 0-4 0.265-1.519 0.402-3.121 0.402-4.8 0-0.907-0.11-1.762-0.32-2.563-0.215-0.797-0.321-1.453-0.321-1.957l-4.402-0.281c-2.852-0.078-6.238 0.055-10.16 0.398-2.426 0.242-4.574 0.907-6.438 2l-2.082 1.602 0.68-0.281c0.426-0.161 1.043 0.109 1.84 0.8l1.519-0.597c1.203-0.43 2.215-0.668 3.043-0.723 0.664-0.051 1.106-0.094 1.321-0.117 0.132 0.105 0.437 0.316 0.918 0.637 0.988 0.64 2.148 1.496 3.48 2.562l-0.68 0.801c-0.16 0.183-1.066 0.918-2.718 2.199-1.414 1.094-1.977 1.641-1.68 1.641 0.266 0 0.933-0.254 2-0.762 1.199-0.586 2.09-0.945 2.68-1.078 1.757-0.402 3.05-0.27 3.878 0.398 0.321 0.266 0.653 0.692 1 1.282 0.641 1.066 1.375 2.183 2.2 3.359z" inkscape:connector-curvature="0"/>
      <path id="path158" style="fill-rule:evenodd;fill:#b2b3b5" d="m40.801 44.121 0.558-1c0.403-0.723 0.653-1.242 0.762-1.562 0.184-0.532 0.145-2.211-0.121-5.039 0-0.293 0.055-0.961 0.16-2 0.078-0.692 0.067-1.145-0.039-1.36-0.16-0.348-0.906-0.785-2.242-1.32h-4l3.199 2.801c0.242 0.265 0.387 0.984 0.442 2.16 0.054 0.773 0.082 2.359 0.082 4.758 0 1.652-0.336 3.043-1 4.16l-1 1.203c0.613-0.27 1.679-1.203 3.199-2.801z" inkscape:connector-curvature="0"/>
      <path id="path160" style="fill-rule:evenodd;fill:#b2b3b5" d="m47.879 39.281-1.481 0.278 4.282 2.16c0.879 0.426 1.652 1.176 2.32 2.242 0.32 0.531 0.559 1.027 0.719 1.48 1.707-0.453 2.562-0.855 2.562-1.203 0-0.531-0.535-1.597-1.601-3.199-0.321-0.48-1.039-0.867-2.16-1.16-1.227-0.238-2.028-0.426-2.399-0.559-0.426-0.16-1.176-0.175-2.242-0.039z" inkscape:connector-curvature="0"/>
      <path id="path162" style="fill-rule:evenodd;fill:#b2b3b5" d="m80.281 47.559c-1.176-2.934-2.109-5.067-2.801-6.399-1.093-2-1.761-3.465-2-4.398-0.16-0.563-1.199-1.574-3.121-3.043-2.586-1.946-4.039-3.067-4.359-3.36-0.934-0.851-1.652-1.414-2.16-1.679-0.481-0.215-0.652-0.133-0.52 0.242 0.16 0.398 0.465 1.383 0.918 2.957 0.508 1.816 0.922 3.441 1.242 4.883 0.266 1.332 0.012 3.023-0.761 5.078l-1.239 2.68c-0.242 0.585-0.425 0.972-0.558 1.16l-0.121 0.121 1.078 0.437 8.922 2.403 5.48-1.082z" inkscape:connector-curvature="0"/>
      <path id="path164" style="fill-rule:evenodd;fill:#b2b3b5" d="m98.281 49.559c0.106-0.079 0.504-0.438 1.199-1.079 0.559-0.535 1.133-0.921 1.719-1.16 0.641-0.293 0.946-0.48 0.922-0.558-0.266-0.215-0.535-0.481-0.801-0.801-0.375-0.43-0.761-0.68-1.16-0.762-0.215-0.054-1.199-0.144-2.961-0.277-1.332-0.11-2.906-0.11-4.719 0l-2.359 0.238 1.199 0.281c0.801 0.184 2.094 1.211 3.879 3.079 0.453 0.535 0.281 1.281-0.519 2.242l1.519-0.403c1.067-0.293 1.762-0.558 2.082-0.8z" inkscape:connector-curvature="0"/>
      <path id="path166" style="fill-rule:evenodd;fill:#b2b3b5" d="m91.48 21.961 0.559 0.398c0.453 0.321 0.934 0.586 1.441 0.801 0.293 0.133 0.735 1.012 1.321 2.641 0.586 1.597 1.344 2.547 2.277 2.84 0.535 0.187 2.844 0.586 6.922 1.199l-0.121-2c-0.051-0.774-0.465-1.508-1.238-2.199-1.067-0.934-1.68-1.536-1.84-1.801-0.37-0.559-0.812-0.84-1.32-0.84-1.199 0-1.921-0.027-2.16-0.078l-5.84-0.961z" inkscape:connector-curvature="0"/>
      <path id="path168" style="fill-rule:evenodd;fill:#b2b3b5" d="m102 49.719c-0.719 0.613-1.879 1.496-3.48 2.64-0.985 0.719-1.879 1.453-2.68 2.2l-0.918 0.882 2.558 0.598c1.84 0.43 3.122 0.668 3.84 0.723l5.879 0.558-0.16-1.16c0-0.961 0.281-1.906 0.84-2.84 0.562-0.961 0.762-1.761 0.601-2.398-0.054-0.32-0.175-0.547-0.359-0.684-2.933-0.613-4.976-0.785-6.121-0.519z" inkscape:connector-curvature="0"/>
      <path id="path170" style="fill-rule:evenodd;fill:#83888c" d="m131.48 35.719c0.051-0.211-0.281-1.813-1-4.797-0.347-1.547-0.773-3.32-1.281-5.32-0.105-0.481-0.519-1.321-1.238-2.524-0.75-1.199-1.133-1.824-1.16-1.879-0.028-0.054-1.508-0.851-4.442-2.398-3.093-1.602-4.945-2.762-5.558-3.481-0.774-0.933-2.453-1.695-5.039-2.281-2.535-0.559-5.028-0.773-7.481-0.641-11.12 0.563-17.921 0.774-20.401 0.641-1.067-0.051-3.824-0.492-8.277-1.32-4.375-0.797-6.907-1.199-7.602-1.199-0.879 0-2.879 0.132-6 0.402l-4.398 0.398-1.122 0.68c0.614-0.188 1.215-0.332 1.801-0.441 1.492-0.211 4.133 0 7.918 0.64 1.946 0.321 4.149 0.735 6.602 1.242 1.254 0.184 4.187 0.758 8.801 1.719 0.984 0.188 2.625 1.785 4.918 4.801l1.16-1.563c0.879-1.066 1.652-1.652 2.32-1.757 0.668-0.106 2.055 0.121 4.16 0.679 0.371 0.106 1.695 0.508 3.961 1.2 0.453 0.132 0.973 0.281 1.559 0.441 0.425 0.133 0.84 0.332 1.242 0.598 0.371 0.269 0.703 0.816 1 1.64 0.664 1.973 1.051 3.082 1.156 3.321 0.481 1.148 0.602 2.894 0.363 5.242-0.214 2.265-0.296 3.449-0.242 3.558 0.668 1.067 1.961 2.879 3.879 5.442 1.043 1.359 1.988 2.863 2.844 4.519 1.305 2.426 1.957 4.387 1.957 5.879 0 1.547-0.199 2.84-0.598 3.879-0.269 0.641-0.734 1.402-1.402 2.281l-0.199 0.239c-0.106 1.203-0.535 2.187-1.282 2.961-0.851 0.878-1.957 1.32-3.32 1.32l-0.879-0.078c-0.265 0.265-0.586 0.476-0.961 0.636-2.879 1.227-5.785 2.161-8.718 2.801 1.148 0.375 2.441 0.867 3.878 1.481 1.149 0.425 2.309 0.64 3.481 0.64 1.148 0 3.148-0.027 6-0.082 2.586 0.055 4.668 0.309 6.242 0.762 2.504 0.695 5.094 1.172 7.758 1.441 0.961-1.761 1.707-3.535 2.242-5.32 0.531-1.762 0.891-4.254 1.078-7.48 0.028-0.536 0.867-2.426 2.52-5.68 1.656-3.254 2.508-5.496 2.562-6.723 0.078-1.972 0.481-4.144 1.199-6.519z" inkscape:connector-curvature="0"/>
      <path id="path172" style="fill-rule:evenodd;fill:#83888c" d="m53.039 14.121c-0.238 0.133-1.652 0.32-4.238 0.559-2.426 0.242-3.934 0.359-4.52 0.359-1.015-0.051-1.906-0.066-2.679-0.039-1.469 0.055-2.629 0.254-3.481 0.602l-3.84 1.359 2.239-0.199c1.468-0.11 2.601-0.11 3.402 0 0.773 0.133 1.465 0.398 2.078 0.797 0.398 0.269 1.012 0.402 1.84 0.402 1.039 0 1.988 0.133 2.84 0.398 1.039 0.321 1.8 0.934 2.281 1.84 0.211 0.453 0.332 0.867 0.359 1.242l2.399-4.121 0.48-1.082c0.321-0.746 0.481-1.238 0.481-1.476 0-0.16 0.121-0.375 0.359-0.641z" inkscape:connector-curvature="0"/>
      <path id="path174" style="fill-rule:evenodd;fill:#73777a" d="m131.48 35.719c0.051-0.211-0.281-1.813-1-4.797-0.347-1.547-0.773-3.32-1.281-5.32-0.105-0.481-0.519-1.321-1.238-2.524-0.75-1.199-1.133-1.824-1.16-1.879-0.028-0.054-1.508-0.851-4.442-2.398-3.093-1.602-4.945-2.762-5.558-3.481-0.774-0.933-2.453-1.695-5.039-2.281-2.535-0.559-5.028-0.773-7.481-0.641-11.121 0.563-17.922 0.774-20.402 0.641-0.906-0.027-2.801-0.305-5.68-0.84 0.055 0.266 0.36 0.469 0.922 0.602 2.184 0.48 3.399 0.746 3.641 0.801 0.957 0.265 1.746 0.625 2.359 1.078 0.481 0.32 0.801 0.625 0.957 0.922 0.055 0.078 0.203 0.105 0.442 0.078 0.242-0.028 0.867-0.293 1.878-0.801 1.364-0.481 3-0.746 4.922-0.801 0.453 0 1.973-0.051 4.559-0.156 1.043-0.027 2.187 0 3.441 0.078 1.067 0.055 2.453-0.027 4.16-0.238 1.415-0.028 2.625 0.383 3.641 1.238 0.984 0.828 0.934 1.855-0.16 3.078-1.469 1.281-2.32 2.188-2.563 2.723-0.078 0.187-0.597 1.16-1.558 2.918-0.746 1.336-1.188 2.359-1.32 3.082 0.054 0.984-0.012 2.359-0.2 4.121-0.187 1.437-0.226 2.238-0.121 2.398 0.668 1.067 1.961 2.879 3.879 5.442 0.91 1.25 1.734 2.531 2.481 3.84-0.825-1.922-1.305-3.094-1.438-3.524-0.32-1.066-0.359-2.023-0.121-2.879 0.32-1.172 0.855-2.32 1.602-3.437 0.371-0.563 0.703-1.055 1-1.481 0-0.187 0.785-0.496 2.359-0.922 1.707-0.453 3.051-0.613 4.039-0.48 1.094 0.16 1.895 0.375 2.398 0.641 0.508 0.265 0.774 0.625 0.801 1.082 0.055 0.371 0.028 1-0.078 1.878l-0.199 1.2 3.797 2.398c0.801 0.535 1.402 1 1.801 1.402 0.32 0.321 0.613 0.719 0.878 1.2 0.137 0.242 0.403 0.988 0.801 2.242 0.266 0.906 0.442 1.199 0.52 0.879 0.082-0.321 0.148-0.723 0.203-1.199 0.105-0.297 0.305-0.336 0.598-0.122 0.265 0.215 0.785 0.868 1.558 1.961l0.203-1.203c0.078-1.972 0.481-4.144 1.199-6.519z" inkscape:connector-curvature="0"/>
      <path id="path176" style="fill-rule:evenodd;fill:#73777a" d="m123.48 50.641c0.348 0.105 0.747-0.387 1.2-1.481l-2-1.719c-0.692-0.562-1.414-1.586-2.16-3.082l-1.598-3.597c-0.137-0.481-1.684-0.348-4.641 0.398-1.496 0.399-2.773 0.68-3.84 0.84l-1.121 0.121 0.68 0.918c0.453 0.641 1.121 1.801 2 3.481l1.281-0.36c1.012-0.238 1.879-0.387 2.598-0.441 0.746-0.078 1.426 0.082 2.043 0.48 0.426 0.266 1.25 0.906 2.476 1.922 1.524 1.145 2.547 1.984 3.082 2.52z" inkscape:connector-curvature="0"/>
      <path id="path178" style="fill-rule:evenodd;fill:#73777a" d="m121.2 56.359 0.92-0.359c0.559-0.32 0.785-0.734 0.68-1.238-0.106-0.481-0.266-0.801-0.481-0.961-0.375-0.16-0.746-0.375-1.121-0.641-0.453-0.348-1.011-0.359-1.679-0.039l-0.84 0.598 1.039 0.402c0.722 0.266 1.215 1.012 1.48 2.238z" inkscape:connector-curvature="0"/>
      <path id="path180" style="fill-rule:evenodd;fill:#8d9296" d="m121.88 29.16 2.922-0.238-0.403-2.16c-0.05-0.375-0.277-0.84-0.679-1.403-0.481-0.64-0.785-1.148-0.918-1.519-0.188-0.535-0.828-0.945-1.922-1.238-0.879-0.243-1.879-0.364-3-0.364-0.774 0-1.641 0.27-2.598 0.801l-1.16 0.801 2.438 0.441c1.761 0.453 3 1.012 3.722 1.68 0.719 0.664 1.199 1.398 1.438 2.199l0.16 1z" inkscape:connector-curvature="0"/>
      <path id="path182" style="fill-rule:evenodd;fill:#8d9296" d="m127.48 35.559 0.879-0.399c0.563-0.375 0.84-0.855 0.84-1.441 0-0.641-0.094-1.024-0.277-1.16-0.402-0.133-0.801-0.278-1.203-0.438-0.504-0.242-0.985-0.293-1.438-0.16l-0.562 0.277 1.761 3.321z" inkscape:connector-curvature="0"/>
      <path id="path184" style="fill-rule:evenodd;fill:#8d9296" d="m127.52 27.84c0.054-0.852-0.051-1.52-0.321-2-0.211-0.371-0.558-0.535-1.039-0.481l-0.68 0.2c-0.027 0.535 0.012 1.066 0.122 1.601 0.21 1.121 0.652 1.746 1.32 1.879 0.316 0.082 0.519-0.32 0.598-1.199z" inkscape:connector-curvature="0"/>
      <path id="path186" style="fill-rule:evenodd;fill:#8d9296" d="m116.4 19.441c-0.105-0.402-0.304-0.8-0.597-1.203-0.586-0.797-1.321-1.199-2.199-1.199-0.883 0-1.547 0.547-2 1.641l-0.403 1.679 1.762-0.48c1.332-0.293 2.48-0.438 3.437-0.438z" inkscape:connector-curvature="0"/>
      <path id="path188" style="fill-rule:evenodd;fill:#8d9296" d="m108.52 24.52c1.601-0.532 2.265-0.985 2-1.36-0.188-0.238-0.481-0.359-0.879-0.359-0.266-0.028-0.719 0.011-1.36 0.121-0.535 0.051-0.75 0.332-0.64 0.84 0.105 0.504 0.398 0.758 0.879 0.758z" inkscape:connector-curvature="0"/>
      <path id="path190" style="fill-rule:evenodd;fill:#8d9296" d="m122.92 58.641c-0.055 0.371-0.281 0.839-0.684 1.398-0.449 0.641-0.933 1.149-1.437 1.52-0.426 0.32-1.094 0.629-2 0.921-1.039 0.348-1.574 0.532-1.602 0.559l2.16 4.082c0.989 0.16 1.829 0.266 2.52 0.32 0.961-1.761 1.707-3.535 2.242-5.32 0.531-1.762 0.891-4.254 1.078-7.48 0.028-0.563 0.828-2.375 2.403-5.442 1.597-3.144 2.476-5.344 2.636-6.597-0.531-1.067-1.238-1.817-2.117-2.243l-0.641 4.403c0.161 1.437 0.106 2.426-0.16 2.957-0.132 0.242-0.535 0.707-1.199 1.402-0.723 0.746-1.254 1.387-1.601 1.918-0.375 0.613-0.665 0.934-0.879 0.961l-0.161-0.16c0.348 1.519 0.481 2.547 0.399 3.082-0.531 2.023-0.852 3.266-0.957 3.719z" inkscape:connector-curvature="0"/>
      <path id="path192" style="fill-rule:evenodd;fill:#e3e4e6" d="m104.6 67c1.41-0.238 3.41-0.238 6 0 1.464 0.133 5.226 0.281 11.277 0.441-0.453-1.363-1.277-2.441-2.481-3.242-0.558-0.371-1.558-0.879-3-1.519-1.597-0.692-3-1.387-4.199-2.078-1.547-0.907-3.492-1.696-5.84-2.364-1.707-0.504-4.093-1.05-7.16-1.636-2-0.375-3.719-1.067-5.16-2.082-1.652-1.122-2.734-1.758-3.238-1.918-0.723-0.215-2.574-1.016-5.563-2.403-2.851-1.304-4.863-2.105-6.039-2.398-2.078-0.508-4.707-1.016-7.879-1.52-3.734-0.586-5.906-0.75-6.519-0.48-0.586 0.238-1.867 0.945-3.84 2.121l-2.762 1.68h-5.199c-2.266 0.132-4.668 0.398-7.199 0.796-1.574 0.243-3.067 0.801-4.481 1.68l-1.601 1.242 1.402 1.399c1.145 1.015 2.305 1.773 3.481 2.281 0.933 0.398 2.332 0.828 4.199 1.281 1.734 0.426 2.933 0.797 3.597 1.117 1.336 0.668 2.403 0.934 3.204 0.801l1.757-0.918c1.254-0.586 2-0.883 2.243-0.883 0.613 0 1.785 0.055 3.519 0.161 2.238 0.136 3.867 0.281 4.879 0.441 0.961 0.16 2.305 0.625 4.039 1.398l3.16 1.403c0.403 0.133 1.281 0.519 2.641 1.16 1.387 0.559 2.574 0.84 3.558 0.84 0.801 0 1.895-0.016 3.282-0.039 1.093 0.023 1.933 0.172 2.519 0.437 0.934 0.403 4.133 1.668 9.602 3.801l7.801-1z" inkscape:connector-curvature="0"/>
      <path id="path194" style="fill-rule:evenodd;fill:#d3d4d6" d="m50.719 58.641c0.722 0.32 1.922 0.718 3.601 1.199l0.879 0.082c0.613 0.023 1.055 0 1.321-0.082 0.453-0.133 1.48-0.613 3.082-1.442 0.132-0.824-0.028-1.41-0.481-1.757-0.266-0.215-0.613-0.426-1.043-0.641l-0.598-0.281 0.442-0.16c0.344-0.079 0.703-0.118 1.078-0.118h2.879c0.242 0-0.211-0.375-1.359-1.121-0.961-0.718-2.133-1.414-3.52-2.082-2.078-0.984-3.812-1.41-5.199-1.277-0.801 0.078-1.696 0.25-2.68 0.519l-1.242 0.36 0.68 0.762c0.296 0.476 0.066 0.73-0.68 0.757-0.746 0.028-1.453-0.039-2.117-0.199l-0.762-0.238-0.719 2.117 1 1 5.438 2.602z" inkscape:connector-curvature="0"/>
      <path id="path196" style="fill-rule:evenodd;fill:#d3d4d6" d="m86.398 63.84-1.117-1.719c-0.215-0.348-0.426-0.922-0.64-1.723-0.243-0.851-0.496-1.531-0.762-2.039-1.332-2.027-2.387-3.773-3.16-5.238-0.453-0.906-0.774-1.789-0.957-2.641-0.082-0.425-0.16-0.933-0.242-1.519-0.188-0.723-0.426-1.16-0.719-1.32-0.082-0.055-0.563-0.055-1.442 0-1.199 0.054-2.011 0.078-2.437 0.078-2.402 0-3.867-0.051-4.402-0.16-0.188-0.024-0.2 0.121-0.04 0.441 0.106 0.266 0.282 0.547 0.52 0.84 0.133 0.16 1.027 0.785 2.68 1.879 1.679 1.121 2.586 1.761 2.718 1.922 0.161 0.16 0.348 0.48 0.563 0.961 0.238 0.476 0.426 0.796 0.559 0.957 0.214 0.269 0.546 0.722 1 1.363 0.402 0.637 0.625 1.012 0.679 1.117 0.028 0.082-0.133 0.016-0.48-0.199-0.719-0.399-1.36-0.735-1.918-1-0.856-0.426-2.762-1.293-5.723-2.602-0.746-0.343-1.84-0.652-3.277-0.918l-1.922-0.281 0.883 0.723c0.664 0.531 1.211 0.918 1.636 1.16 0.668 0.344 2.336 1.277 5 2.797 1.016 0.535 1.801 1.176 2.364 1.922 0.343 0.453 0.984 1.347 1.918 2.679 0.851 1.039 1.441 1.668 1.761 1.879 0.133 0.082 0.481 0.199 1.039 0.36 0.614 0.187 2.586 0.281 5.918 0.281z" inkscape:connector-curvature="0"/>
      <path id="path198" style="fill-rule:evenodd;fill:#d3d4d6" d="m116.32 66.281c-0.054-0.293-0.332-0.679-0.84-1.16-1.335-1.226-3.054-2.293-5.16-3.199-0.8-0.375-2.039-1-3.718-1.883-1.629-0.851-2.524-1.32-2.68-1.398-0.402-0.188-0.789-0.121-1.16 0.199-0.403 0.348-0.364 0.785 0.117 1.32 0.48 0.559 0.84 1.039 1.082 1.442 0.184 0.343 0.227 0.519 0.117 0.519-0.133 0-0.625-0.215-1.476-0.641-0.961-0.453-1.723-0.894-2.282-1.32-0.347-0.265-0.922-0.746-1.718-1.441-0.59-0.504-0.95-0.774-1.082-0.797l-2.2 0.039c-0.105 0.398-0.215 0.84-0.32 1.32-0.16 0.934-0.16 1.52 0 1.758 0.266 0.402 0.906 1.84 1.922 4.32 0.051 1.121 0.012 2-0.121 2.641l7.48-1.039c1.492-0.16 3.598-0.149 6.321 0.039 0.878-0.027 2.652-0.121 5.32-0.281 0.316 0 0.453-0.145 0.398-0.438z" inkscape:connector-curvature="0"/>
      <path id="path200" style="fill-rule:evenodd;fill:#f7f8fa" d="m114.28 62.641c3.012 1.437 5.547 3.039 7.598 4.8-1.254-2.32-2.184-3.828-2.801-4.519-0.371-0.43-0.851-0.75-1.437-0.961-1.442-0.535-2.348-0.883-2.719-1.039-1.094-0.508-2.27-1.082-3.524-1.723l-1.519-0.84 1.043-1.839c0.558-0.961 0.933-1.708 1.117-2.239 0.402-1.308 0.52-2.883 0.359-4.722-0.16-1.758-1.011-4-2.558-6.719l-2.238-3.52c0.105 0.481 0.293 1.094 0.558 1.84 0.535 1.492 1.188 2.879 1.961 4.16 0.801 1.282 1.078 2.668 0.84 4.16-0.508 1.653-0.867 2.879-1.082 3.68-0.293 0.985-0.824 1.973-1.598 2.961l-1.082 1.199c-4.613-0.988-8.039-1.652-10.277-2-1.094-0.187-1.668-0.347-1.723-0.48-0.078-0.453-0.746-1.051-2-1.801-1.492-0.906-3.961-2.133-7.398-3.68-3.121-1.386-4.746-2.121-4.879-2.199-0.11-0.082-0.734-0.16-1.883-0.238-1.57-0.137-3.117-0.32-4.641-0.563-1.703-0.265-3.425-0.574-5.16-0.918l-2.039-0.402-0.277-1.719 0.359-1c0.293-0.773 0.574-1.375 0.84-1.8 0.453-0.719 0.68-1.973 0.68-3.758l-0.923-1.442c-0.399-0.613-0.945-2.027-1.641-4.242-0.343-1.09-0.652-2.133-0.918-3.117-0.082 1.25 0.012 2.414 0.282 3.48l1.32 4.797c0 0.617-0.082 1.641-0.242 3.082-0.106 0.852-0.36 1.785-0.758 2.801-0.481 1.067-0.817 1.867-1 2.399-0.215 0.668-1.43 1.574-3.641 2.718l-3.281 1.524c-0.879 0-1.906 0.093-3.078 0.277-0.481 0.082-1.547 0.16-3.203 0.242-1.946 0.078-3.852 0.227-5.719 0.438-2.105 0.215-3.785 0.883-5.039 2l-1.242 1.601 1.48 1.68c1.067 1.199 1.828 1.973 2.281 2.32 0.321 0.239 1.454 0.492 3.399 0.758 2.082 0.297 3.519 0.656 4.32 1.082 1.52 0.801 2.989 1.145 4.403 1.039 0.796-0.238 1.425-0.492 1.878-0.758-1.066 0.184-1.867 0.184-2.402 0-1.57-0.48-2.637-1.015-3.199-1.601-0.238-0.238-1.227-0.547-2.957-0.918-1.895-0.402-3-0.668-3.32-0.801-0.457-0.215-0.614-0.496-0.481-0.84 0.184-0.535 0.254-0.883 0.199-1.043-0.16-0.531 0.028-0.664 0.559-0.398l1.32-0.039c1.067-0.028 2.039-0.016 2.922 0.039 1.438 0.105 3.492 0.547 6.16 1.32-0.535-0.535-1.293-1.105-2.281-1.719-0.668-0.429-1.453-0.734-2.359-0.921-0.614-0.106-1.52-0.2-2.719-0.282-0.856-0.05-0.844-0.16 0.039-0.316 0.586-0.137 2-0.387 4.238-0.762 1.227-0.215 3.082-0.453 5.563-0.719 2.586-0.269 4.504-0.507 5.758-0.722 1.652-0.293 3.027-0.36 4.121-0.199 0.664 0.105 1.691 0.347 3.078 0.718 1.066 0.242 2.215 0.828 3.441 1.762 0.613 0.453 1.121 0.895 1.52 1.32l-0.282-0.679c-0.132-0.321-0.476-0.719-1.039-1.2-0.558-0.453-1.148-0.855-1.757-1.203-0.508-0.265-1.016-0.613-1.524-1.039l-0.598-0.558 1-0.039c0.825-0.028 1.598-0.016 2.321 0.039 0.531 0.054 1.398 0.011 2.597-0.121 1.122-0.106 1.989-0.106 2.602 0 0.641 0.082 2.094 0.812 4.359 2.199 2.614 1.574 4.188 2.48 4.719 2.722 0.961 0.426 1.801 1.184 2.524 2.278 0.613 0.906 0.972 1.707 1.078 2.402 0.054 0.348-0.133 0.84-0.559 1.481-0.48 0.746-0.789 1.398-0.922 1.957-0.16 0.722-0.426 1.253-0.801 1.601l-0.519 0.281c2.668 0.614 4.133 0.973 4.402 1.079 0.266 0.082 1.106 0.519 2.52 1.32v-0.801c0-0.293-0.106-0.906-0.321-1.84-0.292-1.359-0.492-2.304-0.601-2.84-0.266-1.414-0.359-2.078-0.277-2l2.519-0.64c1.598-0.504 3.957-0.239 7.078 0.801 0.989 0.32 2.227 0.839 3.723 1.558 0.933 0.457 2.719 1.309 5.359 2.563z" inkscape:connector-curvature="0"/>
      <g id="g202">
        <g id="g204">
          <g id="g210">
            <path id="path218" style="fill-rule:evenodd;fill:url(#linearGradient212)" d="m58.359 29.48c-0.054-0.773-0.281-1.414-0.679-1.921-0.399-0.532-0.868-0.774-1.399-0.719-0.508 0.027-0.922 0.332-1.242 0.922-0.32 0.558-0.453 1.226-0.398 2 0.054 0.769 0.281 1.398 0.679 1.879 0.426 0.504 0.895 0.746 1.399 0.718 0.508-0.054 0.922-0.359 1.242-0.918 0.32-0.535 0.453-1.187 0.398-1.961z" inkscape:connector-curvature="0"/>
          </g>
        </g>
      </g>
      <g id="g220">
        <g id="g222">
          <g id="g228">
            <path id="path236" style="fill-rule:evenodd;fill:url(#linearGradient230)" d="m65.238 38.398c-0.05-0.636-0.277-1.171-0.679-1.597-0.371-0.453-0.797-0.656-1.278-0.602-0.48 0.028-0.867 0.293-1.16 0.801-0.293 0.48-0.414 1.039-0.359 1.68 0.05 0.668 0.265 1.215 0.636 1.64 0.375 0.426 0.801 0.625 1.282 0.602 0.48-0.055 0.867-0.32 1.16-0.801 0.32-0.48 0.453-1.055 0.398-1.723z" inkscape:connector-curvature="0"/>
          </g>
        </g>
      </g>
      <g id="g238">
        <g id="g240">
          <g id="g246">
            <path id="path254" style="fill-rule:evenodd;fill:url(#linearGradient248)" d="m65.602 17.559c0.05-0.774-0.149-1.454-0.602-2.039-0.426-0.559-0.973-0.852-1.641-0.879-0.64-0.055-1.199 0.187-1.679 0.718-0.481 0.536-0.746 1.188-0.801 1.961-0.024 0.774 0.16 1.453 0.562 2.039 0.426 0.563 0.973 0.868 1.637 0.922 0.668 0.024 1.242-0.226 1.723-0.761 0.504-0.532 0.773-1.188 0.801-1.961z" inkscape:connector-curvature="0"/>
          </g>
        </g>
      </g>
      <g id="g256">
        <g id="g258">
          <g id="g264">
            <path id="path272" style="fill-rule:evenodd;fill:url(#linearGradient266)" d="m75.52 19.48c-0.106-0.585-0.36-1.066-0.758-1.441-0.375-0.344-0.774-0.465-1.203-0.359-0.426 0.082-0.747 0.359-0.957 0.84-0.215 0.453-0.27 0.972-0.161 1.558 0.133 0.59 0.387 1.055 0.758 1.402 0.375 0.348 0.774 0.481 1.199 0.399 0.43-0.078 0.762-0.359 1-0.84 0.215-0.453 0.254-0.973 0.122-1.559z" inkscape:connector-curvature="0"/>
          </g>
        </g>
      </g>
      <g id="g274">
        <g id="g276">
          <g id="g282">
            <path id="path290" style="fill-rule:evenodd;fill:url(#linearGradient284)" d="m80.199 32.68c-0.054-0.801-0.293-1.465-0.719-2-0.453-0.559-0.949-0.813-1.48-0.758-0.559 0.023-1.012 0.344-1.359 0.957-0.321 0.613-0.453 1.32-0.403 2.121 0.055 0.828 0.309 1.508 0.762 2.039 0.426 0.535 0.906 0.789 1.441 0.762 0.559-0.055 1.012-0.375 1.36-0.961 0.32-0.613 0.453-1.332 0.398-2.16z" inkscape:connector-curvature="0"/>
          </g>
        </g>
      </g>
      <g id="g292">
        <g id="g294">
          <g id="g300">
            <path id="path308" style="fill-rule:evenodd;fill:url(#linearGradient302)" d="m47.398 34.441c-0.16-0.668-0.476-1.203-0.957-1.601-0.48-0.399-0.972-0.535-1.48-0.399-0.508 0.133-0.867 0.481-1.082 1.039-0.238 0.586-0.266 1.215-0.078 1.879 0.16 0.668 0.48 1.2 0.961 1.602 0.449 0.371 0.933 0.504 1.437 0.398 0.508-0.132 0.879-0.48 1.121-1.039 0.239-0.586 0.266-1.215 0.078-1.879z" inkscape:connector-curvature="0"/>
          </g>
        </g>
      </g>
      <g id="g310">
        <g id="g312">
          <g id="g318">
            <path id="path326" style="fill-rule:evenodd;fill:url(#linearGradient320)" d="m37.719 43.199c-0.024-0.613-0.199-1.144-0.52-1.597-0.32-0.43-0.707-0.629-1.16-0.602-0.426 0.027-0.801 0.266-1.117 0.719-0.297 0.453-0.43 0.988-0.402 1.601 0.027 0.614 0.199 1.133 0.519 1.559s0.707 0.641 1.16 0.641c0.453-0.028 0.828-0.266 1.121-0.719s0.426-0.989 0.399-1.602z" inkscape:connector-curvature="0"/>
          </g>
        </g>
      </g>
      <g id="g328">
        <g id="g330">
          <g id="g336">
            <path id="path344" style="fill-rule:evenodd;fill:url(#linearGradient338)" d="m36.32 33.801c-0.16-0.508-0.441-0.879-0.84-1.121-0.402-0.239-0.785-0.293-1.16-0.16-0.375 0.105-0.64 0.386-0.8 0.839-0.133 0.453-0.122 0.922 0.039 1.403 0.187 0.504 0.468 0.879 0.839 1.117 0.403 0.266 0.79 0.336 1.161 0.199 0.375-0.133 0.64-0.426 0.8-0.879 0.161-0.426 0.149-0.894-0.039-1.398z" inkscape:connector-curvature="0"/>
          </g>
        </g>
      </g>
      <g id="g346">
        <g id="g348">
          <g id="g354">
            <path id="path362" style="fill-rule:evenodd;fill:url(#linearGradient356)" d="m43.16 28.801c0.078-0.508-0.027-1.016-0.32-1.52-0.293-0.508-0.695-0.84-1.199-1-0.481-0.187-0.922-0.16-1.321 0.078-0.398 0.243-0.64 0.614-0.718 1.121-0.082 0.532 0.023 1.04 0.32 1.52 0.293 0.508 0.691 0.84 1.199 1 0.481 0.188 0.918 0.16 1.32-0.078 0.399-0.242 0.637-0.617 0.719-1.121z" inkscape:connector-curvature="0"/>
          </g>
        </g>
      </g>
      <g id="g364">
        <g id="g366">
          <g id="g372">
            <path id="path380" style="fill-rule:evenodd;fill:url(#linearGradient374)" d="m91.68 29.039c0.453-0.16 0.773-0.504 0.961-1.039 0.16-0.559 0.148-1.133-0.039-1.719-0.188-0.586-0.524-1.043-1-1.359-0.481-0.32-0.95-0.414-1.403-0.281-0.453 0.16-0.773 0.504-0.961 1.039-0.16 0.535-0.144 1.105 0.043 1.718 0.184 0.59 0.52 1.043 1 1.364 0.481 0.316 0.946 0.41 1.399 0.277z" inkscape:connector-curvature="0"/>
          </g>
        </g>
      </g>
    </g>
  </g>
<metadata><rdf:RDF><cc:Work><dc:format>image/svg+xml</dc:format><dc:type rdf:resource="http://purl.org/dc/dcmitype/StillImage"/><cc:license rdf:resource="http://creativecommons.org/licenses/publicdomain/"/><dc:publisher><cc:Agent rdf:about="http://openclipart.org/"><dc:title>Openclipart</dc:title></cc:Agent></dc:publisher></cc:Work><cc:License rdf:about="http://creativecommons.org/licenses/publicdomain/"><cc:permits rdf:resource="http://creativecommons.org/ns#Reproduction"/><cc:permits rdf:resource="http://creativecommons.org/ns#Distribution"/><cc:permits rdf:resource="http://creativecommons.org/ns#DerivativeWorks"/></cc:License></rdf:RDF></metadata></svg>
