<?xml version="1.0" encoding="UTF-8" standalone="no"?>
<svg
   xmlns:dc="http://purl.org/dc/elements/1.1/"
   xmlns:cc="http://creativecommons.org/ns#"
   xmlns:rdf="http://www.w3.org/1999/02/22-rdf-syntax-ns#"
   xmlns:svg="http://www.w3.org/2000/svg"
   xmlns="http://www.w3.org/2000/svg"
   xmlns:sodipodi="http://sodipodi.sourceforge.net/DTD/sodipodi-0.dtd"
   xmlns:inkscape="http://www.inkscape.org/namespaces/inkscape"
   version="1.1"
   id="Layer_1"
   x="0px"
   y="0px"
   viewBox="0 0 1957.5866 1600"
   enable-background="new 0 0 2060.4961 1684.1115"
   xml:space="preserve"
   inkscape:version="0.91 r13725"
   sodipodi:docname="saloli-ijeiyusdi.svg"
   width="1957.5865"
   height="1600"><metadata
     id="metadata101"><rdf:RDF><cc:Work
         rdf:about=""><dc:format>image/svg+xml</dc:format><dc:type
           rdf:resource="http://purl.org/dc/dcmitype/StillImage" /><dc:title></dc:title></cc:Work></rdf:RDF></metadata><defs
     id="defs99" /><sodipodi:namedview
     pagecolor="#ffffff"
     bordercolor="#666666"
     borderopacity="1"
     objecttolerance="10"
     gridtolerance="10"
     guidetolerance="10"
     inkscape:pageopacity="0"
     inkscape:pageshadow="2"
     inkscape:window-width="640"
     inkscape:window-height="480"
     id="namedview97"
     showgrid="false"
     inkscape:zoom="0.31120191"
     inkscape:cx="2393.259"
     inkscape:cy="823.19217"
     inkscape:current-layer="Layer_1"
     fit-margin-top="0"
     fit-margin-left="0"
     fit-margin-right="0"
     fit-margin-bottom="0" /><g
     id="g3548"
     transform="translate(-51.454844,-42.055658)"><path
       d="m 716.7463,1482.9347 c 151.9344,0 247.8301,30.4163 310.541,-9.6091 23.6506,-15.0956 76.3676,-82.2432 76.3676,-82.2432 l -344.351,2.9424 c -10e-5,0 -69.2375,88.9099 -42.5576,88.9099 z"
       id="path5"
       inkscape:connector-curvature="0"
       style="fill:#008000" /><path
       d="m 682.3126,1474.8248 c 31.9668,29.296 163.6616,17.5505 174.3109,12.5232 20.6757,-9.7545 40.7325,-50.1123 33.1427,-71.678 -9.9421,-28.2559 -73.7678,-59.9886 -103.7244,-59.9886 -66.2385,0 -98.4303,45.0897 -109.2575,76.6493 -3.4744,10.1291 -2.3685,35.2555 5.5283,42.4941 z"
       id="path7"
       inkscape:connector-curvature="0"
       style="fill:#ffecdf" /><path
       d="m 820.6064,1434.4435 c -16.9508,-1.4805 -54.7366,40.4375 -54.7366,40.4375 0,0 55.8799,-14.4628 68.7922,-25.6465 3.8558,-3.3406 -8.9768,-14.3458 -14.0556,-14.791 z"
       id="path9"
       inkscape:connector-curvature="0"
       style="fill:#000000" /><path
       d="m 791.973,1415.3467 c -23.229,-0.4683 -66.5105,64.9081 -66.5105,64.9081 0,0 54.0857,-40.4423 79.8775,-50.7681 4.5166,-1.8087 -8.5037,-14.0416 -13.367,-14.14 z"
       id="path11"
       inkscape:connector-curvature="0"
       style="fill:#000000" /><path
       d="M 1526.9583,1314.7191 C 1509.3372,871.2067 1330.1678,891.6411 1244.6407,765.4678 973.8671,366.0097 1275.8715,108.5586 1453.181,57.6071 c 255.5327,-73.43 503.0116,129.0173 537.5039,276.0937 82.2385,350.6737 -131.1283,458.2002 -258.475,458.2002 -30.7205,0 32.6836,-308.3177 -46.9919,-317.2148 -187.4625,-20.9357 100.3977,310.7846 -91.0559,748.9818 -21.3647,48.899 -66.145,117.7286 -67.2038,91.0511 z"
       id="path13"
       inkscape:connector-curvature="0"
       style="fill:#008000" /><path
       d="m 278.3074,524.6182 c 35.2464,-140.9854 79.3032,-114.5516 79.3032,-114.5516 0,0 35.2465,-17.6235 58.7451,114.5516 6.0411,33.9789 -146.4182,33.4823 -138.0483,0 z"
       id="path15"
       inkscape:connector-curvature="0"
       style="fill:#008000" /><path
       d="m 812.8737,760.5882 c 472.888,-210.6724 821.5007,347.0894 725.4831,554.1309 -93.9886,202.6656 -566.6732,106.8966 -725.4831,93.9886 C 637.2228,1394.4326 303.0077,955.0168 303.0077,955.0168 L 610.208,662.6635 c 10e-5,10e-5 151.2648,120.8231 202.6657,97.9247 z"
       id="path17"
       inkscape:connector-curvature="0"
       style="fill:#008000" /><path
       d="m 1229.9523,918.1963 c -121.2043,59.5064 -185.0397,85.1807 -52.8671,537.5039 14.2052,48.6083 -205.4016,-85.1759 -176.2318,99.8638 5.3834,34.1406 135.7007,26.4381 135.7007,26.4381 0,0 100.5994,-21.5891 252.0094,-76.3676 32.271,-11.6754 -9.5063,-64.791 0,-83.3256 21.0455,-41.0233 67.5548,4.0199 149.7932,-107.5898 74.4943,-101.1006 -44.059,-526.3035 -308.4044,-396.5228 z"
       id="path19"
       inkscape:connector-curvature="0"
       style="fill:#008000" /><path
       d="m 290.0557,1426.3289 c -30.5285,30.5286 -114.5497,129.2351 -114.5497,129.2351 0,0 116.6578,12.514 152.7337,0 143.9206,-49.9294 235.937,-276.0913 235.937,-276.0913 L 341.2738,1150.2333 c 0,0 5.9778,218.8991 -51.2181,276.0956 z"
       id="path21"
       inkscape:connector-curvature="0"
       style="fill:#008000" /><path
       d="m 885.6244,1273.4713 c -36.0942,-13.5916 -112.8816,139.0928 -74.5522,143.3704 269.8693,30.1111 362.1946,25.7117 362.1946,25.7117 l -36.7126,-136.8998 c 0,0 -94.584,26.6866 -250.9298,-32.1823 z"
       id="path23"
       inkscape:connector-curvature="0"
       style="fill:#fffcdf" /><path
       d="m 560.5103,866.852 c 73.6622,-84.3748 140.8429,335.0163 95.9638,437.6396 -5.7936,13.2495 -38.2612,43.0143 -47.9807,32.309 -47.9831,-52.8676 -232.9552,-114.9268 -283.92,-182.1069 -29.7412,-39.2054 -63.8377,-234.431 -25.232,-201.7757 52.0006,43.9842 162.0901,27.4225 261.1689,-86.066 z"
       id="path25"
       inkscape:connector-curvature="0"
       style="fill:#fffcdf" /><path
       d="m 320.2983,1442.5533 c -183.8149,-20.8158 -198.0719,89.7534 -135.4432,140.1938 12.1743,9.8063 60.8109,-14.5099 60.8109,-14.5099 0,0 2.6262,20.0664 8.1545,20.7318 79.4999,9.5343 179.8089,-105.4956 179.8089,-105.4956 0,0 -82.414,-37.4202 -113.3311,-40.9201 z"
       id="path27"
       inkscape:connector-curvature="0"
       style="fill:#ffe7df" /><path
       d="m 977.2123,1566.0962 c 31.9668,29.2964 163.6612,17.5505 174.3109,12.5236 20.6753,-9.7544 40.7325,-50.1128 33.1427,-71.6783 -9.942,-28.256 -73.7677,-59.9886 -103.7244,-59.9886 -66.2389,0 -98.4302,45.0901 -109.2579,76.6492 -3.4739,10.129 -2.3681,35.2554 5.5287,42.4941 z"
       id="path29"
       inkscape:connector-curvature="0"
       style="fill:#ffecdf" /><path
       d="m 1033.134,1476.1226 c -25.2109,3.8419 -63.3196,79.985 -63.3196,79.985 0,0 63.3196,-54.1556 81.6478,-67.4896 4.4838,-3.2611 -12.8465,-13.3292 -18.3282,-12.4954 z"
       id="path31"
       inkscape:connector-curvature="0"
       style="fill:#000000" /><path
       d="m 1064.693,1511.0692 c -23.2289,-0.4688 -66.5099,64.9081 -66.5099,64.9081 0,0 54.0851,-40.4423 79.877,-50.7687 4.5164,-1.8081 -8.5037,-14.041 -13.3671,-14.1394 z"
       id="path33"
       inkscape:connector-curvature="0"
       style="fill:#000000" /><path
       d="m 1090.5271,1549.3655 c -16.6558,-3.4716 -59.1265,33.6912 -59.1265,33.6912 0,0 57.1964,-7.7635 71.3358,-17.3447 4.2264,-2.8581 -7.215,-15.3064 -12.2093,-16.3465 z"
       id="path35"
       inkscape:connector-curvature="0"
       style="fill:#000000" /><path
       d="m 1737.8273,406.501 c 173.9175,1.1524 195.1973,310.2295 113.9519,356.7671 -32.6039,18.6746 -124.2734,40.8381 -127.5857,31.655 -23.6694,-65.6248 28.359,-261.8996 -32.9973,-312.7314 -16.2063,-13.4251 -68.3988,18.3964 -68.3988,18.3964 0,0 36.2769,-94.6096 115.0299,-94.0871 z"
       id="path37"
       inkscape:connector-curvature="0"
       style="fill:#fffcdf" /><path
       d="M 310.6162,959.3179 C 402.6163,1010.761 668.9527,827.1476 610.208,662.6636 588.1785,600.9791 526.7376,521.648 401.6673,504.0576 281.456,487.1509 209.5717,501.4549 171.737,527.6872 c -61.8184,42.8597 -36.0428,107.2876 -56.2268,107.2876 -93.0143,0 -78.052,171.6122 195.106,324.3431 z"
       id="path39"
       inkscape:connector-curvature="0"
       style="fill:#008000" /><path
       d="m 113.2568,830.0828 c -56.4115,42.3655 16.7517,125.0324 16.7517,125.0324 l 104.6758,-89.2755 c 0,0 -65.9415,-77.4264 -121.4275,-35.7569 z"
       id="path41"
       inkscape:connector-curvature="0"
       style="fill:#59630a" /><path
       stroke-miterlimit="10"
       d="m 208.1335,840.4791 6.2052,5.8377 c 0,0 87.4625,15.9294 87.4625,67.5506 0,18.0754 14.4024,-62.6028 1.2392,-74.9931 -22.5847,-21.2586 -94.9069,1.6048 -94.9069,1.6048 z"
       id="path43"
       inkscape:connector-curvature="0"
       style="fill:#231f20;stroke:#231f20;stroke-width:4.31780005;stroke-linecap:round;stroke-linejoin:round;stroke-miterlimit:10" /><path
       d="m 295.9308,710.5369 c 93.3938,-276.916 246.1999,-94.2137 234.1494,-29.819 -6.7325,35.9843 64.7747,117.5132 25.1523,173.8052 C 515.4418,911.0565 386.8836,999.2074 310.6163,959.3178 283.0983,944.925 326.4546,830.2256 295.9309,835.9578 157.1663,862.0121 97.9343,794.6045 130.0086,762.5302 232.3344,660.2039 287.762,734.7542 295.9308,710.5369 Z"
       id="path45"
       inkscape:connector-curvature="0"
       style="fill:#fffcdf" /><path
       d="m 170.9123,714.4205 c 0,0 -37.2658,51.1524 -50.9068,41.8993 -7.538,-5.1137 9.2229,-26.4544 15.6627,-32.8942 11.6308,-11.6307 41.8969,-9.4124 33.2857,-9.0051"
       id="path47"
       inkscape:connector-curvature="0"
       style="fill:#62200a" /><path
       d="m 91.8974,752.7964 c 2.1877,-6.7391 -15.5878,-16.3463 -19.9776,-23.1536 -3.7714,-5.8497 5.1795,22.5871 11.3731,26.0917 1.9795,1.1193 7.9041,-0.7758 8.6045,-2.9381 z"
       id="path49"
       inkscape:connector-curvature="0"
       style="fill:#62200a" /><path
       d="m 328.2397,663.472 c 2.0236,-29.9403 53.3636,-74.6975 93.4192,-75.3793 46.9876,-0.7988 99.3274,49.5922 95.9825,80.7742 -5.0739,47.2875 -68.3681,80.5286 -100.2879,79.1953 -30.6901,-1.2814 -92.6745,-31.9078 -89.1138,-84.5902 z"
       id="path51"
       inkscape:connector-curvature="0"
       style="opacity:0.4;fill:#fcaf1b" /><path
       d="m 347.2516,660.2039 c 12.2938,-32.6625 95.5373,-79.7811 139.5941,0 11.2187,20.3149 -46.5889,61.1367 -69.7968,61.2048 -23.2079,0.0676 -77.9729,-39.4842 -69.7973,-61.2048 z"
       id="path53"
       inkscape:connector-curvature="0"
       style="fill:#ffffff" /><path
       stroke-miterlimit="10"
       d="m 354.2633,661.0708 c 11.0637,-29.3968 85.9839,-71.8046 125.6345,0 10.0965,18.2836 -41.93,55.0226 -62.8187,55.0836 -20.8863,0.0604 -70.1739,-35.5348 -62.8158,-55.0836 z"
       id="path55"
       inkscape:connector-curvature="0"
       style="fill:#803300;stroke:#000000;stroke-width:4.31780005;stroke-miterlimit:10" /><path
       d="m 421.5582,660.5272 c 8.8434,-5.381 3.2773,-36.5816 -6.1045,-40.96 -8.4006,-3.9215 -35.4268,10.9563 -35.4268,10.9563 0,0 30.5894,36.6614 41.5313,30.0037 z"
       id="path57"
       inkscape:connector-curvature="0"
       style="fill:#ffffff" /><path
       d="m 536.7776,636.2303 c -10.2017,-14.3693 -7.5615,-54.5726 0,-70.4929 55.8074,-117.4873 149.7985,-117.4873 149.7985,-117.4873 0,0 44.0568,99.6206 -78.8369,207.7957 -13.8261,12.1701 -60.298,-4.7976 -70.9616,-19.8155 z"
       id="path59"
       inkscape:connector-curvature="0"
       style="fill:#008000" /><path
       d="m 682.2588,454.7062 c -8.2739,-24.5992 -16.7704,78.2775 -92.6794,148.2873 -9.0329,8.3306 -5.2217,50.3445 6.9503,48.6577 42.8928,-5.9409 109.2833,-126.916 85.7291,-196.945 z"
       id="path61"
       inkscape:connector-curvature="0"
       style="fill:#ffffff" /><path
       d="m 880.4286,1300.0313 c -24.4586,116.0979 -186.1691,185.0398 -350.3484,320.15 -39.027,32.1171 -201.8405,11.7507 -201.8405,11.7507 0,0 13.4438,-113.7461 41.6013,-135.1102 27.7949,-21.0883 109.6538,-2.5629 137.5657,-23.4962 140.9853,-105.7389 143.9229,-505.195 255.5351,-478.7612 31.88,7.5475 182.1046,-1.2508 117.4868,305.4669 z"
       id="path63"
       inkscape:connector-curvature="0"
       style="fill:#008000" /><path
       d="m 524.0433,1502.7391 c 15.1076,20.1648 38.4513,74.3435 27.4014,96.9824 -34.0892,69.8413 -227.2931,32.2104 -227.2931,32.2104 0,0 8.2461,-112.561 46.1466,-137.9355 24.6318,-16.4917 89.0246,-21.0878 117.7631,-13.8257 10.2957,2.5999 29.6152,14.0695 35.982,22.5684 z"
       id="path65"
       inkscape:connector-curvature="0"
       style="fill:#ffecdf" /><path
       d="m 456.322,1593.8885 c -25.8293,5.1536 -89.4535,44.4104 -89.4535,44.4104 0,0 75.7683,-13.7274 110.3566,-22.2263 7.3998,-1.8177 -14.3227,-23.4962 -20.9031,-22.1841 z"
       id="path67"
       inkscape:connector-curvature="0"
       style="fill:#000000" /><path
       d="m 426.4848,1561.1254 c -28.7481,-4.8024 -89.9995,72.5074 -89.9995,72.5074 0,0 76.5551,-40.0815 102.3048,-57.4166 4.0363,-2.7174 -9.2881,-14.5852 -12.3053,-15.0908 z"
       id="path69"
       inkscape:connector-curvature="0"
       style="fill:#000000" /><path
       d="m 381.5731,1525.5839 c -28.467,5.6127 -57.4214,100.8665 -57.4214,100.8665 0,0 56.5871,-65.8733 76.5835,-85.8696 4.301,-4.3008 -13.1958,-16.1728 -19.1621,-14.9969 z"
       id="path71"
       inkscape:connector-curvature="0"
       style="fill:#000000" /><path
       d="m 217.3631,1480.2595 c -26.9932,1.4806 -28.3826,104.3429 -28.3826,104.3429 0,0 35.4691,-55.6079 39.2122,-76.8502 1.2814,-7.2761 -3.4529,-27.8956 -10.8296,-27.4927 z"
       id="path73"
       inkscape:connector-curvature="0"
       style="fill:#000000" /><path
       d="m 249.8548,1511.0831 c -11.2072,8.9254 -4.1888,57.1542 -4.1888,57.1542 0,0 32.1026,-34.9418 27.5185,-47.9855 -2.0778,-5.9126 -18.429,-13.0715 -23.3297,-9.1687 z"
       id="path75"
       inkscape:connector-curvature="0"
       style="fill:#000000" /><path
       d="m 318.1734,1509.9681 c -20.5793,3.3075 -32.3156,76.8599 -32.3156,76.8599 0,0 33.1494,-47.7231 50.6276,-55.8425 6.3203,-2.9376 -11.4342,-22.1232 -18.312,-21.0174 z"
       id="path77"
       inkscape:connector-curvature="0"
       style="fill:#000000" /><path
       d="m 122.2263,788.4133 c 0,0 2.4718,24.058 -2.2208,21.4179 -11.4197,-6.4254 -32.4327,-46.2306 -32.4327,-46.2306 l 34.6535,24.8127 z"
       id="path79"
       inkscape:connector-curvature="0"
       style="fill:#ffffff" /><path
       d="m 134.3844,639.1678 c 73.4305,29.699 93.9421,74.817 0,146.8582 -11.7829,9.0353 -42.3023,-4.6896 -58.1943,-30.2915 C 5.843,642.4053 104.8869,627.2372 134.3844,639.1678 Z"
       id="path81"
       inkscape:connector-curvature="0"
       style="fill:#62200a" /><path
       d="m 103.5771,847.5234 c 7.1566,12.8393 30.5846,38.102 30.5846,38.102 0,0 -12.3029,5.6784 -19.34,32.1448 -4.5682,17.185 -19.9047,-85.7828 -11.2446,-70.2468 z"
       id="path83"
       inkscape:connector-curvature="0"
       style="opacity:0.2;fill:#49541c" /><path
       d="m 234.2482,1026.8732 c -76.3651,25.7354 -205.6003,-88.4651 -42.0043,-174.4797 29.1953,-15.3509 110.7639,0 110.7639,71.6779 0,73.6977 -39.4607,92.9255 -68.7596,102.8018 z"
       id="path85"
       inkscape:connector-curvature="0"
       style="fill:#af5436" /><path
       d="m 138.5919,903.7286 c 0,0 -54.3433,107.5947 80.9099,118.3096 16.8151,1.3304 -36.2909,-11.413 -10.7384,-52.6848 12.964,-20.9376 -15.7256,-6.4465 -70.1715,-65.6248 z"
       id="path87"
       inkscape:connector-curvature="0"
       style="opacity:0.1;fill:#af2c01" /><ellipse
       cx="255.1254"
       cy="986.71692"
       rx="43.836601"
       ry="39.645901"
       id="ellipse89"
       style="fill:#bc775f" /><path
       d="m 223.4771,964.5842 c 0,0 -19.7968,39.7908 33.2833,54.8864 13.3104,3.7858 -27.9349,7.1451 -39.7605,-19.1246 -7.1024,-15.7798 6.4772,-35.7618 6.4772,-35.7618 z"
       id="path91"
       inkscape:connector-curvature="0"
       style="opacity:0.1;fill:#af2c01" /><path
       d="m 1241.9838,910.8454 c -230.9777,62.2377 -105.4296,394.8082 -105.4296,394.8082 0,0 -113.5023,-323.1393 93.3981,-387.4573 351.1382,-109.1591 314.0691,387.4573 314.0691,387.4573 0,0 37.7341,-486.3606 -302.0376,-394.8082 z"
       id="path93"
       inkscape:connector-curvature="0"
       style="fill:#fffcdf" /><path
       d="m 803.8782,999.8915 c 137.7618,58.3953 81.9126,272.7225 81.9126,272.7225 0,0 48.7608,-214.875 -79.5138,-269.5037 -106.6457,-45.4178 -140.0532,104.9704 -140.0532,104.9704 0,0 30.7861,-153.4899 137.6544,-108.1892 z"
       id="path95"
       inkscape:connector-curvature="0"
       style="fill:#ffffff" /></g></svg>