<?xml version="1.0" encoding="UTF-8" standalone="no"?>
<!-- Created with Inkscape (http://www.inkscape.org/) -->
<svg xmlns:inkscape="http://www.inkscape.org/namespaces/inkscape" xmlns:rdf="http://www.w3.org/1999/02/22-rdf-syntax-ns#" xmlns="http://www.w3.org/2000/svg" xmlns:xlink="http://www.w3.org/1999/xlink" xmlns:ns1="http://sozi.baierouge.fr" xmlns:cc="http://creativecommons.org/ns#" xmlns:sodipodi="http://sodipodi.sourceforge.net/DTD/sodipodi-0.dtd" xmlns:dc="http://purl.org/dc/elements/1.1/" id="svg2" xml:space="preserve" viewBox="0 0 21.8 21.8" version="1.1" inkscape:version="0.91 r13725">
  <defs id="defs6">
    <clipPath id="clipPath20">
      <path id="path22" d="m1 3.44h15v9h-15v-9z" inkscape:connector-curvature="0"/>
    </clipPath>
    <mask id="mask24">
      <g id="g26">
        <g id="g28" clip-path="url(#clipPath20)">
          <path id="path30" style="fill:#000000;fill-opacity:.14840" d="m1 3.44h15v9h-15v-9z" inkscape:connector-curvature="0"/>
        </g>
      </g>
    </mask>
    <clipPath id="clipPath36">
      <path id="path38" d="m1 3.44h15v9h-15v-9z" inkscape:connector-curvature="0"/>
    </clipPath>
    <clipPath id="clipPath40">
      <path id="path42" d="m1 4h15v9h-15v-9z" inkscape:connector-curvature="0"/>
    </clipPath>
    <clipPath id="clipPath64">
      <path id="path66" d="m1 3.44h15v9h-15v-9z" inkscape:connector-curvature="0"/>
    </clipPath>
    <mask id="mask68">
      <g id="g70">
        <g id="g72" clip-path="url(#clipPath64)">
          <path id="path74" style="fill:#000000;fill-opacity:.19140" d="m1 3.44h15v9h-15v-9z" inkscape:connector-curvature="0"/>
        </g>
      </g>
    </mask>
    <clipPath id="clipPath80">
      <path id="path82" d="m1 3.44h15v9h-15v-9z" inkscape:connector-curvature="0"/>
    </clipPath>
    <clipPath id="clipPath84">
      <path id="path86" d="m1 4h15v9h-15v-9z" inkscape:connector-curvature="0"/>
    </clipPath>
    <clipPath id="clipPath108">
      <path id="path110" d="m2 7.44h4v4h-4v-4z" inkscape:connector-curvature="0"/>
    </clipPath>
    <mask id="mask112">
      <g id="g114">
        <g id="g116" clip-path="url(#clipPath108)">
          <path id="path118" style="fill:#000000;fill-opacity:.19920" d="m2 7.44h4v4h-4v-4z" inkscape:connector-curvature="0"/>
        </g>
      </g>
    </mask>
    <clipPath id="clipPath124">
      <path id="path126" d="m2 7.44h4v4h-4v-4z" inkscape:connector-curvature="0"/>
    </clipPath>
    <clipPath id="clipPath128">
      <path id="path130" d="m2 8h4v4h-4v-4z" inkscape:connector-curvature="0"/>
    </clipPath>
    <clipPath id="clipPath152">
      <path id="path154" d="m6 6.44h7v5h-7v-5z" inkscape:connector-curvature="0"/>
    </clipPath>
    <mask id="mask156">
      <g id="g158">
        <g id="g160" clip-path="url(#clipPath152)">
          <path id="path162" style="fill:#000000;fill-opacity:.19920" d="m6 6.44h7v5h-7v-5z" inkscape:connector-curvature="0"/>
        </g>
      </g>
    </mask>
    <clipPath id="clipPath168">
      <path id="path170" d="m6 6.44h7v5h-7v-5z" inkscape:connector-curvature="0"/>
    </clipPath>
    <clipPath id="clipPath172">
      <path id="path174" d="m6 7h7v5h-7v-5z" inkscape:connector-curvature="0"/>
    </clipPath>
  </defs>
  <g id="g10" transform="matrix(1.25 0 0 -1.25 0 21.8)">
    <g id="g12">
      <path id="path14" style="fill-rule:evenodd;fill:#75ad45" d="m15.223 10.561c0.449-0.816 0.519-1.715 0.207-2.707-0.766-2.426-2.821-3.703-6.168-3.824-3.453-0.121-5.801 0.816-7.051 2.812-0.469 0.762-0.684 1.543-0.652 2.34 0.035 0.746 0.269 1.285 0.703 1.613 0.625 0.454 1.25 0.645 1.875 0.575 0.691-0.055 1.336-0.426 1.925-1.121 0.344-0.379 0.848-0.606 1.508-0.676 0.676-0.051 1.2 0.097 1.563 0.441 0.277 0.246 0.762 0.758 1.457 1.535 0.711 0.61 1.449 0.836 2.211 0.68 1.129-0.246 1.933-0.801 2.422-1.668z" inkscape:connector-curvature="0"/>
      <g id="g16">
        <g id="g32" mask="url(#mask24)">
          <g id="g44">
            <g id="g46" clip-path="url(#clipPath36)">
              <g id="g48" transform="translate(0 -0.56)">
                <g id="g52">
                  <g id="g54" clip-path="url(#clipPath40)">
                    <g id="g56">
                      <path id="path58" style="fill-rule:evenodd;fill:#000000" d="m12.801 12.789c1.129-0.246 1.933-0.801 2.418-1.668 0.453-0.812 0.523-1.715 0.211-2.703-0.766-2.43-2.821-3.707-6.168-3.828-3.364-0.121-5.688 0.781-6.973 2.707-0.484 0.73-0.73 1.492-0.73 2.289-0.016 0.746 0.175 1.301 0.574 1.668-0.278-0.453-0.328-1.024-0.156-1.719 0.191-0.746 0.597-1.414 1.222-2.004 0.953-0.918 2.446-1.394 4.477-1.429 1.992-0.036 3.527 0.355 4.605 1.171 1.11 0.832 1.492 1.957 1.145 3.379-0.364 1.426-1.235 1.926-2.602 1.512l-0.211-0.078c0.715 0.625 1.442 0.859 2.188 0.703z" inkscape:connector-curvature="0"/>
                    </g>
                  </g>
                </g>
              </g>
            </g>
          </g>
        </g>
      </g>
      <g id="g60">
        <g id="g76" mask="url(#mask68)">
          <g id="g88">
            <g id="g90" clip-path="url(#clipPath80)">
              <g id="g92" transform="translate(0 -0.56)">
                <g id="g96">
                  <g id="g98" clip-path="url(#clipPath84)">
                    <g id="g100">
                      <path id="path102" style="fill-rule:evenodd;fill:#000000" d="m12.773 12.789c1.129-0.246 1.934-0.801 2.422-1.668 0.45-0.812 0.52-1.715 0.207-2.703-0.761-2.43-2.82-3.707-6.168-3.828-2.41-0.086-4.316 0.383-5.722 1.406-1.145 0.832-1.797 1.875-1.953 3.121 0.296-0.777 0.886-1.535 1.769-2.262 1.11-0.917 2.324-1.441 3.645-1.562 2.132-0.207 3.902 0.012 5.308 0.652 1.336 0.606 2.168 1.481 2.496 2.629 0.606 2.172-0.164 3.59-2.3 4.254l0.296-0.039z" inkscape:connector-curvature="0"/>
                    </g>
                  </g>
                </g>
              </g>
            </g>
          </g>
        </g>
      </g>
      <g id="g104">
        <g id="g120" mask="url(#mask112)">
          <g id="g132">
            <g id="g134" clip-path="url(#clipPath124)">
              <g id="g136" transform="translate(0 -0.56)">
                <g id="g140">
                  <g id="g142" clip-path="url(#clipPath128)">
                    <g id="g144">
                      <path id="path146" style="fill-rule:evenodd;fill:#ffffff" d="m3.934 10.328c0.05-0.242 0.304-0.441 0.754-0.598 0.503-0.191 0.824-0.382 0.964-0.574 0.223-0.328 0.051-0.562-0.523-0.703-0.606-0.156-1.203-0.086-1.793 0.211-0.555 0.258-0.887 0.641-0.988 1.145-0.09 0.433 0.007 0.812 0.285 1.144 0.207 0.223 0.457 0.27 0.754 0.129 0.297-0.156 0.476-0.406 0.547-0.754z" inkscape:connector-curvature="0"/>
                    </g>
                  </g>
                </g>
              </g>
            </g>
          </g>
        </g>
      </g>
      <g id="g148">
        <g id="g164" mask="url(#mask156)">
          <g id="g176">
            <g id="g178" clip-path="url(#clipPath168)">
              <g id="g180" transform="translate(0 -0.56)">
                <g id="g184">
                  <g id="g186" clip-path="url(#clipPath172)">
                    <g id="g188">
                      <path id="path190" style="fill-rule:evenodd;fill:#ffffff" d="m7.508 7.82c-0.434 0.242-0.617 0.528-0.547 0.86 0.051 0.207 0.301 0.343 0.754 0.414 0.262 0.035 0.762 0.113 1.508 0.234 0.504 0.106 0.886 0.34 1.144 0.703 0.141 0.207 0.289 0.504 0.445 0.883 0.137 0.227 0.336 0.348 0.598 0.367 0.328 0.035 0.598-0.148 0.805-0.547 0.332-0.609 0.347-1.187 0.055-1.742-0.383-0.715-1.25-1.18-2.606-1.406-0.898-0.156-1.621-0.078-2.156 0.234z" inkscape:connector-curvature="0"/>
                    </g>
                  </g>
                </g>
              </g>
            </g>
          </g>
        </g>
      </g>
      <path id="path192" style="fill-rule:evenodd;fill:#ffffff" d="m10.953 10.198c0.383 0.086 0.539-0.078 0.469-0.492-0.086-0.434-0.469-0.817-1.145-1.145-0.504-0.226-0.98-0.324-1.433-0.289-0.586 0.035-0.606 0.09-0.051 0.156 0.746 0.086 1.25 0.383 1.512 0.887 0.277 0.555 0.492 0.848 0.648 0.883z" inkscape:connector-curvature="0"/>
      <path id="path194" style="fill-rule:evenodd;fill:#ffffff" d="m3.484 10.069c0.086-0.332 0.176-0.566 0.262-0.703 0.121-0.156 0.066-0.184-0.156-0.078-0.207 0.105-0.356 0.25-0.442 0.441-0.07 0.176-0.043 0.305 0.079 0.391 0.121 0.086 0.207 0.07 0.257-0.051z" inkscape:connector-curvature="0"/>
      <path id="path196" style="fill-rule:evenodd;fill:#ffffff" d="m4.238 9.053c0.332-0.191 0.469-0.312 0.418-0.363-0.051-0.07-0.164-0.062-0.336 0.023-0.125 0.055-0.203 0.141-0.234 0.262-0.02 0.121 0.031 0.149 0.152 0.078z" inkscape:connector-curvature="0"/>
      <path id="path198" style="fill-rule:evenodd;fill:#ffffff" d="m7.855 8.323c0.176-0.035 0.27-0.086 0.29-0.153 0-0.07-0.086-0.117-0.262-0.132-0.172-0.035-0.258 0.015-0.258 0.156-0.004 0.121 0.074 0.164 0.23 0.129z" inkscape:connector-curvature="0"/>
    </g>
  </g>
<metadata><rdf:RDF><cc:Work><dc:format>image/svg+xml</dc:format><dc:type rdf:resource="http://purl.org/dc/dcmitype/StillImage"/><cc:license rdf:resource="http://creativecommons.org/licenses/publicdomain/"/><dc:publisher><cc:Agent rdf:about="http://openclipart.org/"><dc:title>Openclipart</dc:title></cc:Agent></dc:publisher></cc:Work><cc:License rdf:about="http://creativecommons.org/licenses/publicdomain/"><cc:permits rdf:resource="http://creativecommons.org/ns#Reproduction"/><cc:permits rdf:resource="http://creativecommons.org/ns#Distribution"/><cc:permits rdf:resource="http://creativecommons.org/ns#DerivativeWorks"/></cc:License></rdf:RDF></metadata></svg>
