<?xml version="1.0" encoding="UTF-8" standalone="no"?>
<!-- Created with Inkscape (http://www.inkscape.org/) -->

<svg
   xmlns:dc="http://purl.org/dc/elements/1.1/"
   xmlns:cc="http://creativecommons.org/ns#"
   xmlns:rdf="http://www.w3.org/1999/02/22-rdf-syntax-ns#"
   xmlns:svg="http://www.w3.org/2000/svg"
   xmlns="http://www.w3.org/2000/svg"
   xmlns:sodipodi="http://sodipodi.sourceforge.net/DTD/sodipodi-0.dtd"
   xmlns:inkscape="http://www.inkscape.org/namespaces/inkscape"
   width="64px"
   height="64px"
   id="svg3958"
   version="1.1"
   inkscape:version="0.47pre4 r22446"
   sodipodi:docname="New document 10">
  <defs
     id="defs3960">
    <inkscape:perspective
       sodipodi:type="inkscape:persp3d"
       inkscape:vp_x="0 : 32 : 1"
       inkscape:vp_y="0 : 1000 : 0"
       inkscape:vp_z="64 : 32 : 1"
       inkscape:persp3d-origin="32 : 21.333333 : 1"
       id="perspective3966" />
    <inkscape:perspective
       id="perspective3951"
       inkscape:persp3d-origin="0.5 : 0.33333333 : 1"
       inkscape:vp_z="1 : 0.5 : 1"
       inkscape:vp_y="0 : 1000 : 0"
       inkscape:vp_x="0 : 0.5 : 1"
       sodipodi:type="inkscape:persp3d" />
  </defs>
  <sodipodi:namedview
     id="base"
     pagecolor="#ffffff"
     bordercolor="#666666"
     borderopacity="1.0"
     inkscape:pageopacity="0.0"
     inkscape:pageshadow="2"
     inkscape:zoom="5.5"
     inkscape:cx="32"
     inkscape:cy="32"
     inkscape:current-layer="layer1"
     showgrid="true"
     inkscape:document-units="px"
     inkscape:grid-bbox="true"
     inkscape:window-width="1600"
     inkscape:window-height="800"
     inkscape:window-x="0"
     inkscape:window-y="25"
     inkscape:window-maximized="1" />
  <metadata
     id="metadata3963">
    <rdf:RDF>
      <cc:Work
         rdf:about="">
        <dc:format>image/svg+xml</dc:format>
        <dc:type
           rdf:resource="http://purl.org/dc/dcmitype/StillImage" />
        <dc:title></dc:title>
      </cc:Work>
    </rdf:RDF>
  </metadata>
  <g
     id="layer1"
     inkscape:label="Layer 1"
     inkscape:groupmode="layer">
    <path
       style="fill:#280d08;fill-opacity:1;stroke:none"
       d="m 14.473733,2.7197233 c 0,0 -5.1689743,1.5904545 -8.5486923,5.9642056 C 2.5453228,13.05768 1.9488962,17.033818 1.5512895,19.4195 1.1536717,21.805183 0.75606495,26.974163 2.9429405,32.540755 5.1298162,38.107347 14.473733,49.638147 17.853451,52.62025 c 3.379718,2.982103 9.343918,7.157047 12.326029,7.554661 2.9821,0.397614 6.361818,1.192841 8.151076,0.795227 1.789269,-0.397613 4.174943,-2.186875 4.174943,-2.186875 0,0 0.795235,1.19284 2.385684,1.19284 1.590449,0 5.367785,-2.186875 8.946311,-5.168977 3.578516,-2.982104 5.964201,-5.367786 7.157042,-8.946311 1.192843,-3.578523 2.385686,-5.964206 1.78927,-8.747502 -0.596427,-2.783296 0.795224,0 -1.59046,-6.95824 C 58.807662,23.196832 57.217212,19.817116 54.632719,16.039784 52.048226,12.262453 44.294767,6.2982466 42.505499,5.1054055 40.716241,3.9125644 36.938906,2.1233022 35.348456,2.1233022 c -1.590459,0 -5.367785,-0.7952267 -6.560627,-0.59642 C 27.594987,1.7256889 24.612887,2.5209165 23.221236,3.5149499 21.829584,4.5089844 22.823618,1.7256889 19.64271,1.3280755 16.4618,0.93046107 14.274925,3.1173365 14.473733,2.7197233 z"
       id="path3731-8" />
    <path
       id="path3825-0"
       d="m 14.473733,2.7197233 c 0,0 -5.1689743,1.5904545 -8.5486923,5.9642056 C 2.5453228,13.05768 1.9488962,17.033818 1.5512895,19.4195 1.1536717,21.805183 0.75606495,26.974163 2.9429405,32.540755 5.1298162,38.107347 14.473733,49.638147 17.853451,52.62025 c 3.379718,2.982103 9.343918,7.157047 12.326029,7.554661 2.9821,0.397614 6.361818,1.192841 8.151076,0.795227 2.115223,-0.138255 4.362861,-1.760477 5.367784,-4.373751 1.004925,-2.613276 -0.596415,-4.075541 -0.09939,-7.057645 0.467959,-2.80775 0.79622,-2.363405 -3.479111,-5.964205 -4.275342,-3.600801 -3.876751,-6.163013 -5.665998,-7.852872 -1.789257,-1.689859 -4.671965,-5.168978 -6.063616,-6.95824 -1.320238,-1.697437 0.283835,-4.57159 -0.497011,-7.654066 -0.780846,-3.082477 -2.013522,-4.997835 -2.087471,-7.057645 -0.133257,-3.711627 0,-4.9701707 -0.596427,-7.1570462 C 24.759331,5.2447248 22.823629,1.7256889 19.64272,1.3280755 16.4618,0.93046107 14.274925,3.1173365 14.473733,2.7197233 z"
       style="fill:#4a180f;fill-opacity:1;stroke:none"
       sodipodi:nodetypes="csssssczszzszsssc" />
    <path
       id="path3827-9"
       d="m 27.793796,11.765436 c -0.776287,-1.8436907 2.409314,3.475874 2.683897,4.870769 0.274573,1.394893 -0.397628,2.882699 -0.89464,3.876734 -1.081606,2.16326 0.164968,4.032974 1.491056,6.858837 1.326099,2.825863 5.978743,7.929697 9.045716,11.232589 3.876729,4.174944 5.502912,5.87102 9.84094,6.262417 -0.397618,0.89463 -1.4395,1.650245 -2.584504,3.081505 -1.590438,1.98807 -1.462812,3.07931 -1.689853,4.373752 -0.227041,1.294442 0.654444,4.146885 2.186876,4.572558 1.789268,0.497018 2.385684,0.894631 5.96421,-2.087471 3.578516,-2.982104 5.964201,-5.367786 7.157042,-8.946311 1.192843,-3.578523 2.385686,-5.964206 1.78927,-8.747502 -0.596427,-2.783296 0.795224,0 -1.59046,-6.95824 C 58.807662,23.196832 57.217212,19.817116 54.632719,16.039784 52.048226,12.262453 44.294767,6.2982466 42.505499,5.1054055 40.716241,3.9125644 36.938906,2.1233022 35.348456,2.1233022 c -1.590459,0 -5.367785,-0.7952267 -6.560627,-0.59642 -1.192842,0.1988067 -3.180909,0.5964211 -4.57256,1.5904543 -0.09939,0.9940345 0.301515,1.304701 0.994034,2.2862791 0.692517,0.981579 3.379717,8.2504854 2.584493,6.3618204 z"
       style="fill:#4a180f;fill-opacity:1;stroke:none"
       sodipodi:nodetypes="czszscszsssssssssczz" />
  </g>
</svg>
