<?xml version="1.0" encoding="UTF-8" standalone="no"?>
<!-- Generator: Adobe Illustrator 12.0.1, SVG Export Plug-In . SVG Version: 6.00 Build 51448)  -->

<svg
   xmlns:dc="http://purl.org/dc/elements/1.1/"
   xmlns:cc="http://creativecommons.org/ns#"
   xmlns:rdf="http://www.w3.org/1999/02/22-rdf-syntax-ns#"
   xmlns:svg="http://www.w3.org/2000/svg"
   xmlns="http://www.w3.org/2000/svg"
   xmlns:sodipodi="http://sodipodi.sourceforge.net/DTD/sodipodi-0.dtd"
   xmlns:inkscape="http://www.inkscape.org/namespaces/inkscape"
   id="Layer_1"
   xml:space="preserve"
   overflow="visible"
   viewBox="0 0 317.695 254.327"
   version="1.1"
   enable-background="new 0 0 317.695 254.327"
   inkscape:version="0.91 r13725"
   sodipodi:docname="uha-empty-hand.svg"><defs
     id="defs45" /><sodipodi:namedview
     pagecolor="#ffffff"
     bordercolor="#666666"
     borderopacity="1"
     objecttolerance="10"
     gridtolerance="10"
     guidetolerance="10"
     inkscape:pageopacity="0"
     inkscape:pageshadow="2"
     inkscape:window-width="640"
     inkscape:window-height="480"
     id="namedview43"
     showgrid="false"
     inkscape:zoom="1.9889611"
     inkscape:cx="292.72153"
     inkscape:cy="115.01839"
     inkscape:current-layer="Layer_1" /><metadata
     id="metadata41"><rdf:RDF><cc:Work><dc:format>image/svg+xml</dc:format><dc:type
           rdf:resource="http://purl.org/dc/dcmitype/StillImage" /><cc:license
           rdf:resource="http://creativecommons.org/licenses/publicdomain/" /><dc:publisher><cc:Agent
             rdf:about="http://openclipart.org/"><dc:title>Openclipart</dc:title></cc:Agent></dc:publisher><dc:title></dc:title><dc:date>2006-10-03T19:52:38</dc:date><dc:description>an extended hand holding 3 pills</dc:description><dc:source>https://openclipart.org/detail/327/hand-and-pills-by-johnny_automatic</dc:source><dc:creator><cc:Agent><dc:title>johnny_automatic</dc:title></cc:Agent></dc:creator><dc:subject><rdf:Bag><rdf:li>contour</rdf:li><rdf:li>hand</rdf:li><rdf:li>health</rdf:li><rdf:li>medical</rdf:li><rdf:li>medicine</rdf:li><rdf:li>pills</rdf:li><rdf:li>remix problem</rdf:li></rdf:Bag></dc:subject></cc:Work><cc:License
         rdf:about="http://creativecommons.org/licenses/publicdomain/"><cc:permits
           rdf:resource="http://creativecommons.org/ns#Reproduction" /><cc:permits
           rdf:resource="http://creativecommons.org/ns#Distribution" /><cc:permits
           rdf:resource="http://creativecommons.org/ns#DerivativeWorks" /></cc:License></rdf:RDF></metadata><g
     id="g4234"><path
       fill-rule="evenodd"
       clip-rule="evenodd"
       id="path25"
       d="m210 40.143c36.762 13.238 43.709 56.292 72 78 5.777-2.977 7.732-16.783 17-20 4-1.389 7.428-0.303 13 0 10.343 6.078 3.548 14.573 3 28-0.195 4.777 1.244 9.318 1 13-1.073 16.164-11.542 29.482-19 34h-10c-6.322 17.735-17.99 39.472-44 31-9.621 16.428-19.951 42.651-50 32-11.928 8.096-24.301 19.789-39 18-23.636-2.876-28.142-45.829-39-66-4.59-8.526-10.595-15.543-14-22-6.166-11.693-6.056-21.342-20-11-15.843 11.751-24.442 41.505-59 35-7.082-1.333-22.01-9.016-22-19 0.012-12.379 30.214-23.41 35-30 2.743-3.777 3.854-9.537 7-14 2.464-3.496 7.59-6.041 10-10 3.83-6.293 3.166-15.789 7-22 2.591-4.197 7.75-7.416 12-13 7.9-10.38 11.488-22.684 25-27 3.112-6.239-0.192-10.285 1-17 7.48-42.113 112.96-59.686 113 2.003zm-25-2c7.992 0.008 16.368-0.368 23 1-4.239-58.268-119.31-42.928-109 15 11.893 0.22 15.396-13.262 25-12-2.661 4.006-10.421 2.912-12 8 2.932 0.275 3.714-4.006 5 0-10.791 5.566-21.709 5.517-30 12-11.457 8.959-14.714 25.053-27 33-2.056 16.277-8.773 27.893-19 36-1.963 6.111-3.977 11.015-8 15-6.627 6.565-30.136 15.4-31 23-0.945 8.312 13.286 15.702 21 17 22.465 3.781 45.802-11.62 46-33 2.168-0.168 0.453 3.547 1 5 7.986-4.014 11.273-12.727 21-15 0.637 2.182-2.834 3.182 1 3 4.051 1.707 5.79 3.996 8 8 13.697 24.815 27.148 55.435 36 83 5.212 3.787 8.952 9.048 14 13 24.377-1.958 46.174-11.825 46-35-11.795 8.502-23.371-6.81-11-13 8.224 6.919 19.414 1.321 27-3-1.973-7.693-6.827-12.506-12-17-31.046-4.711-35.648 22.351-47 34 1.762-1.948 5.387-7.222 3-10-4.166 1.523-9.605 7.031-12 7 2.6-5.066 7.393-7.94 15-8 5.207-9.529 16.791-21.521-2-26 3.405-1.733 5.865 0.769 11 0 1.258 2.742 2.26 5.739 5 7 7.192-5.211 21.129-10.163 31-4 1.646-7.313-2.324-9.01-5-12-7.381-0.714-12.069 1.264-17 3 3.906-6.133 19.471-6.98 23 0 5.18-15.962 22.953-35.627 43-24 2.234-18.1 12.107-28.56 28-33-28.14-28.196-35.12-77.543-91-77.997zm19 168c-6.947 1.149-14.26 1.432-20-1-1.076 2.591-3.615 3.718-4 7 7.96 6.93 21.12 1.19 24-6zm28-40c7.465-1.201 14.58-2.753 20-6-12.707-28.764-48.416-0.783-48 23 5.44 3.226 7.918 9.416 10 16-10.504 6.536-17.832 21.446-19 34 23.711 5.938 31.002-6.764 38-21 4.281-8.709 11.589-18.364 9-30-1.689 3.861-12.438 4.486-14 0-0.03-6.69 4.27-9.06 4-16zm17-3c-2.854 3.17-10.304 4.723-15 3-1.812 4.854-3.242 10.091-4 16 3.676 2.004 6.724 0.091 11 0 2.59-5.2 10.35-15.47 8-19zm22-33c4.736 2.042 14.921 0.941 17-3-17.612-21.628-49.502 13.16-33 32-6.377 10.623-11.256 22.744-12 39 32.147 15.67 39.508-24.472 40-46-6.082 0.082-12.597 0.597-15-3-2.19-5.79-0.34-15.47 3-19zm1 20c2.438-3.229 10.945-0.388 12-5 0.844 7.721-1.383 15.856 0 21 22.748 4.439 30.478-13.965 29-37-5.92 0.254-11.883 0.55-13-4 0.049-5.284 0.446-10.22 2-14 4.713 2.917 9.826-1.173 14-2-6.093-20.327-30.286-3.453-31 11 1.868 2.465 4.771 3.896 5 8-2.266 5.068-3.183 11.484-6 16-1.236-6.569 2.976-7.69 3-13-5.816 1.723-11.408 3.838-16 2-2.38 4.44-5.61 14.82 1 17zm44-38c-2.676-1.63-6.808 3.825-13 2 0.321 4.654-1.993 6.673-2 11 3.282 2.553 6.976-1.167 12 0 0.36-4.97 2.8-7.86 3-13z" /><path
       fill="#F5E0CD"
       fill-rule="evenodd"
       clip-rule="evenodd"
       id="path33"
       d="m276 116.14c-15.893 4.44-25.766 14.9-28 33-20.047-11.627-37.82 8.038-43 24-3.529-6.98-19.094-6.133-23 0 4.931-1.736 9.619-3.714 17-3 2.676 2.99 6.646 4.687 5 12-9.871-6.163-23.808-1.211-31 4-2.74-1.261-3.742-4.258-5-7-5.135 0.769-7.595-1.733-11 0 18.791 4.479 7.207 16.471 2 26-7.607 0.06-12.4 2.934-15 8 2.395 0.031 7.834-5.477 12-7 2.387 2.778-1.238 8.052-3 10 11.352-11.649 15.954-38.711 47-34 5.173 4.494 10.027 9.307 12 17-7.586 4.321-18.776 9.919-27 3-12.371 6.19-0.795 21.502 11 13 0.174 23.175-21.623 33.042-46 35-5.048-3.952-8.788-9.213-14-13-8.852-27.565-22.303-58.185-36-83-2.21-4.004-3.949-6.293-8-8-3.834 0.182-0.363-0.818-1-3-9.727 2.273-13.014 10.986-21 15-0.547-1.453 1.168-5.168-1-5-0.198 21.38-23.535 36.781-46 33-7.714-1.298-21.945-8.688-21-17 0.864-7.6 24.373-16.435 31-23 4.023-3.985 6.037-8.889 8-15 10.227-8.107 16.944-19.723 19-36 12.286-7.947 15.543-24.041 27-33 8.291-6.483 19.209-6.434 30-12-1.286-4.006-2.068 0.275-5 0 1.579-5.088 9.339-3.994 12-8-9.604-1.262-13.107 12.22-25 12-10.31-57.928 104.76-73.268 109-15-6.632-1.368-15.008-0.992-23-1 55.88 0.457 62.86 49.804 91 78zm-108-17.997c-2.277 12.745 9.066 14.462 19 12 0.074-4.26 1.673-6.994 1-12-4.58-4.819-15.47-5.103-20 0.003zm22 26.997c4.696 7.346 20.062 8.824 30 5 0.412-5.645 1.852-10.771 0-16-8.99-4.8-33.06-7.26-30 11zm-70 8c9.779-2.887 17.503-7.83 24-14-7.93 4.74-16.12 9.21-24 14zm-12 1c5.53 8.531 21.141-0.351 26-5-7.53 2.58-17.07 10.02-26 5zm40 6c7.446 10.108 24.104 5.066 40 6 1.111-4.889 6.748-5.252 8-10-4.01-15.795-30.902-6.414-47-8 4.51 4.37-2.73 4.86-1 12z" /><path
       id="path7"
       d="m 271,133.14 c 4.592,1.838 10.184,-0.277 16,-2 -0.024,5.31 -4.236,6.431 -3,13 2.817,-4.516 3.734,-10.932 6,-16 -0.229,-4.104 -3.132,-5.535 -5,-8 0.714,-14.453 24.907,-31.327 31,-11 -4.174,0.827 -9.287,4.917 -14,2 -1.554,3.78 -1.951,8.716 -2,14 1.117,4.55 7.08,4.254 13,4 1.478,23.035 -6.252,41.439 -29,37 -1.383,-5.144 0.844,-13.279 0,-21 -1.055,4.612 -9.562,1.771 -12,5 -6.61,-2.18 -3.38,-12.56 -1,-17 z"
       inkscape:connector-curvature="0"
       style="clip-rule:evenodd;fill:#f5e0cd;fill-rule:evenodd" /><path
       id="path11"
       d="m 313,125.14 c -5.024,-1.167 -8.718,2.553 -12,0 0.007,-4.327 2.321,-6.346 2,-11 6.192,1.825 10.324,-3.63 13,-2 -0.2,5.14 -2.64,8.03 -3,13 z"
       inkscape:connector-curvature="0"
       style="clip-rule:evenodd;fill:#f5e0cd;fill-rule:evenodd" /><path
       id="path13"
       d="m 268,149.14 c 2.403,3.597 8.918,3.082 15,3 -0.492,21.528 -7.853,61.67 -40,46 0.744,-16.256 5.623,-28.377 12,-39 -16.502,-18.84 15.388,-53.628 33,-32 -2.079,3.941 -12.264,5.042 -17,3 -3.34,3.53 -5.19,13.21 -3,19 z"
       inkscape:connector-curvature="0"
       style="clip-rule:evenodd;fill:#f5e0cd;fill-rule:evenodd" /><path
       id="path19"
       d="m 228,182.14 c 1.562,4.486 12.311,3.861 14,0 2.589,11.636 -4.719,21.291 -9,30 -6.998,14.236 -14.289,26.938 -38,21 1.168,-12.554 8.496,-27.464 19,-34 -2.082,-6.584 -4.56,-12.774 -10,-16 -0.416,-23.783 35.293,-51.764 48,-23 -5.42,3.247 -12.535,4.799 -20,6 0.27,6.94 -4.03,9.31 -4,16 z"
       inkscape:connector-curvature="0"
       style="clip-rule:evenodd;fill:#f5e0cd;fill-rule:evenodd" /><path
       id="path21"
       d="m 241,182.14 c -4.276,0.091 -7.324,2.004 -11,0 0.758,-5.909 2.188,-11.146 4,-16 4.696,1.723 12.146,0.17 15,-3 2.35,3.53 -5.41,13.8 -8,19 z"
       inkscape:connector-curvature="0"
       style="clip-rule:evenodd;fill:#f5e0cd;fill-rule:evenodd" /><path
       id="path23"
       d="m 180,212.14 c 0.385,-3.282 2.924,-4.409 4,-7 5.74,2.432 13.053,2.149 20,1 -2.88,7.19 -16.04,12.93 -24,6 z"
       inkscape:connector-curvature="0"
       style="clip-rule:evenodd;fill:#f5e0cd;fill-rule:evenodd" /><path
       id="path31"
       d="m 144,119.14 c -6.497,6.17 -14.221,11.113 -24,14 7.88,-4.79 16.07,-9.26 24,-14 z"
       inkscape:connector-curvature="0"
       style="clip-rule:evenodd;fill-rule:evenodd" /><path
       id="path35"
       d="m 134,129.14 c -4.859,4.649 -20.47,13.531 -26,5 8.93,5.02 18.47,-2.42 26,-5 z"
       inkscape:connector-curvature="0"
       style="clip-rule:evenodd;fill-rule:evenodd" /><path
       inkscape:connector-curvature="0"
       id="path3373"
       d="m 177.34348,94.516747 c -3.20469,0.143207 -6.82145,0.979355 -9.02468,3.453779 -0.96078,3.062814 -0.57106,6.821634 1.40609,9.430194 3.70163,4.24683 9.94893,3.74075 15.00387,3.19547 1.36911,-0.0937 2.73109,-0.94297 2.50458,-2.52333 0.31622,-3.07562 1.25421,-6.26131 0.7027,-9.332976 -1.93784,-3.595456 -6.93545,-4.185159 -10.59256,-4.223137 z"
       style="opacity:1;fill:#f5e0cd;fill-opacity:1;fill-rule:evenodd;stroke:#f5e0cd;stroke-width:1.42206252;stroke-linecap:round;stroke-linejoin:round;stroke-miterlimit:4;stroke-dasharray:none;stroke-dashoffset:0;stroke-opacity:1" /><path
       inkscape:connector-curvature="0"
       id="path3375"
       d="m 203.81065,110.9038 c -5.16604,-0.16858 -11.51593,1.72232 -13.31587,7.111 -0.62827,2.41435 -1.10511,5.22776 -0.13679,7.58873 4.47534,5.26248 11.96791,6.70433 18.56642,6.46308 3.60749,-0.34633 7.62173,-0.26625 10.79556,-2.20939 0.99735,-3.83304 1.18587,-7.97099 1.04828,-11.95059 -0.14032,-1.67611 -0.19187,-4.07133 -2.30716,-4.43437 -4.62712,-2.10124 -9.6082,-2.69276 -14.65044,-2.56846 z"
       style="opacity:1;fill:#f5e0cd;fill-opacity:1;fill-rule:evenodd;stroke:#f5e0cd;stroke-width:1.42206252;stroke-linecap:round;stroke-linejoin:round;stroke-miterlimit:4;stroke-dasharray:none;stroke-dashoffset:0;stroke-opacity:1" /><path
       inkscape:connector-curvature="0"
       id="path3377"
       d="m 175.96516,126.96102 c -8.87024,0.29872 -17.81666,1.41506 -26.62687,1.36721 1.44106,1.3541 1.34889,3.45602 0.1111,4.8925 -1.69873,2.52247 -2.73691,6.51014 0.14165,8.65112 4.50587,4.12538 10.98617,4.84683 16.83419,4.47285 7.15155,-0.0903 14.32248,-0.20984 21.46221,-0.24486 1.57555,-4.2552 6.65373,-5.79484 8.22616,-10.03706 -1.28067,-3.90593 -4.33566,-7.24851 -8.44906,-8.12479 -3.80402,-1.01223 -7.79083,-1.03419 -11.69938,-0.97697 z"
       style="opacity:1;fill:#f5e0cd;fill-opacity:1;fill-rule:evenodd;stroke:#f5e0cd;stroke-width:1.42206252;stroke-linecap:round;stroke-linejoin:round;stroke-miterlimit:4;stroke-dasharray:none;stroke-dashoffset:0;stroke-opacity:1" /><path
       inkscape:connector-curvature="0"
       d="m 284.98453,141.09165 c -0.081,0.42317 -0.13208,0.85212 -0.1855,1.27964 -0.0523,0.33658 -0.1056,0.67271 -0.13541,1.01216 -0.0208,0.2229 -0.0123,0.44706 -0.0287,0.67005 -0.0334,0.26919 -0.0968,0.5328 -0.13193,0.80198 -0.0248,0.23293 -0.0661,0.46412 -0.10706,0.69473 -0.0555,0.24625 -0.0818,0.49683 -0.0966,0.74836 -0.0124,0.14505 -0.0385,0.28838 -0.0597,0.43228 0,0 -1.18442,0.58238 -1.18442,0.58238 l 0,0 c 0.0198,-0.14163 0.0449,-0.28231 0.0676,-0.4235 0.0138,-0.25612 0.0324,-0.51286 0.0888,-0.76379 0.0462,-0.2274 0.0787,-0.45885 0.1121,-0.68813 0.0329,-0.2681 0.0879,-0.5314 0.13144,-0.79725 0.0267,-0.22232 0.007,-0.44729 0.031,-0.67023 0.0309,-0.34287 0.0841,-0.6826 0.14387,-1.02155 0.0534,-0.42762 0.11357,-0.85432 0.168,-1.28175 0,0 1.18657,-0.57538 1.18657,-0.57538 z"
       id="path4222"
       style="fill:#000000;fill-opacity:1;fill-rule:nonzero;stroke:none;stroke-width:1px;stroke-linecap:butt;stroke-linejoin:miter;stroke-opacity:1" /><path
       inkscape:connector-curvature="0"
       id="path4224"
       d="m 284.58286,131.84273 c -2.55244,0.73151 -5.10914,1.57891 -7.7559,1.85553 -1.74455,-0.003 -3.55171,0.22299 -5.22529,-0.37412 -0.26677,-0.13434 -0.666,-0.24663 -0.77751,0.13699 -1.62311,3.24256 -2.74143,6.82366 -2.7575,10.47434 -0.0166,2.21794 0.83306,4.68949 2.91009,5.76776 0.33408,0.11227 0.66402,0.43706 1.01776,0.41714 0.98322,-1.04914 2.4214,-1.42661 3.80288,-1.60468 2.09039,-0.37775 4.29905,-0.29488 6.29265,-1.10537 0.36646,-0.21143 0.85608,-0.39652 1.06168,-0.75572 0.34074,-2.186 0.52447,-4.39594 0.83381,-6.58241 0.54531,-2.3915 2.08788,-4.41853 2.76323,-6.76625 0.11937,-0.69679 0.38907,-1.50037 0.14495,-2.16087 -0.77028,0.23256 -1.54057,0.46511 -2.31085,0.69766 z"
       style="opacity:1;fill:#f2f2f2;fill-opacity:1;fill-rule:evenodd;stroke:none;stroke-width:0.35551563;stroke-linecap:round;stroke-linejoin:round;stroke-miterlimit:4;stroke-dasharray:none;stroke-dashoffset:0;stroke-opacity:1" /><path
       inkscape:connector-curvature="0"
       id="path4226"
       d="m 249.024,163.21317 c -1.04058,0.77541 -2.06819,1.59099 -3.27765,2.09077 -3.59999,1.58683 -7.75322,1.97876 -11.5554,0.90282 -0.39357,-0.16182 -0.33527,0.46398 -0.48679,0.676 -1.73029,4.83056 -3.03557,9.83104 -3.67038,14.92676 -0.0667,0.62734 0.73458,0.67711 1.14622,0.87716 2.3083,0.82086 4.74748,0.0863 7.07473,-0.22602 0.85034,-0.18717 1.739,-0.13719 2.58269,-0.33468 0.61221,-0.40114 0.76425,-1.2203 1.18998,-1.78637 2.3616,-4.19521 5.18761,-8.18008 6.84315,-12.73353 0.47107,-1.35373 0.8845,-2.92957 0.26334,-4.30073 -0.0289,-0.0345 -0.0523,-0.10587 -0.10989,-0.0922 z"
       style="opacity:1;fill:#f2f2f2;fill-opacity:1;fill-rule:evenodd;stroke:none;stroke-width:4;stroke-linecap:round;stroke-linejoin:round;stroke-miterlimit:4;stroke-dasharray:none;stroke-dashoffset:0;stroke-opacity:1" /><path
       inkscape:connector-curvature="0"
       id="path4228"
       d="m 314.93956,111.86212 c -3.12299,0.39487 -5.78931,2.64412 -9.02488,2.53349 -0.98167,0.0608 -2.01813,-0.0131 -2.93488,-0.22472 0.0556,2.43416 -0.55381,4.78514 -1.3158,7.07568 -0.25341,1.253 -0.81966,2.57912 -0.58781,3.86094 1.58131,1.53876 4.00885,0.76824 5.90598,0.41345 1.95329,-0.48376 4.02147,-0.75289 5.99373,-0.42178 0.43512,-4.36421 2.81569,-8.32543 2.96564,-12.72913 -0.0164,-0.48567 -0.64464,-0.51829 -1.00198,-0.50793 z"
       style="opacity:1;fill:#f2f2f2;fill-opacity:1;fill-rule:evenodd;stroke:none;stroke-width:4;stroke-linecap:round;stroke-linejoin:round;stroke-miterlimit:4;stroke-dasharray:none;stroke-dashoffset:0;stroke-opacity:1" /><path
       inkscape:connector-curvature="0"
       d="m 180.27328,210.01867 c -0.005,0.22961 -0.004,0.45931 -0.004,0.68896 0.004,0.19166 -0.006,0.38407 0.007,0.57543 0.005,0.11823 0.0404,0.22799 0.0823,0.33731 0.0487,0.10566 0.0979,0.21143 0.15804,0.31111 0.0695,0.10782 0.13563,0.21755 0.19762,0.32986 0.0653,0.10107 0.10043,0.21642 0.14483,0.3272 0.0403,0.10536 0.0845,0.20865 0.13335,0.31032 0.0532,0.11946 0.12413,0.22994 0.19983,0.33619 0.0626,0.0982 0.15772,0.15682 0.25516,0.21443 0.10596,0.07 0.21625,0.13291 0.32539,0.19767 0.0975,0.0505 0.19137,0.10843 0.2943,0.14738 0.0846,0.041 0.17637,0.062 0.26607,0.0884 0.0152,0.006 0.0304,0.0125 0.0456,0.0187 0,0 -0.54784,0.36854 -0.54784,0.36854 l 0,0 c -0.0144,-0.005 -0.0287,-0.01 -0.0431,-0.0148 -0.0911,-0.0278 -0.18357,-0.0515 -0.26939,-0.0941 -0.10254,-0.0456 -0.19982,-0.10178 -0.29769,-0.15646 -0.1096,-0.0647 -0.21931,-0.12928 -0.32713,-0.19694 -0.10409,-0.063 -0.1999,-0.1353 -0.26747,-0.23889 -0.0775,-0.10958 -0.15121,-0.22269 -0.20692,-0.34517 -0.0489,-0.10309 -0.0958,-0.20678 -0.13544,-0.31385 -0.0438,-0.10827 -0.0765,-0.22176 -0.14015,-0.3209 -0.0608,-0.11192 -0.12752,-0.22037 -0.19719,-0.32698 -0.062,-0.103 -0.11186,-0.21244 -0.16289,-0.32116 -0.0459,-0.11472 -0.0856,-0.23044 -0.0904,-0.35529 -0.0153,-0.1936 0.002,-0.3886 -0.004,-0.58261 3.6e-4,-0.22842 0.002,-0.45691 -0.004,-0.68529 0,0 0.58698,-0.29908 0.58698,-0.29908 z"
       id="path4230"
       style="fill:#000000;fill-opacity:1;fill-rule:nonzero;stroke:none;stroke-width:1px;stroke-linecap:butt;stroke-linejoin:miter;stroke-opacity:1" /><path
       inkscape:connector-curvature="0"
       id="path4232"
       d="m 184.00334,205.13515 c -0.22737,0.29506 -0.34761,0.68925 -0.57147,0.99763 -0.96178,1.49559 -2.37863,2.69863 -3.05391,4.37277 -0.23435,0.5022 -0.13501,1.09343 0.17544,1.53932 0.2608,0.36227 0.28941,0.90106 0.7282,1.1182 1.50455,0.98965 3.21522,1.65821 4.99396,1.94325 1.4062,0.26756 2.84743,0.22053 4.26556,0.0901 3.90539,-0.46465 7.65346,-2.19755 10.53643,-4.87239 1.2312,-1.17171 2.31075,-2.55333 2.93474,-4.14458 -0.0794,-0.14141 -0.311,0.01 -0.44577,-0.009 -2.95946,0.45858 -5.94519,0.79641 -8.94449,0.77225 -3.52855,0.0285 -7.09796,-0.43868 -10.39346,-1.74496 -0.0741,-0.0211 -0.14737,-0.0592 -0.22523,-0.0627 z"
       style="opacity:1;fill:#f2f2f2;fill-opacity:1;fill-rule:evenodd;stroke:none;stroke-width:4;stroke-linecap:round;stroke-linejoin:round;stroke-miterlimit:4;stroke-dasharray:none;stroke-dashoffset:0;stroke-opacity:1" /></g></svg>