<?xml version="1.0" encoding="UTF-8"?>
<svg xmlns:rdf="http://www.w3.org/1999/02/22-rdf-syntax-ns#" xmlns="http://www.w3.org/2000/svg" xmlns:cc="http://web.resource.org/cc/" xmlns:dc="http://purl.org/dc/elements/1.1/" xmlns:svg="http://www.w3.org/2000/svg" xmlns:inkscape="http://www.inkscape.org/namespaces/inkscape" xmlns:sodipodi="http://sodipodi.sourceforge.net/DTD/sodipodi-0.dtd" xmlns:ns1="http://sozi.baierouge.fr" xmlns:xlink="http://www.w3.org/1999/xlink" viewBox="0 0 468 376" version="1.0">
  <g transform="translate(0 376) scale(.156 -.156)">
    <path d="m2154 2330c-7-33-13-35-63-20-39 11-53 6-44-16 3-9 13-13 27-9 16 5 17 4 7-4-16-10-25-45-10-35 5 3 6 10 3 16-4 6-3 8 3 5 6-4 9-18 8-32-2-14 2-28 7-32 7-3 8-1 4 5-4 7-3 12 1 12 5 0 14-9 21-20 10-17 10-23-3-36-14-14-19-29-16-46 0-5-5-7-11-5-7 1-12-5-10-13s0-12-4-7c-4 4-22-6-39-23s-62-43-99-59c-84-35-160-87-150-103 4-7 3-8-4-4s-24-4-38-18c-54-49-247-83-393-69-52 5-114 6-138 3-24-4-43-3-43 1s-12 6-26 4c-14-1-46 3-69 11-24 7-73 13-109 13s-70 2-75 5c-4 3-44 5-87 5-44 0-90 0-104 1-20 0-22-2-10-11 12-8 11-9-7-4-31 9-191-13-227-32-41-21-67-44-60-54 3-5-1-6-8-4-17 7-90-104-84-128 2-9 0-15-5-11-10 6-32-43-24-56 3-5 1-11-5-15-5-3-10-15-10-26 0-17 3-18 21-8 14 7 18 14 11 18s-8 12-2 21c8 13 10 12 10-2 0-10 4-18 10-18 5 0 8 6 6 13-1 6-1 9 1 5 3-5 11-8 19-8 9 0 12 5 9 10-3 6-3 16 2 23 4 6 8 17 8 22 0 6 8 9 18 7 11-2 15 2 11 11-3 8 2 17 11 21 11 4 14 2 8-6-4-7-8-21-8-32-2-16 0-17 9-3 37 53 37 53 32 35-5-19 16-42 29-30 5 4 5 1 1-6-6-11-11-11-24 0s-15 10-9-5c4-10 3-16-2-12-5 3-12 1-16-5-3-5 0-10 7-10s1-8-12-17c-14-9-28-22-32-27-5-7-8-7-8 2 0 18-45 15-61-4-12-15-11-16 11-9 23 7 24 7 10-10s-13-17 7-7c27 15 46 15 38 1-4-6-10-8-13-5s-11 1-19-5c-10-9-17-8-28 1-12 10-18 10-30 0-17-14-3-40 22-40 8 0 11-5 8-11-4-6-10-8-13-5s-11 1-18-5c-10-8-11-16-3-30 6-13 6-19-1-19-5 0-10 7-10 16s-5 12-12 8-2 5 12 21c17 19 20 26 9 22-9-3-16 0-16 6 0 7-1 21-2 32-2 18-3 17-13-5-6-14-12-42-14-62-1-20-8-47-15-60s-11-52-10-93c3-86 2-157-4-344-4-128-3-142 11-137 9 3-5-13-30-36-40-38-47-49-50-90-2-25 1-52 6-60 8-10 9-10 5 2-2 8 6 22 17 32 21 17 21 17-4 11-24-6-24-6-9 18 9 13 25 25 35 26 12 2 10-1-6-8-22-9-23-12-8-20 10-5 14-17 11-29-3-11-10-17-15-14-6 4-8-2-6-12 2-11-3-24-12-31-12-10-13-12-1-13 8 0 25 9 37 21l22 21-16-36c-14-29-22-36-40-33s-20 2-11-9c6-8 9-14 5-14s0-13 8-28c8-16 13-37 11-48-2-10-4-23-4-27-1-5-7-5-13-2-7 4-6 0 3-7 12-9 16-25 13-53-2-23 2-43 9-48s3-6-10-2c-26 7-28 3-12-27 11-20 13-20 24-5 10 15 13 14 27-3 14-16 14-19 2-24-8-3-14 0-14 6s-3 8-7 5c-3-4 4-17 16-28 29-27 91-30 114-7 17 17 24 54 9 44-4-2-14 5-22 17-12 21-12 21 6 7 19-14 19-14 0 8-11 12-25 22-32 22-17 0-23 22-26 112-2 42-6 74-10 71-5-2-8 0-8 6 0 5 4 12 9 15 4 3 11 19 15 37 5 25 9 29 26 24s19-3 15 22c-4 19 1 36 16 53 11 14 17 18 13 10-7-13-6-13 11 0 17 14 18 13 13-5-3-11 1-26 9-33 7-7 10-19 6-25-4-7 1-6 10 2 11 8 17 26 16 45-3 48 11 99 35 125 11 13 14 20 6 16-8-5 16 22 53 59 60 59 66 70 55 84-11 15-11 15 4 4 11-9 18-10 23-2 3 5 2 10-4 10s-8 7-4 15c3 10 0 15-8 13-7-2-13 2-14 9 0 6-3 15-7 19-11 11-10 24 3 24 5 0 7-4 4-10-3-5-1-10 5-10 7 0 10-6 7-13-3-8 1-14 8-14s11 6 8 13c-2 7 0 21 6 31 9 15 10 14 7-10-3-16 0-27 7-27s6-4-3-10c-8-5-11-12-7-16 10-10 39 17 33 31-2 7 4 12 17 11 17-1 23-8 25-34 2-18-1-39-6-45-6-7-16-41-23-77-6-36-25-91-40-122-35-69-28-92 59-206 38-49 44-54 54-40 5 8 6 2 2-16-4-15-3-31 2-35 15-11 51-65 59-90 7-23 10-23 84-18 96 7 111 13 111 44 0 18-4 24-15 19-8-3-15 0-15 6s-6 5-17-3c-11-10-14-10-9-1 5 8 1 12-12 12-11 0-32 10-48 22-23 19-27 20-21 5 4-11 3-16-3-12-6 3-10 12-10 18 0 7-5 19-10 27-7 12-13 11-34-9-24-23-25-23-19-2 3 11 9 18 14 16 4-3 7 4 6 14-1 18-3 19-17 6-9-8-19-12-23-9-8 8 3 35 12 30 4-3 7 7 8 22 0 15-1 19-4 9-2-9-9-17-14-17-12 0-11 7 1 30 6 12 7 21 0 25-6 4-6 15 0 30 5 14 7 25 4 25-2 0 0 8 5 18 6 11 12 30 15 43 2 13 8 33 12 43 5 12 4 17-3 13-5-3-10 0-10 7 0 8 5 12 11 10 13-4 90 105 81 114-3 4-9 2-13-3-4-6-12-11-17-12-9-1-10 12-6 61 1 5 8 3 16-4 8-6 20-8 26-4 8 4 9 3 5-5-4-6-17-9-29-6-16 4-14 1 6-10 32-18 37-17 40 13 0 11 5 18 9 16 5-3 5-11 2-17-5-9-3-9 6 0 7 7 14 23 15 35 1 13 7 22 13 21 17-4 21 35 5 49-12 10-18 8-34-12-17-24-18-24-13-3 4 12 19 26 35 32 21 7 29 16 28 33 0 23 0 23-10-2l-10-25-13 23c-6 12-15 19-19 16-6-6-12 36-8 59 3 17-15 4-34-25-20-32-59-49-48-21 3 8 12 12 19 9 8-3 14-2 15 2 0 4 2 16 4 26s-3 29-11 41c-10 16-12 25-5 30 6 3 11 14 10 23 0 11-3 12-6 5-2-7-9-13-14-13-6 0-8 4-5 9 4 5 0 12-6 14-7 3-3 6 9 6 21 1 21 3 7 29-20 39-18 47 23 92 27 31 33 44 25 52-9 9-12 8-12-4 0-9-5-20-12-24s-8-3-4 4 2 12-4 12c-7 0-10-6-7-14 8-20-13-37-28-23-10 10-6 19 23 45 31 29 37 31 45 17 7-14 12-12 33 16 13 18 24 28 24 23 0-6-5-15-12-22s-8-12-3-12-2-11-15-25-19-25-13-25 16 7 23 15 16 12 21 9 9 0 9 7 2 10 5 7c3-2-4-22-15-43-11-22-20-50-20-63 0-21-2-22-15-12-13 11-13 15 0 33 21 29 20 54 0 37-11-9-15-9-15-1 0 7-4 10-8 7-17-10-1-83 22-98 15-10 17-100 2-91-6 3-5 0 2-8 11-12 15-11 27 4 11 16 13 14 19-20 4-21 9-57 12-80 4-24 10-40 15-37s6 10 3 16c-5 7-2 8 5 4 7-5 10-15 6-25-5-13-4-13 6-4 10 10 10 18 1 38-7 15-8 25-2 25 5 0 12-12 16-28 13-59 14-61 42-58 34 4 51 46 51 130 1 79 13 64 17-21 2-44-1-62-7-53-7 12-9 10-9-8 0-13 4-20 10-17 5 3 10 1 10-5 0-7-7-9-16-6-12 4-15 2-11-9 4-8 2-17-3-20-19-12-9-22 21-22 17 0 34-4 37-9 8-12 22-12 40-1 8 6 12 4 10-5s8-13 29-13c17 0 29-3 27-6-2-4 3-9 11-13 9-3 15 0 15 8 0 17 42 15 57-4 9-10 12-11 13-2 0 6 7 12 16 12 8 0 13 4 10 8-2 4-1 14 5 22 7 12 9 11 9-5 0-24 38-32 47-9 3 8 9 14 15 14 5 0 7-4 3-9-3-5-1-12 5-16 6-3 13 0 16 8 6 17 55 18 66 2 5-6 8-3 8 6 0 12 8 15 30 13 17-2 30 0 30 5s14 12 30 16c17 4 30 11 30 16s5 9 10 9c6 0 10-7 10-16 0-8 5-12 10-9 7 5 8 11 1 19-6 7-6 17-1 26 7 11 10 11 11 3 1-7 2-19 3-25 1-7-7-23-18-35-10-13-16-26-13-30 4-3 7-1 7 5 0 7 4 12 9 12 7 0 8-18 2-53 0-5-7-5-13-1-10 5-10 4-1-6 17-18 35-2 31 28-2 18 2 27 11 27 8 0 16 7 18 15 4 13 3 13-7 0s-11-13-7 0c2 8 12 13 22 12 16-3 17-1 6 12-7 9-18 13-25 9-6-3-8-3-4 2 4 4 3 14-4 22-8 11-8 17 2 26 10 10 12 9 7-5-8-21 9-34 17-13 3 8 10 15 16 15s4-7-4-16c-21-20-11-37 14-24 15 8 20 6 25-11 4-12 12-18 21-15 7 3 16 0 20-6s3-8-4-4c-6 3-13 2-16-3-6-10 11-25 29-26 6-1 19 6 29 14 19 16 19 15 2-11-13-20-14-27-4-31 7-3 3-4-8-4-15 1-20 6-16 17 5 12 3 13-10 3-8-7-18-10-21-6-4 3-7 1-7-5 0-7-8-12-17-12-16 0-16-2-3-11 12-8 10-9-7-4-22 6-41-9-23-20 5-3 10-2 10 4s7 8 15 5c17-7 14-39-5-57-12-10-12-9-1 6 8 10 9 17 3 17s-14-4-17-10c-9-14-14-79-6-78 27 3 34-3 17-15-15-11-17-18-8-33 8-13 11-15 12-5 0 12 3 12 12 3 10-10 10-15-2-22-8-5-11-10-6-10s3-6-3-14c-9-11-6-13 19-11 16 1 27-1 24-6s-10-7-15-4c-5 4-9 2-9-4s-6-9-12-7c-7 1-9 1-5-2 4-2 2-11-5-20-11-14-9-14 12 1 37 26 46 20 12-7-29-25-40-58-15-49 12 5 17 18 14 37-1 5 5 6 13 3 19-8 22-3 31 52 6 35 5 42-6 35-11-6-12-5-3 7 6 8 10 22 9 31-2 10 1 20 6 24 5 3 7 10 3 15-3 5 0 16 6 24 7 8 10 15 6 15-3 0-1 11 4 25 10 27 2 33-18 13-9-9-12-9-12 0 0 7 4 12 8 12 5 0 17 7 28 16 10 8 12 12 4 8-10-5-9 0 4 14 15 17 16 25 7 36-8 10-9 16-1 21 5 3 10 3 10-1 0-5 19 10 42 31l42 40-31-40c-26-34-45-81-58-145-2-8-4-16-5-17-2-2-4-7-5-13-1-5-4-12-5-15s-4-9-5-15c-1-5-3-11-4-12-8-11-7-67 1-62 6 4 6-1 0-13-6-10-8-23-4-29 10-13 86-14 94-1 6 9 8 9 8 0 0-7-9-17-19-23-25-13-34-13-25 1 4 8 0 8-15 0-23-13-29-23-8-16 6 2 19-11 28-29 14-32 14-37-3-72-22-45-21-41-3-48 10-4 19 2 25 17l9 22v-22c1-12 7-23 14-26 8-3 3-11-13-25-14-12-20-21-13-22 18 0 33-34 26-59-7-28-22-16-58 45-28 48-45 61-21 17 35-66 72-110 88-107 10 1 21-3 25-8 3-7 1-8-5-4-7 4-12 2-12-4s-5-8-12-4c-10 6-10 5-1-8 7-8 9-19 5-23-4-5-1-5 6-1s10 13 6 19c-3 7 2 3 10-8 9-11 14-25 12-31-5-13 19-13 31 1 4 4 2 5-4 1-8-4-13-1-13 8s5 16 11 16c5 0 7 6 3 13-6 9-4 9 7-1 18-16 34-15 20 2-9 11-6 13 16 10 24-2 26-1 12 9-9 7-33 45-53 85l-37 73-20-23-20-23 16 33c9 18 19 31 23 28 4-2 6 27 4 65-3 46-7 67-14 63-7-5-8-2-2 7 4 8 9 70 10 139s9 163 18 210c14 79 18 87 56 118 22 19 38 37 35 42-3 4 6 15 20 24 15 10 22 22 19 31-5 11-2 13 10 9 18-7 21 7 5 23-8 8-7 17 5 34 9 13 16 19 16 14s7 0 15 11c8 10 15 15 15 11s-12-19-26-32-23-29-19-35c9-14 75 55 75 79 0 9-5 22-11 28-8 8-8 13 0 18 7 4 10 1 9-7-2-7 5-12 16-11 13 1 15-2 7-10-6-6-11-16-11-22 0-5 9 3 19 18 10 16 22 29 27 29 5 1 8 11 7 22-1 12 0 15 3 9 8-18 25-16 18 2-5 11-1 14 12 9 11-3 7 2-8 12s-30 25-33 33c-4 11-2 11 9 2s17-8 30 4c9 9 16 13 16 8s-5-14-11-20c-9-9-7-12 10-10 11 1 38 19 59 41 20 22 28 34 17 26s-23-19-27-25c-5-6-8-6-8 2 0 6 5 15 11 19 6 3 9 19 7 35-3 16 0 30 6 33 7 2 7 8-1 17-11 11-13 11-13-1 0-7-3-10-6-7-8 8 14 37 28 37 6 0 8-7 5-15-4-8-2-17 2-20 13-8 21 37 9 52-5 7-7 21-4 30 6 17 5 17-8 1-16-22-27-23-20-3 4 8-1 26-10 40s-12 25-6 25 15-12 20-26c6-14 14-23 19-19 11 6 33-28 26-39-3-3 0-2 7 3 7 7 19 6 32-1 12-6 18-7 14-3s-3 17 3 27c9 16 7 24-6 37-16 15-17 15-7-4 7-15 6-23-4-32-7-7-15-9-18-4-8 12 14 72 24 66 5-3 11-1 15 5 3 5 1 10-6 10-10 0-10 3-1 12 7 7 12 16 12 22 0 5-3 6-7 3-8-8-33 12-33 26 0 6 6 3 13-7 12-17 14-17 20-3 4 11-1 21-14 27-11 6-17 16-13 21 4 7 12 5 22-4 10-8 25-13 35-12 13 3 17-1 13-11-3-9-1-12 5-9 5 4 7 15 4 26-4 11-3 18 2 17 5-2 31 11 58 29 44 28 58 32 120 32h95c14 1 41 15 60 32s27 26 18 19c-15-11-18-10-19 6 0 11-3 14-6 6-2-7-13-17-23-22-18-9-18-8-5 17 11 21 12 29 2 35-13 9-13 9 26 14 18 2 25-1 21-8-5-8-1-9 10-5 14 6 17 3 12-10-4-11 2-8 13 7 35 44 32 56-13 75-122 51-167 78-201 120-29 34-141 115-161 115-2 0-2-10 0-22 3-13 5-26 5-30 1-5 6-8 12-8s9 7 6 14c-4 10-1 13 9 9s14-13 10-27c-4-18-3-19 7-5 14 18 37 14 37-7 0-8 4-14 10-14 18 0-11-47-36-59-13-6-24-15-24-21 0-7-5-6-13 1-13 13-16 54-4 66 11 10 8 33-3 33-5 0-10-7-10-17 0-9-3-13-7-9-5 4-8 13-8 19 0 7-7 12-15 12s-15 6-15 13c0 23-28 32-42 14-12-15-13-14-2 7 10 21 9 23-5 18-9-4-15-1-13 6 2 13-6 13-35 2-13-5-18-2-18 11 0 16 2 17 10 4 6-10 10-11 10-2 0 18 16 15 60-14 21-14 44-23 49-19 16 9 13 35-4 36-24 2-29 4-44 13-7 5-36 7-65 6-91-5-110-2-183 29-40 17-77 31-83 31s-13-13-16-30zm33-4c4-7 18-18 31-25 12-7 20-16 17-21-3-6 1-7 10-4 11 5 18 0 22-15 3-11 9-21 14-21 18 0 53-52 54-80 1-19-3-26-10-20-6 5-23 11-39 14-15 3-34 10-41 16-8 7-18 9-23 6s-9 0-9 7-4 20-8 31c-6 14-5 17 6 14 8-3 13-10 12-16-2-6 3-9 11-6s17 1 20-5c4-6 13-8 21-5 21 8 8 24-13 17-9-3-14-2-9 2 9 11-41 65-60 65-8 0-2-10 13-23l27-24-24 2c-27 2-49 36-49 78 0 29 14 36 27 13zm154-47c15-8 24-7 35 2 8 6 17 10 19 7 3-3-6-10-19-18-20-10-28-10-47 4-26 18-18 22 12 5zm-195-24c-1-8-6-18-11-22-4-4-5-2-1 5s2 12-6 12c-9 0-9 3 2 10 19 12 19 13 16-5zm404 5c0-5-7-7-15-4-8 4-15 8-15 10s7 4 15 4 15-4 15-10zm-380-36c0-8-5-12-10-9-6 4-8 11-5 16 9 14 15 11 15-7zm373-54c-3-12-8-19-11-16-5 6 5 36 12 36 2 0 2-9-1-20zm172-10c-3-5 6-21 21-35 21-19 23-24 8-19-10 4-25 11-31 17-16 12-17 47-2 47 5 0 7-4 4-10zm-469-31c0-10-2-16-5-14-6 7-31-15-31-27 0-6 7-8 14-5 11 4 13 1 9-10-4-9-2-14 3-10 6 3 10-7 9-24 0-37-3-36-20 4-8 17-15 26-16 20-1-7-2-19-3-25 0-7-8-13-16-13-8-1-14-6-12-13 1-7-2-12-7-12s-12-8-14-17c-4-15-5-15-6-2 0 9 13 34 30 55 25 32 28 40 14 42-13 3-14 6-3 20 10 12 10 14 1 8-8-4-13-2-13 5s-11 2-25-11c-24-22-24-25-8-31 16-7 16-8 1-8-24-1-31 14-13 29 16 13 21 35 7 26-5-3-9 1-9 9 0 9 4 11 11 6 6-4 18-8 26-8 8-1 24-4 34-9 15-5 17-4 11 6-6 9-4 11 5 5s12-4 8 7c-4 8-1 15 6 15 6 0 12-8 12-18zm479-26c19-9 36-21 37-27 0-6 2-15 3-21 2-5 3-16 4-24 1-7 7-11 16-7 9 3 15 0 15-9 0-8-5-15-11-15-5 0-7-5-3-11 4-8 9-7 15 2 6 10 9 11 9 2 0-7-1-16-2-19-2-3 8-12 22-21 14-8 17-12 7-9-12 4-17 2-14-6 2-7 10-12 16-10 7 1 10-2 6-8-3-5-15-10-26-10s-18 4-15 8c2 4-3 8-12 9s-26 3-36 5-21-2-23-7c-2-6 5-12 14-13 10-1 43-8 73-16l55-14-103-1c-57-1-112-6-123-11-16-9-21-7-29 15-5 14-11 25-14 25-6 0-2-23 7-37 5-7 3-21-2-30-6-10-11-14-11-9 0 6-7 1-15-10-14-18-14-18-15 6-1 14-3 33-5 43-2 9 2 17 8 17 8 0 8 3 2 8-5 4-11 13-13 21-3 12-1 12 13 1 13-11 15-11 13-1-2 7 8 15 21 17 16 3 22 0 18-9-3-8 0-14 7-14s13 8 13 18c1 10-3 18-10 16-6-1-13 6-15 16-2 9 2 17 8 17s8-5 4-12c-4-6-3-8 4-4 6 3 13 2 17-4 9-15 28-12 22 4-4 11 2 13 26 9 26-4 29-3 19 10-10 12-10 15 4 13 9 0 18 5 20 12 1 8 0 8-3 1-4-8-8-8-13 2-5 7-17 14-29 16-16 2-19-2-16-19 3-16 2-19-7-10-12 12-20 65-8 57 4-3 13 1 19 9 17 20-10 38-46 31l-28-6 25 15c32 20 42 20 85-1zm-383-44c-12-13-18-15-23-7-10 16 9 38 26 32 11-5 10-9-3-25zm-69 4c-4-10-2-14 5-9 6 3 13 2 16-3 4-5-1-8-9-7-20 3-28 13-20 25 10 17 15 13 8-6zm137 3c0-3-11-17-25-32s-25-22-25-16 10 20 22 32c22 20 28 24 28 16zm-243-24c-20-22-48-25-40-4 4 9 8 10 13 2s11-6 20 5c7 8 15 15 18 15s-2-8-11-18zm394-5c-6-8-8-16-5-19s1-9-4-12c-6-3-9 0-8 6 2 16 15 38 23 38 3 0 0-6-6-13zm73-12c-4-8-11-12-16-9-6 4-5 10 3 15 19 12 19 11 13-6zm200-16c-3-5-10-7-15-3-5 3-7 10-3 15 3 5 10 7 15 3 5-3 7-10 3-15zm-521-9c3-11 1-20-4-20s-9 5-9 11c0 5-4 7-10 4s-7 1-4 9c8 22 21 20 27-4zm97 10c0-5-7-10-15-10s-15 5-15 10c0 6 7 10 15 10s15-4 15-10zm184-17c-4-21-3-24 5-13 8 12 10 11 8-8-1-19-3-20-15-8-9 8-11 22-7 35 9 30 16 26 9-6zm-494-8c14-18 13-19-1-8-9 7-19 10-23 6s-4 1 0 10c3 10 7 17 8 15s8-12 16-23zm260 3c0-6-6-5-15 2-8 7-15 14-15 16s7 1 15-2c8-4 15-11 15-16zm297 7c0-8-4-12-9-9s-6 10-3 15c9 13 12 11 12-6zm-464-10c-3-9-8-14-10-11-3 3-2 9 2 15 9 16 15 13 8-4zm51 3c13-41 15-68 6-68-5 0-10 9-10 21 0 11-4 17-10 14-5-3-10-1-10 4 0 6 5 11 12 11 6 0 3 7-8 15-17 13-18 14-1 15 10 0 19-6 21-12zm231-8c3-5-1-10-10-10s-13 5-10 10c3 6 8 10 10 10s7-4 10-10zm-80-10c4-6 3-10-2-9-21 4-25-2-9-14s16-13-2-13c-20 0-23 11-9 34 10 15 14 15 22 2zm-379-12c4-7 4-10-1-6-4 4-14 0-22-10-13-15-13-15-3 6 12 25 16 27 26 10zm31-3c0-8-4-15-9-15-10 0-11 14-1 23 9 10 10 9 10-8zm160-10c-1-14-5-24-9-23-4 2-13-6-21-16-8-11-17-15-20-9-4 6 2 18 13 28s17 22 13 28c-3 6-1 7 5 3 7-4 12-2 12 3 0 6 2 11 4 11 3 0 4-11 3-25zm137 9c3-8 2-12-4-9s-10 1-10-4c0-6 4-11 8-11 12 0 33-48 24-53-14-8-37 29-38 61-1 34 10 43 20 16zm-244-8c0-2-7-7-16-10-8-3-12-2-9 4 6 10 25 14 25 6zm205-19c2-22 18-72 28-87 6-8 1-6-11 5s-23 30-25 42-6 25-9 29c-4 3-4 12-1 20 6 16 17 10 18-9zm-169-5c1-7 0-8-3-2-2 5-9 8-14 4-5-3-9 0-9 6 0 15 23 7 26-8zm94-18c0-8-5-12-10-9-6 4-8 11-5 16 9 14 15 11 15-7zm-330-4c0-5-5-10-11-10-5 0-7 5-4 10 3 6 8 10 11 10 2 0 4-4 4-10zm70 6c0-2-8-10-17-17-16-13-17-12-4 4s21 21 21 13zm306-15c1-6 0-7-3-1-2 5-9 8-13 5-5-3-11-1-14 4-4 5 2 8 11 7 9-2 18-8 19-15zm190 1c1-7 0-8-2-3-3 6-12 7-21 4-11-4-14-3-9 6 9 14 29 10 32-7zm-396 4c0-2-8-10-17-17-16-13-17-12-4 4s21 21 21 13zm390-46c0-6-18 2-40 16-22 15-40 28-40 31 0 2 18-6 40-17s40-25 40-30zm-467 28c-4-7-8-16-9-20-1-5-2-11-3-14 0-3-6-2-12 1-7 5-4 14 7 26 19 22 29 25 17 7zm100-3c-3-9-8-14-10-11-3 3-2 9 2 15 9 16 15 13 8-4zm52 6c3-5 2-12-3-15s-9 1-9 9c0 17 3 19 12 6zm28-16c-3-9-8-14-10-11-3 3-2 9 2 15 9 16 15 13 8-4zm344-5c-1-11-5-20-9-20-10 0-10 4-2 24 8 22 13 20 11-4zm-287-5c0-8-4-15-10-15-5 0-10 7-10 15s5 15 10 15c6 0 10-7 10-15zm55 5c3-5 1-10-4-10-6 0-11 5-11 10 0 6 2 10 4 10 3 0 8-4 11-10zm130-20c16 0 55-39 55-54 0-8-3-7-8 0-4 6-26 23-49 38-24 14-43 31-43 37s7 3 16-5c8-9 22-16 29-16zm-168-2c-3-8-6-5-6 6-1 11 2 17 5 13 3-3 4-12 1-19zm-234-14c1-4-6-8-15-10-14-2-15 1-5 17 11 17 14 16 20-7zm97-10c0-8 5-14 11-14s9-8 7-17c-4-22-22-15-23 9-3 32-15 32-15 0 0-17-4-33-9-36-4-3-5 13-1 37 5 23 5 46 2 52-3 5 2 4 11-4 9-7 17-20 17-27zm-1077 19c-7-2-19-2-25 0-7 3-2 5 12 5s19-2 13-5zm1122-3c3-5 1-10-4-10-6 0-11 5-11 10 0 6 2 10 4 10 3 0 8-4 11-10zm151-24c4-34 14-48 14-18 0 11 4 23 8 26s7-8 6-23c-2-34 10-56 25-47 7 5 6 14-4 30-14 21-12 56 4 56 8-1 44-31 59-52 22-28-13-16-37 12-15 18-20 21-21 9 0-8 9-25 20-37 23-25 27-40 5-22-12 10-15 10-15-4 0-23-31-20-37 4-3 11-9 18-13 15-8-5-16 10-31 58-5 19-5 27 3 25 6-2 12-17 14-32zm-76 6c0-11-3-12-13-3-8 6-18 7-22 3-5-4-5-2-2 4 9 16 37 13 37-4zm300 3c0-8-2-15-4-15s-6 7-10 15c-3 8-1 15 4 15 6 0 10-7 10-15zm-2040 1c0-2-8-10-17-17-16-13-17-12-4 4s21 21 21 13zm48-32c-2-1-15-4-30-6s-30-7-34-11-12-7-18-7 2 9 17 19c16 10 38 16 48 14 11-3 18-7 17-9zm1747-14c-4-6-16-8-28-4-22 6-22 6-2-9 11-8 24-13 29-10s7 0 4-7c-6-20-28-24-28-5 0 9-3 14-7 12-5-3-14 1-21 9-8 9-9 14-2 14 6 0 9 4 6 8-3 5 1 9 9 9s15-4 15-9 5-6 10-3c6 4 7 12 4 18-5 9-4 9 6 0 7-6 9-16 5-23zm-1773-15c-18-8-31-19-30-26 2-6-5-13-14-14-17-3-17-2 0 20 17 24 32 32 62 33 8 1 0-5-18-13zm-67-5c4-6 3-9-2-8-4 1-21-6-36-16s-30-16-34-12c-3 3-2 6 4 6 5 0 20 9 33 20 27 23 27 23 35 10zm131 1c-10-4-24-20-32-37l-13-29 6 30c7 32 19 45 43 44 10 0 9-3-4-8zm1564-6c0-9-9-15-22-15-22 1-23 1-4 15 25 19 26 19 26 0zm67-1c0-7-5-12-11-11s-10-4-8-10c1-7-1-12-5-12-26 4-53-2-48-12 4-6 19-7 36-4 21 5 29 3 29-7 0-19-57-21-64-2-4 12-10 12-26 4-15-8-18-8-14 3 2 7 24 20 47 29s41 20 40 25 4 10 11 10 13-6 13-13zm-535-9c0-5-5-10-11-11-8-2-7-1 0 3 8 4 7 8-2 15-11 8-11 9-1 6 8-2 14-8 14-13zm806-2c10-10 10-13-1-13-8 0-20 6-26 13-8 10-7 14 2 14 7 0 18-6 25-14zm-724-1c3-5-1-9-9-9s-12 4-9 9c3 4 7 8 9 8s6-4 9-8zm573-17c6-14 7-23 2-19-13 8-31 44-22 44 4 0 13-11 20-25zm-537 5c-12-8-12-10-1-10 8 0 12-3 8-6-9-9-28 6-22 17 4 5 12 9 18 9 7 0 6-4-3-10zm282 3c-6-3-10-9-6-14 3-5 1-9-4-9-21 0-19 26 2 27 11 0 15-1 8-4zm168 3c0-2-7-7-16-10-8-3-12-2-9 4 6 10 25 14 25 6zm211-13c13-16 12-17-3-4-10 7-18 15-18 17 0 8 8 3 21-13zm-51-6c0-8-7-14-15-14-11 0-12 4-4 14 6 7 13 13 15 13s4-6 4-13zm-2043-12c0-8-4-12-9-9s-6 10-3 15c9 13 12 11 12-6zm627 7c3-5-1-9-9-9s-12 4-9 9c3 4 7 8 9 8s6-4 9-8zm56-2c18-12 2-12-25 0-13 6-15 9-5 9 8 0 22-4 30-9zm-530-15c-7-8-18-15-24-15s-2 7 8 15c25 19 32 19 16 0zm250 0c-14-8-35-14-47-15-12 0-27-8-33-17-7-11-10-12-7-4 3 16 15 23 62 39 44 14 54 13 25-3zm970 11c0-2-7-7-16-10-8-3-12-2-9 4 6 10 25 14 25 6zm87-3c-4-3-2-12 4-19 8-9 4-15-13-24-21-10-21-10-5 3 12 10 14 17 7 22-10 6-5 25 7 25 4 0 3-3 0-7zm419-29c-3-8 1-14 10-14s12 5 8 13-4 9 3 2c18-19 33-64 23-70-6-4-10 3-10 15 0 25-27 38-43 20-9-10-8-11 8-6s21 1 21-13c0-11-8-22-18-24-12-4-18 0-18 11 0 15-2 15-10 2s-10-13-10 1c0 9 6 22 14 28 15 12 16 28 3 48-6 9-3 11 8 7 9-4 14-13 11-20zm230-5c4-23 3-23-11-5-18 24-19 39-3 34 6-2 13-15 14-29zm-1816 1c-6-11-8-26-4-33 4-6 4-9-1-5-4 4-15 2-24-5-14-10-14-10-3 5 19 23 8 36-25 32l-28-4 30 10c20 6 31 6 36-1 4-7 9-5 12 5 4 9 9 16 12 16s1-9-5-20zm-93-12c-3-8-6-5-6 6-1 11 2 17 5 13 3-3 4-12 1-19zm1206 1c-8-8-13-7-18 2-5 8-4 10 3 5 7-4 12-2 12 5s3 9 7 6c4-4 2-12-4-18zm-1404-25c-14-13-16-13-16 1 0 8 4 15 9 15s6 6 2 13c-5 9-4 9 7-1s11-15-2-28zm115 27c3-5-1-11-9-14-9-4-12-1-8 9 6 16 10 17 17 5zm406-1c0-5-7-10-16-10s-12-5-8-12 3-8-4-4c-17 10-15 24 6 29 9 3 18 5 20 6 1 0 2-3 2-9zm-377-26c-10-15-19-22-21-15s4 19 14 26c26 20 27 19 7-11zm294 12c0-8-8-11-20-8-14 4-16 7-5 13 19 12 25 11 25-5zm210 8c-3-3-12-4-19-1-8 3-5 6 6 6 11 1 17-2 13-5zm1156-6c-6-11-31-10-37 1-3 5 5 8 18 7 13 0 22-4 19-8zm203-12c0-12 2-25 5-31 2-5 0-11-6-13-5-1-12 8-13 20-5 30-17 42-36 35-16-6-12-38 4-34 4 1 9-2 9-7 1-6-6-11-15-12s-13 0-10 3-1 18-9 33l-14 27h42c36 0 42-3 43-21zm-1814-10c5 3 2-8-7-26-12-23-13-35-6-44 8-10 7-17-4-26-9-7-18-10-22-6-3 3-2 6 3 6 6 0 10 12 10 28 1 15 5 36 9 46 6 13 5 17-2 13s-10 0-8 10c5 28 7 29 12 10 2-9 9-14 15-11zm348 4c-8-5-19-10-25-10-5 0-3 5 5 10s20 10 25 10c6 0 3-5-5-10zm-227-15c-3-9-8-14-10-11-3 3-2 9 2 15 9 16 15 13 8-4zm84 9c-3-3-12-4-19-1-8 3-5 6 6 6 11 1 17-2 13-5zm80 0c-3-3-12-4-19-1-8 3-5 6 6 6 11 1 17-2 13-5zm298-4c3-6-1-7-9-4-18 7-21 14-7 14 6 0 13-4 16-10zm735 6c0-2-8-10-17-17-16-13-17-12-4 4s21 21 21 13zm148-27c-3-8-7-3-11 10-4 17-3 21 5 13 5-5 8-16 6-23zm137-10c0-8 4-17 10-21 5-4 6-10 2-14-9-10-30 13-46 50-12 29-12 29 11 14 13-9 23-22 23-29zm-1830 21c-3-5-1-10 6-10 16 0 3-13-16-16-8-1-18 3-22 8-3 6-1 8 4 5 6-4 13 0 17 8 3 8 8 15 11 15 4 0 3-4 0-10zm1595 0c0-5-5-10-11-10-5 0-7 5-4 10 3 6 8 10 11 10 2 0 4-4 4-10zm-1150-15c0-2-6-5-13-8-8-3-14 1-14 8s6 11 14 8c7-3 13-6 13-8zm75 5c3-6-1-13-10-16-15-6-14-10 7-28 13-12 18-17 11-12-8 5-13 4-14-3-1-6-2-15-3-21 0-5-8-15-17-22-22-18-30-43-17-56 8-8 18-2 37 19 14 16 30 29 36 29 7 0 7-3 0-8-6-4-18-19-28-34-10-16-26-28-36-28s-22-10-28-22c-8-18-9-12-8 30 2 29 8 59 15 67 10 12 10 15-1 15-8 0-4 6 8 15 15 11 20 23 17 40-3 16 0 25 8 26 7 1 0 5-17 9l-30 8 32 1c17 0 35-4 38-9zm352 4c-3-3-12-4-19-1-8 3-5 6 6 6 11 1 17-2 13-5zm-690-21c0-7-3-13-7-13-3 0-15-9-27-19-27-26-83-54-83-42 0 5 10 13 22 16 21 7 68 52 68 65 0 4 6 7 13 7 8 0 14-6 14-14zm653 13c0-3-4-8-10-11-5-3-10-1-10 4 0 6 5 11 10 11 6 0 10-2 10-4zm800 0c0-3-4-8-10-11-5-3-10-1-10 4 0 6 5 11 10 11 6 0 10-2 10-4zm100-6c0-5-4-10-10-10-5 0-10 5-10 10 0 6 5 10 10 10 6 0 10-4 10-10zm-1113-7c-9-2-15-9-12-14s-1-6-10-2c-13 5-14 7-3 14 7 5 20 8 28 8 11-1 10-3-3-6zm933-3c0-5-5-10-11-10-5 0-7 5-4 10 3 6 8 10 11 10 2 0 4-4 4-10zm-1296-8c3-5-1-9-9-9s-12 4-9 9c3 4 7 8 9 8s6-4 9-8zm79-7c-3-9-8-14-10-11-3 3-2 9 2 15 9 16 15 13 8-4zm1147 2c0-2-10-12-22-23l-23-19 19 23c18 21 26 27 26 19zm153-12c-3-9-8-14-10-11-3 3-2 9 2 15 9 16 15 13 8-4zm107 6c0-6-4-13-10-16-5-3-10 1-10 9 0 9 5 16 10 16 6 0 10-4 10-9zm186-15c2-20-1-22-11-13-9 8-10 16-3 25 13 16 13 16 14-12zm-116-30c0-17 2-18 10-6 7 12 9 10 7-7-1-22-1-22-22-3-24 23-33 69-9 50 8-7 14-22 14-34zm155 34c3-5 1-10-4-10-6 0-11 5-11 10 0 6 2 10 4 10 3 0 8-4 11-10zm80 0c3-5 1-10-4-10-6 0-11 5-11 10 0 6 2 10 4 10 3 0 8-4 11-10zm-1252-17c-5-12-3-14 8-8 8 4 11 5 7 0-4-4-3-14 4-22 9-11 7-12-7-7-11 5-16 4-12-3 3-5 0-10-8-10-11 0-12 4-4 14 8 9 8 17 0 27-11 13-10 16 16 25 1 1-1-6-4-16zm59-5c-7-7-12-8-12-2 0 14 12 26 19 19 2-3-1-11-7-17zm526-3c-3-3-9 2-12 12-6 14-5 15 5 6 7-7 10-15 7-18zm138 10c-1-8-8-21-16-28-10-10-11-9-4 3 5 8 9 18 10 23 3 14 4 17 8 17 2 0 3-7 2-15zm510-15c19 0 18-17-3-44-21-25-37-27-55-6-11 13-11 13 1 3 15-13 51-1 51 18 0 6-3 8-7 6-5-3-9 9-9 26-1 18 1 24 3 15 2-10 11-18 19-18zm-1866-5c-7-8-9-15-5-15 5 0-2-9-15-20-33-29-35-25-4 15 14 19 29 35 31 35 3 0 0-7-7-15zm106-13c-17-16-18-16-5 5 7 12 15 20 18 17 3-2-3-12-13-22zm390 16c4-4 14-2 23 5 14 11 14 10 2-6-9-11-18-14-23-9-13 13-49 2-41-12 3-6 2-7-2-3-18 16-12 33 10 32 13 0 27-3 31-7zm1029 2c-3-5-11-10-16-10-6 0-7 5-4 10 3 6 11 10 16 10 6 0 7-4 4-10zm40 1c3-5 0-13-6-17-7-4-9-3-5 4 3 5 0 13-6 15-9 4-10 6-1 6 6 1 14-3 18-8zm40-12c-4-12-3-19 2-16s9-3 9-14-5-18-10-16c-11 4-17 34-9 53 8 22 15 16 8-7zm182-16c-3-10-5-4-5 12 0 17 2 24 5 18 2-7 2-21 0-30zm-37-42c-8-13-10-12-11 7-1 12-2 28-3 35-5 27 8 29 15 2 5-15 4-35-1-44zm156 34c1-8-2-15-7-15s-9 10-9 22c0 23 12 17 16-7zm-906 10c0-2-10-9-22-15-22-11-22-10-4 4 21 17 26 19 26 11zm423-10c17 7 41-11 33-24-12-18-36-13-29 7 5 14 3 15-7 5-9-8-17-9-25-3-9 8-12 4-10-13 2-13-2-24-9-24-13 0-15 25-2 45 4 7 12 10 17 7 5-4 9 0 10 7 0 9 2 10 5 1 3-7 11-10 17-8zm277-11c0-8-4-12-10-9-5 3-10 13-10 21s5 12 10 9c6-3 10-13 10-21zm-1370-4c-6-11-12-20-14-20s-2 9 1 20 9 20 15 20c5 0 4-9-2-20zm1170 5c0-8-7-15-16-15-14 0-14 3-4 15 7 8 14 15 16 15s4-7 4-15zm-1570-15c-6-11-15-20-21-20s-7-6-3-12c5-10 4-10-6-1s-18 8-38-5l-25-17 17 27c19 30 48 46 39 22-3-10 0-12 10-8 9 3 18 12 21 20s8 14 11 14 1-9-5-20zm220 10c0-5-5-10-11-10-5 0-7 5-4 10 3 6 8 10 11 10 2 0 4-4 4-10zm244-15c-9-14-19-23-22-20-5 4 26 45 35 45 2 0-4-11-13-25zm71 13c4-3 2-9-3-12s-15 1-21 8c-10 11-9 14 3 12 9-1 18-5 21-8zm100 3c3-5 2-12-3-15s-9 1-9 9c0 17 3 19 12 6zm365 5c0-2-8-10-17-17-16-13-17-12-4 4s21 21 21 13zm305-12c-8-9-22-29-30-45-9-16-18-29-21-29s-2 5 2 11c3 6 0 16-7 21-11 8-11 9 2 5 10-3 22 5 33 24 9 16 22 29 27 29 6 0 3-7-6-16zm51-12c-18-16-18-16-6 6 6 13 14 21 18 18 3-4-2-14-12-24zm263 11c-6-7-17-13-23-12-7 0-6 2 2 6 6 2 10 8 8 12-3 4 1 8 9 8 11 0 12-4 4-14zm-880-9c-16-20-21-44-8-44 6 0 7-5 3-11-4-8-9-7-15 2-4 7-11 10-15 6s3-17 15-28c21-19 21-22 6-39-15-16-15-21-1-55 13-29 13-41 4-52s-13-11-19-1c-7 10-9 9-9-4 0-10 6-18 13-19 10 0 10-2 0-6-16-6-16-14-1-50 16-39 20-65 9-59-5 4-14-6-19-21-7-21-8-12-4 36 3 41 2 62-5 58-6-4-10 9-11 30-1 19-5 45-8 57-6 19-5 19 10 7 14-12 19-12 29-1 8 8 8 11 1 7s-17 0-24 8c-11 13-10 14 3 9s15-1 10 18c-3 12-5 33-5 45 0 26-18 21-19-5 0-11-2-12-6-4-3 7 1 19 7 27 9 11 9 15 1 15-6 0-16-10-21-22-7-19-9-19-9-5-1 10-5 16-10 12-11-6-8 18 8 55 8 22 10 23 12 5 1-11 1-26 0-32-3-22 23-3 51 37 15 22 31 40 34 40 4 0 0-7-7-16zm87 4c-3-22-17-39-27-33-5 4-9 1-9-6s-3-9-7-6c-3 4 4 18 17 32 27 29 29 30 26 13zm508-3c-4-8-11-15-16-15-6 0-5 6 2 15 7 8 14 15 16 15s1-7-2-15zm-117-17c-3-8-6-5-6 6-1 11 2 17 5 13 3-3 4-12 1-19zm199 10c4-7 3-8-4-4s-12 2-12-5-3-10-6-6c-6 5 3 27 11 27 2 0 7-5 11-12zm531-10c-3-8-6-5-6 6-1 11 2 17 5 13 3-3 4-12 1-19zm-1762 3c3-6-3-9-14-8-11 0-17 5-15 9 7 11 22 10 29-1zm-125-5c0-2-8-10-17-17-16-13-17-12-4 4s21 21 21 13zm173-11c-18-8-33-20-33-26 0-7-3-9-7-6-11 11 29 47 51 47 16-1 14-4-11-15zm524 0c0-8-4-12-9-9s-6 10-3 15c9 13 12 11 12-6zm122 2c9 4 13 3 10-1-13-14-46-14-46 0 0 9 4 11 10 5 5-5 17-7 26-4zm682-1c-7-8-13-34-13-58-1-24-3-35-6-25-4 22-27 17-27-6 0-8-4-19-9-24-5-4-6 6-3 25 5 23 3 31-5 26-7-4-8-3-4 5 4 6 12 9 17 6 5-4 10 0 10 7 1 7 2 20 3 28 0 8 6 15 13 15 6 0 15 3 19 8 13 13 17 7 5-7zm-1458-16c3-11 1-18-4-14-5 3-9 12-9 20 0 20 7 17 13-6zm842 10c-3-5-12-10-18-10-7 0-6 4 3 10 19 12 23 12 15 0zm367 3c-6-2-10-9-6-14 3-5 0-9-5-9-12 0-14 13-4 23 3 4 11 7 17 6 6 0 5-3-2-6zm26-11c-3-10 1-23 8-30 14-13 8-42-8-42-6 0-5 6 2 15 15 18-1 20-18 3-7-7-12-8-12-2s3 14 8 18c7 8 8 13 11 41 0 8 4 15 7 15 4 0 4-8 2-18zm172-1c0-10-7-21-15-25-12-4-13-2-6 13 6 10 7 21 4 25-3 3-1 6 5 6 7 0 12-9 12-19zm127-3c-3-8-6-5-6 6-1 11 2 17 5 13 3-3 4-12 1-19zm93 5c0 5 7 2 15-6 15-15 31-67 21-67-7 0-56 76-56 87 0 5 5 1 10-7s10-11 10-7zm100-18c0-5-5-3-10 5s-10 20-10 25c0 6 5 3 10-5s10-19 10-25zm-1825 16c-9-16 13-23 35-11 11 6 20 8 20 6 0-12-49-30-99-37-67-9-88-26-67-54 12-16 17-18 27-7 11 10 9 12-6 13-11 0-14 3-7 6 6 2 9 10 6 16-5 9-4 9 5 1 7-6 13-18 14-25 2-8 6-20 10-26 5-8 4-13-2-13s-11 5-11 10c0 7-6 7-20 0-16-9-20-8-20 5 0 9-4 14-9 11-4-3-16 3-26 14-16 17-16 21-2 35 9 8 20 15 26 15s11 6 12 13c0 9 2 9 6 0 3-9 10-10 23-3 9 5 28 7 40 5 13-2 20-2 17 2-4 3 1 12 11 19 20 16 25 17 17 5zm1782-23c-3-7-5-2-5 12s2 19 5 13c2-7 2-19 0-25zm-1537 12c0-5-5-10-11-10-5 0-7 5-4 10 3 6 8 10 11 10 2 0 4-4 4-10zm323-23c-3-13-11-24-18-24-13 0-13 26 0 47 11 17 23 2 18-23zm397 19c0-8-7-16-15-20-8-3-15-1-15 4 0 6 5 10 11 10 5 0 7 5 4 10-3 6-1 10 4 10 6 0 11-6 11-14zm262 5c8 11 9 11 6 1-4-16-22-18-24-2-2 7-1 6 3-1 4-8 8-7 15 2zm-636-35c-6-33 7-60 17-34 2 7 4-7 3-32-1-28 3-44 10-43s9-8 6-25l-5-27-12 29c-8 19-14 24-18 15-2-8-5 0-4 16 0 17-3 38-7 48-8 18 0 87 11 87 3 0 2-15-1-34zm452 14c-7-10-14-17-17-15-4 4 18 35 25 35 2 0-1-9-8-20zm359-1c-1-10-3-16-6-14-2 3-11-1-20-7-13-10-14-10-3 2 17 20 15 30-5 24-13-4-14-3-5 3 21 15 41 11 39-8zm40 10c6-6 9-18 6-25-3-9 2-14 13-14 14 0 15-3 6-12-10-10-15-10-22 2-6 8-8 21-5 27 2 7-4 17-13 22-9 6-12 11-6 11 5 0 15-5 21-11zm-1374-14c-3-9-8-14-10-11-3 3-2 9 2 15 9 16 15 13 8-4zm1027 12c0-2-9-12-19-21-14-13-21-14-27-5-4 8-3 10 5 5 6-4 14 0 17 8 5 14 24 23 24 13zm60-2c0-2-10-10-22-16-21-11-22-11-9 4 13 16 31 23 31 12zm134-20c-3-8-9-14-12-13-24 3-42-4-42-16 0-8-9-22-21-30s-18-19-15-24-2-16-11-23c-12-11-17-11-20-2-2 7-11 9-20 6-12-5-14-1-8 18 4 13 12 29 18 34 7 7 8 6 3-3-4-7-5-21-1-30 6-16 8-15 21 2 8 11 14 27 14 35 0 14-1 14-10 1-5-8-10-11-10-6s8 18 17 28c13 15 14 21 5 27-7 4 2 7 22 7 19-1 32-4 29-8-2-5 1-8 7-8s13 7 16 15c4 8 10 13 15 10 4-3 6-12 3-20zm296 5c-6-11-13-20-16-20-2 0 0 9 6 20s13 20 16 20c2 0 0-9-6-20zm33 1c3-11-1-22-8-24-8-4-10 3-7 19 5 29 8 30 15 5zm35 8c-2-6-8-10-13-10s-11 4-13 10 4 11 13 11 15-5 13-11zm-1612-11c-1-7-4-13-8-13-3 0-15-9-27-19-14-13-18-22-10-26 7-5 5-9-6-13-10-4-14-3-10 4 4 6-3 13-16 16l-23 6 25 10c13 6 27 10 30 9 4-1 15 8 24 18 21 23 24 24 21 8zm749-9c-4-5-1-9 5-9s8-5 4-11c-4-8-9-7-15 2-7 11-9 11-9 1 0-7-4-11-9-8-15 10-31-19-25-50 3-22 2-25-6-14-17 26-11 49 20 71 16 12 26 27 23 32-3 6-1 7 6 3 6-4 9-12 6-17zm61-4c-25-37-18-44 10-10 16 18 22 22 15 9-7-15-7-25 2-34 10-12 9-12-5-1-15 11-19 11-23-1-3-8-13-15-21-15-9 0-13 6-9 14 3 8 0 23-6 34-9 18-8 19 9 10 16-8 21-7 26 4 3 8 8 15 12 15 3 0-1-11-10-25zm78 9c3-8 2-12-4-9s-10 0-10-7c0-10-3-9-10 2-6 9-5 17 3 22 15 10 14 10 21-8zm66-18c8-11 10-17 5-14-16 10-30-3-44-37l-11-30 5 30c4 17 13 36 22 43 11 7 12 12 4 12-7 0-9 5-6 11 4 6 8 9 9 7s8-12 16-22zm102 2c-7-7-12-8-12-2s3 14 7 17c3 4 9 5 12 2 2-3-1-11-7-17zm758-3c-7-8-16-15-21-15s-1 8 9 18c20 22 31 19 12-3zm-1666 7c3-5-1-9-9-9s-12 4-9 9c3 4 7 8 9 8s6-4 9-8zm322-27c-1-21-6-35-13-35-16 0-17 24-3 51 15 26 17 24 16-16zm518-15c-5-5-10 3-11 18-1 22 0 24 9 8 6-10 6-22 2-26zm125 33c14 11 14 10 2-5-7-10-17-15-23-12-5 3-16 0-25-8-15-12-15-11-2 9 8 14 17 19 23 13s15-5 25 3zm261 1c0-3-4-13-9-23-7-13-6-18 4-18 7 0 11 6 8 13-2 6 0 14 5 18 11 6 9-24-3-43-5-10-4-12 3-7 16 10 14-4-4-34l-15-25 7 25c6 22 5 23-9 12-9-8-15-19-13-25 1-7 1-9-1-4-3 4-10 4-16 0-7-3-1 6 12 20 22 25 21 32-3 28-5-1-6 8-2 21 3 13 6 29 6 36 0 6 7 12 15 12s15-3 15-6zm292-20c7-1 24-6 38-12 24-10 24-11 3-11-13-1-23 4-23 10 0 5-4 8-9 5-15-10-41 5-41 23 0 14 2 14 10 1 5-8 15-15 22-16zm-768-3c3-5-2-15-12-22-15-12-16-12-5 2 7 9 10 19 6 22-3 4-4 7 0 7 3 0 8-4 11-9zm321-34c-28-49-33-79-11-71 11 4 13 0 9-17-4-13-8-18-11-11-2 7-8 10-13 6-5-3-9 6-9 20 0 13-3 31-6 40s6 27 25 45c43 42 46 39 16-12zm96 14c-26-35-27-48-4-30 17 13 17 13 2-11-9-14-24-27-33-28-16-4-16-2-1 28 12 23 14 35 6 43s-11 7-11-4c0-9-7-16-15-16-17 0-18 6-7 23 4 6 15 10 24 8 10-1 20 2 24 7 3 5 12 9 20 9 12 0 11-6-5-29zm427 4c-3-3-9 2-12 12-6 14-5 15 5 6 7-7 10-15 7-18zm-1115-12c-11-16-13-34-8-60 6-34 5-36-8-19-16 22-2 103 18 103 10 0 10-6-2-24zm233-2c-1-16-4-27-8-24-5 2-8-1-8-7s-4-9-9-5c-6 3-8-10-6-32l5-38-14 40c-7 22-15 34-19 27-4-10-5-10-2 0 1 7 8 12 15 10s10 3 7 12c-4 9-2 18 3 21 6 4 10-2 11-12 0-12 4-9 11 10 12 34 15 34 14-2zm585 22c0-5 2-19 3-31 2-14-5-28-15-35-14-9-16-14-6-27 9-12 9-13-3-3-11 10-17 10-29 0-8-6-3 5 11 27 15 21 25 47 23 57-2 11 0 19 6 19 5 0 9-3 10-7zm-1331-11c0-16-72-44-83-33-8 8-7 15 2 24 10 10 11 9 6-5-6-16-4-16 24-7 17 6 34 15 37 20 7 11 14 12 14 1zm845-12c10-11 16-20 13-20s-13 9-23 20-16 20-13 20 13-9 23-20zm653-5c-3-3-9 2-12 12-6 14-5 15 5 6 7-7 10-15 7-18zm-1468 5c0-5-4-10-10-10-5 0-10 5-10 10 0 6 5 10 10 10 6 0 10-4 10-10zm34-15c-3-7-14-15-26-18-18-5-19-4-4 12 9 10 13 21 9 25s0 4 9 1c9-4 14-13 12-20zm356-1c-6-16-7-31-2-38 5-6 12-24 16-40 6-25 5-28-7-18-8 7-16 9-19 6-3-2-8 3-12 12-4 12-2 15 9 10 9-3 15 0 15 9 0 8-4 15-10 15-5 0-10 13-10 29 0 25 5 33 27 40 1 1-2-11-7-25zm214-35c-3-5 2-6 10-3 25 10 30-23 11-66-9-21-14-43-11-48 3-6 1-14-5-18-9-5-11 3-6 29 4 25 1 39-9 48-8 6-14 19-13 28 0 12 2 11 9-4 6-13 9-15 9-5 1 8-6 28-14 43s-12 34-8 43c4 11 9 9 19-12 8-14 11-30 8-35zm288 38c-7-8-9-16-6-20 3-3 0-15-6-27s-14-45-16-73c-3-28-9-58-14-66-14-26 1 102 16 133 10 20 11 33 4 40-13 13-13 29-1 21 5-3 13 0 16 6 4 5 9 8 12 5s1-12-5-19zm-535-9c-3-8-6-5-6 6-1 11 2 17 5 13 3-3 4-12 1-19zm293 14c0-2-7-10-15-18-8-9-15-13-15-11 0 3-2 12-5 19-4 9 2 14 15 14 11 0 20-2 20-4zm161-24c8-15 8-18 0-14-6 4-16 16-22 28-8 15-8 18 0 14 6-4 16-16 22-28zm539 28c0-2-8-10-17-17-16-13-17-12-4 4s21 21 21 13zm-1624-21c-3-20-26-44-26-27 0 7 5 12 10 12 6 0 9 3 9 8-2 11 1 22 5 22 2 0 3-7 2-15zm237-5c-3-12-8-19-11-16-2 3-13 1-23-4-12-7-20-6-25 2-4 7-4 10 1 6 4-4 19 2 33 12 31 25 31 25 25 0zm1558-3c-10-9-11-8-5 6 3 10 9 15 12 12s0-11-7-18zm-1829-1c-26-42 2-55 40-20 17 16 28 23 24 17-4-7-2-13 3-13 6 0 11-5 11-12 0-6-3-8-7-5-7 8-33-11-33-25 0-5 9-4 20 2 14 8 20 8 20 0 0-6-13-13-30-16-32-7-47-4-42 9 1 5-7 11-18 14s-18 9-15 13c3 5 1 12-5 15-8 5-8 11-1 19 13 15 43 17 33 2zm1235-16c-7-32 0-63 12-55 4 2 8-2 8-10s-4-15-9-15-7-10-3-22c6-22 5-22-8 1-14 24-15 24-26 3-6-11-11-31-11-44s-4-30-9-38c-7-9-9 2-6 35 2 30 9 51 19 57 9 5 13 16 10 26-5 14-4 14 4 2 8-10 10-2 7 30-3 44 0 60 12 60 3 0 3-13 0-30zm433 26c0-2-8-10-17-17-16-13-17-12-4 4s21 21 21 13zm-1030-21c1 11 4 14 7 7 2-6 8-10 13-7 4 3 4-12 0-32-5-20-7-40-4-44 2-4 0-17-4-29-7-19-11-12-22 36-10 46-14 55-21 39-9-24-11-9-3 23 6 21 7 21 20 5 13-17 13-17 14 2zm443 0c-3-9-8-14-10-11-3 3-2 9 2 15 9 16 15 13 8-4zm337-5c-6-11-13-20-16-20-2 0 0 9 6 20s13 20 16 20c2 0 0-9-6-20zm-539-27c-9-16-10-14-11 12 0 21 3 26 11 18s8-16 0-30zm437 23c-10-7-18-20-18-28 0-9-7-22-16-29-15-12-16-11-9 11 9 30 34 60 49 60 6 0 3-7-6-14zm324-21c-3-5-7-4-10 3-2 7-8 10-13 7-5-4-6 1-3 9 5 12 9 13 19 3 7-7 10-16 7-22zm93 26c3-5 2-12-3-15s-9 1-9 9c0 17 3 19 12 6zm48-11c3-11 1-18-4-14-5 3-9 12-9 20 0 20 7 17 13-6zm-1643 0c0-5-5-10-11-10-5 0-7 5-4 10 3 6 8 10 11 10 2 0 4-4 4-10zm905-14c0-15-4-21-9-16s-6 16-3 24c9 22 12 20 12-8zm57-8c-8-8-9-4-5 13 4 13 8 18 11 10 2-7-1-18-6-23zm161 17c4-8 2-17-3-20-6-4-10 3-10 14 0 25 6 27 13 6zm-285-20c-3-3-9 2-12 12-6 14-5 15 5 6 7-7 10-15 7-18zm94-7c-7-7-12-8-12-2 0 14 12 26 19 19 2-3-1-11-7-17zm78 18c0-2-7-7-16-10-8-3-12-2-9 4 6 10 25 14 25 6zm157-54c-14-20-27-44-30-52-5-13-6-12-6 1-1 9 7 27 18 40 10 13 22 35 26 49 5 14 10 19 13 12 2-7-7-30-21-50zm-1164 34c9 5 9 4 0-6-13-15-37-4-26 13 5 8 8 8 11-1 2-7 9-9 15-6zm157 10c0-2-8-10-17-17-16-13-17-12-4 4s21 21 21 13zm1167-13c0-9-4-10-14-2-7 6-13 12-13 14 0 1 6 2 13 2 8 0 14-6 14-14zm43 13c0-3-4-8-10-11-5-3-10-1-10 4 0 6 5 11 10 11 6 0 10-2 10-4zm-90-21c9-10 9-15 1-15-6 0-11 5-11 11 0 5-4 7-10 4-5-3-10-1-10 4 0 16 16 13 30-4zm174 3c-3-5-10-6-15-3-5 4-9-1-9-10 0-11-5-15-15-12-21 8-27-7-15-38 7-17 7-24 0-20-6 3-10-1-10-10 0-10 5-13 12-9 6 4 8 3 5-2-7-13-67-17-67-5 0 10-19 9-37-2-8-5-13-4-13 2s3 11 8 12c27 3 46 9 56 19 8 9 7 11-4 8-9-1-16 2-17 7 0 6 4 9 9 7 18-5 39 19 28 33-12 14-2 27 14 18 19-13 38-12 33 1-3 7 4 12 18 12 13 0 21-4 19-8zm228-30c-6-6-7 0-4 19 5 21 7 23 10 9 2-10 0-22-6-28zm-1717 22c4-6 3-10-2-9-4 1-10 0-13-1s-12-3-20-5-24-6-35-10c-13-4-12-1 5 8 14 9 28 13 32 11 3-2 9 0 13 6 8 13 12 13 20 0zm601-44c-3-12-6-27-6-34s-5-10-10-7c-6 4-8 11-5 16 4 5 1 9-5 9s-9 4-6 9c4 5 2 21-4 35-10 26-10 26 16 9 18-12 24-22 20-37zm904 39c-15-18 1-20 19-2 11 10 11 8 0-10-10-17-16-19-26-11s-10 14-2 24c6 8 14 14 16 14 3 0 0-7-7-15zm-865-17c-5-21-5-21 9 2 14 24 15 22 12-32-2-55-16-96-16-49 0 12-5 31-11 42-5 11-7 29-4 39 9 28 18 25 10-2zm135 8c0-8 5-16 12-18 8-3 9-6 1-11-5-3-15 5-21 18-7 15-8 25-2 25s10-6 10-14zm251-24c-6-10-7-23-3-28s1-4-7 3c-9 7-11 21-7 39 5 18 10 24 17 17 8-8 8-17 0-31zm-968 15c-4-7 1-8 13-3 10 3 3-6-16-21-19-16-38-28-41-28-4 0-11-3-15-7-12-13-24-9-24 8 0 10-6 13-19 9-11-3-21 0-24 8-4 10 1 13 19 9 14-2 24 0 24 7 0 6 7 11 15 11 18 0 19-12 4-27-9-9-7-12 10-10 15 1 19 6 15 19-4 12 0 18 11 18 9 0 14 4 11 8-3 5 1 9 9 9s11-5 8-10zm77 9c0-3-4-8-10-11-5-3-10-1-10 4 0 6 5 11 10 11 6 0 10-2 10-4zm735-6c-3-5-2-25 3-44 5-18 6-39 2-47-6-8-10 1-12 27l-4 39-12-29c-7-16-14-27-16-25-7 8 6 69 14 64 4-3 10 2 14 10 3 8 8 15 11 15 4 0 3-4 0-10zm79-79c-9-10-24 54-17 73 6 17 8 12 14-24 3-25 5-47 3-49zm733 67c-3-8-6-5-6 6-1 11 2 17 5 13 3-3 4-12 1-19zm-360-12c-9-7-17-20-17-29 0-11-5-14-17-10-15 6-16 4-6-9 13-15 8-28-10-28-6 0-7 3-4 6 3 4 3 14-2 23s-5 25 0 36c6 16 8 17 8 3 1-14 6-13 27 9 14 14 28 22 32 18s-1-12-11-19zm216 9c-3-9-8-14-10-11-3 3-2 9 2 15 9 16 15 13 8-4zm-1371-17c-7-7-12-8-12-2 0 14 12 26 19 19 2-3-1-11-7-17zm248 3c0-3-4-12-9-19-6-10-10-7-13 11-4 18-1 24 9 20 7-3 13-8 13-12zm1066 2c-1-12 5-17 17-15 17 3 16 0-4-27-27-36-29-37-22-12 3 10 0 22-6 25-8 5-8 13-1 27 13 24 18 24 16 2zm-1372-2c-3-3-11-6-17-6-7-1-10-7-9-15 2-8 0-12-4-7-4 4-21-5-38-20-21-19-19-15 7 13 21 22 44 41 52 41s12-3 9-6zm653-23c-3-7-5-2-5 12s2 19 5 13c2-7 2-19 0-25zm156 13c2-10 1-25-4-32-6-10-9-4-9 19 0 36 5 42 13 13zm-551-10c-8-23-25-32-34-18-8 14 6 34 26 34 9 0 12-6 8-16zm525-3c-3-8-6-5-6 6-1 11 2 17 5 13 3-3 4-12 1-19zm-956-16c-6-2-11-8-11-13 0-6 5-7 12-3s8 3 4-4c-4-6-13-9-21-6-13 5-13 14-6 53 1 2 8-3 17-10 10-8 12-15 5-17zm859 18c0-5-4-10-10-10-5 0-10 5-10 10 0 6 5 10 10 10 6 0 10-4 10-10zm-158-38c5-32-16-61-26-36-3 9-1 12 4 9 6-4 10 8 10 27 0 25-3 29-10 18-5-8-10-10-10-4 0 14 11 25 20 19 4-3 10-18 12-33zm1048 34c0-2-7-7-16-10-8-3-12-2-9 4 6 10 25 14 25 6zm-1360-24c0-21-37-55-45-42-4 6-2 10 4 10s7 7 4 17c-4 11-3 14 5 9 7-4 12-1 12 8s5 16 10 16c6 0 10-8 10-18zm118-39c-12-14-11-15 8-5 21 11 34 7 34-10 0-14-47-9-60 7-10 12-9 16 4 21 9 3 17 16 17 28 2 20 2 20 6-2 3-13-1-30-9-39zm1186 27c-6-6-10-3-10 10s4 16 10 10c7-7 7-13 0-20zm-1632-14c-10-22-20-32-30-29-12 5-12 7 2 15 9 5 16 14 16 20s-12 2-27-7l-28-18 19 21c10 11 28 23 40 25 11 2 22 5 22 6 1 0-5-14-14-33zm1135 12c-3-8-6-5-6 6-1 11 2 17 5 13 3-3 4-12 1-19zm-983-4c3-8 2-12-3-9-6 3-14-3-20-12-6-10-11-12-11-5 0 18 4 27 13 25 4-2 7 2 7 7 0 15 7 12 14-6zm757-21c-12-20-14-14-5 12 4 9 9 14 11 11 3-2 0-13-6-23zm76 5c-3-8-6-5-6 6-1 11 2 17 5 13 3-3 4-12 1-19zm408 2c-3-5-11-10-16-10-6 0-7 5-4 10 3 6 11 10 16 10 6 0 7-4 4-10zm-638-32c-3-7-5-2-5 12s2 19 5 13c2-7 2-19 0-25zm513 22c0-5-5-10-11-10-5 0-7 5-4 10 3 6 8 10 11 10 2 0 4-4 4-10zm-1336-21c-3-5-10-7-15-3-5 3-7 10-3 15 3 5 10 7 15 3 5-3 7-10 3-15zm166 17c0-2-8-10-17-17-16-13-17-12-4 4s21 21 21 13zm839-40c-9-8-10-7-5 7 3 10 7 24 7 30 1 7 3 4 6-7 3-10-1-23-8-30zm161 40c0-2-7-9-15-16-13-11-14-10-9 4s24 23 24 12zm490-6c0-5-2-10-4-10-3 0-8 5-11 10-3 6-1 10 4 10 6 0 11-4 11-10zm-1320-21c-11-20-14-20-50 9-3 3 5 1 18-2 13-5 22-3 22 3s5 11 10 11c7 0 7-7 0-21zm605-9c-9-16-18-30-21-30-2 0 2 14 11 30 9 17 18 30 21 30 2 0-2-13-11-30zm108 15c-3-9-8-14-10-11-3 3-2 9 2 15 9 16 15 13 8-4zm-149-21c3-8 2-12-4-9s-10-2-10-12c0-15-2-15-10-3-5 9-5 19 2 27 13 16 15 16 22-3zm-771-18c3 4 4-4 2-18-4-18 0-24 15-25 23-2 24 1 11 26-7 13-5 17 8 18s18-5 16-20c-1-12-4-23-5-24-1-2-3-7-4-12-2-16-16-25-16-11 0 10-3 11-11 3s-8-17 0-31c10-18 7-23-21-36-31-16-31-16-14 3 20 22 14 43-9 34-8-3-15 0-15 7 0 6-5 8-10 5-6-4-9-1-8 6 2 7-2 13-9 14-6 0-14 3-17 6-4 3 6 5 21 4 16-1 27-7 26-13-4-17 14-15 21 3 3 8 0 15-7 15-8 0-6 4 3 10 13 8 12 10-5 11-11 1-24 1-28 0-5-1-6 3-3 8s16 7 29 3c20-5 21-4 7 14-14 17-13 18 1 7 9-7 19-10 22-7zm378-39c-10-9-11-8-5 6 3 10 9 15 12 12s0-11-7-18zm992-33c8-9-11-44-24-44-6 0-3 7 6 16 13 14 14 19 3 25-7 5-8 9-2 9s14-3 17-6zm-1466-19c0-8-4-12-9-9s-6 10-3 15c9 13 12 11 12-6zm-7-29c0-2-8-10-17-17-16-13-17-12-4 4s21 21 21 13zm434-37c-3-5-10-7-15-3-5 3-7 10-3 15 3 5 10 7 15 3 5-3 7-10 3-15zm1016 1c-9-6-8-9 6-13 16-4-24-3-61 2-19 2 17 19 42 19 16 0 21-3 13-8zm-1460-15c-7-9-15-13-19-10-3 3 1 10 9 15 21 14 24 12 10-5zm49-8c0-9-2-8-6 1-2 6-10 9-15 6-7-4-8-2-4 5 9 13 26 5 25-12zm-88-30c1 4 1 11 0 15 0 4 6 5 14 1 13-5 13-7-2-18s-22-10-45 7c-16 10-28 22-28 24 0 3 14-4 30-16 17-12 31-18 31-13zm1485 15c-10-2-22 0-28 6s0 7 19 4c21-5 23-7 9-10zm-1570-34c4-7 4-10-1-6-4 4-15 2-24-5-14-11-14-10-2 6 16 20 18 21 27 5zm1568 0c-5-8-2-9 9-5 9 3 19 2 22-2 3-5-3-12-12-15-9-4-20-1-24 5s-13 8-20 5c-8-4-5 0 5 8 23 19 30 20 20 4zm-1559-28c3-5 1-10-4-10-6 0-11 5-11 10 0 6 2 10 4 10 3 0 8-4 11-10zm1595-4c0-2-7-7-16-10-8-3-12-2-9 4 6 10 25 14 25 6zm-1105-52c-2-26-25-59-25-37 0 7 5 15 10 18 6 3 10 11 10 16 0 6-4 7-10 4s-7 1-4 9c10 25 23 18 19-10zm-490 7c3-5 2-12-3-15s-9 1-9 9c0 17 3 19 12 6zm143-51c0-9-3-7-8 5-5 11-8 29-8 40 0 16 2 15 8-5 4-14 8-32 8-40zm-144 5c-4-8-8-15-10-15s-4 7-4 15 4 15 10 15c5 0 7-7 4-15zm1706-27c0-18-2-20-9-8-6 8-7 18-5 22 9 14 14 9 14-14zm20-68c0-5-5-10-11-10-5 0-7 5-4 10 3 6 8 10 11 10 2 0 4-4 4-10zm-1750-31c0-11-4-18-10-14-5 3-7 12-3 20 7 21 13 19 13-6zm-24-37c1-6-2-10-7-6-5 3-7 9-4 14s1 11-5 15c-5 3-10 12-10 18 1 14 23-22 26-41zm579-42c-3-5-1-19 5-31 9-16 9-24 0-33-8-8-9-6-4 8 6 15 4 18-9 13-23-9-29 6-11 31 15 22 31 32 19 12zm69-35c-4-8-1-22 6-30 16-19 2-19-30 1-15 9-18 13-6 9 15-4 17-3 7 9-10 11-8 15 6 19 10 3 19 5 20 6 1 0 0-6-3-14zm30-3c3-5-1-9-9-9s-12 4-9 9c3 4 7 8 9 8s6-4 9-8zm-648-68c-4-10 1-22 11-31 19-15-3-7-24 9-10 8-10 13 0 23 16 19 20 18 13-1z"/>
    <path d="m2315 2181c-3-5-2-12 3-15s9 1 9 9c0 17-3 19-12 6z"/>
    <path d="m2694 2055c-12-9-14-15-6-16 15-2 30-6 37-9 3-1 10-3 15-4 6 0 15-8 21-16 9-12 9-11 4 5-4 11-8 29-7 40 0 11-2 14-5 8-3-9-10-10-22-3-13 6-24 5-37-5z"/>
    <path d="m2585 1860c-3-5 1-10 10-10s13 5 10 10c-3 6-8 10-10 10s-7-4-10-10z"/>
    <path d="m1119 1368c7-9 10-22 6-28-3-5-2-10 4-10 20 0 20 18-2 36-17 15-19 15-8 2z"/>
    <path d="m281 1336c-9-10-8-16 4-26 10-9 15-9 15-1 0 6-5 11-12 11-6 0-3 7 8 15 10 8 14 15 8 15s-17-6-23-14z"/>
    <path d="m1222 1195c-6-13-7-27-3-30 5-2 11 8 14 23 7 35 3 38-11 7z"/>
    <path d="m275 1241c-3-5-2-12 3-15s9 1 9 9c0 17-3 19-12 6z"/>
    <path d="m1810 1120c-13-9-13-10 0-10 12-1 11-3-3-11-9-6-15-14-12-20 7-11 26-12 24-1-1 4 0 9 1 12 3 8 8 40 7 40s-9-5-17-10z"/>
    <path d="m440 1130c-9-6-10-10-3-10 6 0 15 5 18 10 8 12 4 12-15 0z"/>
    <path d="m460 910c-8-5-12-12-9-15 4-3 12 1 19 10 14 17 11 19-10 5z"/>
    <path d="m2025 2319c-4-6-5-12-2-15 2-3 7 2 10 11 7 17 1 20-8 4z"/>
    <path d="m2546 2223c-4-10-4-14 0-10s14 1 22-6c13-10 14-9 3 11-14 27-17 27-25 5z"/>
    <path d="m2600 2129c0-11 4-18 10-14 5 3 7 12 3 20-7 21-13 19-13-6z"/>
    <path d="m2529 1758c-3-27 1-81 6-86 3-3 5 18 4 46-2 48-7 69-10 40z"/>
    <path d="m362 1595c4-4 3-14-4-22-8-11-8-17 2-26s11-9 5 2c-6 10-2 12 14 6 13-4 21-2 21 5 0 6-4 8-10 5-5-3-10 1-10 9s-6 18-12 22c-7 4-10 4-6-1z"/>
    <path d="m2450 1524c0-11-5-14-16-10-12 5-15 2-10-10 3-8 6-17 6-20 0-2 7-1 15 2 8 4 12 10 9 15s-1 9 4 9 9 7 9 15-4 15-9 15c-4 0-8-7-8-16z"/>
    <path d="m817 1307c-14-22-14-26 4-53 10-16 16-38 13-49-4-17-3-17 6-5s10 11 8-7c-2-12 2-21 7-20 15 3 10 49-10 90-9 20-15 44-11 52 8 22 0 18-17-8z"/>
    <path d="m893 1105c1-21 4-30 9-22 6 9 8 9 8-2 0-8 2-12 5-9 8 7-6 68-15 68-5 0-8-16-7-35z"/>
    <path d="m975 1e3c-3-5-1-10 4-10 6 0 11 5 11 10 0 6-2 10-4 10-3 0-8-4-11-10z"/>
    <path d="m1755 975c2-16-4-30-18-40-12-8-17-16-12-16 6-1 17-2 25-3s24 3 35 8c11 6 23 9 28 8 12-3 8 5-10 19-9 8-14 9-10 3 3-6 0-11-8-11-10 0-12 4-5 12 13 15 3 45-15 45-7 0-11-10-10-25z"/>
    <path d="m1686 793c-4-5-13-8-19-8-7 0-11-11-9-25s4-38 4-53c1-18 4-24 8-16 5 6 10-14 11-46 2-31 1-59-3-62-5-2-8-9-8-14 0-6 6-4 14 4 15 15 18 147 3 147-5 0-5 5-2 10 3 6 2 10-4 10-15 0-6 32 14 46 10 8 14 14 9 14-6 0-14-3-18-7z"/>
    <path d="m1715 731c-3-5-2-12 3-15s9 1 9 9c0 17-3 19-12 6z"/>
    <path d="m1724 689c-3-6-2-15 3-20s9-1 9 11c0 23-2 24-12 9z"/>
    <path d="m307 623c-4-3-7-15-7-26 0-25 13-14 17 13 3 21 1 24-10 13z"/>
    <path d="m333 595c0-8 4-12 9-9s6 10 3 15c-9 13-12 11-12-6z"/>
    <path d="m1808 565c-15-12-33-25-40-28-7-2-10-8-6-12s15-2 25 6c9 8 14 9 10 3-4-7 0-17 8-24s15-20 14-29c0-12-2-11-8 4-8 19-8 19-19-1-6-12-8-25-4-30s0-4-7 3c-11 10-12 15-2 27 9 11 9 16 0 22-7 4-9 3-5-4 3-6 2-13-4-17-16-10-12-57 8-72 9-8 12-12 5-9-6 4-15 2-18-4-5-8-11-7-21 1-11 9-14 8-14-2 0-25 16-39 39-34 18 3 20 1 12-9-6-7-9-16-6-20 3-3-1-2-7 4-18 15-26 12-24-10 0-11-3-18-9-17-5 1-9 8-8 16 1 11-2 10-14-2-10-10-12-20-6-33 5-11 8-29 7-41 0-13 3-23 8-23 6 0 7-7 4-16-3-8-2-12 4-9 5 3 6-9 3-30-5-31-2-39 21-58 30-24 76-36 58-15-13 17-10 65 4 65 6 0 12-11 12-25 0-17-3-20-9-11-7 11-9 11-9 1 0-32 27-42 83-30 22 5 57 34 57 47 0 16-51 51-75 51-12 0-30 10-41 22-10 12-13 18-7 14 10-6 11-1 2 21-6 15-11 42-11 58 1 25-1 27-9 12-6-9-8-21-5-25 2-4-2-18-10-32-12-19-14-20-10-5 2 11 9 43 15 70 6 28 18 82 27 121 8 39 14 85 12 102l-3 31-27-24zm-45-299c3-8-2-20-11-28-10-8-13-8-9-1 4 6 3 14-3 18-11 7-4 25 10 25 4 0 10-6 13-14zm137-80c0-2-9-6-20-9s-18-1-14 4c5 9 34 13 34 5zm-119-39c-6-6-11-16-11-21 0-6 5-4 10 4 8 13 10 12 10-2 0-22-8-23-32-1-24 21-23 33 2 33 11 0 20 6 21 13 0 9 2 8 6-1 3-8 0-19-6-25zm99 3c3-1 9-2 13-1 5 1 6-3 2-9-5-8-11-8-19-1-7 6-15 8-18 5s-9-1-12 4c-5 9 14 9 34 2z"/>
    <path d="m1731 475c-1-37-4-46-11-34-5 9-11 26-13 38-7 45-17 32-18-24 0-10-4-25-10-31-7-8-6-14 1-19 6-3 7-12 4-18-4-8-2-7 7 1 12 11 12 14-1 22-17 11-16 11 23 14 17 2 31-3 37-13 5-9 10-11 10-5 0 5-4 14-9 20-6 5-11 29-14 54l-4 45-2-50z"/>
    <path d="m1690 359c0-15 18-19 23-6 3 8-1 14-9 14s-14-4-14-8z"/>
    <path d="m144 353c4-7 3-13-1-13-5 0-9-10-10-21l-2-22 16 22c12 18 13 25 3 34s-11 9-6 0z"/>
    <path d="m2130 301c26-4 31-9 21-15-12-8-11-11 4-23 17-12 17-13-9-13-15 0-25 4-21 10 11 18-21 0-35-20-13-18-14-18-26-2-11 15-12 14-7-7 4-16 3-22-5-17-6 3-13 2-17-4-8-13 78-13 127 0 32 9 58 33 58 54 0 14-68 46-95 45-29-2-29-2 5-8zm60-21c8-5 11-12 7-16-3-4-13-2-20 4-8 7-18 8-22 4-5-4-5-1-1 6 9 14 16 15 36 2z"/>
    <path d="m2421 236c-1-12-6-16-15-13-10 4-13 1-9-9 4-11 9-12 18-4s15 8 20 0c8-13 25-13 25 1 0 5-5 7-10 4-6-3-14 4-19 17-8 19-10 20-10 4z"/>
    <path d="m2471 228c-1-9 4-20 9-23 6-3 10-1 10 4 0 6 7 11 15 11s15 5 15 10c0 7-6 7-19 0-14-7-21-6-24 3-3 7-6 5-6-5z"/>
    <path d="m2306 223c5-5 12-12 16-18s8-2 8 8c0 9-7 17-17 17-9 0-12-3-7-7z"/>
    <path d="m2341 214c0-11 3-14 6-6 3 7 2 16-1 19-3 4-6-2-5-13z"/>
    <path d="m2371 214c0-11 3-14 6-6 3 7 2 16-1 19-3 4-6-2-5-13z"/>
  </g>
  <metadata>
    <rdf:RDF>
      <cc:Work>
        <dc:format>image/svg+xml</dc:format>
        <dc:type rdf:resource="http://purl.org/dc/dcmitype/StillImage"/>
        <cc:license rdf:resource="http://creativecommons.org/licenses/publicdomain/"/>
        <dc:publisher>
          <cc:Agent rdf:about="http://openclipart.org/">
            <dc:title>Openclipart</dc:title>
          </cc:Agent>
        </dc:publisher>
        <dc:title>Lone Wolf</dc:title>
        <dc:date>2013-10-30T07:43:15</dc:date>
        <dc:description>This public domain image comes from http://www.fws.gov/pictures/lineart/bobsavannah/wolves.html and as of 2013-10-30 11:30:15 is this file, http://www.fws.gov/pictures/lineart/bobsavannah/graphics/wolf.jpg. .fws.gov </dc:description>
        <dc:source>https://openclipart.org/detail/186420/lone-wolf-by-worldlabel-186420</dc:source>
        <dc:creator>
          <cc:Agent>
            <dc:title>worldlabel</dc:title>
          </cc:Agent>
        </dc:creator>
        <dc:subject>
          <rdf:Bag>
            <rdf:li>bobsavannah</rdf:li>
            <rdf:li>deer</rdf:li>
            <rdf:li>dig</rdf:li>
            <rdf:li>dovectorize+true</rdf:li>
            <rdf:li>graphics</rdf:li>
            <rdf:li>lineart</rdf:li>
            <rdf:li>lonewolf</rdf:li>
            <rdf:li>pd</rdf:li>
            <rdf:li>pictures</rdf:li>
            <rdf:li>publicdomain</rdf:li>
            <rdf:li>upload2openclipart</rdf:li>
            <rdf:li>vectorized</rdf:li>
            <rdf:li>vectorizer+potrace</rdf:li>
            <rdf:li>wolf</rdf:li>
            <rdf:li>wolves</rdf:li>
            <rdf:li>www</rdf:li>
          </rdf:Bag>
        </dc:subject>
      </cc:Work>
      <cc:License rdf:about="http://creativecommons.org/licenses/publicdomain/">
        <cc:permits rdf:resource="http://creativecommons.org/ns#Reproduction"/>
        <cc:permits rdf:resource="http://creativecommons.org/ns#Distribution"/>
        <cc:permits rdf:resource="http://creativecommons.org/ns#DerivativeWorks"/>
      </cc:License>
    </rdf:RDF>
  </metadata>
</svg>