<?xml version="1.0" encoding="UTF-8" standalone="no"?>
<!-- Created with Inkscape (http://www.inkscape.org/) -->

<svg
   xmlns:dc="http://purl.org/dc/elements/1.1/"
   xmlns:cc="http://creativecommons.org/ns#"
   xmlns:rdf="http://www.w3.org/1999/02/22-rdf-syntax-ns#"
   xmlns:svg="http://www.w3.org/2000/svg"
   xmlns="http://www.w3.org/2000/svg"
   xmlns:sodipodi="http://sodipodi.sourceforge.net/DTD/sodipodi-0.dtd"
   xmlns:inkscape="http://www.inkscape.org/namespaces/inkscape"
   width="640"
   height="480"
   id="svg2"
   version="1.1"
   inkscape:version="0.92.1 r15371"
   sodipodi:docname="ayo_02.svg"
   viewBox="0 0 600 450"
   inkscape:export-filename="overlay-border.png"
   inkscape:export-xdpi="45"
   inkscape:export-ydpi="45">
  <defs
     id="defs4" />
  <sodipodi:namedview
     id="base"
     pagecolor="#ffffff"
     bordercolor="#666666"
     borderopacity="1.0"
     inkscape:pageopacity="0.0"
     inkscape:pageshadow="2"
     inkscape:zoom="0.84"
     inkscape:cx="770.97299"
     inkscape:cy="246.984"
     inkscape:document-units="px"
     inkscape:current-layer="layer1"
     showgrid="false"
     units="px"
     inkscape:window-width="1920"
     inkscape:window-height="1003"
     inkscape:window-x="0"
     inkscape:window-y="25"
     inkscape:window-maximized="1" />
  <metadata
     id="metadata7">
    <rdf:RDF>
      <cc:Work
         rdf:about="">
        <dc:format>image/svg+xml</dc:format>
        <dc:type
           rdf:resource="http://purl.org/dc/dcmitype/StillImage" />
        <dc:title />
      </cc:Work>
    </rdf:RDF>
  </metadata>
  <g
     inkscape:label="Layer 1"
     inkscape:groupmode="layer"
     id="layer1"
     transform="translate(0,-602.36218)">
    <g
       id="g3416"
       transform="matrix(1.5849014,0,0,1.5849014,169.95898,627.36476)">
      <path
         id="path3368"
         d="m 164.1,14.44 c -4.898,-0.072 -6.437,-3.506 -9.232,-5.683 -9.315,-2.888 -16.328,-2.279 -24.149,1.421 -6.603,3.125 -11.663,9.532 -17.047,10.653 2.203,-7.503 10.965,-8.45 14.916,-14.205 7.075,-1.876 12.204,-7.884 20.597,-6.392 5.81,1.033 13.34,7.947 14.91,14.206 z"
         style="clip-rule:evenodd;fill-rule:evenodd"
         inkscape:connector-curvature="0" />
      <path
         id="path3370"
         d="M 73.192,33.617 C 72.885,37.643 67.571,37.804 65.38,37.879 58.266,38.122 51.074,32 46.912,29.355 44.974,21.824 40.415,16.913 34.837,13.019 c -3.544,0.151 -8.444,-0.88 -11.363,0 -2.583,0.779 -3.538,3.462 -6.394,5.682 -2.985,2.322 -6.107,2.96 -8.522,6.393 C 6.693,27.746 6.775,32.7 2.876,32.907 0.168,30.916 4.183,24.813 5.717,22.963 7.647,20.631 12.03,16.226 14.951,15.151 19.034,9.544 26.232,7.13 33.417,8.048 47.282,9.817 49.5,25.879 58.277,32.196 c 0.824,0.594 2.676,-0.487 2.131,1.42 4.042,0.238 11.006,-0.333 12.784,10e-4 z"
         style="clip-rule:evenodd;fill-rule:evenodd"
         inkscape:connector-curvature="0" />
      <path
         id="path3372"
         d="m 95.92,27.225 h 1.422 c 2.548,1.388 2.332,4.831 3.55,7.103 1.42,2.647 3.786,4.56 4.972,7.103 12.527,5.776 14.306,-9.89 24.859,-10.654 0.543,3.48 -3.604,3.951 -6.394,6.392 -4.986,4.37 -7.784,12.134 -17.756,9.944 C 99.526,45.562 95.995,34.871 95.923,27.225 Z"
         style="clip-rule:evenodd;fill-rule:evenodd"
         inkscape:connector-curvature="0" />
      <path
         id="path3374"
         d="m 163.4,41.43 c -2.635,1.56 -4.977,-2.337 -7.812,-2.842 -15.597,5.738 -23.286,19.746 -35.513,30.542 -6.761,5.969 -11.735,10.624 -22.728,8.523 -4.734,-4.249 -5.653,-15.582 -1.422,-21.308 5.738,-0.294 3.088,7.803 7.103,9.233 10.158,-0.582 16.4,-8.093 24.147,-14.916 3.566,-3.138 7.201,-6.228 11.365,-9.233 1.445,-1.042 4.007,-4.74 5.682,-5.683 6.04,-3.399 21.4,-5.82 19.18,5.684 z"
         style="clip-rule:evenodd;fill-rule:evenodd"
         inkscape:connector-curvature="0" />
      <path
         id="path3376"
         d="m 71.771,66.29 c -1.114,-4.999 -6.112,-13.85 1.421,-15.626 3.021,-0.214 0.723,3.786 0.709,4.972 4.628,5.357 5.398,18.222 5.682,25.569 -4.669,0.171 -6.822,-2.173 -6.391,-7.102 -6.64,2.036 -11.575,0.105 -17.046,-2.842 -6.08,-3.271 -10.34,-6.856 -15.625,-11.364 -2.693,-2.296 -5.236,-5.613 -7.812,-7.102 -2.092,-1.208 -9.723,-2.729 -13.496,-1.42 -6.469,2.241 -11.439,8.783 -19.176,6.392 0.05,-5.395 6.231,-4.658 7.101,-9.234 8.581,-5.474 17.494,-13.022 29.121,-7.102 0.82,0.417 4.697,3.062 6.394,4.261 8.75,6.184 14.815,19.673 29.118,20.598 z"
         style="clip-rule:evenodd;fill-rule:evenodd"
         inkscape:connector-curvature="0" />
      <path
         id="path3378"
         d="m 81.714,59.896 c 2.688,-0.608 2.515,3.181 1.422,4.262 -1.815,-0.08 -1.41,-2.379 -1.422,-4.262 z"
         style="clip-rule:evenodd;fill-rule:evenodd"
         inkscape:connector-curvature="0" />
      <path
         id="path3380"
         d="m 55.436,119.56 c 2.242,-3.576 7.309,-1.805 9.944,-4.972 1.397,-1.68 0.753,-4.101 2.131,-6.392 -7.15,0.147 -18.905,-0.338 -26.28,-1.42 -4.381,-0.644 -10.731,1.21 -10.653,-4.261 11.841,0.581 24.048,2.58 35.512,1.42 -0.136,-7.203 -6.501,-8.177 -10.653,-11.364 -9.02,-0.462 -15.854,0.846 -21.309,4.261 -3.458,2.165 -5.242,8.361 -10.653,5.683 6.382,-18.946 48.108,-19.951 49.718,2.841 0.648,9.18 -6.141,17.3 -17.757,14.2 z"
         style="clip-rule:evenodd;fill-rule:evenodd"
         inkscape:connector-curvature="0" />
      <path
         id="path3382"
         d="m 156.29,105.35 c -3.458,-0.093 -2.86,-4.243 -4.972,-5.683 -17.212,-7.818 -34.975,9.745 -51.85,2.131 0.915,-3.748 5.75,-1.316 7.814,-1.42 16.994,-0.854 34.318,-14.965 49.007,-2.841 -0.21,2.761 1.84,5.621 0,7.811 z"
         style="clip-rule:evenodd;fill-rule:evenodd"
         inkscape:connector-curvature="0" />
      <path
         id="path3384"
         d="m 92.37,110.32 c -8.758,-2.128 -9.19,4.069 -14.915,4.972 -0.035,-6.82 12.344,-13.46 14.915,-4.97 z"
         style="clip-rule:evenodd;fill-rule:evenodd"
         inkscape:connector-curvature="0" />
      <path
         id="path3386"
         d="m 0.746,106.77 c 5.896,-0.213 9.02,2.343 15.625,1.42 0.764,6.858 -12.008,5.091 -16.335,2.131 -0.292,-1.71 1.297,-1.54 0.71,-3.55 z"
         style="clip-rule:evenodd;fill-rule:evenodd"
         inkscape:connector-curvature="0" />
      <path
         id="path3388"
         d="m 148.48,122.4 c -3.257,-0.058 -2.813,-3.817 -4.263,-5.683 -3.578,-0.682 -4.888,-3.635 -9.231,-3.551 -1.075,1.044 0.986,5.762 -0.712,7.812 -2.77,1.255 -5.062,2.987 -9.944,2.131 -2.336,-2.65 -3.591,-7.243 -1.419,-10.653 -6.28,0.491 -9.991,6.518 -9.943,10.653 0.116,10.09 14.009,11.174 25.568,9.234 -1.583,4.81 -8.524,6.145 -13.494,5.682 -6.371,-0.593 -15.129,-6.72 -16.337,-11.364 -1.404,-5.408 0.927,-9.709 2.841,-14.916 4.585,-3.355 11.776,-5.624 19.888,-4.972 2.092,0.167 6.371,0.663 8.524,1.42 6.18,2.19 13.74,9.49 8.51,14.21 z"
         style="clip-rule:evenodd;fill-rule:evenodd"
         inkscape:connector-curvature="0" />
      <path
         id="path3390"
         d="m 95.92,120.98 c -3.528,0.025 -4.427,-1.59 -7.103,-1.42 -4.946,0.314 -6.05,5.396 -10.654,6.392 -1.163,-8.13 16.572,-15.17 17.757,-4.97 z"
         style="clip-rule:evenodd;fill-rule:evenodd"
         inkscape:connector-curvature="0" />
      <path
         id="path3392"
         d="m 18.502,118.85 c -1.29,4.276 -11.285,1.602 -14.916,1.42 0.606,-5.37 10.565,-2.6 14.916,-1.42 z"
         style="clip-rule:evenodd;fill-rule:evenodd"
         inkscape:connector-curvature="0" />
      <path
         id="path3394"
         d="m 108,138.02 c -4.977,-1.18 -7.136,-5.176 -11.365,-7.104 -10.589,-1.354 -15.591,2.876 -18.466,9.234 -1.75,0.093 -3.422,0.106 -4.262,-0.712 1.557,-14.58 33.453,-21.38 34.093,-1.42 z"
         style="clip-rule:evenodd;fill-rule:evenodd"
         inkscape:connector-curvature="0" />
      <path
         id="path3396"
         d="m 67.511,140.87 c -1.951,6.406 -7.475,11.919 -11.365,17.756 -1.247,1.874 -1.604,4.883 -2.841,6.394 -1.928,2.352 -6.361,4.95 -9.234,7.812 -3.371,3.362 -8.803,9.719 -14.915,7.103 12.594,-11.556 23.95,-24.346 34.093,-38.355 0.574,-0.609 1.945,-0.422 2.131,-1.419 1.146,-0.2 1.222,0.67 2.131,0.71 z"
         style="clip-rule:evenodd;fill-rule:evenodd"
         inkscape:connector-curvature="0" />
      <path
         id="path3398"
         d="m 115.1,147.26 c 3.73,2.399 3.168,11.018 7.103,14.204 0.265,4.453 1.632,8.715 3.551,12.075 3.204,5.616 8.938,8.905 10.653,15.625 -4.288,0.807 -7.67,-3.138 -9.943,-5.682 -4.804,-5.374 -7.189,-12.122 -10.653,-19.888 1.11,-6.43 -6.92,-13.58 -0.71,-16.33 z"
         style="clip-rule:evenodd;fill-rule:evenodd"
         inkscape:connector-curvature="0" />
      <path
         id="path3400"
         d="m 108.7,151.52 c 1.082,3.516 -1.94,7.391 -4.262,9.233 -0.219,0.176 -2.545,0.011 -3.551,0.71 -0.768,0.534 -0.383,1.755 -1.421,2.131 -9.587,3.49 -16.404,-2.957 -19.888,-8.521 -1.748,-1.566 -5.692,-0.938 -5.682,-4.263 5.007,-8.498 10.532,1.978 15.625,3.553 6.966,2.15 12.396,-3.36 19.176,-2.84 z"
         style="clip-rule:evenodd;fill-rule:evenodd"
         inkscape:connector-curvature="0" />
      <path
         id="path3402"
         d="m 113.68,177.8 h 2.132 c 2.971,3.896 5.353,8.377 4.972,15.625 -0.13,1.55 0.582,2.261 2.131,2.132 -1.882,6.858 0.258,14.292 -2.131,22.018 -1.279,4.137 -2.999,11.764 -7.812,11.363 -0.915,-2.33 2.072,-4.059 2.841,-6.391 3.69,-11.2 2.25,-33.73 -2.13,-44.74 z"
         style="clip-rule:evenodd;fill-rule:evenodd"
         inkscape:connector-curvature="0" />
      <path
         id="path3404"
         d="m 60.408,179.93 c -8.156,13.942 -10.478,35.277 -6.393,54.69 -7.263,-2.739 -6.359,-16.278 -9.234,-24.859 1.008,0.061 2.012,0.117 2.131,-0.712 0.632,-12.152 4.548,-21.021 8.524,-29.831 1.887,0.01 4.057,-0.27 4.972,0.71 z"
         style="clip-rule:evenodd;fill-rule:evenodd"
         inkscape:connector-curvature="0" />
      <path
         id="path3406"
         d="m 95.21,184.19 c 17.399,10.278 16.009,59.761 -14.915,56.111 -4.439,-3.122 -8.65,-2.657 -12.075,-5.682 -11.123,-9.82 -3.237,-34.593 3.55,-44.037 6.373,-3.57 12.24,-7.64 23.44,-6.39 z"
         style="clip-rule:evenodd;fill-rule:evenodd"
         inkscape:connector-curvature="0" />
      <path
         id="path3408"
         d="m 98.051,252.38 c -4.682,-0.764 -4.956,-5.935 -8.524,-7.812 -10.387,-1.864 -13.31,3.734 -19.887,5.682 1.138,-11.6 31.21,-15.86 28.411,2.13 z"
         style="clip-rule:evenodd;fill-rule:evenodd"
         inkscape:connector-curvature="0" />
    </g>
  </g>
</svg>
