<?xml version="1.0" encoding="UTF-8" standalone="no"?>
<!-- Created with Inkscape (http://www.inkscape.org/) -->

<svg
   xmlns:dc="http://purl.org/dc/elements/1.1/"
   xmlns:cc="http://creativecommons.org/ns#"
   xmlns:rdf="http://www.w3.org/1999/02/22-rdf-syntax-ns#"
   xmlns:svg="http://www.w3.org/2000/svg"
   xmlns="http://www.w3.org/2000/svg"
   xmlns:sodipodi="http://sodipodi.sourceforge.net/DTD/sodipodi-0.dtd"
   xmlns:inkscape="http://www.inkscape.org/namespaces/inkscape"
   width="600"
   height="450"
   id="svg2"
   version="1.1"
   inkscape:version="0.91 r13725"
   sodipodi:docname="ayo01.svg"
   viewBox="0 0 600 450"
   inkscape:export-filename="overlay-border.png"
   inkscape:export-xdpi="45"
   inkscape:export-ydpi="45">
  <defs
     id="defs4" />
  <sodipodi:namedview
     id="base"
     pagecolor="#ffffff"
     bordercolor="#666666"
     borderopacity="1.0"
     inkscape:pageopacity="0.0"
     inkscape:pageshadow="2"
     inkscape:zoom="1.68"
     inkscape:cx="300"
     inkscape:cy="225"
     inkscape:document-units="px"
     inkscape:current-layer="layer1"
     showgrid="false"
     units="px"
     inkscape:window-width="1920"
     inkscape:window-height="1003"
     inkscape:window-x="0"
     inkscape:window-y="25"
     inkscape:window-maximized="1" />
  <metadata
     id="metadata7">
    <rdf:RDF>
      <cc:Work
         rdf:about="">
        <dc:format>image/svg+xml</dc:format>
        <dc:type
           rdf:resource="http://purl.org/dc/dcmitype/StillImage" />
        <dc:title />
      </cc:Work>
    </rdf:RDF>
  </metadata>
  <g
     inkscape:label="Layer 1"
     inkscape:groupmode="layer"
     id="layer1"
     transform="translate(0,-602.36218)">
    <g
       id="g3335"
       transform="matrix(0.24999997,0,0,0.24999997,33.860179,615.68658)">
      <path
         id="path3337"
         d="M 390.1742,176.583 C 429.5908,113.8521 498.5366,56.3331 573.7186,47.2526 c 40.155,-3.793 78.2584,12.6312 113.2371,30.6291 69.9697,36.8626 124.6064,91.584 187.9658,137.709 9.2548,6.7374 19.8226,13.6241 30.0589,17.2298 33.9664,11.8721 65.9295,-16.3484 93.3732,-33.7124 -19.157,29.6583 -46.592,67.2692 -85.2164,69.1149 -27.2126,1.3004 -55.8105,-12.7139 -78.5459,-25.3452 C 756.2024,199.3267 689.7208,141.0263 607.1384,104.2906 537.9808,77.9603 448.0458,138.9425 390.1742,176.583 Z"
         inkscape:connector-curvature="0" />
      <path
         id="path3339"
         d="m 1324.4788,217.7159 c 18.049,25.9913 43.2583,57.9489 74.6697,66.6584 25.0809,6.9542 45.9711,-7.9246 65.3861,-21.6115 32.4166,-22.0629 63.9092,-45.4159 95.9701,-67.9843 56.1471,-39.5233 135.1239,-97.5175 208.4083,-85.3312 69.5723,11.0693 127.3666,70.3889 165.7037,125.8971 -56.1959,-32.3879 -137.1066,-97.4723 -205.4486,-68.306 0.2184,-0.0672 0.4353,-0.1387 0.6509,-0.2145 -93.0039,40.747 -170.4236,109.1552 -263.116,150.8441 -73.8645,33.2208 -130.9813,-32.5499 -142.2242,-99.9521 z"
         inkscape:connector-curvature="0" />
      <ellipse
         id="ellipse3341"
         ry="17.481001"
         rx="65.616798"
         cy="426.47409"
         cx="106.747"
         transform="matrix(0.7071,-0.7071,0.7071,0.7071,-270.2973,200.3929)" />
      <ellipse
         id="ellipse3343"
         ry="17.481001"
         rx="65.616798"
         cy="485.23541"
         cx="138.0863"
         transform="matrix(0.7071,-0.7071,0.7071,0.7071,-302.6687,239.764)" />
      <ellipse
         id="ellipse3345"
         ry="17.481001"
         rx="65.616798"
         cy="479.35931"
         cx="2022.365"
         transform="matrix(-0.7071,-0.7071,0.7071,-0.7071,3113.4348,2248.3455)" />
      <ellipse
         id="ellipse3347"
         ry="17.481001"
         rx="65.616798"
         cy="538.12061"
         cx="1991.0256"
         transform="matrix(-0.7071,-0.7071,0.7071,-0.7071,3018.3848,2326.4971)" />
      <path
         id="path3349"
         d="M 660.4761,596.7262"
         stroke-miterlimit="10"
         inkscape:connector-curvature="0"
         style="stroke:#ffffff;stroke-miterlimit:10" />
      <path
         id="path3351"
         d="M 585.5555,407.9556"
         stroke-miterlimit="10"
         inkscape:connector-curvature="0"
         style="stroke:#ffffff;stroke-miterlimit:10" />
      <path
         id="path3353"
         d="M 703.8126,495.363"
         inkscape:connector-curvature="0" />
      <path
         id="path3355"
         d="m 578.2103,413.0972 c 0,0 320.7694,-99.5965 370.4862,175.4653 3.0482,16.8648 -8.1548,33.1132 -25.0802,35.8047 -76.0276,12.0901 -182.4587,-0.6824 -295.4589,-18.8267 49.1172,-30.8636 119.5142,-37.6054 200.5229,-32.3187 -32.1727,-35.0744 -87.0204,-59.9871 -160.859,-76.3896 55.4983,-11.3873 111.8624,-11.4702 169.6732,7.3452 -37.3617,-55.8168 -127.0494,-84.4859 -259.2842,-91.0802 z"
         inkscape:connector-curvature="0" />
      <path
         id="path3357"
         d="m 1204.3541,664.0517 c 15.2738,-171.6175 190.2017,-271.4917 369.8601,-201.7419 -100.916,5.8345 -186.9713,31.8821 -249.7355,89.611 60.1597,-13.2118 113.9482,-17.0703 154.9829,-2.2036 -63.4801,14.376 -120.9879,39.7623 -170.4078,80.0623 93.1688,-1.1835 173.4624,2.2056 201.2574,24.2391 -95.2245,22.3016 -190.2706,33.4913 -285.125,32.7119 -12.1941,-0.1003 -21.9131,-10.5323 -20.8321,-22.6788 z"
         inkscape:connector-curvature="0" />
      <g
         id="g3359">
        <path
           id="path3361"
           d="m 1038.6774,975.0364 c -82.5155,0 -147.1271,-40.2692 -157.1262,-97.9288 -6.0425,-34.8494 8.0983,-70.5193 39.8188,-100.4379 29.7637,-28.0751 72.007,-48.019 118.95,-56.1575 15.0447,-2.6096 30.217,-3.9323 45.0939,-3.9323 82.5154,0 147.127,40.2708 157.1262,97.9317 6.0425,34.8479 -8.0969,70.5178 -39.8188,100.4379 -29.7651,28.0723 -72.0084,48.0161 -118.9501,56.1561 -15.0448,2.6081 -30.2157,3.9308 -45.0938,3.9308 z m 46.7364,-223.1996 c -12.8641,0 -26.0094,1.1477 -39.0699,3.4129 -79.0079,13.7005 -138.5654,66.7449 -130.0553,115.8326 6.9033,39.8074 58.3754,68.6973 122.3888,68.6973 12.864,0 26.0093,-1.1476 39.0699,-3.4143 40.2032,-6.9693 75.9937,-23.6853 100.7836,-47.0635 22.8303,-21.5363 33.2255,-45.9575 29.2688,-68.7662 -6.9005,-39.8073 -58.3711,-68.6988 -122.3859,-68.6988 z"
           inkscape:connector-curvature="0" />
      </g>
      <path
         id="path3363"
         d="m 1777.0288,1213.5142 c -9.9307,-30.4972 -30.3503,-56.8221 -57.498,-74.1274 -46.5977,-29.7625 -91.0801,-44.8348 -132.1836,-44.8348 -46.8619,0 -90.4336,19.4501 -129.5391,57.8212 -6.9338,6.7869 -16.1888,11.3114 -26.0313,12.6924 -5.0535,0.7051 -10.5774,1.0576 -16.3947,1.0576 -30.7614,0 -68.3982,-9.8718 -104.448,-20.5664 -12.8981,-3.8195 -26.9421,-3.4081 -39.7521,1.1753 -37.6069,13.4564 -70.6014,20.6251 -98.3958,21.301 -3.9957,0 -7.6978,-2.0566 -9.6953,-5.3767 -15.337,-25.5906 -34.4635,-38.5474 -56.7637,-38.5474 -23.6222,0 -48.6545,14.6902 -76.4485,44.9523 -17.8632,6.9045 -39.7521,9.1373 -67.9575,6.9926 -18.2158,-17.9514 -42.5431,-34.1403 -74.1567,-49.3888 -13.6914,-6.6107 -29.5566,-8.4911 -44.2471,-5.2296 -21.3892,4.7595 -46.2156,12.8685 -75.7728,24.7384 -14.9844,5.8761 -36.2853,8.2853 -63.5797,7.1395 -7.8742,-0.3232 -15.4249,-4.0251 -20.6838,-10.1365 -35.3744,-40.986 -70.8665,-69.8083 -105.5063,-85.7032 -13.3974,-6.1406 -28.1462,-9.3724 -42.6898,-9.3724 -15.4248,0 -30.7324,3.6432 -44.2765,10.5769 -67.2527,34.4343 -102.4801,115.7305 -107.6805,248.4722 l 0,0.8228 c 1.4691,94.0768 15.6602,163.562 43.3659,212.4221 30.4387,53.6196 76.9775,80.8262 138.3537,80.8262 30.2328,0 64.6668,-6.7869 102.3036,-20.0964 l 1.2338,-0.4407 1.1165,-0.6465 c 0.382,-0.2351 39.2231,-21.918 84.1756,-21.918 37.4897,0 68.4277,15.043 91.9321,44.7174 3.2021,4.0251 9.1665,8.8436 19.5085,8.8436 10.7827,-0.029 23.0052,-5.2299 38.4889,-11.811 13.5148,-5.7588 28.8223,-12.2517 43.5126,-15.0723 1.998,-0.1174 4.0546,-0.1763 6.0522,-0.1763 32.407,0 60.6421,16.6587 87.9363,32.7594 23.7394,14.0145 46.1572,27.2357 70.4547,29.1749 1.3518,0.088 2.7327,0.147 4.1721,0.147 24.6796,0 61.4937,-17.1582 85.0863,-34.1108 4.8479,-3.467 14.3966,-6.1993 21.7711,-6.1993 1.1753,0 2.233,0.088 3.1436,0.2054 l 65.5485,9.8427 c 14.8961,2.233 37.049,-2.0272 50.1235,-9.3724 18.8622,-10.6064 34.9332,-14.1321 47.8314,-16.9821 6.3463,-1.3809 12.3401,-2.703 17.7751,-4.6127 2.938,-1.0579 5.8761,-1.1753 8.3738,-0.3232 47.8022,15.983 94.4878,23.769 142.7019,23.769 4.1719,0 8.373,-0.059 12.6335,-0.1763 18.5978,-0.5289 37.0784,-7.2278 52.0918,-18.8918 70.7485,-55.0593 119.9316,-113.3799 146.0808,-173.3457 28.1759,-64.4615 30.8207,-132.7715 7.933,-202.9912 z M 648.1656,1556.6213 c -30.7615,10.0775 -58.7025,15.2191 -83.1179,15.2191 -97.6319,0 -147.4321,-82.8241 -152.1036,-253.173 77.7999,20.7721 159.4781,38.1948 243.0661,52.0331 l -7.8446,185.9208 z m 9.0787,-215.2426 c -82.6184,-13.8677 -164.2672,-31.4961 -243.4774,-52.9438 7.1689,-108.0327 37.6366,-176.4602 90.6393,-203.6079 18.3923,-9.4019 41.7206,-9.6368 61.3175,-0.6464 30.7909,14.1321 62.9333,40.4277 95.4871,78.1819 1.0871,1.2633 2.233,2.4679 3.4081,3.5844 l -7.3746,175.4318 z m 265.0133,219.7378 c -10.5769,3.467 -20.6545,7.7566 -29.9683,11.7229 -9.343,3.9958 -19.8319,8.4324 -25.4142,9.2844 -28.7931,-34.9336 -67.7812,-53.3848 -112.998,-53.3848 -30.2621,0 -57.5861,8.0797 -75.7727,15.1899 l 7.1102,-168.5569 c 79.9447,12.3987 161.4465,21.5361 242.8311,27.1477 l -5.7881,158.5968 z m 6.8457,-187.6835 c -80.7086,-5.5236 -162.0636,-14.6316 -242.6547,-27.2946 l 6.9338,-164.6786 c 3.1437,0.6758 6.3168,1.087 9.5487,1.2046 31.878,1.3221 56.4108,-1.6454 75.6552,-9.1667 28.1761,-11.3409 51.5043,-18.9799 71.3068,-23.3871 8.2854,-1.8508 17.3052,-0.7638 25.0911,2.9968 25.0618,12.105 45.4519,25.0912 60.7297,38.665 l -6.6106,181.6606 z m 35.5213,-167.7636 c 5.788,0.3525 11.3115,0.5289 16.7175,0.5289 24.5035,0 45.0993,-3.6726 62.9333,-11.2821 l 2.9968,-1.2634 2.1448,-2.4386 c 22.2119,-24.6798 41.8674,-37.7247 56.9104,-37.7247 4.2014,0 17.0114,0 31.5842,24.2683 7.257,12.1343 20.6252,19.6558 34.8748,19.6558 l 0.999,-0.029 c 8.7847,-0.2057 17.8633,-0.9696 27.3533,-2.2916 l 0.6465,183.5115 c -79.2985,2.6149 -160.8884,1.5278 -243.3305,-3.2906 l 6.1699,-169.6441 z m 219.2677,383.065 c -21.9474,15.7773 -52.4446,28.5874 -67.9575,28.5874 -0.6464,0 -1.2339,-0.029 -1.8215,-0.059 -17.5403,-1.4103 -37.1372,-12.9568 -57.8799,-25.1792 -29.2632,-17.2759 -62.4338,-36.8433 -102.8616,-36.8433 -0.4994,0 -0.9696,0 -1.469,0.029 l 5.4941,-150.8402 c 54.4424,3.2025 108.7377,4.8478 162.4162,4.8478 1.7628,0 3.5256,0 5.2885,0 25.9138,-0.059 51.5337,-0.4701 76.801,-1.2634 l 0.6169,172.0532 c -7.0512,2.0859 -13.6031,5.0827 -18.6272,8.6672 z m 46.5977,-399.1656 c 15.8362,-3.7019 32.6418,-8.7554 50.5935,-15.1604 6.9631,-2.4973 14.5435,-2.7324 21.4773,-0.6758 38.1948,11.3115 78.2993,21.7711 112.8215,21.7711 7.1982,0 14.0734,-0.4408 20.4784,-1.3514 5.2297,-0.7346 10.3713,-1.9979 15.3367,-3.7902 l 19.1855,163.4739 c -75.7726,11.9873 -156.0994,19.8613 -239.2172,23.5927 l -0.6757,-187.8599 z m 194.4117,367.6989 c -8.6967,-2.9087 -18.3923,-2.7324 -27.4709,0.4994 -3.7313,1.3223 -8.6085,2.3799 -14.2789,3.6139 -14.0439,3.085 -33.2589,7.3158 -55.9408,20.067 -6.3168,3.5549 -17.8047,6.2581 -26.707,6.2581 -1.7334,0 -3.3199,-0.1176 -4.6715,-0.3232 l -63.9617,-9.6074 -0.5876,-170.8484 c 85.292,-3.6726 166.4707,-11.576 242.5667,-23.5928 l 22.4762,191.4443 c -23.7398,-3.6433 -47.4204,-9.4606 -71.4245,-17.5109 z m 53.8546,-384.2694 c 33.7584,-33.0239 69.3091,-49.0657 108.5909,-49.0657 35.4037,0 74.5681,13.5444 116.3768,40.222 21.4185,13.662 37.519,34.4341 45.3636,58.4674 6.0524,18.598 10.1656,36.9021 12.2811,55.0006 -76.801,30.6735 -165.3837,54.4718 -261.9579,71.3656 l -20.6545,-175.9899 z m 126.2194,393.6711 c -10.1069,7.8447 -22.4762,12.3694 -34.8749,12.6925 -3.9663,0.1176 -7.9327,0.1763 -11.8403,0.1763 -10.6946,0 -21.3303,-0.4113 -31.9075,-1.2633 l -23.4457,-199.7297 c 96.0453,-16.7764 183.4821,-40.1926 260.2244,-70.014 -0.6463,91.1974 -52.944,176.2837 -158.156,258.1382 z"
         inkscape:connector-curvature="0" />
    </g>
  </g>
</svg>
