<?xml version="1.0" encoding="UTF-8" standalone="no"?>
<!-- Created with Inkscape (http://www.inkscape.org/) -->

<svg
   xmlns:osb="http://www.openswatchbook.org/uri/2009/osb"
   xmlns:dc="http://purl.org/dc/elements/1.1/"
   xmlns:cc="http://creativecommons.org/ns#"
   xmlns:rdf="http://www.w3.org/1999/02/22-rdf-syntax-ns#"
   xmlns:svg="http://www.w3.org/2000/svg"
   xmlns="http://www.w3.org/2000/svg"
   xmlns:xlink="http://www.w3.org/1999/xlink"
   xmlns:sodipodi="http://sodipodi.sourceforge.net/DTD/sodipodi-0.dtd"
   xmlns:inkscape="http://www.inkscape.org/namespaces/inkscape"
   width="600"
   height="450"
   id="svg2"
   version="1.1"
   inkscape:version="0.91 r13725"
   sodipodi:docname="osda_01.svg"
   viewBox="0 0 600 450"
   inkscape:export-filename="overlay-border.png"
   inkscape:export-xdpi="45"
   inkscape:export-ydpi="45">
  <defs
     id="defs4">
    <linearGradient
       id="linearGradient3845">
      <stop
         id="stop3847"
         offset="0"
         style="stop-color:#a6a6a6;stop-opacity:1;" />
      <stop
         id="stop3849"
         offset="1"
         style="stop-color:#ffffff;stop-opacity:1;" />
    </linearGradient>
    <linearGradient
       id="linearGradient3797">
      <stop
         id="stop3799"
         offset="0"
         style="stop-color:#f05454;stop-opacity:1;" />
      <stop
         id="stop3801"
         offset="1"
         style="stop-color:#e5c0c0;stop-opacity:1;" />
    </linearGradient>
    <linearGradient
       id="linearGradient5555"
       inkscape:collect="always">
      <stop
         id="stop5557"
         offset="0"
         style="stop-color:#e7e2f1;stop-opacity:1" />
      <stop
         id="stop5559"
         offset="1"
         style="stop-color:#161616;stop-opacity:1" />
    </linearGradient>
    <linearGradient
       id="linearGradient5457"
       inkscape:collect="always">
      <stop
         id="stop5459"
         offset="0"
         style="stop-color:#000000;stop-opacity:1;" />
      <stop
         id="stop5461"
         offset="1"
         style="stop-color:#000000;stop-opacity:0;" />
    </linearGradient>
    <linearGradient
       id="linearGradient5231">
      <stop
         id="stop5241"
         offset="0"
         style="stop-color:#0549d8;stop-opacity:1;" />
      <stop
         id="stop5235"
         offset="1"
         style="stop-color:#c8d4fb;stop-opacity:1;" />
    </linearGradient>
    <linearGradient
       osb:paint="solid"
       id="linearGradient5221">
      <stop
         id="stop5223"
         offset="0"
         style="stop-color:#8fc3da;stop-opacity:1" />
    </linearGradient>
    <inkscape:perspective
       id="perspective2993"
       inkscape:persp3d-origin="55.612728 : 36.528159 : 1"
       inkscape:vp_z="108.89234 : 40.780423 : 1"
       inkscape:vp_y="0 : 199.32489 : 0"
       inkscape:vp_x="2.3331212 : 40.780423 : 1"
       sodipodi:type="inkscape:persp3d" />
    <linearGradient
       gradientTransform="translate(2.5,0.71428572)"
       gradientUnits="userSpaceOnUse"
       y2="1029.4626"
       x2="85.352814"
       y1="1029.4626"
       x1="34.350262"
       id="linearGradient5685"
       xlink:href="#linearGradient5679"
       inkscape:collect="always" />
    <linearGradient
       id="linearGradient5679"
       inkscape:collect="always">
      <stop
         id="stop5681"
         offset="0"
         style="stop-color:#db3851;stop-opacity:1;" />
      <stop
         id="stop5683"
         offset="1"
         style="stop-color:#dcbfc3;stop-opacity:1" />
    </linearGradient>
    <linearGradient
       inkscape:collect="always"
       xlink:href="#linearGradient5555"
       id="linearGradient5774-1"
       gradientUnits="userSpaceOnUse"
       gradientTransform="matrix(-0.99244243,0,0,1,117.89101,1.1887384)"
       x1="34.350262"
       y1="1029.4626"
       x2="85.352814"
       y2="1029.4626" />
    <linearGradient
       gradientTransform="matrix(-0.23324009,-0.17626825,-0.18578029,0.24582653,213.51205,742.14619)"
       gradientUnits="userSpaceOnUse"
       y2="1032.6786"
       x2="-42.885998"
       y1="1012.8904"
       x1="-63.890354"
       id="linearGradient3851-8"
       xlink:href="#linearGradient3845"
       inkscape:collect="always" />
    <linearGradient
       inkscape:collect="always"
       xlink:href="#linearGradient3845"
       id="linearGradient3868-7"
       gradientUnits="userSpaceOnUse"
       gradientTransform="matrix(-0.28025523,-0.08323725,-0.08772901,0.29537877,111.75642,710.73867)"
       x1="-63.890354"
       y1="1012.8904"
       x2="-42.885998"
       y2="1032.6786" />
    <linearGradient
       inkscape:collect="always"
       xlink:href="#linearGradient5679"
       id="linearGradient5200-4"
       gradientUnits="userSpaceOnUse"
       gradientTransform="matrix(-0.99244243,0,0,-1.0369203,122.82193,2093.913)"
       x1="27.988731"
       y1="1025.8502"
       x2="94.004494"
       y2="1031.3474" />
    <linearGradient
       inkscape:collect="always"
       xlink:href="#linearGradient5679-2-2"
       id="linearGradient5327-8"
       gradientUnits="userSpaceOnUse"
       gradientTransform="matrix(-0.99244243,0,0,-1.3925146,-8.0232971,2482.2487)"
       x1="27.988731"
       y1="1025.8502"
       x2="94.004494"
       y2="1031.3474" />
    <linearGradient
       id="linearGradient5679-2-2">
      <stop
         id="stop5681-1-2"
         offset="0"
         style="stop-color:#b3001c;stop-opacity:0.97321427;" />
      <stop
         id="stop5683-2-7"
         offset="1"
         style="stop-color:#b1021a;stop-opacity:1;" />
    </linearGradient>
    <linearGradient
       gradientTransform="matrix(0.64156392,-0.10254749,0,0.88537008,100.86896,919.07)"
       gradientUnits="userSpaceOnUse"
       y2="75.225533"
       x2="-58.384766"
       y1="74.908371"
       x1="-130.66469"
       id="linearGradient3991"
       xlink:href="#linearGradient5457"
       inkscape:collect="always" />
    <linearGradient
       gradientUnits="userSpaceOnUse"
       y2="986.97632"
       x2="61.995449"
       y1="986.97632"
       x1="14.559077"
       id="linearGradient4153"
       xlink:href="#linearGradient5457"
       inkscape:collect="always" />
    <linearGradient
       inkscape:collect="always"
       xlink:href="#linearGradient3845"
       id="linearGradient3919"
       gradientUnits="userSpaceOnUse"
       gradientTransform="matrix(-0.14028903,-0.19738289,-0.20595634,0.14267866,241.27311,845.24982)"
       x1="-63.890354"
       y1="1012.8904"
       x2="-42.885998"
       y2="1032.6786" />
    <linearGradient
       inkscape:collect="always"
       xlink:href="#linearGradient5679-2-2"
       id="linearGradient6211-6"
       gradientUnits="userSpaceOnUse"
       gradientTransform="matrix(-0.20456773,0.12958805,0.13151812,0.21325618,-48.985275,811.2288)"
       x1="-63.890354"
       y1="1012.8904"
       x2="-42.885998"
       y2="1032.6786" />
    <linearGradient
       inkscape:collect="always"
       xlink:href="#linearGradient5679-2-2"
       id="linearGradient6211-0"
       gradientUnits="userSpaceOnUse"
       gradientTransform="matrix(-0.20456773,0.12958805,0.13151812,0.21325618,-53.530961,810.97626)"
       x1="-63.890354"
       y1="1012.8904"
       x2="-42.885998"
       y2="1032.6786" />
    <linearGradient
       id="linearGradient7554">
      <stop
         style="stop-color:#fff1f1;stop-opacity:0.75;"
         offset="0"
         id="stop7556" />
      <stop
         style="stop-color:#000000;stop-opacity:1;"
         offset="1"
         id="stop7558" />
    </linearGradient>
    <linearGradient
       y2="755.74"
       x2="429.83"
       gradientTransform="matrix(.36255 -.36255 .36255 .36255 -66.756 397.74)"
       y1="755.74"
       gradientUnits="userSpaceOnUse"
       x1="290.83"
       id="linearGradient4530">
      <stop
         offset="0"
         stop-color="#4d4d4d"
         id="stop5697" />
      <stop
         offset="1"
         stop-opacity="0"
         stop-color="#4d4d4d"
         id="stop5699" />
    </linearGradient>
    <linearGradient
       y2="648.26"
       x2="406.71"
       gradientTransform="matrix(0.36255,-0.36255,0.36255,0.36255,-19.586,428.5)"
       y1="648.26"
       gradientUnits="userSpaceOnUse"
       x1="268.71"
       id="linearGradient4533">
      <stop
         offset="0"
         stop-color="#ccc"
         id="stop5655" />
      <stop
         offset="1"
         stop-color="#929292"
         id="stop5657" />
    </linearGradient>
    <radialGradient
       r="266.68"
       gradientTransform="matrix(0.20092,-0.20712,0.064453,0.062536,243.82,725.94)"
       cx="524.96"
       cy="838.21"
       gradientUnits="userSpaceOnUse"
       fy="620.53"
       fx="525.34"
       id="radialGradient4544">
      <stop
         offset="0"
         stop-color="#008100"
         id="stop3848" />
      <stop
         offset=".20624"
         stop-color="#005d00"
         id="stop3854" />
      <stop
         offset=".8532"
         stop-color="#006a00"
         id="stop3858" />
      <stop
         offset="1"
         stop-color="#004300"
         id="stop3850" />
    </radialGradient>
    <radialGradient
       r="50.609"
       gradientTransform="matrix(-0.62812,0.59341,-3.7081,-3.9249,1982.5,1755.9)"
       cx="297.34"
       cy="462.68"
       gradientUnits="userSpaceOnUse"
       fy="460.45"
       fx="331.03"
       id="radialGradient4553">
      <stop
         offset="0"
         stop-opacity=".41985"
         stop-color="#fff"
         id="stop3890" />
      <stop
         offset="1"
         stop-opacity="0"
         stop-color="#fff"
         id="stop3892" />
    </radialGradient>
    <radialGradient
       r="67.141"
       gradientTransform="matrix(-0.40383,-0.36863,0.13444,-0.14727,563.98,619.3)"
       cx="409.92"
       cy="-9.2813"
       gradientUnits="userSpaceOnUse"
       id="radialGradient4645">
      <stop
         offset="0"
         stop-color="#006000"
         id="stop3851" />
      <stop
         offset=".53513"
         stop-color="#006000"
         id="stop3866" />
      <stop
         offset=".56255"
         stop-color="#008000"
         id="stop3864" />
      <stop
         offset=".73112"
         stop-color="#00a200"
         id="stop3857" />
      <stop
         offset="1"
         stop-color="#060"
         id="stop3853" />
    </radialGradient>
    <linearGradient
       id="imagebot_82">
      <stop
         offset="0"
         stop-color="#dfdfdf"
         id="imagebot_104" />
      <stop
         offset="1"
         stop-color="#fff"
         id="imagebot_103" />
    </linearGradient>
    <filter
       color-interpolation-filters="sRGB"
       id="imagebot_50">
      <feGaussianBlur
         stdDeviation="2.08236"
         id="imagebot_84" />
    </filter>
    <filter
       color-interpolation-filters="sRGB"
       id="imagebot_77">
      <feGaussianBlur
         stdDeviation="2.68359"
         id="imagebot_83" />
    </filter>
    <linearGradient
       x1="746.17556"
       x2="719.02793"
       y1="706.61178"
       xlink:href="#imagebot_82"
       y2="610.96385"
       id="imagebot_75"
       gradientTransform="scale(0.93314657,1.071643)"
       gradientUnits="userSpaceOnUse" />
    <linearGradient
       x1="716.39903"
       x2="732.20632"
       y1="619.24016"
       xlink:href="#imagebot_82"
       y2="692.02572"
       id="imagebot_68"
       gradientTransform="scale(0.93313895,1.0716518)"
       gradientUnits="userSpaceOnUse" />
    <linearGradient
       y2="623.91586"
       x1="726.47682"
       y1="615.75739"
       x2="737.16982"
       id="imagebot_48"
       gradientTransform="scale(0.93594535,1.0684385)"
       gradientUnits="userSpaceOnUse">
      <stop
         offset="0"
         stop-color="#9b6a06"
         id="imagebot_91" />
      <stop
         offset=".10284"
         stop-color="#b38e29"
         id="imagebot_90" />
      <stop
         offset=".25018"
         stop-color="#faf892"
         id="imagebot_89" />
      <stop
         offset=".51725"
         stop-color="#ddba32"
         id="imagebot_88" />
      <stop
         offset=".6932"
         stop-color="#cf9e08"
         id="imagebot_87" />
      <stop
         offset=".73575"
         stop-color="#976400"
         id="imagebot_86" />
      <stop
         offset="1"
         stop-color="#976400"
         id="imagebot_85" />
    </linearGradient>
    <linearGradient
       y2="708.58134"
       x1="648.2462"
       y1="707.64765"
       x2="649.9041"
       id="imagebot_46"
       gradientTransform="scale(0.95014084,1.0524755)"
       gradientUnits="userSpaceOnUse">
      <stop
         offset="0"
         stop-color="#a07100"
         id="imagebot_94" />
      <stop
         offset=".43039"
         stop-color="#f4f300"
         id="imagebot_93" />
      <stop
         offset="1"
         stop-color="#9e700b"
         id="imagebot_92" />
    </linearGradient>
    <linearGradient
       y2="748.42962"
       x1="614.02773"
       y1="745.21991"
       x2="617.53384"
       id="imagebot_44"
       gradientTransform="scale(1.0082381,0.99182919)"
       gradientUnits="userSpaceOnUse">
      <stop
         offset="0"
         stop-color="#a07100"
         id="imagebot_97" />
      <stop
         offset=".38158"
         stop-color="#f6f600"
         id="imagebot_96" />
      <stop
         offset="1"
         stop-color="#9e700b"
         id="imagebot_95" />
    </linearGradient>
    <linearGradient
       y2="671.43373"
       x1="684.67244"
       y1="679.81013"
       x2="673.2575"
       id="imagebot_42"
       gradientTransform="scale(0.92919642,1.0761987)"
       gradientUnits="userSpaceOnUse">
      <stop
         offset="0"
         stop-color="#375a93"
         id="imagebot_102" />
      <stop
         offset=".36961"
         stop-color="#5c9eda"
         id="imagebot_101" />
      <stop
         offset=".53886"
         stop-color="#97cafd"
         id="imagebot_100" />
      <stop
         offset=".77808"
         stop-color="#8bbff3"
         id="imagebot_99" />
      <stop
         offset="1"
         stop-color="#2a629a"
         id="imagebot_98" />
    </linearGradient>
  </defs>
  <sodipodi:namedview
     id="base"
     pagecolor="#ffffff"
     bordercolor="#666666"
     borderopacity="1.0"
     inkscape:pageopacity="0.0"
     inkscape:pageshadow="2"
     inkscape:zoom="0.84"
     inkscape:cx="683.33509"
     inkscape:cy="166.52121"
     inkscape:document-units="px"
     inkscape:current-layer="layer1"
     showgrid="false"
     units="px"
     inkscape:window-width="1920"
     inkscape:window-height="1003"
     inkscape:window-x="0"
     inkscape:window-y="25"
     inkscape:window-maximized="1" />
  <metadata
     id="metadata7">
    <rdf:RDF>
      <cc:Work
         rdf:about="">
        <dc:format>image/svg+xml</dc:format>
        <dc:type
           rdf:resource="http://purl.org/dc/dcmitype/StillImage" />
        <dc:title></dc:title>
      </cc:Work>
    </rdf:RDF>
  </metadata>
  <g
     inkscape:label="Layer 1"
     inkscape:groupmode="layer"
     id="layer1"
     transform="translate(0,-602.36218)">
    <g
       id="g3928"
       transform="matrix(-0.08330948,-0.16800895,0.16800895,-0.08330948,258.49224,741.75386)" />
    <g
       label="Layer 1"
       id="imagebot_1"
       transform="matrix(0.85932736,0,0,0.85932736,148.80956,638.18052)">
      <g
         label="Layer 1"
         transform="matrix(3.3801,0,0,3.3801,-2322.2,-2174.65)"
         id="imagebot_38">
        <g
           id="imagebot_52">
          <path
             d="m 764.59,651.12 -77.56,18.97 21.09,95.79 78.85,-19.29 -22.38,-95.47 z"
             id="imagebot_76"
             inkscape:connector-curvature="0"
             style="opacity:0.51667026;filter:url(#imagebot_77)" />
          <g
             transform="translate(40,0)"
             id="imagebot_60">
            <path
               d="m 649.04,666.11 21.08,95.75 78.84,-19.25 -22.38,-95.5 -77.54,19 z"
               id="imagebot_74"
               inkscape:connector-curvature="0"
               style="fill:url(#imagebot_75)" />
            <path
               d="m 651,667.61 20.25,92 75.75,-18.5 -21.5,-91.75 -74.5,18.25 z"
               id="imagebot_64"
               inkscape:connector-curvature="0"
               style="fill:url(#imagebot_68)" />
          </g>
        </g>
        <path
           d="m 763.38,661.03 a 1.0001,1.0001 0 0 0 -0.16,0.03 l -64.72,15.75 a 1.0001,1.0001 0 1 0 0.47,1.94 L 763.69,663 a 1.0001,1.0001 0 0 0 -0.31,-1.97 z m 1.65,7.94 a 1.0051,1.0051 0 0 0 -0.15,0.03 1.0001,1.0001 0 0 0 -0.1,0.03 l -64.34,15.91 a 1.0016986,1.0016986 0 1 0 0.5,1.94 l 64.34,-15.91 a 1.0078,1.0078 0 1 0 -0.25,-2 z m 1.94,7.59 a 1.0051,1.0051 0 0 0 -0.16,0.03 1.0001,1.0001 0 0 0 -0.06,0.03 l -65.78,15.91 a 1.0001,1.0001 0 1 0 0.47,1.94 l 65.78,-15.91 a 1.0078,1.0078 0 1 0 -0.25,-2 z m 1.34,8.16 a 1.0001,1.0001 0 0 0 -0.15,0.03 l -65.41,16.09 a 1.0001,1.0001 0 1 0 0.47,1.94 l 65.4,-16.09 a 1.0001,1.0001 0 0 0 -0.31,-1.97 z m 2,8.47 a 1.0051,1.0051 0 0 0 -0.15,0.03 1.0001,1.0001 0 0 0 -0.07,0.03 l -65.03,15.72 a 1.0001,1.0001 0 1 0 0.47,1.94 l 65.03,-15.72 a 1.0078,1.0078 0 1 0 -0.25,-2 z m 1.97,8.31 a 1.0051,1.0051 0 0 0 -0.16,0.03 1.0001,1.0001 0 0 0 -0.09,0.03 l -64.87,15.72 a 1.0001,1.0001 0 1 0 0.46,1.94 l 64.91,-15.72 a 1.0078,1.0078 0 1 0 -0.25,-2 z m 1.53,7.78 a 1.0001,1.0001 0 0 0 -0.19,0.06 l -64.34,16.07 a 1.0005,1.0005 0 1 0 0.5,1.93 l 64.34,-16.06 a 1.006,1.006 0 1 0 -0.21,-2 1.0001,1.0001 0 0 0 -0.1,0 z m 2.47,8.5 a 1.0001,1.0001 0 0 0 -0.16,0.03 l -65.78,15.91 a 1.0001,1.0001 0 1 0 0.47,1.94 l 65.78,-15.91 a 1.0001,1.0001 0 0 0 -0.31,-1.97 z m 1.81,7.94 a 1.0051,1.0051 0 0 0 -0.15,0.03 1.0001,1.0001 0 0 0 -0.06,0.03 l -65.6,15.91 a 1.0005,1.0005 0 1 0 0.5,1.93 l 65.56,-15.9 a 1.0078,1.0078 0 1 0 -0.25,-2 z m 1.6,8.66 a 1.0051,1.0051 0 0 0 -0.16,0.03 1.0001,1.0001 0 0 0 -0.06,0.03 L 713.72,750 a 1.0001,1.0001 0 1 0 0.47,1.94 l 65.75,-15.56 a 1.0078,1.0078 0 1 0 -0.25,-2 z"
           id="imagebot_51"
           inkscape:connector-curvature="0"
           style="fill:#547ca5;stroke-width:2" />
        <g
           id="imagebot_39">
          <path
             d="m 784.41,657.16 c -0.63,0.02 -0.91,0.22 -0.91,0.22 l -4.31,4.9 c -1.58,-0.08 -2.41,0.41 -2.41,0.41 -17.94,22.17 -36.03,44.5 -46.72,59.4 -4.28,5.97 -7.89,11.27 -9.03,14.1 l 0.13,0.09 -3.5,8.53 0.46,0.31 c -0.27,0.84 -0.79,2.42 -0.53,2.6 0.35,0.23 1.57,-0.76 2.29,-1.38 l 0.53,0.35 7.18,-5.19 0.69,0.56 c 0,0 13.02,-12.23 19.06,-18.81 14.96,-16.27 42.44,-50.94 42.44,-50.94 0,0 0.19,-0.47 0.13,-1.28 1.03,-1.29 2.07,-2.63 2.53,-3.31 1.07,-1.61 2.48,-4.1 -2.16,-7.84 -2.9,-2.35 -4.84,-2.76 -5.87,-2.72 z"
             id="imagebot_49"
             inkscape:connector-curvature="0"
             style="opacity:0.59166996;filter:url(#imagebot_50)" />
          <g
             transform="translate(99.514,-0.35355)"
             id="imagebot_40">
            <path
               d="m 676.8,661.61 5.18,-5.89 c 0,0 2.14,-1.25 6.79,2.5 4.64,3.75 3.21,6.25 2.14,7.85 -1.07,1.61 -5.36,6.79 -5.36,6.79 l -8.75,-11.25 z"
               id="imagebot_47"
               inkscape:connector-curvature="0"
               style="fill:url(#imagebot_48)" />
            <path
               d="m 616.83,742.79 c 0,0 -1.09,3.07 -0.75,3.3 0.46,0.31 2.94,-1.93 2.94,-1.93 l -2.19,-1.37 z"
               id="imagebot_45"
               inkscape:connector-curvature="0"
               style="fill:url(#imagebot_46)" />
            <path
               d="m 619.83,734.16 -3.69,9 2.75,1.88 8.31,-6 -7.37,-4.88 z"
               id="imagebot_43"
               inkscape:connector-curvature="0"
               style="fill:url(#imagebot_44)" />
            <path
               d="m 675.27,661.04 c -17.95,22.17 -36.04,44.49 -46.72,59.39 -4.28,5.97 -7.9,11.28 -9.03,14.11 l 7.25,5.87 c 0,0 13.01,-12.24 19.06,-18.82 14.95,-16.27 42.44,-50.93 42.44,-50.93 0,0 1.37,-3.25 -4.25,-7.37 -5.63,-4.13 -8.75,-2.25 -8.75,-2.25 z"
               id="imagebot_41"
               inkscape:connector-curvature="0"
               style="fill:url(#imagebot_42)" />
          </g>
        </g>
      </g>
      <title
         id="title3896"
         label="Layer 1" />
      <text
         x="204.5"
         y="60"
         label="Layer 1"
         transform="matrix(3.4594293,-0.92824568,0.96740418,3.605367,-553.15694,82.619186)"
         xml:space="preserve"
         font-size="24"
         id="imagebot_37"
         style="font-size:24px;font-family:Cursive;text-anchor:middle;fill:#000000;stroke:#000000;stroke-width:0;stroke-linecap:round;stroke-linejoin:round">A+</text>
      <circle
         r="0"
         cx="277.5"
         cy="-63"
         label="Layer 1"
         fill-opacity="null"
         stroke-opacity="null"
         id="imagebot_36"
         style="stroke-linecap:round;stroke-linejoin:round;stroke-dasharray:none" />
      <circle
         r="0"
         cx="-80.5"
         cy="-41"
         label="Layer 1"
         fill-opacity="null"
         stroke-opacity="null"
         id="imagebot_34"
         style="stroke-linecap:round;stroke-linejoin:round;stroke-dasharray:none" />
      <circle
         r="0"
         cx="-82.5"
         cy="33"
         label="Layer 1"
         fill-opacity="null"
         stroke-opacity="null"
         id="imagebot_33"
         style="stroke-linecap:round;stroke-linejoin:round;stroke-dasharray:none" />
      <circle
         r="0"
         cx="149.5"
         cy="65"
         label="Layer 1"
         fill-opacity="null"
         stroke-opacity="null"
         id="imagebot_32"
         style="stroke-linecap:round;stroke-linejoin:round;stroke-dasharray:none" />
      <polyline
         points="112.5 122 112.5 122"
         label="Layer 1"
         fill-opacity="null"
         stroke-opacity="null"
         id="imagebot_31"
         style="fill:none;stroke:#000000;stroke-linecap:round;stroke-linejoin:round;stroke-dasharray:none" />
      <circle
         r="0"
         cx="76.5"
         cy="114"
         label="Layer 1"
         fill-opacity="null"
         stroke-opacity="null"
         id="imagebot_2"
         style="stroke-linecap:round;stroke-linejoin:round;stroke-dasharray:none" />
    </g>
  </g>
</svg>
