<?xml version="1.0" encoding="UTF-8" standalone="no"?>
<!-- Created with Inkscape (http://www.inkscape.org/) -->

<svg
   xmlns:dc="http://purl.org/dc/elements/1.1/"
   xmlns:cc="http://creativecommons.org/ns#"
   xmlns:rdf="http://www.w3.org/1999/02/22-rdf-syntax-ns#"
   xmlns:svg="http://www.w3.org/2000/svg"
   xmlns="http://www.w3.org/2000/svg"
   xmlns:sodipodi="http://sodipodi.sourceforge.net/DTD/sodipodi-0.dtd"
   xmlns:inkscape="http://www.inkscape.org/namespaces/inkscape"
   width="600"
   height="450"
   id="svg2"
   version="1.1"
   inkscape:version="0.91 r13725"
   sodipodi:docname="uyoi_03.svg"
   viewBox="0 0 600 450"
   inkscape:export-filename="overlay-border.png"
   inkscape:export-xdpi="45"
   inkscape:export-ydpi="45">
  <defs
     id="defs4" />
  <sodipodi:namedview
     id="base"
     pagecolor="#ffffff"
     bordercolor="#666666"
     borderopacity="1.0"
     inkscape:pageopacity="0.0"
     inkscape:pageshadow="2"
     inkscape:zoom="0.84"
     inkscape:cx="683.33509"
     inkscape:cy="166.52121"
     inkscape:document-units="px"
     inkscape:current-layer="layer1"
     showgrid="false"
     units="px"
     inkscape:window-width="1920"
     inkscape:window-height="1003"
     inkscape:window-x="0"
     inkscape:window-y="25"
     inkscape:window-maximized="1" />
  <metadata
     id="metadata7">
    <rdf:RDF>
      <cc:Work
         rdf:about="">
        <dc:format>image/svg+xml</dc:format>
        <dc:type
           rdf:resource="http://purl.org/dc/dcmitype/StillImage" />
        <dc:title></dc:title>
      </cc:Work>
    </rdf:RDF>
  </metadata>
  <g
     inkscape:label="Layer 1"
     inkscape:groupmode="layer"
     id="layer1"
     transform="translate(0,-602.36218)">
    <g
       id="g3928"
       transform="matrix(-0.08330948,-0.16800895,0.16800895,-0.08330948,258.49224,741.75386)" />
    <g
       id="g3427"
       transform="matrix(0.28897725,0,0,0.28897725,166.73055,618.21756)">
      <path
         id="path3429"
         d="m 382.04,34.23 c 47.84,-5.88 96.83,-1.45 142.99,12.31 72,21.07 136.8199,64.17 186.31,120.26 24.7599,28.17 45.79,59.74 61.22,93.95 17.57,39.27 27.83,82.12 27.41,125.26 0.02,45.37 -12.97,90.55 -36.6,129.24 -8.7,14.11 -18.11,27.96 -29.82,39.77 -1.71,1.49 -3.3,3.1 -4.8,4.79 1.55,0.04 3.09,0.05 4.65,0.05 2.94,0.4 3.5099,3.7 4.09,6.08 1.61,8.11 4.38,16.77 11.35,21.87 7.81,5.67 18.24,4.68 27.0699,2.39 13.7401,-4.17 26.42,-12.56 35.1,-24.05 4.28,-5.22 4.59,-12.83 1.13,-18.56 -7.67,-13.69 -20.11,-23.81 -32.26,-33.3701 -1.91,-1.7599 -5.31,-3.08 -4.74,-6.21 0.13,-4.75 3.26,-8.69 5.55,-12.65 3.18,-0.22 6.45,-0.18 9.41,1.17 15.47,5.97 30.4901,14.19 41.9301,26.39 9.48,9.5 15.93,22.53 15.71,36.14 0.12,12.56 -6.14,24.24 -14.24,33.47 -14.26,16.0699 -34.19,27.45 -55.6,30.24 -9.97,1.54 -20.32,0.51 -29.82,-2.82 -11.17,-4.09 -20.85,-12.53 -25.8,-23.4 -2.4,-5.62 -4.13,-11.62 -4.27,-17.76 0,-2.92 0.03,-5.84 -0.03,-8.75 -2.1,1.9 -4.13,3.88 -6.16,5.87 -30.43,25.78 -67.35,43.34 -105.87,53.25 -40.36,10.58 -82.51,12.73 -124.03,10.17 -4.28,-0.25 -8.64,-1.29 -12.84,0.04 -0.17,5.72 1.76,11.16 3.05,16.66 3.35,13.55 6.99,27.02 10.82,40.45 0.74,2 1.02,4.56 3.06,5.75 2.63,0.72 5.34,1.12 8.02,1.66 0.93,2.65 1.78,5.34 2.33,8.11 8.4,39.4 24.99,76.36 42.44,112.46 12.89,27.04 26.12,53.97 36.99,81.91 8.75,21.89 15.35,44.58 20.19,67.64 5.68,1.58 10.82,4.59 16.38,6.51 0.19,0.23 0.58,0.7 0.77,0.93 0.7,1.58 2.64,0.87 2.81,-0.64 0.14,-0.32 0.41,-0.96 0.55,-1.28 7.95,-9.05 15.02,-18.89 23.39,-27.58 5.52,-6.16 11.1,-12.28 17.45,-17.6 10.46,-9.96 22.82,-18.19 36.62,-22.67 2.71,-0.63 5.69,-0.41 8,1.26 17.52,10.79 31.16,26.77 42.45,43.76 6.41,9.83 12.27,20.01 17.66,30.43 3.46,6.61 5.94,13.78 10.29,19.91 11.06,1.2401 22.29,5.29 30.23,13.34 0.91,0.83 1.9,1.59 2.91,2.35 0.05,0.27 0.16,0.81 0.22,1.08 -0.13,2.46 2.82,1.92 3.15,-0.06 0.16,-0.29 0.49,-0.89 0.66,-1.18 4.65,-3.25 9.61,-6.31 15.28,-7.38 11.99,-2.88 24.44,2.67 32.87,11.1 12.79,11.87 21.52,28.8999 20.83,46.61 -0.56,13.87 -9.47,26.8099 -21.68,33.08 -1.2,0.51 -2.38,1.05 -3.56,1.59 1.14,0.55 2.28,1.0901 3.47,1.5901 7.08,2.58 13.37,7 19.05,11.9 7.87,6.98 13.12,17.21 12.72,27.8799 -0.57,8.88 -5.12,17.0701 -11.06,23.52 -10.6,10.65 -24.35,18.8401 -39.52,20.3301 -7.75,0.9099 -15.91,-0.04 -22.96,-3.4701 -1.77,-1.08 -3.48,-2.1799 -5.19,-3.2799 -0.3,1.9299 -0.58,3.84 -0.83,5.8099 -1.65,9.55 -7.13,18.76 -15.68,23.63 -9.03,5.36 -20.28,5.3301 -30.15,2.59 -15.73,-4.35 -30.7,-13.95 -38.71,-28.5 -7.17,-12.11 -6.55,-27.8099 0.29,-39.9099 0.75,-0.85 1.42,-1.78 2.13,-2.64 l 0.2,-0.24 c 0.95,-1.28 1.86,-2.5601 2.77,-3.86 -8.33,1.21 -16.95,2.12 -25.27,0.5 l -0.53,0.02 c -7.38,-0.1 -14.54,-3.5499 -20.02,-8.37 -8.37,-7.34 -11.65,-19.21 -10.1299,-30.0199 2.1299,-15.27 9.18,-30.1101 20.75,-40.4701 5.77,-5.01 12.67,-9.0699 20.25,-10.47 1.64,-0.1799 3.29,-0.2999 4.94,-0.42 -0.61,-3.2699 -1.2401,-6.5399 -1.69,-9.83 -0.8701,-11.3199 5.19,-22.95 15.0699,-28.61 1.53,-0.84 3.09,-1.61 4.64,-2.39 -1.38,-1.97 -2.79,-3.91 -4.25,-5.8 -11.65,-17.7 -23.09,-35.65 -36.71,-51.93 -1.06,-1.34 -2.9,-1.83 -3.79,-3.28 -19.67,12.53 -35.79,30.07 -51.39,47.31 l -0.03,-0.03 c -1.2,1.09 -2.38,2.22 -3.56,3.34 1.12,1.4901 2.25,2.96 3.43,4.4301 l 0.23,0.28 c 6.53,9.29 10,21.23 7.21,32.47 -1.54,6.64 -5.66,12.27 -9.94,17.4299 -9.7,11.74 -22.65,21.6001 -37.77,24.8501 -7.03,1.6 -14.26,0.71 -21.37,0.36 -6.05,6.09 -9.4,14.25 -14.81,20.84 -3.65,7.3 -8.47,13.98 -12.43,21.14 -6.47,10.58 -11.86,21.78 -18.33,32.35 -2.44,0.22 -4.89,0.17 -7.3,-0.1801 -2.55,-1.36 -5.16,-2.6 -7.61,-4.1299 -0.81,-5.5701 2.45,-10.3301 4.39,-15.27 9.51,-21.63 20.27,-42.7001 31.92,-63.24 1.56,-2.4 2.55,-5.0901 3.41,-7.79 -1.0099,-3.25 -2.37,-6.4 -4.3,-9.2 -0.27,-1.4801 0.32,-3.4601 -1.06,-4.4601 -1.51,0.7001 -1.53,3.0701 -1.34,4.5701 -3.61,6.0599 -6.8,12.4099 -11.38,17.84 -14.37,18.35 -34.42,31.09 -55.04,41.35 0.01,13.62 1,27.23 0.86,40.86 -0.32,51.73 -3.21,103.4 -4.6,155.11 0.04,7.3101 -0.36,14.66 0.57,21.9401 22.72,5.6799 45.47,11.2999 68.4,16.1 12.08,1.98 24.21,4.6901 36.52,4.42 l 0.48,0.9299 -0.2,-0.9299 c 1.31,-0.16 2.64,-0.28 3.97,-0.36 -1.27,-1.3501 -0.42,-3.4601 -1.45,-4.9401 -5.59,-9.0599 -15.2401,-14.61 -24.78,-18.71 -17.59,-7.03 -37.91,-8.12 -55.7,-1.15 -3.6,1.3 -7.06,3.67 -11.07,2.98 -2.16,-2.72 -4.45,-5.35 -6.26,-8.3099 -0.85,-1.99 -0.45,-4.2301 -0.57,-6.3101 5.72,-4.04 11.48,-8.1 17.96,-10.87 24.58,-10.91 53.58,-9.91 78.1,0.67 4.39,2.23 9.28,3.9299 12.88,7.3999 15.74,8.9 27.73,26.4901 26.52,45.0801 -0.81,7.66 -3.04,15.6 -8.09,21.59 -5.86,5.41 -13.8,7.97 -21.46,9.5701 -22.36,3.8199 -45.08,0.11 -67.23,-3.3401 -27.92,-4.4099 -55.25,-11.76 -82.89,-17.5599 -3.24,-0.6801 -8.12,-1.3101 -7.92,-5.65 -0.13,-14.23 -1.19,-28.46 -0.51,-42.6801 1.19,-65.63 11.01,-130.6499 18.42,-195.76 -35.72,11.27 -74.11,14.3401 -111.12,8.4301 -5.37,-0.99 -10.82,-1.76 -16.06,-3.33 -1.84,-0.3301 -2.49,-2.4 -2.64,-3.98 0.31,-3.5 1.12,-6.91 1.85,-10.3301 0.16,-0.6 0.49,-1.8099 0.66,-2.41 7.1,-0.97 14.23,0.3201 21.34,0.42 33.24,0.84 66.63,-5.33 97.36,-18.04 4.08,-1.73 8.25,-3.37 11.85,-6.01 1.46,-6.7899 0.66,-14.1299 3.1,-20.6 4.89,-2.12 10.99,-2.23 16.22,-0.9 0.42,1.0601 0.77,2.16 1.05,3.29 0.26,2.63 0.41,5.26 0.65,7.9 1.28,-1 2.54,-2.02 3.81,-3.03 12.44,-9.52 25.22,-20.11 31.54,-34.87 3.58,-7.8099 2.21,-16.58 1.57,-24.83 -5.72,-70.84 -26.32,-139.2 -43.44,-207.85 -0.8,-3.06 -2.05,-6.04 -2.04,-9.24 1.86,-11.46 3.39,-23.37 0.38,-34.79 -1.71,-8.46 -5.67,-16.21 -10.18,-23.49 -0.66,-0.02 -1.96,-0.0601 -2.61,-0.08 0.4,-0.11 1.2,-0.35 1.6,-0.46 -2.28,-2.67 -3.67,-5.91 -4.13,-9.37 -0.72,0.65 -1.45,1.29 -2.19,1.92 l -1.17,0.01 c 1.68,-1.81 3,-3.99 2.21,-6.54 -4.82,-27.43 -8.04,-55.2 -8.36,-83.07 -0.07,-2.47 -0.18,-4.97 -0.88,-7.33 -1.08,-2.37 -4.09,-2.25 -6.26,-2.81 -25.4,-3.9 -50.5,-9.72 -74.94,-17.63 -1.7,-0.66 -4.29,-1.11 -4.51,-3.31 -0.5,-4.93 1.89,-9.53 3.33,-14.11 4.51,-0.94 8.99,0.25 13.32,1.42 46.94,10.56 95.39,15.76 143.47,11.93 1.03,-0.14 2.08,-0.29 3.12,-0.44 -0.55,0.31 -1.09,0.64 -1.63,0.96 3.07,-1.42 6.52,-1.02 9.78,-1.52 38.97,-4.3199 77.77,-14.29 112.46,-32.9 34.13,-18.45 63.63,-45.92 82.96,-79.69 18.8,-31.55 29.33,-67.92 30.36,-104.63 1.35,-41.43 -9.04,-82.71 -27.01,-119.89 C 701.94,210.64 650.34,157.13 588.94,121.2 551.28,98.91 509.4,83.48 466.03,77.24 434.47,72.53 402.21,72.9 370.74,78.1 c -29.27,5.07 -57.5,16.61 -81.56,34.11 -25.53,18.17 -46.37,42.35 -62.54,69.08 -31.27,53.2 -44.74,116.42 -39.11,177.78 4.24,48.38 20.73,96.25 50.51,134.92 3.27,4.31 6.85,8.37 10.25,12.57 0.83,1.12 1.65,2.24 2.46,3.38 1.12,-0.88 2.23,-1.77 3.29,-2.7 15.89,-13.94 37.01,-21.06 57.97,-21.89 18.57,-0.53 37.43,3.58 53.73,12.61 21.24,11.96 38.38,32.66 42.74,57.03 2.14,9.54 1.04,19.35 0.65,29.01 -0.06,2.56 -0.58,5.12 -1.95,7.32 -10.02,-11.45 -19.3,-23.61 -30.41,-34.06 -12.01,-11.35 -26.49,-19.93 -41.98,-25.59 -18.21,-6.73 -37.6,-9.3 -56.82,-11.18 -5.07,-0.28 -10.35,-1.02 -15.27,0.56 13.53,13.14 28.98,24.18 45.26,33.67 2.42,1.03 3.08,3.86 2.08,6.16 -1.36,3.21 -2.73,6.48 -4.82,9.3 -1.52,2.11 -4.34,0.95 -6.27,0.15 -32.71,-15.57 -61.83,-38.59 -84.41,-66.94 -31.73,-39.93 -51.72,-88.85 -58.19,-139.38 -0.6,-4.29 -0.86,-8.65 -1.99,-12.85 -1.27,0.11 -2.53,0.25 -3.79,0.39 -11.09,9.61 -25.96,14.42 -40.56,13.93 C 95.23,364.92 81.06,358.57 69.9,349.03 60.61,340.99 52.98,331.14 46.98,320.45 38.49,305.93 32.36,289.12 34.14,272.07 c 1.06,-14.88 10.13,-28.69 22.91,-36.21 16.9,-10.46 37.54,-12.24 56.96,-11.45 15.22,0.55 30.27,3.45 44.95,7.41 1.99,0.67 4.3,-0.07 6.15,1.01 12.78,-46.17 35.41,-90.23 68.75,-124.96 C 251.54,89.04 272.32,73.12 295.1,60.95 322.08,46.72 351.76,37.7 382.04,34.23 M 134.88,254.5 c -14.7,1.21 -29.53,2.84 -43.64,7.36 -5.26,2.01 -10.86,4.17 -14.64,8.52 -2.7,3.13 -2.43,7.59 -1.7,11.39 2.2,9.55 7.04,18.21 12.15,26.47 5.07,7.59 10.76,15.23 18.91,19.71 7.13,4.33 15.87,5.29 23.95,3.55 8.27,-1.25 15.26,-6.07 21.83,-10.92 2.37,1.63 3.02,-2.57 1.71,-3.88 0.6,-18.34 1.85,-36.71 5.36,-54.76 0.64,-2.67 0.61,-5.42 0.37,-8.12 -8.09,-0.95 -16.21,0.25 -24.3,0.68 m 418.59,703.27 c 0.34,2.73 0.64,5.47 0.8101,8.24 l 0.1,0.25 c -0.1,1.65 -0.14,3.3 -0.18,4.98 l 1.17,-1.48 c 0.87,8.78 1.41,17.61 2.56,26.37 0.16,-0.03 0.49,-0.1 0.66,-0.14 l -0.4301,0.35 c 3.42,1.56 7.38,0.89 11.05,1.49 -0.7,-2.35 -1.55,-4.67 -2.7,-6.82 -2.7,-6.89 -4.85,-14.05 -8.04,-20.72 -0.82,-4.44 -2.69,-8.67 -5,-12.52 m 20.24,55.05 c 0.83,7.62 2.5,15.1299 4.75,22.45 1.8,-0.9501 0.64,-2.9401 0.4,-4.4 -1.7,-6.02 -2.91,-12.2 -5.15,-18.05 m 181.18,30.4 c -3.26,0.6901 -2.36,4.55 -1.61,6.79 3.91,11.22 10.54,21.21 16.45,31.4399 2.54,4.5801 5.87,8.88 6.71,14.2001 l -1.58,-0.07 c 0.28,1.15 0.66,2.3 1.62,3.12 -0.04,0.8501 -0.13,2.54 -0.18,3.39 -2.88,3.0701 -6.64,5.0701 -10.16,7.3 -0.86,0.04 -2.58,0.11 -3.44,0.14 -9.03,-7.25 -16.62,-16.42 -27.03,-21.8401 -4.08,-2.09 -9.09,-4.46 -13.59,-2.1899 -7.44,3.62 -10.77,12.05 -13,19.5 -0.85,1.92 -1.27,4.03 -1.5,6.13 1.67,0.41 3.35,0.95 5.12,0.83 12.28,2.3501 24.89,1.8 37.33,1.61 5.09,0 10.45,-0.9299 15.29,1.16 0.54,1.9301 2.85,1.35 4.29,2.09 3.95,4.05 7.76,9.52 5.95,15.4801 -7.74,8.1899 -17.05,15.4399 -22,25.83 -3.04,3.61 -2.69,8.7 -1.98,13.0699 5.55,7.6001 14.95,13.8201 24.71,12.3301 1.97,-4.97 2.4,-10.3201 3,-15.5701 1.11,-12.08 0.69,-24.23 1.25,-36.34 0.2,-0.09 0.59,-0.27 0.79,-0.36 0.05,-0.5701 0.15,-1.71 0.19,-2.28 2.34,-1.0599 5.26,-1.63 6.7,-3.96 0.76,-2.12 1.03,-4.36 1.3701,-6.5601 1.12,-0.3199 2.23,-0.6499 3.3799,-0.9299 -1.1899,-0.02 -2.37,-0.05 -3.53,-0.09 5.34,-2.84 12.61,0.9 17.56,-3.24 -1.48,-0.75 -3.34,-1.6599 -3.45,-3.5399 -0.52,-4.61 -1.37,-9.39 0.31,-13.87 11.75,-3.92 24.26,-6.4701 34.7,-13.49 3.64,-2.41 7.13,-6.1001 7.03,-10.75 0.04,-6.13 -3.53,-11.54 -7.1201,-16.2201 -2.15,-2.5199 -4.53,-5.71 -8.14,-5.7899 -2.85,1.09 -4.62,3.8199 -6.44,6.13 -7.84,10.8999 -13.96,22.89 -20.59,34.5399 -1.08,1.9501 -2.78,3.4301 -4.3,5.03 -1.16,-1.41 -3.57,0.53 -2.62,2 -5.87,1.74 -11.13,-2.17 -15.91,-4.99 -0.09,-2.42 -0.35,-4.88 0.2401,-7.25 2.64,-10.4301 5.41,-21.11 4.54,-31.96 -0.57,-4.15 -1.69,-9.11 -5.99,-10.89 -7.59,-3.5598 -16.64,-2.4998 -24.37,0.07 m 51,71.92 c 5.07,13.26 6.1,28.41 14.96,40.03 2.61,3.72 7.41,5.6899 11.87,4.6599 8.57,-1.61 15.54,-7.47 21.15,-13.84 -12.4,-12.83 -28.64,-20.9399 -43.57,-30.41 -1.47,-0.1498 -2.96,-0.3199 -4.41,-0.4399 z"
         inkscape:connector-curvature="0"
         style="stroke:#000000;stroke-width:0.0938" />
      <path
         id="path3431"
         d="m 323.02,269.93 c 2.42,0.96 3.4,3.54 4.68,5.59 10.89,20.2 22.75,39.95 36.96,58.01 7.15,9.28 14.71,18.68 24.88,24.81 13.77,8.71 30.43,11.4 46.48,11.48 21.43,0.09 42.71,-2.83 64.09,-3.65 2.56,-0.1 5.08,0.42 7.56,1 l -2.09,0 c 0.18,0.46 0.52,1.4 0.7,1.87 -9.43,5.47 -18.1,12.27 -27.46,17.93 -20.14,12.4 -43.54,20.47 -67.39,19.91 -25.71,-0.13 -51.21,-11.77 -67.71,-31.57 -15.58,-19.65 -26.12,-44 -26.74,-69.29 -0.15,-10 2.25,-19.77 4.11,-29.53 0.41,-2.25 1.09,-4.43 1.93,-6.56 z"
         inkscape:connector-curvature="0"
         style="stroke:#000000;stroke-width:0.0938" />
      <path
         id="path3433"
         d="m 524.48,391.24 c 1.54,0.06 3.09,0.16 4.64,0.29 0.99,1.16 2.34,1.87 3.67,2.6 14.44,9.24 27.55,20.34 40.89,31.07 8.25,6.47 16.61,13.03 26.15,17.53 7.61,3.34 15.96,4.33 24.1,5.59 10.32,1.31 20.67,2.78 31.09,2.52 6.88,-0.08 13.78,-1.3 20.65,-0.26 -0.05,1.4 0.05,2.91 -0.91,4.06 -4.53,7 -9.16,14.24 -16.03,19.18 -10.32,7.35 -22.72,11.38 -35.19,13.07 -16.52,2.38 -34.2,0.27 -48.55,-8.71 -15.33,-9.04 -27.25,-22.97 -35.87,-38.38 -6.02,-10.79 -10.18,-22.58 -12.48,-34.72 -0.89,-4.58 -2.31,-9.12 -2.16,-13.84 z"
         inkscape:connector-curvature="0"
         style="stroke:#000000;stroke-width:0.0938" />
      <path
         id="path3435"
         d="m 282.02,605.95 c 1.43,-1.29 2.84,-3.01 4.99,-2.75 2.49,-0.29 4.02,1.94 5.75,3.33 1.64,1.61 3.63,2.96 4.92,4.91 1.19,4.52 -2.44,8.06 -4.48,11.67 -26.06,42.17 -39.27,90.85 -46.74,139.47 -1.54,6.7 -0.88,13.93 -4.12,20.19 -5.82,11.56 -7.46,24.96 -5.47,37.69 0.99,5.2599 3.26,10.42 2.27,15.89 0.43,-0.1 1.28,-0.3 1.71,-0.4 0.93,0.36 2.45,1.44 1.92,2.64 -1.21,-0.17 -2.3,-0.82 -3.46,-1.14 -0.64,18.15 -1.66,36.31 -1.7,54.49 0.11,19.67 -0.61,39.34 -0.04,59.01 0.17,18.69 -0.17,37.39 0.26,56.08 0.19,12.6899 -0.38,25.37 -0.18,38.0699 0.42,6.3 -1.08,12.5601 -0.46,18.86 1.35,-3.0399 1.45,-6.39 1.93,-9.62 0.45,-1.64 0.97,-3.26 1.41,-4.88 4.8,-1.1599 9.86,-0.95 14.65,0.13 2.26,1.29 2.18,4.26 2.44,6.53 4.45,53.01 0.2,106.3101 -6.51,158.95 -2.62,18.51 -5.25,37.03 -8.22,55.4901 -3.92,22.2799 -7.75,44.58 -11.78,66.84 -0.52,2.26 -1.01,4.52 -1.44,6.8099 1.14,-0.87 2.29,-1.73 3.43,-2.58 1.69,-1.2 3.39,-2.36 4.95,-3.71 15.5,-10.52 33.26,-17.67 51.76,-20.7201 24.43,-4.0299 50.06,-0.35 72.38,10.38 13.05,6.5701 25.42,15.6001 33.02,28.3401 5.41,8.9199 7.69,19.9299 5.04,30.13 -3.33,10.9099 -11.99,19.58 -22.25,24.22 -9.68,4.4399 -20.49,5.4199 -31.01,5.52 -23.76,-0.01 -47.34,-3.15 -70.96,-5.29 -25.53,-2.52 -51.23,-4.09 -76.88,-2.65 -7.25,0.5801 -14.51,1.1 -21.78,0.8201 -0.53,-1.51 -1.15,-3.0701 -0.73,-4.66 3.53,-21.39 6.87,-42.8101 10.55,-64.1801 3.79,-23.4299 8.79,-46.64 12.99,-70 9.68,-48.24 19.65,-96.4399 28.01,-144.9399 0.94,-6.05 2.35,-12.04 2.38,-18.1801 0.32,-0.2999 0.95,-0.9099 1.27,-1.22 -4.04,0.33 -8.1,0.17 -12.14,0.11 -0.48,-0.38 -1.45,-1.13 -1.93,-1.51 -2.45,-10.97 -3.78,-22.1599 -5.64,-33.25 -7.01,-45.7 -12.61,-91.67 -15.26,-137.84 -0.97,-18.51 -1.84,-37.07 -1.24,-55.6 0.38,-3.16 0.25,-6.34 -0.03,-9.48 -0.95,5.09 -1.69,10.21 -2.47,15.33 -4.12,22.09 -6.77,44.42 -9.82,66.68 -7.73,58.22 -12.22,116.8 -19.2,175.11 -1.3,7.0499 -1.11,14.4299 -3.63,21.22 -5.29,0.87 -11.02,1.6799 -16.02,-0.77 -1.62,-5.01 -1.87,-10.28 -2.57,-15.4399 -3.43,-30.24 -5.25,-60.66 -5.27,-91.1001 -0.34,-44.4399 2.34,-88.96 9.4,-132.8599 10.25,-65.27 29.41,-129.62 60.98,-187.86 3.95,-6.94 7.74,-13.99 12.27,-20.57 1.88,-3.14 5.89,-4.22 7.49,-7.55 12.92,-31.13 30.73,-60.78 55.26,-84.16 m -38.24,749.8699 c -1.62,0.9701 -3.56,0.62 -5.35,0.7401 -2.67,-2.9301 -4.57,-6.64 -7.96,-8.8301 0.18,-0.64 0.55,-1.91 0.73,-2.5499 l -1.19,1.5399 -0.81,-1.5499 c 0.29,6.6699 -3.38,12.9199 -2.42,19.6599 -0.35,0.02 -1.05,0.05 -1.39,0.07 5.98,2.01 12.31,1.9 18.54,2.46 14.39,1.05 28.71,3 43,5.01 22.34,2.78 44.52,7.75 67.12,7.78 4.88,-0.51 11.8,0.12 14.27,-5.09 -0.97,-5.4701 -4.92,-9.8401 -8.87,-13.5 -12.97,-11.16 -29.48,-17.79 -46.36,-19.9901 -23.87,-3.2699 -48.39,2.6801 -69.31,14.25 z"
         inkscape:connector-curvature="0"
         style="stroke:#000000;stroke-width:0.0938" />
      <path
         id="path3437"
         d="m 151.74,320.58 c -0.42,-1.53 0.75,-2.85 1.71,-3.88 1.31,1.31 0.66,5.51 -1.71,3.88 z"
         inkscape:connector-curvature="0"
         style="fill:#e11b1a;stroke:#e11b1a;stroke-width:0.0938" />
      <path
         id="path3439"
         d="m 248.29,506.56 c 1.78,1.01 3.78,1 5.75,0.68 -1.06,0.93 -2.17,1.82 -3.29,2.7 -0.81,-1.14 -1.63,-2.26 -2.46,-3.38 z"
         inkscape:connector-curvature="0"
         style="fill:#e11b1a;stroke:#e11b1a;stroke-width:0.0938" />
      <path
         id="path3441"
         d="m 728.75,559.81 c 1.5,-1.69 3.09,-3.3 4.8,-4.79 -0.08,0.85 -0.23,2.55 -0.31,3.4 0.9,0.3 1.8,0.62 2.71,0.95 -0.64,0.13 -1.91,0.37 -2.55,0.49 -1.56,0 -3.1,-0.01 -4.65,-0.05 z"
         inkscape:connector-curvature="0"
         style="fill:#e11b1a;stroke:#e11b1a;stroke-width:0.0938" />
      <path
         id="path3443"
         d="m 711.82,575.91 c 2.03,-1.99 4.06,-3.97 6.16,-5.87 0.06,2.91 0.03,5.83 0.03,8.75 0,0.29 -0.01,0.87 -0.01,1.16 -0.32,-1.99 -0.62,-3.98 -0.95,-5.96 -1.84,0.36 -3.57,1.08 -5.23,1.92 z"
         inkscape:connector-curvature="0"
         style="fill:#e11b1a;stroke:#e11b1a;stroke-width:0.0938" />
      <path
         id="path3445"
         d="m 394.46,728.15 c 6.49,-3.03 13.34,-5.72 20.6,-5.83 8.5,-0.72 16.98,0.86 25.11,3.23 1.41,0.67 2.8,1.37 4.21,2.07 3.45,1.74 6.52,4.07 9.77,6.14 0.29,0.2 0.88,0.59 1.18,0.79 l 1.17,-0.01 c 0.74,-0.63 1.47,-1.27 2.19,-1.92 0.46,3.46 1.85,6.7 4.13,9.37 -0.4,0.11 -1.2,0.35 -1.6,0.46 0.65,0.02 1.95,0.06 2.61,0.08 4.51,7.28 8.47,15.03 10.18,23.49 3.01,11.42 1.48,23.33 -0.38,34.79 -0.15,0.97 -0.24,1.96 -0.26,2.96 -2.14,0.95 -2.77,3.3 -3.59,5.27 -0.46,1.07 -0.93,2.14 -1.4,3.21 -0.76,1.24 -1.43,2.52 -2.08,3.83 -2.35,3.81 -4.8,7.56 -7.36,11.24 -0.75,1.11 -1.52,2.23 -2.3,3.34 l -0.27,0.77 c -1.6,2.06 -2.98,4.27 -4.33,6.5 -0.67,0.99 -1.34,1.99 -1.99,3.02 -0.67,1.01 -1.34,2.01 -2.03,3.01 -1.44,1.9 -2.81,3.87 -3.84,6.03 -2.5,4.81 -5.34,9.43 -7.92,14.2 -4.21,7.42 -8.05,15.04 -11.55,22.82 -0.44,1.09 -0.89,2.18 -1.35,3.28 -1.15,2.19 -2.17,4.45 -3.11,6.76 -1.12,2.63 -2.1,5.33 -2.99,8.06 -2.96,6.13 -3.88,12.94 -6.04,19.36 -0.82,0.02 -2.45,0.05 -3.27,0.07 -4.01,-5.11 -7.9,-10.48 -13.28,-14.24 -5.73,-4.73 -12.07,-8.58 -18.58,-12.1 -5.51,-3.11 -11.19,-5.96 -17.24,-7.86 -1.62,-0.79 -3.28,-1.51 -4.95,-2.15 -9.42,-3.66 -19.28,-5.93 -28.86,-9.07 -13.93,-3.31 -28,-6.14 -42.06,-8.89 -1.32,-0.54 -2.66,-1.02 -4,-1.45 -3.26,-1.1201 -6.43,-2.47 -9.52,-3.98 -1.44,-0.93 -2.89,-1.83 -4.37,-2.66 -7.35,-4.62 -13.31,-11.04 -18.12,-18.23 -0.91,-1.5 -1.85,-2.97 -2.81,-4.43 -0.86,-1.63 -1.65,-3.3 -2.19,-5.05 -0.28,0.38 -0.84,1.14 -1.12,1.52 -0.43,0.1 -1.28,0.3 -1.71,0.4 0.99,-5.47 -1.28,-10.63 -2.27,-15.89 -1.99,-12.73 -0.35,-26.13 5.47,-37.69 3.24,-6.26 2.58,-13.49 4.12,-20.19 -0.03,2.53 -0.56,5.02 -0.95,7.52 0.25,0.61 0.73,1.83 0.98,2.44 0.34,-0.01 1.02,-0.03 1.36,-0.04 -0.09,0.68 -0.27,2.03 -0.36,2.71 0.45,-0.89 0.8,-1.82 1.04,-2.77 l 0.97,0.08 -0.03,-0.85 c 2.96,-3.11 5.76,-6.38 8.62,-9.58 6.47,-6.54 14.08,-11.8701 22.15,-16.25 1.83,-0.8701 3.8,-1.39 5.74,-1.98 1.73,-0.48 3.41,-1.16 4.88,-2.22 10.44,-4.37 22.17,-3.98 33.11,-1.95 4.27,1.09 8.37,2.79 12.19,5.02 0.46,0.27 1.4,0.81 1.86,1.08 3.21,1.73 6.21,3.82 8.93,6.26 2.22,2.83 4.63,5.5 6.97,8.25 0.96,3.02 2.11,7.54 -0.94,9.68 -6.69,5.13 -14.06,9.25 -21.09,13.88 -5.01,3.68 -10.72,6.74 -14.33,11.98 0.39,1.46 0.77,2.93 1.14,4.41 5.55,0.56 11.13,0.64 16.68,1.16 5.49,0.91 10.99,1.78 16.52,2.42 4.56,0.63 9.58,0.09 13.5,3 -0.2,1.22 0.23,2.76 -0.86,3.68 -3.32,3.36 -6.67,6.71 -10.28,9.76 -3.29,2.51 -6.25,5.46 -8.7,8.8 -0.56,1.58 -0.87,3.23 -0.74,4.92 0.52,0.33 1.56,0.98 2.07,1.31 5.13,2.04 10.79,1.57 16.16,2.47 5.97,0.56 11.8,1.91 17.7,2.9 -0.05,0.88 -0.15,2.65 -0.2,3.54 -4.37,2.91 -8.89,5.57 -13.53,8.02 -1.27,0.63 -2.51,1.33 -3.73,2.07 -3.1,1.97 -6.5,3.56 -9.15,6.17 -0.67,0.25 -1.34,0.4901 -2.02,0.7401 0.33,0.05 0.98,0.13 1.3,0.17 -0.1,0.86 -0.3,2.57 -0.4,3.43 l 1.8,-0.31 c -0.53,0.24 -1.05,0.5 -1.56,0.76 8.41,1.72 16.98,2.63 25.55,2.95 6.03,-2.62 9.92,-8.2 13.95,-13.13 2.5,-3.15 5.3,-6.19 6.64,-10.06 0.1,-2.44 0.13,-4.99 -1.32,-7.07 -1.33,-0.32 -2.65,-0.65 -3.9,-1.16 -5.88,-1.87 -11.53,-4.33 -17.25,-6.63 -1.12,-0.37 -2.26,-0.66 -3.39,-0.91 -2.16,-0.94 -4.83,-1.82 -4.42,-4.74 l 1.08,-0.05 c 0.72,-2.27 3.16,-3.08 4.9,-4.42 6.13,-4.42 13.55,-6.81 19.23,-11.91 0.1,-0.77 0.21,-1.54 0.33,-2.29 -7.57,-5.35 -17.13,-6.27 -25.6,-9.6201 -0.52,-0.29 -1.56,-0.8799 -2.08,-1.17 0.1,-0.53 0.3,-1.58 0.41,-2.11 6.67,-3.7 14.44,-4.11 21.52,-6.67 6.01,-2.07 12.26,-3.27 18.36,-5.03 2.57,-1.29 7,-1.13 6.77,-5.1 0.42,-0.04 1.26,-0.1 1.68,-0.13 -0.44,-0.08 -1.32,-0.25 -1.77,-0.34 -0.41,-2.01 -2.37,-2.13 -3.98,-2.54 -9.88,-1.52 -19.9,-1.82 -29.91,-1.94 -3.5,-0.55 -8.11,0.21 -10.57,-2.83 -0.48,-6.09 1.97,-11.93 4.28,-17.42 0.25,-0.51 0.74,-1.53 0.98,-2.03 1.16,-2.21 2.51,-4.29 3.91,-6.34 4.22,-5.83 9.67,-10.68 15.8,-14.42 z"
         inkscape:connector-curvature="0"
         style="fill:#e11b1a;stroke:#e11b1a;stroke-width:0.0938" />
      <path
         id="path3447"
         d="m 195.6,867.92 c 0.28,3.14 0.41,6.32 0.03,9.48 -0.25,0.35 -0.76,1.0699 -1.01,1.43 0,2.17 0.02,4.36 0,6.55 -0.37,-0.53 -1.12,-1.6 -1.49,-2.13 0.78,-5.12 1.52,-10.24 2.47,-15.33 z"
         inkscape:connector-curvature="0"
         style="fill:#e11b1a;stroke:#e11b1a;stroke-width:0.0938" />
      <path
         id="path3449"
         d="m 553.47,957.77 c 2.3101,3.85 4.1801,8.08 5,12.52 -0.3799,-0.44 -1.15,-1.32 -1.53,-1.7599 l -0.99,1.62 c -0.55,-1.3 -1.05,-2.6 -1.57,-3.89 l -0.1,-0.25 C 554.11,963.24 553.81,960.5 553.47,957.77 Z"
         inkscape:connector-curvature="0"
         style="fill:#e11b1a;stroke:#e11b1a;stroke-width:0.0938" />
      <path
         id="path3451"
         d="m 613.39,980.8 c 0.64,0 1.91,0.01 2.55,0.01 -0.17,1.51 -2.11,2.22 -2.81,0.64 l 0.26,-0.65 z"
         inkscape:connector-curvature="0"
         style="fill:#e11b1a;stroke:#e11b1a;stroke-width:0.0938" />
      <path
         id="path3453"
         d="m 566.51,991.01 c 1.15,2.15 2,4.47 2.7,6.82 -3.67,-0.6 -7.63,0.07 -11.05,-1.49 2.6201,0 5.38,0.67 7.95,-0.22 0.49,-1.66 0.41,-3.43 0.4,-5.11 z"
         inkscape:connector-curvature="0"
         style="fill:#e11b1a;stroke:#e11b1a;stroke-width:0.0938" />
      <path
         id="path3455"
         d="m 638.07,1002.47 c 1.18,-1.12 2.36,-2.25 3.56,-3.34 -1.34,2.46 -1.11,5.22 -0.13,7.77 -1.18,-1.47 -2.31,-2.94 -3.43,-4.43 z"
         inkscape:connector-curvature="0"
         style="fill:#e11b1a;stroke:#e11b1a;stroke-width:0.0938" />
      <path
         id="path3457"
         d="m 735.34,1011.91 c -0.65,-1.61 -1.31,-3.2 -1.79,-4.85 1.46,1.89 2.87,3.83 4.25,5.8 -1.55,0.78 -3.11,1.55 -4.64,2.39 0.7,-1.13 1.44,-2.24 2.18,-3.34 z"
         inkscape:connector-curvature="0"
         style="fill:#e11b1a;stroke:#e11b1a;stroke-width:0.0938" />
      <path
         id="path3459"
         d="m 573.71,1012.82 c 2.24,5.85 3.45,12.03 5.15,18.05 0.24,1.46 1.4,3.45 -0.4,4.4 -2.25,-7.32 -3.92,-14.83 -4.75,-22.45 z"
         inkscape:connector-curvature="0"
         style="fill:#e11b1a;stroke:#e11b1a;stroke-width:0.0938" />
      <path
         id="path3461"
         d="m 805.71,1023.81 c 0.79,-0.02 2.36,-0.05 3.15,-0.06 -0.33,1.98 -3.28,2.52 -3.15,0.06 z"
         inkscape:connector-curvature="0"
         style="fill:#e11b1a;stroke:#e11b1a;stroke-width:0.0938" />
      <path
         id="path3463"
         d="m 718.09,1043.86 c 0.45,3.29 1.08,6.5601 1.69,9.83 -1.65,0.1201 -3.3,0.2401 -4.94,0.42 0.92,-0.49 1.85,-0.96 2.8,-1.41 0.76,-2.9 0.68,-5.8899 0.45,-8.84 z"
         inkscape:connector-curvature="0"
         style="fill:#e11b1a;stroke:#e11b1a;stroke-width:0.0938" />
      <path
         id="path3465"
         d="m 237.65,1045.1 c 0.45,1.11 0.73,2.29 0.83,3.53 l 1.19,-0.2 c -0.2,1.96 -0.35,3.9299 -0.55,5.9099 -0.48,3.23 -0.58,6.5801 -1.93,9.62 -0.62,-6.2999 0.88,-12.5599 0.46,-18.8599 z"
         inkscape:connector-curvature="0"
         style="fill:#e11b1a;stroke:#e11b1a;stroke-width:0.0938" />
      <path
         id="path3467"
         d="m 481.54,1072.73 c 1.07,2.12 1.01,6.11 4.46,4.87 -1.27,1.01 -2.53,2.03 -3.81,3.03 -0.24,-2.64 -0.39,-5.27 -0.65,-7.9 z"
         inkscape:connector-curvature="0"
         style="fill:#e11b1a;stroke:#e11b1a;stroke-width:0.0938" />
      <path
         id="path3469"
         d="m 796.38,1098.24 c -0.95,-1.47 1.46,-3.41 2.62,-2 -0.74,0.77 -1.43,1.93 -2.62,2 z"
         inkscape:connector-curvature="0"
         style="fill:#e11b1a;stroke:#e11b1a;stroke-width:0.0938" />
      <path
         id="path3471"
         d="m 709.08,1105 c 0.06,1.8199 0.17,3.66 0.26,5.51 1.11,0.47 2.23,0.96 3.36,1.45 -1.77,0.12 -3.45,-0.4199 -5.12,-0.83 0.23,-2.1 0.65,-4.21 1.5,-6.13 z"
         inkscape:connector-curvature="0"
         style="fill:#e11b1a;stroke:#e11b1a;stroke-width:0.0938" />
      <path
         id="path3473"
         d="m 853.26,1107.5699 c 1.18,-0.5399 2.36,-1.08 3.56,-1.59 -0.02,0.8 -0.07,2.39 -0.09,3.1801 -1.19,-0.5 -2.33,-1.04 -3.47,-1.5901 z"
         inkscape:connector-curvature="0"
         style="fill:#e11b1a;stroke:#e11b1a;stroke-width:0.0938" />
      <path
         id="path3475"
         d="m 328.39,1131.5699 c -0.63,-4.7899 -0.86,-10.3199 1.57,-14.59 -0.73,3.42 -1.54,6.8301 -1.85,10.3301 0.15,1.58 0.8,3.6499 2.64,3.98 5.24,1.5699 10.69,2.34 16.06,3.33 37.01,5.91 75.4,2.84 111.12,-8.4301 -7.41,65.1101 -17.23,130.13 -18.42,195.76 -0.68,14.2201 0.38,28.4501 0.51,42.6801 -0.05,0.41 -0.16,1.23 -0.22,1.64 -3.9,-74.4301 6.88,-148.46 15.52,-222.1801 0.32,-4.14 1.28,-8.22 1.24,-12.38 -0.25,-0.63 -0.73,-1.89 -0.98,-2.52 -2.58,-0.07 -5.19,-0.1699 -7.71,0.4801 -24.06,6.33 -49.04,9.11 -73.9,8.1 -15.38,-0.32 -30.55,-3.15 -45.58,-6.2001 z"
         inkscape:connector-curvature="0"
         style="fill:#e11b1a;stroke:#e11b1a;stroke-width:0.0938" />
      <path
         id="path3477"
         d="m 703.99,1143.4399 0.53,-0.02 c 8.32,1.62 16.94,0.71 25.27,-0.5 -0.91,1.2999 -1.82,2.58 -2.77,3.86 l -0.2,0.24 c -0.89,-0.52 -1.56,-1.26 -2.01,-2.23 -7.34,-0.5 -14.73,0.3099 -22.06,-0.67 0.31,-0.17 0.93,-0.51 1.24,-0.6801 z"
         inkscape:connector-curvature="0"
         style="fill:#e11b1a;stroke:#e11b1a;stroke-width:0.0938" />
      <path
         id="path3479"
         d="m 809.77,1186.04 c 1.71,1.1 3.42,2.2 5.19,3.2799 -1.55,0 -3.08,0.01 -4.6,0.03 -0.35,0.62 -1.07,1.87 -1.42,2.5 0.25,-1.9699 0.53,-3.8799 0.83,-5.8099 z"
         inkscape:connector-curvature="0"
         style="fill:#e11b1a;stroke:#e11b1a;stroke-width:0.0938" />
      <path
         id="path3481"
         d="m 229.67,1344.21 c 0.43,-2.2899 0.92,-4.5499 1.44,-6.8099 0.11,0.76 0.34,2.27 0.45,3.03 0.79,-0.02 2.37,-0.06 3.15,-0.07 l -1.61,1.27 c -1.14,0.85 -2.29,1.71 -3.43,2.58 z"
         inkscape:connector-curvature="0"
         style="fill:#e11b1a;stroke:#e11b1a;stroke-width:0.0938" />
    </g>
  </g>
</svg>
