<?xml version="1.0" encoding="UTF-8" standalone="no"?>
<!-- Created with Inkscape (http://www.inkscape.org/) -->

<svg
   xmlns:dc="http://purl.org/dc/elements/1.1/"
   xmlns:cc="http://creativecommons.org/ns#"
   xmlns:rdf="http://www.w3.org/1999/02/22-rdf-syntax-ns#"
   xmlns:svg="http://www.w3.org/2000/svg"
   xmlns="http://www.w3.org/2000/svg"
   xmlns:sodipodi="http://sodipodi.sourceforge.net/DTD/sodipodi-0.dtd"
   xmlns:inkscape="http://www.inkscape.org/namespaces/inkscape"
   width="600"
   height="450"
   id="svg2"
   version="1.1"
   inkscape:version="0.91 r13725"
   sodipodi:docname="uyoi_02.svg"
   viewBox="0 0 600 450"
   inkscape:export-filename="overlay-border.png"
   inkscape:export-xdpi="45"
   inkscape:export-ydpi="45">
  <defs
     id="defs4" />
  <sodipodi:namedview
     id="base"
     pagecolor="#ffffff"
     bordercolor="#666666"
     borderopacity="1.0"
     inkscape:pageopacity="0.0"
     inkscape:pageshadow="2"
     inkscape:zoom="0.84"
     inkscape:cx="683.33509"
     inkscape:cy="166.52121"
     inkscape:document-units="px"
     inkscape:current-layer="layer1"
     showgrid="false"
     units="px"
     inkscape:window-width="1920"
     inkscape:window-height="1003"
     inkscape:window-x="0"
     inkscape:window-y="25"
     inkscape:window-maximized="1" />
  <metadata
     id="metadata7">
    <rdf:RDF>
      <cc:Work
         rdf:about="">
        <dc:format>image/svg+xml</dc:format>
        <dc:type
           rdf:resource="http://purl.org/dc/dcmitype/StillImage" />
        <dc:title></dc:title>
      </cc:Work>
    </rdf:RDF>
  </metadata>
  <g
     inkscape:label="Layer 1"
     inkscape:groupmode="layer"
     id="layer1"
     transform="translate(0,-602.36218)">
    <g
       id="g3928"
       transform="matrix(-0.08330948,-0.16800895,0.16800895,-0.08330948,258.49224,741.75386)" />
    <g
       transform="matrix(0.74335153,0,0,0.74335153,2.3758843,483.72057)"
       inkscape:label="Layer 1"
       id="layer1-3">
      <path
         d="m 160.35,730.07 c -1.9198,-2.3132 -1.6007,-3.2241 4.846,-13.836 2.7802,-4.5763 5.4562,-9.6127 5.9466,-11.192 0.49041,-1.5792 1.995,-4.4379 3.3436,-6.3525 1.3485,-1.9146 2.0585,-3.4812 1.5778,-3.4812 -0.48078,0 -0.2685,-0.72975 0.47174,-1.6217 0.74022,-0.89192 1.6436,-3.0281 2.0074,-4.7471 0.36387,-1.719 2.0135,-6.8617 3.6659,-11.428 1.6524,-4.5666 2.8449,-9.3893 2.65,-10.717 -0.19485,-1.3277 0.26545,-3.1607 1.0229,-4.0734 0.75744,-0.91266 1.557,-4.9196 1.7768,-8.9043 0.90367,-16.382 1.9822,-24.952 3.2382,-25.728 0.92451,-0.57138 0.9175,-1.0765 -0.023,-1.6578 -0.95781,-0.59197 -0.95076,-1.8391 0.0242,-4.2724 1.5488,-3.8656 2.2262,-44.578 0.74174,-44.578 -0.52218,10e-6 -0.94941,-1.147 -0.94941,-2.5489 0,-1.4019 -0.50319,-3.5381 -1.1182,-4.7471 -0.615,-1.209 -1.6806,-3.6222 -2.368,-5.3628 -1.4085,-3.5664 -7.0896,-15.145 -10.248,-20.887 -1.149,-2.0887 -2.8012,-4.2532 -3.6715,-4.81 -0.87029,-0.55677 -1.5824,-1.7407 -1.5824,-2.6309 0,-1.7606 -19.592,-21.042 -21.381,-21.042 -0.6024,0 -1.8771,-0.94679 -2.8326,-2.104 -0.95554,-1.1572 -3.2049,-3.0085 -4.9986,-4.1141 -1.7937,-1.1056 -5.1642,-3.6198 -7.49,-5.5873 -3.7018,-3.1314 -4.2573,-4.3934 -4.458,-10.127 -0.24129,-6.8928 1.4068,-18.726 3.2043,-23.006 0.82707,-1.9695 3.7576,-13.331 4.4081,-17.089 0.54799,-3.1666 3.9825,-11.423 5.8738,-14.12 1.2958,-1.8481 2.3605,-4.1267 2.3658,-5.0635 0.0154,-2.6805 7.5836,-16.34 14.864,-26.828 3.6552,-5.2653 6.6459,-9.8839 6.6459,-10.263 0,-0.37956 1.1393,-1.8294 2.5318,-3.2219 1.3925,-1.3925 2.5318,-2.1696 2.5318,-1.727 0,0.44263 2.8798,-2.1208 6.3995,-5.6965 3.5197,-3.5757 6.9648,-6.5013 7.6558,-6.5013 0.69093,0 2.5107,-1.2929 4.044,-2.8731 1.5333,-1.5802 5.5646,-4.8557 8.9584,-7.2788 3.3938,-2.4232 8.2358,-6.3223 10.76,-8.6646 2.5242,-2.3424 7.4377,-6.1302 10.919,-8.4173 3.4812,-2.2871 9.6183,-7.3489 13.638,-11.248 4.0197,-3.8994 7.8242,-7.0898 8.4543,-7.0898 0.63013,0 1.8984,-0.71206 2.8185,-1.5824 0.92003,-0.87029 4.2362,-3.2913 7.3693,-5.38 3.1331,-2.0887 5.8864,-4.2249 6.1184,-4.7471 0.23208,-0.52218 1.1488,-0.94941 2.0371,-0.94941 1.7412,0 13.527,-6.0682 21.228,-10.929 2.6098,-1.6475 5.2318,-2.9954 5.8268,-2.9954 0.595,0 2.5267,-1.5665 4.2927,-3.4812 1.766,-1.9146 5.8899,-5.475 9.1643,-7.9118 7.5143,-5.5923 13.361,-11.354 13.361,-13.167 0,-0.76926 2.0407,-4.2451 4.5348,-7.724 2.4942,-3.479 5.586,-8.3191 6.8708,-10.756 1.2848,-2.4368 8.0682,-10.412 15.074,-17.722 7.006,-7.3105 12.744,-14.309 12.75,-15.552 0.0138,-2.5593 3.5806,-8.5002 5.1033,-8.5002 1.475,0 16.453,-7.2058 20.86,-10.035 2.0887,-1.3412 5.3642,-2.4802 7.2788,-2.5311 1.9146,-0.0509 3.4812,-0.69579 3.4812,-1.4331 0,-0.73733 0.49628,-1.0339 1.1028,-0.65901 0.60656,0.37488 3.882,-0.72841 7.2788,-2.4518 3.3968,-1.72339 6.906,-3.1357 7.7981,-3.1386 0.89216,-0.003 1.95,-0.85978 2.3507,-1.9041 0.40077,-1.0444 1.6197,-1.8988 2.7088,-1.8988 1.0891,0 2.8795,-0.80961 3.9787,-1.7991 1.0992,-0.98953 2.853,-1.9864 3.8973,-2.2153 1.0444,-0.22889 2.237,-0.87537 2.6504,-1.4366 1.0072,-1.3675 16.778,2.3401 17.358,4.0808 0.25123,0.75366 1.4062,1.3884 2.5666,1.4105 1.1604,0.0222 3.2156,0.87662 4.5671,1.8988 1.3515,1.02218 3.4676,1.8586 4.7025,1.8586 1.2349,0 2.855,1.1393 3.6002,2.5318 0.74523,1.3925 2.4244,2.5318 3.7314,2.5318 5.2058,0 19.695,17.34 25.916,31.014 1.2669,2.785 3.6614,7.8204 5.3212,11.19 1.6598,3.3694 2.6972,6.6449 2.3055,7.2788 -0.39178,0.6339 -0.10912,1.1526 0.62826,1.1526 0.73732,0 1.3406,1.2901 1.3406,2.867 0,1.5768 1.1393,4.9927 2.5318,7.5907 1.3925,2.5981 2.5318,5.5803 2.5318,6.6272 0,1.0469 0.47118,1.9034 1.0471,1.9034 1.4862,0 3.8969,14.791 3.4559,21.204 -0.20348,2.959 -0.0181,5.3802 0.41179,5.3806 1.3098,9.3e-4 0.16067,40.305 -1.5881,55.698 -1.3766,12.117 -7.1884,39.027 -9.7057,44.939 -0.59293,1.3925 -2.2484,5.2063 -3.6789,8.4753 -1.4305,3.2689 -2.6009,6.2898 -2.6009,6.713 0,0.42325 -1.3989,2.8283 -3.1087,5.3445 -1.7098,2.5162 -2.8155,5.0494 -2.4571,5.6293 0.35842,0.57992 0.0483,1.0544 -0.68892,1.0544 -0.73733,0 -1.3406,0.85447 -1.3406,1.8988 0,1.0444 -0.56965,1.8988 -1.2659,1.8988 -0.69623,0 -1.2659,1.0023 -1.2659,2.2273 0,1.225 -1.1393,2.9388 -2.5318,3.8084 -1.3925,0.86961 -2.5318,2.5059 -2.5318,3.6363 0,3.0783 -5.0103,10.582 -7.0656,10.582 -0.98757,0 -1.6532,0.45405 -1.4791,1.009 0.29282,0.93359 -6.4112,9.5746 -12.342,15.909 -3.0082,3.2124 -9.1237,7.5367 -12.659,8.9512 -3.2448,1.2982 -15.687,1.2985 -18.988,3.8e-4 -5.4951,-2.161 -12.026,-11.092 -12.026,-16.445 0,-1.6199 -0.56964,-3.2974 -1.2659,-3.7277 -0.69624,-0.4303 -1.2659,-1.9217 -1.2659,-3.3141 0,-1.3925 -0.51652,-2.2126 -1.1478,-1.8224 -0.6313,0.39017 -0.89141,-0.28827 -0.57801,-1.5076 0.31339,-1.2194 -1.1306,-5.6349 -3.2088,-9.8124 -2.0833,-4.1876 -3.8828,-6.6014 -4.0108,-5.38 -0.12773,1.2184 -0.3476,2.6425 -0.48861,3.1647 -0.141,0.52218 -0.71426,3.228 -1.2739,6.013 -0.55963,2.785 -1.343,5.6232 -1.7408,6.3072 -0.39778,0.684 -0.85398,2.1081 -1.0138,3.1647 -0.36814,2.4341 -1.1319,5.189 -2.112,7.6176 -0.69546,1.7234 -3.2652,14.346 -3.8656,18.988 -0.38767,2.9972 -4.5486,10.127 -5.9101,10.127 -0.67837,0 -2.2803,0.99689 -3.5598,2.2153 -1.2795,1.21841 -3.2733,2.785 -4.4307,3.4812 -1.2421,0.74721 -2.383,3.5761 -2.7845,6.9042 -0.3741,3.1011 -0.92099,5.8791 -1.2153,6.1734 -0.2943,0.29431 0.29261,2.1358 1.3043,4.0921 1.01169,1.9563 1.4618,4.541 1.0003,5.7436 -0.57037,1.4864 -0.36481,1.8936 0.6419,1.2714 0.95559,-0.59059 1.5383,0.12165 1.6426,2.0076 0.37408,6.768 0.8595,8.5554 2.8692,10.565 1.228,1.228 1.8064,3.1028 1.3759,4.4595 -0.67131,2.1151 2.2487,8.3273 4.767,10.142 0.5521,0.39775 0.90223,1.8219 0.77808,3.1647 -0.40237,4.3521 0.14926,7.0377 1.2995,6.3268 1.7279,-1.0679 2.4454,6.7541 0.74867,8.1622 -0.99687,0.82733 -2.757,0.60909 -5.2937,-0.65635 -2.7058,-1.3498 -4.8566,-1.574 -7.4685,-0.77822 -2.0176,0.61468 -6.0893,1.8449 -9.0483,2.7338 -2.959,0.88889 -5.38,1.9802 -5.38,2.4252 0,0.7689 -8.385,4.3068 -10.49,4.4259 -0.54758,0.031 -1.402,0.69685 -1.8988,1.4797 -0.49678,0.78282 -2.6831,1.8092 -4.8584,2.281 -2.1753,0.4717 -5.2653,2.2522 -6.8666,3.9567 -1.6013,1.7045 -3.6295,3.099 -4.5072,3.099 -0.87767,0 -3.052,0.55367 -4.8319,1.2304 -2.9996,1.1404 -3.1213,1.4874 -1.6648,4.7471 2.4916,5.576 4.2318,7.5329 13.281,14.934 2.2628,1.8508 4.1141,4.2025 4.1141,5.2261 0,1.0236 0.51187,1.5447 1.1375,1.158 0.62563,-0.38667 2.477,0.70917 4.1141,2.4352 3.1349,3.305 5.9957,3.9175 9.6397,2.0638 1.209,-0.61501 3.6222,-1.6861 5.3628,-2.3802 1.7406,-0.69412 5.5917,-2.2739 8.558,-3.5107 4.7608,-1.9849 6.0227,-2.0502 10.76,-0.55645 2.9517,0.93068 6.071,2.2224 6.9317,2.8705 0.8607,0.64812 3.7089,0.79358 6.3294,0.32324 9.0115,-1.6174 14.764,-1.0593 19.955,1.9361 4.9294,2.8443 14.558,12.047 14.558,13.915 0,0.51202 1.8514,2.1166 4.1141,3.5657 2.2628,1.4491 3.5445,2.6472 2.8482,2.6624 -0.69624,0.0152 0.4263,1.3816 2.4945,3.0364 3.1542,2.5237 3.5014,3.3208 2.1538,4.9446 -1.1748,1.4156 -1.2214,2.1739 -0.17321,2.8217 0.80404,0.49692 1.3151,3.4643 1.164,6.7586 -0.51886,11.312 -0.1579,12.793 3.5212,14.445 5.087,2.284 7.3175,4.9488 7.1294,8.5176 -0.0918,1.7406 0.31433,3.4701 0.90237,3.8433 0.58803,0.37321 -0.62735,2.6518 -2.7008,5.0635 -4.2325,4.9229 -6.7653,12.322 -6.4844,18.943 0.54085,12.749 0.50326,17.863 -0.13604,18.502 -0.38931,0.38931 -2.7467,1.1677 -5.2387,1.7297 -3.5199,0.79387 -4.5309,0.62795 -4.5309,-0.74364 0,-0.97103 -0.49799,-1.7655 -1.1066,-1.7655 -0.60865,0 -1.1604,-2.421 -1.226,-5.38 -0.0657,-2.959 -0.35471,-9.6524 -0.64236,-14.874 -0.46562,-8.4529 -0.17773,-10.034 2.6251,-14.415 2.6075,-4.0761 2.9484,-5.5978 1.9856,-8.8612 -1.0124,-3.4313 -1.6741,-3.8998 -5.125,-3.6284 -2.1794,0.17136 -4.2978,-0.231 -4.7077,-0.89413 -0.40984,-0.66314 -1.5814,-0.88481 -2.6034,-0.49261 -1.022,0.39221 -1.8583,0.0684 -1.8583,-0.71955 0,-0.78797 -1.2817,-1.9985 -2.8482,-2.69 -1.5665,-0.69154 -5.6965,-3.0357 -9.1777,-5.2093 -7.1309,-4.4523 -13.943,-8.2509 -25.951,-14.471 -4.5255,-2.3442 -9.7446,-5.6753 -11.598,-7.4025 -1.8534,-1.7272 -4.8028,-3.5001 -6.5543,-3.9397 -1.7515,-0.43959 -3.5066,-1.6384 -3.9001,-2.6641 -0.39358,-1.0256 -1.2373,-1.5424 -1.875,-1.1482 -0.63769,0.39412 -2.521,-0.9015 -4.185,-2.8792 -1.6641,-1.9776 -3.9175,-4.1154 -5.0077,-4.7505 -3.6939,-2.1521 -11.798,-8.7307 -15.847,-12.864 -2.2165,-2.2628 -4.5426,-4.1141 -5.169,-4.1141 -1.4036,0 -8.3716,-8.6258 -9.5751,-11.853 -0.60311,-1.6173 -1.6951,-2.1457 -3.4735,-1.6806 -2.882,0.75365 -4.5524,-1.8027 -2.9042,-4.4446 0.56373,-0.90363 1.1839,-2.6399 1.3781,-3.8583 0.1942,-1.2184 0.52829,-3.3399 0.74243,-4.7144 0.21414,-1.3745 0.78378,-2.8936 1.2659,-3.3757 0.4821,-0.4821 0.87655,-1.6906 0.87655,-2.6854 0,-0.9949 1.1781,-3.4634 2.618,-5.4855 1.4399,-2.0221 2.253,-3.6766 1.807,-3.6766 -0.44606,0 0.36962,-1.501 1.8126,-3.3354 1.443,-1.8345 2.6236,-4.1528 2.6236,-5.1519 0,-0.99907 1.7363,-4.3402 3.8585,-7.4246 2.1222,-3.0844 3.5045,-5.6081 3.0718,-5.6081 -0.43267,0 1.0059,-3.1331 3.1968,-6.9624 2.1909,-3.8293 3.618,-6.9624 3.1714,-6.9624 -0.44663,0 0.27201,-1.5665 1.597,-3.4812 1.325,-1.9146 3.7848,-6.2197 5.4662,-9.5668 1.6814,-3.3471 3.8103,-7.4979 4.7309,-9.224 0.9205,-1.7262 1.8268,-4.5749 2.014,-6.3306 0.39769,-3.7302 4.8284,-8.0348 15.512,-15.07 7.287,-4.7988 10.245,-8.9417 11.297,-15.824 0.1597,-1.0444 0.61649,-3.0381 1.0151,-4.4306 0.70813,-2.4738 2.8979,-11.306 6.5908,-26.584 1.6555,-6.8488 3.1309,-17.142 3.1755,-22.153 0.0418,-4.6918 -1.837,-13.925 -2.8334,-13.925 -0.60569,0 -1.1012,-1.4241 -1.1012,-3.1647 0,-1.7406 -0.61491,-3.1647 -1.3665,-3.1647 -0.87852,0 -1.0517,-1.4691 -0.48506,-4.1141 1.1172,-5.2145 1.1093,-5.2078 4.9573,-4.242 2.3706,0.59499 3.2237,1.6401 3.2237,3.9497 0,1.7273 0.56965,3.1406 1.2659,3.1406 0.69624,0 1.2659,0.8083 1.2659,1.7962 0,0.98793 0.82536,3.4089 1.8341,5.38 1.9439,3.7982 3.4903,7.8194 3.8124,9.9132 0.50438,3.2794 6.021,15.031 7.3288,15.613 0.52218,0.23208 0.94941,1.4802 0.94941,2.7735 0,1.2934 0.56965,2.7036 1.2659,3.1339 0.69624,0.4303 1.2659,2.1729 1.2659,3.8724 0,1.6995 0.63605,3.09 1.4135,3.09 0.82509,0 1.1616,1.3173 0.80848,3.1647 -0.33274,1.7406 -0.17004,3.1647 0.36154,3.1647 1.3899,0 3.4412,6.5098 2.9917,9.4941 -0.23155,1.5375 1.1152,3.8989 3.4293,6.013 6.3476,5.7989 18.95,4.0646 25.296,-3.4812 1.171,-1.3925 3.5315,-4.0359 5.2456,-5.8743 1.7141,-1.8384 4.3873,-5.3987 5.9405,-7.9118 1.5532,-2.5131 3.2566,-4.5692 3.7854,-4.5692 0.5288,0 2.5741,-2.9907 4.5452,-6.6459 1.971,-3.6552 4.8256,-8.3548 6.3434,-10.444 2.5714,-3.5385 3.8954,-6.234 4.2076,-8.5659 0.0715,-0.53385 1.5429,-3.05 3.2699,-5.5915 1.727,-2.5415 2.8467,-5.0953 2.4883,-5.6753 -0.35842,-0.57993 0.17177,-1.0544 1.1782,-1.0544 1.00643,0 2.1544,-1.5665 2.551,-3.4812 0.3966,-1.9147 2.4612,-10.032 4.5879,-18.039 7.5721,-28.507 8.9685,-45.147 7.3079,-87.08 -0.33886,-8.5568 -0.97305,-15.915 -1.4093,-16.351 -0.43624,-0.43625 -0.79317,-2.09 -0.79317,-3.6751 0,-1.5851 -1.1793,-3.708 -2.6206,-4.7175 -1.4413,-1.0095 -2.0014,-2.0419 -1.2446,-2.2942 0.87765,-0.29256 0.45136,-2.2722 -1.1771,-5.4663 -1.4042,-2.7542 -2.553,-6.2777 -2.553,-7.83 0,-1.5523 -0.5021,-3.1327 -1.1158,-3.5119 -0.61366,-0.37927 -2.7309,-4.5428 -4.7049,-9.2524 -1.974,-4.7095 -3.9087,-8.8476 -4.2992,-9.1957 -0.39052,-0.34812 -1.7146,-2.9115 -2.9425,-5.6965 -3.3229,-7.5369 -15.497,-19.621 -19.766,-19.621 -0.74269,0 -1.3503,-0.49562 -1.3503,-1.1014 0,-0.60576 -2.579,-1.8234 -5.7311,-2.706 -3.1521,-0.88253 -6.2678,-2.5231 -6.9239,-3.6457 -0.65604,-1.1226 -1.2101,-1.5256 -1.2313,-0.89549 -0.0211,0.63008 -1.1876,0.1057 -2.592,-1.1653 -2.9896,-2.7056 -11.017,-3.3611 -11.933,-0.9744 -0.3434,0.89487 -1.4084,1.627 -2.3667,1.627 -0.9583,0 -2.7766,1.1428 -4.0406,2.5395 -1.264,1.3967 -2.5672,2.2705 -2.896,1.9418 -0.32877,-0.32877 -1.7028,0.80703 -3.0534,2.524 -1.3506,1.71697 -3.2687,3.1218 -4.2625,3.1218 -0.99382,0 -1.807,0.61712 -1.807,1.3714 0,0.75427 -0.71206,1.1134 -1.5824,0.79813 -0.8703,-0.31528 -2.4368,0.11305 -3.4812,0.95191 -1.0444,0.83884 -3.8926,2.2618 -6.3294,3.1621 -2.4368,0.90034 -9.8044,4.2696 -16.372,7.4873 -13.394,6.5617 -24.28,16.409 -40.753,36.865 -3.9967,4.9628 -9.0972,13.301 -9.2927,15.191 -0.2722,2.6315 -12.193,17.966 -15.796,20.32 -2.4743,1.6163 -7.1643,5.111 -10.422,7.766 -3.258,2.655 -6.5334,4.8274 -7.2788,4.8274 -0.74538,0 -1.3552,0.56965 -1.3552,1.2659 0,0.69624 -0.753,1.2659 -1.6733,1.2659 -0.92032,0 -3.911,1.6931 -6.6459,3.7624 -2.7349,2.0694 -5.4247,3.7783 -5.9772,3.7977 -0.55257,0.0194 -2.5463,1.4855 -4.4306,3.258 -1.8843,1.7726 -5.4197,4.4571 -7.8565,5.9656 -2.4368,1.5085 -5.1886,3.4814 -6.115,4.3841 -0.92643,0.90275 -2.2081,1.3177 -2.8482,0.92208 -0.6401,-0.3956 -1.1726,0.0263 -1.1832,0.93778 -0.014,1.2041 -0.35482,1.138 -1.2465,-0.24176 -0.72524,-1.1222 -1.235,-1.2865 -1.2465,-0.40178 -0.0101,0.82339 -1.1587,1.8586 -2.5512,2.3006 -1.3925,0.44196 -2.5318,1.774 -2.5318,2.96 0,1.2835 -2.4188,3.4268 -5.9752,5.2947 -3.2864,1.726 -6.9987,4.044 -8.2496,5.1511 -1.2509,1.1071 -3.8313,2.804 -5.7342,3.7711 -1.9029,0.96705 -5.5876,3.9921 -8.1883,6.7224 -4.5458,4.7724 -6.7334,6.3629 -13.627,9.9081 -1.7406,0.89515 -5.0793,3.3387 -7.4194,5.4301 -5.5484,4.9588 -9.291,8.1461 -14.127,12.031 -2.1666,1.7406 -5.1259,5.0785 -6.5762,7.4175 -1.4503,2.339 -3.9965,5.7198 -5.6583,7.5129 -1.6618,1.7931 -2.7344,4.0082 -2.3835,4.9224 0.35083,0.91422 -0.79655,2.6021 -2.5497,3.7508 -1.75315,1.1487 -2.907,2.8198 -2.5641,3.7134 0.41283,1.0758 -0.24535,1.4575 -1.9479,1.1296 -2.2462,-0.43258 -2.3571,-0.23077 -0.8764,1.5956 1.204,1.4851 1.2366,1.8154 0.11266,1.1402 -1.0056,-0.60415 -1.5824,-0.20409 -1.5824,1.0976 0,1.2259 -0.58678,1.6856 -1.4615,1.145 -0.95154,-0.58808 -1.1158,-0.34393 -0.47076,0.69976 0.57713,0.93382 0.26243,2.0643 -0.75382,2.708 -1.0846,0.68695 -1.1883,1.1123 -0.27419,1.1244 0.80868,0.0101 1.324,1.0163 1.1452,2.2347 -0.17883,1.2184 -1.1253,2.2153 -2.1033,2.2153 -0.97798,0 -1.7782,0.85447 -1.7782,1.8988 0,1.0444 -0.34775,2.1836 -0.77278,2.5318 -1.4597,1.1956 -5.1102,9.0967 -4.4896,9.7173 0.34143,0.34144 -0.51508,1.7567 -1.9034,3.145 -1.38832,1.3883 -2.2132,3.3346 -1.8331,4.3251 0.3801,0.99052 0.0443,1.801 -0.74605,1.801 -0.79043,0 -1.0801,0.35704 -0.6437,0.79343 0.43639,0.4364 -0.0156,2.3579 -1.0044,4.2701 -0.98882,1.9122 -1.4546,3.82 -1.035,4.2395 0.41956,0.41956 0.0114,1.6681 -0.90677,2.7746 -0.91828,1.1065 -1.7865,3.2564 -1.9293,4.7777 -0.14283,1.5212 -0.64504,6.4839 -1.116,11.028 -0.77773,7.504 -0.58446,8.5787 2.1057,11.709 1.6291,1.8959 3.5401,3.4471 4.2466,3.4471 0.70651,0 2.3973,0.8528 3.7574,1.8951 1.36,1.0423 4.6873,3.6058 7.3939,5.6965 2.7066,2.0908 5.4247,3.8014 6.0401,3.8014 0.61544,0 1.7678,1.4241 2.5609,3.1647 0.79308,1.7406 2.0644,3.1647 2.8252,3.1647 1.9718,0 7.8052,6.4558 8.8728,9.8196 0.49566,1.5616 1.394,2.8392 1.9964,2.8392 0.6024,0 1.4882,1.2379 1.9684,2.7509 0.48021,1.513 1.8295,3.7775 2.9984,5.0322 2.5171,2.7018 7.692,12.144 7.692,14.034 0,1.1957 3.4894,9.344 6.562,15.323 0.65822,1.2809 1.4576,8.0494 1.7765,15.041 0.31885,6.9917 0.87807,13.195 1.2427,13.785 0.36465,0.59003 0.047,2.2238 -0.70596,3.6307 -0.75292,1.4069 -0.92168,2.5576 -0.375,2.5572 1.3403,-9.6e-4 0.84598,20.021 -0.76576,31.015 -0.71448,4.8737 -1.6306,12.536 -2.0358,17.028 -0.63759,7.067 -1.6389,12.491 -3.7507,20.316 -0.28184,1.0444 -1.9408,6.0288 -3.6865,11.076 -1.7457,5.0477 -2.9027,9.1777 -2.5709,9.1777 0.33175,0 -0.84149,2.126 -2.6072,4.7244 -1.7657,2.5985 -3.2104,5.6339 -3.2104,6.7454 0,1.8566 -7.0121,13.648 -8.9879,15.114 -0.46921,0.34812 -1.9305,2.5679 -3.2473,4.9329 -1.3168,2.365 -3.5776,5.0858 -5.024,6.0462 -2.2598,1.5005 -2.8536,1.4766 -4.2199,-0.16975 z m 277.82,-61.445 c 0.4303,-0.69624 0.1791,-1.2659 -0.55823,-1.2659 -0.73732,0 -1.3406,0.56965 -1.3406,1.2659 0,0.69623 0.2512,1.2659 0.55823,1.2659 0.30702,0 0.91029,-0.56965 1.3406,-1.2659 z m -9.9542,-8.4303 c 3.1812,-3.9533 -3.0049,-18.623 -11.824,-28.04 -6.6806,-7.1334 -10.764,-9.1678 -15.565,-7.754 -1.7406,0.51259 -2.4526,0.98878 -1.5824,1.0582 0.87029,0.0694 1.5824,0.87408 1.5824,1.7882 0,0.9141 1.6827,3.2741 3.7392,5.2444 3.8356,3.6748 8.1003,11.233 8.2452,14.614 0.10975,2.5591 -1.8776,5.2005 -3.2667,4.342 -0.61734,-0.38153 -1.1224,-1.8527 -1.1224,-3.2693 0,-1.5061 -1.0454,-2.8489 -2.5175,-3.2339 -1.3846,-0.36209 -3.7386,-2.6343 -5.2312,-5.0493 -3.9952,-6.4645 -8.6961,-10.391 -14.404,-12.032 -2.785,-0.80044 -5.7488,-1.9727 -6.5862,-2.6051 -2.5549,-1.9292 -12.691,-1.285 -16.659,1.0586 -3.1781,1.8773 -3.5205,2.5572 -2.2847,4.5361 0.79955,1.2803 1.9408,2.3278 2.5362,2.3278 0.59534,0 2.5945,1.0726 4.4426,2.3836 3.4179,2.4245 8.6843,5.5233 16.651,9.7976 2.4363,1.3071 4.7149,2.6614 5.0635,3.0095 2.0203,2.0172 13.098,7.5746 16.154,8.1041 0.87735,0.15199 2.273,0.95417 3.1014,1.7826 0.82845,0.82844 2.7467,1.5062 4.2628,1.5062 1.5161,0 3.4456,0.83029 4.2878,1.8451 1.8301,2.2052 8.7862,1.309 10.978,-1.4142 z m -88.317,-89.399 c 4.1386,-3.4902 11.778,-7.2392 14.751,-7.2392 3.5298,0 14.597,-3.508 16.365,-5.1874 0.75499,-0.71696 0.63719,-1.7074 -0.31647,-2.6611 -0.83549,-0.83549 -1.5191,-2.7956 -1.5191,-4.3559 0,-1.5602 -0.54477,-3.1735 -1.2106,-3.585 -0.66583,-0.4115 -0.8897,-1.5844 -0.49751,-2.6065 0.39221,-1.022 0.29201,-2.8552 -0.22266,-4.0736 -0.51468,-1.2184 -1.1152,-3.6394 -1.3344,-5.38 -0.21926,-1.7406 -0.80626,-5.1585 -1.3044,-7.5953 -0.49818,-2.4368 -1.0112,-5.0002 -1.14,-5.6965 -0.1288,-0.69624 -0.38666,-1.8355 -0.57303,-2.5318 -0.18635,-0.69624 -0.41552,-2.0713 -0.50927,-3.0557 -0.34907,-3.6655 -2.7849,-2.4093 -5.3758,2.7723 -1.4704,2.9408 -6.6987,13.322 -11.618,23.069 -4.9196,9.7473 -10.493,21.14 -12.386,25.318 -1.8924,4.1774 -3.636,7.9579 -3.8747,8.4011 -0.60748,1.128 8.257,-3.4769 10.766,-5.5925 z m -170.1,-156.61 c 0.4303,-0.69624 0.17909,-1.2659 -0.55823,-1.2659 -0.73733,0 -1.3406,0.56965 -1.3406,1.2659 0,0.69624 0.2512,1.2659 0.55823,1.2659 0.30703,0 0.9103,-0.56964 1.3406,-1.2659 z m 97.862,-84.215 c -0.38975,-0.38976 -1.0976,0.31281 -1.573,1.5612 -0.68697,1.8041 -0.54157,1.9495 0.70864,0.70864 0.86513,-0.8587 1.2541,-1.8801 0.86432,-2.2699 z m 222.17,298.21 c -4.4024,-2.6843 -6.7267,-6.123 -6.7267,-9.9519 0,-1.353 -0.85447,-3.1691 -1.8988,-4.0359 -1.0444,-0.86674 -1.8538,-2.503 -1.7989,-3.6362 0.0581,-1.1971 0.35753,-1.4271 0.71474,-0.54907 0.33813,0.8312 1.3622,1.2245 2.2756,0.87392 1.8854,-0.72352 3.8315,5.1264 2.4493,7.3628 -0.52449,0.84863 -0.28963,1.0463 0.59421,0.50001 0.80381,-0.49679 1.4615,-0.29998 1.4615,0.43735 0,0.73733 -0.71206,1.349 -1.5824,1.3593 -1.6574,0.0195 3.1584,3.1632 6.9481,4.5356 1.2106,0.4384 1.8804,1.4444 1.4885,2.2355 -0.39193,0.79114 0.0418,0.53312 0.96364,-0.57336 2.3833,-2.8604 16.234,-5.8305 16.234,-3.4812 0,0.58431 -1.1729,1.0624 -2.6065,1.0624 -1.7177,0 -2.3019,0.53956 -1.7131,1.5824 0.71468,1.2659 0.5524,1.2659 -0.81142,0 -1.7295,-1.6053 -4.8681,-2.2983 -3.298,-0.72822 0.90664,0.90662 -5.2523,5.4561 -7.3945,5.4622 -0.69623,0.003 -3.0809,-1.1031 -5.2992,-2.4557 z m 27.452,-1.3289 c -0.74523,-1.3925 -2.2843,-2.5318 -3.4202,-2.5318 -1.1359,0 -1.7182,-0.34705 -1.2941,-0.77122 1.1942,-1.1942 8.5119,2.4553 8.5119,4.245 0,2.4499 -2.2858,1.883 -3.7976,-0.94195 z m 29.083,-0.67178 c -0.8363,-1.0077 -2.0267,-1.5193 -2.6454,-1.137 -0.61865,0.38235 -1.6934,-0.80029 -2.3883,-2.6281 -2.458,-6.4649 -1.3913,-6.5202 4.9539,-0.25703 1.5704,1.5501 3.6558,2.1126 6.5851,1.7764 5.2428,-0.60187 13.916,-4.7006 13.019,-6.1523 -0.35939,-0.58151 -0.0211,-1.0573 0.75176,-1.0573 2.1684,0 5.1852,-8.4329 4.4697,-12.494 -0.75394,-4.2796 -3.4429,-9.797 -4.735,-9.7158 -0.49961,0.0314 -2.0661,-0.93426 -3.4812,-2.1458 -1.415,-1.2116 -2.5728,-1.7375 -2.5728,-1.1687 0,0.56885 -1.6234,0.796 -3.6075,0.50479 -2.5696,-0.37715 -4.5668,0.35953 -6.9418,2.5606 -1.8338,1.6996 -2.9638,3.4606 -2.5109,3.9134 0.45283,0.45283 0.15874,0.82333 -0.65353,0.82333 -0.81228,0 -1.4368,-0.99688 -1.3879,-2.2153 0.097,-2.4154 2.2092,-7.9643 2.3538,-6.1838 0.049,0.60225 1.3707,0.25605 2.9372,-0.76935 2.9414,-1.9253 12.31,-1.7699 13.573,0.22519 0.36734,0.58031 1.8063,1.271 3.1977,1.535 4.7758,0.90591 7.8488,10.483 6.63,20.663 -1.0038,8.384 -22.942,19.472 -27.547,13.923 z m -23.92,-1.3325 c 0.0608,-1.4747 0.3607,-1.7746 0.7648,-0.76481 0.36568,0.91381 0.32071,2.0056 -0.0999,2.4263 -0.42064,0.42064 -0.71983,-0.32703 -0.66487,-1.6615 z m -85.532,-4.3002 c -0.51372,-0.83122 -2.009,-1.2302 -3.323,-0.8866 -1.7243,0.45093 -2.3889,-0.0466 -2.3889,-1.7886 0,-2.7319 0.9849,-2.9387 5.6141,-1.1787 1.7859,0.67901 3.2471,0.78414 3.2471,0.23364 0,-1.188 9.2316,-0.90514 11.254,0.34488 0.77256,0.47746 1.4046,0.26485 1.4046,-0.47248 0,-0.73732 1.4616,-1.3406 3.2479,-1.3406 1.7864,0 4.2074,-0.51138 5.38,-1.1364 1.1726,-0.62503 3.5562,-1.3371 5.2968,-1.5824 1.7406,-0.24527 3.4914,-0.88653 3.8907,-1.425 1.0832,-1.4608 6.087,-2.1856 6.8266,-0.98886 0.77717,1.2575 -6.8514,4.6171 -9.262,4.079 -1.1144,-0.24874 -1.3603,0.19871 -0.70641,1.2855 0.6778,1.1266 0.22981,1.0514 -1.3818,-0.2318 -1.3899,-1.1067 -1.9882,-1.2387 -1.4342,-0.31648 0.97415,1.6215 -0.37013,2.0846 -4.7172,1.6251 -1.6364,-0.17297 -2.0568,0.26483 -1.3794,1.4366 0.53584,0.92696 0.50812,1.2631 -0.0616,0.74695 -0.56974,-0.51614 -1.7931,-0.31 -2.7186,0.45808 -0.92549,0.76809 -2.4753,1.0924 -3.444,0.72064 -0.96875,-0.37174 -3.8273,-0.20995 -6.3523,0.35953 -2.848,0.64231 -4.8888,0.55354 -5.3754,-0.23382 -0.49631,-0.80309 -1.1331,-0.70505 -1.7338,0.26694 -0.73308,1.1862 -1.1622,1.1918 -1.8835,0.0248 z m 103.98,-5.9237 c -1.2868,-1.7246 -2.026,-3.4492 -1.6426,-3.8326 1.1313,-1.1313 4.8369,3.246 4.3912,5.1871 -0.28538,1.243 -1.1157,0.83383 -2.7486,-1.3545 z m 14.366,-0.43063 c 0,-0.65254 -0.86614,-0.85405 -1.9248,-0.44782 -2.1662,0.83126 -10.307,-4.2467 -11.42,-7.1233 -0.39886,-1.0311 -0.12291,-2.0754 0.61312,-2.3208 0.73609,-0.24535 1.3383,-1.2531 1.3383,-2.2394 0,-0.98634 0.56965,-1.7933 1.2659,-1.7933 0.69624,0 1.2659,1.2975 1.2659,2.8834 0,8.63 14.484,9.5348 15.488,0.96763 0.33103,-2.8232 -1.0781,-4.1774 -5.9586,-5.7266 -2.082,-0.66089 -2.1871,-0.98441 -0.63294,-1.9496 1.0248,-0.63647 2.0331,-0.6663 2.2405,-0.0663 0.20744,0.60001 1.3488,0.83685 2.5363,0.5263 1.399,-0.36584 2.8602,0.68418 4.1506,2.9826 2.0605,3.6701 1.9151,7.9778 -0.26925,7.9778 -0.68627,0 -0.92105,0.52864 -0.52174,1.1747 0.39932,0.64612 -0.42153,1.539 -1.8241,1.9841 -1.4026,0.44516 -2.5502,1.2797 -2.5502,1.8545 0,0.57483 -0.85447,1.373 -1.8988,1.7738 -1.0444,0.40076 -1.8988,0.19476 -1.8988,-0.45778 z m -16.457,-6.3294 c 0,-0.69623 0.56965,-1.2659 1.2659,-1.2659 0.69623,0 1.2659,0.56965 1.2659,1.2659 0,0.69624 -0.56965,1.2659 -1.2659,1.2659 -0.69624,0 -1.2659,-0.56965 -1.2659,-1.2659 z m 14.087,-4.9365 c -0.95516,-0.60506 -1.5229,-1.7412 -1.2617,-2.5249 0.26577,-0.79733 1.1746,-0.30434 2.0638,1.1195 1.7734,2.8397 1.6907,2.9845 -0.80211,1.4054 z m -62.214,-14.685 c -0.10139,-0.69624 -0.45473,-2.9748 -0.78523,-5.0636 -0.54795,-3.4631 -0.42343,-3.6226 1.4135,-1.8101 1.5349,1.5144 1.7218,2.7197 0.78521,5.0636 -0.67602,1.6918 -1.3121,2.5064 -1.4134,1.8101 z m 11.635,-2.7287 c 0.24423,-1.2682 1.4344,-2.4965 2.6448,-2.7296 3.064,-0.59007 2.7577,1.9064 -0.44405,3.62 -2.2651,1.2122 -2.5811,1.0844 -2.2008,-0.89034 z m -32.501,-1.7066 c -0.42872,-0.69368 -0.22004,-1.2612 0.46373,-1.2612 0.68377,0 3.0896,-1.8463 5.3462,-4.103 2.6792,-2.6792 3.607,-3.1762 2.6737,-1.4323 -0.78612,1.4689 -1.1116,2.9884 -0.72325,3.3767 0.38832,0.38832 -1.0235,1.6004 -3.1374,2.6936 -2.4122,1.2474 -4.1337,1.5179 -4.623,0.72627 z m 30.701,-3.3997 c -1.2184,-0.31839 -2.2153,-1.1068 -2.2153,-1.752 0,-1.8462 3.3244,-1.3697 5.0635,0.72576 1.5934,1.92 1.1639,2.0747 -2.8482,1.0262 z m -40.192,-13.685 c 0,-1.0971 0.75377,-1.5301 1.8988,-1.0907 1.0444,0.40077 1.8988,0.89159 1.8988,1.0907 0,0.19914 -0.85448,0.68996 -1.8988,1.0907 -1.1451,0.43939 -1.8988,0.006 -1.8988,-1.0907 z m 61.098,-0.15224 c 0.37859,-0.6125 -1.9631,-0.94024 -5.2038,-0.72831 -4.3681,0.28568 -5.401,0.0451 -3.9933,-0.93003 2.7156,-1.8812 13.004,-1.7572 12.369,0.14911 -0.27558,0.82677 -1.2568,1.7552 -2.1805,2.063 -0.92369,0.3079 -1.3697,0.0587 -0.99112,-0.55382 z m 95.911,-2.0631 c 0.047,-1.8663 4.4717,-5.2715 8.5112,-6.55 1.9857,-0.62848 3.0746,-0.32981 3.5777,0.98132 0.67712,1.7646 5.5305,1.7924 8.3532,0.0478 0.57097,-0.35287 1.0241,0.10406 1.007,1.0155 -0.0171,0.91139 -2.0607,2.6675 -4.5412,3.9025 -4.4294,2.2053 -4.5224,2.1983 -5.1988,-0.38807 -0.47866,-1.8304 -1.3135,-2.3749 -2.7376,-1.7854 -1.1269,0.46648 -3.0458,1.1348 -4.2642,1.4851 -1.2184,0.35034 -2.2153,1.1402 -2.2153,1.7552 0,0.61503 -0.56964,1.1182 -1.2659,1.1182 -0.69624,0 -1.248,-0.71206 -1.2261,-1.5824 z m 32.069,-4.1048 c -0.47024,-1.2254 0.24238,-3.0086 1.7717,-4.4334 2.2399,-2.0868 2.851,-2.1618 4.9097,-0.60234 2.2449,1.7005 2.2224,1.783 -0.4969,1.8214 -1.6174,0.0229 -2.8482,0.82854 -2.8482,1.8644 0,2.7215 -2.4323,3.7057 -3.3363,1.35 z m -7.4983,-2.4689 c -2.3169,-1.7222 -2.2438,-1.8049 1.2798,-1.4478 2.0554,0.20834 3.9542,1.0303 4.2196,1.8266 0.67599,2.028 -2.5616,1.805 -5.4994,-0.37879 z m -136.49,-0.45952 c -1.223,-1.9788 5.9623,-5.4141 10.587,-5.0616 2.1002,0.16002 3.8186,0.92932 3.8186,1.7095 0,2.5201 -1.5208,3.0324 -3.4058,1.1473 -2.1966,-2.1966 -4.7233,-2.4605 -3.4236,-0.35753 0.62847,1.0169 0.20476,1.2084 -1.352,0.61095 -1.4464,-0.55502 -2.8267,-0.10507 -3.8121,1.2425 -1.0428,1.4261 -1.8267,1.6564 -2.4123,0.70884 z m 154.38,-0.40391 c 0.37651,-0.60921 1.281,-1.1076 2.01,-1.1076 0.729,0 2.4457,-1.4241 3.8148,-3.1647 1.3692,-1.7406 3.0177,-3.1647 3.6634,-3.1647 2.008,0 0.66947,3.026 -1.9907,4.5003 -1.3925,0.77174 -2.4131,1.9974 -2.268,2.7238 0.14506,0.72635 -1.1263,1.3206 -2.8252,1.3206 -1.6989,0 -2.7808,-0.49845 -2.4043,-1.1076 z m -185.55,-3.5647 c 0,-0.65515 0.56965,-1.5432 1.2659,-1.9735 0.69623,-0.4303 1.2659,0.1057 1.2659,1.1912 0,1.0854 -0.56965,1.9735 -1.2659,1.9735 -0.69624,0 -1.2659,-0.53603 -1.2659,-1.1912 z m 15.029,-0.31647 c -0.24489,-0.59297 -1.044,-4.908 -1.8892,-10.202 -0.61203,-3.8331 -0.3657,-4.7471 1.2794,-4.7471 1.1205,0 2.0373,0.56965 2.0373,1.2659 0,0.69624 -0.63059,1.2659 -1.4013,1.2659 -0.83361,0 -1.0366,0.89748 -0.5011,2.2153 2.2218,5.4676 2.9045,9.1913 1.8092,9.8682 -0.64495,0.3986 -1.2453,0.5487 -1.3342,0.33355 z m -19.392,-3.204 c -0.66993,-1.7458 -1.0474,-1.8385 -1.8959,-0.46569 -0.81324,1.3158 -1.2584,1.087 -1.916,-0.98489 -0.47117,-1.4845 -1.3879,-2.699 -2.0372,-2.699 -1.9266,0 -1.3418,-3.4649 0.71825,-4.2554 1.0786,-0.4139 1.8988,-0.0285 1.8988,0.8924 0,0.89157 1.7089,2.8845 3.7976,4.4288 2.0887,1.5442 3.7977,3.3603 3.7977,4.0357 0,2.1034 -3.4824,1.3437 -4.3633,-0.95183 z m 137.28,-2.6354 c 0,-2.8733 7.6146,-10.375 10.531,-10.375 1.2002,0 2.831,1.4241 3.6241,3.1647 1.4359,3.1515 3.5673,4.2949 3.5673,1.9138 0,-0.68803 0.99688,-1.1396 2.2153,-1.0035 3.5137,0.39245 11.709,-1.7072 11.709,-2.9998 0,-0.64619 0.79468,-0.44038 1.766,0.45736 1.8793,1.737 1.3972,4.0707 -0.58755,2.8441 -0.64812,-0.40057 -1.1784,-0.12507 -1.1784,0.61229 0,0.73733 -1.5665,1.3531 -3.4812,1.3684 -1.9146,0.0153 -5.9599,1.1526 -8.9894,2.5273 -6.001,2.7231 -7.7836,2.4108 -7.7836,-1.3639 0,-3.4579 -1.7471,-3.061 -5.9016,1.3406 -4.1189,4.364 -5.4914,4.7424 -5.4914,1.5142 z m -181.97,-9.2109 c 1.2184,-0.70965 2.2153,-1.8185 2.2153,-2.4642 0,-0.64562 3.1331,-4.4086 6.9624,-8.3623 3.8293,-3.9536 6.9624,-7.6865 6.9624,-8.2953 0,-0.60876 2.7393,-3.9191 6.0872,-7.3562 5.5231,-5.6703 6.5357,-6.2059 10.927,-5.7804 2.6616,0.25792 5.1916,0.97516 5.6222,1.5938 1.3057,1.876 7.5997,1.7453 12.393,-0.25737 2.4876,-1.0394 5.525,-1.8898 6.7499,-1.8898 2.9289,0 8.8568,-7.8611 8.8568,-11.745 0,-3.8189 4.101,-7.6472 8.6018,-8.0299 1.8832,-0.16011 7.6964,-0.61966 12.918,-1.0212 6.7851,-0.52179 9.9419,-1.335 11.063,-2.8498 0.8631,-1.1658 1.9822,-1.7067 2.487,-1.202 1.5608,1.5608 -1.6346,5.2115 -4.8256,5.5132 -1.6656,0.15749 -6.1614,0.64043 -9.9907,1.0732 -3.8293,0.43276 -8.3865,0.87355 -10.127,0.97954 -3.3058,0.20132 -6.9128,2.8539 -7.0316,5.171 -0.34476,6.7253 -8.3327,15.909 -13.838,15.909 -1.0541,0 -1.9166,0.51632 -1.9166,1.1474 0,0.63105 -1.1423,0.84865 -2.5385,0.48354 -1.3962,-0.36512 -3.2476,-0.0981 -4.1141,0.59328 -1.9384,1.5466 -5.5574,1.2132 -10.023,-0.9233 -3.7076,-1.7737 -13.029,-0.74792 -11.767,1.2948 0.40855,0.66106 0.18961,1.2019 -0.48657,1.2019 -0.67617,0 -3.5719,3.4317 -6.4349,7.6261 -5.6446,8.2694 -8.9132,11.923 -11.632,13.003 -1.3831,0.54928 -1.3506,0.71275 0.15824,0.79592 2.2116,0.1219 -5.6307,5.1776 -7.9424,5.1202 -0.85347,-0.0211 -0.55488,-0.61912 0.66354,-1.3288 z m 205.29,-29.17 c -0.33979,-0.5498 -1.454,-0.67873 -2.4761,-0.28653 -1.022,0.39221 -1.8583,0.14345 -1.8583,-0.55279 0,-0.69624 0.85447,-1.5938 1.8988,-1.9945 1.0444,-0.40075 1.8988,-0.31928 1.8987,0.18103 -1.1e-4,1.0672 6.6094,1.0355 8.3496,-0.04 0.65625,-0.40558 3.0655,-0.60779 5.3539,-0.44936 2.5847,0.17894 4.554,-0.41473 5.199,-1.5673 0.5975,-1.0677 1.911,-1.5205 3.0938,-1.0666 2.769,1.0626 2.6157,3.4 -0.22306,3.4 -1.2532,0 -2.9256,0.64697 -3.7163,1.4377 -1.7695,1.7695 -11.728,2.6181 -11.728,0.9994 0,-0.64417 -0.60327,-1.1712 -1.3406,-1.1712 -0.73733,0 -1.0472,0.4747 -0.68863,1.0549 0.35859,0.5802 -0.2025,1.0549 -1.2469,1.0549 -1.0444,0 -2.1768,-0.44983 -2.5166,-0.99962 z m -25.835,-25.258 c -0.0101,-1.097 1.4047,-3.3325 3.1453,-4.9677 1.9625,-1.8436 3.206,-4.4522 3.2735,-6.8666 l 0.10886,-3.8935 1.1116,3.7203 c 1.2428,4.1596 -0.89427,10.204 -3.6077,10.204 -0.88631,0 -2.1516,0.85448 -2.8118,1.8988 -1.0523,1.6646 -1.2027,1.6528 -1.2197,-0.0958 z m 15.478,-2.0524 c 3.7084,-3.7084 5.4746,-3.3739 4.154,0.78689 -0.56861,1.7915 -1.9048,2.6272 -4.2009,2.6272 l -3.3671,0 3.414,-3.4141 z m -338.58,-4.7087 c -7.2821,-5.526 -10.091,-7.0279 -13.184,-7.0492 -1.4884,-0.0101 -5.4838,-1.87 -8.8787,-4.1328 -3.3949,-2.2628 -7.0137,-4.3022 -8.0419,-4.5321 -1.0281,-0.22989 -2.1596,-0.87219 -2.5143,-1.4273 -1.4156,-2.2155 -11.31,-2.818 -15.114,-0.92026 -3.3064,1.6494 -4.4275,1.6542 -9.2054,0.0391 -10.167,-3.4368 -10.814,-8.5124 -1.2464,-9.7816 5.4488,-0.72281 6.187,-1.2546 8.9363,-6.437 1.6483,-3.107 5.1657,-8.0695 7.8165,-11.028 2.6508,-2.9582 4.5426,-5.8269 4.204,-6.3748 -0.33862,-0.5479 -0.0719,-0.99618 0.59264,-0.99618 0.66456,0 2.3022,-2.1362 3.6392,-4.7471 4.1964,-8.1947 8.1669,-14.241 9.3516,-14.241 0.62747,0 1.1408,-0.77765 1.1408,-1.7281 0,-0.95047 1.2817,-3.3576 2.8482,-5.3491 1.5665,-1.9915 2.7741,-3.9197 2.6834,-4.2848 -0.33284,-1.3407 1.9493,-6.1403 3.3234,-6.9895 2.1959,-1.3572 7.6015,0.45769 7.6015,2.5521 0,1.0311 -0.61712,1.8747 -1.3714,1.8747 -0.75427,0 -1.1161,0.71206 -0.80401,1.5824 0.31206,0.87029 0.016,2.6517 -0.65814,3.9586 -0.86616,1.6795 -0.74931,2.6706 0.39846,3.38 0.8932,0.55203 1.7497,2.0461 1.9034,3.3202 0.15364,1.2741 1.4464,7.4434 2.8727,13.709 1.9805,8.7006 2.523,14.983 2.2958,26.584 -0.16363,8.3548 -0.7151,15.866 -1.2255,16.691 -1.0585,1.7118 2.7176,5.8404 9.6266,10.525 4.5394,3.0781 5.6194,5.5061 3.7156,8.3533 -1.6017,2.3954 -5.3721,1.4969 -10.707,-2.5513 z m -11.756,-26.373 c 0.51514,-2.2628 1.1415,-6.0865 1.3919,-8.4971 0.25039,-2.4107 0.73672,-5.1165 1.0807,-6.013 0.34402,-0.89647 0.0441,-1.63 -0.66652,-1.63 -0.71061,0 -1.8679,1.6519 -2.5717,3.6708 -2.025,5.809 -9.9816,5.9195 -9.9816,0.13862 0,-1.3168 -0.51925,-2.7151 -1.1539,-3.1073 -0.67344,-0.4162 -0.54256,-2.3327 0.31435,-4.6028 1.5066,-3.9916 3.94,-4.4384 10.017,-1.8394 1.8325,0.7837 2.2153,0.28068 2.2153,-2.911 0,-2.1221 -0.53673,-4.1901 -1.1927,-4.5956 -0.656,-0.40543 -1.5731,-3.2738 -2.0381,-6.3742 -0.75524,-5.0362 -1.1003,-5.5005 -3.2379,-4.3566 -1.3159,0.70424 -2.3925,1.9187 -2.3925,2.6988 0,0.78009 -1.3138,3.181 -2.9195,5.3355 -1.6057,2.1544 -4.4109,7.0502 -6.2336,10.88 -1.8228,3.8293 -4.7814,8.6175 -6.5746,10.64 -3.9068,4.4072 -4.1821,7.0819 -0.72874,7.0819 1.3925,0 2.5318,0.56965 2.5318,1.2659 0,0.69623 1.614,1.2659 3.5867,1.2659 1.9727,0 4.0098,0.42309 4.5268,0.94018 0.74683,0.74683 7.8107,3.0201 12.299,3.958 0.43515,0.0909 1.2126,-1.686 1.7278,-3.9488 z m 361.42,28.166 c 0,-0.69624 0.53603,-1.2659 1.1912,-1.2659 0.65514,0 1.5432,0.56965 1.9735,1.2659 0.4303,0.69624 -0.1057,1.2659 -1.1912,1.2659 -1.0854,0 -1.9735,-0.56965 -1.9735,-1.2659 z m -9.8615,-3.5014 c 0.41944,-2.5065 2.323,-4.2082 3.7328,-3.3369 1.3814,0.85371 -0.081,3.9897 -2.2483,4.8214 -1.2493,0.4794 -1.7323,-0.004 -1.4845,-1.4845 z m -27.803,-3.1308 c 0.25609,-0.76826 1.5724,-1.5559 2.9251,-1.7503 1.3527,-0.19442 4.1684,-0.73509 6.2571,-1.2015 3.4309,-0.76611 3.6143,-0.65466 1.8988,1.1541 -2.256,2.3787 -11.79,3.9255 -11.081,1.7977 z m 48.108,-0.53557 c -0.8703,-0.35117 -1.5824,-1.3206 -1.5824,-2.1543 0,-0.83368 -1.8514,-2.2606 -4.1141,-3.1708 -2.415,-0.97156 -3.4338,-1.9229 -2.4668,-2.3035 1.7693,-0.69645 11.644,5.5566 11.644,7.3733 0,1.1837 -0.99894,1.257 -3.4812,0.25535 z m -44.306,-8.8427 c -2.4578,-1.2116 -4.1141,-2.9838 -4.1141,-4.4018 0,-3.1359 1.5255,-3.0097 3.5905,0.29687 1.2922,2.0691 2.49,2.5061 5.319,1.9403 2.0082,-0.40162 3.9917,-0.17925 4.4079,0.49418 0.41621,0.67344 -0.16497,1.2244 -1.2915,1.2244 -1.12653,0 -1.6962,0.56965 -1.2659,1.2659 1.1571,1.8723 -1.9665,1.4869 -6.6459,-0.81987 z m 13.231,-12.31 c -2.6695,-6.0736 -2.7052,-7.9079 -0.17283,-8.8797 1.5321,-0.58793 1.7955,-0.17418 1.1613,1.8241 -0.45116,1.4215 -0.15986,3.3803 0.64735,4.353 0.8072,0.97262 1.2541,3.0815 0.99313,4.6863 -0.41821,2.5717 -0.73016,2.3363 -2.629,-1.9837 z m 19.656,1.4996 c 0.27558,-0.82679 1.32,-1.7246 2.3208,-1.9952 1.4801,-0.40015 1.4653,-0.24135 -0.0791,0.85092 -1.0444,0.73858 -1.374,1.3516 -0.73262,1.3622 0.64141,0.0101 2.185,-0.9026 3.4302,-2.0295 2.4494,-2.2167 9.4457,-1.4552 8.0077,0.87158 -0.43518,0.70415 -1.8347,0.94911 -3.11,0.54434 -1.2753,-0.40477 -2.6851,-0.14311 -3.1329,0.58145 -1.1475,1.8568 -7.3278,1.6854 -6.7041,-0.18586 z m -7.8854,-4.6373 c 0,-2.991 2.8686,-8.6514 5.0862,-10.036 2.5694,-1.6046 3.0991,-0.75828 1.7408,2.7815 -0.4226,1.1013 -1.5619,2.0024 -2.5318,2.0024 -0.96986,0 -1.6959,0.42724 -1.6135,0.94941 0.42078,2.6649 -0.29372,5.38 -1.4158,5.38 -0.69624,0 -1.2659,-0.48465 -1.2659,-1.077 z m -371.55,-104.01 c 0.4303,-0.69624 1.352,-1.2659 2.0482,-1.2659 0.69624,0 0.91383,0.56965 0.48353,1.2659 -0.4303,0.69624 -1.352,1.2659 -2.0482,1.2659 -0.69624,0 -0.91383,-0.56965 -0.48353,-1.2659 z"
         inkscape:connector-curvature="0"
         style="fill:#000000"
         id="path3030" />
    </g>
  </g>
</svg>
