<?xml version="1.0" encoding="UTF-8" standalone="no"?>
<!-- Created with Inkscape (http://www.inkscape.org/) -->

<svg
   xmlns:dc="http://purl.org/dc/elements/1.1/"
   xmlns:cc="http://creativecommons.org/ns#"
   xmlns:rdf="http://www.w3.org/1999/02/22-rdf-syntax-ns#"
   xmlns:svg="http://www.w3.org/2000/svg"
   xmlns="http://www.w3.org/2000/svg"
   xmlns:sodipodi="http://sodipodi.sourceforge.net/DTD/sodipodi-0.dtd"
   xmlns:inkscape="http://www.inkscape.org/namespaces/inkscape"
   id="svg5444"
   sodipodi:docname="blackboard-with-stand.svg"
   viewBox="0 0 504.11 428.35"
   version="1.1"
   inkscape:version="0.92.1 r15371"
   width="537.71735"
   height="456.90668">
  <sodipodi:namedview
     id="base"
     bordercolor="#666666"
     inkscape:pageshadow="2"
     inkscape:window-y="-3"
     pagecolor="#ffffff"
     inkscape:window-height="850"
     inkscape:window-maximized="1"
     inkscape:zoom="1.0036618"
     inkscape:window-x="-4"
     showgrid="false"
     borderopacity="1.0"
     inkscape:current-layer="layer1"
     inkscape:cx="252.05654"
     inkscape:cy="214.1762"
     inkscape:window-width="1440"
     inkscape:pageopacity="0.0"
     inkscape:document-units="px" />
  <defs
     id="defs5446">
    <linearGradient
       id="linearGradient8775"
       y2="130.07001"
       gradientUnits="userSpaceOnUse"
       x2="569.34998"
       gradientTransform="matrix(1,0,0,1.0086,339.28,143.92)"
       y1="286.38"
       x1="125.89"
       inkscape:collect="always">
      <stop
         id="stop7035"
         style="stop-color:#867850"
         offset="0" />
      <stop
         id="stop7041"
         style="stop-color:#a08872"
         offset=".35474" />
      <stop
         id="stop7037"
         style="stop-color:#867850"
         offset="1" />
    </linearGradient>
    <linearGradient
       id="linearGradient8777"
       y2="335.09"
       gradientUnits="userSpaceOnUse"
       x2="411.64001"
       gradientTransform="translate(480.76,44.468)"
       y1="330.39001"
       x1="412.44"
       inkscape:collect="always">
      <stop
         id="stop7104"
         style="stop-color:#b8b8b8"
         offset="0" />
      <stop
         id="stop7110"
         style="stop-color:#e3e3e3"
         offset=".5" />
      <stop
         id="stop7106"
         style="stop-color:#b9b9b9"
         offset="1" />
    </linearGradient>
    <linearGradient
       id="linearGradient8779"
       y2="335.09"
       gradientUnits="userSpaceOnUse"
       x2="411.64001"
       gradientTransform="matrix(0.90747,-0.42013,0.42013,0.90747,384.27,248.55)"
       y1="330.39001"
       x1="412.44"
       inkscape:collect="always">
      <stop
         id="stop7104-7"
         style="stop-color:#b8b8b8"
         offset="0" />
      <stop
         id="stop7110-8"
         style="stop-color:#e3e3e3"
         offset=".5" />
      <stop
         id="stop7106-8"
         style="stop-color:#b9b9b9"
         offset="1" />
    </linearGradient>
    <linearGradient
       id="linearGradient8781"
       y2="335.09"
       gradientUnits="userSpaceOnUse"
       x2="411.64001"
       gradientTransform="matrix(-0.96884,-0.24771,0.24771,-0.96884,1228.8,801.16)"
       y1="330.39001"
       x1="412.44"
       inkscape:collect="always">
      <stop
         id="stop7104-5"
         style="stop-color:#b8b8b8"
         offset="0" />
      <stop
         id="stop7110-4"
         style="stop-color:#e3e3e3"
         offset=".5" />
      <stop
         id="stop7106-1"
         style="stop-color:#b9b9b9"
         offset="1" />
    </linearGradient>
  </defs>
  <g
     id="layer1"
     inkscape:label="Layer 1"
     transform="translate(-579.79,-74.027)"
     inkscape:groupmode="layer">
    <g
       id="g8760">
      <path
         id="path8684-3"
         sodipodi:nodetypes="cccccccccccs"
         style="fill:#685b49;stroke:#30302c;stroke-width:0.2"
         d="m 1050.5,235.88 c 3.4106,0.0725 9.0449,4.575 9.0449,4.575 l -0.5321,186.56 c 0,0 15.669,6.8016 22.878,9.1499 2.8788,7.6335 1.5962,16.267 1.5962,16.267 l -12.769,-2.5416 c -13.698,-13.587 -27.98,-18.252 -43.096,-10.167 l -12.769,-2.0333 c 0,0 1.066,-9.6281 5.3205,-13.217 8.0277,-1.8662 20.218,-1e-5 20.218,-1e-5 v -184.02 c 0,0 6.3812,-4.6542 10.109,-4.575 z"
         inkscape:connector-curvature="0" />
      <path
         id="rect5454-4"
         sodipodi:nodetypes="cccccccccc"
         style="color:#000000;fill:#736e55;stroke:#777777;stroke-width:0.2;stroke-linejoin:round"
         d="m 630.82,398.97 413.52,-17.231 c 1.429,-0.0596 2.5728,-1.8475 2.5672,-4.009 l -0.6218,-241.59 c -0.01,-2.1646 -1.1596,-4.0646 -2.5903,-4.2603 0,0 -409.53,-57.64 -409.53,-57.64 -3.3993,0.28087 -8.9187,2.6645 -8.908,5.4817 l 1.1993,314.35 c 0.0107,2.8119 1.9592,4.9948 4.3629,4.8947"
         inkscape:connector-curvature="0" />
      <path
         id="rect5454"
         style="color:#000000;fill:url(#linearGradient8775);stroke:#777777;stroke-width:0.2;stroke-linejoin:round"
         d="m 636.6,399.29 413.52,-17.305 c 1.429,-0.0598 2.5728,-1.8554 2.5672,-4.0262 l -0.6218,-242.62 c -0.01,-2.1739 -1.1596,-4.0819 -2.5903,-4.2785 l -414.11,-56.89 c -2.4077,-0.33077 -4.342,1.68 -4.3313,4.5093 l 1.1993,315.7 c 0.0107,2.824 1.9592,5.0162 4.3629,4.9156"
         inkscape:connector-curvature="0" />
      <path
         id="rect5454-1"
         style="color:#000000;fill:#444444;stroke:#777777;stroke-width:0.2;stroke-linejoin:round"
         d="m 653.93,383.37 384.32,-11.556 c 1.4147,-0.0426 2.5465,-1.8831 2.5405,-4.127 l -0.575,-217.35 c -0.01,-2.2471 -1.1487,-4.2182 -2.565,-4.42 0,0 -384.86,-54.83 -384.86,-54.83 -2.3772,-0.33867 -4.2866,1.7397 -4.2752,4.6608 l 1.1068,282.49 c 0.0114,2.9157 1.9361,5.2053 4.3095,5.134"
         inkscape:connector-curvature="0" />
      <path
         id="rect7048-4"
         sodipodi:nodetypes="ccccc"
         style="color:#000000;fill:url(#linearGradient8777);stroke:#858585;stroke-width:0.1;stroke-linejoin:round"
         d="m 878.42,372.7 30.171,3.838 -0.79998,5.4618 -30.018,-4.881 0.64721,-4.4188 z"
         inkscape:connector-curvature="0" />
      <path
         id="rect7048-4-2"
         sodipodi:nodetypes="ccccc"
         style="color:#000000;fill:url(#linearGradient8779);stroke:#858585;stroke-width:0.1;stroke-linejoin:round"
         d="m 883.03,379.34 28.991,-9.1927 1.5687,5.2925 -29.291,8.1821 -1.2691,-4.2818 z"
         inkscape:connector-curvature="0" />
      <path
         id="rect7048-4-27"
         sodipodi:nodetypes="ccccc"
         style="color:#000000;fill:url(#linearGradient8781);stroke:#858585;stroke-width:0.1;stroke-linejoin:round"
         d="m 924.85,384.65 -28.28,-11.192 2.128,-5.0934 27.873,12.165 -1.7216,4.1208 z"
         inkscape:connector-curvature="0" />
      <path
         id="rect7204"
         style="color:#000000;fill:#493a3d;stroke:#858585;stroke-width:0.1;stroke-linejoin:round"
         d="m 732.12,376.09 37.614,1.597 -0.50501,11.894 -37.614,-1.597 z"
         inkscape:connector-curvature="0" />
      <path
         id="path8684-6"
         sodipodi:nodetypes="cccccccscccccs"
         style="fill:#635348;stroke:#2a302c;stroke-width:0.2"
         d="m 630.97,206.62 c 4.4385,0.0988 11.771,6.2317 11.771,6.2317 l -0.69241,254.11 c 0,0 20.391,9.2646 29.774,12.463 3.7465,10.398 2.0772,22.157 2.0772,22.157 l -4.9558,0.61612 -11.662,-4.0782 c -8.9134,-9.2537 -22.655,-15.665 -33.163,-17.645 -10.508,-1.9805 -12.751,-0.64802 -22.14,3.3501 l -5.2174,1.1423 c 0,0 -10.796,-16.58 -5.2587,-21.467 10.447,-2.542 26.312,-1e-5 26.312,-1e-5 v -250.65 c 0,0 8.3046,-6.3397 13.156,-6.2317 z"
         inkscape:connector-curvature="0" />
      <path
         id="path8684"
         sodipodi:nodetypes="cccccccccccs"
         style="fill:#736e55;stroke:#30302c;stroke-width:0.2"
         d="m 626.28,207.31 c 4.4385,0.0988 11.771,6.2317 11.771,6.2317 l -0.69241,254.11 c 0,0 20.391,9.2646 29.774,12.463 3.7465,10.398 2.0772,22.157 2.0772,22.157 l -16.618,-3.462 c -17.827,-18.507 -36.413,-24.862 -56.085,-13.848 l -16.618,-2.7696 c 0,0 1.3872,-13.115 6.9241,-18.003 10.447,-2.542 26.312,-10e-6 26.312,-10e-6 v -250.65 c 0,0 8.3046,-6.3397 13.156,-6.2317 z"
         inkscape:connector-curvature="0" />
      <ellipse
         id="path8708"
         style="color:#000000;fill:#635348;stroke:#2a302c;stroke-width:0.2;stroke-linecap:round;stroke-linejoin:round"
         transform="translate(129.13,92.829)"
         cx="496.80374"
         cy="148.06575"
         rx="3.8082516"
         ry="5.8854799" />
      <path
         id="rect8757"
         sodipodi:nodetypes="ccccc"
         style="color:#000000;fill:#685b49"
         transform="rotate(1.1301)"
         d="m 732.85,363.96 6.4327,-2.5502 0.1409,12.681 -6.4827,0.0139 -0.0909,-10.145 z"
         inkscape:connector-curvature="0" />
      <path
         id="path8753"
         d="m 917.9,283.94 -7.9708,-2.5171 -389.73,12.585 13.424,5.0342 384.27,-15.102 z"
         sodipodi:nodetypes="ccccc"
         style="fill:#685b49;stroke:#6e5739;stroke-width:3.9000001"
         transform="translate(129.82,97.676)"
         inkscape:connector-curvature="0" />
    </g>
  </g>
  <metadata
     id="metadata35">
    <rdf:RDF>
      <cc:Work>
        <dc:format>image/svg+xml</dc:format>
        <dc:type
           rdf:resource="http://purl.org/dc/dcmitype/StillImage" />
        <cc:license
           rdf:resource="http://creativecommons.org/licenses/publicdomain/" />
        <dc:publisher>
          <cc:Agent
             rdf:about="http://openclipart.org/">
            <dc:title>Openclipart</dc:title>
          </cc:Agent>
        </dc:publisher>
        <dc:title>Blackboard with Stand</dc:title>
        <dc:date>2010-04-21T04:19:05</dc:date>
        <dc:description>A blackboard with stand, chalk and eraser, in slight perspective. Drawn in Inkscape.</dc:description>
        <dc:source>https://openclipart.org/detail/49375/blackboard-with-stand-by-j_alves</dc:source>
        <dc:creator>
          <cc:Agent>
            <dc:title>J_Alves</dc:title>
          </cc:Agent>
        </dc:creator>
        <dc:subject>
          <rdf:Bag>
            <rdf:li>blackboard</rdf:li>
            <rdf:li>chalk</rdf:li>
            <rdf:li>chalkboard</rdf:li>
            <rdf:li>education</rdf:li>
            <rdf:li>school</rdf:li>
            <rdf:li>stand</rdf:li>
          </rdf:Bag>
        </dc:subject>
      </cc:Work>
      <cc:License
         rdf:about="http://creativecommons.org/licenses/publicdomain/">
        <cc:permits
           rdf:resource="http://creativecommons.org/ns#Reproduction" />
        <cc:permits
           rdf:resource="http://creativecommons.org/ns#Distribution" />
        <cc:permits
           rdf:resource="http://creativecommons.org/ns#DerivativeWorks" />
      </cc:License>
    </rdf:RDF>
  </metadata>
</svg>
