<?xml version="1.0" encoding="UTF-8" standalone="no"?>
<!-- Created with Inkscape (http://www.inkscape.org/) -->

<svg
   xmlns:dc="http://purl.org/dc/elements/1.1/"
   xmlns:cc="http://creativecommons.org/ns#"
   xmlns:rdf="http://www.w3.org/1999/02/22-rdf-syntax-ns#"
   xmlns:svg="http://www.w3.org/2000/svg"
   xmlns="http://www.w3.org/2000/svg"
   xmlns:sodipodi="http://sodipodi.sourceforge.net/DTD/sodipodi-0.dtd"
   xmlns:inkscape="http://www.inkscape.org/namespaces/inkscape"
   id="svg6629"
   sodipodi:docname="car-pictogram.svg"
   viewBox="0 0 128 88.713"
   version="1.1"
   inkscape:version="0.92.1 r15371"
   width="136.53334"
   height="94.627197">
  <defs
     id="defs15" />
  <title
     id="title7198">Car Pictogram</title>
  <sodipodi:namedview
     id="base"
     bordercolor="#666666"
     inkscape:pageshadow="2"
     inkscape:window-y="46"
     fit-margin-left="0"
     pagecolor="#ffffff"
     fit-margin-top="0"
     inkscape:window-maximized="0"
     inkscape:zoom="1.6689301"
     inkscape:window-x="702"
     inkscape:window-height="632"
     showgrid="false"
     borderopacity="1.0"
     inkscape:current-layer="layer1"
     inkscape:cx="101.80265"
     inkscape:cy="61.894196"
     fit-margin-right="0"
     fit-margin-bottom="0"
     inkscape:window-width="920"
     inkscape:pageopacity="0.0"
     inkscape:document-units="px" />
  <g
     id="layer1"
     inkscape:label="レイヤー 1"
     inkscape:groupmode="layer"
     transform="translate(-266.37,-370.15)">
    <g
       id="g7190">
      <path
         id="path4336-0"
         d="m 299.76,370.15 c -8.4624,0.82767 -10.651,23.769 -16.37,35.246 h -3.7077 c -7.3897,-0.82767 -13.314,5.2024 -13.314,12.618 v 10.825 c 0,4.7021 2.3562,8.7588 5.9829,11.163 -0.40164,0.4782 -0.41766,0.93991 -0.41766,1.4376 v 5.7506 c 0.33338,5.6327 4.8326,10.148 10.445,10.148 h 3.3706 c 5.7165,0 10.3,-4.5153 10.3,-10.148 v -4.6926 h 32.507 3.6234 32.507 v 4.6926 c 0.10368,5.6327 4.6872,10.148 10.3,10.148 h 3.3706 c 5.9462,0 10.445,-4.5153 10.445,-10.148 v -5.7506 c -0.33347,-0.49771 -0.3499,-0.95942 -0.41765,-1.4376 3.6267,-2.404 5.9829,-6.4607 5.9829,-11.163 v -10.825 c 0,-6.5884 -5.9243,-12.618 -13.314,-12.618 h -3.7077 c -5.7184,-12.305 -7.9072,-35.246 -17.19,-35.246 h -27.976 -3.6234 -27.976 z"
         style="fill:#000000"
         inkscape:connector-curvature="0" />
      <path
         id="path4362-6"
         style="fill:#ffffff"
         inkscape:connector-curvature="0"
         d="m 292.34,425.81 c 0,4.0981 -3.3222,7.4203 -7.4203,7.4203 -4.0981,0 -7.4203,-3.3222 -7.4203,-7.4203 0,-4.0981 3.3222,-7.4203 7.4203,-7.4203 4.0981,0 7.4203,3.3222 7.4203,7.4203 z" />
      <path
         id="path4362-1-75"
         style="fill:#ffffff"
         inkscape:connector-curvature="0"
         d="m 383.24,425.81 c 0,4.0981 -3.3222,7.4203 -7.4203,7.4203 -4.0981,0 -7.4203,-3.3222 -7.4203,-7.4203 0,-4.0981 3.3222,-7.4203 7.4203,-7.4203 4.0981,0 7.4203,3.3222 7.4203,7.4203 z" />
      <path
         id="path4336-4-0"
         d="m 309.03,381.28 c -5.9506,-0.1274 -7.7209,12.661 -11.13,20.406 h 63.073 c -3.4086,-7.6175 -5.1365,-20.406 -11.094,-20.406 h -19.183 -2.4752 -19.191 z"
         style="fill:#ffffff;stroke:#fffffc;stroke-width:3.52460003;stroke-linecap:round;stroke-linejoin:round;stroke-miterlimit:3.9000001"
         inkscape:connector-curvature="0" />
      <path
         id="rect5182-0"
         style="fill:#ffffff;stroke:#fffffc;stroke-width:3.52460003;stroke-linecap:round;stroke-linejoin:round;stroke-miterlimit:3.9000001"
         inkscape:connector-curvature="0"
         d="m 316.45,423.95 h 25.971 v 9.2754 H 316.45 Z" />
      <path
         id="path5251-4"
         d="M 270.08,457.1 H 392.51"
         style="fill:#000000;stroke:#000000;stroke-width:3.52460003;stroke-miterlimit:3.9000001"
         inkscape:connector-curvature="0" />
    </g>
  </g>
  <metadata
     id="metadata12">
    <rdf:RDF>
      <cc:Work>
        <dc:format>image/svg+xml</dc:format>
        <dc:type
           rdf:resource="http://purl.org/dc/dcmitype/StillImage" />
        <cc:license
           rdf:resource="http://creativecommons.org/licenses/publicdomain/" />
        <dc:publisher>
          <cc:Agent
             rdf:about="http://openclipart.org/">
            <dc:title>Openclipart</dc:title>
          </cc:Agent>
        </dc:publisher>
        <dc:title>Car Pictogram</dc:title>
        <dc:date>2012-12-09T14:40:02</dc:date>
        <dc:description>A simple car pictogram.</dc:description>
        <dc:source>https://openclipart.org/detail/173653/car-pictogram-by-libberry-173653</dc:source>
        <dc:creator>
          <cc:Agent>
            <dc:title>libberry</dc:title>
          </cc:Agent>
        </dc:creator>
        <dc:subject>
          <rdf:Bag>
            <rdf:li>car</rdf:li>
            <rdf:li>pictogram</rdf:li>
            <rdf:li>symbol</rdf:li>
          </rdf:Bag>
        </dc:subject>
      </cc:Work>
      <cc:License
         rdf:about="http://creativecommons.org/licenses/publicdomain/">
        <cc:permits
           rdf:resource="http://creativecommons.org/ns#Reproduction" />
        <cc:permits
           rdf:resource="http://creativecommons.org/ns#Distribution" />
        <cc:permits
           rdf:resource="http://creativecommons.org/ns#DerivativeWorks" />
      </cc:License>
    </rdf:RDF>
  </metadata>
</svg>
