<?xml version="1.0" encoding="UTF-8" standalone="no"?>
<svg
   xmlns:dc="http://purl.org/dc/elements/1.1/"
   xmlns:cc="http://creativecommons.org/ns#"
   xmlns:rdf="http://www.w3.org/1999/02/22-rdf-syntax-ns#"
   xmlns:svg="http://www.w3.org/2000/svg"
   xmlns="http://www.w3.org/2000/svg"
   xmlns:sodipodi="http://sodipodi.sourceforge.net/DTD/sodipodi-0.dtd"
   xmlns:inkscape="http://www.inkscape.org/namespaces/inkscape"
   version="1.1"
   id="Layer_1"
   x="0px"
   y="0px"
   viewBox="0 0 240.00002 150"
   enable-background="new 0 0 2669.9053 1668.6908"
   xml:space="preserve"
   inkscape:version="0.92.1 r15371"
   sodipodi:docname="dagwadoa-Hello-My-Name-Is-B.svg"
   width="256.00003"
   height="160"><metadata
     id="metadata23"><rdf:RDF><cc:Work
         rdf:about=""><dc:format>image/svg+xml</dc:format><dc:type
           rdf:resource="http://purl.org/dc/dcmitype/StillImage" /><dc:title /></cc:Work></rdf:RDF></metadata><defs
     id="defs21" /><sodipodi:namedview
     pagecolor="#ffffff"
     bordercolor="#666666"
     borderopacity="1"
     objecttolerance="10"
     gridtolerance="10"
     guidetolerance="10"
     inkscape:pageopacity="0"
     inkscape:pageshadow="2"
     inkscape:window-width="640"
     inkscape:window-height="480"
     id="namedview19"
     showgrid="false"
     inkscape:zoom="0.4725"
     inkscape:cx="1280"
     inkscape:cy="799.99997"
     inkscape:current-layer="Layer_1"
     fit-margin-top="0"
     fit-margin-left="0"
     fit-margin-right="0"
     fit-margin-bottom="0" /><g
     id="g5"
     transform="matrix(0.09375,0,0,0.09375,-5.1517969,-3.2198719)"><path
       style="fill:#ff0000"
       inkscape:connector-curvature="0"
       id="path7"
       d="m 2614.9526,274.1353 c 0,-132.4324 -107.3574,-239.79 -239.79,-239.79 h -2080.42 c -132.4324,0 -239.7901,107.3576 -239.7901,239.79 v 327.2101 h 2559.71 v 804.9664 c 0.1885,-3.8958 0.29,-7.8141 0.29,-11.7565 v -1120.42 z" /><path
       style="fill:#ff0000"
       inkscape:connector-curvature="0"
       id="path9"
       d="m 294.7426,1634.3453 h 2080.4199 c 88.584,0 165.9395,-48.0404 207.4595,-119.4835 H 87.2832 c 41.52,71.4431 118.8757,119.4835 207.4594,119.4835 z" /><path
       style="fill:#ffffff"
       inkscape:connector-curvature="0"
       id="path11"
       d="m 54.9526,601.3454 v 793.2099 c 0,43.8486 11.7786,84.9424 32.3306,120.3065 h 2495.3389 c 18.7041,-32.1846 30.1367,-69.1156 32.0405,-108.55 V 601.3454 Z" /></g></svg>