<?xml version="1.0" encoding="utf-8"?>
<svg version="1.1" id="Layer_1" xmlns="http://www.w3.org/2000/svg" xmlns:xlink="http://www.w3.org/1999/xlink" x="0px" y="0px"
	 viewBox="-33.068 -48.833 905.136 1336.666" enable-background="new -33.068 -48.833 905.136 1336.666" xml:space="preserve">
<path d="M475.6,0h0.79c-5.65,4.82-11.31,9.71-15.89,15.59c-8.29,10.27-13.27,23.18-13.79,36.38c-0.36,16.8,5.55,33.35,15.15,47
	c3.87,5.5,10.02,10.39,17.11,9.89c4.97-0.14,8.51-4.52,10.1-8.86c6.4-17.13,8.77-36.2,19.8-51.29c6.6-9.34,18.07-14.33,29.35-14.13
	c-4.62,3.12-9.38,6.19-12.94,10.56c-12.78,14.99-19.25,34.46-21.47,53.8c-0.78,9.93-0.86,20.53,3.78,29.61
	c2.35,4.83,7.16,8.16,12.45,8.9c16.17,2.43,33.59-5.05,42.74-18.66c3.51-4.93,5.2-10.82,6.45-16.67c0.55-4.09-0.18-8.25,0.56-12.31
	c4.97,10.5,5.52,22.96,1.06,33.73c-1.8,5.82-6.12,11.32-5.17,17.65c1.87,3.87,6.44,5.2,10.3,6.15c11.95,2.07,23.78-3.13,33.42-9.78
	c11.89-8.6,21.03-20.34,28.95-32.54c-2.67,6.48-3.86,13.43-6.12,20.04c-5.43,14.62-17.12,27.36-32.26,31.98
	c-18.54,5.9-38.2,2.67-57.03,0.27c-5.91-1.08-11.95-0.99-17.92-0.52c-4.5,1.01-9.27,2.32-12.5,5.84
	c-3.84,4.01-3.99,10.35-1.98,15.27c2.3,5.74,6.68,10.39,11.46,14.19c5.83,4.6,11.81,9.41,19.07,11.52
	c9.32,3.03,19.22,2.56,28.85,3.68c13.73,0.7,27.49,1.8,41.02,4.38c10.15,2.08,20.18,4.68,30.12,7.62
	c18.58,5.15,37.58,9.28,55.33,16.98c8.39,4,17.69,8.72,21.61,17.68c1.88,6.54,0.64,14.09-3.37,19.61
	c-4.93,4.86-12.69,3.22-18.38,6.48c-6.07,5.12-12.36,10.17-19.67,13.42c-3.64,1.65-7.73,0.81-11.56,1.54
	c-11.13,1.44-22.92,4.81-30.62,13.5c-2.28,2.61-4.95,5.75-4.12,9.49c2.9,20.19,4.52,40.58,4.01,60.99
	c-0.78,16.38-2.03,32.73-3.57,49.06c-0.14,4.63-0.44,9.35,0.67,13.9c1.45,7.08,5.14,13.41,8.84,19.52
	c5.67,9.4,11.94,18.42,17.74,27.74c11.54,19.36,18.77,41,23.83,62.87l0.42,0.68c2.25,10.4,4.75,20.75,6.75,31.2
	c32.94-11.41,66.38-21.38,100.21-29.81c7.58-2.04,14.96-5.46,22.92-5.55c6.64,0.03,12.07,4.8,15.23,10.29
	c3.9,6.53,9.6,12.22,11.67,19.68v6.75c-3.02,14.12-12.04,25.74-18.24,38.51c-6.35,12.56-12.43,25.86-12.68,40.2
	c0.14,18.65,1.02,37.36-0.31,55.99c-0.13,2.86,0.06,5.93-1.5,8.47c-2.78,5.02-7.87,8.01-11.86,11.93
	c-15.69,14.22-28.11,31.47-40.82,48.27c-2.78,3.62-5.64,7.31-9.51,9.85c-0.77-0.52-1.54-1.02-2.31-1.51
	c-3.11-7.47,1.13-15.48-0.76-23.12c-0.96-7.02-3.15-14.01-2.83-21.13c4.5-11.74,18.18-15.69,24.94-25.76
	c6.72-8.87,4.61-20.61,6.07-30.94c0.91-23.04,1.79-46.28,7.38-68.77c-16.05,5.6-30.52,14.94-43.56,25.72
	c-16.29,13.11-30.93,28.32-48.47,39.83c-14.28,6.23-30.04,8.37-44.29,14.71c-28.59,18.41-60.5,31.15-93.24,40.01
	c-41.11,11.42-83.5,17.1-125.09,26.37c-35.93,8.09-72.29,19.47-101.78,42.33c-14.01,11-21.6,27.58-29.63,43
	c-7.44,14.35-15.33,28.83-26.64,40.56c-12.08,10.85-25.68,19.83-38.86,29.27c-29.59,20.74-59.36,41.39-86.85,64.91
	c-10.09,8.59-19.55,17.91-28.58,27.6c-8.61,9.98-16.93,20.73-21.03,33.43c-2.47,7.38-1.87,15.26-2.28,22.92
	c-1.36,24.03-1.45,48.29-6.23,71.98c-2.9,14.93-8.8,29.69-19.39,40.86c-5.1,5.93-12.02,9.85-17.38,15.5
	c-6.68,6.63-12.69,14-20.29,19.65c-6.94,5.5-14.92,9.41-22.98,12.99v-13.52c0.62-12.92,1.42-25.83,1.88-38.76
	c1.75-2.01,4.44-2.89,6.59-4.39c7.51-4.83,15.22-9.98,20.36-17.45c4.56-6.64,4.98-14.96,8.03-22.24c1.83-4.32,1.54-9.07,1.99-13.63
	c2.34-25.95,2.17-52.08-0.24-78.01c-0.76-12.76-3.47-26.55,2.65-38.46c5.78-11.09,14.27-20.44,22.44-29.8
	c11.52-12.81,23.58-25.16,34.4-38.6c6.18-6.96,11.71-14.56,15.86-22.91c6.69-13.3,9.09-28.45,8.3-43.23
	c-1.67-24.06-9.27-47.14-12.93-70.89c-1.28-7.35-1.32-14.86-2.97-22.14c-4.2-22.23-0.08-45.14,7.26-66.27
	c-15.78,0.14-30.83-6.12-43.91-14.52c-8.17-5.37-16.68-10.36-23.89-17.03c-7.68-6.7-15.13-14.77-17.28-25.06
	c-1.84-6.99-0.14-14.22,1.57-21.05c5.04-17.73,15.46-33.52,28.14-46.72c0.26,5.57,0.13,11.17,0.88,16.71
	c1.41,19.44,7.58,38.89,19.55,54.44c6.76,6.21,13.03,13.21,21.18,17.66c9.24,5.2,19.79,7.57,30.26,8.58
	c16.03-15.82,33.36-31.08,54.27-40.05c20.85-9.11,43.72-11.5,65.95-15.15c12.9-2.15,26.18-3.61,38.2-9.12
	c13.83-6.39,25.58-16.27,38.63-23.99c29.68-18.05,62.86-30.81,89.28-53.87c8.97-7.73,16.31-17.06,23.91-26.08
	c12.14-14.79,23.99-29.91,33.67-46.46c7.56-12.67,13.2-26.54,16.16-41.02c2.9-14.24,3.92-28.8,4.96-43.26
	c-1.04-2.86,0.92-5.58,0.94-8.44c0.7-9.74,2.17-19.39,3.04-29.11c0.53-9.36-1.48-18.61-3.51-27.69
	c-5.28-22.41-3.59-45.67-1.86-68.39c0.91-5.4,0.48-10.94,1.69-16.3c-9.41-2.98-18.92-7.14-25.35-14.93
	c-7.97-9.73-12.73-21.54-19.57-32.01c10.84-3.55,22.84-4.32,33.58,0.03c4.83,1.62,8.85,4.84,13.43,6.98
	c-0.2-0.38-0.6-1.12-0.81-1.49c-0.92-8.29-3.32-16.36-6.31-24.12c-13.54-34.67-40.29-62.12-54.66-96.36
	c-5.01-17.26-5.54-37.17,4-53.02C447.69,14.35,461.53,5.88,475.6,0z"/>
</svg>
