<?xml version="1.0" encoding="UTF-8" standalone="no"?>
<!-- Created with Inkscape (http://www.inkscape.org/) -->

<svg
   xmlns:dc="http://purl.org/dc/elements/1.1/"
   xmlns:cc="http://creativecommons.org/ns#"
   xmlns:rdf="http://www.w3.org/1999/02/22-rdf-syntax-ns#"
   xmlns:svg="http://www.w3.org/2000/svg"
   xmlns="http://www.w3.org/2000/svg"
   xmlns:xlink="http://www.w3.org/1999/xlink"
   xmlns:sodipodi="http://sodipodi.sourceforge.net/DTD/sodipodi-0.dtd"
   xmlns:inkscape="http://www.inkscape.org/namespaces/inkscape"
   width="126.64217mm"
   height="138.041mm"
   viewBox="0 0 448.73208 489.12165"
   id="svg2"
   version="1.1"
   inkscape:version="0.91 r"
   sodipodi:docname="rotolo.svg">
  <defs
     id="defs4">
    <linearGradient
       inkscape:collect="always"
       id="linearGradient4155">
      <stop
         style="stop-color:#1a1a1a;stop-opacity:1"
         offset="0"
         id="stop4157" />
      <stop
         style="stop-color:#6c5d53;stop-opacity:1"
         offset="1"
         id="stop4159" />
    </linearGradient>
    <linearGradient
       inkscape:collect="always"
       xlink:href="#linearGradient4155"
       id="linearGradient4161"
       x1="499.87204"
       y1="477.71704"
       x2="614.80109"
       y2="479.10175"
       gradientUnits="userSpaceOnUse" />
  </defs>
  <sodipodi:namedview
     id="base"
     pagecolor="#ffffff"
     bordercolor="#666666"
     borderopacity="1.0"
     inkscape:pageopacity="0.0"
     inkscape:pageshadow="2"
     inkscape:zoom="0.82338074"
     inkscape:cx="111.10736"
     inkscape:cy="330.91614"
     inkscape:document-units="px"
     inkscape:current-layer="g4169"
     showgrid="false"
     inkscape:window-width="1680"
     inkscape:window-height="996"
     inkscape:window-x="0"
     inkscape:window-y="0"
     inkscape:window-maximized="1"
     fit-margin-top="0"
     fit-margin-left="0"
     fit-margin-right="0"
     fit-margin-bottom="0" />
  <metadata
     id="metadata7">
    <rdf:RDF>
      <cc:Work
         rdf:about="">
        <dc:format>image/svg+xml</dc:format>
        <dc:type
           rdf:resource="http://purl.org/dc/dcmitype/StillImage" />
        <dc:title></dc:title>
      </cc:Work>
    </rdf:RDF>
  </metadata>
  <g
     inkscape:label="Livello 1"
     inkscape:groupmode="layer"
     id="layer1"
     transform="translate(-147.6812,-281.62027)">
    <g
       id="g4169"
       transform="matrix(0.56658638,0,0,0.56658638,148.26603,213.33692)">
      <path
         id="rect3453"
         d="m 233.71484,200.93359 c -89.15504,-0.001 -161.429775,122.16174 -161.429684,272.85743 0.06567,21.90233 1.691297,43.71163 4.841797,64.95703 l 0,340.55273 326.587887,0 0,-133.14453 c 1.1886,-0.0514 2.37682,-0.12495 3.56446,-0.2207 2.80769,0.36194 5.6205,0.59966 8.43554,0.71289 3.85862,-0.004 7.71592,-0.24172 11.56446,-0.71289 2.80769,0.36194 5.6205,0.59966 8.43554,0.71289 3.85862,-0.004 7.71592,-0.24172 11.56446,-0.71289 2.80769,0.36194 5.6205,0.59966 8.43554,0.71289 3.85862,-0.004 7.71592,-0.24172 11.56446,-0.71289 2.80769,0.36194 5.6205,0.59966 8.43554,0.71289 3.85862,-0.004 7.71592,-0.24172 11.56446,-0.71289 2.80769,0.36194 5.6205,0.59966 8.43554,0.71289 3.85862,-0.004 7.71592,-0.24172 11.56446,-0.71289 2.80769,0.36194 5.6205,0.59966 8.43554,0.71289 3.85862,-0.004 7.71592,-0.24172 11.56446,-0.71289 2.80769,0.36194 5.6205,0.59966 8.43554,0.71289 89.15428,-7.7e-4 161.42783,-122.16302 161.42774,-272.85742 9e-5,-150.6944 -72.27346,-272.85666 -161.42774,-272.85743 -3.85927,0.004 -7.71721,0.24164 -11.5664,0.71289 -2.80704,-0.36189 -5.6192,-0.5996 -8.4336,-0.71289 -3.85927,0.004 -7.71721,0.24164 -11.5664,0.71289 -2.80704,-0.36189 -5.6192,-0.5996 -8.4336,-0.71289 -3.85927,0.004 -7.71721,0.24164 -11.5664,0.71289 -2.80704,-0.36189 -5.6192,-0.5996 -8.4336,-0.71289 -3.85927,0.004 -7.71721,0.24164 -11.5664,0.71289 -2.80704,-0.36189 -5.6192,-0.5996 -8.4336,-0.71289 -3.85927,0.004 -7.71721,0.24164 -11.5664,0.71289 -2.80704,-0.36189 -5.6192,-0.5996 -8.4336,-0.71289 -3.85927,0.004 -7.71721,0.24164 -11.5664,0.71289 -2.80704,-0.36189 -5.6192,-0.5996 -8.4336,-0.71289 -3.85927,0.004 -7.71721,0.24164 -11.5664,0.71289 -2.80704,-0.36189 -5.6192,-0.5996 -8.4336,-0.71289 -3.85927,0.004 -7.71721,0.24164 -11.5664,0.71289 -2.80704,-0.36189 -5.6192,-0.5996 -8.4336,-0.71289 -3.85927,0.004 -7.71721,0.24164 -11.5664,0.71289 -2.80704,-0.36189 -5.6192,-0.5996 -8.4336,-0.71289 -3.85927,0.004 -7.71721,0.24164 -11.5664,0.71289 -2.80704,-0.36189 -5.6192,-0.5996 -8.4336,-0.71289 -3.85927,0.004 -7.71721,0.24164 -11.5664,0.71289 -2.80704,-0.36189 -5.6192,-0.5996 -8.4336,-0.71289 -3.85927,0.004 -7.71721,0.24164 -11.5664,0.71289 -2.80704,-0.36189 -5.6192,-0.5996 -8.4336,-0.71289 -3.85927,0.004 -7.71721,0.24164 -11.5664,0.71289 -2.80704,-0.36189 -5.6192,-0.5996 -8.4336,-0.71289 -3.85927,0.004 -7.71721,0.24164 -11.5664,0.71289 -2.80704,-0.36189 -5.6192,-0.5996 -8.4336,-0.71289 -0.39067,0.021 -0.7813,0.0445 -1.17187,0.0703 -0.27601,-0.0246 -0.55205,-0.0481 -0.82813,-0.0703 -3.85927,0.004 -7.71721,0.24164 -11.5664,0.71289 -2.80704,-0.36189 -5.6192,-0.5996 -8.4336,-0.71289 z"
         style="fill:#f2f2f2;stroke:none"
         inkscape:connector-curvature="0"
         sodipodi:nodetypes="ccccccccccccccccccccsccccccccccccccccccccccccccccccccc" />
      <ellipse
         ry="272.85715"
         rx="161.42857"
         cy="473.79077"
         cx="555.71423"
         id="path3417"
         style="fill:#ececec;stroke:#e6e6e6;stroke-opacity:1" />
      <ellipse
         style="fill:url(#linearGradient4161);fill-opacity:1"
         id="ellipse4293"
         cx="555.71423"
         cy="473.79077"
         rx="55.750122"
         ry="94.232513" />
    </g>
  </g>
</svg>
