<?xml version="1.0" encoding="UTF-8" standalone="no"?>
<!-- Created with Inkscape (http://www.inkscape.org/) -->

<svg
   xmlns:dc="http://purl.org/dc/elements/1.1/"
   xmlns:cc="http://creativecommons.org/ns#"
   xmlns:rdf="http://www.w3.org/1999/02/22-rdf-syntax-ns#"
   xmlns:svg="http://www.w3.org/2000/svg"
   xmlns="http://www.w3.org/2000/svg"
   xmlns:sodipodi="http://sodipodi.sourceforge.net/DTD/sodipodi-0.dtd"
   xmlns:inkscape="http://www.inkscape.org/namespaces/inkscape"
   id="svg2"
   viewBox="0 0 387.1 435.19"
   version="1.1"
   inkscape:version="0.92.1 r15371"
   sodipodi:docname="gohusdi-Cubes.svg"
   width="412.90668"
   height="464.20267">
  <sodipodi:namedview
     id="base"
     bordercolor="#666666"
     inkscape:pageshadow="2"
     inkscape:window-y="-4"
     fit-margin-left="0"
     pagecolor="#ffffff"
     inkscape:window-height="998"
     inkscape:window-maximized="1"
     inkscape:zoom="0.7"
     inkscape:window-x="88"
     showgrid="false"
     borderopacity="1.0"
     inkscape:current-layer="svg2"
     inkscape:cx="191.4991"
     inkscape:cy="44.247003"
     fit-margin-top="0"
     fit-margin-right="0"
     fit-margin-bottom="0"
     inkscape:window-width="1188"
     inkscape:pageopacity="0.0"
     inkscape:document-units="px" />
  <defs
     id="defs4">
    <radialGradient
       id="radialGradient10370-875-115"
       gradientUnits="userSpaceOnUse"
       cy="69.132004"
       cx="60.931999"
       r="64.497002"
       inkscape:collect="always">
      <stop
         id="stop11312"
         style="stop-color:#afafaf"
         offset=".0056" />
      <stop
         id="stop11314"
         style="stop-color:#adadad"
         offset=".3721" />
      <stop
         id="stop11316"
         style="stop-color:#a7a7a7"
         offset=".5988" />
      <stop
         id="stop11318"
         style="stop-color:#9a9a9a"
         offset=".7875" />
      <stop
         id="stop11320"
         style="stop-color:#8a8a8a"
         offset=".9543" />
      <stop
         id="stop11322"
         style="stop-color:#848484"
         offset="1" />
    </radialGradient>
    <radialGradient
       id="radialGradient12004"
       gradientUnits="userSpaceOnUse"
       cy="69.132004"
       cx="60.931999"
       r="64.497002"
       inkscape:collect="always">
      <stop
         id="stop6"
         style="stop-color:#D82A2A"
         offset=".0056" />
      <stop
         id="stop8"
         style="stop-color:#D52A2A"
         offset=".3721" />
      <stop
         id="stop10"
         style="stop-color:#CD2828"
         offset=".5988" />
      <stop
         id="stop12"
         style="stop-color:#BE2525"
         offset=".7875" />
      <stop
         id="stop14"
         style="stop-color:#AA2121"
         offset=".9543" />
      <stop
         id="stop16"
         style="stop-color:#A32020"
         offset="1" />
    </radialGradient>
    <radialGradient
       id="radialGradient12006"
       gradientUnits="userSpaceOnUse"
       cy="69.132004"
       cx="60.931999"
       r="64.497002"
       inkscape:collect="always">
      <stop
         id="stop5881"
         style="stop-color:#d8d82a"
         offset=".0056" />
      <stop
         id="stop5883"
         style="stop-color:#d5d52a"
         offset=".3721" />
      <stop
         id="stop5885"
         style="stop-color:#cdcd28"
         offset=".5988" />
      <stop
         id="stop5887"
         style="stop-color:#bebe25"
         offset=".7875" />
      <stop
         id="stop5889"
         style="stop-color:#aaaa21"
         offset=".9543" />
      <stop
         id="stop5891"
         style="stop-color:#a3a320"
         offset="1" />
    </radialGradient>
    <radialGradient
       id="radialGradient12008"
       gradientUnits="userSpaceOnUse"
       cy="69.132004"
       cx="60.931999"
       r="64.497002"
       inkscape:collect="always">
      <stop
         id="stop6336"
         style="stop-color:#2ad82a"
         offset=".0056" />
      <stop
         id="stop6338"
         style="stop-color:#2ad52a"
         offset=".3721" />
      <stop
         id="stop6340"
         style="stop-color:#28cd28"
         offset=".5988" />
      <stop
         id="stop6342"
         style="stop-color:#25be25"
         offset=".7875" />
      <stop
         id="stop6344"
         style="stop-color:#21aa21"
         offset=".9543" />
      <stop
         id="stop6346"
         style="stop-color:#20a320"
         offset="1" />
    </radialGradient>
    <radialGradient
       id="radialGradient12010"
       gradientUnits="userSpaceOnUse"
       cy="69.132004"
       cx="60.931999"
       r="64.497002"
       inkscape:collect="always">
      <stop
         id="stop6841"
         style="stop-color:#2ad8d8"
         offset=".0056" />
      <stop
         id="stop6843"
         style="stop-color:#2ad5d5"
         offset=".3721" />
      <stop
         id="stop6845"
         style="stop-color:#28cdcd"
         offset=".5988" />
      <stop
         id="stop6847"
         style="stop-color:#25bebe"
         offset=".7875" />
      <stop
         id="stop6849"
         style="stop-color:#21aaaa"
         offset=".9543" />
      <stop
         id="stop6851"
         style="stop-color:#20a3a3"
         offset="1" />
    </radialGradient>
    <radialGradient
       id="radialGradient12012"
       gradientUnits="userSpaceOnUse"
       cy="69.132004"
       cx="60.931999"
       r="64.497002"
       inkscape:collect="always">
      <stop
         id="stop7204"
         style="stop-color:#2a2ad8"
         offset=".0056" />
      <stop
         id="stop7206"
         style="stop-color:#2a2ad5"
         offset=".3721" />
      <stop
         id="stop7208"
         style="stop-color:#2828cd"
         offset=".5988" />
      <stop
         id="stop7210"
         style="stop-color:#2525be"
         offset=".7875" />
      <stop
         id="stop7212"
         style="stop-color:#2121aa"
         offset=".9543" />
      <stop
         id="stop7214"
         style="stop-color:#2020a3"
         offset="1" />
    </radialGradient>
    <radialGradient
       id="radialGradient12014"
       gradientUnits="userSpaceOnUse"
       cy="69.132004"
       cx="60.931999"
       r="64.497002"
       inkscape:collect="always">
      <stop
         id="stop8216"
         style="stop-color:#d82ad8"
         offset=".0056" />
      <stop
         id="stop8218"
         style="stop-color:#d52ad5"
         offset=".3721" />
      <stop
         id="stop8220"
         style="stop-color:#cd28cd"
         offset=".5988" />
      <stop
         id="stop8222"
         style="stop-color:#be25be"
         offset=".7875" />
      <stop
         id="stop8224"
         style="stop-color:#aa21aa"
         offset=".9543" />
      <stop
         id="stop8226"
         style="stop-color:#a320a3"
         offset="1" />
    </radialGradient>
    <radialGradient
       id="radialGradient12016"
       gradientUnits="userSpaceOnUse"
       cy="69.132004"
       cx="60.931999"
       r="64.497002"
       inkscape:collect="always">
      <stop
         id="stop8896"
         style="stop-color:#d8d8d8"
         offset=".0056" />
      <stop
         id="stop8898"
         style="stop-color:#d5d5d5"
         offset=".3721" />
      <stop
         id="stop8900"
         style="stop-color:#cdcdcd"
         offset=".5988" />
      <stop
         id="stop8902"
         style="stop-color:#bebebe"
         offset=".7875" />
      <stop
         id="stop8904"
         style="stop-color:#aaaaaa"
         offset=".9543" />
      <stop
         id="stop8906"
         style="stop-color:#a3a3a3"
         offset="1" />
    </radialGradient>
    <radialGradient
       id="radialGradient12018"
       gradientUnits="userSpaceOnUse"
       cy="69.132004"
       cx="60.931999"
       r="64.497002"
       inkscape:collect="always">
      <stop
         id="stop9661"
         style="stop-color:#3e3e3e"
         offset=".0056" />
      <stop
         id="stop9663"
         style="stop-color:#3d3d3d"
         offset=".3721" />
      <stop
         id="stop9665"
         style="stop-color:#3b3b3b"
         offset=".5988" />
      <stop
         id="stop9667"
         style="stop-color:#363636"
         offset=".7875" />
      <stop
         id="stop9669"
         style="stop-color:#313131"
         offset=".9543" />
      <stop
         id="stop9671"
         style="stop-color:#2f2f2f"
         offset="1" />
    </radialGradient>
  </defs>
  <text
     id="text4080"
     style="color:#000000;line-height:0%;font-family:'WC Rhesus A Bta';text-indent:0;letter-spacing:0px;word-spacing:0px;text-transform:none;fill:#000000"
     xml:space="preserve"
     y="3441.7288"
     x="2257.3013"><tspan
       id="tspan4082"
       sodipodi:role="line"
       x="2257.3013"
       y="3441.7288"
       style="font-size:144px;line-height:1.25"> </tspan></text>
  <g
     id="g3"
     transform="translate(9.2062e-4,1.5923e-6)">
    <path
       id="path18"
       style="fill:url(#radialGradient12004)"
       inkscape:connector-curvature="0"
       d="M 117.8,32.522 C 103.25,23.933 88.704,15.345 74.154,6.757 68.37,3.343 61.92,-1.729 54.978,2.37 48.789,6.022 42.601,9.675 36.414,13.327 27.552,18.558 18.69,23.788 9.829,29.019 4.113,32.393 2.842,32.906 2.127,39.939 0.64,54.579 0.917,69.48 0.981,84.176 c 0.022,5.14 -1.714,16.085 1.055,19.986 1.117,1.798 3.901,2.939 5.652,3.974 15.529,9.167 31.06,18.335 46.59,27.5 6.514,3.847 11.848,0.765 17.45,-2.542 8.679,-5.124 17.36,-10.246 26.041,-15.37 6.466,-3.818 12.933,-7.635 19.401,-11.451 4.833,-2.854 3.821,-7.67 3.942,-12.445 0.273,-10.789 0.396,-21.589 0.167,-32.381 -0.186,-8.677 0.363,-18.91 -2.61,-27.219 -0.213,-0.595 -0.467,-1.207 -0.864,-1.706" />
    <path
       id="path20"
       style="fill:#970f00"
       inkscape:connector-curvature="0"
       d="M 54.704,1.589 C 38.027,11.432 21.351,21.275 4.674,31.119 -0.139,33.96 0.914,44.366 0.676,49.063 0.245,57.644 0.155,66.244 0.136,74.835 c -0.01,4.256 -0.724,29.772 1.21,29.755 2.891,4.649 12.027,7.845 16.46,10.461 9.183,5.419 18.364,10.84 27.545,16.259 6.351,3.749 13.994,10.031 21.643,5.52 5.66,-2.693 11.017,-6.503 16.409,-9.686 9.019,-5.323 18.037,-10.645 27.056,-15.968 2.591,-1.53 11.068,-5.215 11.213,-9.036 0.711,-18.771 1.248,-37.805 -0.35,-56.536 -0.287,-3.348 -0.071,-11.99 -3.519,-14.024 -6.07,-3.583 -12.14,-7.165 -18.205,-10.748 C 91.263,15.912 82.926,10.99 74.588,6.069 68.603,2.538 61.888,-2.647 54.707,1.589 M 1.772,78.288 c 0,-13.585 -0.413,-27.599 1.487,-41.097 0.7,-4.975 3.583,-5.467 7.804,-7.958 14.81,-8.741 29.622,-17.483 44.433,-26.226 6.964,-4.11 14.426,2.191 20.191,5.595 9.263,5.465 18.523,10.933 27.783,16.399 4.088,2.414 13.355,5.484 14.764,10.513 2.026,7.227 1.921,15.296 2.142,22.733 0.318,10.746 0.246,21.505 0.016,32.252 -0.124,5.728 0.734,10.229 -3.087,14.563 -0.787,0.893 -2.054,1.402 -3.067,2.001 -6.227,3.674 -12.452,7.349 -18.678,11.023 -7.232,4.27 -14.466,8.539 -21.698,12.81 -5.104,3.011 -10.399,7.378 -16.726,5.259 -4.167,-1.4 -8.147,-4.59 -11.89,-6.8 -7.781,-4.6 -15.564,-9.19 -23.347,-13.78 -5.464,-3.23 -10.928,-6.45 -16.392,-9.68 -1.303,-0.77 -2.229,-1.95 -3.503,-2.7 C 1.866,94.889 1.778,86.587 1.778,78.283" />
    <path
       id="path22"
       style="fill:#ef6969"
       inkscape:connector-curvature="0"
       d="m 74.842,64.921 c 13.288,-5.6 25.354,-13.573 38.141,-20.148 0.397,-0.205 6.249,-2.832 4.29,-0.865 -2.998,3.011 -7.126,5.197 -10.639,7.524 -10.844,7.183 -22.607,14.229 -31.608,23.743 -7.361,7.779 -7.103,21.194 -8.021,31.214 -0.39,4.275 -0.472,8.911 -1.783,13.033 -1.088,3.417 -2.731,1.062 -3.253,-1.204 C 59.435,107.198 60.323,95.678 56.841,84.794 52.575,71.465 36.389,62.728 25.291,55.573 20.374,52.406 15.316,49.453 10.439,46.221 9.689,45.724 4.792,41.948 8.493,43.177 c 9.219,3.063 17.894,8.861 26.585,13.132 6.544,3.214 13.166,6.294 19.96,8.946 7.361,2.873 12.453,2.764 19.804,-0.336" />
    <path
       id="path24"
       style="fill:#ef5656"
       inkscape:connector-curvature="0"
       d="m 117.07,34.28 c 0,-1.326 -7.271,-4.915 -8.235,-5.521 -6.2,-3.89 -12.472,-7.667 -18.783,-11.368 C 83.322,13.444 76.541,9.567 69.618,5.964 66.412,4.294 62.437,0.95 58.777,2.445 48.373,6.69 38.585,13.086 28.942,18.784 c -5.232,3.091 -10.443,6.224 -15.606,9.43 -0.843,0.522 -7.361,3.704 -7.361,4.849 0,-1.504 19.243,-10.047 21.024,-11.007 10.245,-5.516 20.426,-11.327 30.989,-16.221 3.968,-1.838 5.86,0.214 9.725,2.236 7.029,3.679 14.006,7.456 20.981,11.233 6.554,3.549 13.095,7.119 19.67,10.63 0.625,0.334 8.702,3.943 8.702,4.346" />
    <path
       id="path26"
       style="fill:#b20d0d"
       inkscape:connector-curvature="0"
       d="m 4.763,104.27 c 0,1.325 7.271,4.914 8.236,5.521 6.197,3.891 12.467,7.668 18.779,11.369 6.731,3.947 13.511,7.824 20.434,11.427 3.205,1.669 7.181,5.014 10.84,3.52 10.404,-4.246 20.191,-10.642 29.835,-16.34 5.233,-3.092 10.443,-6.225 15.607,-9.43 0.842,-0.523 7.361,-3.705 7.361,-4.851 0,1.505 -19.243,10.048 -21.025,11.008 -10.245,5.516 -20.425,11.327 -30.989,16.221 -3.968,1.839 -5.859,-0.214 -9.724,-2.236 -7.029,-3.678 -14.005,-7.456 -20.982,-11.233 -6.554,-3.549 -13.095,-7.119 -19.669,-10.631 -0.626,-0.333 -8.703,-3.942 -8.703,-4.345" />
  </g>
  <g
     id="g5450"
     transform="translate(132.37,148.4)">
    <path
       id="path5466"
       style="fill:url(#radialGradient12006)"
       inkscape:connector-curvature="0"
       d="M 117.8,32.522 C 103.25,23.933 88.704,15.345 74.154,6.757 68.37,3.343 61.92,-1.729 54.978,2.37 48.789,6.022 42.601,9.675 36.414,13.327 27.552,18.558 18.69,23.788 9.829,29.019 4.113,32.393 2.842,32.906 2.127,39.939 0.64,54.579 0.917,69.48 0.981,84.176 c 0.022,5.14 -1.714,16.085 1.055,19.986 1.117,1.798 3.901,2.939 5.652,3.974 15.529,9.167 31.06,18.335 46.59,27.5 6.514,3.847 11.848,0.765 17.45,-2.542 8.679,-5.124 17.36,-10.246 26.041,-15.37 6.466,-3.818 12.933,-7.635 19.401,-11.451 4.833,-2.854 3.821,-7.67 3.942,-12.445 0.273,-10.789 0.396,-21.589 0.167,-32.381 -0.186,-8.677 0.363,-18.91 -2.61,-27.219 -0.213,-0.595 -0.467,-1.207 -0.864,-1.706" />
    <path
       id="path5468"
       style="fill:#97970f"
       inkscape:connector-curvature="0"
       d="M 54.704,1.589 C 38.027,11.432 21.351,21.275 4.674,31.119 -0.139,33.96 0.914,44.366 0.676,49.063 0.245,57.644 0.155,66.244 0.136,74.835 c -0.01,4.256 -0.724,29.772 1.21,29.755 2.891,4.649 12.027,7.845 16.46,10.461 9.183,5.419 18.364,10.84 27.545,16.259 6.351,3.749 13.994,10.031 21.643,5.52 5.66,-2.693 11.017,-6.503 16.409,-9.686 9.019,-5.323 18.037,-10.645 27.056,-15.968 2.591,-1.53 11.068,-5.215 11.213,-9.036 0.711,-18.771 1.248,-37.805 -0.35,-56.536 -0.287,-3.348 -0.071,-11.99 -3.519,-14.024 -6.07,-3.583 -12.14,-7.165 -18.205,-10.748 C 91.263,15.912 82.926,10.99 74.588,6.069 68.603,2.538 61.888,-2.647 54.707,1.589 M 1.772,78.288 c 0,-13.585 -0.413,-27.599 1.487,-41.097 0.7,-4.975 3.583,-5.467 7.804,-7.958 14.81,-8.741 29.622,-17.483 44.433,-26.226 6.964,-4.11 14.426,2.191 20.191,5.595 9.263,5.465 18.523,10.933 27.783,16.399 4.088,2.414 13.355,5.484 14.764,10.513 2.026,7.227 1.921,15.296 2.142,22.733 0.318,10.746 0.246,21.505 0.016,32.252 -0.124,5.728 0.734,10.229 -3.087,14.563 -0.787,0.893 -2.054,1.402 -3.067,2.001 -6.227,3.674 -12.452,7.349 -18.678,11.023 -7.232,4.27 -14.466,8.539 -21.698,12.81 -5.104,3.011 -10.399,7.378 -16.726,5.259 -4.167,-1.4 -8.147,-4.59 -11.89,-6.8 -7.781,-4.6 -15.564,-9.19 -23.347,-13.78 -5.464,-3.23 -10.928,-6.45 -16.392,-9.68 -1.303,-0.77 -2.229,-1.95 -3.503,-2.7 C 1.866,94.889 1.778,86.587 1.778,78.283" />
    <path
       id="path5470"
       style="fill:#efef69"
       inkscape:connector-curvature="0"
       d="m 74.842,64.921 c 13.288,-5.6 25.354,-13.573 38.141,-20.148 0.397,-0.205 6.249,-2.832 4.29,-0.865 -2.998,3.011 -7.126,5.197 -10.639,7.524 -10.844,7.183 -22.607,14.229 -31.608,23.743 -7.361,7.779 -7.103,21.194 -8.021,31.214 -0.39,4.275 -0.472,8.911 -1.783,13.033 -1.088,3.417 -2.731,1.062 -3.253,-1.204 C 59.435,107.198 60.323,95.678 56.841,84.794 52.575,71.465 36.389,62.728 25.291,55.573 20.374,52.406 15.316,49.453 10.439,46.221 9.689,45.724 4.792,41.948 8.493,43.177 c 9.219,3.063 17.894,8.861 26.585,13.132 6.544,3.214 13.166,6.294 19.96,8.946 7.361,2.873 12.453,2.764 19.804,-0.336" />
    <path
       id="path5472"
       style="fill:#efef56"
       inkscape:connector-curvature="0"
       d="m 117.07,34.28 c 0,-1.326 -7.271,-4.915 -8.235,-5.521 -6.2,-3.89 -12.472,-7.667 -18.783,-11.368 C 83.322,13.444 76.541,9.567 69.618,5.964 66.412,4.294 62.437,0.95 58.777,2.445 48.373,6.69 38.585,13.086 28.942,18.784 c -5.232,3.091 -10.443,6.224 -15.606,9.43 -0.843,0.522 -7.361,3.704 -7.361,4.849 0,-1.504 19.243,-10.047 21.024,-11.007 10.245,-5.516 20.426,-11.327 30.989,-16.221 3.968,-1.838 5.86,0.214 9.725,2.236 7.029,3.679 14.006,7.456 20.981,11.233 6.554,3.549 13.095,7.119 19.67,10.63 0.625,0.334 8.702,3.943 8.702,4.346" />
    <path
       id="path5474"
       style="fill:#b2b20d"
       inkscape:connector-curvature="0"
       d="m 4.763,104.27 c 0,1.325 7.271,4.914 8.236,5.521 6.197,3.891 12.467,7.668 18.779,11.369 6.731,3.947 13.511,7.824 20.434,11.427 3.205,1.669 7.181,5.014 10.84,3.52 10.404,-4.246 20.191,-10.642 29.835,-16.34 5.233,-3.092 10.443,-6.225 15.607,-9.43 0.842,-0.523 7.361,-3.705 7.361,-4.851 0,1.505 -19.243,10.048 -21.025,11.008 -10.245,5.516 -20.425,11.327 -30.989,16.221 -3.968,1.839 -5.859,-0.214 -9.724,-2.236 -7.029,-3.678 -14.005,-7.456 -20.982,-11.233 -6.554,-3.549 -13.095,-7.119 -19.669,-10.631 -0.626,-0.333 -8.703,-3.942 -8.703,-4.345" />
  </g>
  <g
     id="g6242"
     transform="translate(132.37,1.5923e-6)">
    <path
       id="path6258"
       style="fill:url(#radialGradient12008)"
       inkscape:connector-curvature="0"
       d="M 117.8,32.522 C 103.25,23.933 88.704,15.345 74.154,6.757 68.37,3.343 61.92,-1.729 54.978,2.37 48.789,6.022 42.601,9.675 36.414,13.327 27.552,18.558 18.69,23.788 9.829,29.019 4.113,32.393 2.842,32.906 2.127,39.939 0.64,54.579 0.917,69.48 0.981,84.176 c 0.022,5.14 -1.714,16.085 1.055,19.986 1.117,1.798 3.901,2.939 5.652,3.974 15.529,9.167 31.06,18.335 46.59,27.5 6.514,3.847 11.848,0.765 17.45,-2.542 8.679,-5.124 17.36,-10.246 26.041,-15.37 6.466,-3.818 12.933,-7.635 19.401,-11.451 4.833,-2.854 3.821,-7.67 3.942,-12.445 0.273,-10.789 0.396,-21.589 0.167,-32.381 -0.186,-8.677 0.363,-18.91 -2.61,-27.219 -0.213,-0.595 -0.467,-1.207 -0.864,-1.706" />
    <path
       id="path6260"
       style="fill:#00970f"
       inkscape:connector-curvature="0"
       d="M 54.704,1.589 C 38.027,11.432 21.351,21.275 4.674,31.119 -0.139,33.96 0.914,44.366 0.676,49.063 0.245,57.644 0.155,66.244 0.136,74.835 c -0.01,4.256 -0.724,29.772 1.21,29.755 2.891,4.649 12.027,7.845 16.46,10.461 9.183,5.419 18.364,10.84 27.545,16.259 6.351,3.749 13.994,10.031 21.643,5.52 5.66,-2.693 11.017,-6.503 16.409,-9.686 9.019,-5.323 18.037,-10.645 27.056,-15.968 2.591,-1.53 11.068,-5.215 11.213,-9.036 0.711,-18.771 1.248,-37.805 -0.35,-56.536 -0.287,-3.348 -0.071,-11.99 -3.519,-14.024 -6.07,-3.583 -12.14,-7.165 -18.205,-10.748 C 91.263,15.912 82.926,10.99 74.588,6.069 68.603,2.538 61.888,-2.647 54.707,1.589 M 1.772,78.288 c 0,-13.585 -0.413,-27.599 1.487,-41.097 0.7,-4.975 3.583,-5.467 7.804,-7.958 14.81,-8.741 29.622,-17.483 44.433,-26.226 6.964,-4.11 14.426,2.191 20.191,5.595 9.263,5.465 18.523,10.933 27.783,16.399 4.088,2.414 13.355,5.484 14.764,10.513 2.026,7.227 1.921,15.296 2.142,22.733 0.318,10.746 0.246,21.505 0.016,32.252 -0.124,5.728 0.734,10.229 -3.087,14.563 -0.787,0.893 -2.054,1.402 -3.067,2.001 -6.227,3.674 -12.452,7.349 -18.678,11.023 -7.232,4.27 -14.466,8.539 -21.698,12.81 -5.104,3.011 -10.399,7.378 -16.726,5.259 -4.167,-1.4 -8.147,-4.59 -11.89,-6.8 -7.781,-4.6 -15.564,-9.19 -23.347,-13.78 -5.464,-3.23 -10.928,-6.45 -16.392,-9.68 -1.303,-0.77 -2.229,-1.95 -3.503,-2.7 C 1.866,94.889 1.778,86.587 1.778,78.283" />
    <path
       id="path6262"
       style="fill:#69ef69"
       inkscape:connector-curvature="0"
       d="m 74.842,64.921 c 13.288,-5.6 25.354,-13.573 38.141,-20.148 0.397,-0.205 6.249,-2.832 4.29,-0.865 -2.998,3.011 -7.126,5.197 -10.639,7.524 -10.844,7.183 -22.607,14.229 -31.608,23.743 -7.361,7.779 -7.103,21.194 -8.021,31.214 -0.39,4.275 -0.472,8.911 -1.783,13.033 -1.088,3.417 -2.731,1.062 -3.253,-1.204 C 59.435,107.198 60.323,95.678 56.841,84.794 52.575,71.465 36.389,62.728 25.291,55.573 20.374,52.406 15.316,49.453 10.439,46.221 9.689,45.724 4.792,41.948 8.493,43.177 c 9.219,3.063 17.894,8.861 26.585,13.132 6.544,3.214 13.166,6.294 19.96,8.946 7.361,2.873 12.453,2.764 19.804,-0.336" />
    <path
       id="path6264"
       style="fill:#56ef56"
       inkscape:connector-curvature="0"
       d="m 117.07,34.28 c 0,-1.326 -7.271,-4.915 -8.235,-5.521 -6.2,-3.89 -12.472,-7.667 -18.783,-11.368 C 83.322,13.444 76.541,9.567 69.618,5.964 66.412,4.294 62.437,0.95 58.777,2.445 48.373,6.69 38.585,13.086 28.942,18.784 c -5.232,3.091 -10.443,6.224 -15.606,9.43 -0.843,0.522 -7.361,3.704 -7.361,4.849 0,-1.504 19.243,-10.047 21.024,-11.007 10.245,-5.516 20.426,-11.327 30.989,-16.221 3.968,-1.838 5.86,0.214 9.725,2.236 7.029,3.679 14.006,7.456 20.981,11.233 6.554,3.549 13.095,7.119 19.67,10.63 0.625,0.334 8.702,3.943 8.702,4.346" />
    <path
       id="path6266"
       style="fill:#0db20d"
       inkscape:connector-curvature="0"
       d="m 4.763,104.27 c 0,1.325 7.271,4.914 8.236,5.521 6.197,3.891 12.467,7.668 18.779,11.369 6.731,3.947 13.511,7.824 20.434,11.427 3.205,1.669 7.181,5.014 10.84,3.52 10.404,-4.246 20.191,-10.642 29.835,-16.34 5.233,-3.092 10.443,-6.225 15.607,-9.43 0.842,-0.523 7.361,-3.705 7.361,-4.851 0,1.505 -19.243,10.048 -21.025,11.008 -10.245,5.516 -20.425,11.327 -30.989,16.221 -3.968,1.839 -5.859,-0.214 -9.724,-2.236 -7.029,-3.678 -14.005,-7.456 -20.982,-11.233 -6.554,-3.549 -13.095,-7.119 -19.669,-10.631 -0.626,-0.333 -8.703,-3.942 -8.703,-4.345" />
  </g>
  <g
     id="g6724"
     transform="translate(9.2062e-4,148.4)">
    <path
       id="path6740"
       style="fill:url(#radialGradient12010)"
       inkscape:connector-curvature="0"
       d="M 117.8,32.522 C 103.25,23.933 88.704,15.345 74.154,6.757 68.37,3.343 61.92,-1.729 54.978,2.37 48.789,6.022 42.601,9.675 36.414,13.327 27.552,18.558 18.69,23.788 9.829,29.019 4.113,32.393 2.842,32.906 2.127,39.939 0.64,54.579 0.917,69.48 0.981,84.176 c 0.022,5.14 -1.714,16.085 1.055,19.986 1.117,1.798 3.901,2.939 5.652,3.974 15.529,9.167 31.06,18.335 46.59,27.5 6.514,3.847 11.848,0.765 17.45,-2.542 8.679,-5.124 17.36,-10.246 26.041,-15.37 6.466,-3.818 12.933,-7.635 19.401,-11.451 4.833,-2.854 3.821,-7.67 3.942,-12.445 0.273,-10.789 0.396,-21.589 0.167,-32.381 -0.186,-8.677 0.363,-18.91 -2.61,-27.219 -0.213,-0.595 -0.467,-1.207 -0.864,-1.706" />
    <path
       id="path6742"
       style="fill:#0f9797"
       inkscape:connector-curvature="0"
       d="M 54.704,1.589 C 38.027,11.432 21.351,21.275 4.674,31.119 -0.139,33.96 0.914,44.366 0.676,49.063 0.245,57.644 0.155,66.244 0.136,74.835 c -0.01,4.256 -0.724,29.772 1.21,29.755 2.891,4.649 12.027,7.845 16.46,10.461 9.183,5.419 18.364,10.84 27.545,16.259 6.351,3.749 13.994,10.031 21.643,5.52 5.66,-2.693 11.017,-6.503 16.409,-9.686 9.019,-5.323 18.037,-10.645 27.056,-15.968 2.591,-1.53 11.068,-5.215 11.213,-9.036 0.711,-18.771 1.248,-37.805 -0.35,-56.536 -0.287,-3.348 -0.071,-11.99 -3.519,-14.024 -6.07,-3.583 -12.14,-7.165 -18.205,-10.748 C 91.263,15.912 82.926,10.99 74.588,6.069 68.603,2.538 61.888,-2.647 54.707,1.589 M 1.772,78.288 c 0,-13.585 -0.413,-27.599 1.487,-41.097 0.7,-4.975 3.583,-5.467 7.804,-7.958 14.81,-8.741 29.622,-17.483 44.433,-26.226 6.964,-4.11 14.426,2.191 20.191,5.595 9.263,5.465 18.523,10.933 27.783,16.399 4.088,2.414 13.355,5.484 14.764,10.513 2.026,7.227 1.921,15.296 2.142,22.733 0.318,10.746 0.246,21.505 0.016,32.252 -0.124,5.728 0.734,10.229 -3.087,14.563 -0.787,0.893 -2.054,1.402 -3.067,2.001 -6.227,3.674 -12.452,7.349 -18.678,11.023 -7.232,4.27 -14.466,8.539 -21.698,12.81 -5.104,3.011 -10.399,7.378 -16.726,5.259 -4.167,-1.4 -8.147,-4.59 -11.89,-6.8 -7.781,-4.6 -15.564,-9.19 -23.347,-13.78 -5.464,-3.23 -10.928,-6.45 -16.392,-9.68 -1.303,-0.77 -2.229,-1.95 -3.503,-2.7 C 1.866,94.889 1.778,86.587 1.778,78.283" />
    <path
       id="path6744"
       style="fill:#69efef"
       inkscape:connector-curvature="0"
       d="m 74.842,64.921 c 13.288,-5.6 25.354,-13.573 38.141,-20.148 0.397,-0.205 6.249,-2.832 4.29,-0.865 -2.998,3.011 -7.126,5.197 -10.639,7.524 -10.844,7.183 -22.607,14.229 -31.608,23.743 -7.361,7.779 -7.103,21.194 -8.021,31.214 -0.39,4.275 -0.472,8.911 -1.783,13.033 -1.088,3.417 -2.731,1.062 -3.253,-1.204 C 59.435,107.198 60.323,95.678 56.841,84.794 52.575,71.465 36.389,62.728 25.291,55.573 20.374,52.406 15.316,49.453 10.439,46.221 9.689,45.724 4.792,41.948 8.493,43.177 c 9.219,3.063 17.894,8.861 26.585,13.132 6.544,3.214 13.166,6.294 19.96,8.946 7.361,2.873 12.453,2.764 19.804,-0.336" />
    <path
       id="path6746"
       style="fill:#56efef"
       inkscape:connector-curvature="0"
       d="m 117.07,34.28 c 0,-1.326 -7.271,-4.915 -8.235,-5.521 -6.2,-3.89 -12.472,-7.667 -18.783,-11.368 C 83.322,13.444 76.541,9.567 69.618,5.964 66.412,4.294 62.437,0.95 58.777,2.445 48.373,6.69 38.585,13.086 28.942,18.784 c -5.232,3.091 -10.443,6.224 -15.606,9.43 -0.843,0.522 -7.361,3.704 -7.361,4.849 0,-1.504 19.243,-10.047 21.024,-11.007 10.245,-5.516 20.426,-11.327 30.989,-16.221 3.968,-1.838 5.86,0.214 9.725,2.236 7.029,3.679 14.006,7.456 20.981,11.233 6.554,3.549 13.095,7.119 19.67,10.63 0.625,0.334 8.702,3.943 8.702,4.346" />
    <path
       id="path6748"
       style="fill:#0db2b2"
       inkscape:connector-curvature="0"
       d="m 4.763,104.27 c 0,1.325 7.271,4.914 8.236,5.521 6.197,3.891 12.467,7.668 18.779,11.369 6.731,3.947 13.511,7.824 20.434,11.427 3.205,1.669 7.181,5.014 10.84,3.52 10.404,-4.246 20.191,-10.642 29.835,-16.34 5.233,-3.092 10.443,-6.225 15.607,-9.43 0.842,-0.523 7.361,-3.705 7.361,-4.851 0,1.505 -19.243,10.048 -21.025,11.008 -10.245,5.516 -20.425,11.327 -30.989,16.221 -3.968,1.839 -5.859,-0.214 -9.724,-2.236 -7.029,-3.678 -14.005,-7.456 -20.982,-11.233 -6.554,-3.549 -13.095,-7.119 -19.669,-10.631 -0.626,-0.333 -8.703,-3.942 -8.703,-4.345" />
  </g>
  <g
     id="g7064"
     transform="translate(264.73,1.5923e-6)">
    <path
       id="path7080"
       style="fill:url(#radialGradient12012)"
       inkscape:connector-curvature="0"
       d="M 117.8,32.522 C 103.25,23.933 88.704,15.345 74.154,6.757 68.37,3.343 61.92,-1.729 54.978,2.37 48.789,6.022 42.601,9.675 36.414,13.327 27.552,18.558 18.69,23.788 9.829,29.019 4.113,32.393 2.842,32.906 2.127,39.939 0.64,54.579 0.917,69.48 0.981,84.176 c 0.022,5.14 -1.714,16.085 1.055,19.986 1.117,1.798 3.901,2.939 5.652,3.974 15.529,9.167 31.06,18.335 46.59,27.5 6.514,3.847 11.848,0.765 17.45,-2.542 8.679,-5.124 17.36,-10.246 26.041,-15.37 6.466,-3.818 12.933,-7.635 19.401,-11.451 4.833,-2.854 3.821,-7.67 3.942,-12.445 0.273,-10.789 0.396,-21.589 0.167,-32.381 -0.186,-8.677 0.363,-18.91 -2.61,-27.219 -0.213,-0.595 -0.467,-1.207 -0.864,-1.706" />
    <path
       id="path7082"
       style="fill:#0f0f97"
       inkscape:connector-curvature="0"
       d="M 54.704,1.589 C 38.027,11.432 21.351,21.275 4.674,31.119 -0.139,33.96 0.914,44.366 0.676,49.063 0.245,57.644 0.155,66.244 0.136,74.835 c -0.01,4.256 -0.724,29.772 1.21,29.755 2.891,4.649 12.027,7.845 16.46,10.461 9.183,5.419 18.364,10.84 27.545,16.259 6.351,3.749 13.994,10.031 21.643,5.52 5.66,-2.693 11.017,-6.503 16.409,-9.686 9.019,-5.323 18.037,-10.645 27.056,-15.968 2.591,-1.53 11.068,-5.215 11.213,-9.036 0.711,-18.771 1.248,-37.805 -0.35,-56.536 -0.287,-3.348 -0.071,-11.99 -3.519,-14.024 -6.07,-3.583 -12.14,-7.165 -18.205,-10.748 C 91.263,15.912 82.926,10.99 74.588,6.069 68.603,2.538 61.888,-2.647 54.707,1.589 M 1.772,78.288 c 0,-13.585 -0.413,-27.599 1.487,-41.097 0.7,-4.975 3.583,-5.467 7.804,-7.958 14.81,-8.741 29.622,-17.483 44.433,-26.226 6.964,-4.11 14.426,2.191 20.191,5.595 9.263,5.465 18.523,10.933 27.783,16.399 4.088,2.414 13.355,5.484 14.764,10.513 2.026,7.227 1.921,15.296 2.142,22.733 0.318,10.746 0.246,21.505 0.016,32.252 -0.124,5.728 0.734,10.229 -3.087,14.563 -0.787,0.893 -2.054,1.402 -3.067,2.001 -6.227,3.674 -12.452,7.349 -18.678,11.023 -7.232,4.27 -14.466,8.539 -21.698,12.81 -5.104,3.011 -10.399,7.378 -16.726,5.259 -4.167,-1.4 -8.147,-4.59 -11.89,-6.8 -7.781,-4.6 -15.564,-9.19 -23.347,-13.78 -5.464,-3.23 -10.928,-6.45 -16.392,-9.68 -1.303,-0.77 -2.229,-1.95 -3.503,-2.7 C 1.866,94.889 1.778,86.587 1.778,78.283" />
    <path
       id="path7084"
       style="fill:#6969ef"
       inkscape:connector-curvature="0"
       d="m 74.842,64.921 c 13.288,-5.6 25.354,-13.573 38.141,-20.148 0.397,-0.205 6.249,-2.832 4.29,-0.865 -2.998,3.011 -7.126,5.197 -10.639,7.524 -10.844,7.183 -22.607,14.229 -31.608,23.743 -7.361,7.779 -7.103,21.194 -8.021,31.214 -0.39,4.275 -0.472,8.911 -1.783,13.033 -1.088,3.417 -2.731,1.062 -3.253,-1.204 C 59.435,107.198 60.323,95.678 56.841,84.794 52.575,71.465 36.389,62.728 25.291,55.573 20.374,52.406 15.316,49.453 10.439,46.221 9.689,45.724 4.792,41.948 8.493,43.177 c 9.219,3.063 17.894,8.861 26.585,13.132 6.544,3.214 13.166,6.294 19.96,8.946 7.361,2.873 12.453,2.764 19.804,-0.336" />
    <path
       id="path7086"
       style="fill:#5656ef"
       inkscape:connector-curvature="0"
       d="m 117.07,34.28 c 0,-1.326 -7.271,-4.915 -8.235,-5.521 -6.2,-3.89 -12.472,-7.667 -18.783,-11.368 C 83.322,13.444 76.541,9.567 69.618,5.964 66.412,4.294 62.437,0.95 58.777,2.445 48.373,6.69 38.585,13.086 28.942,18.784 c -5.232,3.091 -10.443,6.224 -15.606,9.43 -0.843,0.522 -7.361,3.704 -7.361,4.849 0,-1.504 19.243,-10.047 21.024,-11.007 10.245,-5.516 20.426,-11.327 30.989,-16.221 3.968,-1.838 5.86,0.214 9.725,2.236 7.029,3.679 14.006,7.456 20.981,11.233 6.554,3.549 13.095,7.119 19.67,10.63 0.625,0.334 8.702,3.943 8.702,4.346" />
    <path
       id="path7088"
       style="fill:#0d0db2"
       inkscape:connector-curvature="0"
       d="m 4.763,104.27 c 0,1.325 7.271,4.914 8.236,5.521 6.197,3.891 12.467,7.668 18.779,11.369 6.731,3.947 13.511,7.824 20.434,11.427 3.205,1.669 7.181,5.014 10.84,3.52 10.404,-4.246 20.191,-10.642 29.835,-16.34 5.233,-3.092 10.443,-6.225 15.607,-9.43 0.842,-0.523 7.361,-3.705 7.361,-4.851 0,1.505 -19.243,10.048 -21.025,11.008 -10.245,5.516 -20.425,11.327 -30.989,16.221 -3.968,1.839 -5.859,-0.214 -9.724,-2.236 -7.029,-3.678 -14.005,-7.456 -20.982,-11.233 -6.554,-3.549 -13.095,-7.119 -19.669,-10.631 -0.626,-0.333 -8.703,-3.942 -8.703,-4.345" />
  </g>
  <g
     id="g8030"
     transform="translate(264.73,148.4)">
    <path
       id="path8046"
       style="fill:url(#radialGradient12014)"
       inkscape:connector-curvature="0"
       d="M 117.8,32.522 C 103.25,23.933 88.704,15.345 74.154,6.757 68.37,3.343 61.92,-1.729 54.978,2.37 48.789,6.022 42.601,9.675 36.414,13.327 27.552,18.558 18.69,23.788 9.829,29.019 4.113,32.393 2.842,32.906 2.127,39.939 0.64,54.579 0.917,69.48 0.981,84.176 c 0.022,5.14 -1.714,16.085 1.055,19.986 1.117,1.798 3.901,2.939 5.652,3.974 15.529,9.167 31.06,18.335 46.59,27.5 6.514,3.847 11.848,0.765 17.45,-2.542 8.679,-5.124 17.36,-10.246 26.041,-15.37 6.466,-3.818 12.933,-7.635 19.401,-11.451 4.833,-2.854 3.821,-7.67 3.942,-12.445 0.273,-10.789 0.396,-21.589 0.167,-32.381 -0.186,-8.677 0.363,-18.91 -2.61,-27.219 -0.213,-0.595 -0.467,-1.207 -0.864,-1.706" />
    <path
       id="path8048"
       style="fill:#970f97"
       inkscape:connector-curvature="0"
       d="M 54.704,1.589 C 38.027,11.432 21.351,21.275 4.674,31.119 -0.139,33.96 0.914,44.366 0.676,49.063 0.245,57.644 0.155,66.244 0.136,74.835 c -0.01,4.256 -0.724,29.772 1.21,29.755 2.891,4.649 12.027,7.845 16.46,10.461 9.183,5.419 18.364,10.84 27.545,16.259 6.351,3.749 13.994,10.031 21.643,5.52 5.66,-2.693 11.017,-6.503 16.409,-9.686 9.019,-5.323 18.037,-10.645 27.056,-15.968 2.591,-1.53 11.068,-5.215 11.213,-9.036 0.711,-18.771 1.248,-37.805 -0.35,-56.536 -0.287,-3.348 -0.071,-11.99 -3.519,-14.024 -6.07,-3.583 -12.14,-7.165 -18.205,-10.748 C 91.263,15.912 82.926,10.99 74.588,6.069 68.603,2.538 61.888,-2.647 54.707,1.589 M 1.772,78.288 c 0,-13.585 -0.413,-27.599 1.487,-41.097 0.7,-4.975 3.583,-5.467 7.804,-7.958 14.81,-8.741 29.622,-17.483 44.433,-26.226 6.964,-4.11 14.426,2.191 20.191,5.595 9.263,5.465 18.523,10.933 27.783,16.399 4.088,2.414 13.355,5.484 14.764,10.513 2.026,7.227 1.921,15.296 2.142,22.733 0.318,10.746 0.246,21.505 0.016,32.252 -0.124,5.728 0.734,10.229 -3.087,14.563 -0.787,0.893 -2.054,1.402 -3.067,2.001 -6.227,3.674 -12.452,7.349 -18.678,11.023 -7.232,4.27 -14.466,8.539 -21.698,12.81 -5.104,3.011 -10.399,7.378 -16.726,5.259 -4.167,-1.4 -8.147,-4.59 -11.89,-6.8 -7.781,-4.6 -15.564,-9.19 -23.347,-13.78 -5.464,-3.23 -10.928,-6.45 -16.392,-9.68 -1.303,-0.77 -2.229,-1.95 -3.503,-2.7 C 1.866,94.889 1.778,86.587 1.778,78.283" />
    <path
       id="path8050"
       style="fill:#ef69ef"
       inkscape:connector-curvature="0"
       d="m 74.842,64.921 c 13.288,-5.6 25.354,-13.573 38.141,-20.148 0.397,-0.205 6.249,-2.832 4.29,-0.865 -2.998,3.011 -7.126,5.197 -10.639,7.524 -10.844,7.183 -22.607,14.229 -31.608,23.743 -7.361,7.779 -7.103,21.194 -8.021,31.214 -0.39,4.275 -0.472,8.911 -1.783,13.033 -1.088,3.417 -2.731,1.062 -3.253,-1.204 C 59.435,107.198 60.323,95.678 56.841,84.794 52.575,71.465 36.389,62.728 25.291,55.573 20.374,52.406 15.316,49.453 10.439,46.221 9.689,45.724 4.792,41.948 8.493,43.177 c 9.219,3.063 17.894,8.861 26.585,13.132 6.544,3.214 13.166,6.294 19.96,8.946 7.361,2.873 12.453,2.764 19.804,-0.336" />
    <path
       id="path8052"
       style="fill:#ef56ef"
       inkscape:connector-curvature="0"
       d="m 117.07,34.28 c 0,-1.326 -7.271,-4.915 -8.235,-5.521 -6.2,-3.89 -12.472,-7.667 -18.783,-11.368 C 83.322,13.444 76.541,9.567 69.618,5.964 66.412,4.294 62.437,0.95 58.777,2.445 48.373,6.69 38.585,13.086 28.942,18.784 c -5.232,3.091 -10.443,6.224 -15.606,9.43 -0.843,0.522 -7.361,3.704 -7.361,4.849 0,-1.504 19.243,-10.047 21.024,-11.007 10.245,-5.516 20.426,-11.327 30.989,-16.221 3.968,-1.838 5.86,0.214 9.725,2.236 7.029,3.679 14.006,7.456 20.981,11.233 6.554,3.549 13.095,7.119 19.67,10.63 0.625,0.334 8.702,3.943 8.702,4.346" />
    <path
       id="path8054"
       style="fill:#b20db2"
       inkscape:connector-curvature="0"
       d="m 4.763,104.27 c 0,1.325 7.271,4.914 8.236,5.521 6.197,3.891 12.467,7.668 18.779,11.369 6.731,3.947 13.511,7.824 20.434,11.427 3.205,1.669 7.181,5.014 10.84,3.52 10.404,-4.246 20.191,-10.642 29.835,-16.34 5.233,-3.092 10.443,-6.225 15.607,-9.43 0.842,-0.523 7.361,-3.705 7.361,-4.851 0,1.505 -19.243,10.048 -21.025,11.008 -10.245,5.516 -20.425,11.327 -30.989,16.221 -3.968,1.839 -5.859,-0.214 -9.724,-2.236 -7.029,-3.678 -14.005,-7.456 -20.982,-11.233 -6.554,-3.549 -13.095,-7.119 -19.669,-10.631 -0.626,-0.333 -8.703,-3.942 -8.703,-4.345" />
  </g>
  <g
     id="g8700"
     transform="translate(9.2062e-4,296.8)">
    <path
       id="path8716"
       style="fill:url(#radialGradient12016)"
       inkscape:connector-curvature="0"
       d="M 117.8,32.522 C 103.25,23.933 88.704,15.345 74.154,6.757 68.37,3.343 61.92,-1.729 54.978,2.37 48.789,6.022 42.601,9.675 36.414,13.327 27.552,18.558 18.69,23.788 9.829,29.019 4.113,32.393 2.842,32.906 2.127,39.939 0.64,54.579 0.917,69.48 0.981,84.176 c 0.022,5.14 -1.714,16.085 1.055,19.986 1.117,1.798 3.901,2.939 5.652,3.974 15.529,9.167 31.06,18.335 46.59,27.5 6.514,3.847 11.848,0.765 17.45,-2.542 8.679,-5.124 17.36,-10.246 26.041,-15.37 6.466,-3.818 12.933,-7.635 19.401,-11.451 4.833,-2.854 3.821,-7.67 3.942,-12.445 0.273,-10.789 0.396,-21.589 0.167,-32.381 -0.186,-8.677 0.363,-18.91 -2.61,-27.219 -0.213,-0.595 -0.467,-1.207 -0.864,-1.706" />
    <path
       id="path8718"
       style="fill:#979797"
       inkscape:connector-curvature="0"
       d="M 54.704,1.589 C 38.027,11.432 21.351,21.275 4.674,31.119 -0.139,33.96 0.914,44.366 0.676,49.063 0.245,57.644 0.155,66.244 0.136,74.835 c -0.01,4.256 -0.724,29.772 1.21,29.755 2.891,4.649 12.027,7.845 16.46,10.461 9.183,5.419 18.364,10.84 27.545,16.259 6.351,3.749 13.994,10.031 21.643,5.52 5.66,-2.693 11.017,-6.503 16.409,-9.686 9.019,-5.323 18.037,-10.645 27.056,-15.968 2.591,-1.53 11.068,-5.215 11.213,-9.036 0.711,-18.771 1.248,-37.805 -0.35,-56.536 -0.287,-3.348 -0.071,-11.99 -3.519,-14.024 -6.07,-3.583 -12.14,-7.165 -18.205,-10.748 C 91.263,15.912 82.926,10.99 74.588,6.069 68.603,2.538 61.888,-2.647 54.707,1.589 M 1.772,78.288 c 0,-13.585 -0.413,-27.599 1.487,-41.097 0.7,-4.975 3.583,-5.467 7.804,-7.958 14.81,-8.741 29.622,-17.483 44.433,-26.226 6.964,-4.11 14.426,2.191 20.191,5.595 9.263,5.465 18.523,10.933 27.783,16.399 4.088,2.414 13.355,5.484 14.764,10.513 2.026,7.227 1.921,15.296 2.142,22.733 0.318,10.746 0.246,21.505 0.016,32.252 -0.124,5.728 0.734,10.229 -3.087,14.563 -0.787,0.893 -2.054,1.402 -3.067,2.001 -6.227,3.674 -12.452,7.349 -18.678,11.023 -7.232,4.27 -14.466,8.539 -21.698,12.81 -5.104,3.011 -10.399,7.378 -16.726,5.259 -4.167,-1.4 -8.147,-4.59 -11.89,-6.8 -7.781,-4.6 -15.564,-9.19 -23.347,-13.78 -5.464,-3.23 -10.928,-6.45 -16.392,-9.68 -1.303,-0.77 -2.229,-1.95 -3.503,-2.7 C 1.866,94.889 1.778,86.587 1.778,78.283" />
    <path
       id="path8720"
       style="fill:#efefef"
       inkscape:connector-curvature="0"
       d="m 74.842,64.921 c 13.288,-5.6 25.354,-13.573 38.141,-20.148 0.397,-0.205 6.249,-2.832 4.29,-0.865 -2.998,3.011 -7.126,5.197 -10.639,7.524 -10.844,7.183 -22.607,14.229 -31.608,23.743 -7.361,7.779 -7.103,21.194 -8.021,31.214 -0.39,4.275 -0.472,8.911 -1.783,13.033 -1.088,3.417 -2.731,1.062 -3.253,-1.204 C 59.435,107.198 60.323,95.678 56.841,84.794 52.575,71.465 36.389,62.728 25.291,55.573 20.374,52.406 15.316,49.453 10.439,46.221 9.689,45.724 4.792,41.948 8.493,43.177 c 9.219,3.063 17.894,8.861 26.585,13.132 6.544,3.214 13.166,6.294 19.96,8.946 7.361,2.873 12.453,2.764 19.804,-0.336" />
    <path
       id="path8722"
       style="fill:#efefef"
       inkscape:connector-curvature="0"
       d="m 117.07,34.28 c 0,-1.326 -7.271,-4.915 -8.235,-5.521 -6.2,-3.89 -12.472,-7.667 -18.783,-11.368 C 83.322,13.444 76.541,9.567 69.618,5.964 66.412,4.294 62.437,0.95 58.777,2.445 48.373,6.69 38.585,13.086 28.942,18.784 c -5.232,3.091 -10.443,6.224 -15.606,9.43 -0.843,0.522 -7.361,3.704 -7.361,4.849 0,-1.504 19.243,-10.047 21.024,-11.007 10.245,-5.516 20.426,-11.327 30.989,-16.221 3.968,-1.838 5.86,0.214 9.725,2.236 7.029,3.679 14.006,7.456 20.981,11.233 6.554,3.549 13.095,7.119 19.67,10.63 0.625,0.334 8.702,3.943 8.702,4.346" />
    <path
       id="path8724"
       style="fill:#b2b2b2"
       inkscape:connector-curvature="0"
       d="m 4.763,104.27 c 0,1.325 7.271,4.914 8.236,5.521 6.197,3.891 12.467,7.668 18.779,11.369 6.731,3.947 13.511,7.824 20.434,11.427 3.205,1.669 7.181,5.014 10.84,3.52 10.404,-4.246 20.191,-10.642 29.835,-16.34 5.233,-3.092 10.443,-6.225 15.607,-9.43 0.842,-0.523 7.361,-3.705 7.361,-4.851 0,1.505 -19.243,10.048 -21.025,11.008 -10.245,5.516 -20.425,11.327 -30.989,16.221 -3.968,1.839 -5.859,-0.214 -9.724,-2.236 -7.029,-3.678 -14.005,-7.456 -20.982,-11.233 -6.554,-3.549 -13.095,-7.119 -19.669,-10.631 -0.626,-0.333 -8.703,-3.942 -8.703,-4.345" />
  </g>
  <g
     id="g9484"
     transform="translate(264.73,296.8)">
    <path
       id="path9500"
       style="fill:url(#radialGradient12018)"
       inkscape:connector-curvature="0"
       d="M 117.8,32.522 C 103.25,23.933 88.704,15.345 74.154,6.757 68.37,3.343 61.92,-1.729 54.978,2.37 48.789,6.022 42.601,9.675 36.414,13.327 27.552,18.558 18.69,23.788 9.829,29.019 4.113,32.393 2.842,32.906 2.127,39.939 0.64,54.579 0.917,69.48 0.981,84.176 c 0.022,5.14 -1.714,16.085 1.055,19.986 1.117,1.798 3.901,2.939 5.652,3.974 15.529,9.167 31.06,18.335 46.59,27.5 6.514,3.847 11.848,0.765 17.45,-2.542 8.679,-5.124 17.36,-10.246 26.041,-15.37 6.466,-3.818 12.933,-7.635 19.401,-11.451 4.833,-2.854 3.821,-7.67 3.942,-12.445 0.273,-10.789 0.396,-21.589 0.167,-32.381 -0.186,-8.677 0.363,-18.91 -2.61,-27.219 -0.213,-0.595 -0.467,-1.207 -0.864,-1.706" />
    <path
       id="path9502"
       style="fill:#1f1f1f"
       inkscape:connector-curvature="0"
       d="M 54.704,1.589 C 38.027,11.432 21.351,21.275 4.674,31.119 -0.139,33.96 0.914,44.366 0.676,49.063 0.245,57.644 0.155,66.244 0.136,74.835 c -0.01,4.256 -0.724,29.772 1.21,29.755 2.891,4.649 12.027,7.845 16.46,10.461 9.183,5.419 18.364,10.84 27.545,16.259 6.351,3.749 13.994,10.031 21.643,5.52 5.66,-2.693 11.017,-6.503 16.409,-9.686 9.019,-5.323 18.037,-10.645 27.056,-15.968 2.591,-1.53 11.068,-5.215 11.213,-9.036 0.711,-18.771 1.248,-37.805 -0.35,-56.536 -0.287,-3.348 -0.071,-11.99 -3.519,-14.024 -6.07,-3.583 -12.14,-7.165 -18.205,-10.748 C 91.263,15.912 82.926,10.99 74.588,6.069 68.603,2.538 61.888,-2.647 54.707,1.589 M 1.772,78.288 c 0,-13.585 -0.413,-27.599 1.487,-41.097 0.7,-4.975 3.583,-5.467 7.804,-7.958 14.81,-8.741 29.622,-17.483 44.433,-26.226 6.964,-4.11 14.426,2.191 20.191,5.595 9.263,5.465 18.523,10.933 27.783,16.399 4.088,2.414 13.355,5.484 14.764,10.513 2.026,7.227 1.921,15.296 2.142,22.733 0.318,10.746 0.246,21.505 0.016,32.252 -0.124,5.728 0.734,10.229 -3.087,14.563 -0.787,0.893 -2.054,1.402 -3.067,2.001 -6.227,3.674 -12.452,7.349 -18.678,11.023 -7.232,4.27 -14.466,8.539 -21.698,12.81 -5.104,3.011 -10.399,7.378 -16.726,5.259 -4.167,-1.4 -8.147,-4.59 -11.89,-6.8 -7.781,-4.6 -15.564,-9.19 -23.347,-13.78 -5.464,-3.23 -10.928,-6.45 -16.392,-9.68 -1.303,-0.77 -2.229,-1.95 -3.503,-2.7 C 1.866,94.889 1.778,86.587 1.778,78.283" />
    <path
       id="path9504"
       style="fill:#787878"
       inkscape:connector-curvature="0"
       d="m 74.842,64.921 c 13.288,-5.6 25.354,-13.573 38.141,-20.148 0.397,-0.205 6.249,-2.832 4.29,-0.865 -2.998,3.011 -7.126,5.197 -10.639,7.524 -10.844,7.183 -22.607,14.229 -31.608,23.743 -7.361,7.779 -7.103,21.194 -8.021,31.214 -0.39,4.275 -0.472,8.911 -1.783,13.033 -1.088,3.417 -2.731,1.062 -3.253,-1.204 C 59.435,107.198 60.323,95.678 56.841,84.794 52.575,71.465 36.389,62.728 25.291,55.573 20.374,52.406 15.316,49.453 10.439,46.221 9.689,45.724 4.792,41.948 8.493,43.177 c 9.219,3.063 17.894,8.861 26.585,13.132 6.544,3.214 13.166,6.294 19.96,8.946 7.361,2.873 12.453,2.764 19.804,-0.336" />
    <path
       id="path9506"
       style="fill:#676767"
       inkscape:connector-curvature="0"
       d="m 117.07,34.28 c 0,-1.326 -7.271,-4.915 -8.235,-5.521 -6.2,-3.89 -12.472,-7.667 -18.783,-11.368 C 83.322,13.444 76.541,9.567 69.618,5.964 66.412,4.294 62.437,0.95 58.777,2.445 48.373,6.69 38.585,13.086 28.942,18.784 c -5.232,3.091 -10.443,6.224 -15.606,9.43 -0.843,0.522 -7.361,3.704 -7.361,4.849 0,-1.504 19.243,-10.047 21.024,-11.007 10.245,-5.516 20.426,-11.327 30.989,-16.221 3.968,-1.838 5.86,0.214 9.725,2.236 7.029,3.679 14.006,7.456 20.981,11.233 6.554,3.549 13.095,7.119 19.67,10.63 0.625,0.334 8.702,3.943 8.702,4.346" />
    <path
       id="path9508"
       style="fill:#202020"
       inkscape:connector-curvature="0"
       d="m 4.763,104.27 c 0,1.325 7.271,4.914 8.236,5.521 6.197,3.891 12.467,7.668 18.779,11.369 6.731,3.947 13.511,7.824 20.434,11.427 3.205,1.669 7.181,5.014 10.84,3.52 10.404,-4.246 20.191,-10.642 29.835,-16.34 5.233,-3.092 10.443,-6.225 15.607,-9.43 0.842,-0.523 7.361,-3.705 7.361,-4.851 0,1.505 -19.243,10.048 -21.025,11.008 -10.245,5.516 -20.425,11.327 -30.989,16.221 -3.968,1.839 -5.859,-0.214 -9.724,-2.236 -7.029,-3.678 -14.005,-7.456 -20.982,-11.233 -6.554,-3.549 -13.095,-7.119 -19.669,-10.631 -0.626,-0.333 -8.703,-3.942 -8.703,-4.345" />
  </g>
  <g
     id="g10274"
     transform="translate(132.37,296.8)">
    <path
       id="path10290"
       style="fill:url(#radialGradient10370-875-115)"
       inkscape:connector-curvature="0"
       d="M 117.8,32.522 C 103.25,23.933 88.704,15.345 74.154,6.757 68.37,3.343 61.92,-1.729 54.978,2.37 48.789,6.022 42.601,9.675 36.414,13.327 27.552,18.558 18.69,23.788 9.829,29.019 4.113,32.393 2.842,32.906 2.127,39.939 0.64,54.579 0.917,69.48 0.981,84.176 c 0.022,5.14 -1.714,16.085 1.055,19.986 1.117,1.798 3.901,2.939 5.652,3.974 15.529,9.167 31.06,18.335 46.59,27.5 6.514,3.847 11.848,0.765 17.45,-2.542 8.679,-5.124 17.36,-10.246 26.041,-15.37 6.466,-3.818 12.933,-7.635 19.401,-11.451 4.833,-2.854 3.821,-7.67 3.942,-12.445 0.273,-10.789 0.396,-21.589 0.167,-32.381 -0.186,-8.677 0.363,-18.91 -2.61,-27.219 -0.213,-0.595 -0.467,-1.207 -0.864,-1.706" />
    <path
       id="path10292"
       style="fill:#7a7a7a"
       inkscape:connector-curvature="0"
       d="M 54.704,1.589 C 38.027,11.432 21.351,21.275 4.674,31.119 -0.139,33.96 0.914,44.366 0.676,49.063 0.245,57.644 0.155,66.244 0.136,74.835 c -0.01,4.256 -0.724,29.772 1.21,29.755 2.891,4.649 12.027,7.845 16.46,10.461 9.183,5.419 18.364,10.84 27.545,16.259 6.351,3.749 13.994,10.031 21.643,5.52 5.66,-2.693 11.017,-6.503 16.409,-9.686 9.019,-5.323 18.037,-10.645 27.056,-15.968 2.591,-1.53 11.068,-5.215 11.213,-9.036 0.711,-18.771 1.248,-37.805 -0.35,-56.536 -0.287,-3.348 -0.071,-11.99 -3.519,-14.024 -6.07,-3.583 -12.14,-7.165 -18.205,-10.748 C 91.263,15.912 82.926,10.99 74.588,6.069 68.603,2.538 61.888,-2.647 54.707,1.589 M 1.772,78.288 c 0,-13.585 -0.413,-27.599 1.487,-41.097 0.7,-4.975 3.583,-5.467 7.804,-7.958 14.81,-8.741 29.622,-17.483 44.433,-26.226 6.964,-4.11 14.426,2.191 20.191,5.595 9.263,5.465 18.523,10.933 27.783,16.399 4.088,2.414 13.355,5.484 14.764,10.513 2.026,7.227 1.921,15.296 2.142,22.733 0.318,10.746 0.246,21.505 0.016,32.252 -0.124,5.728 0.734,10.229 -3.087,14.563 -0.787,0.893 -2.054,1.402 -3.067,2.001 -6.227,3.674 -12.452,7.349 -18.678,11.023 -7.232,4.27 -14.466,8.539 -21.698,12.81 -5.104,3.011 -10.399,7.378 -16.726,5.259 -4.167,-1.4 -8.147,-4.59 -11.89,-6.8 -7.781,-4.6 -15.564,-9.19 -23.347,-13.78 -5.464,-3.23 -10.928,-6.45 -16.392,-9.68 -1.303,-0.77 -2.229,-1.95 -3.503,-2.7 C 1.866,94.889 1.778,86.587 1.778,78.283" />
    <path
       id="path10294"
       style="fill:#c2c2c2"
       inkscape:connector-curvature="0"
       d="m 74.842,64.921 c 13.288,-5.6 25.354,-13.573 38.141,-20.148 0.397,-0.205 6.249,-2.832 4.29,-0.865 -2.998,3.011 -7.126,5.197 -10.639,7.524 -10.844,7.183 -22.607,14.229 -31.608,23.743 -7.361,7.779 -7.103,21.194 -8.021,31.214 -0.39,4.275 -0.472,8.911 -1.783,13.033 -1.088,3.417 -2.731,1.062 -3.253,-1.204 C 59.435,107.198 60.323,95.678 56.841,84.794 52.575,71.465 36.389,62.728 25.291,55.573 20.374,52.406 15.316,49.453 10.439,46.221 9.689,45.724 4.792,41.948 8.493,43.177 c 9.219,3.063 17.894,8.861 26.585,13.132 6.544,3.214 13.166,6.294 19.96,8.946 7.361,2.873 12.453,2.764 19.804,-0.336" />
    <path
       id="path10296"
       style="fill:#c2c2c2"
       inkscape:connector-curvature="0"
       d="m 117.07,34.28 c 0,-1.326 -7.271,-4.915 -8.235,-5.521 -6.2,-3.89 -12.472,-7.667 -18.783,-11.368 C 83.322,13.444 76.541,9.567 69.618,5.964 66.412,4.294 62.437,0.95 58.777,2.445 48.373,6.69 38.585,13.086 28.942,18.784 c -5.232,3.091 -10.443,6.224 -15.606,9.43 -0.843,0.522 -7.361,3.704 -7.361,4.849 0,-1.504 19.243,-10.047 21.024,-11.007 10.245,-5.516 20.426,-11.327 30.989,-16.221 3.968,-1.838 5.86,0.214 9.725,2.236 7.029,3.679 14.006,7.456 20.981,11.233 6.554,3.549 13.095,7.119 19.67,10.63 0.625,0.334 8.702,3.943 8.702,4.346" />
    <path
       id="path10298"
       style="fill:#909090"
       inkscape:connector-curvature="0"
       d="m 4.763,104.27 c 0,1.325 7.271,4.914 8.236,5.521 6.197,3.891 12.467,7.668 18.779,11.369 6.731,3.947 13.511,7.824 20.434,11.427 3.205,1.669 7.181,5.014 10.84,3.52 10.404,-4.246 20.191,-10.642 29.835,-16.34 5.233,-3.092 10.443,-6.225 15.607,-9.43 0.842,-0.523 7.361,-3.705 7.361,-4.851 0,1.505 -19.243,10.048 -21.025,11.008 -10.245,5.516 -20.425,11.327 -30.989,16.221 -3.968,1.839 -5.859,-0.214 -9.724,-2.236 -7.029,-3.678 -14.005,-7.456 -20.982,-11.233 -6.554,-3.549 -13.095,-7.119 -19.669,-10.631 -0.626,-0.333 -8.703,-3.942 -8.703,-4.345" />
  </g>
  <metadata
     id="metadata123">
    <rdf:RDF>
      <cc:Work>
        <dc:format>image/svg+xml</dc:format>
        <dc:type
           rdf:resource="http://purl.org/dc/dcmitype/StillImage" />
        <cc:license
           rdf:resource="http://creativecommons.org/licenses/publicdomain/" />
        <dc:publisher>
          <cc:Agent
             rdf:about="http://openclipart.org/">
            <dc:title>Openclipart</dc:title>
          </cc:Agent>
        </dc:publisher>
        <dc:title>Cube Set</dc:title>
        <dc:date>2011-04-06T14:33:33</dc:date>
        <dc:description>9 shiny cube/blocks. Includes RGB, CYMK, white, and gray/grey.</dc:description>
        <dc:source>https://openclipart.org/detail/131395/cube-set-by-tristanluigi</dc:source>
        <dc:creator>
          <cc:Agent>
            <dc:title>TristanLuigi</dc:title>
          </cc:Agent>
        </dc:creator>
        <dc:subject>
          <rdf:Bag>
            <rdf:li>CMYK</rdf:li>
            <rdf:li>RGB</rdf:li>
            <rdf:li>blocks</rdf:li>
            <rdf:li>blue</rdf:li>
            <rdf:li>color</rdf:li>
            <rdf:li>cube</rdf:li>
            <rdf:li>cubes</rdf:li>
            <rdf:li>green</rdf:li>
            <rdf:li>grey</rdf:li>
            <rdf:li>red</rdf:li>
          </rdf:Bag>
        </dc:subject>
      </cc:Work>
      <cc:License
         rdf:about="http://creativecommons.org/licenses/publicdomain/">
        <cc:permits
           rdf:resource="http://creativecommons.org/ns#Reproduction" />
        <cc:permits
           rdf:resource="http://creativecommons.org/ns#Distribution" />
        <cc:permits
           rdf:resource="http://creativecommons.org/ns#DerivativeWorks" />
      </cc:License>
    </rdf:RDF>
  </metadata>
</svg>
