<?xml version="1.0" encoding="UTF-8" standalone="no"?>
<!-- Created with Inkscape (http://www.inkscape.org/) -->

<svg
   xmlns:dc="http://purl.org/dc/elements/1.1/"
   xmlns:cc="http://creativecommons.org/ns#"
   xmlns:rdf="http://www.w3.org/1999/02/22-rdf-syntax-ns#"
   xmlns:svg="http://www.w3.org/2000/svg"
   xmlns="http://www.w3.org/2000/svg"
   xmlns:sodipodi="http://sodipodi.sourceforge.net/DTD/sodipodi-0.dtd"
   xmlns:inkscape="http://www.inkscape.org/namespaces/inkscape"
   id="svg2"
   sodipodi:docname="hand.svg"
   viewBox="0 0 338.05 532.58"
   version="1.1"
   inkscape:version="0.92.1 r15371"
   width="360.58664"
   height="568.08533">
  <defs
     id="defs12" />
  <sodipodi:namedview
     id="base"
     bordercolor="#666666"
     inkscape:pageshadow="2"
     inkscape:window-y="0"
     pagecolor="#ffffff"
     inkscape:window-maximized="0"
     inkscape:zoom="0.72661087"
     inkscape:window-x="0"
     inkscape:window-height="645"
     showgrid="false"
     borderopacity="1.0"
     inkscape:current-layer="layer1"
     inkscape:cx="167.72063"
     inkscape:cy="293.35228"
     inkscape:window-width="674"
     inkscape:pageopacity="0.0"
     inkscape:document-units="px" />
  <g
     id="layer1"
     inkscape:label="Camada 1"
     inkscape:groupmode="layer"
     transform="translate(-179.15,-84.7)">
    <g
       id="g3928"
       transform="translate(103.27)">
      <path
         id="path3926"
         style="color:#000000;fill:#cccccc"
         inkscape:connector-curvature="0"
         d="m 197.74,99.899 c -17.784,0 -34.269,13.227 -34.269,31.607 a 13.877,13.86 0 0 0 0,0.0639 l 1.0549,199.5 -16.911,-44.185 a 13.877,13.86 0 0 0 -1.8541,-3.3842 c -6.6563,-8.8278 -15.383,-14.903 -24.551,-16.41 -9.1675,-1.5074 -16.687,0.62397 -23.943,2.4264 -11.002,2.733 -17.315,12.042 -19.82,20.816 -2.3804,8.3379 -2.0767,17.337 1.1188,26.052 h -0.0319 l 36.73,128.47 a 13.877,13.86 0 0 0 1.2467,3.001 l 61.696,109.47 14.897,50.06 a 13.877,13.86 0 0 0 13.426,9.897 l 141.52,-1.1493 a 13.877,13.86 0 0 0 13.458,-11.046 l 38.52,-184.91 a 13.877,13.86 0 0 0 0.12787,-0.67044 c 1.9062,-12.115 1.2286,-32.48 0.76721,-53.476 -0.23071,-10.498 -0.52489,-20.663 -0.73525,-28.542 -0.21036,-7.8788 -0.15549,-15.288 -0.25573,-13.824 a 13.877,13.86 0 0 0 0.0319,-0.95778 v -61.968 a 13.877,13.86 0 0 0 -0.31967,-3.001 c -1.6762,-7.5415 -4.0229,-14.639 -9.3983,-20.848 -4.9961,-5.7702 -13.806,-9.4046 -22.089,-8.9393 v -0.1277 c -0.38029,0 -0.74052,0.11328 -1.1188,0.1277 -0.25401,0.0264 -0.51478,-0.0348 -0.76721,0 v 0.0957 c -5.7815,0.37051 -11.221,2.3404 -15.696,5.4274 v -4.0865 c 0,-18.391 -16.508,-31.607 -34.301,-31.607 h -0.0958 c -10.151,0 -19.765,4.4112 -26.245,11.525 v -18.613 c 2e-5,-18.361 -16.503,-31.575 -34.269,-31.575 -8.8273,0 -17.345,3.2481 -23.688,8.7796 v -36.396 c -2e-5,-18.35 -16.453,-31.607 -34.237,-31.607 z" />
      <path
         id="path3920"
         style="color:#000000;fill:#999999"
         inkscape:connector-curvature="0"
         d="m 204.2,88.926 c -17.784,0 -34.269,13.227 -34.269,31.607 a 13.877,13.86 0 0 0 0,0.0639 l 1.0549,199.5 -16.911,-44.185 a 13.877,13.86 0 0 0 -1.8541,-3.3842 c -6.6563,-8.8278 -15.383,-14.903 -24.551,-16.41 -9.1675,-1.5074 -16.687,0.62397 -23.943,2.4264 -11.002,2.733 -17.315,12.042 -19.82,20.816 -2.3804,8.3379 -2.0767,17.337 1.1188,26.052 h -0.0319 l 36.73,128.47 a 13.877,13.86 0 0 0 1.2467,3.001 l 61.696,109.47 14.897,50.06 a 13.877,13.86 0 0 0 13.426,9.897 l 141.52,-1.1493 a 13.877,13.86 0 0 0 13.458,-11.046 l 38.52,-184.91 a 13.877,13.86 0 0 0 0.12787,-0.67044 c 1.9062,-12.115 1.2286,-32.48 0.76721,-53.476 -0.23071,-10.498 -0.52489,-20.663 -0.73525,-28.542 -0.21036,-7.8788 -0.15549,-15.288 -0.25573,-13.824 a 13.877,13.86 0 0 0 0.0319,-0.95778 v -61.968 a 13.877,13.86 0 0 0 -0.31967,-3.001 c -1.6762,-7.5415 -4.0229,-14.639 -9.3983,-20.848 -4.9961,-5.7702 -13.806,-9.4046 -22.089,-8.9393 v -0.1277 c -0.38029,0 -0.74052,0.11328 -1.1188,0.1277 -0.25401,0.0264 -0.51478,-0.0348 -0.76721,0 v 0.0957 c -5.7815,0.37051 -11.221,2.3404 -15.696,5.4274 v -4.0865 c 0,-18.391 -16.508,-31.607 -34.301,-31.607 h -0.0958 c -10.151,0 -19.765,4.4112 -26.245,11.525 v -18.613 c 2e-5,-18.361 -16.503,-31.575 -34.269,-31.575 -8.8273,0 -17.345,3.2481 -23.688,8.7796 v -36.396 c -2e-5,-18.35 -16.453,-31.607 -34.237,-31.607 z" />
      <g
         id="g3922"
         transform="translate(-5.4769,16.431)">
        <path
           id="path3917"
           style="color:#000000;fill:#000000;stroke:#000000;stroke-width:1.14900005"
           inkscape:connector-curvature="0"
           d="m 219.72,68.844 c -17.385,0 -33.5,12.947 -33.5,30.938 a 13.566,13.566 0 0 0 0,0.0625 l 1.03,195.28 -16.53,-43.24 a 13.566,13.566 0 0 0 -1.8125,-3.3125 c -6.507,-8.6409 -15.038,-14.587 -24,-16.062 -8.9619,-1.4755 -16.313,0.61076 -23.406,2.375 -10.755,2.6751 -16.926,11.787 -19.375,20.375 -2.327,8.1614 -2.0301,16.97 1.0938,25.5 h -0.0312 l 35.906,125.75 a 13.566,13.566 0 0 0 1.2188,2.9375 l 60.312,107.16 14.562,49 a 13.566,13.566 0 0 0 13.125,9.6875 l 138.34,-1.125 a 13.566,13.566 0 0 0 13.156,-10.812 l 37.656,-181 a 13.566,13.566 0 0 0 0.125,-0.65625 c 1.8635,-11.858 1.201,-31.792 0.75,-52.344 -0.22553,-10.276 -0.51311,-20.226 -0.71875,-27.938 -0.20564,-7.712 -0.152,-14.965 -0.25,-13.531 a 13.566,13.566 0 0 0 0.0312,-0.9375 v -60.656 a 13.566,13.566 0 0 0 -0.3125,-2.9375 c -1.6386,-7.3818 -3.9326,-14.329 -9.1875,-20.406 -4.884,-5.6481 -13.497,-9.2055 -21.594,-8.75 v -0.125 c -0.37176,0 -0.72391,0.11088 -1.0938,0.125 -0.24831,0.0258 -0.50323,-0.0341 -0.75,0 v 0.0937 c -5.6518,0.36266 -10.969,2.2909 -15.344,5.3125 v -4 c 0,-18.002 -16.138,-30.938 -33.531,-30.938 h -0.0937 c -9.9235,0 -19.322,4.3178 -25.656,11.281 v -18.219 c 2e-5,-17.972 -16.132,-30.906 -33.5,-30.906 -8.6293,0 -16.956,3.1794 -23.156,8.5938 v -35.625 c -2e-5,-17.961 -16.084,-30.938 -33.469,-30.938 z" />
        <path
           id="rect3906"
           inkscape:connector-curvature="0"
           sodipodi:nodetypes="cccccscccccccccccccccccccsccccccccc"
           style="color:#000000;fill:#ffffff;stroke:#000000;stroke-width:0.53456998"
           d="m 219.71,82.409 c -11.033,0 -19.927,7.7413 -19.927,17.367 l 1.1873,226.75 c -0.31181,8.2138 -12.535,9.6701 -14.838,3.6616 l -28.057,-73.463 c -10.454,-13.883 -19.379,-12.144 -33.279,-8.6871 -9.4454,2.3493 -13.357,17.108 -8.5584,28.995 l 35.883,125.75 61.065,108.5 15.016,50.446 138.33,-1.1261 37.676,-181.02 c 2.4804,-15.784 -0.76979,-86.542 -0.35134,-92.663 v -60.641 c -2.7552,-12.412 -7.9218,-20.001 -17.548,-18.672 -11.053,0 -16.731,9.0458 -16.731,18.672 v 60.02 c 1.9293,8.1364 -14.734,10.256 -14.022,-0.0407 v -90.657 c 0,-9.6259 -8.9048,-17.381 -19.958,-17.381 h -0.0935 c -11.053,0 -19.942,7.7548 -19.942,17.381 v 72.806 c 2.0148,8.8009 -19.738,11.375 -19.257,-0.0408 v -110.64 c 10e-6,-9.6259 -8.9048,-17.367 -19.958,-17.367 -11.0532,0 -19.958,7.7413 -19.958,17.367 v 116.3 c 0.87313,8.0681 -16.322,10.101 -16.764,-0.0271 v -174.23 c -1e-5,-9.6259 -8.8778,-17.367 -19.911,-17.367 v -2e-5 1e-5 l -1e-5,5e-5 h 6e-5 z" />
      </g>
    </g>
  </g>
  <metadata
     id="metadata11">
    <rdf:RDF>
      <cc:Work>
        <dc:format>image/svg+xml</dc:format>
        <dc:type
           rdf:resource="http://purl.org/dc/dcmitype/StillImage" />
        <cc:license
           rdf:resource="http://creativecommons.org/licenses/publicdomain/" />
        <dc:publisher>
          <cc:Agent
             rdf:about="http://openclipart.org/">
            <dc:title>Openclipart</dc:title>
          </cc:Agent>
        </dc:publisher>
      </cc:Work>
      <cc:License
         rdf:about="http://creativecommons.org/licenses/publicdomain/">
        <cc:permits
           rdf:resource="http://creativecommons.org/ns#Reproduction" />
        <cc:permits
           rdf:resource="http://creativecommons.org/ns#Distribution" />
        <cc:permits
           rdf:resource="http://creativecommons.org/ns#DerivativeWorks" />
      </cc:License>
    </rdf:RDF>
  </metadata>
</svg>
