<?xml version="1.0" encoding="utf-8"?>

<!DOCTYPE svg PUBLIC "-//W3C//DTD SVG 1.1//EN" "http://www.w3.org/Graphics/SVG/1.1/DTD/svg11.dtd">
<svg version="1.1" id="Layer_1" xmlns="http://www.w3.org/2000/svg" xmlns:xlink="http://www.w3.org/1999/xlink" x="0px" y="0px"
	 viewBox="0 0 2129.1121 1693.4047" enable-background="new 0 0 2129.1121 1693.4047" xml:space="preserve">
<g>
	<path d="M390.1742,176.583c39.4166-62.7309,108.3624-120.2499,183.5444-129.3304c40.155-3.793,78.2584,12.6312,113.2371,30.6291
		c69.9697,36.8626,124.6064,91.584,187.9658,137.709c9.2548,6.7374,19.8226,13.6241,30.0589,17.2298
		c33.9664,11.8721,65.9295-16.3484,93.3732-33.7124c-19.157,29.6583-46.592,67.2692-85.2164,69.1149
		c-27.2126,1.3004-55.8105-12.7139-78.5459-25.3452c-78.3889-43.5511-144.8705-101.8515-227.4529-138.5872
		C537.9808,77.9603,448.0458,138.9425,390.1742,176.583z"/>
	<path d="M1324.4788,217.7159c18.049,25.9913,43.2583,57.9489,74.6697,66.6584c25.0809,6.9542,45.9711-7.9246,65.3861-21.6115
		c32.4166-22.0629,63.9092-45.4159,95.9701-67.9843c56.1471-39.5233,135.1239-97.5175,208.4083-85.3312
		c69.5723,11.0693,127.3666,70.3889,165.7037,125.8971c-56.1959-32.3879-137.1066-97.4723-205.4486-68.306
		c0.2184-0.0672,0.4353-0.1387,0.6509-0.2145c-93.0039,40.747-170.4236,109.1552-263.116,150.8441
		C1392.8385,350.8888,1335.7217,285.1181,1324.4788,217.7159z"/>
	
		<ellipse transform="matrix(0.7071 -0.7071 0.7071 0.7071 -270.2973 200.3929)" cx="106.747" cy="426.4741" rx="65.6168" ry="17.481"/>
	
		<ellipse transform="matrix(0.7071 -0.7071 0.7071 0.7071 -302.6687 239.764)" cx="138.0863" cy="485.2354" rx="65.6168" ry="17.481"/>
	
		<ellipse transform="matrix(-0.7071 -0.7071 0.7071 -0.7071 3113.4348 2248.3455)" cx="2022.365" cy="479.3593" rx="65.6168" ry="17.481"/>
	
		<ellipse transform="matrix(-0.7071 -0.7071 0.7071 -0.7071 3018.3848 2326.4971)" cx="1991.0256" cy="538.1206" rx="65.6168" ry="17.481"/>
	<path stroke="#FFFFFF" stroke-miterlimit="10" d="M660.4761,596.7262"/>
	<path stroke="#FFFFFF" stroke-miterlimit="10" d="M585.5555,407.9556"/>
	<path d="M703.8126,495.363"/>
	<path d="M578.2103,413.0972c0,0,320.7694-99.5965,370.4862,175.4653c3.0482,16.8648-8.1548,33.1132-25.0802,35.8047
		c-76.0276,12.0901-182.4587-0.6824-295.4589-18.8267c49.1172-30.8636,119.5142-37.6054,200.5229-32.3187
		c-32.1727-35.0744-87.0204-59.9871-160.859-76.3896c55.4983-11.3873,111.8624-11.4702,169.6732,7.3452
		C800.1328,448.3606,710.4451,419.6915,578.2103,413.0972z"/>
	<path d="M1204.3541,664.0517c15.2738-171.6175,190.2017-271.4917,369.8601-201.7419
		c-100.916,5.8345-186.9713,31.8821-249.7355,89.611c60.1597-13.2118,113.9482-17.0703,154.9829-2.2036
		c-63.4801,14.376-120.9879,39.7623-170.4078,80.0623c93.1688-1.1835,173.4624,2.2056,201.2574,24.2391
		c-95.2245,22.3016-190.2706,33.4913-285.125,32.7119C1212.9921,686.6302,1203.2731,676.1982,1204.3541,664.0517z"/>
	<g>
		<path d="M1038.6774,975.0364c-82.5155,0-147.1271-40.2692-157.1262-97.9288c-6.0425-34.8494,8.0983-70.5193,39.8188-100.4379
			c29.7637-28.0751,72.007-48.019,118.95-56.1575c15.0447-2.6096,30.217-3.9323,45.0939-3.9323
			c82.5154,0,147.127,40.2708,157.1262,97.9317c6.0425,34.8479-8.0969,70.5178-39.8188,100.4379
			c-29.7651,28.0723-72.0084,48.0161-118.9501,56.1561C1068.7264,973.7137,1053.5555,975.0364,1038.6774,975.0364z
			 M1085.4138,751.8368c-12.8641,0-26.0094,1.1477-39.0699,3.4129c-79.0079,13.7005-138.5654,66.7449-130.0553,115.8326
			c6.9033,39.8074,58.3754,68.6973,122.3888,68.6973c12.864,0,26.0093-1.1476,39.0699-3.4143
			c40.2032-6.9693,75.9937-23.6853,100.7836-47.0635c22.8303-21.5363,33.2255-45.9575,29.2688-68.7662
			C1200.8992,780.7283,1149.4286,751.8368,1085.4138,751.8368z"/>
	</g>
	<path d="M1777.0288,1213.5142c-9.9307-30.4972-30.3503-56.8221-57.498-74.1274c-46.5977-29.7625-91.0801-44.8348-132.1836-44.8348
		c-46.8619,0-90.4336,19.4501-129.5391,57.8212c-6.9338,6.7869-16.1888,11.3114-26.0313,12.6924
		c-5.0535,0.7051-10.5774,1.0576-16.3947,1.0576c-30.7614,0-68.3982-9.8718-104.448-20.5664
		c-12.8981-3.8195-26.9421-3.4081-39.7521,1.1753c-37.6069,13.4564-70.6014,20.6251-98.3958,21.301
		c-3.9957,0-7.6978-2.0566-9.6953-5.3767c-15.337-25.5906-34.4635-38.5474-56.7637-38.5474
		c-23.6222,0-48.6545,14.6902-76.4485,44.9523c-17.8632,6.9045-39.7521,9.1373-67.9575,6.9926
		c-18.2158-17.9514-42.5431-34.1403-74.1567-49.3888c-13.6914-6.6107-29.5566-8.4911-44.2471-5.2296
		c-21.3892,4.7595-46.2156,12.8685-75.7728,24.7384c-14.9844,5.8761-36.2853,8.2853-63.5797,7.1395
		c-7.8742-0.3232-15.4249-4.0251-20.6838-10.1365c-35.3744-40.986-70.8665-69.8083-105.5063-85.7032
		c-13.3974-6.1406-28.1462-9.3724-42.6898-9.3724c-15.4248,0-30.7324,3.6432-44.2765,10.5769
		c-67.2527,34.4343-102.4801,115.7305-107.6805,248.4722v0.8228c1.4691,94.0768,15.6602,163.562,43.3659,212.4221
		c30.4387,53.6196,76.9775,80.8262,138.3537,80.8262c30.2328,0,64.6668-6.7869,102.3036-20.0964l1.2338-0.4407l1.1165-0.6465
		c0.382-0.2351,39.2231-21.918,84.1756-21.918c37.4897,0,68.4277,15.043,91.9321,44.7174
		c3.2021,4.0251,9.1665,8.8436,19.5085,8.8436c10.7827-0.0294,23.0052-5.2299,38.4889-11.811
		c13.5148-5.7588,28.8223-12.2517,43.5126-15.0723c1.998-0.1174,4.0546-0.1763,6.0522-0.1763
		c32.407,0,60.6421,16.6587,87.9363,32.7594c23.7394,14.0145,46.1572,27.2357,70.4547,29.1749
		c1.3518,0.0881,2.7327,0.147,4.1721,0.147c24.6796,0,61.4937-17.1582,85.0863-34.1108c4.8479-3.467,14.3966-6.1993,21.7711-6.1993
		c1.1753,0,2.233,0.088,3.1436,0.2054l65.5485,9.8427c14.8961,2.233,37.049-2.0272,50.1235-9.3724
		c18.8622-10.6064,34.9332-14.1321,47.8314-16.9821c6.3463-1.3809,12.3401-2.703,17.7751-4.6127
		c2.938-1.0579,5.8761-1.1753,8.3738-0.3232c47.8022,15.983,94.4878,23.769,142.7019,23.769c4.1719,0,8.373-0.0588,12.6335-0.1763
		c18.5978-0.5289,37.0784-7.2278,52.0918-18.8918c70.7485-55.0593,119.9316-113.3799,146.0808-173.3457
		C1797.2717,1352.0439,1799.9165,1283.7339,1777.0288,1213.5142z M648.1656,1556.6213
		c-30.7615,10.0775-58.7025,15.2191-83.1179,15.2191c-97.6319,0-147.4321-82.8241-152.1036-253.173
		c77.7999,20.7721,159.4781,38.1948,243.0661,52.0331L648.1656,1556.6213z M657.2443,1341.3787
		c-82.6184-13.8677-164.2672-31.4961-243.4774-52.9438c7.1689-108.0327,37.6366-176.4602,90.6393-203.6079
		c18.3923-9.4019,41.7206-9.6368,61.3175-0.6464c30.7909,14.1321,62.9333,40.4277,95.4871,78.1819
		c1.0871,1.2633,2.233,2.4679,3.4081,3.5844L657.2443,1341.3787z M922.2576,1561.1165
		c-10.5769,3.467-20.6545,7.7566-29.9683,11.7229c-9.343,3.9958-19.8319,8.4324-25.4142,9.2844
		c-28.7931-34.9336-67.7812-53.3848-112.998-53.3848c-30.2621,0-57.5861,8.0797-75.7727,15.1899l7.1102-168.5569
		c79.9447,12.3987,161.4465,21.5361,242.8311,27.1477L922.2576,1561.1165z M929.1033,1373.433
		c-80.7086-5.5236-162.0636-14.6316-242.6547-27.2946l6.9338-164.6786c3.1437,0.6758,6.3168,1.087,9.5487,1.2046
		c31.878,1.3221,56.4108-1.6454,75.6552-9.1667c28.1761-11.3409,51.5043-18.9799,71.3068-23.3871
		c8.2854-1.8508,17.3052-0.7638,25.0911,2.9968c25.0618,12.105,45.4519,25.0912,60.7297,38.665L929.1033,1373.433z
		 M964.6246,1205.6694c5.788,0.3525,11.3115,0.5289,16.7175,0.5289c24.5035,0,45.0993-3.6726,62.9333-11.2821l2.9968-1.2634
		l2.1448-2.4386c22.2119-24.6798,41.8674-37.7247,56.9104-37.7247c4.2014,0,17.0114,0,31.5842,24.2683
		c7.257,12.1343,20.6252,19.6558,34.8748,19.6558l0.999-0.0294c8.7847-0.2057,17.8633-0.9696,27.3533-2.2916l0.6465,183.5115
		c-79.2985,2.6149-160.8884,1.5278-243.3305-3.2906L964.6246,1205.6694z M1183.8923,1588.7344
		c-21.9474,15.7773-52.4446,28.5874-67.9575,28.5874c-0.6464,0-1.2339-0.0294-1.8215-0.0588
		c-17.5403-1.4103-37.1372-12.9568-57.8799-25.1792c-29.2632-17.2759-62.4338-36.8433-102.8616-36.8433
		c-0.4994,0-0.9696,0-1.469,0.0293l5.4941-150.8402c54.4424,3.2025,108.7377,4.8478,162.4162,4.8478c1.7628,0,3.5256,0,5.2885,0
		c25.9138-0.0587,51.5337-0.4701,76.801-1.2634l0.6169,172.0532C1195.4683,1582.1531,1188.9164,1585.1499,1183.8923,1588.7344z
		 M1230.49,1189.5688c15.8362-3.7019,32.6418-8.7554,50.5935-15.1604c6.9631-2.4973,14.5435-2.7324,21.4773-0.6758
		c38.1948,11.3115,78.2993,21.7711,112.8215,21.7711c7.1982,0,14.0734-0.4408,20.4784-1.3514
		c5.2297-0.7346,10.3713-1.9979,15.3367-3.7902l19.1855,163.4739c-75.7726,11.9873-156.0994,19.8613-239.2172,23.5927
		L1230.49,1189.5688z M1424.9017,1557.2677c-8.6967-2.9087-18.3923-2.7324-27.4709,0.4994
		c-3.7313,1.3223-8.6085,2.3799-14.2789,3.6139c-14.0439,3.085-33.2589,7.3158-55.9408,20.067
		c-6.3168,3.5549-17.8047,6.2581-26.707,6.2581c-1.7334,0-3.3199-0.1176-4.6715-0.3232l-63.9617-9.6074l-0.5876-170.8484
		c85.292-3.6726,166.4707-11.576,242.5667-23.5928l22.4762,191.4443C1472.5864,1571.1353,1448.9058,1565.318,1424.9017,1557.2677z
		 M1478.7563,1172.9983c33.7584-33.0239,69.3091-49.0657,108.5909-49.0657c35.4037,0,74.5681,13.5444,116.3768,40.222
		c21.4185,13.662,37.519,34.4341,45.3636,58.4674c6.0524,18.598,10.1656,36.9021,12.2811,55.0006
		c-76.801,30.6735-165.3837,54.4718-261.9579,71.3656L1478.7563,1172.9983z M1604.9757,1566.6694
		c-10.1069,7.8447-22.4762,12.3694-34.8749,12.6925c-3.9663,0.1176-7.9327,0.1763-11.8403,0.1763
		c-10.6946,0-21.3303-0.4113-31.9075-1.2633l-23.4457-199.7297c96.0453-16.7764,183.4821-40.1926,260.2244-70.014
		C1762.4854,1399.7286,1710.1877,1484.8149,1604.9757,1566.6694z"/>
</g>
</svg>
