<?xml version="1.0" encoding="UTF-8" standalone="no"?>
<!-- Created with Inkscape (http://www.inkscape.org/) -->

<svg
   xmlns:dc="http://purl.org/dc/elements/1.1/"
   xmlns:cc="http://creativecommons.org/ns#"
   xmlns:rdf="http://www.w3.org/1999/02/22-rdf-syntax-ns#"
   xmlns:svg="http://www.w3.org/2000/svg"
   xmlns="http://www.w3.org/2000/svg"
   xmlns:sodipodi="http://sodipodi.sourceforge.net/DTD/sodipodi-0.dtd"
   xmlns:inkscape="http://www.inkscape.org/namespaces/inkscape"
   id="svg2"
   sodipodi:docname="jisdu_Ricardo-Coelho-Rabbit.svg"
   viewBox="0 0 110.16 180.49"
   sodipodi:version="0.32"
   version="1.0"
   inkscape:output_extension="org.inkscape.output.svg.inkscape"
   inkscape:version="0.92.1 r15371"
   width="117.50401"
   height="192.52267">
  <defs
     id="defs4">
    <filter
       id="filter17945"
       height="1.3133"
       width="1.095"
       y="-0.15663999"
       x="-0.047481999"
       inkscape:collect="always">
      <feGaussianBlur
         id="feGaussianBlur17947"
         stdDeviation="4.8662945"
         inkscape:collect="always" />
    </filter>
  </defs>
  <sodipodi:namedview
     id="base"
     bordercolor="#666666"
     inkscape:pageshadow="2"
     inkscape:window-y="53"
     pagecolor="#ffffff"
     inkscape:window-height="971"
     width="466px"
     inkscape:zoom="1"
     inkscape:window-x="0"
     height="1052.36px"
     borderopacity="1.0"
     inkscape:current-layer="svg2"
     inkscape:cx="173.46859"
     inkscape:cy="23.439708"
     showguides="true"
     inkscape:guide-bbox="true"
     inkscape:window-width="1280"
     showgrid="false"
     inkscape:pageopacity="0.0"
     inkscape:document-units="px">
    <sodipodi:guide
       id="guide28873"
       position="572.75645,0"
       orientation="vertical"
       inkscape:locked="false" />
    <sodipodi:guide
       id="guide3272"
       position="0,0"
       orientation="vertical"
       inkscape:locked="false" />
    <sodipodi:guide
       id="guide7618"
       position="0,0"
       orientation="vertical"
       inkscape:locked="false" />
    <sodipodi:guide
       id="guide4211"
       position="0,506.99996"
       orientation="horizontal"
       inkscape:locked="false" />
    <sodipodi:guide
       id="guide8243"
       position="0,101.04687"
       orientation="horizontal"
       inkscape:locked="false" />
    <sodipodi:guide
       id="guide11069"
       position="-340.82544,0"
       orientation="vertical"
       inkscape:locked="false" />
  </sodipodi:namedview>
  <g
     id="g4879"
     style="opacity:0.79351998;fill:#ffffff;filter:url(#filter17945)"
     transform="translate(-233.37,-0.90907)" />
  <g
     id="g4891"
     transform="translate(-233.37,-0.90907)" />
  <g
     id="g5075"
     transform="matrix(0.56452,0,0,0.56452,185.41,195.91)">
    <path
       id="path5077"
       sodipodi:nodetypes="cccc"
       style="fill:#ffd5d5;fill-rule:evenodd;stroke:#000000;stroke-width:0.79627001px"
       d="m -209.76,-124.8 c -1.25,3.23 -7.72,3.33 -12.38,4.51 l 1.69,-15.77 z"
       inkscape:connector-curvature="0" />
    <g
       id="g5079"
       transform="matrix(-0.79627,0,0,0.79627,-611.67,45.514)">
      <path
         id="path5081"
         sodipodi:nodetypes="cccccccc"
         style="fill:#d3b154;fill-rule:evenodd;stroke:#000000;stroke-width:1px"
         transform="translate(-162.5,147.36)"
         d="m -340.83,-298.44 c -23.75,-11.63 -35.62,-3.02 -42.42,4.24 -6.06,3.61 -9.08,11.63 -9.9,19.1 3.08,1.43 4.17,0.87 4.95,0 -0.08,10.4 6.58,7.69 14.14,9.19 l 82.02,-1.42 c 10.45,-0.31 7.41,-7.37 6.37,-13.43 z"
         inkscape:connector-curvature="0" />
      <path
         id="path5083"
         sodipodi:nodetypes="cc"
         style="fill:none;stroke:#000000;stroke-width:1px"
         transform="translate(-162.5,147.36)"
         d="m -387.85,-274.75 c 2.92,-12.34 13.85,-15.66 24.04,-19.8"
         inkscape:connector-curvature="0" />
    </g>
    <path
       id="path5085"
       style="fill:#fff2b5;fill-rule:evenodd;stroke:#000000;stroke-width:0.79627001px"
       d="m -240.99,-117.1 -5.98,2.39 -10.35,-15.93 35.04,-0.39 -0.4,15.52 z"
       inkscape:connector-curvature="0" />
    <path
       id="path5087"
       d="m -215.39,-129.96 c -6.4,19.84 -13.46,39.517 -14.07,60.807 l 18.58,-6.193 -5.07,18.017 c -13.57,4.317 -26.22,2.24 -38.29,-3.941 12.67,-19.675 14.22,-38.116 13.52,-56.3 l 11.82,-1.69 c 4.51,0.64 4.35,-4.96 4.5,-10.14 z"
       style="fill:#dea000;fill-rule:evenodd;stroke:#000000;stroke-width:0.79627001px"
       sodipodi:nodetypes="ccccccccc"
       inkscape:connector-curvature="0" />
    <path
       id="path5089"
       sodipodi:nodetypes="cccccccc"
       style="fill:#ffe191;fill-rule:evenodd"
       d="m -233.26,-83.675 5.35,-28.435 8.92,-9.58 c -4.79,16.52 -9.4,35.623 -11.09,53.18 l 18.9,-6.68 -6.27,11.597 -20.49,-1.548 z"
       inkscape:connector-curvature="0" />
    <path
       id="path5091"
       sodipodi:nodetypes="cccsccccc"
       style="fill:#ffb800;fill-rule:evenodd"
       d="m -232.76,-118.84 c -0.89,19.72 -3.05,39.093 -12.11,56.586 -0.9,3.313 0.11,4.755 5.77,6.194 7.69,1.786 14.99,0.344 22.38,-1.338 0.44,-0.098 4.23,-14.569 4.23,-14.569 l -20.55,6.335 c 3.08,-17.736 9.16,-53.398 16.03,-59.878 l -7.06,0.38 c -0.84,5.71 -3.62,8.01 -8.69,6.29 z"
       inkscape:connector-curvature="0" />
    <g
       id="g5093"
       style="fill:#fff2b5"
       transform="matrix(-0.79627,0,0,0.79627,-611.67,45.514)">
      <path
         id="path5095"
         style="fill:#d3b154;fill-rule:evenodd;stroke:#000000;stroke-width:1px"
         d="m -393.72,-136.93 c 10.52,-1.36 21.35,1.26 30.4,6.71 4.18,5.23 8.51,11.76 6.72,18.77 -1.17,3.65 -1.48,7.74 -4.02,10.83 -2.96,4.056 -7.68,6.125 -11.89,8.587 -5.53,0.202 -11.14,0.031 -16.44,-1.713 -13.4,-3.147 -25.97,-9.774 -35.92,-19.304 -4.86,-4.51 -9.27,-9.47 -13.76,-14.34 14.97,-3.18 29.94,-6.36 44.91,-9.54 z"
         inkscape:connector-curvature="0" />
      <path
         id="path5097"
         sodipodi:nodetypes="ccc"
         style="fill:none;stroke:#000000;stroke-width:1px"
         transform="translate(-162.5,147.36)"
         d="m -219.56,-239.39 c 6,-4.34 5.77,-10.44 5.31,-16.62 -2.42,-4.41 -8.56,-8.2 -16.62,-11.67"
         inkscape:connector-curvature="0" />
      <path
         id="path5099"
         sodipodi:nodetypes="ccc"
         style="fill:none;stroke:#000000;stroke-width:1px"
         transform="translate(-162.5,147.36)"
         d="m -196.93,-249.65 c 0.79,-3.87 1.84,-7.69 0.35,-12.02 -3.06,-6.83 -7.43,-11.07 -12.37,-14.14"
         inkscape:connector-curvature="0" />
    </g>
    <path
       id="path5101"
       d="m -245.23,-115.32 -7.32,-10.14 -12.39,1.13 c -2.16,20.42 -8.53,39.445 -19.7,56.866 l -15.2,2.816 c 12.64,7.55 12.38,12.949 16.89,19.143 l 20.83,-10.698 -2.25,-5.63 z"
       style="fill:#dea000;fill-rule:evenodd;stroke:#000000;stroke-width:0.79627001px"
       sodipodi:nodetypes="ccccccccc"
       inkscape:connector-curvature="0" />
    <path
       id="path5103"
       sodipodi:nodetypes="ccccc"
       style="fill:#d7cc9a;fill-rule:evenodd"
       d="m -250.41,-122.9 25.38,-2.29 0.74,-6.07 -28.81,4.73 z"
       inkscape:connector-curvature="0" />
    <g
       id="g5105"
       style="fill:#d40000"
       transform="matrix(-0.79627,0,0,0.79627,-614.05,47.042)">
      <path
         id="path5107"
         sodipodi:nodetypes="ccccc"
         style="fill:#ffd5d5;fill-rule:evenodd;stroke:#000000;stroke-width:1px"
         d="m -354.26,-443.4 c -1.55,15.33 -7.35,30.65 5.3,45.97 l 12.73,-6.37 -9.9,-37.83 z"
         transform="translate(-162.5,147.36)"
         inkscape:connector-curvature="0" />
      <path
         id="path5109"
         sodipodi:nodetypes="ccccc"
         style="fill:#ffd5d5;fill-rule:evenodd;stroke:#000000;stroke-width:0.93456px"
         d="m -401.32,-306.55 c 1.55,13.34 7.37,26.68 -5.32,40.02 l -12.77,-5.54 9.93,-32.94 z"
         inkscape:connector-curvature="0" />
      <path
         id="path5111"
         sodipodi:nodetypes="cccccccccccc"
         style="fill:#d40000;fill-rule:evenodd;stroke:#000000;stroke-width:1px"
         d="m -353.91,-442.69 c 17.12,4.88 34.6,-9.89 47.73,-3.18 2.66,10.8 22.12,16.85 27.23,-2.12 l 11.66,-4.6 23.69,-4.24 c -3.92,13.16 -10.69,25.66 0.71,42.43 -9.32,-1.56 -11.27,-5.88 -30.05,-3.89 -2.68,21.95 1.71,39.98 7.42,57.27 -23.57,1.46 -69.04,-11.52 -79.9,-2.83 l 9.9,-37.47 -12.73,4.59 c 6.04,-14.68 11.37,-29.43 -5.66,-45.96 z"
         transform="translate(-162.5,147.36)"
         inkscape:connector-curvature="0" />
    </g>
    <g
       id="g5113"
       style="fill:#ffb800"
       transform="matrix(-0.79627,0,0,0.79627,-614.05,47.042)">
      <path
         id="path5115"
         sodipodi:nodetypes="ccccccccccccccc"
         style="fill:#ffb800;fill-rule:evenodd;stroke:#000000;stroke-width:1px"
         d="m -347.54,-433.85 -45.61,-13.43 -6.01,-18.74 -0.71,-11.67 c -3.42,-0.7 -6.83,-3.99 -10.25,1.41 -2.76,3.24 -5.4,6.52 1.06,13.44 -10.48,8.52 -22.67,15.76 -29.7,26.87 -1.49,3.03 -3.42,5.96 -0.35,9.9 0.08,1.88 -1.06,3.77 0.7,5.66 3.25,1.33 6.17,0.67 8.49,-0.36 l 8.13,-4.59 c 4.82,0.3 7.39,0.15 9.9,0 4.91,1.89 10.58,-3.08 15.91,-4.95 18.37,13.54 36.08,18.86 53.03,14.49 -0.2,-6.25 0.56,-12.68 -4.59,-18.03 z"
         transform="translate(-162.5,147.36)"
         inkscape:connector-curvature="0" />
      <path
         id="path5117"
         sodipodi:nodetypes="cccc"
         style="fill:#ffb800;fill-rule:evenodd;stroke:#000000;stroke-width:1px"
         d="m -403.25,-451.5 c -3.8,2.57 -8.66,4.34 -10,8.75 l -0.5,10.5 c -3.11,-6.8 -6.01,-13.51 -6.5,-19"
         transform="translate(-162.5,147.36)"
         inkscape:connector-curvature="0" />
      <path
         id="path5119"
         d="m -438,-437.25 c 5.62,-2.23 12.22,-6.45 18.75,-10.5"
         sodipodi:nodetypes="cccc"
         style="fill:#ffb800;fill-rule:evenodd;stroke:#000000;stroke-width:1px"
         transform="translate(-162.5,147.36)"
         inkscape:connector-curvature="0" />
      <path
         id="path5121"
         d="m -414,-432.5 -10,-5 -7.5,0.75 -3.5,4.25 0.25,3.25"
         style="fill:#ffb800;fill-rule:evenodd;stroke:#000000;stroke-width:1px"
         transform="translate(-162.5,147.36)"
         inkscape:connector-curvature="0" />
      <path
         id="path5123"
         d="m -421.25,-425.5 c -1.25,0 -13.75,-3.75 -13.75,-3.75 l -4.25,3"
         style="fill:#ffb800;fill-rule:evenodd;stroke:#000000;stroke-width:1px"
         transform="translate(-162.5,147.36)"
         inkscape:connector-curvature="0" />
    </g>
    <g
       id="g5125"
       style="fill:#dea000"
       transform="matrix(-0.79627,0,0,0.79627,-614.05,47.042)">
      <path
         id="path5127"
         sodipodi:nodetypes="cccccc"
         style="fill:#dea000;fill-rule:evenodd;stroke:#000000;stroke-width:1px"
         d="m -233.88,-370.56 c -0.68,2.13 -1.17,4.36 -4.59,5.12 -6.93,-1.73 -9.36,-5.46 -12.2,-9.01 l 4.95,-4.78 12.55,7.78 z"
         transform="translate(-162.5,147.36)"
         inkscape:connector-curvature="0" />
      <path
         id="path5129"
         sodipodi:nodetypes="cccccccccccccccccc"
         style="fill:#dea000;fill-rule:evenodd;stroke:#000000;stroke-width:1px"
         d="m -245.25,-455.75 c 6.84,-2.27 15.57,-2.28 24.75,-1.75 2.66,0.79 5.47,-0.01 7.5,7.75 -1.79,17.46 -5.55,32.95 -12,45.75 l 5.5,9.75 c 0.58,3.34 1.85,6.32 -0.25,11 l -3,1.75 1,9.25 c -2.92,1.31 -5.83,2.62 -8.75,0.25 -2.03,1.9 -4.78,0.56 -7.75,-1.75 -3.39,0.87 -5.99,0.15 -7.5,-2.75 l -2.25,-1.75 c -0.59,3.48 -3.08,5.44 -7,6.25 -4.33,-1.61 -3.96,-4.01 -4.5,-6.25 1.29,-9.26 5.02,-17.38 16.25,-22 l 2,-30 -7,1.75 c -5.56,-10.18 1.46,-18.26 3,-27.25 z"
         transform="translate(-162.5,147.36)"
         inkscape:connector-curvature="0" />
      <path
         id="path5131"
         d="m -230.34,-372.51 -3.01,-5.48"
         style="fill:#dea000;fill-rule:evenodd;stroke:#000000;stroke-width:1px"
         transform="translate(-162.5,147.36)"
         inkscape:connector-curvature="0" />
      <path
         id="path5133"
         d="m -237.76,-373.92 -4.25,-6.37"
         style="fill:#dea000;fill-rule:evenodd;stroke:#000000;stroke-width:1px"
         transform="translate(-162.5,147.36)"
         inkscape:connector-curvature="0" />
      <path
         id="path5135"
         d="m -247.84,-378.34 -2.65,-3.71"
         style="fill:#dea000;fill-rule:evenodd;stroke:#000000;stroke-width:1px"
         transform="translate(-162.5,147.36)"
         inkscape:connector-curvature="0" />
    </g>
    <path
       id="path5137"
       sodipodi:nodetypes="cccccc"
       style="fill:#dea000;fill-rule:evenodd"
       d="m -211.35,-166.89 c 21.62,3.89 32.14,-5.99 42.41,-11.94 -11.55,6.57 -23.3,9.89 -35.64,4.57 1.74,-5.88 7.37,-9.63 14.93,-12.34 l -17.32,5.38 c -4.29,4.77 -4.2,9.55 -4.38,14.33 z"
       inkscape:connector-curvature="0" />
    <path
       id="path5139"
       sodipodi:nodetypes="cc"
       style="fill:none;stroke:#000000;stroke-width:0.79627001px"
       d="m -292.37,-177.64 c 0.68,-7.25 -0.7,-12.78 -6.37,-14.73"
       inkscape:connector-curvature="0" />
    <path
       id="path5141"
       style="fill:none;stroke:#000000;stroke-width:0.79627001px"
       d="m -267.27,-168.59 c 0.87,0.23 2.12,0.63 3.38,0 1.69,-0.84 3.95,-2.87 4.08,-3.38"
       inkscape:connector-curvature="0" />
    <path
       id="path5143"
       sodipodi:nodetypes="cc"
       style="fill:none;stroke:#000000;stroke-width:0.79627001px"
       d="m -217.52,-154.35 c -3.58,-8.5 -7.81,-17.41 -8.36,-23.89"
       inkscape:connector-curvature="0" />
    <path
       id="path5145"
       sodipodi:nodetypes="ccccccsccc"
       style="fill:#ffb800;fill-rule:evenodd"
       d="m -293.16,-171.59 -0.4,-6.37 c 1.93,-4.87 -1.08,-12.36 -5.18,-14.33 -3.74,-3.4 -10.08,-2.31 -11.54,4.78 l 9.55,31.45 c -6.14,7.71 -11.88,16.46 8.83,17.97 -3.31,5.91 3.67,2.76 6.64,-2.35 2.33,-3.99 -3.23,6.26 4.44,8.67 4.86,-5.51 -0.35,-19.3 -10.75,-22.3 z"
       inkscape:connector-curvature="0" />
    <path
       id="path5147"
       style="fill:#ffe191;fill-rule:evenodd"
       d="m -247.57,-117.98 2.04,2.81 -19.21,53.35 2.18,5.56 -3.87,1.76 -5.21,-7.812 z"
       inkscape:connector-curvature="0" />
    <path
       id="path5149"
       sodipodi:nodetypes="cccccccc"
       style="fill:#ffb800;fill-rule:evenodd"
       d="m -251.79,-124.11 c -9.98,21.7 -20.07,42.016 -27.03,62.22 l -9.99,5.701 5.91,10.064 17.32,-8.445 c 0.6,-3.307 -0.42,-5.797 -2.82,-7.602 5.94,-19.214 18.39,-37.662 22.03,-54.268 z"
       inkscape:connector-curvature="0" />
    <path
       id="path5151"
       sodipodi:nodetypes="ccccscc"
       style="fill:#fff2b5;fill-rule:evenodd"
       d="m -290.08,-55.415 c -11.75,-1.174 -23.65,-2.743 -29.56,10.698 -1.34,3.88 -3.37,8.031 2.54,9.009 3.21,0.181 3.83,-0.981 4.78,-1.971 0.25,-4.583 2.27,-6.607 5.55,-8.62 4.06,-2.491 7.57,-4.151 8.14,-4.33 z"
       inkscape:connector-curvature="0" />
    <path
       id="path5153"
       sodipodi:nodetypes="csccccc"
       style="fill:#fff2b5;fill-rule:evenodd"
       d="m -263.95,-54.867 c -2.26,3.427 -8.72,10.274 -16.18,15.501 -8.85,6.207 -19.33,7.389 -19.45,7.261 -6.54,1.274 -10.69,-7.094 1.03,-18.706 l 8.9,-5.133 6.76,10.791 z"
       inkscape:connector-curvature="0" />
    <path
       id="path5155"
       sodipodi:nodetypes="ccccccscccc"
       style="fill:#fff2b5;fill-rule:evenodd"
       d="m -241.77,-55.756 c 19.63,4.91 51.53,10.206 60.17,2.857 11.12,-9.826 -1.98,-14.865 -10.93,-18.958 l 0.09,-0.22 c 5.04,2.083 11.8,4.086 16.17,9.235 3.53,0.715 3.73,-0.501 4.4,-2.128 -1.96,-3.139 -4.61,-5.13 -5.5,-6.096 -4.32,-4.646 -9.46,-8.55 -18.44,-7.828 -5.27,0.656 -10.32,1.993 -14.92,4.635 l -4.91,17.438 c -0.12,0.457 -10.84,3.87 -26.13,1.065 z"
       inkscape:connector-curvature="0" />
    <path
       id="path5157"
       sodipodi:nodetypes="cccccccccccccc"
       style="fill:#ee0000;fill-rule:evenodd"
       d="m -210.12,-126.03 c -6.83,-5.95 -20.22,-1.8 -31.53,-0.84 -13.09,-13.78 -16.74,-31.33 -16.61,-50.4 -6.1,3.38 -11.9,7.81 -20.56,1.97 -3.97,-5.46 -4.94,-10.13 1.13,-12.95 4.85,0.03 8.04,-3.25 15.77,2.54 4.62,3.57 7.05,13.35 22.52,0.56 -2.85,-4.39 8.3,-7.22 11.82,-6.47 6.54,1.93 13.92,3.68 18.87,4.02 l 5.91,-1.21 c -4.79,4.33 -8.23,9.28 -9.58,15.2 l -12.95,-5.06 7.61,23.93 z"
       inkscape:connector-curvature="0" />
    <g
       id="g5159"
       inkscape:export-ydpi="72.205811"
       inkscape:export-xdpi="72.205811"
       inkscape:export-filename="/home/ricardo/Desktop/Projetos/newsletter/cabeca.png">
      <path
         id="path5161"
         style="fill:#ffb800;fill-rule:evenodd;stroke:#000000;stroke-width:0.79627001px"
         d="m -243.71,-346.64 c 8.79,45.76 -57.87,53.86 -30.41,92.34 -4.56,6.35 -8.55,12.99 -10.13,20.83 l 25.33,28.72 45.05,-12.39 -4.51,-6.2 c -7.37,-2.7 -8.41,-19.21 -8.44,-31.53 l -7.89,-5.63 c 0.7,-8.57 7.05,-11.06 12.39,-14.64 20.98,-0.22 33.39,-9.03 42.79,-20.83 2.2,-10.72 11.13,-20.75 -3.38,-33.22 -4.42,8.77 -7.69,18.11 -18.58,23.65 -14.83,6.05 -31.03,9.99 -40.54,24.21 l -0.56,6.76 -6.19,1.69 c -0.07,3.52 -1.44,6.75 -14.08,7.32 1.49,-9.59 7.03,-15.12 12.95,-20.27 25.9,-17.49 23.24,-29.42 24.78,-33.79 -1.25,-12.96 -10.03,-19.9 -18.58,-27.02 z"
         sodipodi:nodetypes="ccccccccccccccccccc"
         inkscape:connector-curvature="0" />
      <g
         id="g5163">
        <path
           id="path5165"
           sodipodi:nodetypes="ccccccccc"
           style="fill:#ffe191;fill-rule:evenodd"
           d="m -189.65,-315.39 c -10.03,22.81 -53.68,31.51 -53.15,51.16 l 7.82,3.73 0.07,-1.44 c 0.46,-4.54 5.24,-9.26 12.81,-14.04 19.55,1.81 31.2,-7.69 42.8,-20.11 -1.5,-4.5 6.82,-16.95 3.39,-23.29 -2.19,-3.15 -3.19,-5.22 -6.97,-9.55 -1.15,5.21 -4.64,9.69 -6.77,13.54 z"
           inkscape:connector-curvature="0" />
        <path
           id="path5167"
           sodipodi:nodetypes="cccccsccc"
           style="fill:#ffe191;fill-rule:evenodd"
           d="m -243.2,-333.51 c 1.24,22.11 -17.48,37.08 -27.07,55.34 -3.14,9.85 -2.01,16.15 1.19,20.7 4.97,-9.47 -0.12,-15.79 17.12,-27.87 13.87,-8.61 25.26,-21.67 24.55,-29.86 1.04,-1.61 1.71,-2.94 1.84,-4.56 0.57,-6.64 -6.15,-14.15 -10.46,-20.52 l -7.56,-6.37 c 0.56,4.38 2.24,8.76 0.39,13.14 z"
           inkscape:connector-curvature="0" />
        <path
           id="path5169"
           sodipodi:nodetypes="ccccccccccccc"
           style="fill:#ffe191;fill-rule:evenodd"
           d="m -271.76,-248.43 c -3.43,7.19 0.31,9.83 6.77,12.76 l 13.44,15.17 27.86,-0.54 6.37,-1.39 c -5.9,-1.52 -5.93,-5.39 -7.96,-9.34 l -1.81,-22.4 -7.81,-5.77 -7.81,-7.95 c 1.75,-2.04 -0.49,-4.13 -1.48,-6.55 l -4.09,1.87 c -1.71,4.95 -6.8,8.2 -14.56,6.93 -5.28,4.59 -7.08,10.66 -8.92,17.21 z"
           inkscape:connector-curvature="0" />
        <g
           id="g5171"
           transform="matrix(-0.79627,0,0,0.79627,-609.4,72.351)">
          <g
             id="g5173"
             transform="translate(7.4246,-32.527)">
            <ellipse
               id="path5175"
               style="fill:#ffffff;stroke:#000000;stroke-width:0.93677998"
               transform="matrix(1.1395,0,0,1,-118.83,146.3)"
               cx="-318.02127"
               cy="-502.79221"
               rx="7.601398"
               ry="13.788582" />
            <ellipse
               id="path5177"
               style="fill:#ffffff;stroke:#000000;stroke-width:0.62239999"
               transform="matrix(1.7209,0,0,1.5,93.818,396.81)"
               cx="-318.02127"
               cy="-502.79221"
               rx="7.601398"
               ry="13.788582" />
          </g>
          <g
             id="g5179"
             style="fill:#000000"
             transform="matrix(0.64286,0,0,0.64286,-149.86,-160.16)">
            <ellipse
               id="path5181"
               style="fill:#000000"
               transform="matrix(1.1395,0,0,1,-136.98,146.85)"
               cx="-318.02127"
               cy="-502.79221"
               rx="7.601398"
               ry="13.788582" />
            <ellipse
               id="path5183"
               style="fill:#000000"
               transform="matrix(1.7209,0,0,1.5,92.357,396.81)"
               cx="-318.02127"
               cy="-502.79221"
               rx="7.601398"
               ry="13.788582" />
          </g>
          <g
             id="g5185"
             transform="matrix(0.32143,0,0,0.32143,-291.65,-281.18)">
            <ellipse
               id="path5187"
               style="fill:#ffffff"
               transform="matrix(1.1395,0,0,1,-188.1,162.94)"
               cx="-318.02127"
               cy="-502.79221"
               rx="7.601398"
               ry="13.788582" />
            <ellipse
               id="path5189"
               style="fill:#ffffff"
               transform="matrix(1.7209,0,0,1.5,90.165,406.85)"
               cx="-318.02127"
               cy="-502.79221"
               rx="7.601398"
               ry="13.788582" />
          </g>
        </g>
        <path
           id="path5191"
           style="fill:#d3c78f;fill-rule:evenodd;stroke:#000000;stroke-width:0.79627001px"
           d="m -223.62,-220.36 c -12.72,-8.35 -18.94,-4.78 -25.48,-1.79 -32.81,-18.14 -53.39,-11.11 -57.73,-8.36 1.01,2.89 4.03,4.34 8.76,4.58 -9.38,1.39 -12.35,6.53 -15.53,11.54 l 2.59,2.19 8.96,-5.17 c -2.87,4.31 -6.82,8.9 -7.76,12.74 -0.43,2.13 -0.12,3.94 4.18,3.98 3.99,-2.33 4.65,-4.65 6.17,-6.97 -0.92,4.87 -2.16,9.78 2.58,14.13 l 4.78,-1.19 -0.2,-5.77 c 7.49,-0.86 17.47,2.93 28.67,8.95 1.74,11.47 16.58,11.14 21.1,2 6.64,-5.3 16.32,-4.52 24.88,-5.98 -0.77,3.05 -0.45,4.47 -0.2,5.98 4.79,0.23 6.49,-3.66 8.17,-7.57 0.82,2.09 -0.67,6.03 2.58,6.17 3.5,-0.73 4.26,-3.1 5.18,-5.37 0.3,-2.68 0.17,-6.42 -0.6,-11.75 1.14,2.11 2.43,4.19 6.17,5.77 1.17,-0.86 2.08,-2.12 2.19,-4.57 -0.83,-3.32 -3.15,-6.38 -7.16,-9.16 l 9.75,-0.4 c 1.34,-1.42 1.34,-3.1 1.39,-4.78 -13.28,-4.91 -23.86,-3.27 -33.44,0.8 z"
           sodipodi:nodetypes="ccccccccccccccccccccccccccc"
           inkscape:connector-curvature="0" />
        <path
           id="path5193"
           sodipodi:nodetypes="cccccccccccccccc"
           style="fill:#fffadf;fill-rule:evenodd"
           d="m -199.67,-223.29 8.99,2.21 c 0.09,1.57 0.56,3.64 -1.41,4.32 l -10.67,0.53 c 3.03,2.61 4.57,1.25 8.93,9.83 l -2.18,3.94 c -2.66,-1.62 -5.51,-3.17 -6.12,-5.56 l -0.35,0.85 0.01,11.12 c -0.84,2.01 -1.81,3.89 -3.95,4.85 -3.29,-0.01 -2.19,-1.7 -2.26,-2.95 l -0.56,-4.09 c -2.6,2.75 -1.87,7.5 -7.81,8.24 -1.56,-1.5 -0.39,-3.87 0,-5.84 l -16.12,1.76 z"
           inkscape:connector-curvature="0" />
        <path
           id="path5195"
           sodipodi:nodetypes="ccccccccccccccccccccccccccc"
           style="fill:#fff2b5;fill-rule:evenodd"
           d="m -225.83,-219.92 c -11.56,-7.59 -17.22,-4.34 -23.15,-1.63 -29.82,-16.48 -47.82,-12.06 -51.76,-9.56 0.92,2.62 3.66,3.94 7.96,4.16 -8.53,1.27 -14.74,4.95 -17.63,9.5 l 2.35,1.99 8.14,-4.7 c -2.61,3.92 -7.46,9.5 -8.32,12.98 -0.39,1.94 -0.11,3.59 3.8,3.62 3.63,-2.11 4.23,-4.22 5.6,-6.33 1.7,4.71 -2.66,9.45 1.65,13.41 l 4.34,-1.09 -0.18,-5.24 c 6.81,-0.78 20.67,3.64 30.84,9.12 1.58,10.42 12.67,15.1 19.77,3.01 2.66,-2.42 17.9,-5.02 25.68,-6.34 -0.71,2.77 -0.42,4.05 -0.18,5.42 4.35,0.22 5.75,-3.74 7.27,-7.29 0.75,1.89 -0.6,5.47 2.35,5.6 3.18,-0.66 3.87,-2.81 4.71,-4.88 0.27,-2.43 -0.84,-7.8 -1.53,-12.64 1.04,1.91 2.2,3.8 5.61,5.24 1.06,-0.79 1.88,-1.93 1.99,-4.16 -0.75,-3.01 -3.15,-4.53 -6.8,-7.05 l 8.87,-0.36 c 1.22,-1.29 1.22,-2.82 1.26,-4.35 -12.06,-4.46 -23.93,-2.12 -32.64,1.57 z"
           inkscape:connector-curvature="0" />
        <path
           id="path5197"
           sodipodi:nodetypes="cccccc"
           style="fill:#000000;fill-rule:evenodd;stroke:#000000;stroke-width:3.98130012"
           d="m -249.9,-217.97 c -7.88,-4.21 -14.38,-3.81 -20.7,-2.79 8.63,10.85 10.93,21.12 13.94,31.45 3.37,0.78 4.67,-0.01 5.97,-0.79 5.89,-4.49 5.77,-10.7 8.36,-16.13 -3,-3.43 -11.62,-1.25 -7.57,-11.74 z"
           inkscape:connector-curvature="0" />
        <g
           id="g5199"
           transform="matrix(-0.79627,0,0,0.79627,-615.78,47.296)">
          <path
             id="path5201"
             sodipodi:nodetypes="cccc"
             style="fill:#fff2b5;fill-rule:evenodd;stroke:#000000;stroke-width:1px"
             d="m -380.78,-594.72 c 12.62,17.74 41.59,23.84 60.81,37.13 -29.05,-5.03 -54.82,-11.98 -61.51,-30.06 z"
             transform="translate(-162.5,147.36)"
             inkscape:connector-curvature="0" />
          <path
             id="path5203"
             sodipodi:nodetypes="cc"
             style="fill:none;stroke:#000000;stroke-width:1px"
             d="m -384.67,-605.68 c 0.54,28.09 65.8,36.7 71.07,56.93"
             transform="translate(-162.5,147.36)"
             inkscape:connector-curvature="0" />
        </g>
        <g
           id="g5205"
           transform="matrix(-0.71196,0.35659,0.35659,0.71196,-464.69,185.33)">
          <path
             id="path5207"
             sodipodi:nodetypes="cccc"
             style="fill:#fff2b5;fill-rule:evenodd;stroke:#000000;stroke-width:1px"
             transform="translate(-162.5,147.36)"
             d="m -380.78,-594.72 c 12.62,17.74 41.59,23.84 60.81,37.13 -29.05,-5.03 -54.82,-11.98 -61.51,-30.06 z"
             inkscape:connector-curvature="0" />
          <path
             id="path5209"
             sodipodi:nodetypes="cc"
             style="fill:none;stroke:#000000;stroke-width:1px"
             transform="translate(-162.5,147.36)"
             d="m -384.67,-605.68 c 0.54,28.09 65.8,36.7 71.07,56.93"
             inkscape:connector-curvature="0" />
        </g>
        <path
           id="path5211"
           sodipodi:nodetypes="cc"
           style="fill:none;stroke:#000000;stroke-width:0.79627001px"
           d="m -271.59,-248.39 c 3.73,-19.87 11.86,-21.21 23.09,-9.57"
           inkscape:connector-curvature="0" />
        <path
           id="path5213"
           sodipodi:nodetypes="ccccccccccc"
           style="fill:none;stroke:#000000;stroke-width:0.79627001px"
           d="m -256.38,-265.28 c 5.83,-1.84 7.97,-5.98 10.98,-9.57 1.8,1.62 4.32,2.48 3.09,7.32 l -3.94,4.78 c 3.28,-1.12 6.8,-2.71 9.01,-1.69 0.74,1.5 2.61,3.01 0.56,4.51 l -7.6,-0.85 c 4.01,1.24 8.85,1.9 9.29,5.63 0.45,1.75 0.28,3.03 -2.25,2.54 l -5.07,-4.23 c 1.7,2.6 4.89,4.56 4.23,8.17"
           inkscape:connector-curvature="0" />
        <path
           id="path5215"
           sodipodi:nodetypes="cccc"
           style="fill:#000000;fill-rule:evenodd;stroke:#000000;stroke-width:0.79627001px"
           d="m -227.6,-223.55 c 2.29,6.31 -3.07,6.49 -5.57,8.96 -5.48,-1.74 -8.69,-5.31 -11.55,-9.15 6.46,-2.58 11.67,-0.76 17.12,0.19 z"
           inkscape:connector-curvature="0" />
        <path
           id="path5217"
           sodipodi:nodetypes="ccsc"
           style="fill:none;stroke:#000000;stroke-width:0.79627001px"
           d="m -222.62,-214.59 c -0.66,8.31 -6.97,7.88 -13.34,7.37 0,0 3.59,-4.9 3.18,-4.18 -4.46,7.97 -22.8,5.43 -17.51,-5.78"
           inkscape:connector-curvature="0" />
        <path
           id="path5219"
           sodipodi:nodetypes="cc"
           style="fill:none;stroke:#000000;stroke-width:0.79627001px"
           d="m -243.92,-216.38 c -13.78,1.37 -26.47,-4.91 -39.22,-10.75"
           inkscape:connector-curvature="0" />
        <path
           id="path5221"
           style="fill:none;stroke:#000000;stroke-width:0.79627001px"
           d="m -245.12,-212.4 c -0.26,0 -0.26,0 0,0 z"
           inkscape:connector-curvature="0" />
        <path
           id="path5223"
           sodipodi:nodetypes="cc"
           style="fill:none;stroke:#000000;stroke-width:0.79627001px"
           d="m -294.09,-213.59 c 37.53,9.23 38.78,2.71 50.17,0.6"
           inkscape:connector-curvature="0" />
        <path
           id="path5225"
           style="fill:none;stroke:#000000;stroke-width:0.79627001px"
           d="M -241.93,-209.81 Z"
           inkscape:connector-curvature="0" />
        <path
           id="path5227"
           sodipodi:nodetypes="cccccc"
           style="fill:#800000;fill-rule:evenodd"
           d="m -262.31,-207.7 c 6.46,2.19 13.44,3.3 16.33,13.14 -1.06,2.08 -2.68,3.48 -4.38,4.78 -2.81,1.68 -4.66,1.17 -6.57,0.79 l -5.97,-18.41 z"
           inkscape:connector-curvature="0" />
        <g
           id="g5229"
           style="fill:#ffffff"
           transform="matrix(-0.79627,0,0,0.79627,-614.19,47.296)">
          <path
             id="path5231"
             sodipodi:nodetypes="ccccc"
             style="fill:#ffffff;fill-rule:evenodd;stroke:#000000;stroke-width:1px"
             d="m -479,-317.89 8.25,14 10,-1 -0.5,-15.75 c -5.92,1.43 -11.83,2.65 -17.75,2.75 z"
             inkscape:connector-curvature="0" />
          <path
             id="path5233"
             d="m -306.25,-453 -1,-6.75"
             style="fill:#ffffff;fill-rule:evenodd;stroke:#000000;stroke-width:1px"
             transform="translate(-162.5,147.36)"
             inkscape:connector-curvature="0" />
        </g>
        <path
           id="path5235"
           sodipodi:nodetypes="cc"
           style="fill:none;stroke:#000000;stroke-width:0.79627001px"
           d="m -229.39,-210.01 c 3.54,4.75 7.34,9.43 14.53,13.14"
           inkscape:connector-curvature="0" />
        <path
           id="path5237"
           style="fill:none;stroke:#000000;stroke-width:0.79627001px"
           d="m -226.6,-212.2 v -0.2"
           inkscape:connector-curvature="0" />
        <path
           id="path5239"
           sodipodi:nodetypes="cc"
           style="fill:none;stroke:#000000;stroke-width:0.79627001px"
           d="m -207.89,-205.43 c -7.64,-0.13 -13.37,-3.58 -18.91,-7.37"
           inkscape:connector-curvature="0" />
        <path
           id="path5241"
           sodipodi:nodetypes="cc"
           style="fill:none;stroke:#000000;stroke-width:0.79627001px"
           d="m -227.8,-215.18 c 10.12,1.53 18.08,-0.02 24.49,-3.79"
           inkscape:connector-curvature="0" />
        <path
           id="path5243"
           sodipodi:nodetypes="cc"
           style="fill:none;stroke:#000000;stroke-width:0.79627001px"
           d="m -266.02,-198.46 c 10.72,-1.52 17.87,-5.53 23.29,-10.75"
           inkscape:connector-curvature="0" />
        <path
           id="path5245"
           sodipodi:nodetypes="cccc"
           style="fill:#a60c0c;fill-rule:evenodd"
           d="m -245.82,-194.61 c -1.48,2.34 -3.43,4.28 -6.05,5.63 -1.24,-4.93 -0.83,-9.33 1.44,-13.13 1.43,1.42 2.87,3.01 4.61,7.5 z"
           inkscape:connector-curvature="0" />
      </g>
    </g>
  </g>
  <metadata
     id="metadata100">
    <rdf:RDF>
      <cc:Work>
        <dc:format>image/svg+xml</dc:format>
        <dc:type
           rdf:resource="http://purl.org/dc/dcmitype/StillImage" />
        <cc:license
           rdf:resource="http://creativecommons.org/licenses/publicdomain/" />
        <dc:publisher>
          <cc:Agent
             rdf:about="http://openclipart.org/">
            <dc:title>Openclipart</dc:title>
          </cc:Agent>
        </dc:publisher>
        <dc:title>Coelho, Rabbit</dc:title>
        <dc:date>2008-04-18T15:23:00</dc:date>
        <dc:description>Coelho, Rabbit- Por: Ricardo Igor Procopio Contact:http://openclipart.org/media/people/Ricardo</dc:description>
        <dc:source>https://openclipart.org/detail/16432/coelho-rabbit-by-ricardo-16432</dc:source>
        <dc:creator>
          <cc:Agent>
            <dc:title>Ricardo</dc:title>
          </cc:Agent>
        </dc:creator>
        <dc:subject>
          <rdf:Bag>
            <rdf:li>cartoon</rdf:li>
            <rdf:li>ricardo</rdf:li>
          </rdf:Bag>
        </dc:subject>
      </cc:Work>
      <cc:License
         rdf:about="http://creativecommons.org/licenses/publicdomain/">
        <cc:permits
           rdf:resource="http://creativecommons.org/ns#Reproduction" />
        <cc:permits
           rdf:resource="http://creativecommons.org/ns#Distribution" />
        <cc:permits
           rdf:resource="http://creativecommons.org/ns#DerivativeWorks" />
      </cc:License>
    </rdf:RDF>
  </metadata>
</svg>
