<?xml version="1.0" encoding="UTF-8" standalone="no"?>
<!-- Created with Inkscape (http://www.inkscape.org/) -->

<svg
   xmlns:dc="http://purl.org/dc/elements/1.1/"
   xmlns:cc="http://creativecommons.org/ns#"
   xmlns:rdf="http://www.w3.org/1999/02/22-rdf-syntax-ns#"
   xmlns:svg="http://www.w3.org/2000/svg"
   xmlns="http://www.w3.org/2000/svg"
   xmlns:sodipodi="http://sodipodi.sourceforge.net/DTD/sodipodi-0.dtd"
   xmlns:inkscape="http://www.inkscape.org/namespaces/inkscape"
   id="svg2"
   sodipodi:docname="running-late-kablam-Panic.svg"
   viewBox="0 0 618.23 751.69"
   version="1.1"
   inkscape:version="0.92.1 r15371"
   width="659.44531"
   height="801.80267">
  <defs
     id="defs15" />
  <sodipodi:namedview
     id="base"
     bordercolor="#666666"
     inkscape:pageshadow="2"
     inkscape:window-y="0"
     pagecolor="#ffffff"
     inkscape:window-height="835"
     inkscape:window-maximized="0"
     inkscape:zoom="0.49497475"
     inkscape:window-x="-5"
     showgrid="false"
     borderopacity="1.0"
     inkscape:current-layer="layer1"
     inkscape:cx="296.75972"
     inkscape:cy="201.36532"
     inkscape:window-width="789"
     inkscape:pageopacity="0.0"
     inkscape:document-units="px" />
  <g
     id="layer1"
     inkscape:label="Layer 1"
     inkscape:groupmode="layer"
     transform="translate(-6.0491,-5.7133)">
    <g
       id="g2882"
       inkscape:export-ydpi="72"
       inkscape:export-xdpi="72"
       inkscape:export-filename="E:\george supreeth\clipart\panic.png"
       transform="translate(-26.264,-195.97)">
      <path
         id="path2880"
         sodipodi:rx="258.59906"
         sodipodi:ry="258.59906"
         style="opacity:0.98076998;fill:#ff2a2a"
         sodipodi:type="arc"
         d="M 266.36954,335.25963 A 258.59906,258.59906 0 0 1 626.42263,295.42917 258.59906,258.59906 0 0 1 673.03602,654.6671 258.59906,258.59906 0 0 1 314.74103,708.04685 258.59906,258.59906 0 0 1 254.61392,350.82223"
         sodipodi:open="true"
         transform="matrix(1.1953,0,0,1.1953,-216.41,48.044)"
         sodipodi:cy="498.79858"
         sodipodi:cx="466.69049"
         sodipodi:end="3.7508067"
         sodipodi:start="3.8262447" />
      <path
         id="path2851"
         style="fill:#1a1a1a"
         d="m 489.64,202.19 c -4.5676,-1.1313 -8.8277,-0.42085 -12.225,2.7719 -15.644,14.703 18.795,16.746 31.036,36.094 12.242,19.349 5.3864,55.378 5.3864,55.378 0,0 -12.413,-45.62 -49.753,-20.769 -16.963,10.824 -17.432,21.589 -12.202,36.86 -12.518,-10.647 -31.003,-21.502 -50.42,-15.81 -34.701,10.171 -31.366,24.474 -13.226,22.179 18.14,-2.2954 27.798,-15.127 48.395,-7.4824 7.104,2.6367 13.573,6.6911 19.006,10.878 1.1611,2.8305 2.4039,5.7971 3.7076,8.9395 -9.9298,-6.7779 -24.003,-12.546 -40.313,-8.1114 -32.261,8.7715 -54.119,28.62 -31.7,29.545 22.419,0.92557 26.824,-26.726 49.162,-21.701 10.12,2.2766 19.29,5.565 26.157,8.4438 7.2322,18.389 14.703,42.017 15.092,74.036 -28.247,82.692 -145.69,-84.871 -149.86,20.571 -2.0248,51.144 111.2,35.984 111.2,35.984 0,0 -31.6,10.69 -54.197,31.877 0.15197,3.7524 1.6769,7.7065 7.054,8.6521 10.819,1.9026 22.662,-0.0324 22.662,-0.0324 0,0 -3.5564,9.3531 9.1824,11.776 12.739,2.4231 19.178,-6.1387 19.178,-6.1387 0,0 -2.2324,15.872 9.1881,11.755 11.421,-4.117 20.123,-5.8826 20.123,-5.8826 0,0 7.5922,14.919 4.3435,30.706 -7.7217,-3.8943 -61.812,-30.741 -108.33,-42.398 -50.175,-12.572 -69.467,24.43 -32.488,21.059 36.979,-3.3706 65.137,-0.86973 92.974,6.6769 20.844,5.6509 37.654,17.705 44.776,23.409 -8.1308,14.236 -32.941,12.754 -32.941,12.754 0,0 0.41927,-9.1603 -6.9186,-16.302 -7.3379,-7.1415 -18.736,8.3324 -18.736,8.3324 0,0 -9.0214,-19.96 -16.701,-22.042 -7.6791,-2.0818 -13.309,14.92 -13.309,14.92 0,0 -1.4113,-13.775 -8.0495,-19.696 -3.6197,-3.2288 -9.6199,1.1858 -14.323,5.8547 -0.31327,9.6003 2.0718,20.118 8.222,31.532 34.183,63.442 115.82,18.921 131.08,-37.339 18.998,-70.079 9.9697,-176.54 9.9697,-176.54 0,0 29.076,-21.256 42.814,8.6991 13.738,29.9551 21.89,32.159 18.529,12.304 -3.3607,-19.856 -14.627,-37.468 -33.011,-39.537 -18.383,-2.0692 -30.197,9.2828 -30.197,9.2828 0,0 9.5315,-51.334 46.184,-41.397 36.652,9.9365 27.055,29.205 42.47,26.098 15.415,-3.1073 -3.2371,-25.65 -38.532,-35.218 -35.295,-9.5685 -49.674,27.332 -49.674,27.332 0,0 17.443,-53.569 14.565,-80.58 -2.2036,-20.68 -20.424,-44.026 -35.345,-47.721 z"
         inkscape:connector-curvature="0" />
      <path
         id="path2855"
         sodipodi:rx="8.0812206"
         sodipodi:ry="8.0812206"
         style="opacity:0.98076998;fill:#ffffff"
         sodipodi:type="arc"
         d="m 385.67915,336.10419 a 8.0812206,8.0812206 0 0 1 11.25166,-1.2447 8.0812206,8.0812206 0 0 1 1.45667,11.22618 8.0812206,8.0812206 0 0 1 -11.19672,1.66812 8.0812206,8.0812206 0 0 1 -1.87897,-11.16327"
         sodipodi:open="true"
         transform="matrix(1.4278,0.38708,-0.38708,1.4278,67.462,-227.35)"
         sodipodi:cy="341.21478"
         sodipodi:cx="391.93918"
         sodipodi:end="3.7508067"
         sodipodi:start="3.8262447" />
      <path
         id="path2857"
         sodipodi:rx="8.0812206"
         sodipodi:ry="8.0812206"
         style="opacity:0.98076998;fill:#1a1a1a"
         sodipodi:type="arc"
         d="m 385.67915,336.10419 a 8.0812206,8.0812206 0 0 1 11.25166,-1.2447 8.0812206,8.0812206 0 0 1 1.45667,11.22618 8.0812206,8.0812206 0 0 1 -11.19672,1.66812 8.0812206,8.0812206 0 0 1 -1.87897,-11.16327"
         sodipodi:open="true"
         transform="matrix(1.4278,0.38708,-0.38708,1.4278,34.882,-236.18)"
         sodipodi:cy="341.21478"
         sodipodi:cx="391.93918"
         sodipodi:end="3.7508067"
         sodipodi:start="3.8262447" />
      <path
         id="path2871"
         style="fill:#1a1a1a"
         d="m 594.63,494.29 c -0.43774,-0.12489 -0.9124,-0.22155 -1.4086,-0.29173 -15.879,-2.2439 -8.5297,16.236 -8.2523,26.615 0.27739,10.38 -15.584,19.488 -15.584,19.488 l -12.224,-15.689 c 0,0 9.5013,6.704 15.943,-1.854 6.4419,-8.558 -4.9888,-15.795 -16.571,-3.4782 -11.583,12.317 6.3191,22.338 6.3191,22.338 l -125.57,79.294 c -24.402,13.993 -39.26,-3.4305 -39.26,-3.4305 l -160.73,-95.08 c 0,0 1.3718,-8.9085 3.7949,-21.647 2.4231,-12.739 -4.2249,-29.991 -10.146,-23.353 -5.9214,6.6382 11.755,51.605 -2.7418,40.461 -14.497,-11.143 -16.776,-29.272 -13.312,-45.85 3.464,-16.578 -11.111,-12.289 -15.095,6.2089 -3.9844,18.498 25.006,40.793 25.006,40.793 0,0 -31.854,-11.746 -34.832,-19.767 -2.9779,-8.0204 0.57235,-28.694 -8.0495,-19.697 -8.6219,8.9974 -3.7962,21.641 10.961,31.824 14.7572,10.183 32.816,11.985 32.816,11.985 0,0 -7.3278,4.2122 -20.668,7.8087 -13.3402,3.5965 -24.188,-20.983 -30.809,-15.565 -6.6211,5.4181 2.1052,14.981 17.203,20.104 15.098,5.1236 38.537,-9.118 38.537,-9.118 l 157.77,98.404 c 0,0 -4.5019,20.419 -44.326,45.688 -29.442,18.681 -54.664,11.492 -61.115,19.813 -6.6585,-22.754 -41.818,-136.92 -71.145,-115.97 -32.531,23.24 -55.805,130.6 -55.805,130.6 0,0 -2.3702,-104.1 -40.658,-134.88 -38.282,-30.78 -51.476,-19.79 -51.476,-19.79 l 92.056,176.52 c 0,0 37.427,-132.68 62.827,-140.37 25.4,-7.6866 67.438,143.61 67.438,143.61 0,0 27.386,81.756 109.78,73.49 56.762,-5.695 89.749,-53.794 104.78,-83.172 -6.1941,18.489 -10.959,45.378 0.9315,69.566 20.664,42.034 52.123,54.93 52.123,54.93 l -38.47,-159.06 c 0,0 -11.114,-7.3949 -17.002,14.325 -5.8883,21.72 -42.071,74.579 -84.611,86.362 -42.541,11.783 -68.211,-1.0116 -84.893,-20.107 -10.079,-11.537 -14.162,-23.546 -15.822,-31.271 19.921,7.1207 46.218,3.6862 70.13,-14.821 40.426,-31.288 55.966,-84.796 55.966,-84.796 l 132.52,-89.79 c 0,0 7.6866,2.0901 11.266,4.0911 3.5793,2.0008 19.551,11.47 29.311,5.8726 9.761,-5.5973 1.9804,-14.907 -5.4214,-6.609 -7.4018,8.2978 -31.499,-5.4514 -31.499,-5.4514 0,0 16.141,1.275 30.002,-4.2413 13.861,-5.5163 25.891,-15.638 23.955,-27.498 -1.937,-11.86 -16.378,11.013 -22.56,18.611 -6.0469,7.4325 -32.636,11.187 -33.8,11.349 0.95843,-0.26143 5.2848,-1.7005 13.213,-7.6657 8.7781,-6.6044 22.77,-35.969 9.1997,-39.838 z"
         inkscape:connector-curvature="0" />
      <path
         id="path2876"
         sodipodi:rx="8.0812206"
         sodipodi:ry="8.0812206"
         style="opacity:0.98076998;fill:#1a1a1a"
         sodipodi:type="arc"
         d="m 385.67915,336.10419 a 8.0812206,8.0812206 0 0 1 11.25166,-1.2447 8.0812206,8.0812206 0 0 1 1.45667,11.22618 8.0812206,8.0812206 0 0 1 -11.19672,1.66812 8.0812206,8.0812206 0 0 1 -1.87897,-11.16327"
         sodipodi:open="true"
         transform="matrix(0.61743,0.16739,-0.16739,0.61743,310.4,135.01)"
         sodipodi:cy="341.21478"
         sodipodi:cx="391.93918"
         sodipodi:end="3.7508067"
         sodipodi:start="3.8262447" />
      <path
         id="path2878"
         sodipodi:rx="8.0812206"
         sodipodi:ry="8.0812206"
         style="opacity:0.98076998;fill:#ffffff"
         sodipodi:type="arc"
         d="m 385.67915,336.10419 a 8.0812206,8.0812206 0 0 1 11.25166,-1.2447 8.0812206,8.0812206 0 0 1 1.45667,11.22618 8.0812206,8.0812206 0 0 1 -11.19672,1.66812 8.0812206,8.0812206 0 0 1 -1.87897,-11.16327"
         sodipodi:open="true"
         transform="matrix(0.47306,0.12825,-0.12825,0.47306,320.77,191.04)"
         sodipodi:cy="341.21478"
         sodipodi:cx="391.93918"
         sodipodi:end="3.7508067"
         sodipodi:start="3.8262447" />
    </g>
  </g>
  <metadata
     id="metadata12">
    <rdf:RDF>
      <cc:Work>
        <dc:format>image/svg+xml</dc:format>
        <dc:type
           rdf:resource="http://purl.org/dc/dcmitype/StillImage" />
        <cc:license
           rdf:resource="http://creativecommons.org/licenses/publicdomain/" />
        <dc:publisher>
          <cc:Agent
             rdf:about="http://openclipart.org/">
            <dc:title>Openclipart</dc:title>
          </cc:Agent>
        </dc:publisher>
        <dc:title>Panic</dc:title>
        <dc:date>2009-11-30T17:31:19</dc:date>
        <dc:description>Drawn by pencilsauce.com using Inkscape 0.47 from inkscape.org</dc:description>
        <dc:source>https://openclipart.org/detail/28524/panic-by-kablam</dc:source>
        <dc:creator>
          <cc:Agent>
            <dc:title>kablam</dc:title>
          </cc:Agent>
        </dc:creator>
        <dc:subject>
          <rdf:Bag>
            <rdf:li>cartoon</rdf:li>
            <rdf:li>hurry</rdf:li>
            <rdf:li>panic</rdf:li>
            <rdf:li>rush</rdf:li>
          </rdf:Bag>
        </dc:subject>
      </cc:Work>
      <cc:License
         rdf:about="http://creativecommons.org/licenses/publicdomain/">
        <cc:permits
           rdf:resource="http://creativecommons.org/ns#Reproduction" />
        <cc:permits
           rdf:resource="http://creativecommons.org/ns#Distribution" />
        <cc:permits
           rdf:resource="http://creativecommons.org/ns#DerivativeWorks" />
      </cc:License>
    </rdf:RDF>
  </metadata>
</svg>
