<?xml version="1.0" encoding="UTF-8" standalone="no"?>
<!-- Created with Inkscape (http://www.inkscape.org/) -->

<svg
   xmlns:dc="http://purl.org/dc/elements/1.1/"
   xmlns:cc="http://creativecommons.org/ns#"
   xmlns:rdf="http://www.w3.org/1999/02/22-rdf-syntax-ns#"
   xmlns:svg="http://www.w3.org/2000/svg"
   xmlns="http://www.w3.org/2000/svg"
   xmlns:xlink="http://www.w3.org/1999/xlink"
   xmlns:sodipodi="http://sodipodi.sourceforge.net/DTD/sodipodi-0.dtd"
   xmlns:inkscape="http://www.inkscape.org/namespaces/inkscape"
   width="854.02301"
   height="772.64227"
   id="svg2"
   version="1.1"
   inkscape:version="0.92.1 r15371"
   sodipodi:docname="saloli-ecureuil.svg">
  <defs
     id="defs4">
    <linearGradient
       inkscape:collect="always"
       id="linearGradient4238">
      <stop
         style="stop-color:#4e697c;stop-opacity:1;"
         offset="0"
         id="stop4240" />
      <stop
         style="stop-color:#4e697c;stop-opacity:0;"
         offset="1"
         id="stop4242" />
    </linearGradient>
    <linearGradient
       id="linearGradient4218">
      <stop
         style="stop-color:#0077ca;stop-opacity:1;"
         offset="0"
         id="stop4220" />
      <stop
         style="stop-color:#004677;stop-opacity:1;"
         offset="1"
         id="stop4222" />
    </linearGradient>
    <linearGradient
       id="linearGradient3970">
      <stop
         style="stop-color:#ffffff;stop-opacity:1;"
         offset="0"
         id="stop3972" />
      <stop
         style="stop-color:#ffef00;stop-opacity:1;"
         offset="1"
         id="stop3974" />
    </linearGradient>
    <linearGradient
       id="linearGradient3954">
      <stop
         style="stop-color:#f6d6d6;stop-opacity:1;"
         offset="0"
         id="stop3956" />
      <stop
         style="stop-color:#f6d6d6;stop-opacity:0;"
         offset="1"
         id="stop3958" />
    </linearGradient>
    <linearGradient
       id="linearGradient3888">
      <stop
         style="stop-color:#fcff7d;stop-opacity:1;"
         offset="0"
         id="stop3890" />
      <stop
         style="stop-color:#b3e600;stop-opacity:0;"
         offset="1"
         id="stop3892" />
    </linearGradient>
    <linearGradient
       id="linearGradient3858">
      <stop
         style="stop-color:#ff0000;stop-opacity:1;"
         offset="0"
         id="stop3860" />
      <stop
         style="stop-color:#9f0000;stop-opacity:1;"
         offset="1"
         id="stop3862" />
    </linearGradient>
    <linearGradient
       inkscape:collect="always"
       id="linearGradient3850">
      <stop
         style="stop-color:#ffffff;stop-opacity:1;"
         offset="0"
         id="stop3852" />
      <stop
         style="stop-color:#ffffff;stop-opacity:0;"
         offset="1"
         id="stop3854" />
    </linearGradient>
    <linearGradient
       id="linearGradient4127">
      <stop
         style="stop-color:#dc8c28;stop-opacity:1;"
         offset="0"
         id="stop4129" />
      <stop
         style="stop-color:#df9d3b;stop-opacity:0;"
         offset="1"
         id="stop4131" />
    </linearGradient>
    <linearGradient
       id="linearGradient4109">
      <stop
         style="stop-color:#ffffff;stop-opacity:1;"
         offset="0"
         id="stop4111" />
      <stop
         style="stop-color:#c6d2da;stop-opacity:1;"
         offset="1"
         id="stop4113" />
    </linearGradient>
    <linearGradient
       id="linearGradient4051">
      <stop
         style="stop-color:#d27c0d;stop-opacity:1;"
         offset="0"
         id="stop4053" />
      <stop
         style="stop-color:#eec40f;stop-opacity:1;"
         offset="1"
         id="stop4055" />
    </linearGradient>
    <linearGradient
       inkscape:collect="always"
       id="linearGradient4037">
      <stop
         style="stop-color:#af670b;stop-opacity:1;"
         offset="0"
         id="stop4039" />
      <stop
         style="stop-color:#af670b;stop-opacity:0;"
         offset="1"
         id="stop4041" />
    </linearGradient>
    <linearGradient
       id="linearGradient4023">
      <stop
         style="stop-color:#88f8f5;stop-opacity:1;"
         offset="0"
         id="stop4025" />
      <stop
         style="stop-color:#8bf8f5;stop-opacity:0;"
         offset="1"
         id="stop4027" />
    </linearGradient>
    <linearGradient
       id="linearGradient4013">
      <stop
         style="stop-color:#ffffff;stop-opacity:1;"
         offset="0"
         id="stop4015" />
      <stop
         style="stop-color:#fcc8e3;stop-opacity:1;"
         offset="1"
         id="stop4017" />
    </linearGradient>
    <linearGradient
       id="linearGradient4003">
      <stop
         style="stop-color:#a70000;stop-opacity:1;"
         offset="0"
         id="stop4005" />
      <stop
         style="stop-color:#5a0000;stop-opacity:0;"
         offset="1"
         id="stop4007" />
    </linearGradient>
    <radialGradient
       inkscape:collect="always"
       xlink:href="#linearGradient3970"
       id="radialGradient3976"
       cx="574.61847"
       cy="498.203"
       fx="574.61847"
       fy="498.203"
       r="9.4642859"
       gradientTransform="matrix(1.1831196,0,0,1.781734,241.60865,-410.12916)"
       gradientUnits="userSpaceOnUse" />
    <linearGradient
       inkscape:collect="always"
       xlink:href="#linearGradient4238"
       id="linearGradient4244"
       x1="479.28571"
       y1="603.73737"
       x2="465"
       y2="728.02307"
       gradientUnits="userSpaceOnUse"
       gradientTransform="matrix(1.330054,0,0,1.330054,-126.84935,138.41021)" />
    <linearGradient
       inkscape:collect="always"
       xlink:href="#linearGradient4037"
       id="linearGradient3159"
       gradientUnits="userSpaceOnUse"
       x1="437.75418"
       y1="361.19867"
       x2="437.5423"
       y2="368.52008"
       gradientTransform="matrix(1.330054,0,0,1.330054,-140.1499,157.41099)" />
    <linearGradient
       inkscape:collect="always"
       xlink:href="#linearGradient4037"
       id="linearGradient3162"
       gradientUnits="userSpaceOnUse"
       gradientTransform="matrix(1.330054,0,0,1.0786819,-140.1499,246.30243)"
       x1="437.57419"
       y1="339.16519"
       x2="438.6741"
       y2="352.91519" />
    <linearGradient
       inkscape:collect="always"
       xlink:href="#linearGradient4051"
       id="linearGradient3165"
       gradientUnits="userSpaceOnUse"
       x1="436.25079"
       y1="321.18109"
       x2="435"
       y2="309.30609"
       gradientTransform="matrix(1.330054,0,0,1.330054,-140.1499,157.41099)" />
    <linearGradient
       inkscape:collect="always"
       xlink:href="#linearGradient4051"
       id="linearGradient3168"
       gradientUnits="userSpaceOnUse"
       x1="436.48154"
       y1="336.86969"
       x2="454.4404"
       y2="323.03043"
       gradientTransform="matrix(1.330054,0,0,1.330054,-140.1499,157.41099)" />
    <linearGradient
       inkscape:collect="always"
       xlink:href="#linearGradient4051"
       id="linearGradient3171"
       gradientUnits="userSpaceOnUse"
       x1="793.74738"
       y1="466.01166"
       x2="779.15778"
       y2="452.43774"
       gradientTransform="matrix(1.330054,0,0,1.330054,-140.1499,157.41099)" />
    <linearGradient
       inkscape:collect="always"
       xlink:href="#linearGradient4051"
       id="linearGradient3174"
       gradientUnits="userSpaceOnUse"
       x1="817.76788"
       y1="439.17212"
       x2="818.64905"
       y2="419.97568"
       gradientTransform="matrix(1.330054,0,0,1.330054,-140.1499,157.41099)" />
    <linearGradient
       inkscape:collect="always"
       xlink:href="#linearGradient4051"
       id="linearGradient3177"
       gradientUnits="userSpaceOnUse"
       x1="717.78485"
       y1="512.65955"
       x2="713.57416"
       y2="466.67737"
       gradientTransform="matrix(1.330054,0,0,1.330054,-140.1499,157.41099)" />
    <linearGradient
       inkscape:collect="always"
       xlink:href="#linearGradient4051"
       id="linearGradient3180"
       gradientUnits="userSpaceOnUse"
       x1="759.17493"
       y1="448.36749"
       x2="764.69586"
       y2="411.67105"
       gradientTransform="matrix(1.330054,0,0,1.330054,-140.1499,157.41099)" />
    <linearGradient
       inkscape:collect="always"
       xlink:href="#linearGradient4037"
       id="linearGradient3183"
       gradientUnits="userSpaceOnUse"
       x1="780.99554"
       y1="444.40472"
       x2="804.43396"
       y2="449.04758"
       gradientTransform="matrix(1.330054,0,0,1.330054,-140.1499,157.41099)" />
    <linearGradient
       inkscape:collect="always"
       xlink:href="#linearGradient4003"
       id="linearGradient3186"
       gradientUnits="userSpaceOnUse"
       x1="193.71771"
       y1="456.30026"
       x2="348.245"
       y2="486.60483"
       gradientTransform="matrix(1.330054,0,0,1.330054,-140.1499,157.41099)" />
    <linearGradient
       inkscape:collect="always"
       xlink:href="#linearGradient4003"
       id="linearGradient3189"
       gradientUnits="userSpaceOnUse"
       x1="584.70508"
       y1="654.03021"
       x2="616.42859"
       y2="594.74451"
       gradientTransform="matrix(1.330054,0,0,1.330054,-140.1499,157.41099)" />
    <linearGradient
       inkscape:collect="always"
       xlink:href="#linearGradient4003"
       id="linearGradient3192"
       gradientUnits="userSpaceOnUse"
       gradientTransform="matrix(1.330054,0,0,1.2183853,-140.1499,222.16745)"
       x1="514.05359"
       y1="677.16278"
       x2="531.57141"
       y2="586.09137" />
    <linearGradient
       inkscape:collect="always"
       xlink:href="#linearGradient4003"
       id="linearGradient3195"
       gradientUnits="userSpaceOnUse"
       x1="309.16656"
       y1="948.58771"
       x2="351.1846"
       y2="837.47089"
       gradientTransform="matrix(1.330054,0,0,1.330054,-140.1499,-252.6017)" />
    <linearGradient
       inkscape:collect="always"
       xlink:href="#linearGradient4037"
       id="linearGradient3198"
       gradientUnits="userSpaceOnUse"
       x1="286.59824"
       y1="504.77444"
       x2="252.97322"
       y2="493.34586"
       gradientTransform="matrix(1.330054,0,0,1.330054,-140.1499,157.41099)" />
    <linearGradient
       inkscape:collect="always"
       xlink:href="#linearGradient4003"
       id="linearGradient3201"
       gradientUnits="userSpaceOnUse"
       x1="635.81567"
       y1="573.52313"
       x2="661.52649"
       y2="600.24847"
       gradientTransform="matrix(1.330054,0,0,1.330054,-140.1499,157.41099)" />
    <linearGradient
       inkscape:collect="always"
       xlink:href="#linearGradient3954"
       id="linearGradient3204"
       gradientUnits="userSpaceOnUse"
       x1="658.2666"
       y1="500.11542"
       x2="642.10712"
       y2="568.50824"
       gradientTransform="matrix(1.330054,0,0,1.330054,-140.1499,157.41099)" />
    <linearGradient
       inkscape:collect="always"
       xlink:href="#linearGradient3954"
       id="linearGradient3207"
       gradientUnits="userSpaceOnUse"
       x1="589.82141"
       y1="533.67499"
       x2="562.05359"
       y2="544.38928"
       gradientTransform="matrix(1.330054,0,0,1.330054,-140.1499,157.41099)" />
    <linearGradient
       inkscape:collect="always"
       xlink:href="#linearGradient4037"
       id="linearGradient3210"
       gradientUnits="userSpaceOnUse"
       x1="673.56329"
       y1="545.77802"
       x2="686.1347"
       y2="546.40308"
       gradientTransform="matrix(1.330054,0,0,1.330054,-140.1499,157.41099)" />
    <linearGradient
       inkscape:collect="always"
       xlink:href="#linearGradient3954"
       id="linearGradient3213"
       gradientUnits="userSpaceOnUse"
       x1="547.12897"
       y1="417.20007"
       x2="551.2699"
       y2="463.79337"
       gradientTransform="matrix(1.330054,0,0,1.330054,-140.1499,157.41099)" />
    <linearGradient
       inkscape:collect="always"
       xlink:href="#linearGradient4127"
       id="linearGradient3216"
       gradientUnits="userSpaceOnUse"
       x1="468.96841"
       y1="496.48083"
       x2="511.38464"
       y2="496.48083"
       gradientTransform="matrix(1.330054,0,0,1.330054,-140.1499,157.41099)" />
    <linearGradient
       inkscape:collect="always"
       xlink:href="#linearGradient4051"
       id="linearGradient3219"
       gradientUnits="userSpaceOnUse"
       x1="481.59021"
       y1="307.44803"
       x2="476.63339"
       y2="290.90677"
       gradientTransform="matrix(1.330054,0,0,1.330054,-140.1499,157.41099)" />
    <linearGradient
       inkscape:collect="always"
       xlink:href="#linearGradient4127"
       id="linearGradient3222"
       gradientUnits="userSpaceOnUse"
       x1="659.92249"
       y1="465.84888"
       x2="668.92084"
       y2="473.2981"
       gradientTransform="matrix(1.330054,0,0,1.330054,-140.1499,157.41099)" />
    <linearGradient
       inkscape:collect="always"
       xlink:href="#linearGradient3888"
       id="linearGradient3225"
       gradientUnits="userSpaceOnUse"
       x1="517.03259"
       y1="415.68823"
       x2="514.375"
       y2="454.5275"
       gradientTransform="matrix(1.330054,0,0,1.330054,-140.1499,157.41099)" />
    <linearGradient
       inkscape:collect="always"
       xlink:href="#linearGradient3888"
       id="linearGradient3228"
       gradientUnits="userSpaceOnUse"
       x1="654.48578"
       y1="428.03894"
       x2="633.73938"
       y2="455.31308"
       gradientTransform="matrix(1.330054,0,0,1.330054,-140.1499,157.41099)" />
    <linearGradient
       inkscape:collect="always"
       xlink:href="#linearGradient4037"
       id="linearGradient3231"
       gradientUnits="userSpaceOnUse"
       x1="664.04901"
       y1="449.41403"
       x2="681.53729"
       y2="443.79507"
       gradientTransform="matrix(1.330054,0,0,1.330054,-140.1499,157.41099)" />
    <linearGradient
       inkscape:collect="always"
       xlink:href="#linearGradient4127"
       id="linearGradient3234"
       gradientUnits="userSpaceOnUse"
       x1="607.70526"
       y1="382.77362"
       x2="590.14722"
       y2="399.44421"
       gradientTransform="matrix(1.330054,0,0,1.330054,-140.1499,157.41099)" />
    <linearGradient
       inkscape:collect="always"
       xlink:href="#linearGradient3850"
       id="linearGradient3237"
       gradientUnits="userSpaceOnUse"
       x1="588.07147"
       y1="275.76846"
       x2="594.20563"
       y2="328.98276"
       gradientTransform="matrix(1.330054,0,0,1.330054,-140.1499,157.41099)" />
    <linearGradient
       inkscape:collect="always"
       xlink:href="#linearGradient4127"
       id="linearGradient3240"
       gradientUnits="userSpaceOnUse"
       x1="474.4617"
       y1="442.27893"
       x2="460.87704"
       y2="450.23389"
       gradientTransform="matrix(1.330054,0,0,1.330054,-140.1499,157.41099)" />
    <linearGradient
       inkscape:collect="always"
       xlink:href="#linearGradient4037"
       id="linearGradient3243"
       gradientUnits="userSpaceOnUse"
       x1="491.55359"
       y1="439.85339"
       x2="491.88708"
       y2="411.81766"
       gradientTransform="matrix(1.330054,0,0,1.330054,-140.1499,157.41099)" />
    <linearGradient
       inkscape:collect="always"
       xlink:href="#linearGradient4037"
       id="linearGradient3246"
       gradientUnits="userSpaceOnUse"
       gradientTransform="matrix(1.330054,0,0,1.330054,-207.32777,216.52751)"
       x1="626.9259"
       y1="203.72601"
       x2="650.28571"
       y2="208.01917" />
    <linearGradient
       inkscape:collect="always"
       xlink:href="#linearGradient4037"
       id="linearGradient3250"
       gradientUnits="userSpaceOnUse"
       x1="733.75055"
       y1="882.55811"
       x2="735.68024"
       y2="840.16846"
       gradientTransform="matrix(1.330054,0,0,1.330054,-140.1499,-252.6017)" />
    <linearGradient
       inkscape:collect="always"
       xlink:href="#linearGradient4003"
       id="linearGradient3268"
       gradientUnits="userSpaceOnUse"
       x1="445.35718"
       y1="639.80664"
       x2="545.5639"
       y2="508.19949"
       gradientTransform="matrix(1.330054,0,0,1.330054,-140.1499,157.41099)" />
    <linearGradient
       inkscape:collect="always"
       xlink:href="#linearGradient4218"
       id="linearGradient3276"
       gradientUnits="userSpaceOnUse"
       x1="715.87836"
       y1="590.53033"
       x2="720.48492"
       y2="607.49463"
       gradientTransform="matrix(1.330054,0,0,1.330054,-140.1499,-252.6017)" />
    <linearGradient
       inkscape:collect="always"
       xlink:href="#linearGradient4218"
       id="linearGradient3282"
       gradientUnits="userSpaceOnUse"
       x1="660.9895"
       y1="588.98242"
       x2="665.46606"
       y2="607.37531"
       gradientTransform="matrix(1.330054,0,0,1.330054,-140.1499,-252.6017)" />
    <linearGradient
       inkscape:collect="always"
       xlink:href="#linearGradient4023"
       id="linearGradient3287"
       gradientUnits="userSpaceOnUse"
       gradientTransform="matrix(1.330054,0,0,1.330054,-207.32777,216.52751)"
       x1="740.24969"
       y1="271.7739"
       x2="731.31506"
       y2="228.21651" />
    <linearGradient
       inkscape:collect="always"
       xlink:href="#linearGradient3858"
       id="linearGradient3294"
       gradientUnits="userSpaceOnUse"
       x1="656.31671"
       y1="691.01654"
       x2="657.09814"
       y2="678.15936"
       gradientTransform="matrix(1.330054,0,0,1.330054,-140.1499,-252.6017)" />
    <linearGradient
       inkscape:collect="always"
       xlink:href="#linearGradient4109"
       id="linearGradient3297"
       gradientUnits="userSpaceOnUse"
       x1="694.98499"
       y1="680.59448"
       x2="695.93201"
       y2="673.90222"
       gradientTransform="matrix(1.330054,0,0,1.330054,-140.1499,-252.6017)" />
    <radialGradient
       inkscape:collect="always"
       xlink:href="#linearGradient4013"
       id="radialGradient3300"
       gradientUnits="userSpaceOnUse"
       gradientTransform="matrix(4.0912484,-2.4670989,1.2235728,2.0290796,-2964.4294,1147.0794)"
       cx="746.44031"
       cy="623.5069"
       fx="746.44031"
       fy="623.5069"
       r="15.111783" />
    <linearGradient
       inkscape:collect="always"
       xlink:href="#linearGradient4023"
       id="linearGradient3303"
       gradientUnits="userSpaceOnUse"
       gradientTransform="matrix(1.330054,0,0,1.330054,-143.42482,220.13833)"
       x1="737.12469"
       y1="272.48819"
       x2="731.31506"
       y2="228.21651" />
    <linearGradient
       inkscape:collect="always"
       xlink:href="#linearGradient4109"
       id="linearGradient3306"
       gradientUnits="userSpaceOnUse"
       x1="730.08777"
       y1="565.24091"
       x2="719.37372"
       y2="518.2688"
       gradientTransform="matrix(1.330054,0,0,1.330054,-140.1499,-252.6017)" />
    <linearGradient
       inkscape:collect="always"
       xlink:href="#linearGradient4109"
       id="linearGradient3309"
       gradientUnits="userSpaceOnUse"
       x1="667.33203"
       y1="555.88226"
       x2="621.91339"
       y2="492.74771"
       gradientTransform="matrix(1.330054,0,0,1.330054,-140.1499,-252.6017)" />
    <radialGradient
       inkscape:collect="always"
       xlink:href="#linearGradient4013"
       id="radialGradient3312"
       gradientUnits="userSpaceOnUse"
       gradientTransform="matrix(1.330054,0,0,0.83026011,-207.32777,359.1529)"
       cx="741.87805"
       cy="292.80615"
       fx="741.87805"
       fy="292.80615"
       r="101.87803" />
    <linearGradient
       inkscape:collect="always"
       xlink:href="#linearGradient4109"
       id="linearGradient3315"
       gradientUnits="userSpaceOnUse"
       x1="582.711"
       y1="513.99768"
       x2="602.43115"
       y2="514.50281"
       gradientTransform="matrix(1.330054,0,0,1.330054,-140.1499,-252.6017)" />
    <linearGradient
       inkscape:collect="always"
       xlink:href="#linearGradient4051"
       id="linearGradient3319"
       gradientUnits="userSpaceOnUse"
       gradientTransform="matrix(1.330054,0,0,1.330054,-207.32777,216.52751)"
       x1="740.71423"
       y1="128.91591"
       x2="758.39288"
       y2="111.05877" />
    <linearGradient
       inkscape:collect="always"
       xlink:href="#linearGradient4037"
       id="linearGradient3326"
       gradientUnits="userSpaceOnUse"
       x1="460.20605"
       y1="715.95166"
       x2="430.66122"
       y2="642.38019"
       gradientTransform="matrix(1.330054,0,0,1.330054,-140.1499,-252.6017)" />
    <radialGradient
       inkscape:collect="always"
       xlink:href="#linearGradient4037"
       id="radialGradient3329"
       gradientUnits="userSpaceOnUse"
       gradientTransform="matrix(2.2361482,0.42723952,-0.24128234,1.2628586,-214.12096,-324.89154)"
       cx="248.30133"
       cy="638.29169"
       fx="248.30133"
       fy="638.29169"
       r="78.298782" />
    <linearGradient
       inkscape:collect="always"
       xlink:href="#linearGradient4051"
       id="linearGradient3332"
       gradientUnits="userSpaceOnUse"
       gradientTransform="matrix(1.330054,0,0,1.330054,-207.32777,216.52751)"
       x1="447.41531"
       y1="257.11401"
       x2="468.16559"
       y2="149.53278" />
  </defs>
  <sodipodi:namedview
     id="base"
     pagecolor="#ffffff"
     bordercolor="#666666"
     borderopacity="1.0"
     inkscape:pageopacity="0.0"
     inkscape:pageshadow="2"
     inkscape:zoom="0.7"
     inkscape:cx="-178.42152"
     inkscape:cy="248.89361"
     inkscape:document-units="px"
     inkscape:current-layer="layer1"
     showgrid="false"
     inkscape:window-width="1871"
     inkscape:window-height="1056"
     inkscape:window-x="49"
     inkscape:window-y="24"
     inkscape:window-maximized="1"
     showguides="true"
     inkscape:guide-bbox="true"
     fit-margin-top="0"
     fit-margin-left="0"
     fit-margin-right="0"
     fit-margin-bottom="0" />
  <metadata
     id="metadata7">
    <rdf:RDF>
      <cc:Work
         rdf:about="">
        <dc:format>image/svg+xml</dc:format>
        <dc:type
           rdf:resource="http://purl.org/dc/dcmitype/StillImage" />
        <dc:title />
      </cc:Work>
    </rdf:RDF>
  </metadata>
  <g
     inkscape:label="Calque 1"
     inkscape:groupmode="layer"
     id="layer1"
     transform="translate(-132.28801,-337.40308)">
    <ellipse
       style="fill:url(#linearGradient4244);fill-opacity:1;stroke:none;stroke-width:1.33005393"
       id="path4236"
       cx="480.22525"
       cy="1066.8186"
       rx="337.26367"
       ry="43.226753" />
    <path
       style="fill:#000000;stroke:#000000;stroke-width:6.65026999;stroke-linecap:butt;stroke-linejoin:miter;stroke-miterlimit:4;stroke-dasharray:none;stroke-opacity:1"
       d="m 321.8659,747.38848 c -3.93091,-11.26253 3.86273,-18.80981 7.72546,-25.69554 3.86272,-6.88573 19.81746,-33.08509 21.66485,-42.49 1.8474,-9.4049 4.87041,-26.36732 -5.37423,-35.26839 -6.73827,-5.85456 -34.05335,-21.40981 -46.85655,-21.49691 -24.68787,-0.16795 -51.39107,13.43558 -51.39107,13.43558 0,-9.7408 4.19861,-16.62653 4.19861,-16.62653 -11.42023,6.21396 -34.76454,28.88648 -34.76454,28.88648 l -0.67178,-9.7408 c -21.16103,15.95474 -28.5506,59.45242 -28.5506,59.45242 0,0 -19.48158,-13.9394 -22.50458,-20.15334 l -3.3589,12.25994 c -10.9164,-19.81747 -12.59585,-35.26838 -12.59585,-35.26838 l -4.03068,7.72546 c 0,0 -9.90872,-37.78755 -9.74078,-58.78063 0.10694,-13.37309 0.89892,-48.23744 10.9164,-71.20855 9.74079,-22.33663 22.50459,-51.89491 47.36039,-76.75071 24.85582,-24.85581 84.47617,-48.87192 112.01911,-53.57436 27.54292,-4.70245 87.33123,-12.09201 111.51526,-12.7638 24.18403,-0.67177 55.83973,4.27407 93.37725,34.9325 20.25342,16.54179 45.69859,43.31985 55.08584,60.12419 13.60354,24.35199 38.01762,42.53942 57.10119,119.24073 9.83797,39.54111 -231.09186,172.64713 -234.45076,173.99068 -16.75299,-9.93251 -59.89808,-10.81611 -66.67404,-30.23004 z"
       id="path3995"
       inkscape:connector-curvature="0"
       sodipodi:nodetypes="ssssscccccccccsssssssscs" />
    <path
       style="fill:url(#linearGradient3332);fill-opacity:1;stroke:none;stroke-width:1.06666672"
       d="m 185.32688,689.27962 c 0,0 0.67178,-36.10811 33.58894,-57.10119 l 0.5878,7.89341 c 18.30596,-21.32899 44.42137,-33.421 44.42137,-33.421 -9.48886,13.51955 -9.4049,20.48923 -9.4049,20.48923 0,0 35.60426,-15.78679 57.43707,-7.05367 21.83281,8.73314 45.64288,20.4935 46.01685,36.94784 1.00765,44.3374 -30.55423,65.77501 -31.23771,85.65178 -0.77355,22.49637 86.99534,43.32972 86.99534,43.32972 l 194.47994,-48.36806 c 0,0 11.74477,-133.07181 0.33588,-164.92166 -16.12269,-45.00918 -64.49076,-115.54595 -90.01835,-134.01987 -25.5276,-18.4739 -40.9785,-32.91715 -58.78063,-39.29905 -17.80213,-6.38189 -49.37573,-6.71779 -58.10886,-2.35122 24.85581,2.35122 42.32207,17.13036 42.32207,17.13036 0,0 -33.59183,-13.65962 -61.80365,-14.44324 -28.22137,-0.7839 -46.01683,4.36656 -46.01683,4.36656 31.23771,3.02299 47.69627,18.13802 47.69627,18.13802 -40.6426,-13.43558 -63.81897,-13.77146 -93.71313,-9.74079 -29.39137,3.96291 -93.37722,41.31439 -108.82815,66.5061 -15.4509,25.1917 -37.28371,58.78062 -39.63494,101.43858 -2.35122,42.65795 5.37423,69.1932 5.37423,69.1932 0,0 1.51151,-6.88573 3.02302,-12.09201 -0.67179,11.75612 10.74846,40.9785 10.74846,40.9785 0,0 -0.084,-9.15298 1.42753,-13.35161 7.30559,18.30598 23.09238,24.10007 23.09238,24.10007 z"
       id="path3993"
       inkscape:connector-curvature="0"
       sodipodi:nodetypes="cccccsssccsssccsccsssccccc" />
    <path
       style="fill:url(#radialGradient3329);fill-opacity:1;stroke:none;stroke-width:1.06666672"
       d="m 151.40206,610.34562 c 0,0 -1.34355,-39.63494 13.43557,-69.86498 14.77913,-30.23005 52.39873,-41.65028 52.39873,-41.65028 -24.85581,33.92482 -22.84047,61.13186 -22.84047,61.13186 0,0 21.49693,-24.18404 55.08586,-34.26072 -19.14569,21.16103 -17.46625,39.63495 -17.46625,39.63495 0,0 19.14569,-27.54294 62.47542,-36.94783 -16.45858,19.81746 -12.09202,36.27604 -12.09202,36.27604 0,0 12.7638,-16.79446 33.92482,-19.48158 -6.046,14.10735 11.08435,26.87115 11.08435,26.87115 0,0 12.09203,-9.40489 32.24539,-6.38189 -21.16103,12.09201 -18.80981,31.2377 -18.80981,31.2377 0,0 -18.13803,-13.43557 -44.3374,-10.07667 -26.19936,3.35889 -57.77296,22.1687 -57.77296,22.1687 0,0 -2.68711,-12.42792 13.43557,-31.57361 -22.84048,4.36657 -51.72697,32.24537 -59.78831,58.44476 0,0 -5.03833,-12.7638 0.67179,-28.5506 -10.41257,16.45859 -17.46625,49.37573 -17.46625,49.37573 0,0 -19.1457,-46.68862 -4.36656,-93.71313 -12.4279,16.79447 -19.81747,47.3604 -19.81747,47.3604 z"
       id="path3997"
       inkscape:connector-curvature="0"
       sodipodi:nodetypes="csccccccccccsccccccc" />
    <path
       style="fill:url(#linearGradient3326);fill-opacity:1;stroke:none;stroke-width:1.06666672"
       d="m 340.84365,746.04493 c 0,0 10.41256,-36.61195 36.27605,-54.41408 -6.38189,15.4509 -1.34356,26.87114 -1.34356,26.87114 0,0 1.67945,-11.42024 11.75613,-21.49692 -5.37423,17.13035 1.67944,38.96316 1.67944,38.96316 0,0 19.1457,-46.35272 55.08586,-61.13186 -5.03835,13.77146 5.37423,20.82513 5.37423,20.82513 14.10735,-60.12419 75.91098,-111.85114 97.4079,-118.23304 -14.44324,34.9325 2.01534,65.16254 2.01534,65.16254 0,0 -2.01532,-38.29139 11.75614,-57.43708 -3.69479,31.57359 1.62471,47.19041 9.74078,56.76529 5.50349,-7.88206 8.39725,-28.88646 8.39725,-28.88646 13.89431,21.37586 8.39722,50.38338 8.39722,50.38338 l -32.91716,79.94167 -139.05818,32.91717 z"
       id="path3999"
       inkscape:connector-curvature="0"
       sodipodi:nodetypes="cccccccccccccccc" />
    <path
       style="fill:#000000;stroke:#000000;stroke-width:6.65026999;stroke-linecap:butt;stroke-linejoin:miter;stroke-miterlimit:4;stroke-dasharray:none;stroke-opacity:1"
       d="m 286.09369,765.8624 c 0,0 24.68787,-16.12271 39.63494,-21.49694 14.94707,-5.37423 51.18301,-9.59325 60.46008,-7.05367 7.78309,2.1306 17.07068,8.29826 25.02726,19.2237 l 44.66978,-11.66619 c 0,0 5.45019,-19.88148 12.93174,-28.55059 l -16.467,-49.48606 c -8.55035,-1.18753 -21.04618,-3.05482 -28.24703,-9.78646 -6.22239,-5.81695 -8.27848,-12.38512 -7.68471,-21.17297 0,0 -9.80191,-8.27004 -9.13014,-16.66729 0.67178,-8.39723 7.39306,-15.12346 7.39306,-15.12346 0,0 -6.51752,-6.40721 -5.74737,-15.28295 0.55852,-6.43679 2.78201,-12.88256 12.69073,-17.58501 9.90875,-4.70246 32.42962,-5.09453 45.84891,-1.17562 0,0 2.35121,-17.46624 8.90107,-25.02375 6.54983,-7.55752 18.30597,-16.12269 25.35965,-13.77146 7.05367,2.35122 15.78679,6.71778 15.115,15.95474 -0.67176,9.23696 -3.35889,18.64186 -8.22928,24.18403 -4.87039,5.54217 -9.7408,11.75613 -9.57285,17.6342 0.16795,5.87805 11.42025,23.68019 11.58819,30.39798 0.16795,6.71779 -6.04601,29.89415 -6.04601,29.89415 l 23.84815,34.09277 c 0,0 3.19094,0 5.87807,3.02302 2.6871,3.02299 7.89338,12.59585 12.59585,15.115 4.70244,2.51918 10.58051,3.52684 10.58051,3.52684 0,0 2.85505,-6.71778 7.89338,-8.73312 5.03836,-2.01534 9.90875,-0.83971 12.25998,-1.1756 2.35121,-0.3359 9.90873,-1.00768 9.90873,-1.00768 l -1.67945,-15.45091 c 0,0 -10.58051,-12.76379 -8.73312,-20.32131 1.8474,-7.55751 6.71778,-16.12269 31.74154,-19.48158 0,0 -15.11501,-17.80213 -19.31363,-25.35964 -4.19863,-7.55752 -7.47355,-18.72583 -7.72546,-29.22238 l -4.03068,3.69478 c 0,0 -1.09163,-18.38993 1.25959,-27.12305 2.27037,-8.43284 9.82476,-17.04639 9.82476,-17.04639 l -7.55749,3.52684 c 0,0 2.18326,-12.59585 10.24462,-19.64953 8.06133,-7.05367 21.16102,-12.4279 21.16102,-12.4279 0,0 -0.16795,-17.97008 3.69478,-32.24538 3.86273,-14.2753 11.92407,-25.86349 13.43559,-30.90182 1.5115,-5.03835 -4.36657,-26.19937 -14.44324,-36.444 -10.0767,-10.24463 -29.22238,-22.00075 -30.23006,-25.86348 -1.00766,-3.86273 -1.34356,-9.23696 2.68712,-11.42024 4.03068,-2.18328 13.09969,-2.85505 19.31363,-1.17561 6.21397,1.67945 55.92558,15.61885 64.49076,15.11502 8.56519,-0.50383 45.00917,-16.45858 51.05519,-19.48158 6.046,-3.02301 40.64261,-6.54984 54.41408,-2.51917 13.77145,4.03067 46.35272,16.79447 46.35272,16.79447 0,0 -0.83972,-12.09202 3.023,-19.31365 3.86273,-7.22162 5.54217,-12.4279 8.90108,-11.75612 3.35889,0.67177 6.21395,3.69478 6.046,9.06901 -0.16795,5.37423 -1.34356,6.54984 -0.33589,10.58052 1.00767,4.03067 10.58052,35.43632 10.58052,35.43632 0,0 11.58818,16.96241 13.43557,27.54292 1.84738,10.58053 5.03834,28.21471 1.67945,43.49768 -3.3589,15.28296 -17.97008,73.89566 -17.97008,73.89566 0,0 7.5575,2.35123 10.9164,7.22162 3.35889,4.87039 10.29855,10.87006 10.41257,22.33665 0.10693,10.75316 -5.20628,25.86347 -8.90107,31.06975 -3.69478,5.20628 -8.90106,14.44324 -12.59585,18.80981 -3.69478,4.36655 -16.79446,12.59585 -24.18403,14.44325 -7.38957,1.84739 -17.13036,4.1986 -17.13036,4.1986 0,0 -18.64185,15.28297 -25.86347,19.4816 -7.22163,4.1986 -32.74923,12.76377 -45.00919,12.76377 -12.25996,0 -28.38264,-4.70244 -28.38264,-4.70244 l -18.47392,-2.51916 c 0,0 -1.5115,7.22163 -8.90107,11.42023 -7.38957,4.19862 -15.11501,6.21396 -15.11501,6.21396 0,0 -1.34357,3.023 -4.03068,5.71012 -2.68712,2.68711 -6.38189,5.20629 -6.38189,5.20629 0,0 2.51916,7.89338 7.5575,11.08435 5.03835,3.19094 13.43558,4.70244 26.36733,2.85505 12.93173,-1.84739 53.4064,-5.54218 53.4064,-5.54218 0,0 6.2962,-3.92128 13.77145,-3.61081 7.21736,0.29975 14.61119,4.36657 17.97008,10.49654 l 62.47543,-0.67176 c 0,0 8.90106,-4.03068 15.45091,-3.86274 6.54984,0.16795 18.8098,3.023 24.51992,2.01534 5.71012,-1.00768 28.71854,-3.69478 32.74921,-3.19096 4.03068,0.50384 15.45091,6.04601 15.45091,6.04601 0,0 30.23004,-4.53449 37.45166,-5.37423 7.22162,-0.83971 16.45858,2.51918 18.97776,7.38957 2.51916,4.87039 2.18328,13.77146 -1.84739,16.96242 -4.03068,3.19095 -21.83281,11.25228 -28.38266,12.09201 -6.54984,0.83972 -13.93941,2.35124 -13.93941,2.35124 0,0 4.70245,3.35889 4.03068,9.90872 -0.67178,6.54984 -1.34356,16.29064 -5.03834,22.00076 -3.69478,5.71012 -11.2523,10.41256 -19.31364,11.2523 -8.06135,0.83971 -19.31364,-3.02302 -19.31364,-3.02302 0,0 -12.59586,1.5115 -20.65719,-0.50382 -8.06135,-2.01534 -33.92483,-22.33665 -33.92483,-22.33665 l -62.64336,-2.51918 c 0,0 -16.54255,28.88649 -30.81785,34.76456 -14.27529,5.87807 -28.97979,1.71078 -38.62728,-0.16795 -15.95474,-3.10697 -48.61997,-11.42025 -48.61997,-11.42025 -2.93904,18.55789 -29.22238,59.95626 -29.22238,59.95626 0,0 8.06134,-2.18329 12.25996,1.34355 4.19862,3.52685 9.23696,12.7638 9.23696,12.7638 23.26034,-8.39723 43.32973,-9.74078 43.32973,-9.74078 0,0 10.89602,-26.33502 18.28559,-31.20541 7.38955,-4.8704 29.02902,-10.77171 40.9149,-9.60515 9.10905,0.89403 27.79485,7.05368 27.79485,7.05368 0,0 -1.8474,-25.69554 1.67944,-32.24539 3.52684,-6.54984 14.10735,-14.61117 20.82514,-15.61885 6.71778,-1.00766 17.04639,0.50382 22.92445,4.95437 3.52684,-0.92369 8.86316,-0.40146 13.85544,1.59547 4.19861,1.67946 8.90106,5.4582 11.00037,10.24464 0,0 7.64148,0.67176 10.49654,5.03833 2.85506,4.36655 8.90106,17.46624 8.90106,32.91714 0,15.45093 -2.86088,47.41467 -5.87805,62.13955 -3.51344,17.14678 -17.46625,45.34506 -32.07744,50.71929 -14.61118,5.37423 -22.67253,4.53451 -30.06209,3.19094 -7.38957,-1.34355 -20.65719,-11.42024 -20.65719,-11.42024 0,0 -18.57942,35.21451 -28.88649,49.54369 -17.68313,24.58355 -44.50533,33.25305 -64.82665,35.43635 -15.61899,1.678 -24.18403,-1.6795 -31.5736,-10.4126 0,0 -121.92784,-23.34431 -135.02753,-24.68786 -13.09967,-1.34356 -97.23995,-17.46625 -107.48458,-20.82514 -10.24462,-3.3589 -22.50458,-14.27531 -22.50458,-14.27531 0,0 -14.77913,2.35124 -54.91792,-3.52683 -40.13877,-5.87806 -50.96365,-18.07663 -63.98691,-34.5966 -13.31333,-16.8879 -15.90906,-25.6021 -15.90906,-25.6021 0,0 -7.93909,1.08217 -16.50427,-4.29205 -8.56518,-5.37423 -15.95475,-16.29064 -15.95475,-16.29064 0,0 -19.81747,12.7638 -36.27605,12.4279 -16.45857,-0.33588 -23.53757,-14.307 -26.03141,-24.51991 0,0 -6.21396,-3.19094 -7.89341,-13.26764 -1.67945,-10.07667 0.67179,-14.94707 0.67179,-14.94707 0,0 -5.85421,-8.22434 -2.98226,-17.20341 3.22696,-10.08902 7.94259,-13.37446 15.33214,-16.73335 7.38957,-3.35889 30.97984,-4.35462 45.08719,-10.06474 14.10735,-5.71013 41.81822,-18.97774 49.87957,-20.15337 8.06134,-1.1756 19.98542,3.02302 19.98542,3.02302 z"
       id="path3991"
       inkscape:connector-curvature="0"
       sodipodi:nodetypes="cssccccscscsscssssssccsscssccscsccsccscssssssssscsssscsscssssscssccscscsscsccssscsssscssscsccssccsccsscsscscssssscsscsscsscscscscssssc" />
    <path
       style="fill:#d27c0d;fill-opacity:1;stroke:none;stroke-width:1.06666672"
       d="m 618.01823,515.49455 c 9.90874,-2.35123 41.55224,2.7398 69.9262,17.3909 0,0 -0.0985,-66.75216 28.6403,-90.97814 28.73865,-24.22598 49.6395,-12.3505 55.10222,-7.6003 5.46272,4.7502 17.81323,20.90084 17.3382,48.92697 -0.47501,28.02615 -3.59144,50.19689 -3.59144,50.19689 l 16.4816,2.05114 c 0,0 10.62331,-52.72304 20.83622,-65.07353 10.21292,-12.35052 21.62659,-11.39857 25.41353,-8.07534 11.63797,10.21292 11.40047,20.18832 11.16296,37.0515 0,0 7.3628,-38.47655 3.08763,-51.7771 -4.27518,-13.30053 -9.1053,-28.83424 -21.8509,-42.0392 -18.08173,-18.73341 -50.11453,-29.21368 -72.91545,-30.63875 -22.80093,-1.42506 -39.4266,-1.18755 -56.76482,7.60032 -17.3382,8.78785 -29.45118,14.48807 -38.71406,14.25057 -9.26287,-0.23751 -44.41431,-8.55035 -52.48962,-11.63797 -8.07534,-3.08763 -27.07612,-6.41277 -29.68871,-0.95004 -2.61261,5.46272 2.61259,5.93774 9.26286,10.92544 6.65028,4.9877 19.95082,13.77557 25.17603,23.75098 5.22522,9.9754 10.92545,23.98846 9.73791,32.53881 -1.18756,8.55034 -7.87268,14.1816 -12.11301,27.25598 -2.85011,8.78785 -3.80015,20.44271 -4.03765,36.83087 z"
       id="path3131"
       inkscape:connector-curvature="0"
       sodipodi:nodetypes="ccsssccsscsssssssssssc" />
    <path
       style="fill:#d27c0d;fill-opacity:1;stroke:none;stroke-width:1.06666672"
       d="m 829.04554,391.55526 c 0,0 -1.78134,-9.26287 -0.35627,-14.84434 1.42506,-5.58148 3.6814,-15.31938 6.76902,-15.43813 3.08763,-0.11877 1.30631,10.56917 2.01884,14.13182 0.71252,3.56265 7.12529,23.51345 9.97539,32.30132 -7.24404,-10.92545 -18.40698,-16.15067 -18.40698,-16.15067 z"
       id="path3141"
       inkscape:connector-curvature="0"
       sodipodi:nodetypes="cssscc" />
    <path
       style="fill:#000000;stroke:none;stroke-width:1.06666672"
       d="m 720.02861,382.58927 c 0,0 -0.30143,-12.02241 4.39392,-22.14776 7.58454,-16.35571 23.27594,-22.0884 30.04498,-23.03843 -9.38163,11.2817 -11.0442,20.42583 -11.51921,24.81975 11.87548,-10.56918 30.14449,-17.05576 41.08915,-18.05073 11.75673,-1.06879 40.37665,1.06879 44.05806,10.2129 -13.77556,-3.44388 -23.27595,5.22522 -26.71984,8.19408 11.04419,0.71254 18.99567,5.29941 25.65104,13.41931 5.42273,6.616 9.85665,15.08187 12.58801,24.10722 -19.95082,-7.83782 -24.34474,-6.17525 -28.50116,-6.41276 14.13183,8.4316 9.97541,22.14777 8.07534,26.66045 -10.45045,-14.36933 -99.16029,-37.76403 -99.16029,-37.76403 z"
       id="path3135"
       inkscape:connector-curvature="0"
       sodipodi:nodetypes="csccsccscccc" />
    <path
       style="fill:url(#linearGradient3319);fill-opacity:1;stroke:none;stroke-width:1.06666672"
       d="m 721.80993,383.71745 c 0,0 4.9877,-30.87624 21.37587,-37.05151 -7.12528,12.35052 -5.93775,24.4635 -5.93775,24.4635 0,0 32.30133,-30.16372 75.29057,-20.18832 -17.10069,6.65027 -28.73867,23.03844 -28.73867,23.03844 l 12.11298,-7.36279 c 30.16372,-0.23751 37.28902,27.78862 37.28902,27.78862 0,0 -21.85088,-8.55035 -35.15142,-4.7502 26.60108,11.87549 19.23827,23.98847 19.23827,23.98847 0,0 -10.21291,-9.26287 -19.23827,-7.3628 0,0 -27.19241,2.22504 -42.27673,-1.18755 -8.22637,-1.86109 -25.23433,-11.96258 -33.96387,-21.37586 z"
       id="path3133"
       inkscape:connector-curvature="0"
       sodipodi:nodetypes="ccccccccccsc" />
    <path
       style="fill:#000000;stroke:none;stroke-width:1.06666672"
       d="m 601.5113,388.11138 c 0,0 0.71254,4.51268 2.25635,6.17524 1.5438,1.66257 6.41276,4.03768 6.41276,4.03768 0,0 12.46925,30.16372 15.67562,35.27017 3.20639,5.10646 11.75674,18.407 20.06958,20.66334 8.31283,2.25634 14.31498,-0.12169 17.3382,-5.10646 2.2277,-3.67311 3.21576,-10.21673 10e-6,-17.81321 -3.79982,-8.97617 -20.4067,-20.20339 -28.85744,-25.7698 -9.58706,-6.31489 -23.83374,-14.02099 -32.89508,-17.45696 z"
       id="path3137"
       inkscape:connector-curvature="0"
       sodipodi:nodetypes="cscsssssc" />
    <path
       style="fill:url(#linearGradient3315);fill-opacity:1;stroke:none;stroke-width:1.06666672"
       d="m 615.40561,400.10562 c 0,0 18.99056,9.45801 28.50116,17.3382 8.31285,6.88779 16.50693,12.82551 16.86318,23.27595 0.25478,7.47342 -4.27517,10.45042 -9.85664,9.73789 -5.58148,-0.71253 -12.20768,-4.08185 -19.00077,-13.65681 -6.29794,-8.877 -16.50693,-36.69523 -16.50693,-36.69523 z"
       id="path3139"
       inkscape:connector-curvature="0"
       sodipodi:nodetypes="cssssc" />
    <path
       style="fill:url(#radialGradient3312);fill-opacity:1;stroke:none;stroke-width:1.06666672"
       d="m 669.55782,529.78588 c 0,0 -35.38895,-13.30055 -50.11455,-11.16295 -14.72558,2.13758 -28.73372,15.0516 -31.92467,22.10527 6.3819,-3.35889 13.87395,-3.81702 13.87395,-3.81702 -19.64952,17.13035 -19.7133,29.92621 -19.7133,29.92621 0,0 2.74679,-3.64415 5.93773,-4.9877 -6.88573,11.42024 -5.70022,16.86317 -5.70022,16.86317 0,0 2.09188,-2.34628 4.27517,-2.85011 -1.17561,8.73312 -1.18755,19.47579 3.08762,28.02614 4.27518,8.55034 21.0688,33.07146 31.51922,40.67177 10.45042,7.6003 50.19434,29.19186 84.79095,33.72637 0,0 -7.52582,-4.89137 -10.38087,-13.12065 7.72546,6.88573 17.14535,14.2837 34.38622,15.35662 18.71871,1.16488 46.71609,-4.39163 71.06806,-27.2321 l -3.56265,-0.95005 c 0,0 -18.05073,15.43813 -22.5634,14.7256 -4.51269,-0.71253 -8.78786,-2.3751 -8.78786,-2.3751 -3.86273,3.69478 -31.11376,12.113 -37.76404,8.78786 -6.65026,-3.32513 -14.7256,-9.50038 -17.57571,-18.76326 -2.85012,-9.26287 -1.66257,-24.22599 -1.66257,-24.22599 0,0 -9.26287,-10.45041 -11.87548,-19.9508 -2.61261,-9.50039 -2.37509,-19.95081 -2.37509,-19.95081 -6.04602,-0.16794 -14.01308,3.08763 -14.01308,3.08763 0,0 -1.43985,-2.28007 0.82779,-4.66376 1.92147,-2.0198 9.39669,-4.35017 16.02347,-4.16485 6.66724,0.18643 12.4062,1.7094 14.10651,3.29631 1.72735,1.61217 2.05608,4.81975 2.05608,4.81975 0,0 -8.52853,-2.73979 -13.23098,-2.73979 0,0 -2.53699,15.39698 1.98406,25.33945 5.1868,11.40661 17.60981,19.53339 26.68504,24.071 9.97541,4.9877 28.97315,8.12149 40.73539,5.65949 11.73634,-2.4566 23.98598,-8.15335 32.41758,-20.26633 0,0 0.11878,3.14405 -0.95004,4.75018 -1.17688,1.76858 -9.50038,9.9754 -9.50038,9.9754 0,0 2.85011,6.17526 8.07533,7.60032 5.2252,1.42506 18.52575,0.23751 23.51345,-1.66257 4.9877,-1.90007 24.22598,-10.45042 27.0761,-19.00077 2.85012,-8.55035 3.31974,-22.46588 0.4462,-30.01266 -3.80015,-9.98035 -12.7967,-23.66452 -22.05958,-29.12724 -9.26287,-5.46272 -28.97617,-13.30053 -28.97617,-13.30053 l 5.67141,-34.909 -1.65113,-5.07908 -3.3306,7.60074 -2.15497,-7.26237 -2.23896,4.74566 -2.071,-6.59059 -2.57484,6.76101 -0.89539,-8.01812 -2.99471,6.17321 c 0,0 -1.77289,12.11504 -5.57304,20.42787 -3.80015,8.31284 -8.31284,15.91315 -17.57571,19.7133 -9.26288,3.80015 -24.47253,2.73281 -35.38894,-2.13758 3.35889,3.35889 3.07074,7.58838 3.07074,7.58838 -23.63974,-23.18204 -49.47622,-29.49472 -70.96967,-28.46536 z"
       id="path3143"
       inkscape:connector-curvature="0"
       sodipodi:nodetypes="csccccccssccsccscsscsccsssccssscscsssssccccccccccsscccc" />
    <path
       style="fill:url(#linearGradient3309);fill-opacity:1;stroke:none;stroke-width:1.06666672"
       d="m 691.00831,532.92313 c 0,0 24.35197,6.88572 36.61192,19.64952 0,0 22.67253,9.74079 33.58893,5.71011 10.91641,-4.03066 16.62653,-13.60352 19.4816,-21.83281 2.85505,-8.22928 4.40632,-25.84255 5.03834,-46.85655 0.71205,-23.67485 -5.87806,-56.26147 -30.56593,-57.77297 -31.10038,-1.90411 -45.68096,21.16103 -52.06285,35.77221 -5.16564,11.82663 -11.58818,31.23772 -12.09201,65.33049 z"
       id="path3145"
       inkscape:connector-curvature="0"
       sodipodi:nodetypes="ccsssssc" />
    <path
       style="fill:url(#linearGradient3306);fill-opacity:1;stroke:none;stroke-width:1.06666672"
       d="m 802.01974,552.90853 c 0,0 5.37422,-34.42866 11.58817,-52.90257 6.21397,-18.47391 11.58819,-31.74153 20.99309,-35.10043 9.4049,-3.3589 14.44323,1.5115 17.13035,6.54984 2.68711,5.03834 6.41063,15.67212 4.87039,28.38265 -1.81348,14.96555 -13.43556,55.92557 -13.43556,55.92557 0,0 -11.5882,-1.51149 -19.81748,4.36658 0,0 -10.24461,-4.03068 -21.32896,-7.22164 z"
       id="path3147"
       inkscape:connector-curvature="0"
       sodipodi:nodetypes="cssssccc" />
    <path
       sodipodi:nodetypes="cccccc"
       inkscape:connector-curvature="0"
       id="path4031"
       d="m 832.83757,508.15129 c 7.22162,8.90106 3.07149,36.22626 -1.26307,48.33925 -3.00932,0.60644 -5.7486,2.17011 -8.16281,3.68162 -3.58982,-1.00767 -5.77311,-2.64512 -10.39159,-3.23293 6.38189,-6.04601 11.58819,-23.93213 5.71014,-38.71126 z"
       style="fill:url(#linearGradient3303);fill-opacity:1;stroke:none;stroke-width:1.06666672" />
    <path
       style="fill:url(#radialGradient3300);fill-opacity:1;stroke:none;stroke-width:1.06666672"
       d="m 826.20377,561.64166 c 9.90874,4.70245 18.4739,16.96241 22.00074,22.33664 6.98473,10.64341 8.90107,18.80981 7.38957,33.0851 6.38189,-9.23696 11.42023,-24.35198 10.74847,-31.5736 -0.67179,-7.22162 -10.97987,-23.59747 -18.30598,-25.19169 -7.65363,-1.66549 -14.08116,-0.15522 -21.8328,1.34355 z"
       id="path3149"
       inkscape:connector-curvature="0"
       sodipodi:nodetypes="cscssc" />
    <path
       style="fill:url(#linearGradient3297);fill-opacity:1;stroke:none;stroke-width:1.06666672"
       d="m 762.3848,648.88893 -1.8474,7.8934 c 5.20628,5.54217 15.19899,7.47353 15.19899,7.47353 0,0 13.01572,-7.22162 18.72583,-14.52722 0,0 -5.54218,-5.12231 -5.62615,-8.56517 -2.60315,2.01534 -12.76379,7.05367 -26.45127,7.72546 z"
       id="path3151"
       inkscape:connector-curvature="0"
       sodipodi:nodetypes="cccccc" />
    <path
       style="fill:url(#linearGradient3294);fill-opacity:1;stroke:none;stroke-width:1.06666672"
       d="m 758.35411,648.637 c 0,0 -0.50384,5.03835 -2.01534,8.73313 1.8474,3.023 5.03835,4.19861 5.03835,4.19861 0,0 -16.79446,6.7178 -26.36732,6.38191 -9.57284,-0.3359 -17.97008,-6.88573 -19.81747,-13.43559 -1.84739,-6.54983 -1.76341,-20.74116 -1.76341,-20.74116 0,0 9.85448,7.83191 16.66131,10.09954 14.60479,4.86544 28.26388,4.76356 28.26388,4.76356 z"
       id="path3153"
       inkscape:connector-curvature="0"
       sodipodi:nodetypes="cccsscsc" />
    <path
       style="fill:#af670b;fill-opacity:1;stroke:none;stroke-width:1.06666672"
       d="m 618.4562,646.95755 c 0,5.71012 -3.44883,12.84531 -3.44883,12.84531 11.1641,0.60046 22.42658,-1.76094 22.42658,-1.76094 0,0 -11.58818,-3.86275 -18.97775,-11.08437 z"
       id="path3155"
       inkscape:connector-curvature="0"
       sodipodi:nodetypes="cccc" />
    <path
       style="fill:#000000;stroke:none;stroke-width:1.06666672"
       d="m 788.08032,574.23751 c -4.13578,6.0735 15.38546,39.00715 22.50459,39.63495 8.21283,0.72424 20.65719,-25.02376 20.82514,-28.21471 0.16794,-3.19096 -8.47353,-12.65934 -16.62652,-14.77913 -8.39724,-2.18328 -23.31373,-1.61864 -26.70321,3.35889 z"
       id="path3157"
       inkscape:connector-curvature="0"
       sodipodi:nodetypes="sssss" />
    <path
       style="fill:#000000;stroke:none;stroke-width:1.06666672"
       d="m 745.75827,470.27975 c 2.51917,-6.21395 7.22161,-12.59585 13.9394,-12.25995 6.7178,0.33589 10.41256,7.05367 10.41256,7.05367 0,0 -6.046,-3.35888 -10.5805,-3.35888 -4.53451,0 -13.77146,8.56516 -13.77146,8.56516 z"
       id="path3159"
       inkscape:connector-curvature="0"
       sodipodi:nodetypes="cscsc" />
    <path
       style="fill:#000000;stroke:none;stroke-width:1.06666672"
       d="m 772.79735,536.61791 c 0,0 4.36658,-26.70321 -1.84738,-35.26838 -6.21396,-8.56519 -18.47392,-7.38957 -25.35966,-1.67946 -6.88572,5.71012 -12.59585,15.28298 -15.115,23.34431 -2.51918,8.06135 -3.69479,29.72621 -3.69479,29.72621 l 3.35889,1.34356 c 0,0 -0.75865,-23.38066 5.54218,-35.60427 8.39723,-16.29064 16.29063,-20.65718 23.34431,-20.15336 7.05367,0.50384 10.89815,3.69925 12.59585,10.58051 2.15622,8.7398 1.1756,27.71088 1.1756,27.71088 z"
       id="path3161"
       inkscape:connector-curvature="0"
       sodipodi:nodetypes="csssccsssc" />
    <path
       style="fill:url(#linearGradient3287);fill-opacity:1;stroke:none;stroke-width:1.06666672"
       d="m 768.93462,504.54047 c 7.22163,8.90107 1.51151,47.52834 1.51151,47.52834 -6.38188,5.87807 -13.26762,7.89341 -22.50458,6.7178 6.38188,-6.04601 12.76379,-29.39032 6.88574,-44.16946 z"
       id="path4021"
       inkscape:connector-curvature="0"
       sodipodi:nodetypes="ccccc" />
    <ellipse
       style="fill:#800000;fill-opacity:1;stroke:none;stroke-width:1.48443401"
       id="path3163"
       transform="rotate(18.195448)"
       cx="869.28571"
       cy="266.27164"
       rx="5.8105812"
       ry="10.121657" />
    <path
       style="fill:#000000;stroke:none;stroke-width:1.06666672"
       d="m 730.72721,554.33606 c 0,0 0,-26.95511 5.03834,-35.35235 5.03835,-8.39724 12.84777,-7.38956 15.95475,-6.3819 3.10697,1.00768 8.9436,6.45638 9.32094,15.45093 0.35211,8.39361 -4.18441,18.35964 -7.13765,23.51225 -2.68334,4.68166 -6.21396,7.47354 -6.21396,7.47354 0,0 -12.59585,-2.09932 -16.96242,-4.70247 z"
       id="path3165"
       inkscape:connector-curvature="0"
       sodipodi:nodetypes="csssscc" />
    <path
       style="fill:url(#linearGradient3282);fill-opacity:1;stroke:none;stroke-width:1.06666672"
       d="m 732.82653,553.9162 c 0,0 5.62614,2.85506 12.84776,3.52684 0,0 6.38191,-4.11463 10.41257,-14.69515 2.7711,-7.27416 3.10699,-12.84776 2.18328,-17.55023 -0.92369,-4.70244 -3.52683,-9.82475 -7.64148,-10.74845 -4.11465,-0.9237 -8.56517,-0.25191 -12.09202,3.9467 -3.52103,4.19172 -4.19862,12.17598 -4.95437,17.13036 -0.75575,4.95437 -0.75574,18.38993 -0.75574,18.38993 z"
       id="path3167"
       inkscape:connector-curvature="0"
       sodipodi:nodetypes="ccsssssc" />
    <ellipse
       transform="matrix(0.94218507,0.33509297,-0.23475874,0.97205367,0,0)"
       id="path3939"
       style="fill:#1a1a1a;fill-opacity:1;stroke:none;stroke-width:1.92710626"
       cx="855.0011"
       cy="260.27176"
       rx="7.3658609"
       ry="13.456658" />
    <ellipse
       transform="matrix(0.94604241,0.32404283,-0.3008146,0.95368264,0,0)"
       id="path3169"
       style="fill:#ffffff;fill-opacity:1;stroke:none;stroke-width:1.23507249"
       cx="866.2804"
       cy="255.52312"
       rx="4.7549787"
       ry="8.5622072" />
    <path
       sodipodi:nodetypes="csssscc"
       inkscape:connector-curvature="0"
       id="path3941"
       d="m 802.10205,553.99646 c 0,0 1.2637,-24.97925 6.70152,-33.11583 5.43784,-8.13656 13.08891,-7.16016 16.09922,-6.18378 3.01034,0.9764 6.68693,5.66219 6.56057,14.37751 -0.11785,8.13305 -3.3662,18.38351 -6.56638,23.37617 -2.90771,4.53632 -6.84568,6.67198 -6.84568,6.67198 0,0 -11.78432,-2.60372 -15.94925,-5.12605 z"
       style="fill:#000000;stroke:none;stroke-width:1.06666672" />
    <path
       sodipodi:nodetypes="ccsssssc"
       inkscape:connector-curvature="0"
       id="path3943"
       d="m 804.1691,553.45214 c 0,0 5.97709,1.84607 12.56067,4.15957 0,0 4.64153,-3.21501 9.07133,-13.46708 3.0455,-7.04835 3.66712,-13.39898 3.03549,-17.95545 -0.63162,-4.55647 -1.78039,-8.80726 -5.67154,-9.70229 -3.89117,-0.89502 -8.18986,-0.2441 -11.7937,3.8242 -3.5979,4.06158 -4.67652,11.79802 -5.66698,16.5986 -0.99043,4.80057 -1.53527,16.54245 -1.53527,16.54245 z"
       style="fill:url(#linearGradient3276);fill-opacity:1;stroke:none;stroke-width:1.06666672" />
    <ellipse
       style="fill:#000000;fill-opacity:1;stroke:none;stroke-width:1.77422309"
       id="path3945"
       transform="matrix(0.93495449,0.35476766,-0.34547477,0.93842804,0,0)"
       cx="952.52191"
       cy="216.48372"
       rx="6.4757795"
       ry="12.973996" />
    <ellipse
       style="fill:#ffffff;fill-opacity:1;stroke:none;stroke-width:1.21605408"
       id="path3947"
       transform="matrix(0.94723237,0.32054772,-0.35808413,0.93368932,0,0)"
       cx="950.57483"
       cy="237.14967"
       rx="4.6576104"
       ry="8.4740705" />
    <path
       sodipodi:nodetypes="cscsc"
       inkscape:connector-curvature="0"
       id="path3951"
       d="m 838.64635,488.35042 c 0.23015,-4.43329 -0.93342,-9.21903 -5.48226,-9.73313 -4.54884,-0.51409 -9.04566,3.57284 -9.04566,3.57284 0,0 5.02732,-1.58172 8.02856,-1.08306 3.00123,0.49865 6.49936,7.24335 6.49936,7.24335 z"
       style="fill:#000000;stroke:none;stroke-width:1.06666672" />
    <path
       style="fill:#dee03a;fill-opacity:1;stroke:none;stroke-width:1.06666672"
       d="m 613.66977,643.09484 c 0,0 1.09165,4.1986 0.33589,7.64148 -0.75574,3.44285 -3.27492,8.98502 -3.27492,8.98502 0,0 -5.67153,0.76131 -13.68749,-8.14531 1.00942,6.23463 6.12998,10.07668 10.74846,10.83244 4.61848,0.75575 36.19209,-1.42753 36.19209,-1.42753 16.62567,10.56917 42.74192,15.78679 42.74192,15.78679 -8.07533,17.69447 -29.56713,17.66055 -38.71126,16.71051 7.00654,3.6814 13.44752,2.83715 13.44752,2.83715 -10.33168,15.55689 -38.69357,16.82794 -38.69357,16.82794 0,0 18.52574,1.18753 28.61991,-3.20639 3.29289,5.12226 6.11494,12.426 15.20062,15.7944 5.25875,1.94962 60.62645,-3.28413 77.0525,-5.48494 6.56075,-0.87903 12.21008,-6.76268 20.26532,0.2766 -15.41978,5.85684 -39.30436,49.86815 -40.66152,65.61151 -0.9675,11.22319 3.87117,15.33216 8.23773,14.66037 4.36657,-0.67178 11.98314,-6.01515 17.80213,-12.4279 -7.60032,4.9877 -15.23129,9.58951 -18.38026,9.04369 -3.14896,-0.54582 -4.49912,-6.2589 -3.9395,-11.35293 0.50232,-4.57249 2.47864,-9.23368 4.97248,-14.81516 22.80092,-0.2375 43.54931,-0.50319 43.54931,-0.50319 -7.95659,14.25059 -22.32592,29.80748 -33.01386,33.37011 -10.68794,3.56265 -50.7083,-5.70022 -83.60339,-15.43812 -6.76902,31.35128 -31.47002,67.69025 -31.47002,67.69025 -13.18178,2.96888 -23.1572,3.32514 -23.1572,3.32514 0,0 11.53097,-42.0379 11.87549,-82.89088 0.28559,-33.8661 -11.00797,-75.67416 -20.78108,-79.72171 -7.6003,-9.97542 -3.68241,-15.99467 -3.68241,-15.99467 8.19408,3.56264 20.66332,1.66257 20.66332,1.66257 0,0 -23.21656,-1.72194 -28.50115,-17.10069 -3.12577,-9.09633 -0.31077,-19.99333 29.85294,-22.54655 z"
       id="path3953"
       inkscape:connector-curvature="0"
       sodipodi:nodetypes="csccsccccccsscsscssccscccscccsc" />
    <path
       style="fill:#d32b2b;fill-opacity:1;stroke:none;stroke-width:1.06666672"
       d="m 562.67847,704.71172 c 0,0 1.26956,-4.06808 6.76903,-5.34397 7.42216,-1.72194 18.88203,5.93775 18.88203,5.93775 0,0 -2.31574,-5.40335 -7.36282,-6.65027 3.08764,-1.00942 8.01596,-1.24693 10.68795,0.11878 3.79057,1.9374 7.70789,5.82288 10.68792,14.36934 5.2994,15.19815 10.7454,41.78885 9.9754,63.17757 -1.06879,29.68869 -3.67367,61.27487 -12.70676,83.36587 -10.85862,26.5555 -30.51999,43.108 -37.0515,48.45197 -6.53152,5.34397 -16.62567,13.06303 -23.51345,11.51921 -6.88778,-1.5438 -17.33821,-12.82551 -15.31937,-27.07609 2.01883,-14.25058 24.10722,-44.65182 29.80745,-54.62722 5.70024,-9.97541 19.38325,-42.11434 22.56342,-59.73367 3.63338,-20.13024 0.11877,-57.23983 -2.85012,-65.55267 -2.96887,-8.31283 -10.56918,-7.95657 -10.56918,-7.95657 z"
       id="path3957"
       inkscape:connector-curvature="0"
       sodipodi:nodetypes="csccssssssssssc" />
    <path
       style="fill:url(#linearGradient3268);fill-opacity:1;stroke:none;stroke-width:1.06666672"
       d="m 565.25373,822.89615 c 0,0 -12.11299,26.36357 -19.71331,37.0515 -7.6003,10.68794 -18.05072,28.26366 -18.05072,35.15143 0,6.88779 4.98769,17.33821 12.58801,19.47579 7.60031,2.13758 20.18831,-7.6003 27.78863,-15.43812 7.60031,-7.83783 19.9508,-21.37588 24.9385,-33.96388 4.9877,-12.58802 9.26288,-31.35127 9.7379,-40.37665 0.47502,-9.02535 -3.56264,-14.25057 -11.87548,-17.10069 -8.31284,-2.85011 -25.41353,15.20062 -25.41353,15.20062 z"
       id="path4088"
       inkscape:connector-curvature="0"
       sodipodi:nodetypes="csssssssc" />
    <ellipse
       style="fill:#000000;fill-opacity:1;stroke:none;stroke-width:1.55795836"
       id="path3959"
       transform="rotate(29.921354)"
       cx="926.46112"
       cy="484.59372"
       rx="14.744964"
       ry="22.117445" />
    <path
       style="fill:#000000;stroke:none;stroke-width:1.06666672"
       d="m 573.36641,850.30514 c -10.45042,43.10799 -32.18256,59.02114 -32.18256,59.02114 l 3.56265,1.90008 c 0,0 23.86972,-15.67564 33.48886,-58.54613 -1.67495,-1.05367 -3.16214,-2.49377 -4.86895,-2.37509 z"
       id="path3963"
       inkscape:connector-curvature="0"
       sodipodi:nodetypes="ccccc" />
    <ellipse
       transform="matrix(0.86499943,0.50177285,-0.49585466,0.86840552,0,0)"
       id="path3961"
       style="fill:url(#radialGradient3976);fill-opacity:1;stroke:none;stroke-width:1.18546879"
       cx="925.28271"
       cy="481.51074"
       rx="11.197382"
       ry="16.862841" />
    <path
       style="fill:#dae03a;fill-opacity:1;stroke:none;stroke-width:1.06666672"
       d="m 529.90215,690.10489 c 0,0 3.32514,28.97617 -5.70024,44.17678 -9.02536,15.20062 -33.96387,37.76404 -41.32668,38.47656 -7.36279,0.71254 -10.68792,-8.55035 -10.68792,-8.55035 0,0 2.37509,4.7502 7.36279,4.5127 4.9877,-0.23751 28.26365,-21.13837 28.26365,-21.13837 0,0 -8.78786,-0.47501 -14.48809,-5.93773 -5.70023,-5.46273 -19.9508,-21.13836 -19.9508,-21.13836 0,0 -10.68795,18.28824 -11.40047,30.16373 -0.71253,11.87547 -2.09725,21.07174 6.17524,28.02613 9.13463,7.67915 71.72793,1.42505 71.72793,1.42505 0,0 -26.35489,7.79708 -55.24138,5.2779 2.85506,14.61119 1.88981,22.60907 4.65182,33.2036 4.17679,16.02142 21.40094,30.09127 47.26443,36.80906 0,0 14.72558,-21.13836 20.90083,-37.52651 6.17525,-16.38817 14.96311,-26.83861 16.38817,-51.77711 1.42506,-24.93852 -5.70022,-54.15219 -5.70022,-54.15219 0,0 -17.21946,-1.90008 -22.68219,-6.29401 -5.46272,-4.39394 -8.31282,-14.36933 -15.55687,-15.55688 z"
       id="path3965"
       inkscape:connector-curvature="0"
       sodipodi:nodetypes="csscscscssccscsscsc" />
    <path
       style="fill:#d32b2b;fill-opacity:1;stroke:none;stroke-width:1.06666672"
       d="m 290.79614,842.10927 c 0,0 -26.19936,23.34431 -22.84047,42.15412 3.35889,18.80979 25.86347,44.00151 44.00149,50.71929 18.13803,6.71779 41.65029,11.92407 72.88799,10.58051 31.23771,-1.34355 76.58278,-11.08434 76.58278,-11.08434 -42.15412,14.27529 -62.13954,15.4509 -62.13954,15.4509 0,0 22.50459,15.11503 55.75765,19.48159 33.25303,4.36656 204.22071,37.95546 204.22071,37.95546 0,0 -10.91639,-10.58049 -9.74078,-37.28369 0,0 4.03066,23.84815 10.74846,31.23769 6.71778,7.3896 8.73312,15.1151 23.51226,16.1227 14.77911,1.0077 52.39873,-9.4049 66.84197,-30.9018 14.44324,-21.49692 31.5736,-53.7423 31.5736,-53.7423 0,0 -8.73312,-4.70245 -10.07668,-17.46625 0,0 -12.25997,-3.35889 -35.60428,3.02301 0,0 -13.43556,40.30672 -17.80213,47.69628 -4.36655,7.38957 -11.08435,24.18404 -5.71012,27.20704 5.37422,3.02301 32.24538,-29.22237 32.24538,-29.22237 0,0 -20.82514,38.29139 -33.25304,33.92482 -12.42791,-4.36656 -0.67179,-29.22237 -0.67179,-29.22237 0,0 15.45092,-34.26071 19.14571,-48.70395 3.69477,-14.44325 27.8788,-59.11653 35.60426,-67.51378 7.72545,-8.39722 20.15336,-9.40488 20.15336,-9.40488 l 0.67178,-13.43558 c 0,0 -27.87881,-8.39723 -40.9785,-6.04602 -13.09969,2.35123 -25.1917,5.03836 -30.56593,11.75614 -5.37423,6.71778 -50.38341,96.06435 -50.38341,96.06435 0,0 6.71779,-29.89414 31.90949,-68.52143 -23.17637,-0.67178 -105.13336,32.91715 -105.13336,32.91715 0,0 36.61193,-20.65718 57.77297,-24.85581 0,0 -2.35123,-10.41256 -7.72546,-11.75611 -5.37423,-1.34358 -39.29905,5.71011 -39.29905,5.71011 0,0 -15.78681,26.87115 -23.51225,33.58894 -7.72547,6.71778 -28.5506,26.87114 -37.9555,26.19936 -9.40491,-0.67178 -20.48926,-9.06902 -21.83281,-21.16103 -1.34356,-12.09201 15.78679,-44.67328 15.78679,-44.67328 0,0 -23.17636,-5.37423 -32.58127,-13.43558 -9.40491,-8.06133 -20.48925,-24.18402 -21.49692,-59.78829 0,0 -10.89441,0.8183 -15.42876,-2.66849 -4.28857,-3.29778 -9.09115,-12.44654 -9.09115,-12.44654 -13.53805,11.16296 -7.38957,48.03217 -7.38957,48.03217 0,0 -7.05367,-22.50457 -5.71012,-33.92482 1.34355,-11.42024 11.97501,-22.46384 11.97501,-22.46384 l 0.29514,-13.06243 c 0,0 -28.39284,6.30389 -37.46185,12.6858 -9.06902,6.38189 -24.88837,11.26182 -51.72696,57.10119 9.97541,-38.00155 38.29138,-57.10119 38.29138,-57.10119 -32.06379,4.51269 -63.14719,29.22238 -61.80363,28.88649 1.34355,-0.3359 22.55691,-28.51975 60.79596,-34.9325 0,0 -8.73312,-13.09969 -19.14568,-14.10735 -10.41258,-1.00766 -46.35274,-0.3359 -71.88032,14.77913 -25.5276,15.11501 -69.86499,42.65794 -77.59044,58.78063 -7.72546,16.12269 -8.73313,37.28371 -5.03835,46.35273 3.69478,9.06901 16.1227,20.9931 29.89415,20.9931 4.53452,-29.72621 30.90183,-40.47468 30.90183,-40.47468 z"
       id="path3967"
       inkscape:connector-curvature="0"
       sodipodi:nodetypes="csssccsccssscccsscscssccssccccscssscscsccsccsccscsssscc" />
    <path
       style="fill:#000000;stroke:none;stroke-width:1.06666672"
       d="m 808.73845,521.47303 c 0,0 5.93775,-19.47577 14.4881,-20.90084 8.55035,-1.42505 13.77555,4.98771 13.77555,11.87549 0,6.88778 -0.71252,13.30052 -0.71252,13.30052 0,0 0.71252,-13.53803 -1.90008,-17.5757 -2.6126,-4.03766 -7.3628,-6.65027 -11.16295,-5.22521 -3.80015,1.42506 -8.07533,8.31284 -9.7379,12.82552 -1.66257,4.51269 -4.7502,5.70022 -4.7502,5.70022 z"
       id="path3969"
       inkscape:connector-curvature="0"
       sodipodi:nodetypes="csscsssc" />
    <path
       style="fill:#d27c0d;fill-opacity:1;stroke:none;stroke-width:1.06666672"
       d="m 456.1554,663.14754 c 0,0 10.09416,40.25789 18.16949,49.75826 8.07532,9.5004 20.56906,28.97126 34.67641,31.82631 0,0 12.3505,-9.02538 15.91315,-22.56343 3.56264,-13.53805 2.37509,-27.07609 0.71253,-32.53882 -1.66257,-5.46271 -23.75097,-38.00153 -23.75097,-38.00153 l -8.55035,4.9877 c 0,0 10.23548,-6.59522 12.82553,-25.65105 2.43869,-17.9422 -12.81534,-35.88292 -12.35051,-41.56418 1.06879,-13.06302 14.7256,-23.03844 17.3382,-30.87625 2.61261,-7.83782 2.85012,-13.06304 -2.37509,-17.57572 -5.22521,-4.51268 -11.62805,-5.3987 -19.59454,-0.71252 -15.90618,9.35659 -16.8632,32.0638 -16.8632,32.0638 3.20639,1.66257 6.53153,8.55034 6.53153,8.55034 0,0 -10.68795,-8.07532 -21.37587,-8.31284 -10.68793,-0.2375 -35.70452,-0.39041 -40.97041,9.38163 -4.41071,8.18506 -3.16095,20.51238 2.6126,24.10723 6.29401,3.91892 21.70935,8.6009 34.91391,9.50039 8.76525,0.59709 14.01308,-0.47502 15.67564,-5.70023 1.66257,-5.2252 -1.30629,-10.92545 -8.19409,-14.7256 -6.88778,-3.80016 -27.07609,-5.46273 -27.07609,-5.46273 0,0 13.55872,-2.02913 21.37587,0 7.21417,1.87262 16.15066,6.88778 17.33819,12.35051 1.18756,5.46272 -0.71252,11.16294 -0.71252,11.16294 0,0 4.7502,4.27518 5.70022,9.26288 0.95005,4.98771 0.35628,9.85667 -2.61259,12.82553 0,0 4.58877,3.50919 3.08762,8.31284 -2.96887,9.50039 -18.88201,12.3505 -18.88201,12.3505 7.00654,4.39393 26.48232,2.3751 26.48232,2.3751 0,0 -20.54458,7.71906 -31.58879,-1.42506 -3.80015,2.13759 -16.62567,1.66257 -16.62567,1.66257 0,0 7.60032,5.10646 18.16949,4.63143 z"
       id="path3971"
       inkscape:connector-curvature="0"
       sodipodi:nodetypes="cscssccsssssccsssssscsscscsccccc" />
    <path
       style="fill:#d27c0d;fill-opacity:1;stroke:none;stroke-width:1.06666672"
       d="m 420.1727,610.06413 c 4.27518,2.82988 14.72957,5.75305 24.10723,7.33671 11.59472,1.95808 20.78209,1.88658 25.7698,-0.10485 0,0 5.34396,4.50684 5.34396,9.53774 0,5.03087 -4.86895,9.85213 -18.16949,10.90024 -13.30054,1.0481 -29.21369,0.52406 -35.86397,-4.0876 -6.65027,-4.61164 -9.38162,-7.44152 -8.90661,-12.05316 0.47502,-4.61164 4.15644,-9.64253 7.71908,-11.52912 z"
       id="path3973"
       inkscape:connector-curvature="0"
       sodipodi:nodetypes="cscssssc" />
    <path
       style="fill:#d27c0d;fill-opacity:1;stroke:none;stroke-width:1.06666672"
       d="m 421.95402,637.14023 c 0,0 8.19409,3.56265 23.03843,3.68141 8.78837,0.0704 20.30708,-1.06881 26.95735,-4.39394 0,0 3.24586,1.67168 3.56264,4.7502 0.75611,7.3479 -11.75673,10.68793 -21.25711,12.82552 -8.66774,1.95023 -18.28824,2.25633 -24.34475,0 -6.05649,-2.25635 -9.9754,-8.07533 -7.95656,-16.86319 z"
       id="path3975"
       inkscape:connector-curvature="0"
       sodipodi:nodetypes="cscsssc" />
    <path
       style="fill:#d27c0d;fill-opacity:1;stroke:none;stroke-width:1.06666672"
       d="m 734.63546,767.05801 c 61.7525,-1.90008 104.74175,2.85012 104.74175,2.85012 0,0 -4.98771,-5.70025 -4.51269,-12.113 10.21291,13.06302 17.1007,20.18832 27.78863,20.90085 10.68793,0.71252 21.61337,0.71253 26.12605,-6.65027 4.51269,-7.3628 4.7502,-19.00078 -4.9877,-27.55113 0,0 16.15067,2.37511 22.56342,1.66257 6.41276,-0.71252 15.20062,-0.95002 18.05073,-7.12528 2.85013,-6.17525 -2.41584,-13.61256 -9.54113,-16.22517 -7.12529,-2.61261 -32.42046,3.14395 -42.32939,1.90007 -9.13568,-1.14679 -22.74824,-2.62452 -35.11563,2.02029 -12.53532,0.7821 -77.84553,1.61688 -77.84553,1.61688 -18.28824,18.76326 -24.93851,38.71407 -24.93851,38.71407 z"
       id="path3977"
       inkscape:connector-curvature="0"
       sodipodi:nodetypes="cccsscssssccc" />
    <path
       style="fill:#d27c0d;fill-opacity:1;stroke:none;stroke-width:1.06666672"
       d="m 738.20075,912.64604 33.92483,-3.02301 c 0,0 0,-5.54217 4.19861,-11.92406 0,0 -3.52682,12.76378 1.51151,23.17635 5.03834,10.41257 21.25224,20.8098 32.24537,23.00842 11.75614,2.35124 24.53967,-0.19151 32.58128,-8.39723 8.22928,-8.39723 15.4509,-21.66487 20.82513,-39.467 4.62808,-15.3305 6.48941,-55.39327 5.71012,-68.01759 -0.83972,-13.60351 -3.69478,-27.03909 -13.09968,-28.2147 1.34355,6.04601 -1.00767,16.12269 -1.00767,16.12269 0,0 -1.34356,-17.97008 -7.05368,-23.6802 -5.71013,-5.71013 -14.10735,-3.52684 -14.10735,-3.52684 0,0 5.54217,11.42022 0.33589,24.85581 0,0 0.67178,-23.17637 -5.71012,-27.20704 -6.3819,-4.03068 -17.70109,-3.94321 -25.5276,-0.83971 -4.59157,1.8207 -9.97971,9.14019 -11.75612,15.61884 -1.42754,5.20629 0.084,20.74117 -0.9027,34.13476 -0.98668,13.39357 -4.47155,24.64587 -4.47155,24.64587 0,0 0.50385,-5.87806 0.50385,-13.60351 -5.03833,-0.33589 -16.29063,3.86273 -21.66486,14.94708 -5.37423,11.08434 -26.53526,51.39107 -26.53526,51.39107 z"
       id="path3979"
       inkscape:connector-curvature="0"
       sodipodi:nodetypes="cccsssssccsccssssccsc" />
    <path
       style="fill:#d27c0d;fill-opacity:1;stroke:none;stroke-width:1.06666672"
       d="m 856.26586,780.30564 c 9.23696,2.85505 20.65719,4.19862 30.23004,-0.67178 -1.92532,6.34786 4.08666,11.81211 8.06135,13.09969 0,0 -21.66487,4.5345 -38.29139,-12.42791 z"
       id="path3981"
       inkscape:connector-curvature="0"
       sodipodi:nodetypes="cccc" />
    <path
       style="fill:#d27c0d;fill-opacity:1;stroke:none;stroke-width:1.06666672"
       d="m 891.03041,747.72435 c 7.64148,11.67216 1.84739,24.9398 1.84739,24.9398 0,0 9.32093,-11.58818 28.04675,-8.56518 -18.13801,2.01533 -32.7492,13.26763 -30.98578,19.06172 1.76342,5.7941 7.3056,8.56518 12.42791,6.96971 5.12231,-1.59548 23.26033,-8.06135 28.04675,-12.51188 4.78643,-4.45054 6.6704,-9.75149 6.29793,-13.26764 -1.04965,-9.90873 -25.52759,-10.49654 -25.52759,-10.49654 9.86675,-1.88939 22.04498,-0.17488 33.25304,-1.76342 11.97073,-1.69664 29.64225,-6.80175 32.32937,-13.3516 2.38933,-5.82406 -0.41988,-13.18365 -6.46588,-15.87078 -6.04602,-2.6871 -28.38265,3.35892 -44.84123,4.28261 0,0 2.68713,2.93902 2.85505,7.97735 0.16143,4.84304 -2.18992,9.23963 -9.06901,12.09202 -6.26577,2.59811 -23.34431,1.17562 -28.2147,0.50383 z"
       id="path3983"
       inkscape:connector-curvature="0"
       sodipodi:nodetypes="cccsssscssscssc" />
    <path
       style="fill:#d27c0d;fill-opacity:1;stroke:none;stroke-width:1.06666672"
       d="m 900.43532,793.48929 c 7.13765,-1.5115 25.19169,-7.97736 33.08509,-13.85543 0,0 -0.27176,9.61338 -8.81708,14.19131 -4.60164,2.46522 -15.34109,4.22365 -24.26801,-0.33588 z"
       id="path3985"
       inkscape:connector-curvature="0"
       sodipodi:nodetypes="ccsc" />
    <path
       style="fill:#d27c0d;fill-opacity:1;stroke:none;stroke-width:1.06666672"
       d="m 235.20645,806.67295 c -5.71012,9.57283 -10.58051,24.68786 -11.42024,36.77988 -0.71059,10.23236 3.02301,20.48925 3.02301,20.48925 0,0 -24.18404,10.24463 -32.07743,11.2523 -7.8934,1.00766 -20.82514,-4.03067 -21.32897,-17.80213 11.42023,1.84739 24.8558,-0.67179 34.59659,-9.90875 -16.12268,7.05367 -28.5506,7.38957 -34.93249,5.71012 -6.3819,-1.67944 -11.75613,-5.20628 -10.24463,-19.14568 0,0 17.80214,8.06133 42.32206,-7.55752 -13.43558,5.71012 -32.41332,9.06901 -39.97084,1.67945 -3.99169,-3.903 -6.38188,-12.59585 -3.19094,-19.48158 2.50755,-5.41102 7.05368,-10.24464 15.11502,-12.25996 7.05322,-1.7633 27.03908,-3.52685 39.97083,-8.73313 12.93174,-5.20628 33.25305,-13.26763 41.48234,-17.46625 7.76761,-3.96307 19.31363,-4.03068 21.8328,0.83971 -12.91914,8.58329 -35.96622,22.05969 -45.17711,35.60429 z"
       id="path3987"
       inkscape:connector-curvature="0"
       sodipodi:nodetypes="cscsccsccssssscc" />
    <path
       style="fill:url(#linearGradient3250);fill-opacity:1;stroke:none;stroke-width:1.06666672"
       d="m 847.70068,846.47584 c -18.13802,-1.67945 -20.48925,12.09201 -24.18403,30.56593 -3.69478,18.47391 -8.73312,49.71162 1.34355,53.07052 10.07667,3.35889 17.46625,-3.02301 24.18403,-13.77147 8.54872,-13.67794 13.09968,-27.20704 15.11503,-40.97849 1.94608,-13.29814 -5.34289,-27.85726 -16.45858,-28.88649 z"
       id="path3989"
       inkscape:connector-curvature="0"
       sodipodi:nodetypes="ssssss" />
    <ellipse
       style="fill:#ffffff;fill-opacity:1;stroke:none;stroke-width:1.33005393"
       id="path4001"
       cx="801.96942"
       cy="579.18787"
       rx="11.994237"
       ry="6.4127607" />
    <path
       style="fill:url(#linearGradient3246);fill-opacity:1;stroke:none;stroke-width:1.06666672"
       d="m 637.85381,453.90515 c -4.19862,4.61848 -12.00804,19.06172 -13.85543,29.64223 -1.84739,10.58052 -2.85507,31.57361 -2.85507,31.57361 0,0 17.13036,-2.35124 44.6733,8.56516 -1.34356,-34.26071 19.31363,-87.83505 19.31363,-87.83505 0,0 -15.11503,18.30597 -25.02375,21.16103 -9.90875,2.85506 -17.63419,0.41986 -22.25268,-3.10698 z"
       id="path4035"
       inkscape:connector-curvature="0"
       sodipodi:nodetypes="cscccsc" />
    <path
       style="fill:url(#linearGradient3243);fill-opacity:1;stroke:none;stroke-width:1.06666672"
       d="m 483.66917,725.27968 c 17.5757,10.68795 30.63873,10.68794 41.68294,-35.9827 4.03765,12.70676 5.87906,29.42757 -6.53151,45.7206 -2.80348,3.68051 -7.42219,7.27374 -9.29258,9.7379 -14.81465,-3.9486 -25.85885,-19.4758 -25.85885,-19.4758 z"
       id="path4091"
       inkscape:connector-curvature="0"
       sodipodi:nodetypes="ccscc" />
    <path
       style="fill:url(#linearGradient3240);fill-opacity:1;stroke:none;stroke-width:1.06666672"
       d="m 477.71856,725.55567 c 0,0 -5.71012,12.59585 -5.87805,22.33665 -0.16794,9.74078 -1.17562,16.62651 2.51916,18.97774 3.69478,2.35123 3.77438,2.84448 6.04602,1.84739 7.89626,-3.46591 27.54292,-21.16102 27.54292,-21.16102 0,0 -8.90107,-1.34357 -12.59584,-4.19863 -3.69479,-2.85505 -17.63421,-17.80213 -17.63421,-17.80213 z"
       id="path4117"
       inkscape:connector-curvature="0"
       sodipodi:nodetypes="cssscsc" />
    <path
       style="fill:url(#linearGradient3237);fill-opacity:1;stroke:none;stroke-width:1.06666672"
       d="m 592.80484,535.98451 c 0,0 14.53482,-12.13539 23.75097,-14.25058 14.48808,-3.32513 46.7894,7.83782 46.7894,7.83782 l -9.26287,6.41276 c 0,0 21.13835,0 36.33897,5.70023 15.20062,5.70023 33.72637,17.81322 38.00155,23.51346 4.27516,5.70023 -2.85012,28.02613 -2.85012,28.02613 0,0 -12.00183,-12.59256 -28.97617,-11.87548 -23.9718,1.0127 -31.89212,15.83342 -51.06458,17.5757 -24.67228,2.24208 -52.96465,-2.61259 -55.57726,-8.31283 -2.6126,-5.70022 -1.66257,-12.58802 -0.47502,-19.95081 l -5.22521,4.03767 c 0,0 1.18755,-6.41276 7.60032,-18.52576 l -7.36281,4.98771 c 0,0 8.07533,-14.01306 23.27595,-28.26364 -6.17525,0.23751 -14.96312,3.08762 -14.96312,3.08762 z"
       id="path3072"
       inkscape:connector-curvature="0"
       sodipodi:nodetypes="csccsscssscccccc" />
    <path
       style="fill:url(#linearGradient3234);fill-opacity:1;stroke:none;stroke-width:1.06666672"
       d="m 604.44282,662.93341 c 0,0 13.06303,2.01884 40.7329,-1.18754 24.22599,12.58802 41.56418,14.9631 41.56418,14.9631 -6.76902,11.75674 -13.77556,13.89432 -27.90739,14.01308 -14.13182,0.11877 -48.21444,-8.55036 -52.96463,-11.28172 -4.75019,-2.73136 -1.42506,-16.50692 -1.42506,-16.50692 z"
       id="path3866"
       inkscape:connector-curvature="0"
       sodipodi:nodetypes="cccssc" />
    <path
       style="fill:url(#linearGradient3231);fill-opacity:1;stroke:none;stroke-width:1.06666672"
       d="m 759.6137,728.32676 c -19.64953,20.57322 -24.93978,38.71125 -24.93978,38.71125 l 30.98579,-0.58781 c 0,0 -7.64148,-5.71011 -8.56517,-13.0157 -0.9237,-7.3056 2.51916,-25.10774 2.51916,-25.10774 z"
       id="path3876"
       inkscape:connector-curvature="0"
       sodipodi:nodetypes="cccsc" />
    <path
       style="fill:url(#linearGradient3228);fill-opacity:1;stroke:none;stroke-width:1.06666672"
       d="m 662.28977,726.73127 c 10.7084,6.50661 77.59043,-3.35889 77.59043,-3.35889 -11.42023,6.7178 -17.2983,17.29832 -17.2983,17.29832 0,0 21.32897,-19.48159 29.39032,-21.16105 5.62864,-1.17264 9.57285,0.3359 9.57285,0.3359 -8.73312,5.71012 -20.48925,18.30597 -27.37499,31.57361 -6.93895,13.37023 -13.9394,29.72619 -13.9394,29.72619 0,0 -52.56668,2.68713 -61.97159,-7.38956 -9.4049,-10.07668 -21.32897,-33.25304 -19.81747,-44.16944 1.5115,-10.91641 12.09201,-17.63419 12.09201,-17.63419 0,0 5.43443,10.93795 11.75614,14.77911 z"
       id="path3886"
       inkscape:connector-curvature="0"
       sodipodi:nodetypes="sccscscsscs" />
    <path
       style="fill:url(#linearGradient3225);fill-opacity:1;stroke:none;stroke-width:1.06666672"
       d="m 531.40861,692.26586 c 0,0 3.44388,21.49461 -1.90009,34.55765 -5.34395,13.06303 -21.49461,32.5388 -26.83859,36.22021 -5.34396,3.6814 -2.25634,10.80669 3.56265,12.11298 5.81898,1.30632 65.67141,-4.15641 65.67141,-4.15641 0,0 2.61262,-25.176 -4.63144,-57.95234 0,0 -12.70676,-0.35628 -21.85088,-4.98772 2.96887,9.61914 2.13758,21.61339 2.13758,21.61339 0,0 -4.51267,-20.78209 -7.71906,-27.19485 -3.20637,-6.41276 -6.05649,-9.50039 -8.43158,-10.21291 z"
       id="path3896"
       inkscape:connector-curvature="0"
       sodipodi:nodetypes="csssccccsc" />
    <path
       style="fill:url(#linearGradient3222);fill-opacity:1;stroke:none;stroke-width:1.06666672"
       d="m 731.98549,771.00029 28.3824,-0.11878 c 0,0 -8.12164,14.91581 -12.82551,18.52575 -5.10647,3.91891 -11.66308,9.4883 -15.91315,8.43161 -3.49738,-0.86957 -5.34397,-6.53153 -4.75019,-10.8067 0.59377,-4.27518 2.25634,-10.33168 5.10645,-16.0319 z"
       id="path3906"
       inkscape:connector-curvature="0"
       sodipodi:nodetypes="ccssscc" />
    <path
       style="fill:url(#linearGradient3219);fill-opacity:1;stroke:none;stroke-width:1.06666672"
       d="m 473.01612,571.55041 c 0,0 3.52683,-17.46625 9.57285,-24.0161 6.046,-6.54984 10.74846,-9.06901 15.28296,-9.40489 4.53451,-0.33589 10.9164,3.35889 11.92406,5.87806 1.00768,2.51917 2.35123,6.71778 0.67179,11.08435 -1.67945,4.36656 -5.54218,11.08435 -7.55752,13.43557 -2.01534,2.35122 -9.06901,10.07669 -9.90872,14.10735 -0.83974,4.03067 -1.00768,13.26763 -1.00768,13.26763 0,0 -12.25996,-20.82513 -18.97774,-24.35197 z"
       id="path3916"
       inkscape:connector-curvature="0"
       sodipodi:nodetypes="csssssscc" />
    <path
       style="fill:url(#linearGradient3216);fill-opacity:1;stroke:none;stroke-width:1.06666672"
       d="m 484.26842,785.34398 c 0,0 1.84739,24.51991 4.87039,33.25303 3.02299,8.73314 8.22928,17.63421 16.45858,22.67255 8.22928,5.03833 13.09967,8.39722 19.48158,10.41256 6.38188,2.01534 11.75611,3.69479 11.75611,3.69479 l 2.51918,-75.23921 c 0,0 -16.12269,3.86273 -26.7032,4.87039 -10.58051,1.00768 -28.38264,0.33589 -28.38264,0.33589 z"
       id="path3942"
       inkscape:connector-curvature="0" />
    <path
       style="fill:url(#linearGradient3213);fill-opacity:1;stroke:none;stroke-width:1.06666672"
       d="m 563.5383,703.55491 c 0,0 0.52316,-2.84871 5.03834,-3.86271 3.87413,-0.87006 9.82463,0.73036 14.86311,2.93902 6.12997,2.68713 9.32092,9.48888 9.32092,9.48888 0,0 -0.83972,-8.64915 -8.4812,-13.77147 1.57267,-0.67827 4.66567,-0.78305 7.64148,0.67179 3.77874,1.84739 7.22227,6.47714 8.98503,10.74845 2.18328,5.29026 8.14532,24.77184 8.64916,33.33702 0.50384,8.56519 2.01533,18.55789 0.67178,28.8025 -1.34357,10.24464 -7.22162,37.61963 -18.13802,38.12345 -10.91641,0.50384 -14.61119,-26.36731 -13.93942,-35.26837 0.67178,-8.90107 1.17562,-26.53526 0.50383,-34.9325 -0.67177,-8.39723 -1.60997,-23.99588 -5.37422,-30.73388 -3.24858,-5.81497 -9.74079,-5.54218 -9.74079,-5.54218 z"
       id="path3952"
       inkscape:connector-curvature="0"
       sodipodi:nodetypes="cssccssssssssc" />
    <path
       style="fill:url(#linearGradient3210);fill-opacity:1;stroke:none;stroke-width:1.06666672"
       d="m 770.94997,853.36157 c -19.23827,30.87625 -8.93193,54.34101 -2.51918,56.59736 -8.90661,0.95004 -30.56593,2.85505 -30.56593,2.85505 0,0 23.00843,-43.16178 24.85582,-47.52833 1.84739,-4.36657 5.49793,-10.26151 8.22929,-11.92408 z"
       id="path3978"
       inkscape:connector-curvature="0"
       sodipodi:nodetypes="cccsc" />
    <path
       style="fill:url(#linearGradient3207);fill-opacity:1;stroke:none;stroke-width:1.06666672"
       d="m 600.99892,867.42921 c 0,0 34.79517,-7.6003 38.95159,-6.88778 4.15642,0.71253 7.95657,10.56917 7.95657,10.56917 0,0 -13.89431,4.5127 -22.08839,7.95658 -8.19409,3.44389 -56.88356,28.14489 -56.88356,28.14489 0,0 11.87547,-9.50038 13.65681,-12.46925 1.78131,-2.96887 10.45042,-14.25059 12.46925,-17.33821 2.01883,-3.08762 5.93773,-9.9754 5.93773,-9.9754 z"
       id="path3988"
       inkscape:connector-curvature="0" />
    <path
       style="fill:url(#linearGradient3204);fill-opacity:1;stroke:none;stroke-width:1.06666672"
       d="m 786.3752,829.78393 -0.23751,9.50039 c 0,0 -13.77556,-3.32514 -20.42583,4.03765 -6.65027,7.36281 -28.26365,45.12685 -33.96387,59.13991 -5.70024,14.01307 -23.98848,67.21524 -37.76403,66.5027 -13.77557,-0.71253 -27.55113,-10.21291 -28.73867,-19.95081 -1.18755,-9.7379 2.6126,-22.56341 9.50037,-35.86395 6.88779,-13.30055 37.52653,-74.81555 41.5642,-78.6157 4.03767,-3.80015 19.7133,-10.21291 30.40123,-10.92544 10.68794,-0.71253 22.0884,1.42505 27.55112,2.85011 5.46272,1.42506 12.11299,3.32514 12.11299,3.32514 z"
       id="path3998"
       inkscape:connector-curvature="0" />
    <path
       style="fill:url(#linearGradient3201);fill-opacity:1;stroke:none;stroke-width:1.06666672"
       d="m 736.35337,918.02027 c 17.93197,-4.27518 27.37498,-3.52684 27.37498,-3.52684 0,0 -14.94708,44.16946 -18.47392,49.03985 -3.52684,4.87039 -23.17636,27.03909 -29.39031,29.22238 -6.21395,2.18327 -5.03835,-2.51918 -4.53451,-5.87807 0.50383,-3.35889 5.1882,-16.22099 8.61437,-23.2663 3.55566,-7.31158 16.40939,-45.59102 16.40939,-45.59102 z"
       id="path4008"
       inkscape:connector-curvature="0"
       sodipodi:nodetypes="ccssssc" />
    <path
       inkscape:connector-curvature="0"
       style="fill:url(#linearGradient3198);fill-opacity:1;stroke:none;stroke-width:1.06666672"
       d="m 271.41868,767.32386 c -4.17235,-0.0965 -9.0011,0.92796 -12.8849,2.90949 -7.95235,4.05732 -27.07045,11.66565 -40.02631,16.87507 8.29012,16.23444 8.80662,37.27759 -0.45721,57.85734 -5.32501,11.82961 -13.21865,22.02208 -22.61091,30.09247 8.49852,-1.4453 31.38096,-11.09763 31.38096,-11.09763 0,0 -3.74479,-10.25879 -3.03419,-20.49115 0.83973,-12.09202 5.72003,-27.21147 11.43015,-36.78431 9.21089,-13.54459 32.26113,-27.03723 45.18027,-35.6205 -1.25957,-2.4352 -4.80551,-3.64427 -8.97786,-3.74078 z"
       id="path4026" />
    <path
       style="fill:url(#linearGradient3195);fill-opacity:1;stroke:none;stroke-width:1.06666672"
       d="m 325.33856,825.74628 c -12.51425,3.65337 -38.66922,17.45839 -47.60145,35.96349 -3.18109,6.59034 -3.20593,15.38387 -3.361,23.79118 -0.14297,7.75075 10.9432,26.03698 31.75008,39.81522 17.98826,11.91177 48.95686,14.76994 65.56672,14.30289 16.60987,-0.46706 62.08782,-4.20351 82.20834,-10.74233 20.12053,-6.53882 36.01817,-31.67051 34.89681,-45.2152 -1.1214,-13.5447 -64.87991,-44.3701 -84.26005,-50.44232 -32.56418,-10.20305 -67.39912,-10.91789 -79.19945,-7.47293 z"
       id="path4040"
       inkscape:connector-curvature="0"
       sodipodi:nodetypes="sssssssss" />
    <path
       style="fill:url(#linearGradient3192);fill-opacity:1;stroke:none;stroke-width:1.06666672"
       d="m 409.39616,948.26882 c 0,0 18.33949,-3.13569 29.50245,-7.48705 11.16296,-4.35138 34.6764,-8.48519 42.15794,-12.07508 7.48156,-3.58988 173.5008,-1.84932 169.70064,6.41828 -3.80016,8.26763 -1.90008,23.93258 -1.90007,37.42184 0,11.94848 5.93774,28.48159 5.93774,28.48159 0,0 -106.16681,-23.57287 -120.89241,-25.74855 -14.72559,-2.17569 -71.93864,-9.73338 -89.03935,-13.64963 -17.10069,-3.91623 -35.46694,-13.3614 -35.46694,-13.3614 z"
       id="path4050"
       inkscape:connector-curvature="0"
       sodipodi:nodetypes="csssscssc" />
    <path
       style="fill:url(#linearGradient3189);fill-opacity:1;stroke:none;stroke-width:1.06666672"
       d="m 684.48356,902.46188 c -12.80775,14.73668 -21.16222,38.45968 -24.72486,56.0354 -3.56265,17.5757 -0.4174,31.31054 5.52034,39.38587 5.93774,8.07535 12.39125,13.61955 23.55422,13.61955 11.16293,0 23.28293,-1.8017 34.68339,-8.6895 11.40046,-6.88777 20.81934,-11.99773 28.18214,-24.11073 7.3628,-12.11298 18.52576,-31.35127 18.52576,-31.35127 0,0 -24.70101,37.52653 -39.66411,46.7894 -14.96311,9.2629 -19.7133,7.3628 -22.32591,5.22521 -2.6126,-2.13759 -3.08762,-9.26287 -2.13759,-15.67563 0.95005,-6.41276 10.21292,-25.41353 12.11299,-30.63873 1.90009,-5.22523 11.16296,-32.53883 13.30054,-37.52653 2.13759,-4.98771 -10.68793,-19.4758 -17.3382,-20.66335 -6.65026,-1.18754 -22.9876,-0.11 -29.68871,7.60031 z"
       id="path4060"
       inkscape:connector-curvature="0"
       sodipodi:nodetypes="sssssscsssssss" />
    <path
       style="fill:url(#linearGradient3186);fill-opacity:1;stroke:none;stroke-width:1.06666672"
       d="m 255.13773,870.49686 c 7.20316,-9.47638 12.35385,-24.8406 18.19216,-30.73882 13.101,-13.23546 32.91716,-30.23002 45.34508,-38.29137 13.95399,-9.05124 33.58892,-26.87115 42.65794,-32.24538 9.06901,-5.37423 39.63494,-16.79447 39.63494,-16.79447 0,0 -9.7408,-10.41257 -14.44324,-11.08436 -4.70247,-0.67176 -38.96318,0.3359 -55.08587,7.05368 -16.12269,6.7178 -45.68094,23.51225 -58.10884,33.25305 -12.42792,9.7408 -31.23772,20.48926 -38.29139,34.93251 -7.05368,14.44324 -8.40545,34.89856 -5.61174,42.81745 2.66324,7.54906 6.61941,12.26839 13.0013,14.9555 6.3819,2.68712 10.73433,-1.25904 12.70966,-3.85779 z"
       id="path4078"
       inkscape:connector-curvature="0"
       sodipodi:nodetypes="sssscsssssss" />
    <path
       style="fill:url(#linearGradient3183);fill-opacity:1;stroke:none;stroke-width:1.06666672"
       d="m 946.80703,725.03527 c -5.2052,0.53726 -7.96171,1.34551 -21.33432,2.09603 0,0 2.65844,2.94198 2.82637,7.98032 0.16143,4.84303 -2.1819,9.24278 -9.06099,12.09517 -6.26578,2.59812 -23.35169,1.17056 -28.22208,0.49878 7.64147,11.67215 1.87039,24.9385 1.87039,24.9385 0,0 9.32999,-11.58521 28.05582,-8.56221 -0.0979,0.0107 -0.19327,0.0302 -0.29095,0.0415 1.14779,-0.0718 2.31838,-0.12462 3.4914,-0.12462 4.40236,0 8.62414,0.50015 12.59395,1.45474 0.007,-0.3817 -0.004,-0.77312 -0.0415,-1.12223 -1.04966,-9.90873 -25.52041,-10.47417 -25.52041,-10.47417 9.86675,-1.88939 21.93307,-0.85538 33.01383,-3.17076 6.98303,-1.45913 18.1076,-6.68213 19.51142,-13.62118 1.61724,-7.9939 -3.40669,-13.42188 -16.89287,-12.02986 z"
       id="path4098"
       inkscape:connector-curvature="0"
       sodipodi:nodetypes="scssccccscccsss" />
    <path
       style="fill:url(#linearGradient3180);fill-opacity:1;stroke:none;stroke-width:1.06666672"
       d="m 875.32256,742.02412 c 0,0 18.6445,2.13759 25.29477,2.13759 6.65028,0 16.03191,-0.23752 19.35704,-3.20638 3.32514,-2.96887 4.51268,-8.55035 3.08762,-11.40046 -1.42505,-2.85012 -5.2252,-6.88779 -9.73789,-7.3628 -4.51268,-0.47502 -29.21368,2.85011 -37.28901,2.85011 -8.07532,0 -13.30054,-2.49385 -22.68216,-1.54381 -9.38163,0.95004 -14.13183,2.49385 -16.15067,4.15641 -2.01884,1.66257 -6.65027,6.17527 -4.51268,13.89433 2.13759,7.71906 4.7502,17.5757 9.38163,21.96963 4.63145,4.39393 16.62568,11.40046 26.24482,9.73789 9.61914,-1.66256 13.89432,-2.13758 16.0319,-9.02536 2.13758,-6.88777 4.39393,-15.55688 -9.02537,-22.20715 z"
       id="path4112"
       inkscape:connector-curvature="0"
       sodipodi:nodetypes="csssssssssssc" />
    <path
       style="fill:url(#linearGradient3177);fill-opacity:1;stroke:none;stroke-width:1.06666672"
       d="m 792.78796,828.24012 c 0,0 -0.95003,-21.0196 0.35626,-25.65104 1.30631,-4.63144 6.29401,-14.01307 11.75674,-16.03191 5.46272,-2.01882 14.48807,-2.01882 17.69446,-0.59377 3.20638,1.42506 6.76902,3.56266 7.48156,7.12529 0.71252,3.56265 2.37509,11.75673 2.37509,16.38817 0,4.63144 0.35627,26.83859 -5.93773,35.86395 -6.29402,9.02538 -17.57573,10.92545 -22.08841,8.07533 -4.51267,-2.85012 -9.38163,-9.85664 -10.33166,-14.36933 -0.95005,-4.51269 -1.30631,-10.80669 -1.30631,-10.80669 z"
       id="path4122"
       inkscape:connector-curvature="0" />
    <path
       style="fill:url(#linearGradient3174);fill-opacity:1;stroke:none;stroke-width:1.06666672"
       d="m 925.91212,727.06101 c 0,0 9.85664,-0.59378 16.03189,-1.66257 6.17525,-1.06879 17.81323,-3.56263 23.75097,-3.20637 5.93775,0.35626 9.02537,3.56264 10.45043,6.76902 1.42504,3.20639 0.11877,7.48156 -2.85012,9.9754 -2.96887,2.49386 -17.93197,8.31284 -25.05727,9.5004 -7.12529,1.18755 -34.79516,0.2375 -34.79516,0.2375 0,0 10.33167,-2.13758 13.06303,-6.29401 2.73136,-4.15641 2.37509,-8.19409 1.54381,-11.04419 -0.83129,-2.85012 -2.13758,-4.27518 -2.13758,-4.27518 z"
       id="path4140"
       inkscape:connector-curvature="0" />
    <path
       style="fill:url(#linearGradient3171);fill-opacity:1;stroke:none;stroke-width:1.06666672"
       d="m 904.63393,768.80143 c -6.9697,3.19094 -13.51955,8.73312 -14.44324,11.75613 -0.9237,3.02299 1.09164,6.12997 2.85506,7.38957 1.76341,1.25958 4.11464,2.60313 8.06133,1.51149 3.94671,-1.09164 20.74118,-7.64148 24.35199,-10.07668 3.61081,-2.43519 5.79409,-4.78642 6.12999,-8.14531 0.33588,-3.35889 -2.56743,-7.12082 -9.32093,-7.13765 -4.72882,-0.0119 -12.86754,2.60838 -17.6342,4.70245 z"
       id="path4150"
       inkscape:connector-curvature="0"
       sodipodi:nodetypes="cssssssc" />
    <path
       style="fill:url(#linearGradient3168);fill-opacity:1;stroke:none;stroke-width:1.06666672"
       d="m 422.74795,592.86806 c 5.46668,-4.63218 13.30054,-3.20637 21.49462,-1.90007 8.19408,1.30629 16.03189,3.20639 19.59454,6.05649 3.56266,2.85012 6.29402,5.70025 6.29402,8.78787 0,3.08763 -0.71255,7.24403 -4.98771,8.07532 -4.27517,0.83127 -20.54458,-2.37509 -26.24483,-4.15643 -5.70022,-1.78131 -15.43812,-5.46271 -18.05072,-7.8378 -2.61261,-2.3751 -0.86061,-6.6861 1.90008,-9.02538 z"
       id="path4160"
       inkscape:connector-curvature="0"
       sodipodi:nodetypes="ssssssss" />
    <path
       style="fill:url(#linearGradient3165);fill-opacity:1;stroke:none;stroke-width:1.06666672"
       d="m 415.02889,585.38651 c 2.80093,-5.47794 5.81897,-8.55035 14.96311,-10.80669 13.70624,-3.38206 24.22597,-2.49385 30.51997,-1.54381 6.29401,0.95004 17.33822,6.53151 20.42584,10.33168 3.08763,3.80015 5.22521,14.13182 5.22521,14.13182 0,0 -21.73214,-8.19409 -31.70754,-9.38164 -9.97541,-1.18754 -19.00077,-1.54381 -25.05726,0.35626 -6.05649,1.90008 -14.36933,5.70025 -14.36933,5.70025 0,0 -1.33357,-6.17975 0,-8.78787 z"
       id="path4170"
       inkscape:connector-curvature="0"
       sodipodi:nodetypes="sssscsscs" />
    <path
       style="fill:url(#linearGradient3162);fill-opacity:1;stroke:none;stroke-width:1.06666672"
       d="m 420.17691,610.42498 c -3.56265,1.73361 -7.25593,6.3469 -7.73095,10.58458 -0.19236,1.71609 0.17407,3.15412 1.08067,4.55069 6.97092,-4.01164 17.46571,-6.53951 29.17806,-6.53951 13.70139,0 25.6924,3.49433 32.3785,8.73058 0.20126,-0.63157 0.29095,-1.27323 0.29095,-1.9214 0,-4.62293 -5.32021,-8.7643 -5.32021,-8.7643 -4.98771,1.82992 -14.17508,1.90042 -25.7698,0.10112 -9.37766,-1.45524 -19.83204,-4.14136 -24.10722,-6.74176 z"
       id="path4180"
       inkscape:connector-curvature="0" />
    <path
       inkscape:connector-curvature="0"
       style="fill:url(#linearGradient3159);fill-opacity:1;stroke:none;stroke-width:1.06666672"
       d="m 471.96588,636.43824 c -6.65027,3.32513 -18.18679,4.4346 -26.97516,4.36423 -14.84434,-0.11877 -23.02656,-3.65764 -23.02656,-3.65764 -0.92469,4.02511 -0.61965,7.4193 0.5819,10.14167 5.91234,-3.53318 15.65212,-5.86056 26.68421,-5.86056 9.76354,0 18.49683,1.83198 24.4813,4.69676 1.28997,-1.40968 1.9822,-3.05177 1.78727,-4.94615 -0.31678,-3.07851 -3.53296,-4.73831 -3.53296,-4.73831 z"
       id="path4185" />
  </g>
</svg>
