<?xml version="1.0" encoding="UTF-8" standalone="no"?>
<!-- Created with Inkscape (http://www.inkscape.org/) -->

<svg
   xmlns:dc="http://purl.org/dc/elements/1.1/"
   xmlns:cc="http://creativecommons.org/ns#"
   xmlns:rdf="http://www.w3.org/1999/02/22-rdf-syntax-ns#"
   xmlns:svg="http://www.w3.org/2000/svg"
   xmlns="http://www.w3.org/2000/svg"
   xmlns:sodipodi="http://sodipodi.sourceforge.net/DTD/sodipodi-0.dtd"
   xmlns:inkscape="http://www.inkscape.org/namespaces/inkscape"
   version="1.0"
   width="577.29596"
   height="684.27234"
   id="svg3451"
   sodipodi:version="0.32"
   inkscape:version="0.92.1 r15371"
   sodipodi:docname="si-waitasecond.svg"
   inkscape:output_extension="org.inkscape.output.svg.inkscape">
  <metadata
     id="metadata3382">
    <rdf:RDF>
      <cc:Work
         rdf:about="">
        <dc:format>image/svg+xml</dc:format>
        <dc:type
           rdf:resource="http://purl.org/dc/dcmitype/StillImage" />
      </cc:Work>
    </rdf:RDF>
  </metadata>
  <sodipodi:namedview
     inkscape:window-height="1006"
     inkscape:window-width="1676"
     inkscape:pageshadow="2"
     inkscape:pageopacity="0.0"
     guidetolerance="10.0"
     gridtolerance="10.0"
     objecttolerance="10.0"
     borderopacity="1.0"
     bordercolor="#666666"
     pagecolor="#ffffff"
     id="base"
     showgrid="false"
     inkscape:zoom="0.72255697"
     inkscape:cx="268.27681"
     inkscape:cy="36.075877"
     inkscape:window-x="4"
     inkscape:window-y="0"
     inkscape:current-layer="layer1" />
  <defs
     id="defs3453">
    <inkscape:perspective
       sodipodi:type="inkscape:persp3d"
       inkscape:vp_x="0 : 343.49716 : 1"
       inkscape:vp_y="0 : 1066.6667 : 0"
       inkscape:vp_z="578.51869 : 343.49716 : 1"
       inkscape:persp3d-origin="289.25934 : 228.99811 : 1"
       id="perspective3384" />
  </defs>
  <g
     transform="translate(-55.792087,-151.59744)"
     id="layer1">
    <g
       id="g3921">
      <path
         d="m 173.60036,813.9241 c -1.43591,-0.22094 -8.87659,-1.85098 -16.53482,-3.6224 -7.65824,-1.77136 -22.93121,-4.5615 -33.93994,-6.20024 -33.842452,-5.03768 -32.26381,-4.4203 -30.437147,-11.90828 0.648305,-2.65669 2.16502,-6.49015 3.370409,-8.51898 2.027694,-3.41267 2.155534,-4.25035 1.708484,-11.19615 -0.440784,-6.84864 -0.298097,-7.8359 1.625983,-11.25105 2.815531,-4.99742 7.890511,-8.32599 13.752631,-9.01982 4.37746,-0.51832 4.72766,-0.74126 6.66258,-4.24161 2.76907,-5.0094 4.44387,-6.67043 8.53824,-8.4674 7.09231,-3.11343 16.31901,-1.57477 22.05051,3.67714 6.15114,5.63651 8.39587,14.41156 5.43118,21.23174 -1.09261,2.51336 -1.04675,2.91085 0.50779,4.39693 2.1088,2.01595 10.29859,4.77871 25.58809,8.63214 6.43057,1.62059 14.43318,4.23121 17.78365,5.80131 9.8539,4.61756 19.76609,13.12207 18.17091,15.58958 -0.62076,0.96022 -11.56046,0.82701 -18.66783,-0.22728 -3.32871,-0.49372 -6.53665,-0.73872 -7.12877,-0.54443 -0.59211,0.19428 1.27309,1.49323 4.14493,2.88656 2.87184,1.39331 5.96751,3.32298 6.87936,4.2881 1.60432,1.69823 1.60675,1.80879 0.0742,3.42757 -3.39261,3.58371 -20.60415,6.6488 -29.57995,5.26771 z"
         id="path3103"
         style="fill:#32261e;stroke:#000000;stroke-width:1.70666671;stroke-linecap:round;stroke-linejoin:round;stroke-miterlimit:4;stroke-dasharray:none;stroke-opacity:1"
         inkscape:connector-curvature="0" />
      <path
         d="m 113.33524,281.99478 c -22.339431,-3.81025 -37.638505,-21.54705 -37.638505,-43.63485 0,-26.51619 22.404702,-49.24874 50.220655,-50.95587 37.51753,-2.30262 61.07185,33.13088 44.02965,66.23431 -6.22285,12.08714 -20.15509,23.1402 -34.10963,27.06026 -5.99901,1.68541 -16.63318,2.29896 -22.50217,1.29839 z"
         id="path3101"
         style="fill:#bfa962;stroke:#000000;stroke-width:1.70666671;stroke-linecap:round;stroke-linejoin:round;stroke-miterlimit:4;stroke-dasharray:none;stroke-opacity:1"
         inkscape:connector-curvature="0" />
      <path
         d="m 108.76641,776.71175 c -5.38705,-1.1419 -10.10627,-3.28654 -10.647568,-4.83901 -0.198766,-0.57004 -0.1815,-28.6268 0.03838,-62.34836 l 0.399743,-61.31175 -3.538368,-5.06539 c -4.550038,-6.51362 -6.031125,-12.70029 -4.474849,-18.69186 0.822947,-3.16817 1.230801,-22.02625 1.61206,-74.53949 0.564421,-77.73494 0.167646,-72.62437 6.203783,-79.90961 3.807189,-4.59526 12.237519,-8.40834 18.814909,-8.50983 5.33204,-0.0823 15.44005,2.03374 19.87487,4.16073 5.95889,2.85819 11.00611,9.19535 12.14265,15.24766 0.2969,1.58018 4.23223,30.57602 8.7452,64.43567 7.47034,56.04896 8.40735,61.94403 10.46132,65.81335 4.67492,8.8085 3.51879,18.86324 -3.03719,26.41385 -2.15518,2.48216 -3.50764,4.89027 -3.50425,6.2395 0.0139,5.44941 -5.31839,113.87491 -5.67824,115.45558 -0.55676,2.45238 -2.34281,3.00029 -10.58665,3.24738 -3.91692,0.11744 -7.53936,0.46026 -8.04984,0.76185 -0.51414,0.30376 -0.92813,3.14296 -0.92813,6.36521 v 5.81686 l -3.01796,1.20547 c -3.71198,1.48267 -17.93943,1.51212 -24.8301,0.0514 z"
         id="path3099"
         style="fill:#534c5d;stroke:#000000;stroke-width:1.70666671;stroke-linecap:round;stroke-linejoin:round;stroke-miterlimit:4;stroke-dasharray:none;stroke-opacity:1"
         inkscape:connector-curvature="0" />
      <path
         d="m 123.41279,461.54245 c -19.19172,-29.00949 -18.00992,-27.48039 -22.10882,-28.60351 -5.133192,-1.40662 -8.258799,-3.13671 -11.360299,-6.28816 -7.439719,-7.55919 -8.232695,-16.11286 -2.349774,-25.34565 l 3.11116,-4.8827 2.045359,-34.87626 2.045359,-34.87628 -3.531318,-3.66234 c -5.418467,-5.61944 -7.264015,-10.21197 -7.279419,-18.11533 -0.01149,-5.87394 0.328817,-7.33672 2.841904,-12.21692 5.336574,-10.36255 15.467028,-16.59623 27.168468,-16.71769 8.55061,-0.0888 14.24172,2.08483 20.08549,7.67125 5.73088,5.47853 7.93558,10.68951 7.87205,18.60451 -0.0677,8.43413 -3.83381,16.0197 -10.89646,21.94722 -2.38171,1.99896 -3.15084,3.30076 -3.19478,5.40755 -0.0319,1.5261 -0.95746,17.18773 -2.05694,34.8039 l -1.99906,32.0294 2.09322,4.00259 c 2.86784,5.48385 3.82764,10.93076 2.76689,15.70273 -0.63755,2.868 -0.58367,4.40758 0.20384,5.82352 0.98757,1.77551 5.12276,7.98073 23.55605,35.34798 3.75254,5.57113 6.82271,10.69949 6.82271,11.39665 0,0.69711 -1.27275,2.19389 -2.82833,3.32615 -3.43429,2.49971 -17.21973,9.6396 -18.64869,9.65874 -0.56443,0.007 -7.02608,-9.05477 -14.3592,-20.13943 z"
         id="path3097"
         style="fill:#755b6e;stroke:#000000;stroke-width:1.70666671;stroke-linecap:round;stroke-linejoin:round;stroke-miterlimit:4;stroke-dasharray:none;stroke-opacity:1"
         inkscape:connector-curvature="0" />
      <path
         d="m 56.869979,490.57145 c -0.262329,-0.6219 -0.324005,-36.88315 -0.137073,-80.58016 l 0.339895,-79.44767 1.909503,-4.68838 c 5.365328,-13.17317 15.351777,-26.32543 31.821317,-33.29453 17.910269,-7.57889 35.732599,-5.27386 55.391759,-1.14135 20.90664,4.39489 37.6913,18.08163 40.77296,33.24655 0.86576,4.26049 0.52105,161.31076 -0.36271,165.25463 l -0.3994,1.78187 h -64.4296 c -55.020047,0 -64.499233,-0.16514 -64.906642,-1.13073 z"
         id="path3093"
         style="fill:#755b6e;stroke:#000000;stroke-width:1.66540551;stroke-linecap:round;stroke-linejoin:round;stroke-miterlimit:4;stroke-dasharray:none;stroke-opacity:1"
         sodipodi:nodetypes="ccccsssccccc"
         inkscape:connector-curvature="0" />
      <path
         d="m 391.75961,311.54781 c -5.77487,3.72106 -16.28421,9.5735 -19.13979,10.65715 -3.71614,1.41135 -10.22327,6.09612 -8.71866,6.27679 0.71255,0.0857 6.66111,-2.13364 13.21903,-4.93168 12.20509,-5.20767 14.72752,-5.77517 15.38107,-3.46063 0.53517,1.89686 -2.11467,3.88926 -11.57316,8.70148 -4.58278,2.33165 -12.51642,7.14054 -17.63028,10.6867 -9.66399,6.70111 -17.95827,10.28124 -23.5568,10.16893 -1.6805,-0.0338 -5.26298,-0.58576 -7.96108,-1.22643 -4.84158,-1.14972 -4.95574,-1.12989 -8.73996,1.51735 -4.64059,3.24634 -6.29134,-1.92137 -11.38184,-2.42426 -12.8799,-1.27238 -17.33699,-8.53682 -8.33979,-18.14997 3.36074,-3.59086 6.85466,-8.6098 11.59953,-8.16864 l 3.12861,0.29065 1.19705,-5.50177 c 0.65836,-3.02598 2.09998,-7.0112 3.2035,-8.8559 3.07913,-5.14764 10.27931,-10.63675 16.92014,-12.89876 5.79646,-1.97456 8.31597,-1.86939 8.07742,0.33719 -0.1241,1.14828 -6.14475,5.64359 -10.83792,8.09166 -2.66353,1.38954 -3.44565,3.59328 -1.3488,3.80044 2.28184,0.22541 8.55262,-2.29513 36.09138,-14.50753 10.80217,-4.79032 14.4671,-5.60788 14.9834,-3.34335 0.41582,1.8221 -4.52315,5.332 -15.01804,10.67289 -8.86809,4.51281 -17.54832,10.04995 -14.43922,9.21044 2.29934,-0.62065 19.89536,-7.3926 26.45114,-10.17907 7.85182,-3.33805 11.35968,-3.72418 11.08904,-1.22034 -0.21331,1.97332 -3.751,4.44405 -12.77551,8.92229 -4.06773,2.01861 -7.83155,4.05868 -8.36406,4.53341 -0.53252,0.47477 -3.18642,2.09202 -5.8977,3.59391 -2.71123,1.50189 -4.77219,2.91558 -4.5801,3.14163 0.3529,0.41514 2.16648,-0.25818 13.8033,-5.12465 10.43224,-4.36276 17.66966,-6.72929 18.56352,-6.07124 1.62111,1.19423 0.54946,2.91272 -3.40537,5.46101 z"
         id="path3095"
         style="fill:#c2ac66;stroke:#000000;stroke-width:1.70666671;stroke-linecap:round;stroke-linejoin:round;stroke-miterlimit:4;stroke-dasharray:none;stroke-opacity:1"
         inkscape:connector-curvature="0" />
      <path
         d="m 293.68869,361.0405 c -32.15779,15.26747 -30.44524,14.30087 -32.0352,18.08305 -1.9913,4.7366 -4.11275,7.53086 -7.71074,10.15617 -8.63022,6.29738 -17.61204,6.17216 -26.61428,-0.37095 l -4.76076,-3.46031 -36.07928,-5.52995 -36.07931,-5.53 -4.17375,2.9815 c -6.40414,4.57478 -11.37245,5.85765 -19.59766,5.05987 -6.11314,-0.59289 -7.60023,-1.06683 -12.41986,-3.95816 -10.23394,-6.13976 -15.678849,-16.41359 -14.602431,-27.55298 0.786541,-8.13989 3.633251,-13.32813 10.046761,-18.31074 6.28962,-4.88637 11.93836,-6.44716 20.16761,-5.57316 8.76895,0.93136 16.27474,5.2923 21.7165,12.61747 1.83511,2.47027 3.11063,3.33544 5.29829,3.5938 1.58468,0.18715 17.7858,2.67721 36.0028,5.5335 l 33.12183,5.1933 4.37996,-1.579 c 6.00082,-2.16336 11.76712,-2.51613 16.62344,-1.01693 2.9187,0.90107 4.52621,1.00809 6.0805,0.4048 1.94894,-0.75657 8.8307,-4.05089 39.20172,-18.76598 6.18261,-2.9956 11.83438,-5.38789 12.5598,-5.31622 0.72534,0.0717 2.15198,1.43579 3.1702,3.03134 2.24797,3.52264 8.26015,17.36515 8.13314,18.72592 -0.0501,0.53751 -10.14386,5.75035 -22.43148,11.584 z"
         id="path3119"
         style="fill:#755b6e;stroke:#000000;stroke-width:1.70666671;stroke-linecap:round;stroke-linejoin:round;stroke-miterlimit:4;stroke-dasharray:none;stroke-opacity:1"
         inkscape:connector-curvature="0" />
      <path
         d="m 594.59486,834.00332 c -2.14269,-0.54108 -7.77264,-2.86277 -12.51089,-5.15932 -4.73846,-2.29657 -13.98557,-5.95125 -20.54882,-8.12142 -29.12754,-9.63075 -28.87512,-9.52647 -29.21236,-12.08207 -0.17418,-1.31937 1.13256,-5.32557 2.90388,-8.90272 1.96009,-3.9583 2.86136,-6.89055 2.30272,-7.49186 -1.53525,-1.6525 -39.66586,-2.53713 -50.68609,-1.17588 -10.43356,1.28876 -19.07315,0.32452 -24.79529,-2.76749 -3.58016,-1.93453 -3.66037,-6.62249 -0.24763,-14.47702 2.10527,-4.84507 2.39862,-6.70217 1.8734,-11.85655 -0.86006,-8.43876 0.17386,-13.13564 3.89554,-17.6989 7.74101,-9.48986 20.0709,-8.84247 27.34655,1.43589 2.56064,3.61721 2.8022,4.74326 2.80859,13.09053 l 0.007,9.13265 3.16029,1.38799 c 2.50497,1.10017 31.16597,6.81794 34.1752,6.81794 0.40026,0 2.15925,-2.37796 3.90892,-5.28432 5.57647,-9.26325 15.20084,-12.18947 24.1188,-7.33474 6.30354,3.43175 9.90864,9.48212 10.92944,18.34329 1.77681,15.42102 6.45201,19.09505 41.15851,32.34453 8.13312,3.10482 14.91548,7.68022 16.69748,11.26371 1.56019,3.13802 -1.88895,5.14902 -13.10356,7.63975 -9.91571,2.20238 -17.84689,2.49642 -24.18265,0.89673 z"
         id="path4030"
         style="fill:#694e2e;fill-opacity:1;stroke:#000000;stroke-width:1.70666659;stroke-linecap:round;stroke-linejoin:round;stroke-miterlimit:4;stroke-dasharray:none;stroke-opacity:1"
         inkscape:connector-curvature="0" />
      <path
         d="m 541.41436,788.98281 c -1.75645,-0.58562 -3.4696,-1.54533 -3.80684,-2.13278 -0.3373,-0.58744 -3.52828,-25.5775 -7.09117,-55.53354 -3.56279,-29.95603 -6.68388,-54.68724 -6.93571,-54.95789 -1.18105,-1.27124 -3.00295,4.35406 -14.40263,44.47065 -6.71422,23.62718 -12.65657,43.56207 -13.20534,44.30095 -4.03044,5.42341 -31.6838,-4.64478 -31.6838,-11.53543 0,-1.16869 7.44956,-28.35046 16.5548,-60.40395 15.01327,-52.85292 16.48296,-58.72857 15.78353,-63.11141 -0.4241,-2.65806 -0.69588,-8.94073 -0.60397,-13.96151 0.0919,-5.02078 -0.54055,-23.38554 -1.40544,-40.81058 l -1.57256,-31.68189 -7.3938,-33.6741 c -4.06656,-18.52048 -7.38938,-35.67704 -7.384,-38.12568 0.0219,-9.98774 7.787,-20.66304 16.8641,-23.1847 9.48908,-2.6355 17.58749,-3.50799 21.63638,-2.33071 5.75198,1.6728 11.95814,6.8419 14.39964,11.99402 2.45459,5.17885 2.65933,6.98762 4.43016,39.14056 l 1.36034,24.70114 9.08558,40.81057 c 7.73911,34.76203 9.69502,42.11115 13.19834,49.58378 3.873,8.26264 4.08203,9.18066 3.59044,15.77221 -0.28715,3.85059 -1.4735,9.11451 -2.63749,11.70298 -1.16358,2.58718 -2.11554,6.06745 -2.11554,7.73404 0,1.66657 3.14293,29.33958 6.98431,61.49509 8.47256,70.92234 8.64736,72.79211 7.00586,74.9207 -3.00805,3.90127 -23.66482,7.14776 -30.65312,4.81758 z"
         id="path4024"
         style="fill:#c44232;stroke:#000000;stroke-width:1.70666659;stroke-linecap:round;stroke-linejoin:round;stroke-miterlimit:4;stroke-dasharray:none;stroke-opacity:1"
         inkscape:connector-curvature="0" />
      <path
         d="m 512.26764,312.64144 c -0.3131,-0.5453 -1.75526,-12.31942 -3.2047,-26.16387 -1.44945,-13.84446 -2.95087,-26.57091 -3.3365,-28.28174 -0.60481,-2.68243 -1.58644,-3.41961 -7.15013,-5.36981 -20.8242,-7.29918 -33.7781,-25.84599 -33.86291,-48.48404 -0.11171,-29.7101 23.29066,-53.80338 50.28699,-51.77144 32.67159,2.45873 52.57686,39.96966 38.48752,72.52899 -3.44875,7.96966 -12.34326,18.45282 -19.15196,22.57254 -2.62191,1.58646 -4.95008,3.39781 -5.17377,4.02522 -0.22371,0.62747 0.89997,13.67261 2.49708,28.98946 1.59711,15.31687 2.70812,28.39773 2.46886,29.06895 -0.23921,0.671 -3.05234,1.54672 -6.25126,1.94612 -3.199,0.39941 -7.89146,0.99722 -10.42757,1.32851 -2.5363,0.33126 -4.86766,0.15614 -5.18076,-0.38916 z"
         id="path4099"
         style="fill:#694e2e;stroke:#000000;stroke-width:1.70666659;stroke-linecap:round;stroke-linejoin:round;stroke-miterlimit:4;stroke-dasharray:none;stroke-opacity:1"
         inkscape:connector-curvature="0" />
      <path
         d="m 521.92429,437.07084 c -21.18944,-29.3326 -19.88462,-27.78649 -24.41019,-28.9221 -5.66752,-1.4223 -9.11847,-3.17166 -12.5428,-6.35821 -8.21414,-7.64338 -9.08966,-16.29234 -2.59438,-25.62797 l 3.43502,-4.93707 2.25826,-35.26475 2.25826,-35.26475 -3.8989,-3.70312 c -5.98249,-5.68204 -8.02014,-10.32572 -8.03714,-18.31712 -0.0127,-5.93937 0.36305,-7.41844 3.13771,-12.353 5.89207,-10.47797 17.07703,-16.78108 29.99649,-16.90388 9.44068,-0.0898 15.72419,2.10804 22.17624,7.75668 6.32741,5.53955 8.76161,10.80858 8.69147,18.81175 -0.0748,8.52806 -4.23289,16.19812 -12.03068,22.19167 -2.62963,2.02122 -3.47883,3.33753 -3.52735,5.46778 -0.0352,1.5431 -1.05711,17.37918 -2.27104,35.19156 l -2.20715,32.38617 2.31112,4.04717 c 3.16635,5.54494 4.22606,11.05251 3.05489,15.87764 -0.70392,2.89994 -0.64443,4.45666 0.22502,5.88838 1.09037,1.79529 5.65599,8.06963 26.00804,35.7417 4.14315,5.63318 7.5329,10.81867 7.5329,11.5236 0,0.70487 -1.40523,2.21832 -3.12273,3.36318 -3.79177,2.52757 -19.01216,9.74699 -20.58986,9.76634 -0.6232,0.007 -7.75745,-9.15562 -15.85387,-20.36375 z"
         id="path3903"
         style="fill:#5aa84b;fill-opacity:1;stroke:#000000;stroke-width:1.80325282;stroke-linecap:round;stroke-linejoin:round;stroke-miterlimit:4;stroke-dasharray:none;stroke-opacity:1"
         inkscape:connector-curvature="0" />
      <path
         d="m 460.28353,480.84212 c -5.7637,-0.39605 -11.49947,-1.05581 -12.74603,-1.46605 l -2.26646,-0.74596 0.27039,-91.38124 0.27041,-91.38123 3.24933,-6.81243 c 2.27525,-4.77027 5.32906,-8.83771 10.18704,-13.56842 30.05311,-29.26532 86.65622,-21.82587 103.62697,13.62199 l 3.69975,7.72782 0.0313,72.17115 c 0.0172,39.69353 -0.20736,80.74802 -0.49902,91.23083 l -0.53026,19.05965 -19.43393,0.28061 c -10.93457,0.15787 -19.86108,0.72115 -20.41001,1.28781 -1.10484,1.1405 -48.75747,1.12298 -65.44976,-0.024 z"
         id="path4020"
         style="fill:#5aa84b;stroke:#000000;stroke-width:1.67181456;stroke-linecap:round;stroke-linejoin:round;stroke-miterlimit:4;stroke-dasharray:none;stroke-opacity:1"
         inkscape:connector-curvature="0" />
      <path
         d="m 431.85619,514.17298 c -0.65852,-0.70882 -1.1973,-2.89873 -1.1973,-4.86656 0,-2.28979 -0.57505,-3.81536 -1.59731,-4.23752 -1.33201,-0.55019 -1.48676,-1.77076 -0.93182,-7.34871 l 0.66549,-6.68896 -2.56034,0.52683 c -2.08083,0.42815 -2.56035,0.11097 -2.56035,-1.69343 0,-3.47921 1.9586,-13.00354 4.07185,-19.80172 1.26975,-4.08439 2.09489,-10.45159 2.41887,-18.66655 0.57172,-14.49419 2.03362,-18.18863 8.42436,-21.29023 12.20957,-5.92601 26.41066,8.62607 20.47499,20.98093 -1.88645,3.92673 -1.45323,19.78777 0.89307,32.6925 0.85913,4.72543 1.57776,11.8211 1.59691,15.76792 0.0325,6.71441 -0.15166,7.31905 -2.86307,9.39717 -4.716,3.61453 -5.69919,2.96113 -8.24717,-5.48086 -3.87977,-12.85425 -7.00714,-12.47085 -10.82467,1.32795 -1.08117,3.90762 -2.78924,7.90695 -3.79567,8.88726 -2.18389,2.1273 -2.42236,2.15695 -3.96758,0.49371 z"
         id="path4028"
         style="fill:#6d5231;stroke:#000000;stroke-width:1.70666659;stroke-linecap:round;stroke-linejoin:round;stroke-miterlimit:4;stroke-dasharray:none;stroke-opacity:1"
         inkscape:connector-curvature="0" />
      <path
         d="m 435.57783,446.80331 -2.91654,-3.1393 v -41.73634 l -2.63329,-3.05842 c -10.59419,-12.3044 -7.34938,-28.58352 7.40896,-37.16985 2.16793,-1.26127 8.16585,-9.97271 20.3343,-29.53397 l 17.25921,-27.74475 0.0177,-10.73962 c 0.0152,-9.28462 0.35209,-11.44415 2.48572,-15.94084 8.19997,-17.28005 29.70325,-21.24619 42.80281,-7.89436 7.63445,7.78128 10.44952,22.48125 6.22312,32.49702 -3.88178,9.19924 -13.96063,17.61085 -21.1375,17.63984 -1.41342,0.005 -3.49355,1.09791 -4.62242,2.42694 -1.12886,1.32903 -9.73801,14.56938 -19.131,29.42443 -12.21855,19.32165 -17.08062,27.87899 -17.08461,30.07094 -0.01,5.40666 -1.962,10.87925 -5.51322,15.45433 l -3.46112,4.45899 v 20.75324 c 0,11.41408 -0.2789,21.53511 -0.61978,22.49093 -0.99525,2.79166 -5.86672,4.88095 -11.38043,4.88095 -4.32318,0 -5.56659,-0.48603 -8.03165,-3.1393 z"
         id="path4022"
         style="fill:#5aa84b;stroke:#000000;stroke-width:1.70666659;stroke-linecap:round;stroke-linejoin:round;stroke-miterlimit:4;stroke-dasharray:none;stroke-opacity:1"
         inkscape:connector-curvature="0" />
      <path
         id="path3895"
         d="m 136.60449,762.85627 5.9544,-118.23735 -10.20755,-108.0298"
         style="fill:none;fill-rule:evenodd;stroke:#000000;stroke-width:1.70666671;stroke-linecap:butt;stroke-linejoin:miter;stroke-miterlimit:4;stroke-dasharray:none;stroke-opacity:1"
         inkscape:connector-curvature="0" />
      <path
         id="path3897"
         d="m 494.28695,539.55956 30.62262,136.95117"
         style="fill:none;fill-rule:evenodd;stroke:#000000;stroke-width:1.70666671;stroke-linecap:butt;stroke-linejoin:miter;stroke-miterlimit:4;stroke-dasharray:none;stroke-opacity:1"
         inkscape:connector-curvature="0" />
      <path
         id="path3899"
         d="m 540.22089,784.54053 -2.55189,5.9544"
         style="fill:none;fill-rule:evenodd;stroke:#000000;stroke-width:1.70666671;stroke-linecap:butt;stroke-linejoin:miter;stroke-miterlimit:4;stroke-dasharray:none;stroke-opacity:1"
         inkscape:connector-curvature="0" />
      <path
         id="path3901"
         d="m 135.75386,773.91444 56.9921,23.81759"
         style="fill:none;fill-rule:evenodd;stroke:#000000;stroke-width:1.70666671;stroke-linecap:butt;stroke-linejoin:miter;stroke-miterlimit:4;stroke-dasharray:none;stroke-opacity:1"
         inkscape:connector-curvature="0" />
    </g>
  </g>
</svg>
