<?xml version="1.0" encoding="UTF-8" standalone="no"?>
<!-- Created with Inkscape (http://www.inkscape.org/) -->

<svg
   xmlns:dc="http://purl.org/dc/elements/1.1/"
   xmlns:cc="http://creativecommons.org/ns#"
   xmlns:rdf="http://www.w3.org/1999/02/22-rdf-syntax-ns#"
   xmlns:svg="http://www.w3.org/2000/svg"
   xmlns="http://www.w3.org/2000/svg"
   xmlns:sodipodi="http://sodipodi.sourceforge.net/DTD/sodipodi-0.dtd"
   xmlns:inkscape="http://www.inkscape.org/namespaces/inkscape"
   id="svg2994"
   sodipodi:docname="surprised-Blob-surprised.svg"
   viewBox="0 0 280 260"
   version="1.1"
   inkscape:version="0.92.1 r15371"
   width="298.66666"
   height="277.33334">
  <defs
     id="defs18" />
  <sodipodi:namedview
     id="base"
     bordercolor="#666666"
     inkscape:pageshadow="2"
     inkscape:window-y="21"
     fit-margin-left="0"
     pagecolor="#ffffff"
     inkscape:window-height="722"
     inkscape:window-maximized="1"
     inkscape:zoom="2.1205983"
     inkscape:window-x="0"
     showgrid="false"
     borderopacity="1.0"
     inkscape:current-layer="svg2994"
     inkscape:cx="140.06533"
     inkscape:cy="131.75272"
     fit-margin-top="0"
     fit-margin-right="0"
     fit-margin-bottom="0"
     inkscape:window-width="1366"
     inkscape:pageopacity="0.0"
     inkscape:document-units="px" />
  <path
     id="path3005"
     sodipodi:rx="136.03075"
     sodipodi:ry="111.58283"
     style="fill:#ff0000"
     sodipodi:type="arc"
     d="M 431.95494,491.4041 A 136.03075,111.58283 0 0 1 361.31866,638.1816 136.03075,111.58283 0 0 1 182.38027,580.24404 136.03075,111.58283 0 0 1 253.00746,433.46361 136.03075,111.58283 0 0 1 431.94943,491.3937"
     sodipodi:open="true"
     transform="matrix(1,0,0,0.94005,-167.1,-358)"
     sodipodi:cy="535.82147"
     sodipodi:cx="307.16623"
     sodipodi:end="5.8736757"
     sodipodi:start="5.8737773" />
  <path
     id="path3005-3"
     sodipodi:rx="136.03075"
     sodipodi:ry="111.58283"
     style="fill:#ff0000"
     sodipodi:type="arc"
     d="M 431.95494,491.4041 A 136.03075,111.58283 0 0 1 361.31866,638.1816 136.03075,111.58283 0 0 1 182.38027,580.24404 136.03075,111.58283 0 0 1 253.00746,433.46361 136.03075,111.58283 0 0 1 431.94943,491.3937"
     sodipodi:open="true"
     transform="matrix(0.45569,0,0,0.45569,-39.296,-170.04)"
     sodipodi:cy="535.82147"
     sodipodi:cx="307.16623"
     sodipodi:end="5.8736757"
     sodipodi:start="5.8737773" />
  <path
     id="path3005-3-1"
     sodipodi:rx="136.03075"
     sodipodi:ry="111.58283"
     style="fill:#ff0000"
     sodipodi:type="arc"
     d="M 431.95494,491.4041 A 136.03075,111.58283 0 0 1 361.31866,638.1816 136.03075,111.58283 0 0 1 182.38027,580.24404 136.03075,111.58283 0 0 1 253.00746,433.46361 136.03075,111.58283 0 0 1 431.94943,491.3937"
     sodipodi:open="true"
     transform="matrix(0.45569,0,0,0.45569,45.714,-164.03)"
     sodipodi:cy="535.82147"
     sodipodi:cx="307.16623"
     sodipodi:end="5.8736757"
     sodipodi:start="5.8737773" />
  <path
     id="path3005-3-2"
     sodipodi:rx="136.03075"
     sodipodi:ry="111.58283"
     style="fill:#ffffff"
     sodipodi:type="arc"
     d="M 431.95494,491.4041 A 136.03075,111.58283 0 0 1 361.31866,638.1816 136.03075,111.58283 0 0 1 182.38027,580.24404 136.03075,111.58283 0 0 1 253.00746,433.46361 136.03075,111.58283 0 0 1 431.94943,491.3937"
     sodipodi:open="true"
     transform="matrix(0.37522,0,0,0.37522,-13.508,-124.42)"
     sodipodi:cy="535.82147"
     sodipodi:cx="307.16623"
     sodipodi:end="5.8736757"
     sodipodi:start="5.8737773" />
  <path
     id="path3005-3-2-8"
     sodipodi:rx="136.03075"
     sodipodi:ry="111.58283"
     style="fill:#ffffff"
     sodipodi:type="arc"
     d="M 431.95494,491.4041 A 136.03075,111.58283 0 0 1 361.31866,638.1816 136.03075,111.58283 0 0 1 182.38027,580.24404 136.03075,111.58283 0 0 1 253.00746,433.46361 136.03075,111.58283 0 0 1 431.94943,491.3937"
     sodipodi:open="true"
     transform="matrix(0.37522,0,0,0.37522,71.647,-119.09)"
     sodipodi:cy="535.82147"
     sodipodi:cx="307.16623"
     sodipodi:end="5.8736757"
     sodipodi:start="5.8737773" />
  <path
     id="path3005-3-2-7"
     sodipodi:rx="136.03075"
     sodipodi:ry="111.58283"
     style="fill:#000000"
     sodipodi:type="arc"
     d="M 431.95494,491.4041 A 136.03075,111.58283 0 0 1 361.31866,638.1816 136.03075,111.58283 0 0 1 182.38027,580.24404 136.03075,111.58283 0 0 1 253.00746,433.46361 136.03075,111.58283 0 0 1 431.94943,491.3937"
     sodipodi:open="true"
     transform="matrix(0.12712,0,0,0.12712,88.551,21.468)"
     sodipodi:cy="535.82147"
     sodipodi:cx="307.16623"
     sodipodi:end="5.8736757"
     sodipodi:start="5.8737773" />
  <path
     id="path3005-3-2-7-2"
     sodipodi:rx="136.03075"
     sodipodi:ry="111.58283"
     style="fill:#000000"
     sodipodi:type="arc"
     d="M 431.95494,491.4041 A 136.03075,111.58283 0 0 1 361.31866,638.1816 136.03075,111.58283 0 0 1 182.38027,580.24404 136.03075,111.58283 0 0 1 253.00746,433.46361 136.03075,111.58283 0 0 1 431.94943,491.3937"
     sodipodi:open="true"
     transform="matrix(0.12712,0,0,0.12712,118.66,23.582)"
     sodipodi:cy="535.82147"
     sodipodi:cx="307.16623"
     sodipodi:end="5.8736757"
     sodipodi:start="5.8737773" />
  <path
     id="path3005-3-2-7-9"
     sodipodi:rx="136.03075"
     sodipodi:ry="111.58283"
     style="fill:#ffffff"
     sodipodi:type="arc"
     d="M 431.95494,491.4041 A 136.03075,111.58283 0 0 1 361.31866,638.1816 136.03075,111.58283 0 0 1 182.38027,580.24404 136.03075,111.58283 0 0 1 253.00746,433.46361 136.03075,111.58283 0 0 1 431.94943,491.3937"
     sodipodi:open="true"
     transform="matrix(0.031009,0,0,0.031009,123.55,68.611)"
     sodipodi:cy="535.82147"
     sodipodi:cx="307.16623"
     sodipodi:end="5.8736757"
     sodipodi:start="5.8737773" />
  <path
     id="path3005-3-2-7-9-9"
     sodipodi:rx="136.03075"
     sodipodi:ry="111.58283"
     style="fill:#ffffff"
     sodipodi:type="arc"
     d="M 431.95494,491.4041 A 136.03075,111.58283 0 0 1 361.31866,638.1816 136.03075,111.58283 0 0 1 182.38027,580.24404 136.03075,111.58283 0 0 1 253.00746,433.46361 136.03075,111.58283 0 0 1 431.94943,491.3937"
     sodipodi:open="true"
     transform="matrix(0.031009,0,0,0.031009,155.05,70.214)"
     sodipodi:cy="535.82147"
     sodipodi:cx="307.16623"
     sodipodi:end="5.8736757"
     sodipodi:start="5.8737773" />
  <path
     id="path3905"
     sodipodi:nodetypes="csssc"
     style="fill:#000000"
     inkscape:connector-curvature="0"
     d="m 203.27,187.17 c 15.171,14.523 -0.87282,31.404 -35.835,37.706 -34.962,6.3018 -75.603,-0.36255 -90.773,-14.885 -15.171,-14.523 70.384,-58.158 105.9,-57.523 43.453,0.77633 5.5286,20.179 20.702,34.7" />
  <path
     id="path3908"
     style="fill:#000000"
     d="m 69.962,9.0952 c 7.9822,2.7551 4.1541,9.2134 -12.615,13.853 -14.344,3.9685 -19.98,30.126 -27.962,27.371 -7.9822,-2.7551 7.2032,-32.016 19.926,-39.737 12.722,-7.7204 12.667,-4.2416 20.65,-1.4875"
     inkscape:transform-center-x="12.651903"
     inkscape:transform-center-y="-9.7929997"
     inkscape:connector-curvature="0"
     sodipodi:nodetypes="csssc" />
  <path
     id="path3908-1"
     style="fill:#000000"
     d="m 223.05,19.846 c -8.1718,2.1277 -4.8562,8.8635 11.502,14.79 13.993,5.0691 17.583,31.585 25.755,29.457 8.1718,-2.1277 -4.6983,-32.478 -16.784,-41.163 -12.085,-8.6839 -12.299,-5.2113 -20.472,-3.0846"
     inkscape:transform-center-x="-13.286087"
     inkscape:transform-center-y="-8.4053978"
     inkscape:connector-curvature="0"
     sodipodi:nodetypes="csssc" />
  <metadata
     id="metadata15">
    <rdf:RDF>
      <cc:Work>
        <dc:format>image/svg+xml</dc:format>
        <dc:type
           rdf:resource="http://purl.org/dc/dcmitype/StillImage" />
        <cc:license
           rdf:resource="http://creativecommons.org/licenses/publicdomain/" />
        <dc:publisher>
          <cc:Agent
             rdf:about="http://openclipart.org/">
            <dc:title>Openclipart</dc:title>
          </cc:Agent>
        </dc:publisher>
      </cc:Work>
      <cc:License
         rdf:about="http://creativecommons.org/licenses/publicdomain/">
        <cc:permits
           rdf:resource="http://creativecommons.org/ns#Reproduction" />
        <cc:permits
           rdf:resource="http://creativecommons.org/ns#Distribution" />
        <cc:permits
           rdf:resource="http://creativecommons.org/ns#DerivativeWorks" />
      </cc:License>
    </rdf:RDF>
  </metadata>
</svg>
