<?xml version="1.0" encoding="UTF-8" standalone="no"?>
<!-- Created with Inkscape (http://www.inkscape.org/) -->

<svg
   xmlns:dc="http://purl.org/dc/elements/1.1/"
   xmlns:cc="http://creativecommons.org/ns#"
   xmlns:rdf="http://www.w3.org/1999/02/22-rdf-syntax-ns#"
   xmlns:svg="http://www.w3.org/2000/svg"
   xmlns="http://www.w3.org/2000/svg"
   xmlns:sodipodi="http://sodipodi.sourceforge.net/DTD/sodipodi-0.dtd"
   xmlns:inkscape="http://www.inkscape.org/namespaces/inkscape"
   id="svg1901"
   sodipodi:docname="thought-baloon-thought-bubble.svg"
   viewBox="0 0 378.08 321.32"
   sodipodi:version="0.32"
   version="1.0"
   inkscape:output_extension="org.inkscape.output.svg.inkscape"
   inkscape:version="0.92.1 r15371"
   width="403.28531"
   height="342.74133">
  <defs
     id="defs8" />
  <sodipodi:namedview
     id="base"
     bordercolor="#666666"
     inkscape:pageshadow="2"
     inkscape:window-y="106"
     pagecolor="#ffffff"
     gridtolerance="10000"
     inkscape:window-height="739"
     inkscape:zoom="0.98994949"
     inkscape:window-x="101"
     showgrid="false"
     borderopacity="1.0"
     inkscape:current-layer="layer1"
     inkscape:cx="208.79972"
     inkscape:cy="187.27805"
     inkscape:window-width="877"
     inkscape:pageopacity="0.0"
     inkscape:document-units="px" />
  <g
     id="layer1"
     inkscape:label="Taso 1"
     inkscape:groupmode="layer"
     transform="translate(-381.97,-279.52)">
    <path
       id="path2393"
       style="fill:#ffffff;stroke:#000000;stroke-width:6"
       d="m 390.1,595.62 c -2.82,-3 -2.76,-6.78 0.14,-9.51 3.01,-2.82 6.78,-2.77 9.51,0.14 2.83,3 2.77,6.78 -0.14,9.51 -3,2.82 -6.78,2.76 -9.51,-0.14 z m 20.59,-12.25 c -7.53,-4.09 -7.41,-15.98 0.21,-19.92 5.74,-2.97 12.71,-0.97 15.51,4.45 5.34,10.32 -5.52,21 -15.72,15.47 z m 29.24,-18.68 c -9.87,-5.28 -13.81,-17.31 -8.75,-26.76 5.27,-9.87 17.3,-13.8 26.75,-8.75 9.87,5.28 13.8,17.3 8.75,26.75 -5.28,9.87 -17.3,13.81 -26.75,8.76 z m 149.11,-18.3 c -12.88,-2.8 -21.11,-6.21 -30.96,-12.85 l -5.34,-3.6 -9.16,4.52 c -5.03,2.48 -12.3,5.17 -16.15,5.98 -36.02,7.51 -71.3,-14.34 -80.5,-49.88 -1.25,-4.84 -2.27,-7.01 -3.17,-6.77 -0.73,0.2 -4.93,0.59 -9.33,0.87 -14.57,0.95 -26.44,-3.74 -36.7,-14.49 -6.1,-6.4 -8.75,-10.94 -11.19,-19.17 -3.28,-11.07 -1.27,-26.63 4.72,-36.43 3.78,-6.2 12.29,-14.13 18.51,-17.25 l 5.75,-2.89 1.25,-6.5 c 4.73,-24.59 27.01,-43 52.07,-43 h 5.8 l 0.64,-6.08 c 2.49,-23.82 20.48,-45.6 44.65,-54.06 5.52,-1.93 8.53,-2.27 20,-2.27 11.47,0 14.48,0.34 20,2.27 18.26,6.39 32.79,19.82 40.13,37.06 1.57,3.7 3.36,6.49 4.08,6.38 0.71,-0.11 3.99,-1.19 7.29,-2.38 8.17,-2.97 22.66,-3.67 31.73,-1.54 17.52,4.12 33.12,16.4 40.49,31.85 2.31,4.84 3.12,5.73 4.78,5.25 4.46,-1.29 18.37,-1.63 24,-0.58 9.65,1.81 19.76,7.2 27.51,14.69 22.33,21.55 22.87,55.19 1.27,77.57 -11.45,11.86 -25.83,17.48 -42.42,16.58 l -8.63,-0.47 -1.2,7.44 c -6.69,41.45 -42.12,71.47 -84.03,71.2 -5.23,-0.04 -12.38,-0.69 -15.89,-1.45 z"
       inkscape:export-ydpi="241.6386"
       inkscape:export-filename="C:\Documents and Settings\HP_Omistaja\Työpöytä\f.png"
       inkscape:export-xdpi="241.6386"
       inkscape:connector-curvature="0" />
  </g>
  <metadata
     id="metadata5">
    <rdf:RDF>
      <cc:Work>
        <dc:format>image/svg+xml</dc:format>
        <dc:type
           rdf:resource="http://purl.org/dc/dcmitype/StillImage" />
        <cc:license
           rdf:resource="http://creativecommons.org/licenses/publicdomain/" />
        <dc:publisher>
          <cc:Agent
             rdf:about="http://openclipart.org/">
            <dc:title>Openclipart</dc:title>
          </cc:Agent>
        </dc:publisher>
        <dc:title>Cartoon thought bubble</dc:title>
        <dc:date>2010-08-26T10:59:36</dc:date>
        <dc:description>A simple multi-purpose thought bubble</dc:description>
        <dc:source>https://openclipart.org/detail/82327/cartoon-thought-bubble-by-purzen</dc:source>
        <dc:creator>
          <cc:Agent>
            <dc:title>purzen</dc:title>
          </cc:Agent>
        </dc:creator>
        <dc:subject>
          <rdf:Bag>
            <rdf:li>balloon</rdf:li>
            <rdf:li>black</rdf:li>
            <rdf:li>bubble</rdf:li>
            <rdf:li>cartoon</rdf:li>
            <rdf:li>comic</rdf:li>
            <rdf:li>outline</rdf:li>
            <rdf:li>silhouette</rdf:li>
            <rdf:li>speech</rdf:li>
            <rdf:li>thought</rdf:li>
            <rdf:li>white</rdf:li>
          </rdf:Bag>
        </dc:subject>
      </cc:Work>
      <cc:License
         rdf:about="http://creativecommons.org/licenses/publicdomain/">
        <cc:permits
           rdf:resource="http://creativecommons.org/ns#Reproduction" />
        <cc:permits
           rdf:resource="http://creativecommons.org/ns#Distribution" />
        <cc:permits
           rdf:resource="http://creativecommons.org/ns#DerivativeWorks" />
      </cc:License>
    </rdf:RDF>
  </metadata>
</svg>
