<?xml version="1.0" encoding="UTF-8" standalone="no"?>
<!-- Created with Inkscape (http://www.inkscape.org/) -->

<svg
   xmlns:dc="http://purl.org/dc/elements/1.1/"
   xmlns:cc="http://creativecommons.org/ns#"
   xmlns:rdf="http://www.w3.org/1999/02/22-rdf-syntax-ns#"
   xmlns:svg="http://www.w3.org/2000/svg"
   xmlns="http://www.w3.org/2000/svg"
   xmlns:sodipodi="http://sodipodi.sourceforge.net/DTD/sodipodi-0.dtd"
   xmlns:inkscape="http://www.inkscape.org/namespaces/inkscape"
   id="svg2"
   sodipodi:docname="tuya-coffe-beans.svg"
   viewBox="0 0 260.35 160.16"
   version="1.1"
   inkscape:version="0.92.1 r15371"
   inkscape:label="Pozadí"
   width="277.70667"
   height="170.83734">
  <defs
     id="defs3">
    <filter
       id="filter3938"
       inkscape:collect="always"
       style="color-interpolation-filters:sRGB">
      <feGaussianBlur
         id="feGaussianBlur3940"
         stdDeviation="0.34379051"
         inkscape:collect="always" />
    </filter>
    <filter
       id="filter3893"
       inkscape:collect="always"
       style="color-interpolation-filters:sRGB">
      <feGaussianBlur
         id="feGaussianBlur3895"
         stdDeviation="1.2592606"
         inkscape:collect="always" />
    </filter>
    <filter
       id="filter3808"
       height="1.256"
       width="1.0115"
       y="-0.12801"
       x="-0.0057522999"
       inkscape:collect="always"
       style="color-interpolation-filters:sRGB">
      <feGaussianBlur
         id="feGaussianBlur3810"
         stdDeviation="0.79778779"
         inkscape:collect="always" />
    </filter>
    <filter
       id="filter3802"
       inkscape:collect="always"
       style="color-interpolation-filters:sRGB">
      <feGaussianBlur
         id="feGaussianBlur3804"
         stdDeviation="2.160246"
         inkscape:collect="always" />
    </filter>
    <radialGradient
       id="radialGradient6770"
       fx="252.85001"
       fy="408.07001"
       gradientUnits="userSpaceOnUse"
       cy="284.78"
       cx="304.37"
       gradientTransform="matrix(1,0,0,0.37281,0,183.71)"
       r="169.03999"
       inkscape:collect="always">
      <stop
         id="stop3785"
         style="stop-color:#492915"
         offset="0" />
      <stop
         id="stop3787"
         style="stop-color:#2b180c"
         offset="1" />
    </radialGradient>
    <radialGradient
       id="radialGradient6772"
       gradientUnits="userSpaceOnUse"
       cy="296.26001"
       cx="294.51999"
       gradientTransform="matrix(1,0,0,0.36287,0,162.15)"
       r="169.28999"
       inkscape:collect="always">
      <stop
         id="stop3777"
         style="stop-color:#784421"
         offset="0" />
      <stop
         id="stop3779"
         style="stop-color:#442612;stop-opacity:.50382"
         offset="1" />
    </radialGradient>
    <radialGradient
       id="radialGradient6783"
       fx="375.39999"
       fy="319.60001"
       gradientUnits="userSpaceOnUse"
       cy="391.13"
       cx="443.59"
       gradientTransform="matrix(8.3959,0.1871,-0.025024,3.4297,-4872.4,406.04)"
       r="171.73"
       inkscape:collect="always">
      <stop
         id="stop3875"
         style="stop-color:#553018"
         offset="0" />
      <stop
         id="stop3877"
         style="stop-color:#3e2311"
         offset=".75863" />
      <stop
         id="stop3879"
         style="stop-color:#522e17"
         offset="1" />
    </radialGradient>
    <linearGradient
       id="linearGradient6785"
       y2="303.04999"
       gradientUnits="userSpaceOnUse"
       x2="172.75"
       y1="326.79001"
       x1="171.75"
       inkscape:collect="always">
      <stop
         id="stop3861"
         style="stop-color:#220d00"
         offset="0" />
      <stop
         id="stop3863"
         style="stop-color:#5b2400"
         offset="1" />
    </linearGradient>
    <linearGradient
       id="linearGradient6787"
       y2="326.79001"
       gradientUnits="userSpaceOnUse"
       x2="171.75"
       y1="303.04999"
       x1="172.75"
       inkscape:collect="always">
      <stop
         id="stop3883"
         style="stop-color:#654a00"
         offset="0" />
      <stop
         id="stop3885"
         style="stop-color:#aa4400;stop-opacity:0"
         offset="1" />
    </linearGradient>
    <radialGradient
       id="radialGradient6789"
       gradientUnits="userSpaceOnUse"
       cy="274.29999"
       cx="548.92999"
       gradientTransform="matrix(1,0,0,0.5664,0,111.28)"
       r="158.14"
       inkscape:collect="always">
      <stop
         id="stop3958"
         style="stop-color:#492915"
         offset="0" />
      <stop
         id="stop3960"
         style="stop-color:#2b180c;stop-opacity:.83206"
         offset="1" />
    </radialGradient>
    <linearGradient
       id="linearGradient6791"
       y2="247.55"
       gradientUnits="userSpaceOnUse"
       x2="551.45001"
       y1="281.79999"
       x1="546.81"
       inkscape:collect="always">
      <stop
         id="stop3912"
         style="stop-color:#120a05"
         offset="0" />
      <stop
         id="stop3914"
         style="stop-color:#371f0f;stop-opacity:.94656"
         offset="1" />
    </linearGradient>
    <filter
       id="filter3854"
       inkscape:collect="always"
       style="color-interpolation-filters:sRGB">
      <feGaussianBlur
         id="feGaussianBlur3856"
         stdDeviation="2.1101044"
         inkscape:collect="always" />
    </filter>
    <filter
       id="filter3884"
       height="1.2007"
       width="1.0172"
       y="-0.10033"
       x="-0.0086115003"
       inkscape:collect="always"
       style="color-interpolation-filters:sRGB">
      <feGaussianBlur
         id="feGaussianBlur3886"
         stdDeviation="2.8559918"
         inkscape:collect="always" />
    </filter>
    <radialGradient
       id="radialGradient3892"
       fx="424.88"
       fy="69.825996"
       gradientUnits="userSpaceOnUse"
       cy="28.826"
       cx="401.51001"
       gradientTransform="matrix(1.4299,0.039225,-0.013961,0.41167,-174.25,15.895)"
       r="57.320999"
       inkscape:collect="always">
      <stop
         id="stop3866"
         style="stop-color:#834e0d"
         offset="0" />
      <stop
         id="stop3868"
         style="stop-color:#281b0b"
         offset="1" />
    </radialGradient>
    <linearGradient
       id="linearGradient3894"
       y2="-423.47"
       gradientUnits="userSpaceOnUse"
       x2="1409.4"
       y1="-484.57001"
       x1="1410.7"
       inkscape:collect="always">
      <stop
         id="stop3874"
         style="stop-color:#713e00"
         offset="0" />
      <stop
         id="stop3876"
         style="stop-color:#552f00;stop-opacity:0"
         offset="1" />
    </linearGradient>
    <radialGradient
       id="radialGradient3869"
       fx="362.32999"
       fy="572.23999"
       gradientUnits="userSpaceOnUse"
       cy="397.95999"
       cx="401.32001"
       gradientTransform="matrix(1.09,-0.14061,0.043557,0.29673,-58.959,319.45)"
       r="240"
       inkscape:collect="always">
      <stop
         id="stop3759"
         style="stop-color:#693900"
         offset="0" />
      <stop
         id="stop3761"
         style="stop-color:#331b00"
         offset="1" />
    </radialGradient>
  </defs>
  <sodipodi:namedview
     id="base"
     bordercolor="#666666"
     inkscape:pageshadow="2"
     inkscape:window-y="-8"
     fit-margin-left="10"
     pagecolor="#ffffff"
     inkscape:window-height="962"
     inkscape:window-maximized="1"
     inkscape:zoom="1.979899"
     inkscape:window-x="1272"
     showgrid="false"
     borderopacity="1.0"
     inkscape:current-layer="g6581"
     inkscape:cx="53.764398"
     inkscape:cy="55.817085"
     fit-margin-top="10"
     fit-margin-right="10"
     fit-margin-bottom="10"
     inkscape:window-width="1280"
     inkscape:pageopacity="0.0"
     inkscape:document-units="px" />
  <g
     id="layer1"
     inkscape:label="Vrstva 1"
     inkscape:groupmode="layer"
     transform="translate(-291.38,-60.824)">
    <g
       id="g6581"
       transform="matrix(0.1369,0,0,0.18598,167.21,122.96)">
      <g
         id="g6605"
         transform="matrix(0.96736,0.31549,-0.42558,0.7471,281.41,-212.09)">
        <g
           id="g6793"
           transform="matrix(0.38355,-0.93491,1.1072,0.44742,1040.5,-396.35)">
          <ellipse
             id="path2984"
             style="color:#000000;fill:url(#radialGradient3869)"
             inkscape:transform-center-x="-3.3928572"
             inkscape:transform-center-y="-1.25"
             cx="354.28571"
             cy="386.64789"
             rx="240"
             ry="117.14286" />
          <path
             id="path2986"
             d="m 561.71,372.11 c 5.3938,-21.027 -53.912,-74.82 -164.95,-32.834 -121.7,46.017 -250.55,-8.9946 -253.58,-0.89677 -7.6197,20.421 151.49,83.491 256.63,26.062 110.17,-60.178 157.06,26.525 161.89,7.6695 z"
             sodipodi:nodetypes="sssss"
             style="color:#000000;fill:#27170b;filter:url(#filter3854)"
             inkscape:connector-curvature="0" />
        </g>
      </g>
      <g
         id="g6774"
         transform="matrix(0.16778,0.12225,-0.22559,0.16778,1815.6,18.705)">
        <path
           id="path3821"
           d="m -135.78,1815 c -31.023,312.64 -713.87,543.4 -1289.6,505.01 -575.76,-38.39 -998.81,-308.57 -967.78,-621.21 31.023,-312.64 750.39,-473.55 1326.2,-435.16 575.76,38.39 962.29,238.72 931.26,551.37 z"
           sodipodi:nodetypes="sssss"
           style="color:#000000;fill:url(#radialGradient6783)"
           inkscape:connector-curvature="0" />
        <path
           id="path3844"
           style="color:#000000;fill:url(#linearGradient6785);stroke:url(#linearGradient6787);stroke-width:2;filter:url(#filter3893)"
           d="m 349.51,324.55 c -1.5413,24.778 -90.873,20.456 -169.96,3.5355 -81.286,-17.391 -137.09,28.433 -137.09,3.6073 0,-11.189 110.39,-38.995 189.5,-13.449 74.287,23.991 118.56,-9.9339 117.55,6.306 z"
           sodipodi:nodetypes="sssss"
           transform="matrix(7.3043,0,0,5.377,-2694.3,1.2222)"
           inkscape:connector-curvature="0" />
      </g>
      <g
         id="g6778"
         inkscape:transform-center-x="-22.857143"
         inkscape:transform-center-y="-9.2857143"
         transform="matrix(0.085732,0.16191,-0.29878,0.085732,2137.9,-89.857)">
        <path
           id="path3950"
           style="color:#000000;fill:#2b1100"
           inkscape:connector-curvature="0"
           d="M 1531.7,904.9 C 897.77,904.9 384,1118.25 384,1381.27 c 0,15.643 1.9257,31.121 5.4783,46.377 -0.10956,3.0588 -0.22789,6.1119 -0.22789,9.2418 0,302.27 517.95,585.76 1150.39999,585.76 632.49,0 1139.9,-283.49 1139.9,-585.76 0,-10.12 -0.6917,-19.852 -1.8261,-29.238 1.1476,-8.7272 1.8261,-17.535 1.8261,-26.381 0,-263.03 -514,-476.37 -1147.9,-476.37 z" />
        <ellipse
           id="path3897"
           style="color:#000000;fill:url(#radialGradient6789)"
           transform="matrix(7.3043,0,0,5.377,-2694.3,1.2222)"
           cx="578.57141"
           cy="256.64789"
           rx="157.14285"
           ry="88.571426" />
        <path
           id="path3907"
           style="color:#000000;fill:url(#linearGradient6791);filter:url(#filter3938)"
           d="m 728.57,264.51 c 14.687,15.044 -155.43,17.206 -193.26,7.8116 -122.97,-30.543 -98.412,-2.1174 -111.03,-7.8116 -3.5811,-1.616 5.8258,-29.669 81.806,-7.8116 80.151,23.057 218.59,3.8294 222.48,7.8116 z"
           sodipodi:nodetypes="sssss"
           inkscape:connector-curvature="0"
           transform="matrix(7.4481,0,0,9.14,-2755.3,-1055.9)" />
      </g>
      <g
         id="g3812"
         transform="matrix(1.7243,0,0,1.2693,771.45,-495.99)">
        <path
           id="path2986-5"
           d="m 306.44,193.06 c -79.452,0 -145.61,13.891 -163.69,41.781 -2.0328,2.32 -3.4482,5.5744 -4.2188,9.875 -0.4463,2.0118 -0.6875,4.0888 -0.6875,6.2188 0,0.32284 0.0208,0.64764 0.0312,0.96875 -0.01,0.4584 -0.0312,0.89972 -0.0312,1.375 0,56.69 77.219,115.28 170.58,115.28 91.448,0 164.38,-56.729 167.39,-111.81 0.39149,-1.909 0.625,-3.8373 0.625,-5.8125 0,-38.66 -76.506,-57.875 -170,-57.875 z"
           sodipodi:nodetypes="sccscsscss"
           style="color:#000000;fill:url(#radialGradient6770)"
           inkscape:connector-curvature="0" />
        <path
           id="path2984-1"
           d="m 476.43,250.93 c 0,38.66 -76.506,65 -170,65 -93.494,0 -168.57,-26.34 -168.57,-65 0,-38.66 75.078,-57.857 168.57,-57.857 93.494,0 170,19.197 170,57.857 z"
           sodipodi:nodetypes="sssss"
           style="color:#000000;fill:url(#radialGradient6772);filter:url(#filter3802)"
           inkscape:connector-curvature="0" />
        <path
           id="path3004"
           style="color:#000000;fill:#2b1100;filter:url(#filter3808)"
           d="m 472.14,259.15 c 0,10.651 -107.17,8.3608 -202.24,-0.11148 -91.024,-8.1113 -130.61,10.763 -130.61,0.11148 0,-10.651 147.19,-9.6986 235.6,-1.4492 90.939,8.4859 97.259,-9.202 97.259,1.4492 z"
           sodipodi:nodetypes="sssss"
           inkscape:connector-curvature="0"
           transform="matrix(1.0172,0,0,1.6019,-3.8197,-163.65)" />
      </g>
      <g
         id="g3888"
         transform="matrix(0.47674,0.39068,-0.86805,0.57403,1436,-150.19)">
        <path
           id="path3858"
           style="color:#000000;fill:url(#radialGradient3892)"
           d="m 463.21,52.184 c 0,14.103 -25.664,27.784 -57.321,27.784 -31.658,0 -57.321,-13.681 -57.321,-27.784 0,-14.103 25.307,-22.324 56.964,-22.324 31.658,0 57.679,8.2207 57.679,22.324 z"
           sodipodi:nodetypes="sssss"
           inkscape:connector-curvature="0"
           transform="matrix(7.3043,0,0,5.9787,-1510.9,-740.54)" />
        <path
           id="path3861"
           d="m 1856.9,-417.03 c 0,22.803 -217.33,-46.909 -430.43,-27.845 -214.67,19.204 -373.46,3.7365 -365.22,-18.244 5.5106,-14.69 206.75,8.8182 406.96,-12.482 212.46,-22.605 388.7,35.769 388.7,58.571 z"
           sodipodi:nodetypes="sssss"
           style="color:#000000;fill:#2b1100;stroke:url(#linearGradient3894);stroke-width:12.5340004;filter:url(#filter3884)"
           inkscape:connector-curvature="0" />
      </g>
    </g>
  </g>
  <metadata
     id="metadata67">
    <rdf:RDF>
      <cc:Work>
        <dc:format>image/svg+xml</dc:format>
        <dc:type
           rdf:resource="http://purl.org/dc/dcmitype/StillImage" />
        <cc:license
           rdf:resource="http://creativecommons.org/licenses/publicdomain/" />
        <dc:publisher>
          <cc:Agent
             rdf:about="http://openclipart.org/">
            <dc:title>Openclipart</dc:title>
          </cc:Agent>
        </dc:publisher>
        <dc:title>coffee beans</dc:title>
        <dc:date>2013-01-04T18:56:44</dc:date>
        <dc:description />
        <dc:source>https://openclipart.org/detail/174080/coffe-beans-by-jarda-174080</dc:source>
        <dc:creator>
          <cc:Agent>
            <dc:title>jarda</dc:title>
          </cc:Agent>
        </dc:creator>
        <dc:subject>
          <rdf:Bag>
            <rdf:li>coffee</rdf:li>
            <rdf:li>coffee beans</rdf:li>
          </rdf:Bag>
        </dc:subject>
      </cc:Work>
      <cc:License
         rdf:about="http://creativecommons.org/licenses/publicdomain/">
        <cc:permits
           rdf:resource="http://creativecommons.org/ns#Reproduction" />
        <cc:permits
           rdf:resource="http://creativecommons.org/ns#Distribution" />
        <cc:permits
           rdf:resource="http://creativecommons.org/ns#DerivativeWorks" />
      </cc:License>
    </rdf:RDF>
  </metadata>
</svg>
