<?xml version="1.0" encoding="UTF-8"?>
<svg xmlns:rdf="http://www.w3.org/1999/02/22-rdf-syntax-ns#" xmlns="http://www.w3.org/2000/svg" xmlns:cc="http://web.resource.org/cc/" xmlns:dc="http://purl.org/dc/elements/1.1/" xmlns:svg="http://www.w3.org/2000/svg" xmlns:inkscape="http://www.inkscape.org/namespaces/inkscape" xmlns:sodipodi="http://sodipodi.sourceforge.net/DTD/sodipodi-0.dtd" xmlns:ns1="http://sozi.baierouge.fr" xmlns:xlink="http://www.w3.org/1999/xlink" viewBox="0 0 468 283" version="1.0">
  <g transform="translate(0 283) scale(.156 -.156)">
    <path d="m711 1629c-28-20-41-35-37-45 3-8 2-13-3-10s-14-1-21-9c-6-8-27-19-45-25-24-8-33-17-32-31 1-10 5-19 11-19 5 0 1-9-9-20-16-18-16-20-1-35 9-9 16-12 16-6 0 5-5 13-10 16-6 4-7 11-4 17 8 12 33-28 34-53 0-8 7-24 15-35 13-18 14-18 8 6-3 17 1 13 16-14 11-21 18-43 15-47-3-5 0-9 5-9 6 0 11-7 11-15s-9-15-20-15-20-5-20-11c0-5-5-7-10-4-7 4-9-2-6-17 7-37 17-58 29-58 8 0 8-3 0-11-7-7-22-7-44-1-26 6-33 13-31 28 2 14 0 16-6 6-7-11-15-6-36 20-15 19-26 27-26 18 0-20 35-85 46-85 5 0 19-10 32-22 13-14 36-24 55-24 26-1 27-3 8-6-13-3-38-20-56-38-57-61-107-50-89 19 3 15 2 26-4 26-5 0-7 11-4 25 2 14 8 22 13 19s9-1 9 4-13 12-30 16c-19 3-30 12-30 22s-5 14-16 10c-8-3-12-2-9 4 9 14 35 13 35-2 0-6 3-8 6-5 11 10-17 37-38 37-23 0-34-25-19-43 8-10 7-17-1-25-9-9-7-12 9-12 13 0 20-6 19-16 0-9 7-18 17-19 23-4 22 4-5 32-22 23-15 31 12 13 8-5 15-19 15-32 1-13 5-29 8-36 5-6-1-16-13-22-13-7-20-7-20 0 0 5 5 10 10 10 6 0 10 5 10 11s-6 9-14 6c-7-3-19 0-25 6-9 9-11 7-6-8 4-11 11-30 17-41 7-15 7-28-1-42s-8-28-1-44c10-23 11-23 6 0-6 30 5 28 39-8 16-16 37-30 48-30 16 0 17 2 3 15-8 8-17 15-21 15-3 0-11 5-18 10-7 6-21 17-32 25-11 7-17 17-13 20 4 4 14 1 22-6 8-8 23-21 33-29 15-13 61-19 158-21 10 0 26-5 35-12 8-6 12-8 8-3-4 4-1 14 5 21 9 10 15 10 26 1 12-9 12-8 3 11-10 18-9 20 8 16 21-6 35-36 25-55-4-7 0-5 8 5 14 17 15 17 13-7 0-13-3-23-4-21-2 2-13-6-24-17-21-21-18-31 10-33 9 0 23-4 30-9 16-9 16 6 0 23-11 11-10 12 2 5 8-5 22-7 32-6 23 4 32-15 15-32-10-11-13-29-9-63 7-70 7-112-1-162-9-55-26-78-28-36-1 17-1 34 0 38 1 5-3 6-9 2-13-8-13-101 0-125 7-13 7-21 0-25-5-3-10-14-9-23 0-12 4-9 11 8 6 14 10 31 9 37-1 7 4 10 13 7 9-4 16 2 19 18 4 21 4 21 6-4 0-15-7-35-16-44-17-17-17-18 1-11 17 7 18 4 11-40-5-27-8-63-7-81 0-25-3-32-14-28-8 3-14-1-14-8 0-17-48-27-57-13-3 5-1 7 5 3 6-3 13-2 16 3 4 5 0 8-6 7-21-3-39-17-33-26 3-4-4-6-15-3-25 7-25 18-1 35s35 53 22 75c-10 17-11 17-12-2-1-11-5-4-9 15l-7 35-2-30c0-17-7-37-13-44-11-10-9-11 7-5 17 7 18 5 8-8-7-8-11-17-8-20s-4-13-15-23c-19-17-29-41-12-32 4 3 13-1 20-9 10-11 8-15-13-20-14-4-32-1-40 6-13 10-13 14 0 27 8 8 15 22 15 32 0 9 5 22 11 28 8 8 8 19 1 40-8 23-11 24-12 8-1-11-2-26-1-33 1-6-3-12-9-12-5 0-10-7-10-15 0-19-19-19-26 0-5 11-11 12-25 4-20-10-28 4-9 16 6 3 10 16 10 29 0 12 5 27 11 33s10 33 8 61-2 49 1 47 14 44 24 103c25 143 53 232 72 232 34 0 64-32 66-69l1-36 4 33c5 35-18 82-40 82-6 1-25 8-42 16-16 8-22 12-12 9 30-8 41 6 15 20-16 8-27 9-37 1s-18-4-33 13c-14 18-22 21-30 13-7-7-21-12-31-12-12 0-17-5-14-14 9-24-75-10-96 17l-18 22 11-23c6-13 27-30 45-38 18-7 36-22 38-31 4-16 6-15 12 4 9 27 33 37 51 22 11-9 14-8 14 1s6 8 19-4c12-11 17-25 13-34-5-15-4-15 11-3s16 10 11-20c-4-19-12-45-17-59-6-14-9-32-8-40 2-11-2-11-18 4-12 11-21 25-21 33 0 7-4 13-9 13s-8-14-6-31c3-18 2-29-2-26-3 4-7 20-9 37-2 18-13 43-24 57l-20 26v-32c0-17 5-31 10-31 6 0 10 5 10 12 0 6 2 9 5 6 9-8-6-38-16-32-5 3-9-7-9-21 0-15 4-24 10-20s10-10 10-35c0-26 4-39 10-35s8 15 5 25c-4 13-1 17 12 16 24-1 34-17 27-40-4-11-2-16 4-12 6 3 13 2 17-4 3-5 2-10-3-10-6 0-10-6-9-12 0-7-1-26-2-43-1-24-3-27-12-15-7 11-9-1-7-43 3-49 1-55-10-40-7 10-11 28-9 41 2 12 0 22-5 22-4 0-7-18-6-40 2-22 6-40 9-40s6-22 5-48c-1-37-5-49-16-48-8 1-15-8-16-19-2-40-4-46-13-40-5 3-17-8-27-24-18-30-39-34-55-10-7 11-11 11-17 2-8-13-72-13-72 0 0 4 3 7 8 7 4 0 18 10 32 22 14 13 38 24 54 25 30 2 46 17 45 43 0 8-5 4-11-10-9-21-12-22-15-7-3 9-9 14-15 11-6-4-8-3-5 3 4 6 0 19-8 29-14 18-14 17-15-11 0-23-3-27-10-15-10 15-13 10-12-25 1-11-4-5-10 14-11 32-10 35 18 57 16 13 24 24 18 24-11 0-74-62-74-74 0-4 4-5 9-1 17 10 21-12 6-25-8-7-15-9-15-4-1 5-6 30-13 56-12 44-14 46-26 27-7-12-8-18-2-14 7 4 11-3 11-17 0-13 5-29 11-35 8-8 8-17 0-31-21-40-8-92 23-92 6 0 4 5-4 11-11 8-8 9 15 4 17-4 56-8 88-9 31 0 53-2 47-4s-7-8-4-14c4-6-2-8-15-4-68 19-68 19-47 3 19-14 19-14-7-14-15-1-24 3-22 8 9 14-10 17-22 4-10-10-9-16 2-25 8-6 18-9 23-6 15 9 102 15 97 6-3-4 2-11 11-14 8-3 13-2 10 2-3 5 8 9 24 9s38 7 48 17c12 10 27 14 38 10 14-4 15-3 5 4-16 12-5 18 34 20 27 1 28 0 8-8-13-5-23-15-23-21s-9-9-20-6-25-2-32-11c-11-13-10-15 5-9 10 4 35 7 55 8 30 0 33 2 17 9s-17 9-3 9c9 1 20-4 24-10 4-8 9-7 16 2 7 10 11 11 14 2 3-7 12-9 21-6 8 3 19 0 25-8 8-11 9-11 5 3-4 10 1 19 11 23 12 5 13 8 4 14-8 5-1 8 17 8 17 0 28-5 24-10-3-5 5-3 18 4 23 12 23 11 9-6s-14-18 9-5l24 12-24 13c-13 7-27 11-31 9-5-3-8-1-8 5 0 5-9 13-20 16-11 4-18 11-14 16 3 5 13 3 25-4 15-11 29-12 64-4 24 6 42 14 39 19-3 4 2 8 11 8 19 0 73 34 93 58 15 19 16 42 2 42-5 0-10-6-10-14 0-21-27-40-33-24-4 10-6 10-6 0-1-16-27-43-34-36-3 3-2 18 3 33 4 16 4 34 0 42-5 7-6 18-3 24 4 5-3 1-15-9-25-21-31-36-7-16 9 8 15 9 15 2 0-6-4-13-9-16-4-3-6-17-3-31 2-14 1-25-4-24s-17-1-27-6c-28-12-31 0-12 47 9 24 18 61 20 83s1 29-2 16c-3-16-7-20-12-12-5 7-8 0-8-16 0-15-6-48-13-73-12-42-14-43-21-20l-7 25-1-24c-1-13-4-21-7-18-4 4-2 32 5 64 14 70 19 118 31 287 12 159 18 170 100 164 32-3 93 3 145 14 80 17 107 21 179 31 12 1 20-5 22-18 10-67 18-88 55-139 23-32 43-55 46-52 3 2-7 17-21 33-15 15-36 48-48 71-20 43-20 44-2 60 10 10 14 11 8 4-9-11-5-21 18-44 24-25 32-28 40-17 8 12 9 11 5-1-3-9 0-41 5-73 8-44 17-63 39-81 16-14 29-28 29-31 0-4 6-13 14-20 12-12 16-12 28 2 9 12 9 15 1 9-8-4-13-2-13 5s9 9 23 6c20-6 21-5 4 8-12 9-14 15-7 20 6 4 17 2 25-5 11-9 13-3 9 42-7 71 4 57 14-20 6-40 5-59-1-55-7 4-7-1-3-13 15-35 11-78-6-68-6 4-8 3-5-3 3-5 0-21-8-36-8-16-10-29-4-33 5-3 16 11 24 30 14 34 34 53 22 21-4-8-2-17 3-20s7-14 5-25 0-20 6-20c5 0 9-9 9-21 0-11 4-17 10-14 5 3 9-8 8-28-1-41-30-80-52-71-9 3-16 1-16-5s-8-11-17-11c-10 0-14 4-8 8 14 10 18 42 5 42-5 0-10-6-10-14s-3-21-6-30c-4-12 0-16 15-16 18 0 20-4 15-28-7-24-6-26 10-13 14 12 16 12 10-2-3-10 1-17 13-19 10-3 0-5-21-5-21-1-35 2-30 6 5 3 9 16 10 29 1 33-38 26-46-8-5-19-1-28 17-37 13-7 31-10 41-7 15 5 15 4-1-6-10-7-26-8-35-4s-21 8-27 9c-5 0-16 4-22 8-7 5-13 5-13 2 0-4-8 1-17 10-15 16-15 18 0 26 9 5 14 16 11 24-4 8-1 15 5 15s11 19 11 46c0 25-4 43-9 39-5-3-7-21-4-40 5-32 4-35-18-34-17 1-19 3-6 6 9 2 17 12 17 22 0 14-8 17-34 16-52-1-93-44-43-46 24-1 18-4-25-13-16-4-28-10-28-16 0-9 39-26 53-22 5 1 6-2 2-8-4-7-12-7-26 0-10 6-19 7-19 3s-5-1-11 7c-7 11-12 12-15 3-3-7-13-10-22-7-14 5-14 3 2-10 10-8 23-13 27-10 5 3 9 1 9-4s-11-9-25-9c-13 0-24 2-23 6 2 19-4 24-12 11s-10-13-10 1c0 9 7 20 16 23s14 12 11 19c-2 6 2 17 8 22 19 15 29 68 13 63-7-3-14-10-14-16-1-7-2-20-3-29-1-14-3-15-10-4s-10 11-15 0c-3-8-3 0 0 16 17 75 21 119 14 148-6 27-7 24-8-20 0-51-21-115-22-66 0 12-4 24-9 27-4 3-8-8-7-24 1-17 4-30 9-30 4 0 6-17 6-37-1-23-3-30-6-18-3 11-12 29-20 40-14 20-14 20-12 0 2-11-3-31-10-43-7-13-10-26-7-29s-2-12-12-19c-20-16-36-18-27-4 8 13-33 29-110 45-33 7-50 13-38 14 43 2 53 11 46 43-4 22-3 29 5 24 6-4 9-13 5-21-9-25 11-16 23 10 9 19 9 28-1 42-13 17-14 17-21 0-5-15-9-16-16-5-8 10-9 9-5-4 6-16-24-60-40-59-19 1-43-11-38-19 3-5-6-12-20-16-18-4-24-11-21-21 3-8 6-16 6-17 0-2 11-1 24 1 19 4 25 0 30-21 3-14 11-26 17-26s8 4 4 9c-7 12 31 25 46 16 7-5 5-13-5-24-12-13-13-20-5-28 6-6 13-26 15-43 3-28 2-29-11-16-17 17-20 30-5 21 6-3 10-1 10 4 0 6-7 11-16 11s-12 5-8 12c4 6 3 8-4 4-6-3-13 2-15 11-4 15-5 15-6-2 0-12 4-26 11-33 9-9 7-12-9-12-20 0-37-22-26-33 8-9 33 4 27 14-9 14 30-3 43-19 10-13 13-13 17-1 14 45 26 72 22 51-8-41 1-47 65-46 48 2 65 6 85 25 19 18 27 21 33 10 6-10 10-9 15 4 12 33 5 34-43 5-26-17-54-30-62-30-8 1 1 9 19 18 18 10 30 21 27 25s-2 5 1 2c4-2 23 4 43 15 23 11 43 15 51 10 10-6 9-9-6-13-16-4-16-5 4-6 12 0 22 3 22 9 0 5 8 6 18 3 13-6 7-10-23-19-30-8-40-16-41-32-2-33-2-34-28-17-16 11-26 13-31 6-3-6-3-12 2-13 15-2 28-6 33-8 16-7 82-7 70 0-7 4-20 6-29 3s-1 8 18 26c32 29 45 35 64 32 4 0 7 4 7 9 0 6-3 10-7 10-5 0-19 9-33 20l-25 20 30-3c20-2 34-12 42-28 7-14 22-24 35-25s28-2 33-4c6-1 17-2 25-1 13 1 13 2 0 12-12 8-12 10-1 7 24-7 22-38-2-38-17 0-19-2-8-9 12-8 10-12-12-22-15-7-27-19-27-27 0-11 3-12 13-3 8 6 18 7 22 3 5-4 6-2 2 4-3 5 7 15 24 21 16 6 27 7 23 2-3-5 12-9 33-8h38l-40 19-40 19h30c17 1 41 4 54 8 23 6 24 7 5 15-15 6-13 7 8 3 41-8 152 6 136 17-8 6-1 7 22 3 19-4 40-7 47-8 7 0 10-4 7-8-2-4 0-9 6-11 5-1-34-3-88-4-66-1-108-6-132-17-29-13-28-22 1-19 4 1 15-8 24-18 20-23 44-28 26-6-10 12-5 15 29 21 24 4 37 11 34 17-5 7-1 7 11 0 13-7 26-7 42 1 17 8 27 7 36-2 6-7 8-11 2-10-5 1-21 0-35-4-14-3-42-9-62-12-21-3-38-10-38-16s4-8 9-5c9 6 34-18 27-25-2-2 16-4 40-4s39 2 34 3c-6 2-15 12-20 22-8 15-6 17 13 13 18-4 19-3 7 6-9 7-10 11-3 11 6 0 15-4 18-10 3-5 22-10 41-10s33 3 31 8c-6 8 70 8 79 0 2-3-21-8-53-11s-59-11-61-17c-3-8-8-8-18 1-7 6-19 9-26 6-8-4-7-6 5-6 9-1 17-8 17-17 0-12 4-14 12-7 20 15 50 24 43 13-3-6 3-10 14-10 12 0 21 4 21 9s7 12 16 15c10 4 13 2 8-6-5-7-2-9 9-5 9 3 18 1 21-6 2-7 5-4 5 6 1 9 6 17 12 17 5 0 7-4 4-10-3-5-1-10 4-10 6 0 11 4 11 8s9 8 20 9 18-2 15-7-1-11 4-14 12 1 15 10c4 9 9 14 12 11s0-16-7-29c-11-21-11-22 4-9 10 7 17 10 17 6 0-5 9 0 19 9 13 12 27 15 41 11 20-6 21-5 11 14-12 21-41 29-41 11 0-5-4-10-10-10s-6 9 0 24c5 13 6 28 2 32-4 5 0 3 9-4 14-10 15-7 9 32-6 42-5 46 24 68 17 12 35 22 39 20 5-1 6 2 2 8-3 5-2 10 3 10 6 0 13 7 16 16 4 9-12 0-34-20-23-20-45-34-51-31-5 4-9 3-8-2 1-4 0-11-1-15-5-16-8-28-9-44 0-8-5-13-9-10s-8-7-8-22c1-22-3-26-19-24-29 5-31 10-11 25 13 10 16 20 12 35-4 12-12 20-17 17-5-4-9 0-9 7 0 8-3 9-8 3-12-17-51-35-65-30-17 7-36 59-31 87 2 13 1 17-2 10-8-17-34 3-35 27 0 9-3 11-5 4-3-6 2-26 11-43 15-29 15-33-3-61l-19-31-10 41c-6 22-7 38-2 35s9 0 9 5c0 6-9 11-19 11-14 0-22 10-27 33l-7 32-9-27c-11-32-28-37-28-8 0 11-4 20-10 20-18 0-10 39 11 54 12 8 18 19 14 25-3 6-2 11 4 11 5 0 12-12 14-27 4-28 4-28 6 3 0 16-4 35-11 42-9 9-9 12 0 12 7 0 11 3 11 8-3 20 2 42 11 42 15 0 30-36 45-103 7-34 14-50 14-36 1 14-5 46-12 70-8 25-13 53-11 62 1 9-1 17-6 17-7 0-44 84-45 100 0 12-32 47-47 53-10 3-18 11-18 18 0 6 7 8 16 5 8-3 12-2 9 4s-1 10 4 10c17 0 13 17-5 24-12 4-15 2-10-9 6-17-2-19-23-6-8 5-11 16-7 27 6 18 6 18-8 1-14-18-14-18-21 2-3 12-13 21-22 21-13 0-13 3-3 15 11 13 10 14-4 9-11-4-16-1-16 10 0 9 1 17 3 19 1 1-5 10-13 19-14 15-16 15-22-1-5-13-7-12-7 5-1 11 2 24 6 28 8 8 9 13 12 42 0 8 6 12 11 9 6-4 8-11 5-16-4-5 0-12 9-15 8-3 12-12 9-20s-9-11-14-8-9 0-9-5c0-14 16-14 39-2 13 7 18 6 18-4 0-8-4-12-9-9-13 8-9-10 7-32 8-12 11-25 7-29-4-5-2-5 4-2 6 4 19-2 28-12 10-11 31-25 47-31 26-11 32-10 53 9 12 11 27 21 34 21 6 0 9 7 5 16-5 15-7 15-15 0-5-9-17-16-26-16-10 0-23-5-30-12-10-10-17-7-35 10-19 20-20 24-7 33 12 8 10 9-7 4-15-4-23-2-23 5s-7 10-15 6c-8-3-15-1-15 3 0 16 26 19 51 6 20-12 27-11 42 2 9 9 19 14 22 11 10-10-6-36-26-41-13-3-17-10-13-21 7-19 31-15 26 3-1 7 2 10 8 6 5-3 10 2 10 12 0 14 2 15 9 4s10-10 18 4c5 9 14 16 19 16 5-1 9 3 9 8s4 13 9 18 6 3 2-4c-4-8-2-13 6-13 9 0 9-3 2-8-6-4-11-24-10-45l1-38 23 26c12 15 20 30 17 35s0 12 7 16 10 4 6-1c-12-12 54-50 95-54 4-1 7-8 7-17 0-14 2-14 22 0 15 10 26 12 39 6 12-7 19-6 22 3 4 9 6 9 6 0 1-7-8-18-19-25s-20-16-20-21c0-4 4-5 10-2 6 4 7-1 4-12-4-13-3-15 4-5 8 11 10 11 14 0 6-14-18-43-25-30-3 4-8 22-12 39-3 18-11 36-17 39-7 4-8 2-4-4 4-7 2-12-4-12s-10-6-8-12c1-7-2-23-6-36-7-22-9-22-21-5-7 10-12 20-10 23s-8 5-22 4c-16 0-35-12-49-29l-22-28-7 24c-8 23-8 23-16 4-8-20-8-20-9 0s-1 20-15 1c-17-23-20-14-5 15 9 15 7 19-5 19-9 0-13 4-10 10s-1 7-9 4c-19-7-21-24-3-24 8 0 7-3-3-10-12-7-12-12 4-29 10-11 23-18 27-15 5 3 6-2 3-10-3-9-1-16 5-16s11-6 11-14c0-7 7-19 15-26 13-11 15-8 15 15 0 38 37 88 61 82 11-3 17-1 13 4-3 5 0 9 5 9 6 0 11-9 11-21 0-19 30-38 45-28 2 2 22-31 44-73 24-47 58-95 87-121 44-41 47-47 47-94 0-27-6-67-13-89-11-33-14-36-21-19-5 13-8 15-8 5-1-12-3-12-10-2-12 20-65-53-55-76 8-19 11-28 13-40 0-5 11-14 24-21 12-6 14-9 4-6-10 2-16 1-13-4s21-9 40-8c19 0 32 5 30 9-3 5 0 15 6 23 10 12 10 15 0 15-8 0-10 3-7 6 4 4 13 2 21-5 16-13 27 4 31 52 3 26 2 26-12 10-14-17-14-17-9 0 9 30-5 18-16-14-6-16-13-28-15-25-10 9-13 67-4 61 11-6 41 22 41 38-1 7-10 1-20-12-11-13-20-19-20-14 0 13 34 43 48 43 7 0 12 4 12 9s3 18 6 28c3 11-1 8-11-7l-16-25 5 27c4 15 2 30-4 33s-8 17-6 31c3 13 1 24-4 24-4 0-6 10-3 23 4 18 3 19-6 7-8-11-11-12-11-2 0 7-5 10-11 7-6-4-9 0-7 11 2 13-3 19-17 19-11 0-20 6-20 13 0 8-8 19-17 26-10 7-18 18-18 25 0 6-5 11-11 11s-8 7-5 16c3 8 2 13-3 10s-12 1-15 10c-3 8-2 12 3 9s12-1 16 5c3 5 2 10-2 10-5 0-9 9-10 19-2 23 33 25 42 3 6-16 25-6 25 14 0 8-11 26-25 40s-22 30-19 36c4 6 2 8-4 4-6-3-13-2-16 3s8 11 25 13c20 3 33 0 39-11s9-12 10-3c0 7 4 11 9 7 6-3 8-14 6-24-3-16 0-17 20-7 13 6 21 14 19 18-3 5-1 8 4 8s10-11 10-25c0-13-5-22-10-19-6 4-5-3 1-15 7-11 16-21 21-21 12 0 13-27 2-33-4-3-24 3-45 13-42 21-50 11-12-14 14-9 25-22 25-29 0-6 18-39 40-71l39-60 11 28c6 16 8 38 4 49-3 11-2 17 3 14 10-6 38 51 29 60-3 3-12 0-21-7-13-11-14-10-10 3 4 8 15 17 26 20 10 3 19 11 18 19 0 10-2 10-6 1-8-22-23-14-23 13 0 14 9 33 21 43 19 15 20 21 10 40-12 22-12 22 12 6 22-14 25-14 38 2 12 14 12 16 0 8-9-5-12-4-8 2s-1 17-10 24c-14 12-15 11-9-9 5-13 3-22-3-22s-11 10-11 23c0 18-2 19-10 7-8-13-10-13-10 2 0 10 9 22 19 28 24 12 34 13 27 1-3-5 3-20 13-32 16-19 22-21 32-12 10 10 8 17-12 34-16 15-18 20-6 16 20-8 22 1 4 28-7 11-12 41-12 67 0 25-3 44-7 41-5-2-8-10-8-18 0-7-7-21-16-29-8-9-11-16-6-16 6 0 12-7 16-15 5-13 2-14-15-4-18 9-20 17-15 47 3 20 14 45 25 55 19 19 19 19 51-24 34-48 39-99 12-131-13-16-13-18 2-24 9-3 22-4 29-1 17 6 22-59 6-69-7-4-9-3-6 3 4 6 0 14-8 17-13 5-14 2-5-15 14-25 34-20 38 9 4 27 28 19 47-17 13-27 5-65-9-42-4 6-12 9-17 5-6-4-6-11 2-20 7-9 8-14 1-14-6 0-14 5-18 11s-19 9-36 5c-26-5-29-4-23 16l7 21-23-22c-18-17-20-24-10-34s11-8 5 8c-7 18-6 18 9 7 12-10 14-19 7-38-6-15-6-24 0-24s10-5 10-11c0-8-5-7-15 1-9 7-14 19-11 26 3 8 0 11-9 7-12-4-14 2-9 28 9 60 9 68-1 69-5 1-17-18-25-42-8-23-19-49-24-57-6-9-5-12 1-8s19 0 29-9c18-14 18-15-3-5-13 7-24 7-27 2-6-9 21-18 81-25 23-3 36 0 42 11 7 14 10 12 15-8 12-40 29-69 37-63 5 3 6-1 3-9s0-18 7-23c8-5 10-3 4 6-5 8-4 11 3 6 6-3 13-2 17 4 3 5 1 10-4 10-6 0-11 7-11 16 0 13 3 14 13 5 8-6 18-7 22-3 5 4 2-5-7-19-20-31-20-69 0-69 30 0 52 21 52 51 0 17-4 28-9 24-5-3-13-1-16 5-4 6-1 9 6 8 8-2 19 15 27 40 8 23 18 42 23 42 4 0 5 7 2 17-4 11-3 14 6 9 7-4 10-3 9 5-2 6 3 14 11 17 10 3 12 0 7-14-4-14-1-12 14 6 11 14 19 32 19 40 0 10-3 9-8-4-6-16-8-17-13-4-4 9-1 21 5 27 9 9 8 11-7 5-16-6-17-4-8 13 6 11 9 23 6 25-2 3-6 28-8 55-1 27-7 56-11 63-5 9-4 11 3 6 7-4 12-2 12 3 0 6-4 11-10 11-5 0-10 12-10 28 0 19-3 23-9 13-5-8-8-24-6-37 1-13-2-24-7-24s-6-5-3-10c4-6 2-17-5-25-9-10-9-19 0-35 6-12 14-19 17-16s0 12-7 21-11 18-8 20c8 8 28-20 33-45 2-13 7-25 9-28 3-2 1-14-5-24-8-14-8-23 0-31 17-17 13-31-4-17-10 8-15 9-15 1 0-7-8-8-26-1-14 6-30 8-35 4-5-3-9 0-9 6s-5 8-10 5c-15-9-30 3-24 20 3 8 12 11 22 7 15-5 15-4 3 11s-12 17 0 12c8-3 20 4 26 15 11 17 10 18-5 13-15-6-16-5-2 12 9 11 10 16 3 11-7-4-13-2-13 3 0 6 3 11 8 11 4 0 7 27 7 59 0 37-4 57-10 53-24-14 33 43 60 59 17 11 24 19 16 19s-23-8-33-17c-15-14-21-15-27-4-6 9-11 10-15 2-4-6-5-15-2-20s-1-14-9-21c-11-9-20-7-42 14-15 15-38 29-49 32-21 5-42 59-29 72 3 3 5 0 5-7s5-9 10-6c7 4 9-3 5-22l-6-28 18 31c15 27 22 30 41 23 12-5 22-12 23-16 0-4 2-16 4-26 3-14-1-18-14-14-14 3-17 0-13-15 2-11 8-16 11-11 3 4 13 8 21 8 16 0 23 52 8 61-4 3-5 11-2 17 4 7 4 9-1 5-8-8-50 10-42 18 3 3-6 17-19 31s-24 32-24 38c0 7-15 22-32 34-18 11-29 21-23 21 5 0-1 7-13 16-13 9-26 13-29 10s-13 0-21 7c-10 8-13 8-9 1s0-14-8-18c-18-7-20-32-2-39 9-4 9-6-1-6-18-1-27 28-15 48 5 9 8 21 6 28-6 17-33 4-33-16 0-13-2-14-9-1-6 8-7 18-4 24 3 5 1 6-5 2s-22-1-34 5c-13 7-36 12-51 10-15-1-39 4-52 13-27 18-39 21-30 7 3-5 1-12-5-16-5-3-10-2-10 3s-17 14-39 20c-41 13-78 16-68 6 3-4-1-13-9-22-14-13-17-13-25-1-6 10-3 16 9 20 9 4-7 8-36 10-30 2-56 1-58-3-3-4-17-7-32-6-47 1-115-19-107-33 3-5-1-6-9-3s-24 1-35-5c-17-10-28-6-68 22-75 53-200 113-288 137-73 21-103 23-345 25-255 1-267 2-315 25-27 13-53 22-57 22-11-3-10-1 7 48 16 45 21 160 7 160-5 0-28-14-51-31zm-21-80c-7-11-14-18-17-15s0 12 7 21c18 21 23 19 10-6zm36-31c-1-37-26-52-26-16 0 13 3 34 7 46 8 31 20 11 19-30zm-75 25c-7-13-1-28 22-63 19-27 23-39 12-30-17 14-18 13-12-3 4-10 7-23 7-28s7-9 15-9 15-4 15-10c0-5-7-10-15-10s-15-4-15-10c0-19-17-10-28 16-7 14-17 22-22 19-6-3-10 3-10 14s-9 35-19 53c-11 17-18 35-15 39 9 15 34-3 34-23 0-15 5-18 16-14 14 5 15 4 4-9-10-12-10-15 3-15 9 0 14 7 12 18-1 9-9 16-16 14-8-2-11 0-7 4s3 13-4 21c-8 11-7 17 8 28 25 19 27 18 15-2zm62-178c-3-9-8-14-10-11-3 3-2 9 2 15 9 16 15 13 8-4zm507-30c-7-9-15-13-19-10-3 3 1 10 9 15 21 14 24 12 10-5zm-163-31c-3-3-12-4-19-1-8 3-5 6 6 6 11 1 17-2 13-5zm-367-48c0-3-4-8-10-11-5-3-10-1-10 4 0 6 5 11 10 11 6 0 10-2 10-4zm1300-12c0-2-12-4-27-4-21 0-24 3-14 9 13 8 41 5 41-5zm57-5c1-14-4-19-15-18-23 4-62-10-62-22 0-5-13-9-30-9-16 0-30 4-30 9 0 4 12 6 27 3 21-4 25-2 20 12-5 11-1 16 12 16 10 0 24 7 31 15 18 22 45 19 47-6zm-127-3c0-2-9-6-20-9s-18-1-14 4c5 9 34 13 34 5zm-635-15c3-5 2-12-3-15s-9 1-9 9c0 17 3 19 12 6zm-149-23c1-8-2-22-7-29-7-10-8-5-5 14 4 23 2 28-10 23-9-3-12-2-9 5 9 14 28 6 31-13zm978 7c-10-8-23-14-29-14-5 0-1 6 9 14 11 8 24 15 30 15 5 0 1-7-10-15zm236 3c11 16 11 16 6-2-5-15-2-17 18-12 14 3 28 2 31-4 3-5-2-10-13-10-10 0-19-7-19-15 0-16 12-20 20-7 2 4 2 2 1-5-2-7 1-15 6-18s7-14 5-25c-3-13 0-18 7-14 7 5 9 2 5-8-3-9 0-21 6-27 8-8 7-11-3-11-20 1-44 21-48 40-2 8-8 20-13 25-7 7-8 3-4-10 6-16 5-17-4-5-14 20 4 37 23 21 11-9 16-9 22 0 4 7 3 9-3 6-13-8-37 18-29 31 3 6-1 15-9 22-12 10-15 10-15-1-1-10-4-8-11 4-5 9-15 17-20 17-6 0-7-6-3-12 4-7 3-9-1-5-5 4-10 14-11 23-2 14 0 14 21 0 22-15 25-14 35 2zm-515-17c-3-6-11-11-16-11s-4 6 3 14c14 16 24 13 13-3zm211-14c-3-12-5-28-5-35-1-7-6-10-11-7-8 5-7 11 1 21 7 9 8 14 1 14-5 0-8 9-5 20 7 27 24 15 19-13zm224 14c0-4-14-6-30-3-23 3-29 1-25-10 4-9-3-14-20-16-17-1-25 3-25 14 0 10 6 14 14 11s17 0 19 7c5 13 67 10 67-3zm-587-12c-8-8-13-7-18 2-5 8-4 10 3 5 7-4 12-2 12 5s3 9 7 6c4-4 2-12-4-18zm201 7c-26-20-13-29 51-34 30-2 55-9 55-14s4-7 9-3c5 3 12 1 15-4s-10-9-28-8c-19 0-33 5-30 9s-2 8-10 8c-9 0-16-4-16-10 0-5-7-10-15-10s-12-6-9-14c5-14-10-29-34-32-6-1-10 2-6 7 3 5 9 7 14 4 4-3 10 2 14 10 6 17-15 20-31 4-7-7-12-5-15 9-5 17-1 20 21 17 15-2 34 1 42 6 10 6 4 9-20 9-19 0-31 3-28 7 4 3-1 12-11 20-9 8-11 12-4 8s12 0 12 9c0 10 9 16 22 16 21 0 21 0 2-14zm258-5c-8-4-14-12-15-17s-5-8-9-6c-5 1-8-2-8-7 0-10 18-24 33-27 4-1 10-2 15-3 4-1 0-6-8-12-12-9-12-10 4-5 10 4 26 1 34-6 13-11 14-11 8 0-9 15 19 52 39 52 7 0 19-7 26-17 13-15 12-15-8-5-13 7-24 8-27 3-4-5 8-12 26-16s42-9 53-12c20-6 20-6 0-13-11-4-28-2-37 4-12 7-27 7-52-2-19-7-38-12-43-11-25 4-34-2-28-22 5-14-1-27-20-45-29-27-26-51 5-32 21 14 36 6 25-12-5-8-10-9-14-2-4 6-17 0-34-14-16-13-23-24-17-24s9-4 5-9c-3-5-1-12 5-16s8-11 5-16c-4-5-2-9 4-9 5 0 11 6 14 13 3 6 4-7 3-30s-9-49-17-59c-12-16-12-17 3-11 25 9 31-8 9-27-19-18-39-7-26 14 3 6 0 10-7 10-8 0-6 5 5 11 15 9 16 13 5 27-10 12-10 14 0 8 6-4 12-5 12-2 0 2 3 13 7 23 7 17 6 17-20 0-14-9-30-17-34-17s0 5 10 11c9 6 15 14 12 19s-1 11 5 15 8 11 4 16c-3 5-9 7-13 5-9-6-8 25 2 40 3 6 8 25 9 43 1 17 5 31 8 31s6 10 7 23c0 12-1 16-4 10-3-7-11-13-19-13-17 0-17 1-4 34 7 18 14 24 26 19 12-4 15-3 10 5-4 7-2 12 4 12s8 5 5 10c-4 7-13 6-26-1-24-12-35-6-23 13 5 7 9 18 9 23 0 6 10 10 22 9 18 0 20 2 12 13-9 10-6 13 12 13 17 0 20-3 11-9zm-915-8c-4-3-2-12 3-18 7-9 6-16-3-23-9-8-13-4-13 19-1 16 3 29 9 29s7-3 4-7zm543 3c0-2-8-10-17-17-16-13-17-12-4 4s21 21 21 13zm207-2c-3-3-22-6-42-6s-39 3-42 6c-4 3 15 6 42 6s46-3 42-6zm332-9c7-4 10-13 7-21s-1-14 5-14 7-5 4-10c-9-15-26-2-23 17 2 9-3 18-10 20-8 3-10-2-6-14 5-17 5-17-6 0-6 9-18 17-25 17-8 0-15 4-15 10 0 11 50 7 69-5zm241-20c14-16 19-25 11-18-11 9-19 8-36-3-22-14-24-14-30 5-3 12-11 21-16 21-6 0-7 5-4 10 5 8 11 7 21-1 7-6 11-16 7-22s-1-7 6-3c7 5 10 14 7 21-2 7-2 16 1 19 4 3 7 5 7 4 1-2 12-16 26-33zm-941 6c10-7 7-9-12-8-14 1-23 5-20 10 6 9 15 9 32-2zm-404-38c4-18 1-31-11-42-14-13-16-14-12-1 3 8-2 24-11 35-15 18-15 19 2 6 23-18 33-8 12 12-19 19-19 28-1 21 8-3 17-17 21-31zm342 15c-3-8-6-5-6 6-1 11 2 17 5 13 3-3 4-12 1-19zm-428-30c-12-22-16-23-16-3 0 8 4 15 8 15 5 0 6 8 3 18-5 14-4 14 4 3 7-10 7-21 1-33zm651 38c0-2-8-10-17-17-16-13-17-12-4 4s21 21 21 13zm671-13c13-16 12-17-3-4-17 13-22 21-14 21 2 0 10-8 17-17zm-857-36c5-20 3-28-5-25-7 2-13 18-13 36-1 36 8 30 18-11zm221 33c4-6-1-7-11-3-13 5-15 3-9-7 5-9 4-11-4-6-6 4-9 12-6 17 8 12 22 12 30-1zm680-26c7 2 15-4 18-15 3-10 1-17-4-13-5 3-6-2-3-10 3-9 10-14 14-11 5 3 11 1 15-5 3-5-1-10-10-10s-13-5-10-10c4-6 11-8 16-5 5 4 9-1 9-9 0-9 7-13 19-11 14 2 18-1 14-11-6-15-17-11-49 18-19 17-22 17-34 3-8-10-9-15-1-15 6 0 11-9 11-21 0-11-4-18-8-15s-25 1-45-4c-46-10-47-5-4 14 34 14 46 46 18 46-9 0-23 5-31 10-11 7-3 9 28 6 45-4 51 3 26 29-14 13-19 14-25 3-5-7-9-8-9-2s3 14 8 18c4 4 8 12 8 17 4 28 7 32 11 16 3-10 11-16 18-13zm-1659 3c4-4 0-7-9-7s-18 4-21 9c-7 10 20 9 30-2zm1761-26c-10-12-8-14 10-9 14 4 24 1 27-8 3-8-1-14-10-14s-13-5-9-12 0-5-8 5c-11 14-16 15-20 5-3-8-6-5-6 6-1 11-8 27-16 36-13 14-13 17-1 17 8 0 14-3 13-6s3-7 8-8c6-1 9 6 7 15-2 14-1 15 7 2 7-10 6-19-2-29zm-1427 19c0-5-2-10-4-10-3 0-8 5-11 10-3 6-1 10 4 10 6 0 11-4 11-10zm1284 1c3-5-1-11-9-14-9-4-12-1-8 9 6 16 10 17 17 5zm-813-24c-10-9-11-8-5 6 3 10 9 15 12 12s0-11-7-18zm214 14c3-5 2-12-3-15s-9 1-9 9c0 17 3 19 12 6zm448-21c15 0-14-20-29-20-14 0-26 28-18 41 3 5 12 2 20-6 9-8 21-15 27-15zm-803 10c0-5 6-8 13-6 6 1 9 1 4-1-4-3-4-10 0-16 5-8 2-8-9 0-8 7-17 11-20 8-2-3-5 2-5 10s4 15 9 15c4 0 8-4 8-10zm270 4c0-8-19-13-24-6-3 5 1 9 9 9s15-2 15-3zm590-4c0-5-5-10-11-10-5 0-7 5-4 10 3 6 8 10 11 10 2 0 4-4 4-10zm-1190-15c-10-12-9-16 2-20 8-3 15-13 15-21s-5-13-11-11c-6 3-10 10-8 16 1 6-5 14-13 17-8 4-15 10-15 16 0 5 5 6 10 3 6-3 10-1 10 4 0 6 5 11 11 11 8 0 8-5-1-15zm79-2c-6-7-15-10-20-7-13 8-3 21 15 21 12 0 13-4 5-14zm566 7c-3-5-11-10-16-10-6 0-7 5-4 10 3 6 11 10 16 10 6 0 7-4 4-10zm182 4c-3-3-12-4-19-1-8 3-5 6 6 6 11 1 17-2 13-5zm218-5c11-16 1-19-13-3-7 8-8 14-3 14s13-5 16-11zm-1389-43c-3-14-11-26-17-26-8 0-8 5 1 15 7 8 9 24 5 37-6 18-5 20 5 11 8-7 10-22 6-37zm1064 40c0-2-8-10-17-17-16-13-17-12-4 4s21 21 21 13zm125-6c-3-5-14-10-23-9-14 0-13 2 3 9 27 11 27 11 20 0zm363-15c-15-13-22-25-16-27 26-9 15-37-18-48-19-6-34-15-34-20 0-4-9-10-20-13s-18-1-15 3c10 17-18 23-30 7-7-10-18-17-26-17s-6 5 6 14c15 11 17 17 8 28-18 21-2 35 32 27 17-4 22-7 13-8-9 0-20-6-24-13-5-8 0-9 14-6 12 4 20 2 17-2-3-5-2-11 2-13 11-7 48 21 40 29-4 4-2 13 4 20 6 8 9 21 5 29-4 10 2 19 17 25 42 17 53 10 25-15zm-774-1c3-8 2-12-4-9s-10 10-10 16c0 14 7 11 14-7zm660-18c-11-6-31-12-46-14-22-2-26 0-22 12 3 9 9 14 13 12 3-2 15 0 26 4 30 11 52 0 29-14zm-715-7c-6-11-5-20 1-24 5-3 10 2 10 11 0 16 1 16 14-2 8-10 18-16 22-11 4 4 2 7-4 7-7 0-12 5-12 10 0 10 44 9 54-1 3-3 0-25-7-49-7-25-12-69-12-97 0-29-2-53-5-52-11 1-144 167-152 190-7 20-6 21 5 9 6-8 18-16 26-18 11-2 12 0 3 11-15 17-3 31 14 16 14-11 38-3 30 10-3 4 1 8 9 8 10 0 11-5 4-18zm-659-4c0-12-19-12-23 0-4 9-1 12 9 8 7-3 14-7 14-8zm-16-44c-2-3-12 3-22 13-16 17-16 18 5 5 12-7 20-15 17-18zm331 19c-3-5-14-10-23-9-14 0-13 2 3 9 27 11 27 11 20 0zm842-14c0-8-6-12-15-9-11 5-11 7 0 14 7 5 13 9 14 9 0 0 1-6 1-14zm563-70c0-5-7-2-17 5-9 8-18 13-20 12-1-2-2-1 0 1 1 3-9 17-23 32-14 16-16 22-6 14 17-13 20-13 29 2 9 14 13 11 24-20 7-20 13-41 13-46zm-790 54c0-5-4-10-10-10-5 0-10 5-10 10 0 6 5 10 10 10 6 0 10-4 10-10zm560 6c0-3-4-8-10-11-5-3-10-1-10 4 0 6 5 11 10 11 6 0 10-2 10-4zm-213-21c0-8-6-15-14-15-14 0-17 12-6 23s20 8 20-8zm282-22c-18-21-38-41-44-45-10-7 8-13 29-9 5 1 2-9-7-23-9-13-13-26-9-28s0-11-10-20c-17-17-18-17-18 3 0 13-4 18-12 13-6-4-8-3-5 4 10 15-3 43-17 36-6-3-3 1 7 9 20 17 22 28 5 23-7-1-10-1-5 1 4 3 5 8 3 12-3 4 1 8 9 8s15-4 15-9c0-4 5-8 11-8s9 6 6 13c-2 7-21 12-45 12-38 0-73 14-41 16 68 6 88 5 84-2-10-15 12-18 31-4 15 11 16 15 4 16s13 12 39 18c3 1-11-16-30-36zm-719 17c0-5-5-10-11-10-5 0-7 5-4 10 3 6 8 10 11 10 2 0 4-4 4-10zm232-17c-6-3-9-10-6-15 4-7 2-8-5-4-8 6-9 12-2 20 6 7 9 15 7 18-1 3 2 1 8-4 8-8 7-12-2-15zm-1020-11c-6-2-12-10-12-17 0-8-5-17-12-21-7-5-9-2-5 9 3 9-1 18-10 21-12 5-13 9-3 21s17 12 34 3c13-7 16-13 8-16zm1709 3c5 3 6-1 3-9-8-22-24-10-23 17 1 17 2 18 6 4 2-9 9-15 14-12zm-1008 0c-3-9-8-14-10-11-3 3-2 9 2 15 9 16 15 13 8-4zm-568-4c3-5 2-12-3-15s-9 1-9 9c0 17 3 19 12 6zm45-1c8-5 11-10 5-10-5 0-17 5-25 10s-10 10-5 10c6 0 17-5 25-10zm913-5c4 0 7-3 7-7 0-29-2-31-11-16-5 9-15 16-22 14-6-1-9-1-4 1 4 3 4 10 1 15-5 7-2 8 7 2 8-5 17-9 22-9zm211 0c-4-8-7-15-9-15s-5 7-9 15c-3 9 0 15 9 15s12-6 9-15zm31-5c3-5 1-10-4-10-6 0-11 5-11 10 0 6 2 10 4 10 3 0 8-4 11-10zm-1238-6c-3-3-12-4-19-1-8 3-5 6 6 6 11 1 17-2 13-5zm1288-24c-18-34-21-36-42-15-8 8-19 13-24 10-5-4-9-1-9 5s10 8 24 4c15-3 29 0 37 10 23 25 30 18 14-14zm312-47c8-6 12-16 8-22-9-15-38-14-32 2 2 6-4 29-14 49-25 50-24 61 2 18 11-19 28-40 36-47zm-9 42c-3-3-9 2-12 12-6 14-5 15 5 6 7-7 10-15 7-18zm-1193-13c-8-8-25 10-19 20 4 6 9 5 15-3 4-7 6-15 4-17zm399-4c-2-3 2-9 8-11 9-4 7-6-3-6-20-1-43 24-34 38 4 7 11 7 19-2 8-6 12-15 10-19zm400 19c-2-8 7-18 23-24 19-8 22-11 8-10-11 1-20-2-20-8 0-5 4-9 9-7s3-4-4-13-9-15-4-14 17-1 28-6c20-9 37 10 29 32-3 7 1 13 8 13s10-3 6-6c-3-4 4-15 16-26s17-17 11-14c-7 3-11-2-10-12 0-11-5-15-14-13-8 2-24 5-36 6-11 1-26 5-34 10-9 6-11 4-5-5s4-11-4-5c-7 4-11 16-8 26 3 11-2 23-11 29-10 5-12 10-4 10 19 0 14 20-5 20-15 0-14 2 3 15 24 18 25 18 18 2zm-357-22c0-8-4-12-9-9s-6 10-3 15c9 13 12 11 12-6zm47 6c4-5-3-7-14-4-23 6-26 13-6 13 8 0 17-4 20-9zm112-10c0-13-6-18-19-15-25 4-32 12-23 21 4 4 11 2 15-6 7-10 10-9 14 3 8 21 13 20 13-3zm674-6c-10-12-10-18 1-32 12-17 12-17-5-2-15 14-16 20-5 37 7 12 15 19 18 17 2-3-2-11-9-20zm-216-35c-14-14-38 5-30 26 6 16 8 16 23 1 11-11 14-20 7-27zm-209 0c3-5 1-10-4-10-6 0-11 5-11 10 0 6 2 10 4 10 3 0 8-4 11-10zm-545-35c0-5-5-3-10 5s-10 20-10 25c0 6 5 3 10-5s10-19 10-25zm425 15c-10-11-23-20-29-20s0 9 14 20c32 25 38 25 15 0zm194-35c-13-19-30-35-37-35s-10 5-7 10c3 6 1 10-4 10-6 0-11 4-11 10 0 5 6 7 14 4s24 6 37 20c31 36 37 24 8-19zm241 41c0-3-4-8-10-11-5-3-10-1-10 4 0 6 5 11 10 11 6 0 10-2 10-4zm-173-21c0-8-4-15-9-15-10 0-11 14-1 23 9 10 10 9 10-8zm-46-56c-9-22-10-22-10-3-1 11 2 24 6 27 12 12 14 0 4-24zm29-3c0-3-4-8-10-11-5-3-10-1-10 4 0 6 5 11 10 11 6 0 10-2 10-4zm55-15c3-5 1-12-5-16-5-3-10 1-10 9 0 18 6 21 15 7zm230-52c-4-5-1-9 4-9 6 0 11 4 11 8 0 5 7 9 15 9 9 0 11-4 6-11-16-20-17-51-1-64 13-11 11-11-8-2-12 6-20 14-18 19 3 4-4 12-15 19-18 12-18 11-7-8 11-17 10-22-2-30-8-5-17-7-21-5-11 7 3 59 18 68 7 5 10 13 7 19-4 7-2 8 5 4 6-4 9-12 6-17zm85-5c0-3-9-17-19-30-12-16-22-21-26-14-4 6 1 20 11 31 17 18 34 25 34 13zm-176-16c-3-4 2-8 10-8 19 0 28-14 20-34-5-12-10-13-27-3-12 7-25 16-29 21-9 13 1 33 17 33 8 0 12-4 9-9zm-735-58c30-15 33-39 9-73-12-18-26-35-31-38s-7-9-5-12c1-4-5-16-15-27-10-12-15-25-12-30 4-6 1-10-5-10-15 0-3-40 17-60 9-8 13-9 9-2-4 6-2 12 4 12s8-10 4-27c-8-35-22-53-41-53-7 0-13-6-11-13 3-13-3-17-24-17-8 0-9 3-3 8 6 4 24 23 40 42 17 19 21 27 9 17-28-23-31-22-32 14-1 46-12 48-14 3 0-21-1-45-1-51 1-7-3-11-7-8s-10-2-14-10c-3-8-10-15-16-15s-9 3-7 8c6 9 19 77 22 112 5 65 19 113 38 138 30 37 46 64 53 85 7 20 9 20 33 7zm874-25c4-8 1-17-5-21-7-5-8-2-3 6 6 10 4 12-10 6-15-5-16-4-5 9 15 19 16 19 23 0zm-43-15c0-5-2-10-4-10-3 0-8 5-11 10-3 6-1 10 4 10 6 0 11-4 11-10zm-293-52c-3-8-6-5-6 6-1 11 2 17 5 13 3-3 4-12 1-19zm-1264-63c4-8 2-17-3-20-6-4-10 3-10 14 0 25 6 27 13 6zm564-111c-15-31-24-41-36-36-14 6-14 7 2 10 9 2 17 11 17 21 0 9 6 23 13 30 10 11 9 14-1 18s-10 8 0 20c23 28 26-16 5-63zm-1086 32c-7-8-10-20-6-26 3-5 1-10-4-10-6 0-10 11-9 24 1 14 6 22 10 20 4-3 8 0 8 7s3 9 6 6c4-4 1-13-5-21zm-201 10c0-3-4-8-10-11-5-3-10-1-10 4 0 6 5 11 10 11 6 0 10-2 10-4zm525-6c3-5 2-10-4-10-5 0-13 5-16 10-3 6-2 10 4 10 5 0 13-4 16-10zm735-24c0-2-6-9-14-15-11-9-16-9-22 0-4 7-3 9 4 5 6-3 13-2 17 4 6 10 15 14 15 6zm-845-29c28-4 28-4-6-6-26-1-39 4-43 15-5 13-3 14 6 6 7-5 27-12 43-15zm888-5c-3-12-9-22-14-22-12 0-11 7 3 30 15 24 19 21 11-8zm-1067-2c8 0 14-5 14-11 0-12-40-2-55 14-7 7-6 8 3 3 7-4 12-2 13 6 0 10 2 10 6 1 2-7 11-13 19-13zm119 10c3-6-1-7-9-4-18 7-21 14-7 14 6 0 13-4 16-10zm403-6c-2-1-16-5-32-8-22-4-25-2-16 8 6 8 20 12 31 9s18-7 17-9zm-75-1c-7-2-19-2-25 0-7 3-2 5 12 5s19-2 13-5zm382-3c8-13-15-13-35 0-12 8-11 10 7 10 12 0 25-4 28-10zm370-29c-7-22-25-29-25-11 0 12 23 40 28 35 2-2 1-13-3-24zm22 7c-3-8-6-5-6 6-1 11 2 17 5 13 3-3 4-12 1-19zm20-25c-3-10-5-2-5 17s2 27 5 18c2-10 2-26 0-35zm-624 31c-13-6-6-35 11-46 6-4-1-8-16-8-16 0-28-6-29-12 0-10-2-10-5-1-7 16 24 73 39 72 9 0 9-2 0-5zm-653-30c0-2-9 0-20 6s-20 13-20 16c0 2 9 0 20-6s20-13 20-16zm549 7c1 18 29 21 48 7 7-6 10-14 7-20-3-5-12-4-20 3-19 16-18 4 2-16 21-21 9-33-16-17-16 10-20 10-20 0 0-9-3-10-8-2-4 6-20 14-35 18-16 4-25 11-21 17 4 8 9 7 15-2 7-11 9-9 10 6 0 20 0 20 9 0 8-18 9-18 10 5s2 23 10 5c6-15 9-16 9-4zm138 4c0-8-4-12-9-9s-6 10-3 15c9 13 12 11 12-6zm698-35c-4-6-3-10 2-9 20 3 34-2 28-11-4-7-12-7-24 0-10 5-21 6-25 2-4-3-4 2 0 12 5 14 4 17-5 12-9-6-9-3 1 13 10 17 14 18 21 6 4-8 5-20 2-25zm-500 20c3-5-1-10-10-10s-13 5-10 10c3 6 8 10 10 10s7-4 10-10zm785-19c0-4-7-16-16-27-15-18-15-18-9 4 4 13 2 22-5 22-6 0-9 4-5 10 6 10 35 3 35-9zm-623-2c-9-6-14-15-11-21 5-8 1-9-10-5-10 4-23 7-29 7-17 0 4 17 28 23 34 8 41 7 22-4zm440-27c-12-26-12-26-15-4-3 19-6 21-18 11-8-6-14-7-14-2 0 15 9 21 35 21 22 0 23-3 12-26zm143 4c0-2-7-9-15-16-13-11-14-10-9 4s24 23 24 12zm-475-16c-3-5-11-10-16-10-6 0-7 5-4 10 3 6 11 10 16 10 6 0 7-4 4-10zm-565-16c0-2-7-4-15-4s-15 4-15 10c0 5 7 7 15 4 8-4 15-8 15-10zm733-1c-7-2-21-2-30 0-10 3-4 5 12 5 17 0 24-2 18-5zm337-3c0-5-7-10-15-10s-15 5-15 10c0 6 7 10 15 10s15-4 15-10zm-200-10c0-5-7-10-15-10s-15 5-15 10c0 6 7 10 15 10s15-4 15-10zm50-16c0-2-9-4-21-4-11 0-18 4-14 10 5 8 35 3 35-6zm40-28c0-3-4-8-10-11-5-3-10-1-10 4 0 6 5 11 10 11 6 0 10-2 10-4z"/>
    <path d="m2123 1050c-1-11 2-20 7-20 4 0 7 7 6 15-3 23-12 26-13 5z"/>
    <path d="m1600 979c0-5 5-7 10-4 6 3 10 8 10 11 0 2-4 4-10 4-5 0-10-5-10-11z"/>
    <path d="m2564 930c0-13 4-16 10-10 7 7 7 13 0 20-6 6-10 3-10-10z"/>
    <path d="m2380 840c-11-7-11-10-2-10 7 0 11-4 7-9-3-5 0-13 7-17s10-4 6 1c-4 4-3 16 3 26 11 21 2 24-21 9z"/>
    <path d="m1790 466c0-2 9-6 20-9s18-1 14 4c-5 9-34 13-34 5z"/>
    <path d="m1772 418c-7-7-12-19-12-27 1-11 5-8 13 7 7 12 17 19 22 15 4-4 5-2 1 5-9 15-9 15-24 0z"/>
    <path d="m342 1598c-17-17-15-58 3-58 8 0 15-5 15-12 0-6 8-20 17-31 17-18 17-19-2-16-11 2-23 9-27 14-4 6-6-5-4-23s11-41 20-51c9-9 16-23 16-30s4-9 10-6c6 4 9-10 7-34-1-23-8-43-14-46-15-5-15-43 0-100 11-41 37-89 37-68 0 7-4 15-10 18-5 3-10 15-10 26 0 13 4 18 12 13 7-4 8-3 4 5-4 6-12 8-18 5-7-5-9 0-6 14 4 12 2 20-3 16-5-3-9 2-9 10 0 9 8 15 18 14 38-3 62 3 59 14-1 7 4 12 11 13 14 0 14 13 1 35-7 13-8 12-9-2 0-21-36-42-56-34-9 3-12 1-9-4 3-6 1-10-4-10-6 0-11 6-11 14 0 16 27 29 41 20 5-3 8-2 7 3-6 19 27 41 49 32 17-6 21-5 16 6-5 15-52 13-76-2-6-4-7-1-1 8 5 8 7 22 6 32-2 10 3 17 13 17 9 0 14 4 11 9s14 26 39 47c25 22 45 45 45 53s6 11 15 7c8-3 15-1 15 4 0 6-18 10-40 10-33 0-48 7-84 40-44 41-73 49-94 28zm96-57c18-22 28-42 22-46-5-3-7-12-3-20 3-9-1-15-8-15-12 0-12-2-1-9 11-6 10-10-4-15-11-4-21-1-27 9-7 13-12 14-23 4-16-13-48-4-39 11 4 6 11 8 16 5 5-4 17-1 26 4 10 6 14 11 9 11s-2 7 5 17c11 13 11 17 1 20-6 3-10 8-7 13 3 4-2 13-10 20-19 15-19 30-2 30 8 0 28-18 45-39z"/>
    <path d="m525 1418c4-10 17-18 31-18s24-6 24-14c0-10-9-12-40-6-33 6-38 5-31-7 11-20 2-64-12-56-6 3-7 1-3-6 4-6 11-9 16-6s11 1 15-5 11-8 16-4c6 4 3 14-7 25-15 17-15 19-1 19 9 0 19-5 22-10 5-8 11-8 20 0 9 7 16 6 24-3 6-8 9-16 7-18s2-10 9-16c21-20 28 4 8 24-10 10-17 28-15 41 4 26-19 52-45 52-11 0-25 6-32 13-10 10-11 9-6-5z"/>
    <path d="m2635 991c-7-12 12-24 25-16 11 7 4 25-10 25-5 0-11-4-15-9z"/>
    <path d="m630 881c0-6 5-13 10-16 6-3 10 1 10 9 0 9-4 16-10 16-5 0-10-4-10-9z"/>
    <path d="m801 864c0-11 3-14 6-6 3 7 2 16-1 19-3 4-6-2-5-13z"/>
    <path d="m641 814c-6-15-9-29-6-32s5 0 5 7 4 9 10 6c6-4 7 1 3 11-4 12-3 15 5 10 7-4 12-1 12 8 0 25-16 19-29-10z"/>
    <path d="m2010 760c0-5 7-10 16-10 8 0 12 5 9 10-3 6-10 10-16 10-5 0-9-4-9-10z"/>
    <path d="m801 714c0-11 3-14 6-6 3 7 2 16-1 19-3 4-6-2-5-13z"/>
    <path d="m1901 708c-20-13-29-24-21-26 6-2 24 7 38 22 32 32 28 33-17 4z"/>
    <path d="m2236 691c-3-5 2-15 12-22 15-12 16-12 5 2-7 9-10 19-6 22 3 4 4 7 0 7-3 0-8-4-11-9z"/>
    <path d="m2010 670c-6-11-8-20-6-20 3 0 10 9 16 20s8 20 6 20c-3 0-10-9-16-20z"/>
    <path d="m2113 669c-2-23 3-25 10-4 4 8 3 16-1 19s-9-4-9-15z"/>
    <path d="m2625 679c-9-14-2-20 14-10 8 6 9 11 3 15-6 3-14 1-17-5z"/>
    <path d="m2450 640c-13-8-12-10 3-10 9 0 17 5 17 10 0 12-1 12-20 0z"/>
    <path d="m1590 601c0-6 4-13 10-16s7 1 4 9c-7 18-14 21-14 7z"/>
    <path d="m1155 589c-4-6-5-12-2-15 2-3 7 2 10 11 7 17 1 20-8 4z"/>
    <path d="m1100 530c-6-11-8-20-6-20 3 0 10 9 16 20s8 20 6 20c-3 0-10-9-16-20z"/>
    <path d="m1116 515c-3-9-6-22-5-28 0-7 5-1 10 12s8 26 5 28c-2 2-6-3-10-12z"/>
    <path d="m2590 485c40-41 43-42 29-12-5 12-22 28-36 34-25 12-25 11 7-22z"/>
    <path d="m980 485c-7-9-11-17-9-20 3-2 10 5 17 15 14 24 10 26-8 5z"/>
    <path d="m1054 493c3-4-8-23-26-42l-33-36 33 30c28 25 33 27 30 11-1-10 3-21 9-23 9-3 12 7 11 31-1 25-6 36-16 36-9 0-12-3-8-7z"/>
    <path d="m1230 465c-1-16-1-40 0-52 1-13-3-23-9-23s-11-6-11-14-5-18-12-22-8-3-4 4 3 12-3 12c-18 0-31-36-18-50 10-10 7-11-13-5l-25 7 24-17c19-15 25-15 32-4s9 11 9-3c0-22 27-17 45 9 13 19 13 23 1 36-11 11-12 17-3 27 10 10 8 12-7 6-18-6-19-5-5 11 10 13 13 31 8 63-5 37-6 39-9 15z"/>
    <path d="m1341 475c1-19 18-51 18-35 0 8-4 22-9 30s-9 11-9 5z"/>
    <path d="m1112 450c7-10 14-18 15-16 6 6-9 36-18 36-5 0-4-9 3-20z"/>
    <path d="m1395 450c-10-11-15-20-12-20 4 0-2-9-13-20-21-21-26-40-11-40 6 0 13 5 16 10 3 6 11 10 16 10 6 0 8-4 4-9-3-5 0-13 6-17 7-4 9-3 5 4-3 5 0 13 6 15 10 4 10 6 0 6-7 1-10 5-7 11 4 6-1 7-12 3-16-6-16-5-4 10 7 9 10 17 6 17-5 0 0 9 10 20s16 20 13 20-13-9-23-20z"/>
    <path d="m371 438c-1-15 4-30 9-33 12-7 12 12 0 40-8 18-9 17-9-7z"/>
    <path d="m1151 435c-1-40 9-76 20-69 5 3 14 14 20 26 9 16 8 19-2 13-7-5-10-4-6 1 3 6 2 16-4 24-7 13-9 13-10 0 0-8-5-4-9 10-8 25-8 24-9-5z"/>
    <path d="m1580 450c0-6-4-9-8-6-4 2-14 1-20-3-10-6-10-10 1-19 10-9 17-7 30 8 9 11 12 22 7 25-6 4-10 1-10-5z"/>
    <path d="m1195 430c-3-5-1-10 4-10 6 0 11 5 11 10 0 6-2 10-4 10-3 0-8-4-11-10z"/>
    <path d="m1499 423c-13-16-12-17 4-4s21 21 13 21c-2 0-10-8-17-17z"/>
    <path d="m800 412c0-10-7-28-16-40-19-27-7-28 26-2 14 11 18 18 9 15-13-5-15-1-12 19 3 14 3 26-1 26-3 0-6-8-6-18z"/>
    <path d="m250 405c0-4 9-18 20-32s20-22 20-18-9 18-20 32-20 22-20 18z"/>
    <path d="m297 390c3-11 2-27-1-36-6-15-10-14-33 7l-27 24 23-32c14-21 18-33 10-33-7 0-4-6 7-15 26-19 2-19-39 1l-32 15 24-19c24-19 24-20 4-26-12-4-25-6-29-5-5 1-18 0-29-1-11-2-2-6 20-10l40-7-37-2c-21 0-38-6-38-12 0-5-6-7-12-3-7 4-5-2 5-13 12-13 25-19 39-15 11 3 24-1 29-9s9-9 9-4c0 6 12 12 26 13 24 2 25 0 13-15-13-15-12-15 8-4 24 12 93 12 93-1 0-4 7-5 16-1 12 4 6 11-23 24-44 21-78 25-67 7 4-7 3-8-5-4-16 10-4 26 20 26 11 0 17 5 14 10-3 6-2 10 3 10 6 0 12 15 14 33 3 17 8 40 13 50 4 10 3 17-3 17s-15-12-21-27c-10-25-10-23-6 17 3 34 2 39-4 20-9-24-9-24-10 8-1 17-5 32-10 32s-7-9-4-20zm13-60c0-5-5-10-11-10-5 0-7 5-4 10 3 6 8 10 11 10 2 0 4-4 4-10zm0-72c0-4-15-5-32-1-47 8-49 14-5 11 20-1 37-6 37-10zm-57-35c-4-10-8-12-10-6-3 7-12 9-21 6-15-4-15-3-2 6 23 17 40 13 33-6z"/>
    <path d="m2359 394c-15-19-22-74-8-74 5 0 9 15 9 33s5 38 12 45 9 12 6 12-12-7-19-16z"/>
    <path d="m630 390c0-8 5-22 10-30 9-13 10-13 10 0 0 8-5 22-10 30-9 13-10 13-10 0z"/>
    <path d="m1615 389c-11-17 3-23 27-11l23 12-24-6c-16-4-21-3-17 5 4 6 5 11 2 11s-8-5-11-11z"/>
    <path d="m930 370c-6-11-8-20-6-20 3 0 10 9 16 20s8 20 6 20c-3 0-10-9-16-20z"/>
    <path d="m1486 365c-3-8-1-15 3-15 5 0 11 7 15 15 3 8 1 15-3 15-5 0-11-7-15-15z"/>
    <path d="m1570 370c-20-5-25-13-27-43-3-44 10-55 25-22 9 19 9 25 0 25-6 0-1 9 12 20 27 24 24 29-10 20z"/>
    <path d="m696 345c-9-26-7-32 5-12 6 10 9 21 6 23-2 3-7-2-11-11z"/>
    <path d="m1132 340c-17-27-15-35 4-16 8 9 14 21 12 26-2 6-9 1-16-10z"/>
    <path d="m1626 345c4-8 8-15 10-15s4 7 4 15-4 15-10 15c-5 0-7-7-4-15z"/>
    <path d="m1368 310c-9-22-15-40-13-40s18 18 35 40c27 34 29 40 13 40-12 0-24-14-35-40z"/>
    <path d="m927 284c-14-14-7-22 18-20 14 0 23 6 22 11-4 12-31 18-40 9z"/>
    <path d="m2474 275c-3-8-4-20-2-27 3-7 7-1 10 15 6 29 1 36-8 12z"/>
    <path d="m678 273c6-2 18-2 25 0 6 3 1 5-13 5s-19-2-12-5z"/>
    <path d="m1524 259c0-22 12-25 19-5 3 8 0 16-6 19-7 3-13-3-13-14z"/>
    <path d="m2142 255c0-16 2-22 5-12 2 9 2 23 0 30-3 6-5-1-5-18z"/>
    <path d="m995 250c-3-5-13-7-23-4-15 5-15 4 1-6 9-6 14-16 11-22-5-7-2-8 5-4 7 5 10 10 7 14-3 3 2 11 12 18 9 8 12 14 5 14-6 0-14-4-18-10z"/>
    <path d="m2220 225c-10-19-16-22-22-13-5 9-8 6-8-9 0-13 4-23 10-23 10 0 44 59 37 66-2 2-10-7-17-21z"/>
    <path d="m2651 234c0-11 3-14 6-6 3 7 2 16-1 19-3 4-6-2-5-13z"/>
    <path d="m2450 220c-5-53-15-75-43-101-35-32-49-37-41-14 4 8 12 15 19 15 23 0 24 28 3 47-12 10-18 12-14 6 4-7 2-13-3-13-6 0-11-5-11-11 0-8 5-8 15 1 25 21 17 3-15-31-31-34-31-54 1-44 10 4 19 2 19-4 0-5-8-11-17-13-10-2 19-4 63-5 74-1 83 1 93 20 10 20 11 20 6 2-4-18 0-20 38-20 32 1 41 4 38 15-2 8-4 21-4 28 0 9-4 9-11 2-5-5-14-10-19-10-11 0 12 21 41 38 19 10 22 10 22-4 0-8-4-12-10-9-5 3-10 1-10-4 0-6 9-11 20-11 14 0 18 5 13 16-3 9-1 19 4 23 6 3 13 22 17 41l6 35-14-35-14-35-7 30c-4 17-8 34-9 38-1 5-10-2-21-15-15-17-16-19-2-9 15 12 17 11 17-6 0-10-7-28-16-39-15-19-15-18-11 4 6 27-1 28-20 5-13-16-14-13-9 27 4 38 3 42-7 24-7-12-17-19-23-17-7 2-10-5-7-21 3-15 10-23 16-19 6 3 7 1 3-6-4-6-12-9-17-6-5 4-13-4-18-17-6-13-10-17-10-10-1 7-6 10-12 6-8-4-9 1-4 17 5 19 4 21-4 9-6-8-11-31-11-50 0-27-3-31-10-20-9 13-11 13-20 0-6-10-10-11-10-2 0 6-12 12-26 12-15 0-23 4-19 11 4 6 19 7 36 4 25-6 29-4 31 17 1 13 2 30 3 38 0 8 4 20 8 27 4 6 3 22-2 35-6 14-10 17-11 8zm120-98c0-4-6-14-12-20-10-10-10-15 2-22 11-7 11-10 2-10-16 0-26 25-18 45 6 16 26 21 26 7z"/>
    <path d="m834 203c3-20 21-28 30-14 4 5-2 15-13 20-16 9-19 8-17-6z"/>
    <path d="m2748 199c-16-11-28-28-28-37 1-16 2-16 14 0 7 10 15 15 18 13 3-3 10 6 16 20 14 30 14 30-20 4z"/>
    <path d="m2130 200c0-5 5-10 10-10 6 0 10 5 10 10 0 6-4 10-10 10-5 0-10-4-10-10z"/>
    <path d="m2685 199c-4-6-5-12-2-15 2-3 7 2 10 11 7 17 1 20-8 4z"/>
    <path d="m2782 187c-12-13-20-27-17-30 3-4 2-5-2-2-8 6-33-14-33-27 0-5 4-7 9-4s11 0 14-7c3-8-1-14-9-14s-14 4-14 9-4 6-10 3c-14-9-12-22 3-22 6 0 26-3 42-7 17-3 24-3 18 0-22 10-15 24 20 40 19 9 34 22 34 30 0 18-18 13-39-11-17-20-17-20-18 4 0 14 7 33 17 43 24 27 10 22-15-5z"/>
    <path d="m2498 193c-2-4-3-14-2-20 1-7 2-17 3-23 0-5 5-10 10-10s8 11 6 25c-3 28-11 41-17 28z"/>
    <path d="m688 183c6-2 18-2 25 0 6 3 1 5-13 5s-19-2-12-5z"/>
    <path d="m919 146c-10-28-15-33-22-21-4 8-5 21-2 28 4 6-1 3-10-8-14-17-17-18-25-5-7 10-10 11-10 3 0-7-9-13-19-13-11 0-23-5-26-10-4-7 2-9 19-4 13 3 31 2 38-2 33-21 55-13 66 24 15 47 7 54-9 8z"/>
    <path d="m993 168c4-12 1-18-8-18-8 0-15-5-15-11 0-8-4-8-14 0-10 9-15 8-20-4-7-20 3-47 16-39 6 4 5 10-3 15-11 7-10 9 4 9 9 0 17-6 17-12 0-9 4-8 10 2 6 9 10 11 10 3 0-19 27-4 27 15 0 9-7 26-15 37-11 16-13 16-9 3z"/>
    <path d="m2668 148c-9-14-12-31-8-43 7-18 9-17 15 10 4 17 8 36 11 43 5 19-2 14-18-10z"/>
    <path d="m446 148c3-5 10-6 15-3 13 9 11 12-6 12-8 0-12-4-9-9z"/>
    <path d="m638 153c6-2 18-2 25 0 6 3 1 5-13 5s-19-2-12-5z"/>
    <path d="m1423 145c-18-8-33-16-33-19 0-6 51 14 65 26 13 11 5 10-32-7z"/>
    <path d="m2691 129c-14-40-9-47 12-16 8 13 12 29 7 36-5 9-11 2-19-20z"/>
    <path d="m2858 153c7-3 16-2 19 1 4 3-2 6-13 5-11 0-14-3-6-6z"/>
    <path d="m803 143c9-2 23-2 30 0 6 3-1 5-18 5-16 0-22-2-12-5z"/>
    <path d="m1455 130c-10-11-21-17-26-15-4 3-11 0-15-6-4-8-3-9 4-5s12 2 12-3c0-6 11-11 25-11s25 5 25 11-7 8-16 5c-14-5-15-4-4 9 7 8 16 12 21 9s6 2 3 10c-8 20-7 20-29-4z"/>
    <path d="m625 110c-3-5-1-10 4-10 6 0 11 5 11 10 0 6-2 10-4 10-3 0-8-4-11-10z"/>
    <path d="m1065 110c-3-5-1-10 4-10 6 0 11 5 11 10 0 6-2 10-4 10-3 0-8-4-11-10z"/>
    <path d="m1663 96c0-8 6-12 14-9 7 3 10 9 7 14-8 14-21 11-21-5z"/>
    <path d="m2796 96c4-10 18-16 38-16 33 1 24 11-21 24-18 6-22 4-17-8z"/>
    <path d="m2863 104c9-3 15-9 13-13-3-4 9-5 25-3 37 5 35 8-16 15-22 3-32 3-22 1z"/>
    <path d="m1575 93c11-3 23-10 26-15 4-6 8-4 12 4 3 10-4 14-27 15-18 1-23-1-11-4z"/>
    <path d="m1540 70c-12-7-10-9 7-7 12 0 19 5 17 9-6 10-6 10-24-2z"/>
    <path d="m2624 69c-4-7-3-9 4-5 6 3 13 2 16-3s15-7 26-4c25 7 18 16-15 20-13 2-27-2-31-8z"/>
    <path d="m1188 63c12-2 30-2 40 0 9 3-1 5-23 4-22 0-30-2-17-4z"/>
    <path d="m2170 66c0-2 7-9 15-16 12-10 15-10 15 4 0 9-7 16-15 16s-15-2-15-4z"/>
    <path d="m1388 43c6-2 18-2 25 0 6 3 1 5-13 5s-19-2-12-5z"/>
    <path d="m1668 33c6-2 18-2 25 0 6 3 1 5-13 5s-19-2-12-5z"/>
  </g>
  <metadata>
    <rdf:RDF>
      <cc:Work>
        <dc:format>image/svg+xml</dc:format>
        <dc:type rdf:resource="http://purl.org/dc/dcmitype/StillImage"/>
        <cc:license rdf:resource="http://creativecommons.org/licenses/publicdomain/"/>
        <dc:publisher>
          <cc:Agent rdf:about="http://openclipart.org/">
            <dc:title>Openclipart</dc:title>
          </cc:Agent>
        </dc:publisher>
        <dc:title>Two wolves</dc:title>
        <dc:date>2013-10-30T07:43:15</dc:date>
        <dc:description>This public domain image comes from http://www.fws.gov/pictures/lineart/bobsavannah/wolves.html and as of 2013-10-30 11:30:15 is this file, http://www.fws.gov/pictures/lineart/bobsavannah/graphics/wolves.jpg. .fws.gov </dc:description>
        <dc:source>https://openclipart.org/detail/186419/two-wolves-by-worldlabel-186419</dc:source>
        <dc:creator>
          <cc:Agent>
            <dc:title>worldlabel</dc:title>
          </cc:Agent>
        </dc:creator>
        <dc:subject>
          <rdf:Bag>
            <rdf:li>bobsavannah</rdf:li>
            <rdf:li>deer</rdf:li>
            <rdf:li>dig</rdf:li>
            <rdf:li>dovectorize+true</rdf:li>
            <rdf:li>graphics</rdf:li>
            <rdf:li>lineart</rdf:li>
            <rdf:li>pd</rdf:li>
            <rdf:li>pictures</rdf:li>
            <rdf:li>publicdomain</rdf:li>
            <rdf:li>upload2openclipart</rdf:li>
            <rdf:li>vectorized</rdf:li>
            <rdf:li>vectorizer+potrace</rdf:li>
            <rdf:li>wolf</rdf:li>
            <rdf:li>wolves</rdf:li>
            <rdf:li>www</rdf:li>
          </rdf:Bag>
        </dc:subject>
      </cc:Work>
      <cc:License rdf:about="http://creativecommons.org/licenses/publicdomain/">
        <cc:permits rdf:resource="http://creativecommons.org/ns#Reproduction"/>
        <cc:permits rdf:resource="http://creativecommons.org/ns#Distribution"/>
        <cc:permits rdf:resource="http://creativecommons.org/ns#DerivativeWorks"/>
      </cc:License>
    </rdf:RDF>
  </metadata>
</svg>