<?xml version="1.0" encoding="UTF-8" standalone="no"?>
<svg
   xmlns:dc="http://purl.org/dc/elements/1.1/"
   xmlns:cc="http://creativecommons.org/ns#"
   xmlns:rdf="http://www.w3.org/1999/02/22-rdf-syntax-ns#"
   xmlns:svg="http://www.w3.org/2000/svg"
   xmlns="http://www.w3.org/2000/svg"
   xmlns:sodipodi="http://sodipodi.sourceforge.net/DTD/sodipodi-0.dtd"
   xmlns:inkscape="http://www.inkscape.org/namespaces/inkscape"
   id="svg3041"
   viewBox="0 0 278.97 176.98"
   version="1.1"
   sodipodi:docname="ᏝᏏ-trafficlight.svg"
   inkscape:version="0.92.1 r15371">
  <sodipodi:namedview
     pagecolor="#ffffff"
     bordercolor="#666666"
     borderopacity="1"
     objecttolerance="10"
     gridtolerance="10"
     guidetolerance="10"
     inkscape:pageopacity="0"
     inkscape:pageshadow="2"
     inkscape:window-width="640"
     inkscape:window-height="480"
     id="namedview67"
     showgrid="false"
     inkscape:zoom="3.0484941"
     inkscape:cx="4.058862"
     inkscape:cy="115.5791"
     inkscape:current-layer="layer1" />
  <title
     id="title4094">Traffic Light</title>
  <defs
     id="defs3043">
    <filter
       id="filter3948"
       height="2.2"
       width="2.2"
       y="-.6"
       x="-.6"
       color-interpolation-filters="sRGB">
      <feGaussianBlur
         id="feGaussianBlur3950"
         stdDeviation="2.375" />
    </filter>
    <filter
       id="filter3975"
       color-interpolation-filters="sRGB">
      <feGaussianBlur
         id="feGaussianBlur3977"
         stdDeviation="0.81075" />
    </filter>
  </defs>
  <g
     id="layer1"
     transform="translate(-281.52 -330.86)"
     style="">
    <g
       id="g4115">
      <g
         id="g4085"
         style="">
        <path
           id="path3053"
           d="m300 352.36h50v140h-50z"
           stroke="#000"
           stroke-width="1px"
           fill="#333"
           style="" />
        <path
           id="path3055"
           d="m290 352.36 10-10h50l10 10z"
           stroke="#000"
           stroke-width="1px"
           fill="#4d4d4d"
           style="" />
        <path
           id="path3057"
           d="m310 492.36v10h30v-10z"
           stroke="#000"
           stroke-width="1px"
           fill="#4d4d4d"
           style="" />
        <path
           id="path3059"
           d="m309.93 342.43v-7.4243c11.385-4.9495 21.43-4.9495 30.136 0v7.4243z"
           stroke="#000"
           stroke-width=".8636px"
           fill="#808080"
           style="" />
        <path
           id="path3061"
           stroke-linejoin="round"
           style="color:#000000;"
           d="m340 302.36c0 11.046-8.9543 20-20 20s-20-8.9543-20-20 8.9543-20 20-20 20 8.9543 20 20z"
           transform="translate(5,73)"
           stroke="#fff"
           stroke-linecap="round"
           stroke-width="2"
           fill="#f00" />
        <path
           id="path3063"
           stroke-linejoin="round"
           style="color:#000000;"
           d="m340 302.36c0 11.046-8.9543 20-20 20s-20-8.9543-20-20 8.9543-20 20-20 20 8.9543 20 20z"
           transform="translate(5,117.5)"
           stroke="#fff"
           stroke-linecap="round"
           stroke-width="2"
           fill="#808080" />
        <path
           id="path3065"
           stroke-linejoin="round"
           style="color:#000000;"
           d="m340 302.36c0 11.046-8.9543 20-20 20s-20-8.9543-20-20 8.9543-20 20-20 20 8.9543 20 20z"
           transform="translate(5,162)"
           stroke="#fff"
           stroke-linecap="round"
           stroke-width="2"
           fill="#808080" />
      </g>
      <g
         id="g3960"
         filter=""
         transform="translate(-111.5,110)">
        <path
           id="path3886"
           d="m 457.82,265.36 h 19.222"
           style="fill:none;stroke:#ffff00;stroke-width:2;stroke-linecap:round"
           inkscape:connector-curvature="0" />
        <path
           id="path3888"
           d="m 451.57,250.29 13.592,-13.592"
           style="fill:none;stroke:#ffff00;stroke-width:2;stroke-linecap:round"
           inkscape:connector-curvature="0" />
        <path
           id="path3890"
           d="M 436.5,244.05 V 224.828"
           style="fill:none;stroke:#ffff00;stroke-width:2;stroke-linecap:round"
           inkscape:connector-curvature="0" />
        <path
           id="path3892"
           d="M 421.43,250.29 407.84,236.7"
           style="fill:none;stroke:#ffff00;stroke-width:2;stroke-linecap:round"
           inkscape:connector-curvature="0" />
        <path
           id="path3894"
           d="M 415.18,265.36 H 395.958"
           style="fill:none;stroke:#ffff00;stroke-width:2;stroke-linecap:round"
           inkscape:connector-curvature="0" />
        <path
           id="path3896"
           d="m 421.43,280.43 -13.592,13.592"
           style="fill:none;stroke:#ffff00;stroke-width:2;stroke-linecap:round"
           inkscape:connector-curvature="0" />
        <path
           id="path3898"
           d="m 436.5,286.68 v 19.222"
           style="fill:none;stroke:#ffff00;stroke-width:2;stroke-linecap:round"
           inkscape:connector-curvature="0" />
        <path
           id="path3900"
           d="m 451.57,280.43 13.592,13.592"
           style="fill:none;stroke:#ffff00;stroke-width:2;stroke-linecap:round"
           inkscape:connector-curvature="0" />
        <path
           id="path3902"
           style="color:#000000;fill:#ffffff;filter:url(#filter3948)"
           d="m 523,230.61 c 0,2.6234 -2.1266,4.75 -4.75,4.75 -2.6234,0 -4.75,-2.1266 -4.75,-4.75 0,-2.6234 2.1266,-4.75 4.75,-4.75 2.6234,0 4.75,2.1266 4.75,4.75 z"
           transform="matrix(2.142,0,0,2.142,-673.58,-228.61)"
           inkscape:connector-curvature="0" />
      </g>
    </g>
    <g
       id="g4066"
       transform="translate(-7.4916)"
       style="">
      <path
         id="path3979"
         d="m399.5 352.86h50v140h-50z"
         stroke="#000"
         stroke-width="1px"
         fill="#333"
         style="" />
      <path
         id="path3981"
         d="m389.5 352.86 10-10h50l10 10z"
         stroke="#000"
         stroke-width="1px"
         fill="#4d4d4d"
         style="" />
      <path
         id="path3983"
         d="m409.5 492.86v10h30v-10z"
         stroke="#000"
         stroke-width="1px"
         fill="#4d4d4d"
         style="" />
      <path
         id="path3985"
         d="m409.43 342.93v-7.4243c11.385-4.9495 21.43-4.9495 30.136 0v7.4243z"
         stroke="#000"
         stroke-width=".8636px"
         fill="#808080"
         style="" />
      <path
         id="path3987"
         stroke-linejoin="round"
         style="color:#000000;"
         d="m340 302.36c0 11.046-8.9543 20-20 20s-20-8.9543-20-20 8.9543-20 20-20 20 8.9543 20 20z"
         transform="translate(104.5,73.5)"
         stroke="#fff"
         stroke-linecap="round"
         stroke-width="2"
         fill="#808080" />
      <path
         id="path3989"
         stroke-linejoin="round"
         style="color:#000000;"
         d="m340 302.36c0 11.046-8.9543 20-20 20s-20-8.9543-20-20 8.9543-20 20-20 20 8.9543 20 20z"
         transform="translate(104.5,118)"
         stroke="#fff"
         stroke-linecap="round"
         stroke-width="2"
         fill="#ff0" />
      <path
         id="path3991"
         stroke-linejoin="round"
         style="color:#000000;"
         d="m340 302.36c0 11.046-8.9543 20-20 20s-20-8.9543-20-20 8.9543-20 20-20 20 8.9543 20 20z"
         transform="translate(104.5,162.5)"
         stroke="#fff"
         stroke-linecap="round"
         stroke-width="2"
         fill="#808080" />
      <g
         id="g3993"
         filter=""
         transform="translate(-12,155)">
        <path
           id="path3995"
           d="m 457.82,265.36 h 19.222"
           style="fill:none;stroke:#ffff00;stroke-width:2;stroke-linecap:round"
           inkscape:connector-curvature="0" />
        <path
           id="path3997"
           d="m 451.57,250.29 13.592,-13.592"
           style="fill:none;stroke:#ffff00;stroke-width:2;stroke-linecap:round"
           inkscape:connector-curvature="0" />
        <path
           id="path3999"
           d="M 436.5,244.05 V 224.828"
           style="fill:none;stroke:#ffff00;stroke-width:2;stroke-linecap:round"
           inkscape:connector-curvature="0" />
        <path
           id="path4001"
           d="M 421.43,250.29 407.84,236.7"
           style="fill:none;stroke:#ffff00;stroke-width:2;stroke-linecap:round"
           inkscape:connector-curvature="0" />
        <path
           id="path4003"
           d="M 415.18,265.36 H 395.958"
           style="fill:none;stroke:#ffff00;stroke-width:2;stroke-linecap:round"
           inkscape:connector-curvature="0" />
        <path
           id="path4005"
           d="m 421.43,280.43 -13.592,13.592"
           style="fill:none;stroke:#ffff00;stroke-width:2;stroke-linecap:round"
           inkscape:connector-curvature="0" />
        <path
           id="path4007"
           d="m 436.5,286.68 v 19.222"
           style="fill:none;stroke:#ffff00;stroke-width:2;stroke-linecap:round"
           inkscape:connector-curvature="0" />
        <path
           id="path4009"
           d="m 451.57,280.43 13.592,13.592"
           style="fill:none;stroke:#ffff00;stroke-width:2;stroke-linecap:round"
           inkscape:connector-curvature="0" />
        <path
           id="path4011"
           style="color:#000000;fill:#ffffff;filter:url(#filter3948)"
           d="m 523,230.61 c 0,2.6234 -2.1266,4.75 -4.75,4.75 -2.6234,0 -4.75,-2.1266 -4.75,-4.75 0,-2.6234 2.1266,-4.75 4.75,-4.75 2.6234,0 4.75,2.1266 4.75,4.75 z"
           transform="matrix(2.142,0,0,2.142,-673.58,-228.61)"
           inkscape:connector-curvature="0" />
      </g>
    </g>
    <g
       id="g4047"
       transform="translate(.000023651)"
       style="">
      <path
         id="path4013"
         d="m492 352.36h50v140h-50z"
         stroke="#000"
         stroke-width="1px"
         fill="#333"
         style="" />
      <path
         id="path4015"
         d="m482 352.36 10-10h50l10 10z"
         stroke="#000"
         stroke-width="1px"
         fill="#4d4d4d"
         style="" />
      <path
         id="path4017"
         d="m502 492.36v10h30v-10z"
         stroke="#000"
         stroke-width="1px"
         fill="#4d4d4d"
         style="" />
      <path
         id="path4019"
         d="m501.93 342.43v-7.4243c11.385-4.9495 21.43-4.9495 30.136 0v7.4243z"
         stroke="#000"
         stroke-width=".8636px"
         fill="#808080"
         style="" />
      <path
         id="path4021"
         stroke-linejoin="round"
         style="color:#000000;"
         d="m340 302.36c0 11.046-8.9543 20-20 20s-20-8.9543-20-20 8.9543-20 20-20 20 8.9543 20 20z"
         transform="translate(197,73)"
         stroke="#fff"
         stroke-linecap="round"
         stroke-width="2"
         fill="#808080" />
      <path
         id="path4023"
         stroke-linejoin="round"
         style="color:#000000;"
         d="m340 302.36c0 11.046-8.9543 20-20 20s-20-8.9543-20-20 8.9543-20 20-20 20 8.9543 20 20z"
         transform="translate(197,117.5)"
         stroke="#fff"
         stroke-linecap="round"
         stroke-width="2"
         fill="#808080" />
      <path
         id="path4025"
         stroke-linejoin="round"
         style="color:#000000;"
         d="m340 302.36c0 11.046-8.9543 20-20 20s-20-8.9543-20-20 8.9543-20 20-20 20 8.9543 20 20z"
         transform="translate(197,162)"
         stroke="#fff"
         stroke-linecap="round"
         stroke-width="2"
         fill="#0f0" />
      <g
         id="g4027"
         filter=""
         transform="translate(80.5,199)">
        <path
           id="path4029"
           d="m 457.82,265.36 h 19.222"
           style="fill:none;stroke:#ffff00;stroke-width:2;stroke-linecap:round"
           inkscape:connector-curvature="0" />
        <path
           id="path4031"
           d="m 451.57,250.29 13.592,-13.592"
           style="fill:none;stroke:#ffff00;stroke-width:2;stroke-linecap:round"
           inkscape:connector-curvature="0" />
        <path
           id="path4033"
           d="M 436.5,244.05 V 224.828"
           style="fill:none;stroke:#ffff00;stroke-width:2;stroke-linecap:round"
           inkscape:connector-curvature="0" />
        <path
           id="path4035"
           d="M 421.43,250.29 407.84,236.7"
           style="fill:none;stroke:#ffff00;stroke-width:2;stroke-linecap:round"
           inkscape:connector-curvature="0" />
        <path
           id="path4037"
           d="M 415.18,265.36 H 395.958"
           style="fill:none;stroke:#ffff00;stroke-width:2;stroke-linecap:round"
           inkscape:connector-curvature="0" />
        <path
           id="path4039"
           d="m 421.43,280.43 -13.592,13.592"
           style="fill:none;stroke:#ffff00;stroke-width:2;stroke-linecap:round"
           inkscape:connector-curvature="0" />
        <path
           id="path4041"
           d="m 436.5,286.68 v 19.222"
           style="fill:none;stroke:#ffff00;stroke-width:2;stroke-linecap:round"
           inkscape:connector-curvature="0" />
        <path
           id="path4043"
           d="m 451.57,280.43 13.592,13.592"
           style="fill:none;stroke:#ffff00;stroke-width:2;stroke-linecap:round"
           inkscape:connector-curvature="0" />
        <path
           id="path4045"
           style="color:#000000;fill:#ffffff;filter:url(#filter3948)"
           d="m 523,230.61 c 0,2.6234 -2.1266,4.75 -4.75,4.75 -2.6234,0 -4.75,-2.1266 -4.75,-4.75 0,-2.6234 2.1266,-4.75 4.75,-4.75 2.6234,0 4.75,2.1266 4.75,4.75 z"
           transform="matrix(2.142,0,0,2.142,-673.58,-228.61)"
           inkscape:connector-curvature="0" />
      </g>
    </g>
  </g>
  <metadata
     id="metadata64">
    <rdf:RDF>
      <cc:Work>
        <dc:format>image/svg+xml</dc:format>
        <dc:type
           rdf:resource="http://purl.org/dc/dcmitype/StillImage" />
        <cc:license
           rdf:resource="http://creativecommons.org/licenses/publicdomain/" />
        <dc:publisher>
          <cc:Agent
             rdf:about="http://openclipart.org/">
            <dc:title>Openclipart</dc:title>
          </cc:Agent>
        </dc:publisher>
        <dc:title>Traffic Light (RYG)</dc:title>
        <dc:date>2013-09-04T18:29:45</dc:date>
        <dc:description>Icon-ized traffic light with each light emphasized</dc:description>
        <dc:source>https://openclipart.org/detail/182934/traffic-light-ryg-by-algotruneman-182934</dc:source>
        <dc:creator>
          <cc:Agent>
            <dc:title>algotruneman</dc:title>
          </cc:Agent>
        </dc:creator>
        <dc:subject>
          <rdf:Bag>
            <rdf:li>caution</rdf:li>
            <rdf:li>go</rdf:li>
            <rdf:li>stop</rdf:li>
            <rdf:li>traffic</rdf:li>
            <rdf:li>traffic light</rdf:li>
            <rdf:li>traffic semaphore</rdf:li>
          </rdf:Bag>
        </dc:subject>
      </cc:Work>
      <cc:License
         rdf:about="http://creativecommons.org/licenses/publicdomain/">
        <cc:permits
           rdf:resource="http://creativecommons.org/ns#Reproduction" />
        <cc:permits
           rdf:resource="http://creativecommons.org/ns#Distribution" />
        <cc:permits
           rdf:resource="http://creativecommons.org/ns#DerivativeWorks" />
      </cc:License>
    </rdf:RDF>
  </metadata>
</svg>
