<?xml version="1.0" encoding="UTF-8" standalone="no"?>
<!-- Created with Inkscape (http://www.inkscape.org/) -->

<svg
   xmlns:dc="http://purl.org/dc/elements/1.1/"
   xmlns:cc="http://creativecommons.org/ns#"
   xmlns:rdf="http://www.w3.org/1999/02/22-rdf-syntax-ns#"
   xmlns:svg="http://www.w3.org/2000/svg"
   xmlns="http://www.w3.org/2000/svg"
   xmlns:sodipodi="http://sodipodi.sourceforge.net/DTD/sodipodi-0.dtd"
   xmlns:inkscape="http://www.inkscape.org/namespaces/inkscape"
   id="svg3661"
   sodipodi:docname="big-wave-hello.svg"
   viewBox="0 0 100.72 129.21"
   version="1.1"
   inkscape:version="0.92.1 r15371"
   width="107.43467"
   height="137.82401">
  <defs
     id="defs3663">
    <filter
       id="filter4767"
       inkscape:collect="always"
       style="color-interpolation-filters:sRGB">
      <feGaussianBlur
         id="feGaussianBlur4769"
         stdDeviation="0.59301602"
         inkscape:collect="always" />
    </filter>
    <filter
       id="filter4771"
       inkscape:collect="always"
       style="color-interpolation-filters:sRGB">
      <feGaussianBlur
         id="feGaussianBlur4773"
         stdDeviation="0.59301602"
         inkscape:collect="always" />
    </filter>
  </defs>
  <sodipodi:namedview
     id="base"
     bordercolor="#666666"
     inkscape:pageshadow="2"
     inkscape:window-y="24"
     fit-margin-left="0"
     pagecolor="#ffffff"
     inkscape:window-height="1124"
     inkscape:window-maximized="1"
     inkscape:zoom="2"
     inkscape:window-x="0"
     showgrid="false"
     borderopacity="1.0"
     inkscape:current-layer="layer1"
     inkscape:cx="142.38591"
     inkscape:cy="59.712669"
     fit-margin-top="0"
     fit-margin-right="0"
     fit-margin-bottom="0"
     inkscape:window-width="1920"
     inkscape:pageopacity="0.0"
     inkscape:document-units="px" />
  <g
     id="layer1"
     inkscape:label="Layer 1"
     inkscape:groupmode="layer"
     transform="translate(-106.5,-462.86)">
    <ellipse
       id="path3954-8-5-7-3-4-8-9-1-7-1-4-7-0-9"
       style="fill:#ab926c;fill-rule:evenodd;stroke:#000000;stroke-width:42.64099884;stroke-linecap:round;stroke-linejoin:round"
       transform="matrix(0.035852,0.015732,-0.026484,0.037537,254.92,562.39)"
       cx="-1200"
       cy="429.36218"
       rx="136"
       ry="119" />
    <rect
       id="rect3252-71-0-6-0-2-7-2-9-8-9"
       style="fill:#ffffff;fill-rule:evenodd;stroke:#000000;stroke-width:1.56710005;stroke-linecap:round;stroke-linejoin:round"
       transform="rotate(-25.934)"
       rx="5.9833002"
       ry="17.523001"
       height="39.319"
       width="24.503"
       y="551.12"
       x="-78.699997" />
    <rect
       id="rect3252-6-7-2-7-0-8-8-6-7-2-1"
       style="fill:#558040;fill-rule:evenodd;stroke:#000000;stroke-width:1.77450001;stroke-linecap:round;stroke-linejoin:round"
       transform="matrix(1,-1.8158e-4,6.0634e-4,1,0,0)"
       rx="18.190001"
       ry="7.5465002"
       height="48.299999"
       width="55.004002"
       y="537.66998"
       x="137.28999" />
    <path
       id="path3352-0-2-4-5-6-7-3-1-6"
       style="fill:#ffffff;stroke:#000000;stroke-width:2.00200009"
       inkscape:connector-curvature="0"
       d="m 133.98,529.14 c 0.82017,4.681 7.801,8.2707 16.466,10.737 0.26722,-6.4576 0.0793,-13.753 -0.50927,-20.54 -8.8862,1.068 -15.938,3.6253 -16.049,8.7625 -0.008,0.35559 0.0317,0.69706 0.092,1.0408 z" />
    <path
       id="path3932-5-3-8-0-8-6-6-0-8-2-2-7"
       style="fill:#ffffff;fill-rule:evenodd;stroke:#000000;stroke-width:1.84570003;stroke-linecap:round;stroke-linejoin:round"
       inkscape:connector-curvature="0"
       d="m 165.58,512.48 c -0.0994,0 -0.19907,0.009 -0.29828,0.009 -0.0564,0 -0.1128,0 -0.16917,-0.009 h -0.26265 v 0.0215 c -6.6554,0.36169 -12.821,4.3279 -16.953,9.3351 -8.8562,10.661 -12.234,24.703 -12.532,38.177 0.23267,3.4559 -0.44717,7.6045 1.0195,10.601 5.3293,3.2463 14.727,3.7896 21.133,4.5483 1.7001,0.0752 4.4004,0.0964 7.3322,0.11267 v 0.009 c 0.30763,0 0.60033,0 0.90372,-0.009 0.0299,-1.8e-4 0.0592,1.8e-4 0.089,0 2.9318,-0.0161 5.6321,-0.0376 7.3322,-0.11267 6.4062,-0.75875 15.804,-1.302 21.133,-4.5483 1.4667,-2.9967 0.78681,-7.1453 1.0195,-10.601 -0.29814,-13.474 -3.6757,-27.516 -12.532,-38.177 -4.1318,-5.0071 -10.297,-8.9733 -16.953,-9.335 v -0.0304 c -0.0871,-8e-5 -0.1757,0 -0.26265,0 z" />
    <path
       id="path17510-1-7-1-8"
       style="fill:#635140;fill-rule:evenodd;stroke:#000000;stroke-width:1.49940002;stroke-linecap:round;stroke-linejoin:round"
       sodipodi:type="star"
       sodipodi:sides="11"
       inkscape:transform-center-x="-0.0088475601"
       sodipodi:r1="28.843048"
       sodipodi:r2="24.408302"
       inkscape:transform-center-y="0.031874529"
       transform="matrix(0.61691,0,0,0.61691,284.33,481.08)"
       sodipodi:arg2="0.57705809"
       sodipodi:arg1="0.29145876"
       inkscape:randomized="0"
       sodipodi:cy="1.85"
       sodipodi:cx="-157"
       inkscape:rounded="0.53"
       inkscape:flatsided="false"
       d="m -129.37339,10.138043 c -1.33379,4.445952 -4.63838,1.138083 -7.17071,5.028169 -2.53234,3.890086 1.82995,5.57314 -1.69577,8.592208 -3.52572,3.019069 -4.51735,-1.550281 -8.75082,0.353183 -4.23348,1.903465 -1.47361,5.677774 -6.07187,6.311426 -4.59826,0.633652 -2.96209,-3.746442 -7.55261,-4.433936 -4.59051,-0.687494 -4.30931,3.979754 -8.52019,2.02681 -4.21088,-1.952944 -0.46639,-4.753135 -3.95649,-7.813312 -3.4901,-3.060178 -5.77684,1.018191 -8.26342,-2.901304 -2.48658,-3.919494 2.17739,-4.25074 0.89578,-8.7120162 -1.2816,-4.4612767 -5.41026,-2.2666406 -5.38306,-6.9082736 0.0272,-4.6416329 4.12986,-2.39876539 5.46365,-6.8447171 1.3338,-4.4459518 -3.32597,-4.8318297 -0.79363,-8.7219161 2.53234,-3.890086 4.77113,0.2148 8.29685,-2.804268 3.52572,-3.019069 -0.1857,-5.862947 4.04778,-7.766411 4.23348,-1.903464 3.8976,2.760168 8.49586,2.126515 4.59826,-0.633652 3.01353,-5.03262 7.60405,-4.345126 4.59051,0.687494 1.78661,4.429202 5.99748,6.382146 4.21088,1.952944 5.25599,-2.604472 8.74609,0.455706 3.4901,3.060178 -0.89162,4.691996 1.59496,8.61149 2.48658,3.9194946 5.8297,0.650578 7.1113,5.1118548 1.2816,4.4612767 -3.28676,3.4651141 -3.31396,8.106747 -0.0272,4.641633 4.55253,3.6990736 3.21873,8.1450252 z" />
    <path
       id="path17510-1-2-6"
       style="fill:#635140;fill-rule:evenodd;stroke:#000000;stroke-width:1.49940002;stroke-linecap:round;stroke-linejoin:round"
       sodipodi:type="star"
       sodipodi:sides="11"
       inkscape:transform-center-x="-0.0088475601"
       sodipodi:r1="28.843048"
       sodipodi:r2="24.408302"
       inkscape:transform-center-y="0.031874529"
       transform="matrix(0.61691,0,0,0.61691,241.66,479.83)"
       sodipodi:arg2="0.57705809"
       sodipodi:arg1="0.29145876"
       inkscape:randomized="0"
       sodipodi:cy="1.85"
       sodipodi:cx="-157"
       inkscape:rounded="0.53"
       inkscape:flatsided="false"
       d="m -129.37339,10.138043 c -1.33379,4.445952 -4.63838,1.138083 -7.17071,5.028169 -2.53234,3.890086 1.82995,5.57314 -1.69577,8.592208 -3.52572,3.019069 -4.51735,-1.550281 -8.75082,0.353183 -4.23348,1.903465 -1.47361,5.677774 -6.07187,6.311426 -4.59826,0.633652 -2.96209,-3.746442 -7.55261,-4.433936 -4.59051,-0.687494 -4.30931,3.979754 -8.52019,2.02681 -4.21088,-1.952944 -0.46639,-4.753135 -3.95649,-7.813312 -3.4901,-3.060178 -5.77684,1.018191 -8.26342,-2.901304 -2.48658,-3.919494 2.17739,-4.25074 0.89578,-8.7120162 -1.2816,-4.4612767 -5.41026,-2.2666406 -5.38306,-6.9082736 0.0272,-4.6416329 4.12986,-2.39876539 5.46365,-6.8447171 1.3338,-4.4459518 -3.32597,-4.8318297 -0.79363,-8.7219161 2.53234,-3.890086 4.77113,0.2148 8.29685,-2.804268 3.52572,-3.019069 -0.1857,-5.862947 4.04778,-7.766411 4.23348,-1.903464 3.8976,2.760168 8.49586,2.126515 4.59826,-0.633652 3.01353,-5.03262 7.60405,-4.345126 4.59051,0.687494 1.78661,4.429202 5.99748,6.382146 4.21088,1.952944 5.25599,-2.604472 8.74609,0.455706 3.4901,3.060178 -0.89162,4.691996 1.59496,8.61149 2.48658,3.9194946 5.8297,0.650578 7.1113,5.1118548 1.2816,4.4612767 -3.28676,3.4651141 -3.31396,8.106747 -0.0272,4.641633 4.55253,3.6990736 3.21873,8.1450252 z" />
    <g
       id="g5111"
       transform="matrix(-1.0121,0.40196,-0.40196,-1.0121,149.28,1000)">
      <ellipse
         id="path3954-8-5-7-3-4-8-9-1-7-1-6-4-9"
         style="fill:#ab926c;fill-rule:evenodd;stroke:#000000;stroke-width:42.64099884;stroke-linecap:round;stroke-linejoin:round"
         transform="matrix(-0.023315,0.031452,0.041623,0.019442,-186.46,472.2)"
         cx="-1200"
         cy="429.36218"
         rx="136"
         ry="119" />
      <path
         id="path3352-0-2-4-5-6-0"
         d="m -133.09,437.29 c -0.60818,-10.697 -8.1894,-37.502 -16.95,-36.195 -8.7602,1.3068 -4.3844,27.527 -1.5571,37.573 1.0458,3.716 14.727,1.8359 18.507,-1.3777 z"
         sodipodi:nodetypes="cssc"
         style="fill:#ffffff;stroke:#000000;stroke-width:1.55799997"
         inkscape:connector-curvature="0" />
    </g>
    <rect
       id="rect4240-4-5-4-7-7-1-4-3"
       style="fill:#ab926c;fill-rule:evenodd;stroke:#000000;stroke-width:1.79009998;stroke-linecap:round;stroke-linejoin:bevel"
       rx="29.983999"
       ry="25.957001"
       height="53.703999"
       width="62.653999"
       y="475.38"
       x="134.37" />
    <path
       id="path458-3-6-66-7-2-8-3-1-0"
       d="m 152.49,503.15 c 0,1.4831 -1.2013,2.6849 -2.6849,2.6849 -1.4831,0 -2.6854,-1.2018 -2.6854,-2.6849 0,-1.4826 1.2023,-2.6854 2.6854,-2.6854 1.4836,0 2.6849,1.2029 2.6849,2.6854"
       style="fill:#231f20"
       inkscape:connector-curvature="0" />
    <path
       id="path458-9-9-2-9-2-2-9-2-8"
       d="m 177.55,502.7 c 0,1.4831 -1.2013,2.6849 -2.6849,2.6849 -1.4831,0 -2.6854,-1.2018 -2.6854,-2.6849 0,-1.4826 1.2023,-2.6854 2.6854,-2.6854 1.4836,0 2.6849,1.2029 2.6849,2.6854"
       style="fill:#231f20"
       inkscape:connector-curvature="0" />
    <g
       id="g8516-4-0-4-3"
       style="stroke:#c55a58;stroke-linecap:round;stroke-linejoin:bevel;filter:url(#filter4767)"
       transform="matrix(0.36982,0,0,0.28115,346.6,-166.83)">
      <g
         id="g8472-0-5-1-9"
         style="stroke:#c55a58;stroke-width:39.40200043;stroke-linecap:round;stroke-linejoin:bevel"
         transform="matrix(0.22884,0,0,0.32281,-434.24,1726.1)">
        <g
           id="g8444-11-7-9-8"
           style="stroke:#c55a58;stroke-width:39.40200043;stroke-linecap:round;stroke-linejoin:bevel">
          <path
             id="path8424-98-5-1-6"
             d="m -560.32,2545.7 c 48.727,-11.127 48.922,-90.633 81.178,-98.636"
             sodipodi:nodetypes="cc"
             style="fill:none;stroke:#c55a58;stroke-width:39.40200043;stroke-linecap:round;stroke-linejoin:bevel"
             inkscape:connector-curvature="0" />
          <path
             id="path8424-7-9-0-6-9"
             d="m -399.41,2545.7 c -48.727,-11.127 -48.922,-90.633 -81.178,-98.636"
             sodipodi:nodetypes="cc"
             style="fill:none;stroke:#c55a58;stroke-width:39.40200043;stroke-linecap:round;stroke-linejoin:bevel"
             inkscape:connector-curvature="0" />
        </g>
        <g
           id="g8444-1-0-5-2-6"
           style="stroke:#c55a58;stroke-width:39.40200043;stroke-linecap:round;stroke-linejoin:bevel"
           transform="translate(159.86,-1.7e-5)">
          <path
             id="path8424-9-6-3-6-7"
             d="m -560.32,2545.7 c 48.727,-11.127 48.922,-90.633 81.178,-98.636"
             sodipodi:nodetypes="cc"
             style="fill:none;stroke:#c55a58;stroke-width:39.40200043;stroke-linecap:round;stroke-linejoin:bevel"
             inkscape:connector-curvature="0" />
          <path
             id="path8424-7-6-9-3-6-1"
             d="m -399.41,2545.7 c -48.727,-11.127 -48.922,-90.633 -81.178,-98.636"
             sodipodi:nodetypes="cc"
             style="fill:none;stroke:#c55a58;stroke-width:39.40200043;stroke-linecap:round;stroke-linejoin:bevel"
             inkscape:connector-curvature="0" />
        </g>
      </g>
      <g
         id="g8472-7-5-7-2-9"
         style="stroke:#c55a58;stroke-width:39.40200043;stroke-linecap:round;stroke-linejoin:bevel"
         transform="matrix(0.22884,0,0,0.32281,-361.48,1726.5)">
        <g
           id="g8444-7-1-2-6-2"
           style="stroke:#c55a58;stroke-width:39.40200043;stroke-linecap:round;stroke-linejoin:bevel">
          <path
             id="path8424-97-1-1-5-0"
             d="m -560.32,2545.7 c 48.727,-11.127 48.922,-90.633 81.178,-98.636"
             sodipodi:nodetypes="cc"
             style="fill:none;stroke:#c55a58;stroke-width:39.40200043;stroke-linecap:round;stroke-linejoin:bevel"
             inkscape:connector-curvature="0" />
          <path
             id="path8424-7-2-5-9-4-9"
             d="m -399.41,2545.7 c -48.727,-11.127 -48.922,-90.633 -81.178,-98.636"
             sodipodi:nodetypes="cc"
             style="fill:none;stroke:#c55a58;stroke-width:39.40200043;stroke-linecap:round;stroke-linejoin:bevel"
             inkscape:connector-curvature="0" />
        </g>
        <g
           id="g8444-1-7-6-0-3-2"
           style="stroke:#c55a58;stroke-width:39.40200043;stroke-linecap:round;stroke-linejoin:bevel"
           transform="translate(159.86,-1.7e-5)">
          <path
             id="path8424-9-3-0-5-30-7"
             d="m -560.32,2545.7 c 48.727,-11.127 48.922,-90.633 81.178,-98.636"
             sodipodi:nodetypes="cc"
             style="fill:none;stroke:#c55a58;stroke-width:39.40200043;stroke-linecap:round;stroke-linejoin:bevel"
             inkscape:connector-curvature="0" />
          <path
             id="path8424-7-6-5-3-2-6-8"
             d="m -399.41,2545.7 c -48.727,-11.127 -48.922,-90.633 -81.178,-98.636"
             sodipodi:nodetypes="cc"
             style="fill:none;stroke:#c55a58;stroke-width:39.40200043;stroke-linecap:round;stroke-linejoin:bevel"
             inkscape:connector-curvature="0" />
        </g>
      </g>
    </g>
    <g
       id="g8516-4-0-2-6-7"
       style="stroke:#c55a58;stroke-linecap:round;stroke-linejoin:bevel;filter:url(#filter4771)"
       transform="matrix(0.36982,0,0,0.28115,346.05,-154.03)">
      <g
         id="g8472-0-5-5-3-5"
         style="stroke:#c55a58;stroke-width:39.40200043;stroke-linecap:round;stroke-linejoin:bevel"
         transform="matrix(0.22884,0,0,0.32281,-434.24,1726.1)">
        <g
           id="g8444-11-7-7-0-1"
           style="stroke:#c55a58;stroke-width:39.40200043;stroke-linecap:round;stroke-linejoin:bevel">
          <path
             id="path8424-98-5-2-3-8"
             d="m -560.32,2545.7 c 48.727,-11.127 48.922,-90.633 81.178,-98.636"
             sodipodi:nodetypes="cc"
             style="fill:none;stroke:#c55a58;stroke-width:39.40200043;stroke-linecap:round;stroke-linejoin:bevel"
             inkscape:connector-curvature="0" />
          <path
             id="path8424-7-9-0-3-7-9"
             d="m -399.41,2545.7 c -48.727,-11.127 -48.922,-90.633 -81.178,-98.636"
             sodipodi:nodetypes="cc"
             style="fill:none;stroke:#c55a58;stroke-width:39.40200043;stroke-linecap:round;stroke-linejoin:bevel"
             inkscape:connector-curvature="0" />
        </g>
        <g
           id="g8444-1-0-5-9-3-0"
           style="stroke:#c55a58;stroke-width:39.40200043;stroke-linecap:round;stroke-linejoin:bevel"
           transform="translate(159.86,-1.7e-5)">
          <path
             id="path8424-9-6-3-7-3-8"
             d="m -560.32,2545.7 c 48.727,-11.127 48.922,-90.633 81.178,-98.636"
             sodipodi:nodetypes="cc"
             style="fill:none;stroke:#c55a58;stroke-width:39.40200043;stroke-linecap:round;stroke-linejoin:bevel"
             inkscape:connector-curvature="0" />
          <path
             id="path8424-7-6-9-3-4-7-8"
             d="m -399.41,2545.7 c -48.727,-11.127 -48.922,-90.633 -81.178,-98.636"
             sodipodi:nodetypes="cc"
             style="fill:none;stroke:#c55a58;stroke-width:39.40200043;stroke-linecap:round;stroke-linejoin:bevel"
             inkscape:connector-curvature="0" />
        </g>
      </g>
      <g
         id="g8472-7-5-7-7-7-1"
         style="stroke:#c55a58;stroke-width:39.40200043;stroke-linecap:round;stroke-linejoin:bevel"
         transform="matrix(0.22884,0,0,0.32281,-361.48,1726.5)">
        <g
           id="g8444-7-1-2-3-5-9"
           style="stroke:#c55a58;stroke-width:39.40200043;stroke-linecap:round;stroke-linejoin:bevel">
          <path
             id="path8424-97-1-1-8-9-8"
             d="m -560.32,2545.7 c 48.727,-11.127 48.922,-90.633 81.178,-98.636"
             sodipodi:nodetypes="cc"
             style="fill:none;stroke:#c55a58;stroke-width:39.40200043;stroke-linecap:round;stroke-linejoin:bevel"
             inkscape:connector-curvature="0" />
          <path
             id="path8424-7-2-5-9-3-9-9"
             d="m -399.41,2545.7 c -48.727,-11.127 -48.922,-90.633 -81.178,-98.636"
             sodipodi:nodetypes="cc"
             style="fill:none;stroke:#c55a58;stroke-width:39.40200043;stroke-linecap:round;stroke-linejoin:bevel"
             inkscape:connector-curvature="0" />
        </g>
        <g
           id="g8444-1-7-6-0-6-1-7"
           style="stroke:#c55a58;stroke-width:39.40200043;stroke-linecap:round;stroke-linejoin:bevel"
           transform="translate(159.86,-1.7e-5)">
          <path
             id="path8424-9-3-0-5-3-0-1"
             d="m -560.32,2545.7 c 48.727,-11.127 48.922,-90.633 81.178,-98.636"
             sodipodi:nodetypes="cc"
             style="fill:none;stroke:#c55a58;stroke-width:39.40200043;stroke-linecap:round;stroke-linejoin:bevel"
             inkscape:connector-curvature="0" />
          <path
             id="path8424-7-6-5-3-2-2-1-0"
             d="m -399.41,2545.7 c -48.727,-11.127 -48.922,-90.633 -81.178,-98.636"
             sodipodi:nodetypes="cc"
             style="fill:none;stroke:#c55a58;stroke-width:39.40200043;stroke-linecap:round;stroke-linejoin:bevel"
             inkscape:connector-curvature="0" />
        </g>
      </g>
    </g>
    <path
       id="rect4240-4-5-4-7-7-1-2-5-5"
       style="fill:#635140;fill-rule:evenodd"
       inkscape:connector-curvature="0"
       d="m 164.13,475.07 c -14.004,0 -25.702,8.2077 -29.031,19.406 6.8947,-7.0866 17.64,-12.206 31.594,-12.25 17.945,-0.0571 25.124,8.36 29.719,14.5 -2.3565,-12.316 -14.678,-21.656 -29.594,-21.656 h -2.6875 z" />
    <g
       id="g588-0-6-2-8-2-5-6-1-5-3-7-8-2-0-6"
       style="fill:#b66b6f;stroke:#000000;stroke-width:2.32189989;stroke-linecap:round;stroke-linejoin:round"
       transform="matrix(0.56513,0,0,-0.37841,177.12,512.6)">
      <path
         id="path590-4-20-9-2-9-1-2-5-9-0-6-6-5-9-1"
         sodipodi:nodetypes="cscc"
         style="fill:#b66b6f;stroke:#000000;stroke-width:2.32189989;stroke-linecap:round;stroke-linejoin:round"
         inkscape:connector-curvature="0"
         d="m -9.6745,0.38698 c 0,0 -2.0344,-24.631 -15.497,-25.231 -11.323,-0.504 -14.454,24.844 -14.454,24.844 z" />
    </g>
    <path
       id="path4010-7-1-8-9-8-8-6-7-4-2-6-3"
       sodipodi:nodetypes="cscc"
       style="fill:#ffffff;stroke:#000000;stroke-width:1.97210002"
       inkscape:connector-curvature="0"
       d="m 168.74,588.83 c 0,0 0.25465,-10.874 11.58,-11.465 15.235,-0.79478 17.211,9.7972 17.211,9.7972 1.3582,3.1585 -28.912,6.1145 -28.791,1.6677 z" />
    <path
       id="path4010-1-9-1-1-1-9-9-3-8-3-1-3-2"
       sodipodi:nodetypes="cscc"
       style="fill:#ffffff;stroke:#000000;stroke-width:1.77279997"
       inkscape:connector-curvature="0"
       d="m 163.19,589.15 c 0,0 -0.22712,-9.4795 -10.329,-9.9945 -13.59,-0.69285 -15.353,8.5406 -15.353,8.5406 -1.2116,2.7534 25.79,5.3302 25.683,1.4539 z" />
    <path
       id="path3928-9-81-8-0-49-3-2-5-9-84-2-4"
       style="fill:#ffffff;stroke:#000000;stroke-width:1.13510001;stroke-linecap:round;stroke-linejoin:round"
       inkscape:connector-curvature="0"
       d="m 164.92,584.93 -0.25902,-10.194" />
  </g>
  <metadata
     id="metadata58">
    <rdf:RDF>
      <cc:Work>
        <dc:format>image/svg+xml</dc:format>
        <dc:type
           rdf:resource="http://purl.org/dc/dcmitype/StillImage" />
        <cc:license
           rdf:resource="http://creativecommons.org/licenses/publicdomain/" />
        <dc:publisher>
          <cc:Agent
             rdf:about="http://openclipart.org/">
            <dc:title>Openclipart</dc:title>
          </cc:Agent>
        </dc:publisher>
      </cc:Work>
      <cc:License
         rdf:about="http://creativecommons.org/licenses/publicdomain/">
        <cc:permits
           rdf:resource="http://creativecommons.org/ns#Reproduction" />
        <cc:permits
           rdf:resource="http://creativecommons.org/ns#Distribution" />
        <cc:permits
           rdf:resource="http://creativecommons.org/ns#DerivativeWorks" />
      </cc:License>
    </rdf:RDF>
  </metadata>
</svg>
