<?xml version="1.0" encoding="UTF-8" standalone="no"?>
<!-- Created with Inkscape (http://www.inkscape.org/) -->

<svg
   xmlns:dc="http://purl.org/dc/elements/1.1/"
   xmlns:cc="http://creativecommons.org/ns#"
   xmlns:rdf="http://www.w3.org/1999/02/22-rdf-syntax-ns#"
   xmlns:svg="http://www.w3.org/2000/svg"
   xmlns="http://www.w3.org/2000/svg"
   xmlns:sodipodi="http://sodipodi.sourceforge.net/DTD/sodipodi-0.dtd"
   xmlns:inkscape="http://www.inkscape.org/namespaces/inkscape"
   id="svg3602"
   sodipodi:docname="deep-in-thought.svg"
   viewBox="0 0 127.24 215.93"
   version="1.1"
   inkscape:version="0.92.1 r15371"
   width="135.72267"
   height="230.32533">
  <defs
     id="defs22" />
  <sodipodi:namedview
     id="base"
     bordercolor="#666666"
     inkscape:pageshadow="2"
     inkscape:window-y="24"
     fit-margin-left="0"
     pagecolor="#ffffff"
     fit-margin-top="0"
     inkscape:window-maximized="1"
     inkscape:zoom="2"
     inkscape:window-x="0"
     inkscape:window-height="1124"
     showgrid="false"
     borderopacity="1.0"
     inkscape:current-layer="layer1"
     inkscape:cx="-68.4263"
     inkscape:cy="103.71867"
     fit-margin-right="0"
     fit-margin-bottom="0"
     inkscape:window-width="1920"
     inkscape:pageopacity="0.0"
     inkscape:document-units="px" />
  <g
     id="layer1"
     inkscape:label="Layer 1"
     inkscape:groupmode="layer"
     transform="translate(-62.093,-360.15)">
    <rect
       id="rect3252-6-7-2-7-1-6-3-1-1-2-3-3-9-7-6"
       style="fill:#b5b5a5;fill-rule:evenodd;stroke:#000000;stroke-width:2.98679996;stroke-linecap:round;stroke-linejoin:round"
       transform="matrix(1,-7.4216e-5,0.0014835,1,0,0)"
       rx="44.164001"
       ry="15.229"
       height="55.339001"
       width="89.874001"
       y="514.25"
       x="82.931999" />
    <path
       id="path3928-9-81-8-0-49-3-2-5-9-4-8-1-1-2"
       style="fill:#ffffff;stroke:#000000;stroke-width:1.89380002;stroke-linecap:round;stroke-linejoin:round"
       inkscape:connector-curvature="0"
       d="m 128.51,567.3 -0.43217,-17.008" />
    <path
       id="path3932-5-3-8-0-8-51-1-3-0-2-1-8-9-8-4"
       style="fill:#80345f;fill-rule:evenodd;stroke:#000000;stroke-width:3.14529991;stroke-linecap:round;stroke-linejoin:round"
       inkscape:connector-curvature="0"
       d="m 127.31,443.58 c -0.16585,0 -0.33215,0.015 -0.49768,0.015 h -0.28226 c -0.14499,0 -0.29292,-1.7e-4 -0.43823,0 v 0.0374 c -11.104,0.62946 -21.391,7.533 -28.285,16.248 -14.776,18.557 -20.412,42.997 -20.909,66.449 0.38821,6.0152 -0.74609,13.236 1.701,18.452 8.8918,5.6502 24.571,6.596 35.26,7.9164 2.8366,0.13148 7.342,0.16797 12.234,0.19621 v 0.015 c 0.51328,0 1.0016,0 1.5078,-0.015 0.0499,-1.5e-4 0.0988,3.2e-4 0.14849,0 4.8917,-0.0282 9.3971,-0.0642 12.234,-0.19621 10.689,-1.3204 26.368,-2.2662 35.26,-7.9164 2.4471,-5.216 1.3128,-12.437 1.701,-18.452 -0.49746,-23.453 -6.1329,-47.893 -20.909,-66.449 -6.8939,-8.7153 -17.181,-15.619 -28.285,-16.248 v -0.0522 c -0.14532,-1.5e-4 -0.29315,0 -0.43822,0 z" />
    <rect
       id="rect3449-0-4-6-4-68-0-2-9-1-7-7"
       style="fill:#c1af94;fill-rule:evenodd;stroke:#060000;stroke-width:2.4835999;stroke-linecap:round;stroke-linejoin:round"
       transform="rotate(-171.67)"
       rx="10.486"
       ry="8.5546999"
       height="17.660999"
       width="23.732"
       y="-495.64001"
       x="-254.50999" />
    <path
       id="path4010-7-1-8-9-8-8-6-7-4-9-6-5-3-4"
       sodipodi:nodetypes="cscc"
       style="fill:#743c34;stroke:#000000;stroke-width:2.5854001"
       inkscape:connector-curvature="0"
       d="m 135.23,571.94 c 0,0 0.34814,-13.67 15.832,-14.413 20.828,-0.99915 23.531,12.316 23.531,12.316 1.8569,3.9706 -39.527,7.6867 -39.363,2.0966 z" />
    <rect
       id="rect4240-8-9-5-1-5-0-6-1-8-0"
       style="fill:#c1af94;fill-rule:evenodd;stroke:#000000;stroke-width:2.98679996;stroke-linecap:round;stroke-linejoin:bevel"
       rx="50.028999"
       ry="43.307999"
       height="89.602997"
       width="104.54"
       y="382.54001"
       x="73.887001" />
    <path
       id="path8467-6-9-5-7-3-3-5-0-8-0"
       style="fill:#80345f;fill-rule:evenodd;stroke:#000000;stroke-width:2.19619989;stroke-linecap:round;stroke-linejoin:round"
       inkscape:connector-curvature="0"
       d="m 166.14,462.5 c -1.0334,-0.0174 -2.0458,0.16576 -3.0312,0.5 -7.7608,2.6321 -6.9371,14.334 0.25,29.25 -1.9456,4.1692 -3.6773,9.1645 -5.0938,14.875 -0.90017,3.6292 23.754,12.631 25.125,9.4062 5.7851,-13.602 6.1304,-25.378 2.2812,-31.969 -4.6267,-13.786 -12.481,-21.944 -19.531,-22.062 z" />
    <path
       id="path3831-2-0-3-22-6-5-8-5-13-7-3-5-3"
       style="fill:#ffffff;stroke:#000000;stroke-width:2.58139992;stroke-linecap:round;stroke-linejoin:round"
       inkscape:connector-curvature="0"
       d="m 117.43,450.35 9.7108,0.31869" />
    <path
       id="path458-3-6-8-8-1-7-5-3-2-7-8-1"
       d="m 106.93,436.56 c 0,2.3039 -1.8662,4.1708 -4.1708,4.1708 -2.3039,0 -4.1716,-1.8669 -4.1716,-4.1708 0,-2.3032 1.8677,-4.1716 4.1716,-4.1716 2.3046,0 4.1708,1.8684 4.1708,4.1716"
       style="fill:#000000"
       inkscape:connector-curvature="0" />
    <path
       id="path458-9-9-9-1-08-3-2-4-5-3-6-3"
       d="m 148.75,435.81 c 0,2.3039 -1.8662,4.1708 -4.1708,4.1708 -2.3039,0 -4.1716,-1.8669 -4.1716,-4.1708 0,-2.3032 1.8677,-4.1716 4.1716,-4.1716 2.3047,0 4.1708,1.8684 4.1708,4.1716"
       style="fill:#000000"
       inkscape:connector-curvature="0" />
    <rect
       id="rect3449-0-4-6-4-68-8-8-6-6-9"
       style="fill:#c1af94;fill-rule:evenodd;stroke:#060000;stroke-width:2.4835999;stroke-linecap:round;stroke-linejoin:round"
       transform="rotate(8.3269)"
       rx="10.486"
       ry="8.5546999"
       height="17.660999"
       width="23.732"
       y="436.82001"
       x="148.32001" />
    <g
       id="g8610-3-8-9-8-0-02"
       style="fill:#80345f"
       transform="matrix(-1.9176,-0.32617,-0.27977,1.6449,909,-88.311)">
      <path
         id="path8467-6-9-5-7-3-3-5-0-28"
         style="fill:#80345f;fill-rule:evenodd;stroke:#000000;stroke-width:1.55999994;stroke-linecap:round;stroke-linejoin:round"
         d="m 372.97,435.97 c -6.1174,1.6095 -12.782,-6.993 -15.392,-21.893 -0.46129,-2.6332 16.249,-7.6864 17.117,-5.0029 4.6365,14.341 4.4887,25.261 -1.7247,26.896 z"
         inkscape:transform-center-x="-0.17337431"
         inkscape:transform-center-y="0.37926447"
         inkscape:connector-curvature="0"
         sodipodi:nodetypes="ssss" />
    </g>
    <path
       id="path4010-1-9-1-1-1-9-9-3-8-3-5-6-6-7-2"
       sodipodi:nodetypes="cscc"
       style="fill:#743c34;stroke:#000000;stroke-width:2.69199991"
       inkscape:connector-curvature="0"
       d="m 121.77,570.94 c 0,0 -0.36542,-13.586 -16.619,-14.324 -21.865,-0.993 -24.702,12.24 -24.702,12.24 -1.9493,3.9462 41.494,7.6393 41.321,2.0838 z" />
    <path
       id="path3737-2-2-6"
       style="fill:#4a3f3c;fill-rule:evenodd;stroke:#000000;stroke-width:1.00109994"
       inkscape:connector-curvature="0"
       d="m 119.12,360.66 c -0.36235,-0.008 -0.78891,0.007 -1.2514,0.0521 -3.6996,0.35248 -3.363,1.8692 -6.9868,2.607 -3.6238,0.7378 -4.1173,-0.79951 -7.6125,0.31284 -3.4951,1.1124 -2.6806,2.5962 -5.9961,4.0669 -3.3155,1.4707 -4.2121,0.12146 -7.2996,1.9292 -3.0875,1.8076 -1.9824,2.9395 -4.7969,5.0576 -2.8145,2.1181 -4.017,1.0435 -6.5175,3.4412 -2.5005,2.3977 -1.0827,3.3537 -3.2327,5.9961 -2.15,2.6424 -3.6023,1.7398 -5.3704,4.5883 -1.7681,2.8485 -0.15166,3.5044 -1.5121,6.5175 -1.3605,3.0131 -3.0297,2.4973 -3.9626,5.6311 -0.93299,3.1338 0.85688,3.3609 0.36498,6.5697 -0.4919,3.2088 -2.3027,3.0199 -2.3463,6.2568 -0.0435,3.237 1.7325,3.1432 2.1378,6.3611 0.40527,3.2179 -1.3696,3.4698 -0.5214,6.6218 0.84824,3.152 2.5795,2.6432 3.8584,5.6833 1.2789,3.04 -0.38732,3.6337 1.3035,6.5175 1.69082,2.8838 3.188,2.0592 5.2662,4.7448 2.0781,2.6855 0.64111,3.6002 3.0763,6.0482 1.4205,1.428 2.4496,1.6199 3.5977,1.9813 -4.5113,-6.6832 -7.1432,-14.566 -7.1432,-22.994 v -3.0241 c 0,-4.5253 0.74507,-8.8778 2.1378,-12.983 0.40019,-0.19616 0.83695,-0.47053 1.3035,-0.7821 3.2554,-2.1741 1.9036,-3.3587 5.4747,-5.214 3.5711,-1.8553 4.6119,-0.47178 8.4467,-1.9813 3.8348,-1.5096 2.9442,-2.9773 6.9868,-4.1191 4.0426,-1.1417 4.5681,0.39231 8.7595,-0.36498 4.1914,-0.75729 3.8026,-2.2973 8.0817,-2.6592 4.2791,-0.36181 4.3508,1.2645 8.6553,1.3035 4.3044,0.0389 4.3883,-1.5862 8.6553,-1.1471 4.2669,0.43916 3.758,1.9826 7.9253,2.8156 4.1672,0.83296 4.8049,-0.64107 8.8117,0.57354 4.0068,1.21461 3.0946,2.5927 6.8825,4.1712 3.7879,1.5785 4.7765,0.21829 8.2903,2.1378 0.0641,0.035 0.0956,0.0697 0.15634,0.10428 0.97965,1.7617 2.6244,3.6014 4.7969,5.214 1.8924,1.4048 3.8517,2.3544 5.6311,2.8677 0.8302,3.2316 1.2514,6.5972 1.2514,10.063 v 3.0241 c 0,8.3358 -2.5137,16.149 -6.9346,22.785 0.32853,-0.22365 0.71804,-0.52497 1.095,-0.88638 2.5005,-2.3977 1.0306,-3.3016 3.1806,-5.944 2.1499,-2.6424 3.6545,-1.7919 5.4226,-4.6405 1.7681,-2.8485 0.0994,-3.4522 1.4599,-6.4654 1.3605,-3.0131 3.0818,-2.4973 4.0148,-5.6311 0.93298,-3.1338 -0.85689,-3.413 -0.36499,-6.6218 0.49191,-3.2088 2.3027,-3.0199 2.3463,-6.2568 0.0435,-3.2369 -1.7325,-3.1432 -2.1377,-6.3611 -0.40526,-3.2179 1.3175,-3.4177 0.46926,-6.5697 -0.84824,-3.152 -2.5274,-2.6954 -3.8062,-5.7354 -1.2789,-3.04 0.3873,-3.5816 -1.3035,-6.4654 -1.6908,-2.8838 -3.188,-2.0592 -5.2662,-4.7448 -2.0781,-2.6855 -0.64112,-3.6002 -3.0763,-6.0483 -2.4352,-2.448 -3.7087,-1.3185 -6.4654,-3.4934 -2.7566,-2.1749 -1.6025,-3.3961 -4.6405,-5.2662 -3.0379,-1.87 -3.9204,-0.54771 -7.1953,-2.0856 -3.2749,-1.53789 -2.4277,-2.8836 -5.8918,-4.0669 -3.4642,-1.1833 -4.0096,0.2901 -7.6125,-0.5214 -3.6029,-0.8115 -3.1934,-2.2834 -6.8825,-2.7113 -3.6891,-0.42787 -3.7867,1.0808 -7.5082,1.0428 -3.2563,-0.0332 -3.6681,-1.2402 -6.2047,-1.3035 z" />
  </g>
  <metadata
     id="metadata19">
    <rdf:RDF>
      <cc:Work>
        <dc:format>image/svg+xml</dc:format>
        <dc:type
           rdf:resource="http://purl.org/dc/dcmitype/StillImage" />
        <cc:license
           rdf:resource="http://creativecommons.org/licenses/publicdomain/" />
        <dc:publisher>
          <cc:Agent
             rdf:about="http://openclipart.org/">
            <dc:title>Openclipart</dc:title>
          </cc:Agent>
        </dc:publisher>
      </cc:Work>
      <cc:License
         rdf:about="http://creativecommons.org/licenses/publicdomain/">
        <cc:permits
           rdf:resource="http://creativecommons.org/ns#Reproduction" />
        <cc:permits
           rdf:resource="http://creativecommons.org/ns#Distribution" />
        <cc:permits
           rdf:resource="http://creativecommons.org/ns#DerivativeWorks" />
      </cc:License>
    </rdf:RDF>
  </metadata>
</svg>
