<?xml version="1.0" encoding="UTF-8" standalone="no"?>
<!-- Created with Inkscape (http://www.inkscape.org/) -->

<svg
   xmlns:dc="http://purl.org/dc/elements/1.1/"
   xmlns:cc="http://creativecommons.org/ns#"
   xmlns:rdf="http://www.w3.org/1999/02/22-rdf-syntax-ns#"
   xmlns:svg="http://www.w3.org/2000/svg"
   xmlns="http://www.w3.org/2000/svg"
   xmlns:xlink="http://www.w3.org/1999/xlink"
   xmlns:sodipodi="http://sodipodi.sourceforge.net/DTD/sodipodi-0.dtd"
   xmlns:inkscape="http://www.inkscape.org/namespaces/inkscape"
   width="934.18878"
   height="485.34561"
   id="svg2"
   version="1.1"
   inkscape:version="0.92.1 r15371"
   sodipodi:docname="in-bed-side-viscous-speed-remix.svg"
   inkscape:export-filename="/home/katie/Desktop/alien.png"
   inkscape:export-xdpi="84.416222"
   inkscape:export-ydpi="84.416222">
  <defs
     id="defs4">
    <linearGradient
       y2="636.91669"
       x2="621.36121"
       y1="-122.33332"
       x1="334.75"
       gradientTransform="matrix(1.6587719,0,0,0.888495,19.763024,1466.6429)"
       gradientUnits="userSpaceOnUse"
       id="linearGradient3513"
       xlink:href="#linearGradient4040-0-9"
       inkscape:collect="always" />
    <linearGradient
       inkscape:collect="always"
       id="linearGradient4040-0-9">
      <stop
         style="stop-color:#aad8e9;stop-opacity:1"
         offset="0"
         id="stop4042-44-2" />
      <stop
         style="stop-color:#ffffff;stop-opacity:1"
         offset="1"
         id="stop4044-43-1" />
    </linearGradient>
    <linearGradient
       id="linearGradient13895"
       y2="290.04001"
       gradientUnits="userSpaceOnUse"
       x2="430.57999"
       gradientTransform="matrix(1.0875,0,0,-1.0875,-51.895,1191.4)"
       y1="468.82999"
       x1="430.57999"
       inkscape:collect="always">
      <stop
         id="stop4450"
         style="stop-color:#fff3e8"
         offset="0" />
      <stop
         id="stop4452"
         style="stop-color:#e4cabe"
         offset="1" />
    </linearGradient>
    <linearGradient
       inkscape:collect="always"
       xlink:href="#linearGradient13895"
       id="linearGradient4969"
       gradientUnits="userSpaceOnUse"
       gradientTransform="matrix(1.058128,0,0,-1.0716226,-1188.0788,740.32117)"
       x1="430.57999"
       y1="468.82999"
       x2="430.57999"
       y2="290.04001" />
    <linearGradient
       inkscape:collect="always"
       xlink:href="#linearGradient13895"
       id="linearGradient4971"
       gradientUnits="userSpaceOnUse"
       gradientTransform="matrix(1.058128,0,0,-1.0716226,-1188.0788,740.32117)"
       x1="430.57999"
       y1="468.82999"
       x2="430.57999"
       y2="290.04001" />
    <linearGradient
       inkscape:collect="always"
       xlink:href="#linearGradient13895"
       id="linearGradient5104"
       gradientUnits="userSpaceOnUse"
       gradientTransform="matrix(1.058128,0,0,-1.0716226,-1188.0788,740.32117)"
       x1="430.57999"
       y1="468.82999"
       x2="430.57999"
       y2="290.04001" />
    <linearGradient
       inkscape:collect="always"
       xlink:href="#linearGradient13895"
       id="linearGradient5106"
       gradientUnits="userSpaceOnUse"
       gradientTransform="matrix(1.058128,0,0,-1.0716226,-1188.0788,740.32117)"
       x1="430.57999"
       y1="468.82999"
       x2="430.57999"
       y2="290.04001" />
    <linearGradient
       inkscape:collect="always"
       xlink:href="#linearGradient13895"
       id="linearGradient5132"
       gradientUnits="userSpaceOnUse"
       gradientTransform="matrix(1.058128,0,0,-1.0716226,-1188.0788,740.32117)"
       x1="430.57999"
       y1="468.82999"
       x2="430.57999"
       y2="290.04001" />
    <linearGradient
       inkscape:collect="always"
       xlink:href="#linearGradient13895"
       id="linearGradient5134"
       gradientUnits="userSpaceOnUse"
       gradientTransform="matrix(1.058128,0,0,-1.0716226,-1188.0788,740.32117)"
       x1="430.57999"
       y1="468.82999"
       x2="430.57999"
       y2="290.04001" />
    <linearGradient
       inkscape:collect="always"
       xlink:href="#linearGradient13895"
       id="linearGradient3179"
       gradientUnits="userSpaceOnUse"
       gradientTransform="matrix(1.058128,0,0,-1.0716226,-1188.0788,740.32117)"
       x1="430.57999"
       y1="468.82999"
       x2="430.57999"
       y2="290.04001" />
    <linearGradient
       inkscape:collect="always"
       xlink:href="#linearGradient13895"
       id="linearGradient3205"
       gradientUnits="userSpaceOnUse"
       gradientTransform="matrix(1.058128,0,0,-1.0716226,-1188.0788,740.32117)"
       x1="430.57999"
       y1="468.82999"
       x2="430.57999"
       y2="290.04001" />
    <linearGradient
       inkscape:collect="always"
       xlink:href="#linearGradient13895"
       id="linearGradient3207"
       gradientUnits="userSpaceOnUse"
       gradientTransform="matrix(1.058128,0,0,-1.0716226,-1188.0788,740.32117)"
       x1="430.57999"
       y1="468.82999"
       x2="430.57999"
       y2="290.04001" />
    <linearGradient
       inkscape:collect="always"
       xlink:href="#linearGradient13895-8-8"
       id="linearGradient3207-9-2"
       gradientUnits="userSpaceOnUse"
       gradientTransform="matrix(1.058128,0,0,-1.0716226,-1188.0788,740.32117)"
       x1="430.57999"
       y1="468.82999"
       x2="430.57999"
       y2="290.04001" />
    <linearGradient
       id="linearGradient13895-8-8"
       y2="290.04001"
       gradientUnits="userSpaceOnUse"
       x2="430.57999"
       gradientTransform="matrix(1.0875,0,0,-1.0875,-51.895,1191.4)"
       y1="468.82999"
       x1="430.57999"
       inkscape:collect="always">
      <stop
         id="stop4450-3-0"
         style="stop-color:#fff3e8"
         offset="0" />
      <stop
         id="stop4452-8-4"
         style="stop-color:#e4cabe"
         offset="1" />
    </linearGradient>
    <linearGradient
       inkscape:collect="always"
       xlink:href="#linearGradient13895"
       id="linearGradient5623"
       gradientUnits="userSpaceOnUse"
       gradientTransform="matrix(1.058128,0,0,-1.0716226,-1188.0788,740.32117)"
       x1="430.57999"
       y1="468.82999"
       x2="430.57999"
       y2="290.04001" />
    <linearGradient
       inkscape:collect="always"
       xlink:href="#linearGradient13895"
       id="linearGradient5625"
       gradientUnits="userSpaceOnUse"
       gradientTransform="matrix(1.058128,0,0,-1.0716226,-1188.0788,740.32117)"
       x1="430.57999"
       y1="468.82999"
       x2="430.57999"
       y2="290.04001" />
  </defs>
  <sodipodi:namedview
     id="base"
     pagecolor="#ffffff"
     bordercolor="#666666"
     borderopacity="1.0"
     inkscape:pageopacity="0.0"
     inkscape:pageshadow="2"
     inkscape:zoom="0.9"
     inkscape:cx="139.4504"
     inkscape:cy="399.72476"
     inkscape:document-units="px"
     inkscape:current-layer="layer1"
     showgrid="false"
     inkscape:window-width="1920"
     inkscape:window-height="1124"
     inkscape:window-x="0"
     inkscape:window-y="24"
     inkscape:window-maximized="1"
     fit-margin-top="0"
     fit-margin-left="0"
     fit-margin-right="0"
     fit-margin-bottom="0"
     showborder="true" />
  <metadata
     id="metadata7">
    <rdf:RDF>
      <cc:Work
         rdf:about="">
        <dc:format>image/svg+xml</dc:format>
        <dc:type
           rdf:resource="http://purl.org/dc/dcmitype/StillImage" />
        <dc:title />
      </cc:Work>
    </rdf:RDF>
  </metadata>
  <g
     inkscape:label="Layer 1"
     inkscape:groupmode="layer"
     id="layer1"
     transform="translate(-282.32681,-261.78773)">
    <g
       id="g5592"
       transform="translate(-161.77778,5.3333333)">
      <path
         inkscape:connector-curvature="0"
         style="fill:#d1bfd2;fill-opacity:1;stroke:#000000;stroke-width:1.60000002;stroke-miterlimit:4;stroke-dasharray:none;stroke-opacity:1"
         sodipodi:nodetypes="sssssssss"
         d="M 501.12991,548.62337 H 1350.546 c 4.536,0 8.1878,3.43744 8.1878,7.70731 v 34.76096 c 0,4.26986 -3.6518,7.7072 -8.1878,7.7072 H 501.12991 c -4.53608,0 -8.18777,-3.43734 -8.18777,-7.7072 v -34.76096 c 0,-4.26987 3.65169,-7.70731 8.18777,-7.70731 z"
         id="rect3753-9-9-8" />
      <rect
         ry="5.3333335"
         rx="5.3333335"
         y="591.22223"
         x="490.14902"
         height="148.44444"
         width="868.88885"
         id="rect3260-9-9"
         style="fill:#d5a587;fill-opacity:1;fill-rule:evenodd;stroke:#000000;stroke-width:2.13333344;stroke-linecap:round;stroke-linejoin:round;stroke-miterlimit:4;stroke-dasharray:none;stroke-dashoffset:0;stroke-opacity:1" />
      <rect
         ry="5.3333335"
         rx="5.3333335"
         y="343.39999"
         x="445.17126"
         height="397.33334"
         width="49.333347"
         id="rect3260-9-9-3"
         style="fill:#d5a587;fill-opacity:1;fill-rule:evenodd;stroke:#000000;stroke-width:2.13333344;stroke-linecap:round;stroke-linejoin:round;stroke-miterlimit:4;stroke-dasharray:none;stroke-dashoffset:0;stroke-opacity:1" />
      <rect
         ry="3.3809524"
         rx="4.6711812"
         y="617.4444"
         x="548.77124"
         height="96"
         width="352"
         id="rect3260-0-0-3"
         style="fill:#ecbe97;fill-opacity:1;fill-rule:evenodd;stroke:#000000;stroke-width:2.13333344;stroke-linecap:round;stroke-linejoin:round;stroke-miterlimit:4;stroke-dasharray:none;stroke-dashoffset:0;stroke-opacity:1" />
      <rect
         style="fill:#ecbe97;fill-opacity:1;fill-rule:evenodd;stroke:#000000;stroke-width:2.13333344;stroke-linecap:round;stroke-linejoin:round;stroke-miterlimit:4;stroke-dasharray:none;stroke-dashoffset:0;stroke-opacity:1"
         id="use3723"
         width="352"
         height="96"
         x="949.83789"
         y="617.4444"
         rx="4.6711812"
         ry="3.3809524" />
      <g
         transform="translate(-234.66667,249.6)"
         id="g5455">
        <path
           style="fill:#e2c5d7;fill-opacity:1;stroke:#000000;stroke-width:2.13333344;stroke-linecap:square;stroke-linejoin:miter;stroke-miterlimit:4;stroke-dasharray:none;stroke-dashoffset:0;stroke-opacity:1"
           d="m 819.16869,247.72975 c -23.16019,0.46356 -46.71019,2.34856 -68.8,9.36667 -14.32195,6.44086 -23.28057,26.8615 -12.73333,40.2 4.47482,4.19066 12.22581,1.72416 18.1273,2.9269 56.21679,2.89105 112.5646,0.86721 168.7727,-0.5269 13.44073,-1.40409 18.52225,-18.02593 13.6,-29.13334 -3.43364,-10.92445 -15.16804,-15.13886 -25.40743,-17.10031 -30.78354,-5.14473 -62.37714,-5.68631 -93.55924,-5.73302 z"
           id="path4207-9-3-0-2-3"
           inkscape:connector-curvature="0" />
        <path
           style="fill:#fef1e6;fill-opacity:1;stroke:none;stroke-width:1.06666672"
           d="m 820.24793,249.17454 c -3.36832,0.0671 -6.73927,0.17699 -10.1,0.33333 -0.006,0.0997 -0.0333,0.19881 -0.0333,0.3 0,2.69552 2.25642,4.86667 5.06666,4.86667 2.81035,0 5.13334,-2.17115 5.13334,-4.86667 0,-0.21408 -0.0383,-0.4263 -0.0667,-0.63333 z m 22.6,0.0667 c -0.0221,0.1857 -0.0667,0.3754 -0.0667,0.56666 0,2.69552 2.25632,4.86667 5.06667,4.86667 2.81034,0 5.13333,-2.17115 5.13333,-4.86667 0,-0.0902 -0.0282,-0.17763 -0.0333,-0.26666 -3.36525,-0.11159 -6.73019,-0.22578 -10.1,-0.3 z m 32.7,1.16666 c 0.31371,2.40195 2.40787,4.26667 5,4.26667 2.25883,0 4.16579,-1.41651 4.83333,-3.36667 -2.77723,-0.24266 -5.54517,-0.4961 -8.26667,-0.83333 -0.52151,-0.0212 -1.04478,-0.0452 -1.56666,-0.0667 z m -88.23334,1 c -2.97507,0.37455 -5.94067,0.77962 -8.9,1.26667 0.91981,1.20584 2.3819,2 4.06667,2 2.22107,0 4.12721,-1.36736 4.83333,-3.26667 z m 11.53334,1.6 c -2.81035,0 -5.06667,2.20449 -5.06667,4.9 0,2.6955 2.25632,4.9 5.06667,4.9 2.81034,0 5.13333,-2.2045 5.13333,-4.9 0,-2.69551 -2.32299,-4.9 -5.13333,-4.9 z m 32.66666,0 c -2.81034,0 -5.06666,2.20449 -5.06666,4.9 0,2.6955 2.25632,4.9 5.06666,4.9 2.81024,0 5.13334,-2.2045 5.13334,-4.9 0,-2.69551 -2.3231,-4.9 -5.13334,-4.9 z m 32.7,0 c -2.81034,0 -5.06666,2.20449 -5.06666,4.9 0,2.6955 2.25632,4.9 5.06666,4.9 2.81024,0 5.13334,-2.2045 5.13334,-4.9 0,-2.69551 -2.3231,-4.9 -5.13334,-4.9 z m 32.66667,0 c -2.81035,0 -5.03333,2.20449 -5.03333,4.9 0,2.6955 2.22298,4.9 5.03333,4.9 2.81035,0 5.1,-2.2045 5.1,-4.9 0,-2.69551 -2.28965,-4.9 -5.1,-4.9 z m 13.73333,0.93334 c 0.77538,0.46216 1.68208,0.73333 2.66667,0.73333 0.32102,0 0.62984,-0.0121 0.93333,-0.0667 -1.1892,-0.24262 -2.39788,-0.4653 -3.6,-0.66666 z m -141,0.4 c -2.73893,0.5681 -5.47927,1.18156 -8.2,1.86666 -0.20417,0.5317 -0.33333,1.101 -0.33333,1.7 0,2.6955 2.25632,4.9 5.06667,4.9 2.81034,0 5.1,-2.2045 5.1,-4.9 0,-1.40543 -0.63918,-2.67108 -1.63334,-3.56666 z m 154.93334,3.06666 c -0.0172,0.16264 -0.0333,0.33267 -0.0333,0.5 0,2.44863 1.88416,4.47885 4.33333,4.83334 v -3.56667 c -1.42255,-0.6385 -2.83713,-1.24413 -4.3,-1.76667 z m -174.76667,3.73334 c -0.0797,0 -0.15465,0.0299 -0.23333,0.0333 -1.75271,1.33045 -3.34586,2.89082 -4.76667,4.6 -0.004,0.0806 -0.0333,0.15168 -0.0333,0.23333 0,2.6955 2.22299,4.9 5.03333,4.9 2.81024,0 5.13334,-2.2044 5.13334,-4.9 0,-2.69552 -2.32299,-4.86667 -5.13334,-4.86667 z m 32.7,0 c -2.81035,0 -5.06667,2.17114 -5.06667,4.86666 0,2.6955 2.25632,4.9 5.06667,4.9 2.81035,0 5.13333,-2.20439 5.13333,-4.9 0,-2.69552 -2.32298,-4.86666 -5.13333,-4.86666 z m 32.7,0 c -2.81035,0 -5.06667,2.17114 -5.06667,4.86666 0,2.6955 2.25632,4.9 5.06667,4.9 2.81035,0 5.13333,-2.20439 5.13333,-4.9 0,-2.69552 -2.32298,-4.86666 -5.13333,-4.86666 z m 32.66667,0 c -2.81024,0 -5.06667,2.17114 -5.06667,4.86666 0,2.6955 2.25643,4.9 5.06667,4.9 2.81034,0 5.13333,-2.20439 5.13333,-4.9 0,-2.69552 -2.32299,-4.86666 -5.13333,-4.86666 z m 32.7,0 c -2.81035,0 -5.1,2.17114 -5.1,4.86666 0,2.6955 2.28965,4.9 5.1,4.9 2.81024,0 5.1,-2.20439 5.1,-4.9 0,-2.69552 -2.28976,-4.86666 -5.1,-4.86666 z m 32.73333,0 c -2.81035,0 -5.1,2.17114 -5.1,4.86666 0,2.6955 2.28965,4.9 5.1,4.9 2.81024,0 5.06667,-2.20439 5.06667,-4.9 0,-2.69552 -2.25643,-4.86666 -5.06667,-4.86666 z m -147.13333,8.1 c -2.81035,0 -5.06667,2.20448 -5.06667,4.9 0,2.6955 2.25632,4.86666 5.06667,4.86666 2.81024,0 5.1,-2.17116 5.1,-4.86666 0,-2.69552 -2.28976,-4.9 -5.1,-4.9 z m 32.7,0 c -2.81035,0 -5.06667,2.20448 -5.06667,4.9 0,2.6955 2.25632,4.86666 5.06667,4.86666 2.81024,0 5.13333,-2.17116 5.13333,-4.86666 0,-2.69552 -2.32309,-4.9 -5.13333,-4.9 z m 32.66666,0 c -2.81034,0 -5.06666,2.20448 -5.06666,4.9 0,2.6955 2.25632,4.86666 5.06666,4.86666 2.81035,0 5.13334,-2.17116 5.13334,-4.86666 0,-2.69552 -2.32299,-4.9 -5.13334,-4.9 z m 32.7,0 c -2.81034,0 -5.06666,2.20448 -5.06666,4.9 0,2.6955 2.25632,4.86666 5.06666,4.86666 2.81035,0 5.13334,-2.17116 5.13334,-4.86666 0,-2.69552 -2.32299,-4.9 -5.13334,-4.9 z m 32.66667,0 c -2.81035,0 -5.03333,2.20448 -5.03333,4.9 0,2.6955 2.22298,4.86666 5.03333,4.86666 2.81024,0 5.1,-2.17116 5.1,-4.86666 0,-2.69552 -2.28976,-4.9 -5.1,-4.9 z m 31.96667,0.0667 c -2.44918,0.35449 -4.33334,2.38471 -4.33334,4.83334 0,2.44864 1.88416,4.45098 4.33334,4.8 z m -178.96667,8.06667 c -2.81035,0 -5.03333,2.20448 -5.03333,4.9 0,2.6955 2.22298,4.86667 5.03333,4.86667 2.81035,0 5.13333,-2.17117 5.13333,-4.86667 0,-2.69552 -2.32288,-4.9 -5.13333,-4.9 z m 32.7,0 c -2.81024,0 -5.06667,2.20448 -5.06667,4.9 0,2.6955 2.25643,4.86667 5.06667,4.86667 2.81035,0 5.13333,-2.17117 5.13333,-4.86667 0,-2.69552 -2.32298,-4.9 -5.13333,-4.9 z m 32.7,0 c -2.81024,0 -5.1,2.20448 -5.1,4.9 0,2.6955 2.28976,4.86667 5.1,4.86667 2.81035,0 5.1,-2.17117 5.1,-4.86667 0,-2.69552 -2.28965,-4.9 -5.1,-4.9 z m 32.66667,0 c -2.81035,0 -5.1,2.20448 -5.1,4.9 0,2.6955 2.28965,4.86667 5.1,4.86667 2.81024,0 5.1,-2.17117 5.1,-4.86667 0,-2.69552 -2.28976,-4.9 -5.1,-4.9 z m 32.7,0 c -2.81035,0 -5.1,2.20448 -5.1,4.9 0,2.6955 2.28965,4.86667 5.1,4.86667 2.81034,0 5.1,-2.17117 5.1,-4.86667 0,-2.69552 -2.28966,-4.9 -5.1,-4.9 z m 32.73333,0 c -2.81035,0 -5.1,2.20448 -5.1,4.9 0,2.6955 2.28965,4.86667 5.1,4.86667 2.81024,0 5.06667,-2.17117 5.06667,-4.86667 0,-2.69552 -2.25643,-4.9 -5.06667,-4.9 z m -147.13333,8.13333 c -2.81035,0 -5.06667,2.17117 -5.06667,4.86667 0,2.69551 2.25632,4.9 5.06667,4.9 2.81024,0 5.1,-2.20439 5.1,-4.9 0,-2.6955 -2.28976,-4.86667 -5.1,-4.86667 z m 32.7,0 c -2.81035,0 -5.06667,2.17117 -5.06667,4.86667 0,2.69551 2.25632,4.9 5.06667,4.9 2.81024,0 5.13333,-2.20439 5.13333,-4.9 0,-2.6955 -2.32309,-4.86667 -5.13333,-4.86667 z m 32.66666,0 c -2.81024,0 -5.1,2.17117 -5.1,4.86667 0,2.69551 2.28976,4.9 5.1,4.9 2.81035,0 5.1,-2.20439 5.1,-4.9 0,-2.6955 -2.28965,-4.86667 -5.1,-4.86667 z m 32.7,0 c -2.81024,0 -5.1,2.17117 -5.1,4.86667 0,2.69551 2.28976,4.9 5.1,4.9 2.81035,0 5.1,-2.20439 5.1,-4.9 0,-2.6955 -2.28965,-4.86667 -5.1,-4.86667 z m 32.66667,0 c -2.81035,0 -5.06667,2.17117 -5.06667,4.86667 0,2.69551 2.25632,4.9 5.06667,4.9 2.81024,0 5.1,-2.20439 5.1,-4.9 0,-2.6955 -2.28976,-4.86667 -5.1,-4.86667 z m 31.93333,0.0667 c -2.44917,0.34894 -4.3,2.35126 -4.3,4.8 0,2.44864 1.85083,4.47884 4.3,4.83333 z m -179.03333,8.06667 c -2.10768,0 -3.87636,1.1949 -4.63333,2.93333 3.18822,0.21867 6.3767,0.38413 9.56666,0.56667 -0.6203,-2.02893 -2.61024,-3.5 -4.93333,-3.5 z m 32.7,0 c -2.70124,0 -4.8674,1.98637 -5.03333,4.53333 3.37323,0.1123 6.75884,0.18564 10.13333,0.26667 -0.0194,-2.67927 -2.30175,-4.8 -5.1,-4.8 z m 32.7,0 c -2.81035,0 -5.1,2.13781 -5.1,4.83333 0,0.11231 0.0255,0.22285 0.0333,0.33333 3.3765,0.0214 6.75628,0.0341 10.13333,0.0333 0.01,-0.1212 0.0333,-0.24323 0.0333,-0.36666 0,-2.69552 -2.28965,-4.83334 -5.1,-4.83334 z m 32.66667,0 c -2.81024,0 -5.1,2.13781 -5.1,4.83333 0,0.0678 0.0305,0.13282 0.0333,0.2 3.38864,-0.0403 6.77816,-0.0798 10.16666,-0.13333 3.1e-4,-0.0222 0,-0.0445 0,-0.0667 0,-2.69552 -2.28965,-4.83333 -5.1,-4.83333 z m 32.7,0 c -2.67717,0 -4.86387,1.95248 -5.06667,4.46666 3.36888,-0.0725 6.73193,-0.15671 10.1,-0.23333 -0.31812,-2.39755 -2.44121,-4.23333 -5.03333,-4.23333 z m 32.73333,0 c -2.40983,0 -4.43793,1.58567 -4.96667,3.73333 3.27798,-0.0737 6.55679,-0.16427 9.83334,-0.23333 -0.60453,-2.02893 -2.54366,-3.5 -4.86667,-3.5 z"
           id="path3837-7-3-4"
           inkscape:connector-curvature="0" />
        <path
           style="fill:none;stroke:#000000;stroke-width:2.13333344;stroke-miterlimit:4;stroke-dasharray:none;stroke-opacity:1"
           d="m 751.12319,286.1299 c 21.76647,-16.17921 171.808,-13.82627 174.17582,1.57944"
           id="path4881-1-3"
           inkscape:connector-curvature="0"
           sodipodi:nodetypes="cc" />
      </g>
      <path
         inkscape:connector-curvature="0"
         id="rect3809-0-6-9-5"
         d="m 634.80662,482.10867 c 0.74939,169.08396 191.25273,117.55341 289.94359,110.86585 144.77389,-2.78985 289.69099,8.29615 434.34949,-1.98667 76.1221,-115.45008 -108.6495,-135.44483 -163.9862,-77.8555 -133.2374,23.52967 -264.9726,-77.14096 -394.90007,-33.28674 -53.37808,17.69309 -112.05323,23.03634 -165.40681,2.26306 z"
         style="fill:#c293c1;fill-opacity:1;stroke:#000000;stroke-width:2.13333344;stroke-miterlimit:4;stroke-dasharray:none;stroke-opacity:1" />
      <g
         transform="matrix(1.0417379,0,0,1.0417379,-51.283911,-17.370979)"
         id="g5526">
        <rect
           style="fill:#704946;fill-opacity:1;fill-rule:nonzero;stroke:#000000;stroke-width:2.04786015;stroke-miterlimit:4;stroke-dasharray:none;stroke-opacity:1"
           id="rect6789-1"
           width="146.38434"
           height="84.357079"
           x="-1193.4966"
           y="476.61224"
           rx="57.803467"
           ry="39.697449"
           transform="scale(-1,1)" />
        <path
           inkscape:connector-curvature="0"
           style="fill:#4d3623;fill-opacity:1;fill-rule:nonzero;stroke:none;stroke-width:1.06666672"
           d="m 1119.2006,262.8545 c 47.1687,0 85.4065,27.92959 85.4065,62.41025 0,1.35242 -0.093,2.70118 -0.2076,4.03221 l 0.7712,0.0592 c -1.432,57.6023 19.8665,125.18859 13.1667,126.83665 -21.2687,5.23181 -202.4185,10.25493 -199.7564,0 8.8348,-34.0342 10.5466,-88.60751 16.6068,-119.63204 -0.9145,-3.66116 -1.3938,-7.4419 -1.3938,-11.29612 0,-34.48068 38.2379,-62.41026 85.4066,-62.41026 z"
           id="path4194-2-9-9-7" />
        <path
           inkscape:connector-curvature="0"
           style="fill:#e8aebb;fill-opacity:1;stroke:#000000;stroke-width:2.1827929;stroke-linecap:butt;stroke-linejoin:miter;stroke-miterlimit:4;stroke-dasharray:none;stroke-opacity:1"
           d="m 1058.7521,394.37591 c 0.3593,0.0181 0.7196,0.0399 1.0805,0.094 20.5501,3.0719 13.6727,58.11767 6.6477,88.8666 -17.014,-4.39743 -33.0182,-10.24037 -47.7316,-17.28484 6.8855,-31.48134 22.4797,-72.56338 40.0034,-71.6757 z"
           id="path3352-0-2-4-5-6-0-0-9-0-5-3-2-7-2-2-0-4-2-0-9-3" />
        <ellipse
           style="fill:#bb9a7a;fill-opacity:1;fill-rule:evenodd;stroke:#000000;stroke-width:2.36383986;stroke-linecap:round;stroke-linejoin:round;stroke-miterlimit:4;stroke-dasharray:none;stroke-dashoffset:0;stroke-opacity:1"
           id="path3954-8-5-7-3-4-8-9-1-7-1-6-4-9-4-8-7-3-1-8-9-9-8-2-5-6-4-2-3-3-8"
           transform="matrix(-0.43668929,0.8996124,0.96870434,0.24821745,0,0)"
           cx="188.15958"
           cy="1334.6021"
           rx="15.045753"
           ry="15.450326" />
        <path
           style="fill:#e8aebb;fill-opacity:1;stroke:#000000;stroke-width:2.1827929;stroke-linecap:butt;stroke-linejoin:miter;stroke-miterlimit:4;stroke-dasharray:none;stroke-opacity:1"
           d="m 1228.7145,480.75158 c -6.7933,-27.41144 -39.5106,-93.15013 -61.5703,-85.49303 -22.0596,7.65734 2.0676,73.44451 14.2927,98.08695 4.5224,9.11579 39.0514,-2.42604 47.2776,-12.59392 z"
           id="path3352-0-2-4-5-6-0-0-9-0-7-9-0-8-7-2-8-6-1-2-0-8-4"
           inkscape:connector-curvature="0"
           sodipodi:nodetypes="cssc" />
        <path
           style="fill:#e8aebb;fill-opacity:1;fill-rule:evenodd;stroke:#000000;stroke-width:2.1827929;stroke-linecap:round;stroke-linejoin:round;stroke-miterlimit:4;stroke-dasharray:none;stroke-dashoffset:0;stroke-opacity:1"
           d="m 1113.9283,368.85209 c 0.2576,0 0.5159,0.0226 0.7731,0.0226 0.1456,0 0.2925,0 0.4384,0 0.2253,0 0.4552,-3.1e-4 0.6809,0 v 0.0557 c 17.2502,0.9394 33.2306,11.24258 43.9398,24.24956 22.9548,27.69536 31.7092,64.17115 32.4822,99.17293 -0.6032,8.97755 1.1588,19.7541 -2.6427,27.53866 -13.813,8.43274 -38.1706,9.8443 -54.7748,11.81499 -4.4065,0.19615 -11.4056,0.2507 -19.0045,0.29275 v 0.0224 c -0.7974,0 -1.556,0 -2.3424,-0.0224 -0.077,-1.9e-4 -0.1535,5.5e-4 -0.2306,0 -7.599,-0.043 -14.598,-0.0962 -19.0045,-0.29275 -16.6045,-1.97069 -40.9618,-3.38225 -54.7748,-11.81499 -3.8015,-7.78456 -2.0395,-18.56111 -2.6427,-27.53866 0.7729,-35.00183 9.5274,-71.47763 32.482,-99.17297 10.7094,-13.00712 26.6897,-23.31017 43.94,-24.24957 v -0.0782 c 0.2257,-2.3e-4 0.4553,0 0.6806,0 z"
           id="path3932-5-3-8-0-8-51-1-3-0-2-1-8-9-8-4-7-3-4-6-1-8-5-1-8-8-9-9-0-0-7-8-4"
           inkscape:connector-curvature="0" />
        <rect
           style="fill:#bb9a7a;fill-opacity:1;fill-rule:evenodd;stroke:#000000;stroke-width:2.1827929;stroke-linecap:round;stroke-linejoin:bevel;stroke-miterlimit:4;stroke-dasharray:none;stroke-dashoffset:0;stroke-opacity:1"
           id="rect4240-8-9-5-1-5-0-6-1-8-0-5-9-7-2-1-5-6-5-5-1-5-8-1-8-4-0-5"
           width="156.05148"
           height="133.72931"
           x="-1192.7159"
           y="277.75058"
           rx="74.68177"
           ry="64.635826"
           transform="scale(-1,1)" />
        <path
           style="fill:#4d3623;fill-opacity:1;fill-rule:evenodd;stroke:none;stroke-width:1.06666672"
           d="m 1195.3125,352.37454 c 1.0121,-5.08025 1.3836,-13.62398 0.8545,-19.64908 -1.4811,-16.86934 -9.1706,-32.56741 -21.982,-44.87663 -13.1747,-12.65821 -29.1585,-20.20349 -48.424,-22.85881 -21.5072,-2.96427 -44.7545,2.36456 -62.0649,14.22663 -16.3883,11.23025 -27.8643,28.20364 -31.6061,46.74652 -1.4976,7.42166 -1.0537,26.38467 0.6562,28.03094 10.2394,-16.30323 56.5635,-28.82636 77.0152,-28.87934 27.976,3.99901 65.6307,18.963 78.495,26.05524 l 6.6047,3.47073 z"
           id="path4493-9-8-9-0-8-8-3-7-8-5-0-8"
           inkscape:connector-curvature="0"
           sodipodi:nodetypes="csssssccccc" />
        <ellipse
           id="right-eye-7-2-0-7-0-0-1-9-4-8-8-9-1-2-8-0"
           cx="-1145.5975"
           cy="353.85681"
           style="fill:#222222;stroke:none;stroke-width:1.83819509"
           transform="scale(-1,1)"
           rx="5.5151858"
           ry="5.5139852" />
        <ellipse
           id="left-eye-6-7-5-3-9-5-5-0-5-6-1-0-6-6-5-5"
           cx="-1076.7296"
           cy="353.85681"
           style="fill:#222222;stroke:none;stroke-width:1.83819509"
           transform="scale(-1,1)"
           rx="5.5151858"
           ry="5.5139852" />
        <path
           style="fill:none;stroke:#000000;stroke-width:2.1827929;stroke-linecap:round;stroke-linejoin:round;stroke-miterlimit:4;stroke-dasharray:none;stroke-opacity:1"
           d="M 1118.6858,372.90342 H 1101.981"
           id="path3831-2-0-3-8-0-8-6-5-0-3-4-3"
           inkscape:connector-curvature="0" />
        <path
           sodipodi:type="star"
           style="fill:#f9acd1;fill-opacity:1;fill-rule:evenodd;stroke:#e10f9b;stroke-width:3.89704251;stroke-miterlimit:4;stroke-dasharray:none;stroke-opacity:1"
           id="path4376-3-6-7-1-3-4-1-8"
           sodipodi:sides="5"
           sodipodi:cx="-563.75"
           sodipodi:cy="325.28552"
           sodipodi:r1="63.884663"
           sodipodi:r2="31.047947"
           sodipodi:arg1="1.0370881"
           sodipodi:arg2="1.6654067"
           inkscape:flatsided="false"
           inkscape:rounded="0.07"
           inkscape:randomized="0"
           d="m -531.25,380.28552 c -2.58217,1.52583 -32.44719,-23.80756 -35.43308,-24.0909 -2.98588,-0.28335 -37.08289,18.98046 -39.33198,16.99618 -2.24908,-1.98429 12.61561,-38.21606 11.96239,-41.14336 -0.65321,-2.92731 -29.51074,-29.40264 -28.31857,-32.15483 1.19216,-2.75219 40.24407,0.18874 42.82624,-1.33709 2.58217,-1.52583 18.84425,-37.1523 21.83013,-36.86895 2.98589,0.28334 12.2566,38.3327 14.50569,40.31699 2.24909,1.98429 41.15713,6.44126 41.81034,9.36856 0.65322,2.9273 -32.66907,23.50217 -33.86124,26.25436 -1.19216,2.75219 6.59226,41.13321 4.01008,42.65904 z"
           transform="matrix(0.5372799,-0.15848284,0.15851734,0.53716294,1363.2767,202.71293)"
           inkscape:transform-center-x="-2.0102277"
           inkscape:transform-center-y="-1.2788364" />
        <path
           style="fill:#e8aebb;fill-opacity:1;fill-rule:evenodd;stroke:#000000;stroke-width:2.1827929;stroke-linecap:round;stroke-linejoin:round;stroke-miterlimit:4;stroke-dasharray:none;stroke-dashoffset:0;stroke-opacity:1"
           d="m 1038.6788,460.67364 c 13.1205,-0.5399 26.2351,13.87894 20.2719,26.77269 -7.4017,15.75366 -33.0978,14.34405 -40.2383,-0.91596 -5.6852,-10.52007 2.6354,-24.00276 13.9061,-25.45755 2.0001,-0.3094 4.0264,-0.52372 6.0603,-0.39918 z"
           id="path3954-8-5-7-3-4-8-9-1-7-1-6-4-9-4-8-7-37-5-2-3-1-5-0-7-3-1-1-1-2"
           inkscape:connector-curvature="0" />
        <path
           id="use3919-6-9-4-5"
           d="m 1162.8973,523.23043 c -36.63,-4.50816 -42.0039,38.34398 -47.7771,91.67511 -0.1056,0.16482 -0.1736,0.33117 -0.1953,0.511 -0.024,0.18697 0.011,0.38884 0.078,0.58445 -0.03,0.27158 -0.053,0.53329 -0.082,0.80494 l 0.6745,0.0768 c 3.2519,3.41404 17.9789,7.70908 35.9317,10.2206 20.3827,2.85098 37.2927,2.34533 38.1257,-1.09441 l 0.014,-0.003 c 0,-0.0404 0,-0.0788 0.019,-0.11977 0.011,-0.0178 0,-0.0159 0.011,-0.0178 0,-0.0159 0,-0.0159 0,-0.0159 5.8494,-54.14711 10.8757,-97.99096 -26.7891,-102.62631 z"
           style="fill:#704946;fill-opacity:1;fill-rule:evenodd;stroke:#000000;stroke-width:2.33990574;stroke-linecap:round;stroke-linejoin:round;stroke-miterlimit:4;stroke-dasharray:none;stroke-dashoffset:0;stroke-opacity:1"
           inkscape:connector-curvature="0" />
        <path
           style="fill:#e6e6e6;fill-opacity:1;stroke:#000000;stroke-width:2.33990574;stroke-linecap:butt;stroke-linejoin:miter;stroke-miterlimit:4;stroke-dasharray:none;stroke-opacity:1"
           d="m 1169.3412,653.34748 c 0,0 6.2725,-30.3846 -20.9291,-38.36854 -36.5917,-10.74017 -48.1187,17.61006 -48.1187,17.61006 -5.3091,8.02361 66.5223,33.19274 69.0478,20.75848 z"
           id="path4010-7-1-8-9-8-8-6-7-4-9-6-5-3-4-6-3-4-6-4-2-2-6-8-5-6-9-8-4-7-0-9"
           inkscape:connector-curvature="0"
           sodipodi:nodetypes="cscc" />
        <path
           inkscape:connector-curvature="0"
           style="fill:#704946;fill-opacity:1;fill-rule:evenodd;stroke:#000000;stroke-width:2.33990574;stroke-linecap:round;stroke-linejoin:round;stroke-miterlimit:4;stroke-dasharray:none;stroke-dashoffset:0;stroke-opacity:1"
           d="m 1058.4445,491.95876 c 35.196,-11.11121 48.2886,30.04199 63.6833,81.42566 0.1335,0.14234 0.231,0.29398 0.2851,0.46691 0.058,0.17933 0.061,0.384 0.029,0.58865 0.079,0.2615 0.1491,0.51481 0.2276,0.77651 l -0.6491,0.19834 c -2.5753,3.94969 -16.2735,10.8579 -33.4682,16.6005 -19.5223,6.51961 -36.2417,9.10556 -37.6875,5.87533 l -0.012,-0.003 c -0.011,-0.0402 -0.019,-0.0767 -0.041,-0.11349 0,-0.0182 0,-0.0182 0,-0.0182 0,-0.0182 0,-0.0182 0,-0.0182 -15.617,-52.17137 -28.5487,-94.3631 7.6416,-105.78808 z"
           id="path3097-1-6-5-8-0-9-0-3-0-7-6-0-6-6-0-8-7-9-3-2-6-2" />
        <path
           style="fill:#e6e6e6;fill-opacity:1;stroke:#000000;stroke-width:2.33990574;stroke-linecap:butt;stroke-linejoin:miter;stroke-miterlimit:4;stroke-dasharray:none;stroke-opacity:1"
           d="m 1064.3733,629.00141 c 0,0 -7.4349,-28.9767 18.3982,-37.82718 34.7508,-11.90557 47.1538,14.88788 47.1538,14.88788 5.4814,7.49537 -62.549,34.79866 -65.552,22.9393 z"
           id="path4010-1-9-1-1-1-9-9-3-8-3-5-6-6-7-2-6-5-8-8-8-5-3-7-9-9-8-0-8-2-1-2-6"
           inkscape:connector-curvature="0"
           sodipodi:nodetypes="cscc" />
        <path
           inkscape:connector-curvature="0"
           style="fill:#bb9a7a;fill-opacity:1;fill-rule:evenodd;stroke:#000000;stroke-width:2.1827929;stroke-linecap:round;stroke-linejoin:round;stroke-miterlimit:4;stroke-dasharray:none;stroke-dashoffset:0;stroke-opacity:1"
           d="m 1036.077,498.29039 c 7.2132,3.36563 16.8019,1.04486 21.4171,-5.1835 4.6149,-6.22842 2.5087,-14.00591 -4.7046,-17.37156 -7.2134,-3.36567 -16.8021,-1.04497 -21.417,5.1834 -4.6151,6.22842 -2.5088,14.00597 4.7045,17.37166 z"
           id="path3954-8-5-7-3-4-8-9-1-7-1-6-4-9-4-8-7-37-5-2-3-1-5-8-7-7-4-5-4" />
      </g>
    </g>
  </g>
</svg>
