<?xml version="1.0" encoding="UTF-8" standalone="no"?>
<!-- Created with Inkscape (http://www.inkscape.org/) -->

<svg
   xmlns:dc="http://purl.org/dc/elements/1.1/"
   xmlns:cc="http://creativecommons.org/ns#"
   xmlns:rdf="http://www.w3.org/1999/02/22-rdf-syntax-ns#"
   xmlns:svg="http://www.w3.org/2000/svg"
   xmlns="http://www.w3.org/2000/svg"
   xmlns:sodipodi="http://sodipodi.sourceforge.net/DTD/sodipodi-0.dtd"
   xmlns:inkscape="http://www.inkscape.org/namespaces/inkscape"
   id="svg6157"
   sodipodi:docname="little-wave-hello.svg"
   viewBox="0 0 180.88 286.99"
   version="1.1"
   inkscape:version="0.92.1 r15371"
   width="192.93867"
   height="306.12265">
  <defs
     id="defs25" />
  <sodipodi:namedview
     id="base"
     bordercolor="#666666"
     inkscape:pageshadow="2"
     inkscape:window-y="24"
     fit-margin-left="0"
     pagecolor="#ffffff"
     fit-margin-top="0"
     inkscape:window-maximized="1"
     inkscape:zoom="1"
     inkscape:window-x="0"
     inkscape:window-height="1124"
     showgrid="false"
     borderopacity="1.0"
     inkscape:current-layer="layer1"
     inkscape:cx="-43.378384"
     inkscape:cy="143.49267"
     fit-margin-right="0"
     fit-margin-bottom="0"
     inkscape:window-width="1920"
     inkscape:pageopacity="0.0"
     inkscape:document-units="px" />
  <g
     id="layer1"
     inkscape:label="Layer 1"
     inkscape:groupmode="layer"
     transform="translate(-284.56,-388.87)">
    <path
       id="path5532-7-3"
       style="fill:#484636;fill-rule:evenodd;stroke:#000000"
       sodipodi:type="star"
       sodipodi:sides="28"
       inkscape:transform-center-x="0.48708338"
       sodipodi:r1="64.119637"
       sodipodi:r2="57.771793"
       inkscape:transform-center-y="-0.13935179"
       sodipodi:arg1="0.81986726"
       sodipodi:arg2="0.92367792"
       transform="matrix(1.3618,0,0,1.1228,696.14,657.49)"
       inkscape:randomized="0"
       sodipodi:cy="-174.75"
       sodipodi:cx="-234.375"
       inkscape:rounded="0.32"
       inkscape:flatsided="false"
       d="m -190.625,-127.875 c -2.07826,1.97261 -6.61948,-2.49151 -8.91997,-0.78325 -2.49215,1.85058 0.0629,7.76088 -2.6076,9.34328 -2.4651,1.4607 -5.89911,-3.90201 -8.52204,-2.74849 -2.84146,1.24963 -1.66565,7.5803 -4.6213,8.52879 -2.72833,0.87553 -4.88293,-5.11686 -7.69678,-4.57592 -3.04829,0.58601 -3.31066,7.01961 -6.40327,7.28662 -2.85475,0.24647 -3.62189,-6.07512 -6.48556,-6.17388 -3.10226,-0.10699 -4.78967,6.10691 -7.86415,5.67906 -2.83802,-0.39495 -2.17924,-6.72875 -4.94914,-7.46226 -3.00068,-0.79463 -6.0285,4.888 -8.93069,3.78674 -2.67899,-1.01657 -0.62732,-7.04498 -3.16454,-8.37646 -2.74863,-1.44241 -6.96504,3.42398 -9.54941,1.70453 -2.38561,-1.5872 0.95606,-7.00793 -1.22127,-8.87061 -2.35874,-2.01788 -7.55231,1.78826 -9.68928,-0.46315 -1.97261,-2.07826 2.49151,-6.61948 0.78325,-8.91997 -1.85058,-2.49215 -7.76088,0.0629 -9.34328,-2.6076 -1.4607,-2.4651 3.90201,-5.89911 2.74849,-8.52204 -1.24963,-2.84146 -7.5803,-1.66565 -8.52879,-4.6213 -0.87553,-2.72833 5.11686,-4.88293 4.57592,-7.69678 -0.58601,-3.04829 -7.01961,-3.31066 -7.28662,-6.40327 -0.24647,-2.85475 6.07512,-3.62189 6.17388,-6.48556 0.10699,-3.10226 -6.10691,-4.78967 -5.67906,-7.86415 0.39495,-2.83802 6.72875,-2.17924 7.46226,-4.94914 0.79463,-3.00068 -4.888,-6.0285 -3.78674,-8.93069 1.01657,-2.67899 7.04498,-0.62732 8.37646,-3.16454 1.44241,-2.74863 -3.42398,-6.96504 -1.70453,-9.54941 1.5872,-2.38561 7.00793,0.95606 8.87061,-1.22127 2.01788,-2.35874 -1.78826,-7.55231 0.46315,-9.68928 2.07826,-1.97261 6.61948,2.49151 8.91997,0.78325 2.49215,-1.85058 -0.0629,-7.76088 2.6076,-9.34328 2.4651,-1.4607 5.89911,3.90201 8.52204,2.74849 2.84146,-1.24963 1.66565,-7.5803 4.6213,-8.52879 2.72833,-0.87553 4.88293,5.11686 7.69678,4.57592 3.04829,-0.58601 3.31066,-7.01961 6.40327,-7.28662 2.85475,-0.24647 3.62189,6.07512 6.48556,6.17388 3.10226,0.10699 4.78967,-6.10691 7.86415,-5.67906 2.83802,0.39495 2.17924,6.72875 4.94914,7.46226 3.00068,0.79463 6.0285,-4.888 8.93069,-3.78674 2.67899,1.01657 0.62732,7.04498 3.16454,8.37646 2.74863,1.44241 6.96504,-3.42398 9.54941,-1.70453 2.38561,1.5872 -0.95606,7.00793 1.22127,8.87061 2.35874,2.01788 7.55231,-1.78826 9.68928,0.46315 1.97261,2.07826 -2.49151,6.61948 -0.78325,8.91997 1.85058,2.49215 7.76088,-0.0629 9.34328,2.6076 1.4607,2.4651 -3.90201,5.89911 -2.74849,8.52204 1.24963,2.84146 7.5803,1.66565 8.52879,4.6213 0.87553,2.72833 -5.11686,4.88293 -4.57592,7.69678 0.58601,3.04829 7.01961,3.31066 7.28662,6.40327 0.24647,2.85475 -6.07512,3.62189 -6.17388,6.48556 -0.10699,3.10226 6.10691,4.78967 5.67906,7.86415 -0.39495,2.83802 -6.72875,2.17924 -7.46226,4.94914 -0.79463,3.00068 4.888,6.0285 3.78674,8.93069 -1.01657,2.67899 -7.04498,0.62732 -8.37646,3.16454 -1.44241,2.74863 3.42398,6.96504 1.70453,9.54941 -1.5872,2.38561 -7.00793,-0.95606 -8.87061,1.22127 -2.01788,2.35874 1.78826,7.55231 -0.46315,9.68928 z" />
    <rect
       id="rect3449-0-4-6-4-6-3-7-6-4-7-1-7"
       style="fill:#c2b38f;fill-rule:evenodd;stroke:#060000;stroke-width:2.91890001;stroke-linecap:round;stroke-linejoin:round"
       transform="matrix(-0.94068,0.33931,0.33931,0.94068,0,0)"
       rx="12.324"
       ry="10.054"
       height="20.756001"
       width="27.891001"
       y="712.58002"
       x="-225.17" />
    <rect
       id="rect3252-6-7-2-7-1-6-3-1-1-2-3-3-9-0"
       style="fill:#d6d5c1;fill-rule:evenodd;stroke:#000000;stroke-width:3.82929993;stroke-linecap:round;stroke-linejoin:round"
       transform="matrix(1,-7.4216e-5,0.0014835,1,0,0)"
       rx="56.622002"
       ry="19.525"
       height="70.948997"
       width="115.22"
       y="591.95001"
       x="321.92999" />
    <path
       id="path3928-9-81-8-0-49-3-2-5-9-4-8-1-3"
       style="fill:#ffffff;stroke:#000000;stroke-width:2.42799997;stroke-linecap:round;stroke-linejoin:round"
       inkscape:connector-curvature="0"
       d="m 380.27,659.95 -0.55407,-21.806" />
    <path
       id="path3352-0-2-4-5-6-4-3"
       sodipodi:nodetypes="cssc"
       style="fill:#8ec7bb;stroke:#000000;stroke-width:3.38709998"
       inkscape:connector-curvature="0"
       d="m 463.74,599.31 c -1.3222,-23.255 -17.804,-81.531 -36.849,-78.69 -19.045,2.8411 -9.5319,59.846 -3.3852,81.685 2.2737,8.0788 32.017,3.9914 40.234,-2.9952 z" />
    <path
       id="path3352-0-2-4-5-6-7-3-7"
       style="fill:#8ec7bb;stroke:#000000;stroke-width:3.56340003"
       inkscape:connector-curvature="0"
       d="m 329.96,520.4 c -8.4494,0.39617 -16.356,11.915 -22.658,26.66 11.342,1.923 24.265,3.2307 36.381,3.7167 0.11116,-15.93 -2.8193,-28.956 -11.865,-30.306 -0.62615,-0.0933 -1.2379,-0.10064 -1.8584,-0.0714 z" />
    <path
       id="path3932-5-3-8-0-8-51-1-3-0-2-1-8-9-2"
       style="fill:#ffffff;fill-rule:evenodd;stroke:#000000;stroke-width:4.03249979;stroke-linecap:round;stroke-linejoin:round"
       inkscape:connector-curvature="0"
       d="m 378.73,501.34 c -0.21262,0 -0.42583,0.0192 -0.63805,0.0192 h -0.36187 c -0.18589,0 -0.37555,-2.1e-4 -0.56184,0 v 0.0479 c -14.237,0.807 -27.425,9.6578 -36.264,20.831 -18.944,23.791 -26.17,55.125 -26.807,85.193 0.49771,7.7119 -0.95655,16.969 2.1808,23.657 11.4,7.244 31.502,8.4565 45.206,10.149 3.6367,0.16857 9.413,0.21535 15.684,0.25156 v 0.0192 c 0.65805,0 1.2842,0 1.9332,-0.0192 0.064,-1.9e-4 0.12663,4.1e-4 0.19038,0 6.2714,-0.0362 12.048,-0.0824 15.684,-0.25156 13.704,-1.6929 33.806,-2.9054 45.206,-10.149 3.1374,-6.6872 1.6831,-15.945 2.1808,-23.657 -0.63778,-30.068 -7.8628,-61.402 -26.807,-85.193 -8.8384,-11.174 -22.027,-20.024 -36.264,-20.831 v -0.067 c -0.18632,-1.9e-4 -0.37584,0 -0.56184,0 z" />
    <path
       id="path4010-7-1-8-9-8-8-6-7-4-9-6-5-9"
       sodipodi:nodetypes="cscc"
       style="fill:#d9d5a3;stroke:#000000;stroke-width:3.8921001"
       inkscape:connector-curvature="0"
       d="m 388.36,669.63 c 0,0 0.52409,-20.579 23.833,-21.697 31.355,-1.5041 35.423,18.541 35.423,18.541 2.7954,5.9773 -59.503,11.571 -59.256,3.1561 z" />
    <rect
       id="rect4240-8-9-5-1-5-0-6-1-9"
       style="fill:#c2b38f;fill-rule:evenodd;stroke:#000000;stroke-width:3.82929993;stroke-linecap:round;stroke-linejoin:bevel"
       rx="64.139999"
       ry="55.523998"
       height="114.88"
       width="134.02"
       y="423.07999"
       x="310.23999" />
    <path
       id="path458-3-6-8-8-1-7-5-3-2-7-1"
       d="m 352.6,486.33 c 0,2.9538 -2.3926,5.3472 -5.3473,5.3472 -2.9537,0 -5.3483,-2.3935 -5.3483,-5.3472 0,-2.9529 2.3946,-5.3483 5.3483,-5.3483 2.9547,0 5.3473,2.3955 5.3473,5.3483"
       style="fill:#000000"
       inkscape:connector-curvature="0" />
    <path
       id="path458-9-9-9-1-08-3-2-4-5-3-7"
       d="m 406.21,485.37 c 0,2.9538 -2.3926,5.3473 -5.3473,5.3473 -2.9537,0 -5.3483,-2.3935 -5.3483,-5.3473 0,-2.9528 2.3946,-5.3483 5.3483,-5.3483 2.9547,0 5.3473,2.3954 5.3473,5.3483"
       style="fill:#000000"
       inkscape:connector-curvature="0" />
    <path
       id="path4010-1-9-1-1-1-9-9-3-8-3-5-6-6-7"
       sodipodi:nodetypes="cscc"
       style="fill:#d9d5a3;stroke:#000000;stroke-width:4.05249977"
       inkscape:connector-curvature="0"
       d="m 374.12,668.13 c 0,0 -0.5501,-20.452 -25.018,-21.563 -32.915,-1.4948 -37.185,18.427 -37.185,18.427 -2.9344,5.9404 62.464,11.5 62.204,3.1369 z" />
    <path
       id="path5669-1-5"
       style="fill:#484636;fill-rule:evenodd"
       inkscape:connector-curvature="0"
       d="m 369.7,417.1 c -3.9962,0.33697 -4.3501,8.4854 -8.2891,9.2249 -3.636,0.6827 -6.4347,-6.9207 -9.9602,-5.8157 -3.8193,1.197 -2.2777,9.1853 -5.9494,10.762 -3.3893,1.4558 -7.8444,-5.3195 -11.03,-3.4761 -3.4508,1.9971 -0.12193,9.4964 -3.3424,11.832 -2.9727,2.1559 -8.8791,-3.4922 -11.565,-1.0027 -2.9093,2.697 2.0059,9.2562 -0.60163,12.233 -2.407,2.7479 -9.3799,-1.4732 -11.431,1.5375 -1.9579,2.8741 2.6829,7.3665 2.5402,10.762 3.6102,-0.61889 9.5316,3.4907 12.701,1.6043 3.9239,-2.3355 -0.12706,-9.8349 4.0777,-11.832 3.8813,-1.8435 9.3065,4.9318 13.436,3.4761 4.4739,-1.5771 2.6327,-9.5654 7.2864,-10.762 4.2958,-1.105 7.669,6.4984 12.099,5.8157 4.7996,-0.73958 5.2246,-8.888 10.094,-9.2249 4.4948,-0.31107 5.652,7.6965 10.161,7.8211 4.8845,0.13497 7.5928,-7.7595 12.434,-7.2195 4.4685,0.49843 3.3931,8.4997 7.7543,9.4255 4.7246,1.0029 9.5353,-6.136 14.105,-4.7462 4.218,1.283 0.95184,8.8815 4.9467,10.562 4.3277,1.8204 10.972,-4.3091 15.041,-2.1391 3.7562,2.0031 -1.4896,8.8127 1.9386,11.164 1.8852,1.2928 4.9158,0.73438 7.888,0.20043 -0.56068,-3.2256 5.5243,-7.2255 3.7434,-10.161 -2.0448,-3.3703 -9.708,-0.19722 -12.099,-3.3424 -2.2074,-2.9033 3.5517,-8.6075 1.0027,-11.23 -2.7614,-2.8414 -9.4525,1.945 -12.5,-0.60162 -2.8135,-2.3508 1.4783,-9.1604 -1.6043,-11.164 -3.3395,-2.17 -8.7481,3.9595 -12.3,2.1391 -3.2786,-1.6804 -0.68277,-9.2789 -4.1445,-10.562 -3.7502,-1.3898 -7.6203,5.749 -11.498,4.7462 -3.5792,-0.92572 -2.7501,-8.927 -6.4174,-9.4255 -3.9728,-0.53998 -6.1521,7.3545 -10.161,7.2195 -3.7004,-0.12471 -4.667,-8.1322 -8.3559,-7.8211 z" />
    <path
       id="path5669-1-6-1"
       style="fill:#484636;fill-rule:evenodd"
       inkscape:connector-curvature="0"
       d="m 370.08,410.54 c -3.9962,0.33698 -4.3501,8.4854 -8.2891,9.2249 -3.636,0.6827 -6.4347,-6.9207 -9.9602,-5.8157 -3.8193,1.197 -2.2777,9.1853 -5.9494,10.762 -3.3893,1.4558 -7.8444,-5.3195 -11.03,-3.4761 -3.4508,1.9971 -0.12193,9.4964 -3.3424,11.832 -2.9727,2.1559 -8.8791,-3.4922 -11.565,-1.0027 -2.9092,2.697 2.0059,9.2562 -0.60162,12.233 -2.407,2.7479 -9.3799,-1.4732 -11.431,1.5375 -1.9579,2.8741 2.6829,7.3665 2.5402,10.762 3.6102,-0.61889 9.5316,3.4907 12.701,1.6043 3.9239,-2.3355 -0.12707,-9.8349 4.0777,-11.832 3.8813,-1.8435 9.3065,4.9319 13.436,3.4761 4.4739,-1.5771 2.6327,-9.5654 7.2864,-10.762 4.2958,-1.105 7.669,6.4984 12.099,5.8157 4.7996,-0.73957 5.2246,-8.888 10.094,-9.2249 4.4948,-0.31107 5.6519,7.6965 10.161,7.8211 4.8845,0.13498 7.5928,-7.7595 12.434,-7.2195 4.4685,0.49844 3.3931,8.4998 7.7543,9.4255 4.7246,1.0029 9.5353,-6.136 14.105,-4.7462 4.2181,1.283 0.95184,8.8815 4.9467,10.562 4.3277,1.8204 10.972,-4.3091 15.041,-2.1391 3.7562,2.0031 -1.4896,8.8127 1.9386,11.164 1.8852,1.2928 4.9158,0.73438 7.888,0.20044 -0.56069,-3.2256 5.5243,-7.2255 3.7434,-10.161 -2.0448,-3.3703 -9.708,-0.19723 -12.099,-3.3424 -2.2074,-2.9033 3.5517,-8.6075 1.0027,-11.23 -2.7614,-2.8414 -9.4525,1.945 -12.5,-0.60163 -2.8135,-2.3508 1.4783,-9.1604 -1.6043,-11.164 -3.3395,-2.17 -8.7481,3.9595 -12.3,2.1391 -3.2786,-1.6804 -0.68276,-9.2789 -4.1445,-10.562 -3.7502,-1.3898 -7.6203,5.749 -11.498,4.7462 -3.5792,-0.92572 -2.7501,-8.927 -6.4174,-9.4255 -3.9728,-0.53998 -6.1521,7.3545 -10.161,7.2195 -3.7004,-0.12471 -4.667,-8.1322 -8.3559,-7.8211 z" />
    <rect
       id="rect3449-0-4-6-4-68-2-1-0"
       style="fill:#c2b38f;fill-rule:evenodd;stroke:#060000;stroke-width:3.80500007;stroke-linecap:round;stroke-linejoin:round"
       transform="matrix(0.99705,0.076702,-0.076702,0.99705,0,0)"
       rx="14.375"
       ry="11.727"
       height="24.211"
       width="32.533001"
       y="505.51999"
       x="335.44" />
    <g
       id="g8610-3-1-6-6"
       style="fill:#8ec7bb"
       transform="matrix(-2.3555,0.31264,0.39812,1.3609,1007.8,-120.18)">
      <path
         id="path8467-6-9-5-7-5-5-3"
         style="fill:#8ec7bb;fill-rule:evenodd;stroke:#000000;stroke-width:1.55999994;stroke-linecap:round;stroke-linejoin:round"
         d="m 372.97,435.97 c -6.1174,1.6095 -12.782,-6.993 -15.392,-21.893 -0.46129,-2.6332 16.249,-7.6864 17.117,-5.0029 4.6365,14.341 4.4887,25.261 -1.7247,26.896 z"
         inkscape:transform-center-x="-0.17337431"
         inkscape:transform-center-y="0.37926447"
         inkscape:connector-curvature="0"
         sodipodi:nodetypes="ssss" />
    </g>
    <path
       id="path6108"
       sodipodi:nodetypes="csc"
       style="fill:none;stroke:#000000;stroke-width:3.82660007;stroke-linecap:round;stroke-linejoin:round"
       inkscape:connector-curvature="0"
       d="m 364.93,506.26 c 0,0 -1.6013,12.153 9.6078,12.153 11.2091,0 8.8072,-12.153 8.8072,-12.153" />
  </g>
  <metadata
     id="metadata22">
    <rdf:RDF>
      <cc:Work>
        <dc:format>image/svg+xml</dc:format>
        <dc:type
           rdf:resource="http://purl.org/dc/dcmitype/StillImage" />
        <cc:license
           rdf:resource="http://creativecommons.org/licenses/publicdomain/" />
        <dc:publisher>
          <cc:Agent
             rdf:about="http://openclipart.org/">
            <dc:title>Openclipart</dc:title>
          </cc:Agent>
        </dc:publisher>
      </cc:Work>
      <cc:License
         rdf:about="http://creativecommons.org/licenses/publicdomain/">
        <cc:permits
           rdf:resource="http://creativecommons.org/ns#Reproduction" />
        <cc:permits
           rdf:resource="http://creativecommons.org/ns#Distribution" />
        <cc:permits
           rdf:resource="http://creativecommons.org/ns#DerivativeWorks" />
      </cc:License>
    </rdf:RDF>
  </metadata>
</svg>
